<svg width="67" height="67" viewBox="0 0 67 67" fill="none" xmlns="http://www.w3.org/2000/svg">
<path d="M24.5814 1.14014H21.9768V3.74474H24.5814V1.14014Z" fill="#111111"/>
<path d="M29.7896 1.14014H27.185V3.74474H29.7896V1.14014Z" fill="#111111"/>
<path d="M32.3937 1.14014H29.7891V3.74474H32.3937V1.14014Z" fill="#111111"/>
<path d="M40.2092 1.14014H37.6046V3.74474H40.2092V1.14014Z" fill="#111111"/>
<path d="M42.8117 1.14014H40.2071V3.74474H42.8117V1.14014Z" fill="#111111"/>
<path d="M29.7896 3.74487H27.185V6.34948H29.7896V3.74487Z" fill="#111111"/>
<path d="M32.3937 3.74487H29.7891V6.34948H32.3937V3.74487Z" fill="#111111"/>
<path d="M37.6035 3.74487H34.9989V6.34948H37.6035V3.74487Z" fill="#111111"/>
<path d="M42.8117 3.74487H40.2071V6.34948H42.8117V3.74487Z" fill="#111111"/>
<path d="M45.4158 3.74487H42.8112V6.34948H45.4158V3.74487Z" fill="#111111"/>
<path d="M24.5814 6.34937H21.9768V8.95397H24.5814V6.34937Z" fill="#111111"/>
<path d="M34.9994 6.34937H32.3948V8.95397H34.9994V6.34937Z" fill="#111111"/>
<path d="M40.2092 6.34937H37.6046V8.95397H40.2092V6.34937Z" fill="#111111"/>
<path d="M42.8117 6.34937H40.2071V8.95397H42.8117V6.34937Z" fill="#111111"/>
<path d="M24.5814 8.95398H21.9768V11.5586H24.5814V8.95398Z" fill="#111111"/>
<path d="M32.3937 8.95398H29.7891V11.5586H32.3937V8.95398Z" fill="#111111"/>
<path d="M40.2092 8.95398H37.6046V11.5586H40.2092V8.95398Z" fill="#111111"/>
<path d="M27.184 11.5585H24.5794V14.1631H27.184V11.5585Z" fill="#111111"/>
<path d="M34.9994 11.5585H32.3948V14.1631H34.9994V11.5585Z" fill="#111111"/>
<path d="M40.2092 11.5585H37.6046V14.1631H40.2092V11.5585Z" fill="#111111"/>
<path d="M42.8117 11.5585H40.2071V14.1631H42.8117V11.5585Z" fill="#111111"/>
<path d="M24.5814 14.1632H21.9768V16.7678H24.5814V14.1632Z" fill="#111111"/>
<path d="M27.184 14.1632H24.5794V16.7678H27.184V14.1632Z" fill="#111111"/>
<path d="M32.3937 14.1632H29.7891V16.7678H32.3937V14.1632Z" fill="#111111"/>
<path d="M42.8117 14.1632H40.2071V16.7678H42.8117V14.1632Z" fill="#111111"/>
<path d="M45.4158 14.1632H42.8112V16.7678H45.4158V14.1632Z" fill="#111111"/>
<path d="M24.5814 16.7677H21.9768V19.3723H24.5814V16.7677Z" fill="#111111"/>
<path d="M29.7896 16.7677H27.185V19.3723H29.7896V16.7677Z" fill="#111111"/>
<path d="M34.9994 16.7677H32.3948V19.3723H34.9994V16.7677Z" fill="#111111"/>
<path d="M40.2092 16.7677H37.6046V19.3723H40.2092V16.7677Z" fill="#111111"/>
<path d="M45.4158 16.7677H42.8112V19.3723H45.4158V16.7677Z" fill="#111111"/>
<path d="M24.5814 19.3726H21.9768V21.9772H24.5814V19.3726Z" fill="#111111"/>
<path d="M29.7896 19.3726H27.185V21.9772H29.7896V19.3726Z" fill="#111111"/>
<path d="M32.3937 19.3726H29.7891V21.9772H32.3937V19.3726Z" fill="#111111"/>
<path d="M40.2092 19.3726H37.6046V21.9772H40.2092V19.3726Z" fill="#111111"/>
<path d="M45.4158 19.3726H42.8112V21.9772H45.4158V19.3726Z" fill="#111111"/>
<path d="M6.34959 21.9771H3.74499V24.5817H6.34959V21.9771Z" fill="#111111"/>
<path d="M11.5578 21.9771H8.95319V24.5817H11.5578V21.9771Z" fill="#111111"/>
<path d="M16.7676 21.9771H14.163V24.5817H16.7676V21.9771Z" fill="#111111"/>
<path d="M19.3732 21.9771H16.7686V24.5817H19.3732V21.9771Z" fill="#111111"/>
<path d="M21.9758 21.9771H19.3712V24.5817H21.9758V21.9771Z" fill="#111111"/>
<path d="M24.5814 21.9771H21.9768V24.5817H24.5814V21.9771Z" fill="#111111"/>
<path d="M29.7896 21.9771H27.185V24.5817H29.7896V21.9771Z" fill="#111111"/>
<path d="M32.3937 21.9771H29.7891V24.5817H32.3937V21.9771Z" fill="#111111"/>
<path d="M34.9994 21.9771H32.3948V24.5817H34.9994V21.9771Z" fill="#111111"/>
<path d="M37.6035 21.9771H34.9989V24.5817H37.6035V21.9771Z" fill="#111111"/>
<path d="M40.2092 21.9771H37.6046V24.5817H40.2092V21.9771Z" fill="#111111"/>
<path d="M45.4158 21.9771H42.8112V24.5817H45.4158V21.9771Z" fill="#111111"/>
<path d="M48.0215 21.9771H45.4169V24.5817H48.0215V21.9771Z" fill="#111111"/>
<path d="M50.6287 21.9771H48.0241V24.5817H50.6287V21.9771Z" fill="#111111"/>
<path d="M53.2328 21.9771H50.6282V24.5817H53.2328V21.9771Z" fill="#111111"/>
<path d="M58.4394 21.9771H55.8348V24.5817H58.4394V21.9771Z" fill="#111111"/>
<path d="M61.0451 21.9771H58.4405V24.5817H61.0451V21.9771Z" fill="#111111"/>
<path d="M66.2533 21.9771H63.6487V24.5817H66.2533V21.9771Z" fill="#111111"/>
<path d="M3.74393 24.5818H1.13933V27.1864H3.74393V24.5818Z" fill="#111111"/>
<path d="M6.34959 24.5818H3.74499V27.1864H6.34959V24.5818Z" fill="#111111"/>
<path d="M8.9537 24.5818H6.34909V27.1864H8.9537V24.5818Z" fill="#111111"/>
<path d="M11.5578 24.5818H8.95319V27.1864H11.5578V24.5818Z" fill="#111111"/>
<path d="M27.184 24.5818H24.5794V27.1864H27.184V24.5818Z" fill="#111111"/>
<path d="M34.9994 24.5818H32.3948V27.1864H34.9994V24.5818Z" fill="#111111"/>
<path d="M45.4158 24.5818H42.8112V27.1864H45.4158V24.5818Z" fill="#111111"/>
<path d="M48.0215 24.5818H45.4169V27.1864H48.0215V24.5818Z" fill="#111111"/>
<path d="M50.6287 24.5818H48.0241V27.1864H50.6287V24.5818Z" fill="#111111"/>
<path d="M66.2533 24.5818H63.6487V27.1864H66.2533V24.5818Z" fill="#111111"/>
<path d="M3.74393 27.186H1.13933V29.7906H3.74393V27.186Z" fill="#111111"/>
<path d="M6.34959 27.186H3.74499V29.7906H6.34959V27.186Z" fill="#111111"/>
<path d="M11.5578 27.186H8.95319V29.7906H11.5578V27.186Z" fill="#111111"/>
<path d="M14.1619 27.186H11.5573V29.7906H14.1619V27.186Z" fill="#111111"/>
<path d="M16.7676 27.186H14.163V29.7906H16.7676V27.186Z" fill="#111111"/>
<path d="M19.3732 27.186H16.7686V29.7906H19.3732V27.186Z" fill="#111111"/>
<path d="M24.5814 27.186H21.9768V29.7906H24.5814V27.186Z" fill="#111111"/>
<path d="M27.184 27.186H24.5794V29.7906H27.184V27.186Z" fill="#111111"/>
<path d="M37.6035 27.186H34.9989V29.7906H37.6035V27.186Z" fill="#111111"/>
<path d="M45.4158 27.186H42.8112V29.7906H45.4158V27.186Z" fill="#111111"/>
<path d="M48.0215 27.186H45.4169V29.7906H48.0215V27.186Z" fill="#111111"/>
<path d="M50.6287 27.186H48.0241V29.7906H50.6287V27.186Z" fill="#111111"/>
<path d="M53.2328 27.186H50.6282V29.7906H53.2328V27.186Z" fill="#111111"/>
<path d="M63.6508 27.186H61.0462V29.7906H63.6508V27.186Z" fill="#111111"/>
<path d="M66.2533 27.186H63.6487V29.7906H66.2533V27.186Z" fill="#111111"/>
<path d="M8.9537 29.7911H6.34909V32.3957H8.9537V29.7911Z" fill="#111111"/>
<path d="M11.5578 29.7911H8.95319V32.3957H11.5578V29.7911Z" fill="#111111"/>
<path d="M14.1619 29.7911H11.5573V32.3957H14.1619V29.7911Z" fill="#111111"/>
<path d="M16.7676 29.7911H14.163V32.3957H16.7676V29.7911Z" fill="#111111"/>
<path d="M24.5814 29.7911H21.9768V32.3957H24.5814V29.7911Z" fill="#111111"/>
<path d="M32.3937 29.7911H29.7891V32.3957H32.3937V29.7911Z" fill="#111111"/>
<path d="M37.6035 29.7911H34.9989V32.3957H37.6035V29.7911Z" fill="#111111"/>
<path d="M42.8117 29.7911H40.2071V32.3957H42.8117V29.7911Z" fill="#111111"/>
<path d="M53.2328 29.7911H50.6282V32.3957H53.2328V29.7911Z" fill="#111111"/>
<path d="M55.8369 29.7911H53.2323V32.3957H55.8369V29.7911Z" fill="#111111"/>
<path d="M3.74393 32.3956H1.13933V35.0002H3.74393V32.3956Z" fill="#111111"/>
<path d="M14.1619 32.3956H11.5573V35.0002H14.1619V32.3956Z" fill="#111111"/>
<path d="M19.3732 32.3956H16.7686V35.0002H19.3732V32.3956Z" fill="#111111"/>
<path d="M21.9758 32.3956H19.3712V35.0002H21.9758V32.3956Z" fill="#111111"/>
<path d="M24.5814 32.3956H21.9768V35.0002H24.5814V32.3956Z" fill="#111111"/>
<path d="M29.7896 32.3956H27.185V35.0002H29.7896V32.3956Z" fill="#111111"/>
<path d="M32.3937 32.3956H29.7891V35.0002H32.3937V32.3956Z" fill="#111111"/>
<path d="M34.9994 32.3956H32.3948V35.0002H34.9994V32.3956Z" fill="#111111"/>
<path d="M40.2092 32.3956H37.6046V35.0002H40.2092V32.3956Z" fill="#111111"/>
<path d="M42.8117 32.3956H40.2071V35.0002H42.8117V32.3956Z" fill="#111111"/>
<path d="M45.4158 32.3956H42.8112V35.0002H45.4158V32.3956Z" fill="#111111"/>
<path d="M48.0215 32.3956H45.4169V35.0002H48.0215V32.3956Z" fill="#111111"/>
<path d="M50.6287 32.3956H48.0241V35.0002H50.6287V32.3956Z" fill="#111111"/>
<path d="M53.2328 32.3956H50.6282V35.0002H53.2328V32.3956Z" fill="#111111"/>
<path d="M58.4394 32.3956H55.8348V35.0002H58.4394V32.3956Z" fill="#111111"/>
<path d="M63.6508 32.3956H61.0462V35.0002H63.6508V32.3956Z" fill="#111111"/>
<path d="M66.2533 32.3956H63.6487V35.0002H66.2533V32.3956Z" fill="#111111"/>
<path d="M6.34959 34.9999H3.74499V37.6045H6.34959V34.9999Z" fill="#111111"/>
<path d="M11.5578 34.9999H8.95319V37.6045H11.5578V34.9999Z" fill="#111111"/>
<path d="M14.1619 34.9999H11.5573V37.6045H14.1619V34.9999Z" fill="#111111"/>
<path d="M16.7676 34.9999H14.163V37.6045H16.7676V34.9999Z" fill="#111111"/>
<path d="M27.184 34.9999H24.5794V37.6045H27.184V34.9999Z" fill="#111111"/>
<path d="M29.7896 34.9999H27.185V37.6045H29.7896V34.9999Z" fill="#111111"/>
<path d="M32.3937 34.9999H29.7891V37.6045H32.3937V34.9999Z" fill="#111111"/>
<path d="M37.6035 34.9999H34.9989V37.6045H37.6035V34.9999Z" fill="#111111"/>
<path d="M48.0215 34.9999H45.4169V37.6045H48.0215V34.9999Z" fill="#111111"/>
<path d="M50.6287 34.9999H48.0241V37.6045H50.6287V34.9999Z" fill="#111111"/>
<path d="M53.2328 34.9999H50.6282V37.6045H53.2328V34.9999Z" fill="#111111"/>
<path d="M58.4394 34.9999H55.8348V37.6045H58.4394V34.9999Z" fill="#111111"/>
<path d="M61.0451 34.9999H58.4405V37.6045H61.0451V34.9999Z" fill="#111111"/>
<path d="M66.2533 34.9999H63.6487V37.6045H66.2533V34.9999Z" fill="#111111"/>
<path d="M3.74393 37.6046H1.13933V40.2092H3.74393V37.6046Z" fill="#111111"/>
<path d="M11.5578 37.6046H8.95319V40.2092H11.5578V37.6046Z" fill="#111111"/>
<path d="M14.1619 37.6046H11.5573V40.2092H14.1619V37.6046Z" fill="#111111"/>
<path d="M16.7676 37.6046H14.163V40.2092H16.7676V37.6046Z" fill="#111111"/>
<path d="M19.3732 37.6046H16.7686V40.2092H19.3732V37.6046Z" fill="#111111"/>
<path d="M21.9758 37.6046H19.3712V40.2092H21.9758V37.6046Z" fill="#111111"/>
<path d="M29.7896 37.6046H27.185V40.2092H29.7896V37.6046Z" fill="#111111"/>
<path d="M32.3937 37.6046H29.7891V40.2092H32.3937V37.6046Z" fill="#111111"/>
<path d="M37.6035 37.6046H34.9989V40.2092H37.6035V37.6046Z" fill="#111111"/>
<path d="M40.2092 37.6046H37.6046V40.2092H40.2092V37.6046Z" fill="#111111"/>
<path d="M45.4158 37.6046H42.8112V40.2092H45.4158V37.6046Z" fill="#111111"/>
<path d="M50.6287 37.6046H48.0241V40.2092H50.6287V37.6046Z" fill="#111111"/>
<path d="M53.2328 37.6046H50.6282V40.2092H53.2328V37.6046Z" fill="#111111"/>
<path d="M55.8369 37.6046H53.2323V40.2092H55.8369V37.6046Z" fill="#111111"/>
<path d="M61.0451 37.6046H58.4405V40.2092H61.0451V37.6046Z" fill="#111111"/>
<path d="M66.2533 37.6046H63.6487V40.2092H66.2533V37.6046Z" fill="#111111"/>
<path d="M6.34959 40.2092H3.74499V42.8138H6.34959V40.2092Z" fill="#111111"/>
<path d="M11.5578 40.2092H8.95319V42.8138H11.5578V40.2092Z" fill="#111111"/>
<path d="M16.7676 40.2092H14.163V42.8138H16.7676V40.2092Z" fill="#111111"/>
<path d="M21.9758 40.2092H19.3712V42.8138H21.9758V40.2092Z" fill="#111111"/>
<path d="M24.5814 40.2092H21.9768V42.8138H24.5814V40.2092Z" fill="#111111"/>
<path d="M34.9994 40.2092H32.3948V42.8138H34.9994V40.2092Z" fill="#111111"/>
<path d="M40.2092 40.2092H37.6046V42.8138H40.2092V40.2092Z" fill="#111111"/>
<path d="M45.4158 40.2092H42.8112V42.8138H45.4158V40.2092Z" fill="#111111"/>
<path d="M55.8369 40.2092H53.2323V42.8138H55.8369V40.2092Z" fill="#111111"/>
<path d="M58.4394 40.2092H55.8348V42.8138H58.4394V40.2092Z" fill="#111111"/>
<path d="M63.6508 40.2092H61.0462V42.8138H63.6508V40.2092Z" fill="#111111"/>
<path d="M3.74393 42.814H1.13933V45.4186H3.74393V42.814Z" fill="#111111"/>
<path d="M6.34959 42.814H3.74499V45.4186H6.34959V42.814Z" fill="#111111"/>
<path d="M14.1619 42.814H11.5573V45.4186H14.1619V42.814Z" fill="#111111"/>
<path d="M19.3732 42.814H16.7686V45.4186H19.3732V42.814Z" fill="#111111"/>
<path d="M21.9758 42.814H19.3712V45.4186H21.9758V42.814Z" fill="#111111"/>
<path d="M27.184 42.814H24.5794V45.4186H27.184V42.814Z" fill="#111111"/>
<path d="M34.9994 42.814H32.3948V45.4186H34.9994V42.814Z" fill="#111111"/>
<path d="M37.6035 42.814H34.9989V45.4186H37.6035V42.814Z" fill="#111111"/>
<path d="M45.4158 42.814H42.8112V45.4186H45.4158V42.814Z" fill="#111111"/>
<path d="M48.0215 42.814H45.4169V45.4186H48.0215V42.814Z" fill="#111111"/>
<path d="M50.6287 42.814H48.0241V45.4186H50.6287V42.814Z" fill="#111111"/>
<path d="M53.2328 42.814H50.6282V45.4186H53.2328V42.814Z" fill="#111111"/>
<path d="M55.8369 42.814H53.2323V45.4186H55.8369V42.814Z" fill="#111111"/>
<path d="M58.4394 42.814H55.8348V45.4186H58.4394V42.814Z" fill="#111111"/>
<path d="M61.0451 42.814H58.4405V45.4186H61.0451V42.814Z" fill="#111111"/>
<path d="M24.5814 45.4182H21.9768V48.0228H24.5814V45.4182Z" fill="#111111"/>
<path d="M27.184 45.4182H24.5794V48.0228H27.184V45.4182Z" fill="#111111"/>
<path d="M37.6035 45.4182H34.9989V48.0228H37.6035V45.4182Z" fill="#111111"/>
<path d="M42.8117 45.4182H40.2071V48.0228H42.8117V45.4182Z" fill="#111111"/>
<path d="M45.4158 45.4182H42.8112V48.0228H45.4158V45.4182Z" fill="#111111"/>
<path d="M55.8369 45.4182H53.2323V48.0228H55.8369V45.4182Z" fill="#111111"/>
<path d="M58.4394 45.4182H55.8348V48.0228H58.4394V45.4182Z" fill="#111111"/>
<path d="M61.0451 45.4182H58.4405V48.0228H61.0451V45.4182Z" fill="#111111"/>
<path d="M66.2533 45.4182H63.6487V48.0228H66.2533V45.4182Z" fill="#111111"/>
<path d="M24.5814 48.0229H21.9768V50.6276H24.5814V48.0229Z" fill="#111111"/>
<path d="M32.3937 48.0229H29.7891V50.6276H32.3937V48.0229Z" fill="#111111"/>
<path d="M37.6035 48.0229H34.9989V50.6276H37.6035V48.0229Z" fill="#111111"/>
<path d="M42.8117 48.0229H40.2071V50.6276H42.8117V48.0229Z" fill="#111111"/>
<path d="M45.4158 48.0229H42.8112V50.6276H45.4158V48.0229Z" fill="#111111"/>
<path d="M50.6287 48.0229H48.0241V50.6276H50.6287V48.0229Z" fill="#111111"/>
<path d="M55.8369 48.0229H53.2323V50.6276H55.8369V48.0229Z" fill="#111111"/>
<path d="M63.6508 48.0229H61.0462V50.6276H63.6508V48.0229Z" fill="#111111"/>
<path d="M66.2533 48.0229H63.6487V50.6276H66.2533V48.0229Z" fill="#111111"/>
<path d="M24.5814 50.6277H21.9768V53.2323H24.5814V50.6277Z" fill="#111111"/>
<path d="M29.7896 50.6277H27.185V53.2323H29.7896V50.6277Z" fill="#111111"/>
<path d="M34.9994 50.6277H32.3948V53.2323H34.9994V50.6277Z" fill="#111111"/>
<path d="M37.6035 50.6277H34.9989V53.2323H37.6035V50.6277Z" fill="#111111"/>
<path d="M40.2092 50.6277H37.6046V53.2323H40.2092V50.6277Z" fill="#111111"/>
<path d="M45.4158 50.6277H42.8112V53.2323H45.4158V50.6277Z" fill="#111111"/>
<path d="M55.8369 50.6277H53.2323V53.2323H55.8369V50.6277Z" fill="#111111"/>
<path d="M58.4394 50.6277H55.8348V53.2323H58.4394V50.6277Z" fill="#111111"/>
<path d="M61.0451 50.6277H58.4405V53.2323H61.0451V50.6277Z" fill="#111111"/>
<path d="M63.6508 50.6277H61.0462V53.2323H63.6508V50.6277Z" fill="#111111"/>
<path d="M29.7896 53.2323H27.185V55.8369H29.7896V53.2323Z" fill="#111111"/>
<path d="M34.9994 53.2323H32.3948V55.8369H34.9994V53.2323Z" fill="#111111"/>
<path d="M37.6035 53.2323H34.9989V55.8369H37.6035V53.2323Z" fill="#111111"/>
<path d="M45.4158 53.2323H42.8112V55.8369H45.4158V53.2323Z" fill="#111111"/>
<path d="M48.0215 53.2323H45.4169V55.8369H48.0215V53.2323Z" fill="#111111"/>
<path d="M50.6287 53.2323H48.0241V55.8369H50.6287V53.2323Z" fill="#111111"/>
<path d="M53.2328 53.2323H50.6282V55.8369H53.2328V53.2323Z" fill="#111111"/>
<path d="M55.8369 53.2323H53.2323V55.8369H55.8369V53.2323Z" fill="#111111"/>
<path d="M66.2533 53.2323H63.6487V55.8369H66.2533V53.2323Z" fill="#111111"/>
<path d="M24.5814 55.8372H21.9768V58.4418H24.5814V55.8372Z" fill="#111111"/>
<path d="M29.7896 55.8372H27.185V58.4418H29.7896V55.8372Z" fill="#111111"/>
<path d="M37.6035 55.8372H34.9989V58.4418H37.6035V55.8372Z" fill="#111111"/>
<path d="M53.2328 55.8372H50.6282V58.4418H53.2328V55.8372Z" fill="#111111"/>
<path d="M61.0451 55.8372H58.4405V58.4418H61.0451V55.8372Z" fill="#111111"/>
<path d="M27.184 58.4415H24.5794V61.0461H27.184V58.4415Z" fill="#111111"/>
<path d="M34.9994 58.4415H32.3948V61.0461H34.9994V58.4415Z" fill="#111111"/>
<path d="M37.6035 58.4415H34.9989V61.0461H37.6035V58.4415Z" fill="#111111"/>
<path d="M45.4158 58.4415H42.8112V61.0461H45.4158V58.4415Z" fill="#111111"/>
<path d="M48.0215 58.4415H45.4169V61.0461H48.0215V58.4415Z" fill="#111111"/>
<path d="M55.8369 58.4415H53.2323V61.0461H55.8369V58.4415Z" fill="#111111"/>
<path d="M58.4394 58.4415H55.8348V61.0461H58.4394V58.4415Z" fill="#111111"/>
<path d="M61.0451 58.4415H58.4405V61.0461H61.0451V58.4415Z" fill="#111111"/>
<path d="M66.2533 58.4415H63.6487V61.0461H66.2533V58.4415Z" fill="#111111"/>
<path d="M24.5814 61.0461H21.9768V63.6508H24.5814V61.0461Z" fill="#111111"/>
<path d="M27.184 61.0461H24.5794V63.6508H27.184V61.0461Z" fill="#111111"/>
<path d="M29.7896 61.0461H27.185V63.6508H29.7896V61.0461Z" fill="#111111"/>
<path d="M34.9994 61.0461H32.3948V63.6508H34.9994V61.0461Z" fill="#111111"/>
<path d="M37.6035 61.0461H34.9989V63.6508H37.6035V61.0461Z" fill="#111111"/>
<path d="M42.8117 61.0461H40.2071V63.6508H42.8117V61.0461Z" fill="#111111"/>
<path d="M45.4158 61.0461H42.8112V63.6508H45.4158V61.0461Z" fill="#111111"/>
<path d="M58.4394 61.0461H55.8348V63.6508H58.4394V61.0461Z" fill="#111111"/>
<path d="M27.184 63.6506H24.5794V66.2552H27.184V63.6506Z" fill="#111111"/>
<path d="M29.7896 63.6506H27.185V66.2552H29.7896V63.6506Z" fill="#111111"/>
<path d="M32.3937 63.6506H29.7891V66.2552H32.3937V63.6506Z" fill="#111111"/>
<path d="M34.9994 63.6506H32.3948V66.2552H34.9994V63.6506Z" fill="#111111"/>
<path d="M37.6035 63.6506H34.9989V66.2552H37.6035V63.6506Z" fill="#111111"/>
<path d="M42.8117 63.6506H40.2071V66.2552H42.8117V63.6506Z" fill="#111111"/>
<path d="M45.4158 63.6506H42.8112V66.2552H45.4158V63.6506Z" fill="#111111"/>
<path d="M53.2328 63.6506H50.6282V66.2552H53.2328V63.6506Z" fill="#111111"/>
<path d="M63.6508 63.6506H61.0462V66.2552H63.6508V63.6506Z" fill="#111111"/>
<path d="M66.2533 63.6506H63.6487V66.2552H66.2533V63.6506Z" fill="#111111"/>
<path d="M18.0661 2.43933H2.4385V18.067H18.0661V2.43933Z" stroke="#111111" stroke-width="3.63964"/>
<path d="M14.1592 6.34644H6.34543V14.1603H14.1592V6.34644Z" fill="#111111"/>
<path d="M64.9571 2.43933H49.3295V18.067H64.9571V2.43933Z" stroke="#111111" stroke-width="3.63964"/>
<path d="M61.0471 6.34644H53.2333V14.1603H61.0471V6.34644Z" fill="#111111"/>
<path d="M18.0661 49.3287H2.4385V64.9564H18.0661V49.3287Z" stroke="#111111" stroke-width="3.63964"/>
<path d="M14.1592 53.2361H6.34543V61.0499H14.1592V53.2361Z" fill="#111111"/>
</svg>
