<svg width="80" height="81" viewBox="0 0 80 81" fill="none" xmlns="http://www.w3.org/2000/svg">
<g id="Template 11">
<rect y="0.400635" width="80" height="80" rx="40" fill="white"/>
<rect x="0.5" y="0.900635" width="79" height="79" rx="39.5" stroke="#1A1A1A" stroke-opacity="0.1"/>
<g id="Group">
<path id="Vector" d="M39.2975 15.3846C40.108 15.3846 40.765 14.7276 40.765 13.9172C40.765 13.1067 40.108 12.4497 39.2975 12.4497C38.4871 12.4497 37.8301 13.1067 37.8301 13.9172C37.8301 14.7276 38.4871 15.3846 39.2975 15.3846Z" fill="#111111"/>
<path id="Vector_2" d="M47.9616 68.3525C48.772 68.3525 49.429 67.6955 49.429 66.8851C49.429 66.0746 48.772 65.4176 47.9616 65.4176C47.1511 65.4176 46.4941 66.0746 46.4941 66.8851C46.4941 67.6955 47.1511 68.3525 47.9616 68.3525Z" fill="#111111"/>
<path id="Vector_3" d="M40.2741 67.3739C41.0845 67.3739 41.7415 66.7169 41.7415 65.9064C41.7415 65.096 41.0845 64.439 40.2741 64.439C39.4636 64.439 38.8066 65.096 38.8066 65.9064C38.8066 66.7169 39.4636 67.3739 40.2741 67.3739Z" fill="#111111"/>
<path id="Vector_4" d="M32.5885 68.4923C33.399 68.4923 34.056 67.8353 34.056 67.0249C34.056 66.2144 33.399 65.5574 32.5885 65.5574C31.7781 65.5574 31.1211 66.2144 31.1211 67.0249C31.1211 67.8353 31.7781 68.4923 32.5885 68.4923Z" fill="#111111"/>
<path id="Vector_5" d="M53.8322 66.8153C54.334 66.8153 54.7407 66.4086 54.7407 65.9069C54.7407 65.4052 54.334 64.9985 53.8322 64.9985C53.3305 64.9985 52.9238 65.4052 52.9238 65.9069C52.9238 66.4086 53.3305 66.8153 53.8322 66.8153Z" fill="#111111"/>
<path id="Vector_6" d="M53.8322 66.8153C54.334 66.8153 54.7407 66.4086 54.7407 65.9069C54.7407 65.4052 54.334 64.9985 53.8322 64.9985C53.3305 64.9985 52.9238 65.4052 52.9238 65.9069C52.9238 66.4086 53.3305 66.8153 53.8322 66.8153Z" fill="#111111"/>
<path id="Vector_7" d="M15.1194 27.5435C15.6211 27.5435 16.0278 27.1368 16.0278 26.6351C16.0278 26.1334 15.6211 25.7267 15.1194 25.7267C14.6177 25.7267 14.2109 26.1334 14.2109 26.6351C14.2109 27.1368 14.6177 27.5435 15.1194 27.5435Z" fill="#111111"/>
<path id="Vector_8" d="M15.1194 51.8613C15.6211 51.8613 16.0278 51.4545 16.0278 50.9528C16.0278 50.4511 15.6211 50.0444 15.1194 50.0444C14.6177 50.0444 14.2109 50.4511 14.2109 50.9528C14.2109 51.4545 14.6177 51.8613 15.1194 51.8613Z" fill="#111111"/>
<path id="Vector_9" d="M25.6018 16.922C26.1035 16.922 26.5102 16.5153 26.5102 16.0136C26.5102 15.5119 26.1035 15.1052 25.6018 15.1052C25.1001 15.1052 24.6934 15.5119 24.6934 16.0136C24.6934 16.5153 25.1001 16.922 25.6018 16.922Z" fill="#111111"/>
<path id="Vector_10" d="M52.9944 16.922C53.4961 16.922 53.9028 16.5153 53.9028 16.0136C53.9028 15.5119 53.4961 15.1052 52.9944 15.1052C52.4927 15.1052 52.0859 15.5119 52.0859 16.0136C52.0859 16.5153 52.4927 16.922 52.9944 16.922Z" fill="#111111"/>
<path id="Vector_11" d="M15.3987 43.6153C15.9004 43.6153 16.3071 43.2086 16.3071 42.7069C16.3071 42.2052 15.9004 41.7985 15.3987 41.7985C14.8969 41.7985 14.4902 42.2052 14.4902 42.7069C14.4902 43.2086 14.8969 43.6153 15.3987 43.6153Z" fill="#111111"/>
<path id="Vector_12" d="M10.3674 39.9821C10.8691 39.9821 11.2758 39.5754 11.2758 39.0737C11.2758 38.572 10.8691 38.1653 10.3674 38.1653C9.8657 38.1653 9.45898 38.572 9.45898 39.0737C9.45898 39.5754 9.8657 39.9821 10.3674 39.9821Z" fill="#111111"/>
<path id="Vector_13" d="M16.2365 32.016C16.7383 32.016 17.145 31.6093 17.145 31.1076C17.145 30.6059 16.7383 30.1992 16.2365 30.1992C15.7348 30.1992 15.3281 30.6059 15.3281 31.1076C15.3281 31.6093 15.7348 32.016 16.2365 32.016Z" fill="#111111"/>
<path id="Vector_14" d="M37.2014 70.3092C37.7031 70.3092 38.1098 69.9025 38.1098 69.4008C38.1098 68.8991 37.7031 68.4924 37.2014 68.4924C36.6997 68.4924 36.293 68.8991 36.293 69.4008C36.293 69.9025 36.6997 70.3092 37.2014 70.3092Z" fill="#111111"/>
<path id="Vector_15" d="M43.4885 70.1695C43.9902 70.1695 44.3969 69.7628 44.3969 69.2611C44.3969 68.7594 43.9902 68.3527 43.4885 68.3527C42.9868 68.3527 42.5801 68.7594 42.5801 69.2611C42.5801 69.7628 42.9868 70.1695 43.4885 70.1695Z" fill="#111111"/>
<path id="Vector_16" d="M64.8713 45.4326C65.373 45.4326 65.7797 45.0259 65.7797 44.5242C65.7797 44.0225 65.373 43.6158 64.8713 43.6158C64.3696 43.6158 63.9629 44.0225 63.9629 44.5242C63.9629 45.0259 64.3696 45.4326 64.8713 45.4326Z" fill="#111111"/>
<path id="Vector_17" d="M69.9045 38.0254C70.4062 38.0254 70.8129 37.6186 70.8129 37.1169C70.8129 36.6152 70.4062 36.2085 69.9045 36.2085C69.4028 36.2085 68.9961 36.6152 68.9961 37.1169C68.9961 37.6186 69.4028 38.0254 69.9045 38.0254Z" fill="#111111"/>
<path id="Vector_18" d="M64.4533 36.6276C64.955 36.6276 65.3618 36.2208 65.3618 35.7191C65.3618 35.2174 64.955 34.8107 64.4533 34.8107C63.9516 34.8107 63.5449 35.2174 63.5449 35.7191C63.5449 36.2208 63.9516 36.6276 64.4533 36.6276Z" fill="#111111"/>
<path id="Vector_19" d="M35.383 11.7512C35.8847 11.7512 36.2914 11.3445 36.2914 10.8427C36.2914 10.341 35.8847 9.93433 35.383 9.93433C34.8813 9.93433 34.4746 10.341 34.4746 10.8427C34.4746 11.3445 34.8813 11.7512 35.383 11.7512Z" fill="#111111"/>
<path id="Vector_20" d="M34.4045 16.5027C34.9062 16.5027 35.3129 16.096 35.3129 15.5943C35.3129 15.0926 34.9062 14.6858 34.4045 14.6858C33.9028 14.6858 33.4961 15.0926 33.4961 15.5943C33.4961 16.096 33.9028 16.5027 34.4045 16.5027Z" fill="#111111"/>
<path id="Vector_21" d="M44.467 16.922C44.9687 16.922 45.3754 16.5153 45.3754 16.0136C45.3754 15.5119 44.9687 15.1052 44.467 15.1052C43.9653 15.1052 43.5586 15.5119 43.5586 16.0136C43.5586 16.5153 43.9653 16.922 44.467 16.922Z" fill="#111111"/>
<path id="Vector_22" d="M66.2678 28.9413C66.7695 28.9413 67.1762 28.5346 67.1762 28.0329C67.1762 27.5312 66.7695 27.1245 66.2678 27.1245C65.7661 27.1245 65.3594 27.5312 65.3594 28.0329C65.3594 28.5346 65.7661 28.9413 66.2678 28.9413Z" fill="#111111"/>
<path id="Vector_23" d="M66.6877 53.3984C67.1894 53.3984 67.5961 52.9917 67.5961 52.49C67.5961 51.9882 67.1894 51.5815 66.6877 51.5815C66.186 51.5815 65.7793 51.9882 65.7793 52.49C65.7793 52.9917 66.186 53.3984 66.6877 53.3984Z" fill="#111111"/>
<path id="Vector_24" d="M27.9787 66.8153C28.4804 66.8153 28.8872 66.4086 28.8872 65.9069C28.8872 65.4052 28.4804 64.9985 27.9787 64.9985C27.477 64.9985 27.0703 65.4052 27.0703 65.9069C27.0703 66.4086 27.477 66.8153 27.9787 66.8153Z" fill="#111111"/>
<path id="Vector_25" d="M12.7428 47.2492C13.5533 47.2492 14.2103 46.5922 14.2103 45.7817C14.2103 44.9713 13.5533 44.3143 12.7428 44.3143C11.9324 44.3143 11.2754 44.9713 11.2754 45.7817C11.2754 46.5922 11.9324 47.2492 12.7428 47.2492Z" fill="#111111"/>
<path id="Vector_26" d="M12.7428 34.1121C13.5533 34.1121 14.2103 33.4551 14.2103 32.6446C14.2103 31.8342 13.5533 31.1772 12.7428 31.1772C11.9324 31.1772 11.2754 31.8342 11.2754 32.6446C11.2754 33.4551 11.9324 34.1121 12.7428 34.1121Z" fill="#111111"/>
<path id="Vector_27" d="M30.7721 15.245C31.5826 15.245 32.2396 14.588 32.2396 13.7775C32.2396 12.9671 31.5826 12.3101 30.7721 12.3101C29.9617 12.3101 29.3047 12.9671 29.3047 13.7775C29.3047 14.588 29.9617 15.245 30.7721 15.245Z" fill="#111111"/>
<path id="Vector_28" d="M47.821 14.686C48.6314 14.686 49.2884 14.029 49.2884 13.2186C49.2884 12.4081 48.6314 11.7511 47.821 11.7511C47.0105 11.7511 46.3535 12.4081 46.3535 13.2186C46.3535 14.029 47.0105 14.686 47.821 14.686Z" fill="#111111"/>
<path id="Vector_29" d="M67.528 34.1121C68.3384 34.1121 68.9954 33.4551 68.9954 32.6446C68.9954 31.8342 68.3384 31.1772 67.528 31.1772C66.7175 31.1772 66.0605 31.8342 66.0605 32.6446C66.0605 33.4551 66.7175 34.1121 67.528 34.1121Z" fill="#111111"/>
<path id="Vector_30" d="M67.6667 48.7868C68.4771 48.7868 69.1341 48.1298 69.1341 47.3193C69.1341 46.5089 68.4771 45.8519 67.6667 45.8519C66.8562 45.8519 66.1992 46.5089 66.1992 47.3193C66.1992 48.1298 66.8562 48.7868 67.6667 48.7868Z" fill="#111111"/>
<path id="Vector_31" d="M14.0026 40.2615C14.8131 40.2615 15.4701 39.6045 15.4701 38.7941C15.4701 37.9836 14.8131 37.3266 14.0026 37.3266C13.1922 37.3266 12.5352 37.9836 12.5352 38.7941C12.5352 39.6045 13.1922 40.2615 14.0026 40.2615Z" fill="#111111"/>
<path id="Vector_32" d="M66.5495 41.659C67.3599 41.659 68.0169 41.002 68.0169 40.1916C68.0169 39.3811 67.3599 38.7241 66.5495 38.7241C65.739 38.7241 65.082 39.3811 65.082 40.1916C65.082 41.002 65.739 41.659 66.5495 41.659Z" fill="#111111"/>
</g>
<g id="Group_2">
<g id="Group_3">
<path id="Vector_33" d="M34.0832 19.4545H32.7949V20.7427H34.0832V19.4545Z" fill="#111111"/>
<path id="Vector_34" d="M37.5226 19.4545H36.2344V20.7427H37.5226V19.4545Z" fill="#111111"/>
<path id="Vector_35" d="M39.2394 19.4545H37.9512V20.7427H39.2394V19.4545Z" fill="#111111"/>
<path id="Vector_36" d="M44.3937 19.4545H43.1055V20.7427H44.3937V19.4545Z" fill="#111111"/>
<path id="Vector_37" d="M46.1085 19.4545H44.8203V20.7427H46.1085V19.4545Z" fill="#111111"/>
<path id="Vector_38" d="M37.5226 21.1723H36.2344V22.4605H37.5226V21.1723Z" fill="#111111"/>
<path id="Vector_39" d="M39.2394 21.1723H37.9512V22.4605H39.2394V21.1723Z" fill="#111111"/>
<path id="Vector_40" d="M42.675 21.1723H41.3867V22.4605H42.675V21.1723Z" fill="#111111"/>
<path id="Vector_41" d="M46.1085 21.1723H44.8203V22.4605H46.1085V21.1723Z" fill="#111111"/>
<path id="Vector_42" d="M47.8273 21.1723H46.5391V22.4605H47.8273V21.1723Z" fill="#111111"/>
<path id="Vector_43" d="M34.0832 22.8898H32.7949V24.1781H34.0832V22.8898Z" fill="#111111"/>
<path id="Vector_44" d="M40.9562 22.8898H39.668V24.1781H40.9562V22.8898Z" fill="#111111"/>
<path id="Vector_45" d="M44.3937 22.8898H43.1055V24.1781H44.3937V22.8898Z" fill="#111111"/>
<path id="Vector_46" d="M46.1085 22.8898H44.8203V24.1781H46.1085V22.8898Z" fill="#111111"/>
<path id="Vector_47" d="M34.0832 24.6075H32.7949V25.8957H34.0832V24.6075Z" fill="#111111"/>
<path id="Vector_48" d="M39.2394 24.6075H37.9512V25.8957H39.2394V24.6075Z" fill="#111111"/>
<path id="Vector_49" d="M44.3937 24.6075H43.1055V25.8957H44.3937V24.6075Z" fill="#111111"/>
<path id="Vector_50" d="M35.8039 26.325H34.5156V27.6133H35.8039V26.325Z" fill="#111111"/>
<path id="Vector_51" d="M40.9562 26.325H39.668V27.6133H40.9562V26.325Z" fill="#111111"/>
<path id="Vector_52" d="M44.3937 26.325H43.1055V27.6133H44.3937V26.325Z" fill="#111111"/>
<path id="Vector_53" d="M46.1085 26.325H44.8203V27.6133H46.1085V26.325Z" fill="#111111"/>
<path id="Vector_54" d="M34.0832 28.0427H32.7949V29.3309H34.0832V28.0427Z" fill="#111111"/>
<path id="Vector_55" d="M35.8039 28.0427H34.5156V29.3309H35.8039V28.0427Z" fill="#111111"/>
<path id="Vector_56" d="M39.2394 28.0427H37.9512V29.3309H39.2394V28.0427Z" fill="#111111"/>
<path id="Vector_57" d="M46.1085 28.0427H44.8203V29.3309H46.1085V28.0427Z" fill="#111111"/>
<path id="Vector_58" d="M47.8273 28.0427H46.5391V29.3309H47.8273V28.0427Z" fill="#111111"/>
<path id="Vector_59" d="M34.0832 29.7606H32.7949V31.0488H34.0832V29.7606Z" fill="#111111"/>
<path id="Vector_60" d="M37.5226 29.7606H36.2344V31.0488H37.5226V29.7606Z" fill="#111111"/>
<path id="Vector_61" d="M40.9562 29.7606H39.668V31.0488H40.9562V29.7606Z" fill="#111111"/>
<path id="Vector_62" d="M44.3937 29.7606H43.1055V31.0488H44.3937V29.7606Z" fill="#111111"/>
<path id="Vector_63" d="M47.8273 29.7606H46.5391V31.0488H47.8273V29.7606Z" fill="#111111"/>
<path id="Vector_64" d="M34.0832 31.4782H32.7949V32.7665H34.0832V31.4782Z" fill="#111111"/>
<path id="Vector_65" d="M37.5226 31.4782H36.2344V32.7665H37.5226V31.4782Z" fill="#111111"/>
<path id="Vector_66" d="M39.2394 31.4782H37.9512V32.7665H39.2394V31.4782Z" fill="#111111"/>
<path id="Vector_67" d="M44.3937 31.4782H43.1055V32.7665H44.3937V31.4782Z" fill="#111111"/>
<path id="Vector_68" d="M47.8273 31.4782H46.5391V32.7665H47.8273V31.4782Z" fill="#111111"/>
<path id="Vector_69" d="M22.0617 33.1958H20.7734V34.484H22.0617V33.1958Z" fill="#111111"/>
<path id="Vector_70" d="M25.4972 33.1958H24.209V34.484H25.4972V33.1958Z" fill="#111111"/>
<path id="Vector_71" d="M28.9328 33.1958H27.6445V34.484H28.9328V33.1958Z" fill="#111111"/>
<path id="Vector_72" d="M30.6515 33.1958H29.3633V34.484H30.6515V33.1958Z" fill="#111111"/>
<path id="Vector_73" d="M32.3644 33.1958H31.0762V34.484H32.3644V33.1958Z" fill="#111111"/>
<path id="Vector_74" d="M34.0832 33.1958H32.7949V34.484H34.0832V33.1958Z" fill="#111111"/>
<path id="Vector_75" d="M37.5226 33.1958H36.2344V34.484H37.5226V33.1958Z" fill="#111111"/>
<path id="Vector_76" d="M39.2394 33.1958H37.9512V34.484H39.2394V33.1958Z" fill="#111111"/>
<path id="Vector_77" d="M40.9562 33.1958H39.668V34.484H40.9562V33.1958Z" fill="#111111"/>
<path id="Vector_78" d="M42.675 33.1958H41.3867V34.484H42.675V33.1958Z" fill="#111111"/>
<path id="Vector_79" d="M44.3937 33.1958H43.1055V34.484H44.3937V33.1958Z" fill="#111111"/>
<path id="Vector_80" d="M47.8273 33.1958H46.5391V34.484H47.8273V33.1958Z" fill="#111111"/>
<path id="Vector_81" d="M49.5441 33.1958H48.2559V34.484H49.5441V33.1958Z" fill="#111111"/>
<path id="Vector_82" d="M51.2609 33.1958H49.9727V34.484H51.2609V33.1958Z" fill="#111111"/>
<path id="Vector_83" d="M52.9796 33.1958H51.6914V34.484H52.9796V33.1958Z" fill="#111111"/>
<path id="Vector_84" d="M56.4152 33.1958H55.127V34.484H56.4152V33.1958Z" fill="#111111"/>
<path id="Vector_85" d="M58.1339 33.1958H56.8457V34.484H58.1339V33.1958Z" fill="#111111"/>
<path id="Vector_86" d="M61.5695 33.1958H60.2812V34.484H61.5695V33.1958Z" fill="#111111"/>
<path id="Vector_87" d="M20.3449 34.9135H19.0566V36.2017H20.3449V34.9135Z" fill="#111111"/>
<path id="Vector_88" d="M22.0617 34.9135H20.7734V36.2017H22.0617V34.9135Z" fill="#111111"/>
<path id="Vector_89" d="M23.7824 34.9135H22.4941V36.2017H23.7824V34.9135Z" fill="#111111"/>
<path id="Vector_90" d="M25.4972 34.9135H24.209V36.2017H25.4972V34.9135Z" fill="#111111"/>
<path id="Vector_91" d="M35.8039 34.9135H34.5156V36.2017H35.8039V34.9135Z" fill="#111111"/>
<path id="Vector_92" d="M40.9562 34.9135H39.668V36.2017H40.9562V34.9135Z" fill="#111111"/>
<path id="Vector_93" d="M47.8273 34.9135H46.5391V36.2017H47.8273V34.9135Z" fill="#111111"/>
<path id="Vector_94" d="M49.5441 34.9135H48.2559V36.2017H49.5441V34.9135Z" fill="#111111"/>
<path id="Vector_95" d="M51.2609 34.9135H49.9727V36.2017H51.2609V34.9135Z" fill="#111111"/>
<path id="Vector_96" d="M61.5695 34.9135H60.2812V36.2017H61.5695V34.9135Z" fill="#111111"/>
<path id="Vector_97" d="M20.3449 36.6311H19.0566V37.9194H20.3449V36.6311Z" fill="#111111"/>
<path id="Vector_98" d="M22.0617 36.6311H20.7734V37.9194H22.0617V36.6311Z" fill="#111111"/>
<path id="Vector_99" d="M25.4972 36.6311H24.209V37.9194H25.4972V36.6311Z" fill="#111111"/>
<path id="Vector_100" d="M27.216 36.6311H25.9277V37.9194H27.216V36.6311Z" fill="#111111"/>
<path id="Vector_101" d="M28.9328 36.6311H27.6445V37.9194H28.9328V36.6311Z" fill="#111111"/>
<path id="Vector_102" d="M30.6515 36.6311H29.3633V37.9194H30.6515V36.6311Z" fill="#111111"/>
<path id="Vector_103" d="M34.0832 36.6311H32.7949V37.9194H34.0832V36.6311Z" fill="#111111"/>
<path id="Vector_104" d="M35.8039 36.6311H34.5156V37.9194H35.8039V36.6311Z" fill="#111111"/>
<path id="Vector_105" d="M42.675 36.6311H41.3867V37.9194H42.675V36.6311Z" fill="#111111"/>
<path id="Vector_106" d="M47.8273 36.6311H46.5391V37.9194H47.8273V36.6311Z" fill="#111111"/>
<path id="Vector_107" d="M49.5441 36.6311H48.2559V37.9194H49.5441V36.6311Z" fill="#111111"/>
<path id="Vector_108" d="M51.2609 36.6311H49.9727V37.9194H51.2609V36.6311Z" fill="#111111"/>
<path id="Vector_109" d="M52.9796 36.6311H51.6914V37.9194H52.9796V36.6311Z" fill="#111111"/>
<path id="Vector_110" d="M59.8507 36.6311H58.5625V37.9194H59.8507V36.6311Z" fill="#111111"/>
<path id="Vector_111" d="M61.5695 36.6311H60.2812V37.9194H61.5695V36.6311Z" fill="#111111"/>
<path id="Vector_112" d="M23.7824 38.3486H22.4941V39.6369H23.7824V38.3486Z" fill="#111111"/>
<path id="Vector_113" d="M25.4972 38.3486H24.209V39.6369H25.4972V38.3486Z" fill="#111111"/>
<path id="Vector_114" d="M27.216 38.3486H25.9277V39.6369H27.216V38.3486Z" fill="#111111"/>
<path id="Vector_115" d="M28.9328 38.3486H27.6445V39.6369H28.9328V38.3486Z" fill="#111111"/>
<path id="Vector_116" d="M34.0832 38.3486H32.7949V39.6369H34.0832V38.3486Z" fill="#111111"/>
<path id="Vector_117" d="M39.2394 38.3486H37.9512V39.6369H39.2394V38.3486Z" fill="#111111"/>
<path id="Vector_118" d="M42.675 38.3486H41.3867V39.6369H42.675V38.3486Z" fill="#111111"/>
<path id="Vector_119" d="M46.1085 38.3486H44.8203V39.6369H46.1085V38.3486Z" fill="#111111"/>
<path id="Vector_120" d="M52.9796 38.3486H51.6914V39.6369H52.9796V38.3486Z" fill="#111111"/>
<path id="Vector_121" d="M54.6964 38.3486H53.4082V39.6369H54.6964V38.3486Z" fill="#111111"/>
<path id="Vector_122" d="M20.3449 40.0662H19.0566V41.3544H20.3449V40.0662Z" fill="#111111"/>
<path id="Vector_123" d="M27.216 40.0662H25.9277V41.3544H27.216V40.0662Z" fill="#111111"/>
<path id="Vector_124" d="M30.6515 40.0662H29.3633V41.3544H30.6515V40.0662Z" fill="#111111"/>
<path id="Vector_125" d="M32.3644 40.0662H31.0762V41.3544H32.3644V40.0662Z" fill="#111111"/>
<path id="Vector_126" d="M34.0832 40.0662H32.7949V41.3544H34.0832V40.0662Z" fill="#111111"/>
<path id="Vector_127" d="M37.5226 40.0662H36.2344V41.3544H37.5226V40.0662Z" fill="#111111"/>
<path id="Vector_128" d="M39.2394 40.0662H37.9512V41.3544H39.2394V40.0662Z" fill="#111111"/>
<path id="Vector_129" d="M40.9562 40.0662H39.668V41.3544H40.9562V40.0662Z" fill="#111111"/>
<path id="Vector_130" d="M44.3937 40.0662H43.1055V41.3544H44.3937V40.0662Z" fill="#111111"/>
<path id="Vector_131" d="M46.1085 40.0662H44.8203V41.3544H46.1085V40.0662Z" fill="#111111"/>
<path id="Vector_132" d="M47.8273 40.0662H46.5391V41.3544H47.8273V40.0662Z" fill="#111111"/>
<path id="Vector_133" d="M49.5441 40.0662H48.2559V41.3544H49.5441V40.0662Z" fill="#111111"/>
<path id="Vector_134" d="M51.2609 40.0662H49.9727V41.3544H51.2609V40.0662Z" fill="#111111"/>
<path id="Vector_135" d="M52.9796 40.0662H51.6914V41.3544H52.9796V40.0662Z" fill="#111111"/>
<path id="Vector_136" d="M56.4152 40.0662H55.127V41.3544H56.4152V40.0662Z" fill="#111111"/>
<path id="Vector_137" d="M59.8507 40.0662H58.5625V41.3544H59.8507V40.0662Z" fill="#111111"/>
<path id="Vector_138" d="M61.5695 40.0662H60.2812V41.3544H61.5695V40.0662Z" fill="#111111"/>
<path id="Vector_139" d="M22.0617 41.784H20.7734V43.0722H22.0617V41.784Z" fill="#111111"/>
<path id="Vector_140" d="M25.4972 41.784H24.209V43.0722H25.4972V41.784Z" fill="#111111"/>
<path id="Vector_141" d="M27.216 41.784H25.9277V43.0722H27.216V41.784Z" fill="#111111"/>
<path id="Vector_142" d="M28.9328 41.784H27.6445V43.0722H28.9328V41.784Z" fill="#111111"/>
<path id="Vector_143" d="M35.8039 41.784H34.5156V43.0722H35.8039V41.784Z" fill="#111111"/>
<path id="Vector_144" d="M37.5226 41.784H36.2344V43.0722H37.5226V41.784Z" fill="#111111"/>
<path id="Vector_145" d="M39.2394 41.784H37.9512V43.0722H39.2394V41.784Z" fill="#111111"/>
<path id="Vector_146" d="M42.675 41.784H41.3867V43.0722H42.675V41.784Z" fill="#111111"/>
<path id="Vector_147" d="M49.5441 41.784H48.2559V43.0722H49.5441V41.784Z" fill="#111111"/>
<path id="Vector_148" d="M51.2609 41.784H49.9727V43.0722H51.2609V41.784Z" fill="#111111"/>
<path id="Vector_149" d="M52.9796 41.784H51.6914V43.0722H52.9796V41.784Z" fill="#111111"/>
<path id="Vector_150" d="M56.4152 41.784H55.127V43.0722H56.4152V41.784Z" fill="#111111"/>
<path id="Vector_151" d="M58.1339 41.784H56.8457V43.0722H58.1339V41.784Z" fill="#111111"/>
<path id="Vector_152" d="M61.5695 41.784H60.2812V43.0722H61.5695V41.784Z" fill="#111111"/>
<path id="Vector_153" d="M20.3449 43.5015H19.0566V44.7898H20.3449V43.5015Z" fill="#111111"/>
<path id="Vector_154" d="M25.4972 43.5015H24.209V44.7898H25.4972V43.5015Z" fill="#111111"/>
<path id="Vector_155" d="M27.216 43.5015H25.9277V44.7898H27.216V43.5015Z" fill="#111111"/>
<path id="Vector_156" d="M28.9328 43.5015H27.6445V44.7898H28.9328V43.5015Z" fill="#111111"/>
<path id="Vector_157" d="M30.6515 43.5015H29.3633V44.7898H30.6515V43.5015Z" fill="#111111"/>
<path id="Vector_158" d="M32.3644 43.5015H31.0762V44.7898H32.3644V43.5015Z" fill="#111111"/>
<path id="Vector_159" d="M37.5226 43.5015H36.2344V44.7898H37.5226V43.5015Z" fill="#111111"/>
<path id="Vector_160" d="M39.2394 43.5015H37.9512V44.7898H39.2394V43.5015Z" fill="#111111"/>
<path id="Vector_161" d="M42.675 43.5015H41.3867V44.7898H42.675V43.5015Z" fill="#111111"/>
<path id="Vector_162" d="M44.3937 43.5015H43.1055V44.7898H44.3937V43.5015Z" fill="#111111"/>
<path id="Vector_163" d="M47.8273 43.5015H46.5391V44.7898H47.8273V43.5015Z" fill="#111111"/>
<path id="Vector_164" d="M51.2609 43.5015H49.9727V44.7898H51.2609V43.5015Z" fill="#111111"/>
<path id="Vector_165" d="M52.9796 43.5015H51.6914V44.7898H52.9796V43.5015Z" fill="#111111"/>
<path id="Vector_166" d="M54.6964 43.5015H53.4082V44.7898H54.6964V43.5015Z" fill="#111111"/>
<path id="Vector_167" d="M58.1339 43.5015H56.8457V44.7898H58.1339V43.5015Z" fill="#111111"/>
<path id="Vector_168" d="M61.5695 43.5015H60.2812V44.7898H61.5695V43.5015Z" fill="#111111"/>
<path id="Vector_169" d="M22.0617 45.2192H20.7734V46.5074H22.0617V45.2192Z" fill="#111111"/>
<path id="Vector_170" d="M25.4972 45.2192H24.209V46.5074H25.4972V45.2192Z" fill="#111111"/>
<path id="Vector_171" d="M28.9328 45.2192H27.6445V46.5074H28.9328V45.2192Z" fill="#111111"/>
<path id="Vector_172" d="M32.3644 45.2192H31.0762V46.5074H32.3644V45.2192Z" fill="#111111"/>
<path id="Vector_173" d="M34.0832 45.2192H32.7949V46.5074H34.0832V45.2192Z" fill="#111111"/>
<path id="Vector_174" d="M40.9562 45.2192H39.668V46.5074H40.9562V45.2192Z" fill="#111111"/>
<path id="Vector_175" d="M44.3937 45.2192H43.1055V46.5074H44.3937V45.2192Z" fill="#111111"/>
<path id="Vector_176" d="M47.8273 45.2192H46.5391V46.5074H47.8273V45.2192Z" fill="#111111"/>
<path id="Vector_177" d="M54.6964 45.2192H53.4082V46.5074H54.6964V45.2192Z" fill="#111111"/>
<path id="Vector_178" d="M56.4152 45.2192H55.127V46.5074H56.4152V45.2192Z" fill="#111111"/>
<path id="Vector_179" d="M59.8507 45.2192H58.5625V46.5074H59.8507V45.2192Z" fill="#111111"/>
<path id="Vector_180" d="M20.3449 46.9369H19.0566V48.2251H20.3449V46.9369Z" fill="#111111"/>
<path id="Vector_181" d="M22.0617 46.9369H20.7734V48.2251H22.0617V46.9369Z" fill="#111111"/>
<path id="Vector_182" d="M27.216 46.9369H25.9277V48.2251H27.216V46.9369Z" fill="#111111"/>
<path id="Vector_183" d="M30.6515 46.9369H29.3633V48.2251H30.6515V46.9369Z" fill="#111111"/>
<path id="Vector_184" d="M32.3644 46.9369H31.0762V48.2251H32.3644V46.9369Z" fill="#111111"/>
<path id="Vector_185" d="M35.8039 46.9369H34.5156V48.2251H35.8039V46.9369Z" fill="#111111"/>
<path id="Vector_186" d="M40.9562 46.9369H39.668V48.2251H40.9562V46.9369Z" fill="#111111"/>
<path id="Vector_187" d="M42.675 46.9369H41.3867V48.2251H42.675V46.9369Z" fill="#111111"/>
<path id="Vector_188" d="M47.8273 46.9369H46.5391V48.2251H47.8273V46.9369Z" fill="#111111"/>
<path id="Vector_189" d="M49.5441 46.9369H48.2559V48.2251H49.5441V46.9369Z" fill="#111111"/>
<path id="Vector_190" d="M51.2609 46.9369H49.9727V48.2251H51.2609V46.9369Z" fill="#111111"/>
<path id="Vector_191" d="M52.9796 46.9369H51.6914V48.2251H52.9796V46.9369Z" fill="#111111"/>
<path id="Vector_192" d="M54.6964 46.9369H53.4082V48.2251H54.6964V46.9369Z" fill="#111111"/>
<path id="Vector_193" d="M56.4152 46.9369H55.127V48.2251H56.4152V46.9369Z" fill="#111111"/>
<path id="Vector_194" d="M58.1339 46.9369H56.8457V48.2251H58.1339V46.9369Z" fill="#111111"/>
<path id="Vector_195" d="M34.0832 48.6544H32.7949V49.9427H34.0832V48.6544Z" fill="#111111"/>
<path id="Vector_196" d="M35.8039 48.6544H34.5156V49.9427H35.8039V48.6544Z" fill="#111111"/>
<path id="Vector_197" d="M42.675 48.6544H41.3867V49.9427H42.675V48.6544Z" fill="#111111"/>
<path id="Vector_198" d="M46.1085 48.6544H44.8203V49.9427H46.1085V48.6544Z" fill="#111111"/>
<path id="Vector_199" d="M47.8273 48.6544H46.5391V49.9427H47.8273V48.6544Z" fill="#111111"/>
<path id="Vector_200" d="M54.6964 48.6544H53.4082V49.9427H54.6964V48.6544Z" fill="#111111"/>
<path id="Vector_201" d="M56.4152 48.6544H55.127V49.9427H56.4152V48.6544Z" fill="#111111"/>
<path id="Vector_202" d="M58.1339 48.6544H56.8457V49.9427H58.1339V48.6544Z" fill="#111111"/>
<path id="Vector_203" d="M61.5695 48.6544H60.2812V49.9427H61.5695V48.6544Z" fill="#111111"/>
<path id="Vector_204" d="M34.0832 50.3723H32.7949V51.6605H34.0832V50.3723Z" fill="#111111"/>
<path id="Vector_205" d="M39.2394 50.3723H37.9512V51.6605H39.2394V50.3723Z" fill="#111111"/>
<path id="Vector_206" d="M42.675 50.3723H41.3867V51.6605H42.675V50.3723Z" fill="#111111"/>
<path id="Vector_207" d="M46.1085 50.3723H44.8203V51.6605H46.1085V50.3723Z" fill="#111111"/>
<path id="Vector_208" d="M47.8273 50.3723H46.5391V51.6605H47.8273V50.3723Z" fill="#111111"/>
<path id="Vector_209" d="M51.2609 50.3723H49.9727V51.6605H51.2609V50.3723Z" fill="#111111"/>
<path id="Vector_210" d="M54.6964 50.3723H53.4082V51.6605H54.6964V50.3723Z" fill="#111111"/>
<path id="Vector_211" d="M59.8507 50.3723H58.5625V51.6605H59.8507V50.3723Z" fill="#111111"/>
<path id="Vector_212" d="M61.5695 50.3723H60.2812V51.6605H61.5695V50.3723Z" fill="#111111"/>
<path id="Vector_213" d="M34.0832 52.09H32.7949V53.3782H34.0832V52.09Z" fill="#111111"/>
<path id="Vector_214" d="M37.5226 52.09H36.2344V53.3782H37.5226V52.09Z" fill="#111111"/>
<path id="Vector_215" d="M40.9562 52.09H39.668V53.3782H40.9562V52.09Z" fill="#111111"/>
<path id="Vector_216" d="M42.675 52.09H41.3867V53.3782H42.675V52.09Z" fill="#111111"/>
<path id="Vector_217" d="M44.3937 52.09H43.1055V53.3782H44.3937V52.09Z" fill="#111111"/>
<path id="Vector_218" d="M47.8273 52.09H46.5391V53.3782H47.8273V52.09Z" fill="#111111"/>
<path id="Vector_219" d="M54.6964 52.09H53.4082V53.3782H54.6964V52.09Z" fill="#111111"/>
<path id="Vector_220" d="M56.4152 52.09H55.127V53.3782H56.4152V52.09Z" fill="#111111"/>
<path id="Vector_221" d="M58.1339 52.09H56.8457V53.3782H58.1339V52.09Z" fill="#111111"/>
<path id="Vector_222" d="M59.8507 52.09H58.5625V53.3782H59.8507V52.09Z" fill="#111111"/>
<path id="Vector_223" d="M37.5226 53.8073H36.2344V55.0955H37.5226V53.8073Z" fill="#111111"/>
<path id="Vector_224" d="M40.9562 53.8073H39.668V55.0955H40.9562V53.8073Z" fill="#111111"/>
<path id="Vector_225" d="M42.675 53.8073H41.3867V55.0955H42.675V53.8073Z" fill="#111111"/>
<path id="Vector_226" d="M47.8273 53.8073H46.5391V55.0955H47.8273V53.8073Z" fill="#111111"/>
<path id="Vector_227" d="M49.5441 53.8073H48.2559V55.0955H49.5441V53.8073Z" fill="#111111"/>
<path id="Vector_228" d="M51.2609 53.8073H49.9727V55.0955H51.2609V53.8073Z" fill="#111111"/>
<path id="Vector_229" d="M52.9796 53.8073H51.6914V55.0955H52.9796V53.8073Z" fill="#111111"/>
<path id="Vector_230" d="M54.6964 53.8073H53.4082V55.0955H54.6964V53.8073Z" fill="#111111"/>
<path id="Vector_231" d="M61.5695 53.8073H60.2812V55.0955H61.5695V53.8073Z" fill="#111111"/>
<path id="Vector_232" d="M34.0832 55.5251H32.7949V56.8134H34.0832V55.5251Z" fill="#111111"/>
<path id="Vector_233" d="M37.5226 55.5251H36.2344V56.8134H37.5226V55.5251Z" fill="#111111"/>
<path id="Vector_234" d="M42.675 55.5251H41.3867V56.8134H42.675V55.5251Z" fill="#111111"/>
<path id="Vector_235" d="M52.9796 55.5251H51.6914V56.8134H52.9796V55.5251Z" fill="#111111"/>
<path id="Vector_236" d="M58.1339 55.5251H56.8457V56.8134H58.1339V55.5251Z" fill="#111111"/>
<path id="Vector_237" d="M35.8039 57.2427H34.5156V58.5309H35.8039V57.2427Z" fill="#111111"/>
<path id="Vector_238" d="M40.9562 57.2427H39.668V58.5309H40.9562V57.2427Z" fill="#111111"/>
<path id="Vector_239" d="M42.675 57.2427H41.3867V58.5309H42.675V57.2427Z" fill="#111111"/>
<path id="Vector_240" d="M47.8273 57.2427H46.5391V58.5309H47.8273V57.2427Z" fill="#111111"/>
<path id="Vector_241" d="M49.5441 57.2427H48.2559V58.5309H49.5441V57.2427Z" fill="#111111"/>
<path id="Vector_242" d="M54.6964 57.2427H53.4082V58.5309H54.6964V57.2427Z" fill="#111111"/>
<path id="Vector_243" d="M56.4152 57.2427H55.127V58.5309H56.4152V57.2427Z" fill="#111111"/>
<path id="Vector_244" d="M58.1339 57.2427H56.8457V58.5309H58.1339V57.2427Z" fill="#111111"/>
<path id="Vector_245" d="M61.5695 57.2427H60.2812V58.5309H61.5695V57.2427Z" fill="#111111"/>
<path id="Vector_246" d="M34.0832 58.9602H32.7949V60.2484H34.0832V58.9602Z" fill="#111111"/>
<path id="Vector_247" d="M35.8039 58.9602H34.5156V60.2484H35.8039V58.9602Z" fill="#111111"/>
<path id="Vector_248" d="M37.5226 58.9602H36.2344V60.2484H37.5226V58.9602Z" fill="#111111"/>
<path id="Vector_249" d="M40.9562 58.9602H39.668V60.2484H40.9562V58.9602Z" fill="#111111"/>
<path id="Vector_250" d="M42.675 58.9602H41.3867V60.2484H42.675V58.9602Z" fill="#111111"/>
<path id="Vector_251" d="M46.1085 58.9602H44.8203V60.2484H46.1085V58.9602Z" fill="#111111"/>
<path id="Vector_252" d="M47.8273 58.9602H46.5391V60.2484H47.8273V58.9602Z" fill="#111111"/>
<path id="Vector_253" d="M56.4152 58.9602H55.127V60.2484H56.4152V58.9602Z" fill="#111111"/>
<path id="Vector_254" d="M35.8039 60.6782H34.5156V61.9664H35.8039V60.6782Z" fill="#111111"/>
<path id="Vector_255" d="M37.5226 60.6782H36.2344V61.9664H37.5226V60.6782Z" fill="#111111"/>
<path id="Vector_256" d="M39.2394 60.6782H37.9512V61.9664H39.2394V60.6782Z" fill="#111111"/>
<path id="Vector_257" d="M40.9562 60.6782H39.668V61.9664H40.9562V60.6782Z" fill="#111111"/>
<path id="Vector_258" d="M42.675 60.6782H41.3867V61.9664H42.675V60.6782Z" fill="#111111"/>
<path id="Vector_259" d="M46.1085 60.6782H44.8203V61.9664H46.1085V60.6782Z" fill="#111111"/>
<path id="Vector_260" d="M47.8273 60.6782H46.5391V61.9664H47.8273V60.6782Z" fill="#111111"/>
<path id="Vector_261" d="M52.9796 60.6782H51.6914V61.9664H52.9796V60.6782Z" fill="#111111"/>
<path id="Vector_262" d="M59.8507 60.6782H58.5625V61.9664H59.8507V60.6782Z" fill="#111111"/>
<path id="Vector_263" d="M61.5695 60.6782H60.2812V61.9664H61.5695V60.6782Z" fill="#111111"/>
</g>
<g id="Group_4">
<path id="Vector_264" d="M28.2835 20.0959H21.413C20.4643 20.0959 19.6953 20.8649 19.6953 21.8135V28.6841C19.6953 29.6327 20.4643 30.4017 21.413 30.4017H28.2835C29.2322 30.4017 30.0012 29.6327 30.0012 28.6841V21.8135C30.0012 20.8649 29.2322 20.0959 28.2835 20.0959Z" stroke="#111111" stroke-width="2.14921"/>
<path id="Vector_265" d="M26.5656 22.6725H23.1303C22.656 22.6725 22.2715 23.057 22.2715 23.5313V26.9666C22.2715 27.4409 22.656 27.8254 23.1303 27.8254H26.5656C27.0399 27.8254 27.4244 27.4409 27.4244 26.9666V23.5313C27.4244 23.057 27.0399 22.6725 26.5656 22.6725Z" fill="#111111"/>
<path id="Vector_266" d="M59.2054 20.0959H52.3348C51.3862 20.0959 50.6172 20.8649 50.6172 21.8135V28.6841C50.6172 29.6327 51.3862 30.4017 52.3348 30.4017H59.2054C60.154 30.4017 60.9231 29.6327 60.9231 28.6841V21.8135C60.9231 20.8649 60.154 20.0959 59.2054 20.0959Z" stroke="#111111" stroke-width="2.14921"/>
<path id="Vector_267" d="M57.4894 22.6725H54.0541C53.5798 22.6725 53.1953 23.057 53.1953 23.5313V26.9666C53.1953 27.4409 53.5798 27.8254 54.0541 27.8254H57.4894C57.9637 27.8254 58.3482 27.4409 58.3482 26.9666V23.5313C58.3482 23.057 57.9637 22.6725 57.4894 22.6725Z" fill="#111111"/>
<path id="Vector_268" d="M28.2835 51.0197H21.413C20.4643 51.0197 19.6953 51.7887 19.6953 52.7373V59.6079C19.6953 60.5565 20.4643 61.3255 21.413 61.3255H28.2835C29.2322 61.3255 30.0012 60.5565 30.0012 59.6079V52.7373C30.0012 51.7887 29.2322 51.0197 28.2835 51.0197Z" stroke="#111111" stroke-width="2.14921"/>
<path id="Vector_269" d="M26.5656 53.5961H23.1303C22.656 53.5961 22.2715 53.9806 22.2715 54.4549V57.8902C22.2715 58.3645 22.656 58.749 23.1303 58.749H26.5656C27.0399 58.749 27.4244 58.3645 27.4244 57.8902V54.4549C27.4244 53.9806 27.0399 53.5961 26.5656 53.5961Z" fill="#111111"/>
</g>
</g>
</g>
</svg>
