<svg width="80" height="81" viewBox="0 0 80 81" fill="none" xmlns="http://www.w3.org/2000/svg">
<g id="Template 9">
<rect y="0.400635" width="80" height="80" rx="40" fill="white"/>
<rect x="0.5" y="0.900635" width="79" height="79" rx="39.5" stroke="#1A1A1A" stroke-opacity="0.1"/>
<path id="Vector" d="M39.5211 72.4084C57.3753 72.4084 71.8489 57.9348 71.8489 40.0806C71.8489 22.2265 57.3753 7.75284 39.5211 7.75284C21.667 7.75284 7.19336 22.2265 7.19336 40.0806C7.19336 57.9348 21.667 72.4084 39.5211 72.4084Z" fill="white"/>
<path id="Vector_2" d="M10.8192 25.1789C8.50255 29.6371 7.19336 34.703 7.19336 40.0749C7.19336 45.3623 8.46176 50.3534 10.7108 54.7602C13.2607 55.0103 15.8268 54.9821 18.3611 54.6806V35.3142C15.2972 32.3836 12.7454 28.953 10.8192 25.1789Z" fill="#111111"/>
<path id="Vector_3" d="M33.0279 18.6125H21.2994C19.6763 18.6125 18.3605 19.9288 18.3605 21.5526V32.0611C15.8347 29.3185 13.7497 26.1873 12.1934 22.7885C17.6456 14.1806 27.0497 8.32564 37.8535 7.77665C35.6862 11.1105 34.056 14.7711 33.0279 18.6125Z" fill="#111111"/>
<path id="Vector_4" d="M60.9722 22.7771V21.5524C60.9722 19.9287 59.6565 18.6124 58.0333 18.6124H35.3906C36.5025 14.7268 38.2731 11.049 40.6251 7.75284C51.6301 8.1232 61.2406 13.9962 66.7948 22.7087C64.8527 22.5814 62.9057 22.6048 60.9722 22.7771Z" fill="#111111"/>
<path id="Vector_5" d="M60.9727 45.4771V25.0666C63.3681 24.8394 65.7871 24.8555 68.1897 25.1192C70.5255 29.5918 71.8465 34.6789 71.8465 40.0748C71.8465 45.6502 70.4362 50.8958 67.9531 55.4746C66.1824 51.786 63.8216 48.4066 60.9727 45.4771Z" fill="#111111"/>
<path id="Vector_6" d="M45.2478 61.2429H58.0358C59.6589 61.2429 60.9747 59.9266 60.9747 58.3028V48.8658C63.2582 51.5601 65.1352 54.5898 66.5312 57.8511C60.8633 66.4524 51.2005 72.1861 40.1855 72.4083C42.4682 68.988 44.1795 65.2125 45.2478 61.2429Z" fill="#111111"/>
<path id="Vector_7" d="M18.358 56.9754V58.3029C18.358 59.9266 19.6738 61.243 21.2969 61.243H42.8795C41.7328 65.2272 39.8933 68.9919 37.4446 72.3496C26.724 71.6707 17.4225 65.7645 12.0586 57.1503C14.1619 57.2678 16.2695 57.2085 18.358 56.9754Z" fill="#111111"/>
<g id="Group">
<g id="Group_2">
<path id="Vector_8" d="M34.3403 21.5688H32.8594V23.0498H34.3403V21.5688Z" fill="#111111"/>
<path id="Vector_9" d="M37.3032 21.5688H35.8223V23.0498H37.3032V21.5688Z" fill="#111111"/>
<path id="Vector_10" d="M38.7837 21.5688H37.3027V23.0498H38.7837V21.5688Z" fill="#111111"/>
<path id="Vector_11" d="M43.2251 21.5688H41.7441V23.0498H43.2251V21.5688Z" fill="#111111"/>
<path id="Vector_12" d="M44.7075 21.5688H43.2266V23.0498H44.7075V21.5688Z" fill="#111111"/>
<path id="Vector_13" d="M37.3032 23.0499H35.8223V24.5308H37.3032V23.0499Z" fill="#111111"/>
<path id="Vector_14" d="M38.7837 23.0499H37.3027V24.5308H38.7837V23.0499Z" fill="#111111"/>
<path id="Vector_15" d="M41.7466 23.0499H40.2656V24.5308H41.7466V23.0499Z" fill="#111111"/>
<path id="Vector_16" d="M44.7075 23.0499H43.2266V24.5308H44.7075V23.0499Z" fill="#111111"/>
<path id="Vector_17" d="M46.1899 23.0499H44.709V24.5308H46.1899V23.0499Z" fill="#111111"/>
<path id="Vector_18" d="M34.3403 24.5309H32.8594V26.0119H34.3403V24.5309Z" fill="#111111"/>
<path id="Vector_19" d="M40.2622 24.5309H38.7812V26.0119H40.2622V24.5309Z" fill="#111111"/>
<path id="Vector_20" d="M43.2251 24.5309H41.7441V26.0119H43.2251V24.5309Z" fill="#111111"/>
<path id="Vector_21" d="M44.7075 24.5309H43.2266V26.0119H44.7075V24.5309Z" fill="#111111"/>
<path id="Vector_22" d="M34.3403 26.0115H32.8594V27.4924H34.3403V26.0115Z" fill="#111111"/>
<path id="Vector_23" d="M38.7837 26.0115H37.3027V27.4924H38.7837V26.0115Z" fill="#111111"/>
<path id="Vector_24" d="M43.2251 26.0115H41.7441V27.4924H43.2251V26.0115Z" fill="#111111"/>
<path id="Vector_25" d="M35.8208 27.4927H34.3398V28.9736H35.8208V27.4927Z" fill="#111111"/>
<path id="Vector_26" d="M40.2622 27.4927H38.7812V28.9736H40.2622V27.4927Z" fill="#111111"/>
<path id="Vector_27" d="M43.2251 27.4927H41.7441V28.9736H43.2251V27.4927Z" fill="#111111"/>
<path id="Vector_28" d="M44.7075 27.4927H43.2266V28.9736H44.7075V27.4927Z" fill="#111111"/>
<path id="Vector_29" d="M34.3403 28.9734H32.8594V30.4544H34.3403V28.9734Z" fill="#111111"/>
<path id="Vector_30" d="M35.8208 28.9734H34.3398V30.4544H35.8208V28.9734Z" fill="#111111"/>
<path id="Vector_31" d="M38.7837 28.9734H37.3027V30.4544H38.7837V28.9734Z" fill="#111111"/>
<path id="Vector_32" d="M44.7075 28.9734H43.2266V30.4544H44.7075V28.9734Z" fill="#111111"/>
<path id="Vector_33" d="M46.1899 28.9734H44.709V30.4544H46.1899V28.9734Z" fill="#111111"/>
<path id="Vector_34" d="M34.3403 30.4548H32.8594V31.9357H34.3403V30.4548Z" fill="#111111"/>
<path id="Vector_35" d="M37.3032 30.4548H35.8223V31.9357H37.3032V30.4548Z" fill="#111111"/>
<path id="Vector_36" d="M40.2622 30.4548H38.7812V31.9357H40.2622V30.4548Z" fill="#111111"/>
<path id="Vector_37" d="M43.2251 30.4548H41.7441V31.9357H43.2251V30.4548Z" fill="#111111"/>
<path id="Vector_38" d="M46.1899 30.4548H44.709V31.9357H46.1899V30.4548Z" fill="#111111"/>
<path id="Vector_39" d="M34.3403 31.9353H32.8594V33.4163H34.3403V31.9353Z" fill="#111111"/>
<path id="Vector_40" d="M37.3032 31.9353H35.8223V33.4163H37.3032V31.9353Z" fill="#111111"/>
<path id="Vector_41" d="M38.7837 31.9353H37.3027V33.4163H38.7837V31.9353Z" fill="#111111"/>
<path id="Vector_42" d="M43.2251 31.9353H41.7441V33.4163H43.2251V31.9353Z" fill="#111111"/>
<path id="Vector_43" d="M46.1899 31.9353H44.709V33.4163H46.1899V31.9353Z" fill="#111111"/>
<path id="Vector_44" d="M23.9732 33.4164H22.4922V34.8974H23.9732V33.4164Z" fill="#111111"/>
<path id="Vector_45" d="M26.936 33.4164H25.4551V34.8974H26.936V33.4164Z" fill="#111111"/>
<path id="Vector_46" d="M29.897 33.4164H28.416V34.8974H29.897V33.4164Z" fill="#111111"/>
<path id="Vector_47" d="M31.3794 33.4164H29.8984V34.8974H31.3794V33.4164Z" fill="#111111"/>
<path id="Vector_48" d="M32.8599 33.4164H31.3789V34.8974H32.8599V33.4164Z" fill="#111111"/>
<path id="Vector_49" d="M34.3403 33.4164H32.8594V34.8974H34.3403V33.4164Z" fill="#111111"/>
<path id="Vector_50" d="M37.3032 33.4164H35.8223V34.8974H37.3032V33.4164Z" fill="#111111"/>
<path id="Vector_51" d="M38.7837 33.4164H37.3027V34.8974H38.7837V33.4164Z" fill="#111111"/>
<path id="Vector_52" d="M40.2622 33.4164H38.7812V34.8974H40.2622V33.4164Z" fill="#111111"/>
<path id="Vector_53" d="M41.7466 33.4164H40.2656V34.8974H41.7466V33.4164Z" fill="#111111"/>
<path id="Vector_54" d="M43.2251 33.4164H41.7441V34.8974H43.2251V33.4164Z" fill="#111111"/>
<path id="Vector_55" d="M46.1899 33.4164H44.709V34.8974H46.1899V33.4164Z" fill="#111111"/>
<path id="Vector_56" d="M47.6685 33.4164H46.1875V34.8974H47.6685V33.4164Z" fill="#111111"/>
<path id="Vector_57" d="M49.1489 33.4164H47.668V34.8974H49.1489V33.4164Z" fill="#111111"/>
<path id="Vector_58" d="M50.6314 33.4164H49.1504V34.8974H50.6314V33.4164Z" fill="#111111"/>
<path id="Vector_59" d="M53.5942 33.4164H52.1133V34.8974H53.5942V33.4164Z" fill="#111111"/>
<path id="Vector_60" d="M55.0728 33.4164H53.5918V34.8974H55.0728V33.4164Z" fill="#111111"/>
<path id="Vector_61" d="M58.0357 33.4164H56.5547V34.8974H58.0357V33.4164Z" fill="#111111"/>
<path id="Vector_62" d="M22.4927 34.8975H21.0117V36.3784H22.4927V34.8975Z" fill="#111111"/>
<path id="Vector_63" d="M23.9732 34.8975H22.4922V36.3784H23.9732V34.8975Z" fill="#111111"/>
<path id="Vector_64" d="M25.4556 34.8975H23.9746V36.3784H25.4556V34.8975Z" fill="#111111"/>
<path id="Vector_65" d="M26.936 34.8975H25.4551V36.3784H26.936V34.8975Z" fill="#111111"/>
<path id="Vector_66" d="M35.8208 34.8975H34.3398V36.3784H35.8208V34.8975Z" fill="#111111"/>
<path id="Vector_67" d="M40.2622 34.8975H38.7812V36.3784H40.2622V34.8975Z" fill="#111111"/>
<path id="Vector_68" d="M46.1899 34.8975H44.709V36.3784H46.1899V34.8975Z" fill="#111111"/>
<path id="Vector_69" d="M47.6685 34.8975H46.1875V36.3784H47.6685V34.8975Z" fill="#111111"/>
<path id="Vector_70" d="M49.1489 34.8975H47.668V36.3784H49.1489V34.8975Z" fill="#111111"/>
<path id="Vector_71" d="M58.0357 34.8975H56.5547V36.3784H58.0357V34.8975Z" fill="#111111"/>
<path id="Vector_72" d="M22.4927 36.3783H21.0117V37.8593H22.4927V36.3783Z" fill="#111111"/>
<path id="Vector_73" d="M23.9732 36.3783H22.4922V37.8593H23.9732V36.3783Z" fill="#111111"/>
<path id="Vector_74" d="M26.936 36.3783H25.4551V37.8593H26.936V36.3783Z" fill="#111111"/>
<path id="Vector_75" d="M28.4165 36.3783H26.9355V37.8593H28.4165V36.3783Z" fill="#111111"/>
<path id="Vector_76" d="M29.897 36.3783H28.416V37.8593H29.897V36.3783Z" fill="#111111"/>
<path id="Vector_77" d="M31.3794 36.3783H29.8984V37.8593H31.3794V36.3783Z" fill="#111111"/>
<path id="Vector_78" d="M34.3403 36.3783H32.8594V37.8593H34.3403V36.3783Z" fill="#111111"/>
<path id="Vector_79" d="M35.8208 36.3783H34.3398V37.8593H35.8208V36.3783Z" fill="#111111"/>
<path id="Vector_80" d="M41.7466 36.3783H40.2656V37.8593H41.7466V36.3783Z" fill="#111111"/>
<path id="Vector_81" d="M46.1899 36.3783H44.709V37.8593H46.1899V36.3783Z" fill="#111111"/>
<path id="Vector_82" d="M47.6685 36.3783H46.1875V37.8593H47.6685V36.3783Z" fill="#111111"/>
<path id="Vector_83" d="M49.1489 36.3783H47.668V37.8593H49.1489V36.3783Z" fill="#111111"/>
<path id="Vector_84" d="M50.6314 36.3783H49.1504V37.8593H50.6314V36.3783Z" fill="#111111"/>
<path id="Vector_85" d="M56.5552 36.3783H55.0742V37.8593H56.5552V36.3783Z" fill="#111111"/>
<path id="Vector_86" d="M58.0357 36.3783H56.5547V37.8593H58.0357V36.3783Z" fill="#111111"/>
<path id="Vector_87" d="M25.4556 37.8594H23.9746V39.3404H25.4556V37.8594Z" fill="#111111"/>
<path id="Vector_88" d="M26.936 37.8594H25.4551V39.3404H26.936V37.8594Z" fill="#111111"/>
<path id="Vector_89" d="M28.4165 37.8594H26.9355V39.3404H28.4165V37.8594Z" fill="#111111"/>
<path id="Vector_90" d="M29.897 37.8594H28.416V39.3404H29.897V37.8594Z" fill="#111111"/>
<path id="Vector_91" d="M34.3403 37.8594H32.8594V39.3404H34.3403V37.8594Z" fill="#111111"/>
<path id="Vector_92" d="M38.7837 37.8594H37.3027V39.3404H38.7837V37.8594Z" fill="#111111"/>
<path id="Vector_93" d="M41.7466 37.8594H40.2656V39.3404H41.7466V37.8594Z" fill="#111111"/>
<path id="Vector_94" d="M44.7075 37.8594H43.2266V39.3404H44.7075V37.8594Z" fill="#111111"/>
<path id="Vector_95" d="M50.6314 37.8594H49.1504V39.3404H50.6314V37.8594Z" fill="#111111"/>
<path id="Vector_96" d="M52.1118 37.8594H50.6309V39.3404H52.1118V37.8594Z" fill="#111111"/>
<path id="Vector_97" d="M22.4927 39.3404H21.0117V40.8214H22.4927V39.3404Z" fill="#111111"/>
<path id="Vector_98" d="M28.4165 39.3404H26.9355V40.8214H28.4165V39.3404Z" fill="#111111"/>
<path id="Vector_99" d="M31.3794 39.3404H29.8984V40.8214H31.3794V39.3404Z" fill="#111111"/>
<path id="Vector_100" d="M32.8599 39.3404H31.3789V40.8214H32.8599V39.3404Z" fill="#111111"/>
<path id="Vector_101" d="M34.3403 39.3404H32.8594V40.8214H34.3403V39.3404Z" fill="#111111"/>
<path id="Vector_102" d="M37.3032 39.3404H35.8223V40.8214H37.3032V39.3404Z" fill="#111111"/>
<path id="Vector_103" d="M38.7837 39.3404H37.3027V40.8214H38.7837V39.3404Z" fill="#111111"/>
<path id="Vector_104" d="M40.2622 39.3404H38.7812V40.8214H40.2622V39.3404Z" fill="#111111"/>
<path id="Vector_105" d="M43.2251 39.3404H41.7441V40.8214H43.2251V39.3404Z" fill="#111111"/>
<path id="Vector_106" d="M44.7075 39.3404H43.2266V40.8214H44.7075V39.3404Z" fill="#111111"/>
<path id="Vector_107" d="M46.1899 39.3404H44.709V40.8214H46.1899V39.3404Z" fill="#111111"/>
<path id="Vector_108" d="M47.6685 39.3404H46.1875V40.8214H47.6685V39.3404Z" fill="#111111"/>
<path id="Vector_109" d="M49.1489 39.3404H47.668V40.8214H49.1489V39.3404Z" fill="#111111"/>
<path id="Vector_110" d="M50.6314 39.3404H49.1504V40.8214H50.6314V39.3404Z" fill="#111111"/>
<path id="Vector_111" d="M53.5942 39.3404H52.1133V40.8214H53.5942V39.3404Z" fill="#111111"/>
<path id="Vector_112" d="M56.5552 39.3404H55.0742V40.8214H56.5552V39.3404Z" fill="#111111"/>
<path id="Vector_113" d="M58.0357 39.3404H56.5547V40.8214H58.0357V39.3404Z" fill="#111111"/>
<path id="Vector_114" d="M23.9732 40.8212H22.4922V42.3021H23.9732V40.8212Z" fill="#111111"/>
<path id="Vector_115" d="M26.936 40.8212H25.4551V42.3021H26.936V40.8212Z" fill="#111111"/>
<path id="Vector_116" d="M28.4165 40.8212H26.9355V42.3021H28.4165V40.8212Z" fill="#111111"/>
<path id="Vector_117" d="M29.897 40.8212H28.416V42.3021H29.897V40.8212Z" fill="#111111"/>
<path id="Vector_118" d="M35.8208 40.8212H34.3398V42.3021H35.8208V40.8212Z" fill="#111111"/>
<path id="Vector_119" d="M37.3032 40.8212H35.8223V42.3021H37.3032V40.8212Z" fill="#111111"/>
<path id="Vector_120" d="M38.7837 40.8212H37.3027V42.3021H38.7837V40.8212Z" fill="#111111"/>
<path id="Vector_121" d="M41.7466 40.8212H40.2656V42.3021H41.7466V40.8212Z" fill="#111111"/>
<path id="Vector_122" d="M47.6685 40.8212H46.1875V42.3021H47.6685V40.8212Z" fill="#111111"/>
<path id="Vector_123" d="M49.1489 40.8212H47.668V42.3021H49.1489V40.8212Z" fill="#111111"/>
<path id="Vector_124" d="M50.6314 40.8212H49.1504V42.3021H50.6314V40.8212Z" fill="#111111"/>
<path id="Vector_125" d="M53.5942 40.8212H52.1133V42.3021H53.5942V40.8212Z" fill="#111111"/>
<path id="Vector_126" d="M55.0728 40.8212H53.5918V42.3021H55.0728V40.8212Z" fill="#111111"/>
<path id="Vector_127" d="M58.0357 40.8212H56.5547V42.3021H58.0357V40.8212Z" fill="#111111"/>
<path id="Vector_128" d="M22.4927 42.3021H21.0117V43.783H22.4927V42.3021Z" fill="#111111"/>
<path id="Vector_129" d="M26.936 42.3021H25.4551V43.783H26.936V42.3021Z" fill="#111111"/>
<path id="Vector_130" d="M28.4165 42.3021H26.9355V43.783H28.4165V42.3021Z" fill="#111111"/>
<path id="Vector_131" d="M29.897 42.3021H28.416V43.783H29.897V42.3021Z" fill="#111111"/>
<path id="Vector_132" d="M31.3794 42.3021H29.8984V43.783H31.3794V42.3021Z" fill="#111111"/>
<path id="Vector_133" d="M32.8599 42.3021H31.3789V43.783H32.8599V42.3021Z" fill="#111111"/>
<path id="Vector_134" d="M37.3032 42.3021H35.8223V43.783H37.3032V42.3021Z" fill="#111111"/>
<path id="Vector_135" d="M38.7837 42.3021H37.3027V43.783H38.7837V42.3021Z" fill="#111111"/>
<path id="Vector_136" d="M41.7466 42.3021H40.2656V43.783H41.7466V42.3021Z" fill="#111111"/>
<path id="Vector_137" d="M43.2251 42.3021H41.7441V43.783H43.2251V42.3021Z" fill="#111111"/>
<path id="Vector_138" d="M46.1899 42.3021H44.709V43.783H46.1899V42.3021Z" fill="#111111"/>
<path id="Vector_139" d="M49.1489 42.3021H47.668V43.783H49.1489V42.3021Z" fill="#111111"/>
<path id="Vector_140" d="M50.6314 42.3021H49.1504V43.783H50.6314V42.3021Z" fill="#111111"/>
<path id="Vector_141" d="M52.1118 42.3021H50.6309V43.783H52.1118V42.3021Z" fill="#111111"/>
<path id="Vector_142" d="M55.0728 42.3021H53.5918V43.783H55.0728V42.3021Z" fill="#111111"/>
<path id="Vector_143" d="M58.0357 42.3021H56.5547V43.783H58.0357V42.3021Z" fill="#111111"/>
<path id="Vector_144" d="M23.9732 43.7834H22.4922V45.2644H23.9732V43.7834Z" fill="#111111"/>
<path id="Vector_145" d="M26.936 43.7834H25.4551V45.2644H26.936V43.7834Z" fill="#111111"/>
<path id="Vector_146" d="M29.897 43.7834H28.416V45.2644H29.897V43.7834Z" fill="#111111"/>
<path id="Vector_147" d="M32.8599 43.7834H31.3789V45.2644H32.8599V43.7834Z" fill="#111111"/>
<path id="Vector_148" d="M34.3403 43.7834H32.8594V45.2644H34.3403V43.7834Z" fill="#111111"/>
<path id="Vector_149" d="M40.2622 43.7834H38.7812V45.2644H40.2622V43.7834Z" fill="#111111"/>
<path id="Vector_150" d="M43.2251 43.7834H41.7441V45.2644H43.2251V43.7834Z" fill="#111111"/>
<path id="Vector_151" d="M46.1899 43.7834H44.709V45.2644H46.1899V43.7834Z" fill="#111111"/>
<path id="Vector_152" d="M52.1118 43.7834H50.6309V45.2644H52.1118V43.7834Z" fill="#111111"/>
<path id="Vector_153" d="M53.5942 43.7834H52.1133V45.2644H53.5942V43.7834Z" fill="#111111"/>
<path id="Vector_154" d="M56.5552 43.7834H55.0742V45.2644H56.5552V43.7834Z" fill="#111111"/>
<path id="Vector_155" d="M22.4927 45.264H21.0117V46.745H22.4927V45.264Z" fill="#111111"/>
<path id="Vector_156" d="M23.9732 45.264H22.4922V46.745H23.9732V45.264Z" fill="#111111"/>
<path id="Vector_157" d="M28.4165 45.264H26.9355V46.745H28.4165V45.264Z" fill="#111111"/>
<path id="Vector_158" d="M31.3794 45.264H29.8984V46.745H31.3794V45.264Z" fill="#111111"/>
<path id="Vector_159" d="M32.8599 45.264H31.3789V46.745H32.8599V45.264Z" fill="#111111"/>
<path id="Vector_160" d="M35.8208 45.264H34.3398V46.745H35.8208V45.264Z" fill="#111111"/>
<path id="Vector_161" d="M40.2622 45.264H38.7812V46.745H40.2622V45.264Z" fill="#111111"/>
<path id="Vector_162" d="M41.7466 45.264H40.2656V46.745H41.7466V45.264Z" fill="#111111"/>
<path id="Vector_163" d="M46.1899 45.264H44.709V46.745H46.1899V45.264Z" fill="#111111"/>
<path id="Vector_164" d="M47.6685 45.264H46.1875V46.745H47.6685V45.264Z" fill="#111111"/>
<path id="Vector_165" d="M49.1489 45.264H47.668V46.745H49.1489V45.264Z" fill="#111111"/>
<path id="Vector_166" d="M50.6314 45.264H49.1504V46.745H50.6314V45.264Z" fill="#111111"/>
<path id="Vector_167" d="M52.1118 45.264H50.6309V46.745H52.1118V45.264Z" fill="#111111"/>
<path id="Vector_168" d="M53.5942 45.264H52.1133V46.745H53.5942V45.264Z" fill="#111111"/>
<path id="Vector_169" d="M55.0728 45.264H53.5918V46.745H55.0728V45.264Z" fill="#111111"/>
<path id="Vector_170" d="M34.3403 46.7452H32.8594V48.2262H34.3403V46.7452Z" fill="#111111"/>
<path id="Vector_171" d="M35.8208 46.7452H34.3398V48.2262H35.8208V46.7452Z" fill="#111111"/>
<path id="Vector_172" d="M41.7466 46.7452H40.2656V48.2262H41.7466V46.7452Z" fill="#111111"/>
<path id="Vector_173" d="M44.7075 46.7452H43.2266V48.2262H44.7075V46.7452Z" fill="#111111"/>
<path id="Vector_174" d="M46.1899 46.7452H44.709V48.2262H46.1899V46.7452Z" fill="#111111"/>
<path id="Vector_175" d="M52.1118 46.7452H50.6309V48.2262H52.1118V46.7452Z" fill="#111111"/>
<path id="Vector_176" d="M53.5942 46.7452H52.1133V48.2262H53.5942V46.7452Z" fill="#111111"/>
<path id="Vector_177" d="M55.0728 46.7452H53.5918V48.2262H55.0728V46.7452Z" fill="#111111"/>
<path id="Vector_178" d="M58.0357 46.7452H56.5547V48.2262H58.0357V46.7452Z" fill="#111111"/>
<path id="Vector_179" d="M34.3403 48.2261H32.8594V49.7071H34.3403V48.2261Z" fill="#111111"/>
<path id="Vector_180" d="M38.7837 48.2261H37.3027V49.7071H38.7837V48.2261Z" fill="#111111"/>
<path id="Vector_181" d="M41.7466 48.2261H40.2656V49.7071H41.7466V48.2261Z" fill="#111111"/>
<path id="Vector_182" d="M44.7075 48.2261H43.2266V49.7071H44.7075V48.2261Z" fill="#111111"/>
<path id="Vector_183" d="M46.1899 48.2261H44.709V49.7071H46.1899V48.2261Z" fill="#111111"/>
<path id="Vector_184" d="M49.1489 48.2261H47.668V49.7071H49.1489V48.2261Z" fill="#111111"/>
<path id="Vector_185" d="M52.1118 48.2261H50.6309V49.7071H52.1118V48.2261Z" fill="#111111"/>
<path id="Vector_186" d="M56.5552 48.2261H55.0742V49.7071H56.5552V48.2261Z" fill="#111111"/>
<path id="Vector_187" d="M58.0357 48.2261H56.5547V49.7071H58.0357V48.2261Z" fill="#111111"/>
<path id="Vector_188" d="M34.3403 49.7071H32.8594V51.1881H34.3403V49.7071Z" fill="#111111"/>
<path id="Vector_189" d="M37.3032 49.7071H35.8223V51.1881H37.3032V49.7071Z" fill="#111111"/>
<path id="Vector_190" d="M40.2622 49.7071H38.7812V51.1881H40.2622V49.7071Z" fill="#111111"/>
<path id="Vector_191" d="M41.7466 49.7071H40.2656V51.1881H41.7466V49.7071Z" fill="#111111"/>
<path id="Vector_192" d="M43.2251 49.7071H41.7441V51.1881H43.2251V49.7071Z" fill="#111111"/>
<path id="Vector_193" d="M46.1899 49.7071H44.709V51.1881H46.1899V49.7071Z" fill="#111111"/>
<path id="Vector_194" d="M52.1118 49.7071H50.6309V51.1881H52.1118V49.7071Z" fill="#111111"/>
<path id="Vector_195" d="M53.5942 49.7071H52.1133V51.1881H53.5942V49.7071Z" fill="#111111"/>
<path id="Vector_196" d="M55.0728 49.7071H53.5918V51.1881H55.0728V49.7071Z" fill="#111111"/>
<path id="Vector_197" d="M56.5552 49.7071H55.0742V51.1881H56.5552V49.7071Z" fill="#111111"/>
<path id="Vector_198" d="M37.3032 51.188H35.8223V52.669H37.3032V51.188Z" fill="#111111"/>
<path id="Vector_199" d="M40.2622 51.188H38.7812V52.669H40.2622V51.188Z" fill="#111111"/>
<path id="Vector_200" d="M41.7466 51.188H40.2656V52.669H41.7466V51.188Z" fill="#111111"/>
<path id="Vector_201" d="M46.1899 51.188H44.709V52.669H46.1899V51.188Z" fill="#111111"/>
<path id="Vector_202" d="M47.6685 51.188H46.1875V52.669H47.6685V51.188Z" fill="#111111"/>
<path id="Vector_203" d="M49.1489 51.188H47.668V52.669H49.1489V51.188Z" fill="#111111"/>
<path id="Vector_204" d="M50.6314 51.188H49.1504V52.669H50.6314V51.188Z" fill="#111111"/>
<path id="Vector_205" d="M52.1118 51.188H50.6309V52.669H52.1118V51.188Z" fill="#111111"/>
<path id="Vector_206" d="M58.0357 51.188H56.5547V52.669H58.0357V51.188Z" fill="#111111"/>
<path id="Vector_207" d="M34.3403 52.6688H32.8594V54.1497H34.3403V52.6688Z" fill="#111111"/>
<path id="Vector_208" d="M37.3032 52.6688H35.8223V54.1497H37.3032V52.6688Z" fill="#111111"/>
<path id="Vector_209" d="M41.7466 52.6688H40.2656V54.1497H41.7466V52.6688Z" fill="#111111"/>
<path id="Vector_210" d="M50.6314 52.6688H49.1504V54.1497H50.6314V52.6688Z" fill="#111111"/>
<path id="Vector_211" d="M55.0728 52.6688H53.5918V54.1497H55.0728V52.6688Z" fill="#111111"/>
<path id="Vector_212" d="M35.8208 54.15H34.3398V55.6309H35.8208V54.15Z" fill="#111111"/>
<path id="Vector_213" d="M40.2622 54.15H38.7812V55.6309H40.2622V54.15Z" fill="#111111"/>
<path id="Vector_214" d="M41.7466 54.15H40.2656V55.6309H41.7466V54.15Z" fill="#111111"/>
<path id="Vector_215" d="M46.1899 54.15H44.709V55.6309H46.1899V54.15Z" fill="#111111"/>
<path id="Vector_216" d="M47.6685 54.15H46.1875V55.6309H47.6685V54.15Z" fill="#111111"/>
<path id="Vector_217" d="M52.1118 54.15H50.6309V55.6309H52.1118V54.15Z" fill="#111111"/>
<path id="Vector_218" d="M53.5942 54.15H52.1133V55.6309H53.5942V54.15Z" fill="#111111"/>
<path id="Vector_219" d="M55.0728 54.15H53.5918V55.6309H55.0728V54.15Z" fill="#111111"/>
<path id="Vector_220" d="M58.0357 54.15H56.5547V55.6309H58.0357V54.15Z" fill="#111111"/>
<path id="Vector_221" d="M34.3403 55.631H32.8594V57.112H34.3403V55.631Z" fill="#111111"/>
<path id="Vector_222" d="M35.8208 55.631H34.3398V57.112H35.8208V55.631Z" fill="#111111"/>
<path id="Vector_223" d="M37.3032 55.631H35.8223V57.112H37.3032V55.631Z" fill="#111111"/>
<path id="Vector_224" d="M40.2622 55.631H38.7812V57.112H40.2622V55.631Z" fill="#111111"/>
<path id="Vector_225" d="M41.7466 55.631H40.2656V57.112H41.7466V55.631Z" fill="#111111"/>
<path id="Vector_226" d="M44.7075 55.631H43.2266V57.112H44.7075V55.631Z" fill="#111111"/>
<path id="Vector_227" d="M46.1899 55.631H44.709V57.112H46.1899V55.631Z" fill="#111111"/>
<path id="Vector_228" d="M53.5942 55.631H52.1133V57.112H53.5942V55.631Z" fill="#111111"/>
<path id="Vector_229" d="M35.8208 57.1119H34.3398V58.5929H35.8208V57.1119Z" fill="#111111"/>
<path id="Vector_230" d="M37.3032 57.1119H35.8223V58.5929H37.3032V57.1119Z" fill="#111111"/>
<path id="Vector_231" d="M38.7837 57.1119H37.3027V58.5929H38.7837V57.1119Z" fill="#111111"/>
<path id="Vector_232" d="M40.2622 57.1119H38.7812V58.5929H40.2622V57.1119Z" fill="#111111"/>
<path id="Vector_233" d="M41.7466 57.1119H40.2656V58.5929H41.7466V57.1119Z" fill="#111111"/>
<path id="Vector_234" d="M44.7075 57.1119H43.2266V58.5929H44.7075V57.1119Z" fill="#111111"/>
<path id="Vector_235" d="M46.1899 57.1119H44.709V58.5929H46.1899V57.1119Z" fill="#111111"/>
<path id="Vector_236" d="M50.6314 57.1119H49.1504V58.5929H50.6314V57.1119Z" fill="#111111"/>
<path id="Vector_237" d="M56.5552 57.1119H55.0742V58.5929H56.5552V57.1119Z" fill="#111111"/>
<path id="Vector_238" d="M58.0357 57.1119H56.5547V58.5929H58.0357V57.1119Z" fill="#111111"/>
</g>
<g id="Group_3">
<path id="Vector_239" d="M30.6358 22.3059H21.75V31.1917H30.6358V22.3059Z" stroke="#111111" stroke-width="1.85306"/>
<path id="Vector_240" d="M28.4136 24.5271H23.9707V28.97H28.4136V24.5271Z" fill="#111111"/>
<path id="Vector_241" d="M57.2999 22.3059H48.4141V31.1917H57.2999V22.3059Z" stroke="#111111" stroke-width="1.85306"/>
<path id="Vector_242" d="M55.0777 24.5271H50.6348V28.97H55.0777V24.5271Z" fill="#111111"/>
<path id="Vector_243" d="M30.6358 48.969H21.75V57.8548H30.6358V48.969Z" stroke="#111111" stroke-width="1.85306"/>
<path id="Vector_244" d="M28.4136 51.1904H23.9707V55.6333H28.4136V51.1904Z" fill="#111111"/>
</g>
</g>
</g>
</svg>
