<svg width="80" height="81" viewBox="0 0 80 81" fill="none" xmlns="http://www.w3.org/2000/svg">
<g id="Template 12">
<path d="M0 8.40064C0 3.98236 3.58172 0.400635 8 0.400635H72C76.4183 0.400635 80 3.98236 80 8.40063V72.4006C80 76.8189 76.4183 80.4006 72 80.4006H8C3.58172 80.4006 0 76.8189 0 72.4006V8.40064Z" fill="white"/>
<path d="M0.5 8.40064C0.5 4.2585 3.85786 0.900635 8 0.900635H72C76.1421 0.900635 79.5 4.2585 79.5 8.40063V72.4006C79.5 76.5428 76.1421 79.9006 72 79.9006H8C3.85787 79.9006 0.5 76.5428 0.5 72.4006V8.40064Z" stroke="#1A1A1A" stroke-opacity="0.1"/>
<path id="Vector" d="M71.6078 8.79221H8.39062V72.0094H71.6078V8.79221Z" fill="white" stroke="#111111" stroke-width="2.21777"/>
<g id="Group">
<g id="Group_2">
<path id="Vector_2" d="M32.1207 14.3134C32.1207 13.8632 31.7557 13.4982 31.3055 13.4982C30.8552 13.4982 30.4902 13.8632 30.4902 14.3134C30.4902 14.7636 30.8552 15.1286 31.3055 15.1286C31.7557 15.1286 32.1207 14.7636 32.1207 14.3134Z" fill="#111111"/>
<path id="Vector_3" d="M36.4703 14.3134C36.4703 13.8632 36.1053 13.4982 35.6551 13.4982C35.2048 13.4982 34.8398 13.8632 34.8398 14.3134C34.8398 14.7636 35.2048 15.1286 35.6551 15.1286C36.1053 15.1286 36.4703 14.7636 36.4703 14.3134Z" fill="#111111"/>
<path id="Vector_4" d="M38.6422 14.3134C38.6422 13.8632 38.2772 13.4982 37.827 13.4982C37.3767 13.4982 37.0117 13.8632 37.0117 14.3134C37.0117 14.7636 37.3767 15.1286 37.827 15.1286C38.2772 15.1286 38.6422 14.7636 38.6422 14.3134Z" fill="#111111"/>
<path id="Vector_5" d="M45.1637 14.3134C45.1637 13.8632 44.7987 13.4982 44.3484 13.4982C43.8982 13.4982 43.5332 13.8632 43.5332 14.3134C43.5332 14.7636 43.8982 15.1286 44.3484 15.1286C44.7987 15.1286 45.1637 14.7636 45.1637 14.3134Z" fill="#111111"/>
<path id="Vector_6" d="M47.3375 14.3134C47.3375 13.8632 46.9725 13.4982 46.5223 13.4982C46.072 13.4982 45.707 13.8632 45.707 14.3134C45.707 14.7636 46.072 15.1286 46.5223 15.1286C46.9725 15.1286 47.3375 14.7636 47.3375 14.3134Z" fill="#111111"/>
<path id="Vector_7" d="M36.4703 16.4876C36.4703 16.0373 36.1053 15.6723 35.6551 15.6723C35.2048 15.6723 34.8398 16.0373 34.8398 16.4876C34.8398 16.9378 35.2048 17.3028 35.6551 17.3028C36.1053 17.3028 36.4703 16.9378 36.4703 16.4876Z" fill="#111111"/>
<path id="Vector_8" d="M38.6422 16.4876C38.6422 16.0373 38.2772 15.6723 37.827 15.6723C37.3767 15.6723 37.0117 16.0373 37.0117 16.4876C37.0117 16.9378 37.3767 17.3028 37.827 17.3028C38.2772 17.3028 38.6422 16.9378 38.6422 16.4876Z" fill="#111111"/>
<path id="Vector_9" d="M42.9898 16.4876C42.9898 16.0373 42.6249 15.6723 42.1746 15.6723C41.7244 15.6723 41.3594 16.0373 41.3594 16.4876C41.3594 16.9378 41.7244 17.3028 42.1746 17.3028C42.6249 17.3028 42.9898 16.9378 42.9898 16.4876Z" fill="#111111"/>
<path id="Vector_10" d="M47.3375 16.4876C47.3375 16.0373 46.9725 15.6723 46.5223 15.6723C46.072 15.6723 45.707 16.0373 45.707 16.4876C45.707 16.9378 46.072 17.3028 46.5223 17.3028C46.9725 17.3028 47.3375 16.9378 47.3375 16.4876Z" fill="#111111"/>
<path id="Vector_11" d="M49.5113 16.4876C49.5113 16.0373 49.1463 15.6723 48.6961 15.6723C48.2459 15.6723 47.8809 16.0373 47.8809 16.4876C47.8809 16.9378 48.2459 17.3028 48.6961 17.3028C49.1463 17.3028 49.5113 16.9378 49.5113 16.4876Z" fill="#111111"/>
<path id="Vector_12" d="M32.1207 18.6612C32.1207 18.211 31.7557 17.846 31.3055 17.846C30.8552 17.846 30.4902 18.211 30.4902 18.6612C30.4902 19.1114 30.8552 19.4764 31.3055 19.4764C31.7557 19.4764 32.1207 19.1114 32.1207 18.6612Z" fill="#111111"/>
<path id="Vector_13" d="M40.818 18.6612C40.818 18.211 40.453 17.846 40.0027 17.846C39.5525 17.846 39.1875 18.211 39.1875 18.6612C39.1875 19.1114 39.5525 19.4764 40.0027 19.4764C40.453 19.4764 40.818 19.1114 40.818 18.6612Z" fill="#111111"/>
<path id="Vector_14" d="M45.1637 18.6612C45.1637 18.211 44.7987 17.846 44.3484 17.846C43.8982 17.846 43.5332 18.211 43.5332 18.6612C43.5332 19.1114 43.8982 19.4764 44.3484 19.4764C44.7987 19.4764 45.1637 19.1114 45.1637 18.6612Z" fill="#111111"/>
<path id="Vector_15" d="M47.3375 18.6612C47.3375 18.211 46.9725 17.846 46.5223 17.846C46.072 17.846 45.707 18.211 45.707 18.6612C45.707 19.1114 46.072 19.4764 46.5223 19.4764C46.9725 19.4764 47.3375 19.1114 47.3375 18.6612Z" fill="#111111"/>
<path id="Vector_16" d="M32.1207 20.8354C32.1207 20.3851 31.7557 20.0202 31.3055 20.0202C30.8552 20.0202 30.4902 20.3851 30.4902 20.8354C30.4902 21.2856 30.8552 21.6506 31.3055 21.6506C31.7557 21.6506 32.1207 21.2856 32.1207 20.8354Z" fill="#111111"/>
<path id="Vector_17" d="M38.6422 20.8354C38.6422 20.3851 38.2772 20.0202 37.827 20.0202C37.3767 20.0202 37.0117 20.3851 37.0117 20.8354C37.0117 21.2856 37.3767 21.6506 37.827 21.6506C38.2772 21.6506 38.6422 21.2856 38.6422 20.8354Z" fill="#111111"/>
<path id="Vector_18" d="M45.1637 20.8354C45.1637 20.3851 44.7987 20.0202 44.3484 20.0202C43.8982 20.0202 43.5332 20.3851 43.5332 20.8354C43.5332 21.2856 43.8982 21.6506 44.3484 21.6506C44.7987 21.6506 45.1637 21.2856 45.1637 20.8354Z" fill="#111111"/>
<path id="Vector_19" d="M34.2945 23.0092C34.2945 22.559 33.9295 22.194 33.4793 22.194C33.0291 22.194 32.6641 22.559 32.6641 23.0092C32.6641 23.4594 33.0291 23.8244 33.4793 23.8244C33.9295 23.8244 34.2945 23.4594 34.2945 23.0092Z" fill="#111111"/>
<path id="Vector_20" d="M40.818 23.0092C40.818 22.559 40.453 22.194 40.0027 22.194C39.5525 22.194 39.1875 22.559 39.1875 23.0092C39.1875 23.4594 39.5525 23.8244 40.0027 23.8244C40.453 23.8244 40.818 23.4594 40.818 23.0092Z" fill="#111111"/>
<path id="Vector_21" d="M45.1637 23.0092C45.1637 22.559 44.7987 22.194 44.3484 22.194C43.8982 22.194 43.5332 22.559 43.5332 23.0092C43.5332 23.4594 43.8982 23.8244 44.3484 23.8244C44.7987 23.8244 45.1637 23.4594 45.1637 23.0092Z" fill="#111111"/>
<path id="Vector_22" d="M47.3375 23.0092C47.3375 22.559 46.9725 22.194 46.5223 22.194C46.072 22.194 45.707 22.559 45.707 23.0092C45.707 23.4594 46.072 23.8244 46.5223 23.8244C46.9725 23.8244 47.3375 23.4594 47.3375 23.0092Z" fill="#111111"/>
<path id="Vector_23" d="M32.1207 25.1832C32.1207 24.733 31.7557 24.368 31.3055 24.368C30.8552 24.368 30.4902 24.733 30.4902 25.1832C30.4902 25.6334 30.8552 25.9984 31.3055 25.9984C31.7557 25.9984 32.1207 25.6334 32.1207 25.1832Z" fill="#111111"/>
<path id="Vector_24" d="M34.2945 25.1832C34.2945 24.733 33.9295 24.368 33.4793 24.368C33.0291 24.368 32.6641 24.733 32.6641 25.1832C32.6641 25.6334 33.0291 25.9984 33.4793 25.9984C33.9295 25.9984 34.2945 25.6334 34.2945 25.1832Z" fill="#111111"/>
<path id="Vector_25" d="M38.6422 25.1832C38.6422 24.733 38.2772 24.368 37.827 24.368C37.3767 24.368 37.0117 24.733 37.0117 25.1832C37.0117 25.6334 37.3767 25.9984 37.827 25.9984C38.2772 25.9984 38.6422 25.6334 38.6422 25.1832Z" fill="#111111"/>
<path id="Vector_26" d="M47.3375 25.1832C47.3375 24.733 46.9725 24.368 46.5223 24.368C46.072 24.368 45.707 24.733 45.707 25.1832C45.707 25.6334 46.072 25.9984 46.5223 25.9984C46.9725 25.9984 47.3375 25.6334 47.3375 25.1832Z" fill="#111111"/>
<path id="Vector_27" d="M49.5113 25.1832C49.5113 24.733 49.1463 24.368 48.6961 24.368C48.2459 24.368 47.8809 24.733 47.8809 25.1832C47.8809 25.6334 48.2459 25.9984 48.6961 25.9984C49.1463 25.9984 49.5113 25.6334 49.5113 25.1832Z" fill="#111111"/>
<path id="Vector_28" d="M32.1207 27.3572C32.1207 26.9069 31.7557 26.542 31.3055 26.542C30.8552 26.542 30.4902 26.9069 30.4902 27.3572C30.4902 27.8074 30.8552 28.1724 31.3055 28.1724C31.7557 28.1724 32.1207 27.8074 32.1207 27.3572Z" fill="#111111"/>
<path id="Vector_29" d="M36.4703 27.3572C36.4703 26.9069 36.1053 26.542 35.6551 26.542C35.2048 26.542 34.8398 26.9069 34.8398 27.3572C34.8398 27.8074 35.2048 28.1724 35.6551 28.1724C36.1053 28.1724 36.4703 27.8074 36.4703 27.3572Z" fill="#111111"/>
<path id="Vector_30" d="M40.818 27.3572C40.818 26.9069 40.453 26.542 40.0027 26.542C39.5525 26.542 39.1875 26.9069 39.1875 27.3572C39.1875 27.8074 39.5525 28.1724 40.0027 28.1724C40.453 28.1724 40.818 27.8074 40.818 27.3572Z" fill="#111111"/>
<path id="Vector_31" d="M45.1637 27.3572C45.1637 26.9069 44.7987 26.542 44.3484 26.542C43.8982 26.542 43.5332 26.9069 43.5332 27.3572C43.5332 27.8074 43.8982 28.1724 44.3484 28.1724C44.7987 28.1724 45.1637 27.8074 45.1637 27.3572Z" fill="#111111"/>
<path id="Vector_32" d="M49.5113 27.3572C49.5113 26.9069 49.1463 26.542 48.6961 26.542C48.2459 26.542 47.8809 26.9069 47.8809 27.3572C47.8809 27.8074 48.2459 28.1724 48.6961 28.1724C49.1463 28.1724 49.5113 27.8074 49.5113 27.3572Z" fill="#111111"/>
<path id="Vector_33" d="M32.1207 29.531C32.1207 29.0808 31.7557 28.7158 31.3055 28.7158C30.8552 28.7158 30.4902 29.0808 30.4902 29.531C30.4902 29.9812 30.8552 30.3462 31.3055 30.3462C31.7557 30.3462 32.1207 29.9812 32.1207 29.531Z" fill="#111111"/>
<path id="Vector_34" d="M36.4703 29.531C36.4703 29.0808 36.1053 28.7158 35.6551 28.7158C35.2048 28.7158 34.8398 29.0808 34.8398 29.531C34.8398 29.9812 35.2048 30.3462 35.6551 30.3462C36.1053 30.3462 36.4703 29.9812 36.4703 29.531Z" fill="#111111"/>
<path id="Vector_35" d="M38.6422 29.531C38.6422 29.0808 38.2772 28.7158 37.827 28.7158C37.3767 28.7158 37.0117 29.0808 37.0117 29.531C37.0117 29.9812 37.3767 30.3462 37.827 30.3462C38.2772 30.3462 38.6422 29.9812 38.6422 29.531Z" fill="#111111"/>
<path id="Vector_36" d="M45.1637 29.531C45.1637 29.0808 44.7987 28.7158 44.3484 28.7158C43.8982 28.7158 43.5332 29.0808 43.5332 29.531C43.5332 29.9812 43.8982 30.3462 44.3484 30.3462C44.7987 30.3462 45.1637 29.9812 45.1637 29.531Z" fill="#111111"/>
<path id="Vector_37" d="M49.5113 29.531C49.5113 29.0808 49.1463 28.7158 48.6961 28.7158C48.2459 28.7158 47.8809 29.0808 47.8809 29.531C47.8809 29.9812 48.2459 30.3462 48.6961 30.3462C49.1463 30.3462 49.5113 29.9812 49.5113 29.531Z" fill="#111111"/>
<path id="Vector_38" d="M16.902 31.705C16.902 31.2547 16.537 30.8898 16.0867 30.8898C15.6365 30.8898 15.2715 31.2547 15.2715 31.705C15.2715 32.1552 15.6365 32.5202 16.0867 32.5202C16.537 32.5202 16.902 32.1552 16.902 31.705Z" fill="#111111"/>
<path id="Vector_39" d="M21.2477 31.705C21.2477 31.2547 20.8827 30.8898 20.4324 30.8898C19.9822 30.8898 19.6172 31.2547 19.6172 31.705C19.6172 32.1552 19.9822 32.5202 20.4324 32.5202C20.8827 32.5202 21.2477 32.1552 21.2477 31.705Z" fill="#111111"/>
<path id="Vector_40" d="M25.5973 31.705C25.5973 31.2547 25.2323 30.8898 24.782 30.8898C24.3318 30.8898 23.9668 31.2547 23.9668 31.705C23.9668 32.1552 24.3318 32.5202 24.782 32.5202C25.2323 32.5202 25.5973 32.1552 25.5973 31.705Z" fill="#111111"/>
<path id="Vector_41" d="M27.7711 31.705C27.7711 31.2547 27.4061 30.8898 26.9559 30.8898C26.5056 30.8898 26.1406 31.2547 26.1406 31.705C26.1406 32.1552 26.5056 32.5202 26.9559 32.5202C27.4061 32.5202 27.7711 32.1552 27.7711 31.705Z" fill="#111111"/>
<path id="Vector_42" d="M29.9469 31.705C29.9469 31.2547 29.5819 30.8898 29.1316 30.8898C28.6814 30.8898 28.3164 31.2547 28.3164 31.705C28.3164 32.1552 28.6814 32.5202 29.1316 32.5202C29.5819 32.5202 29.9469 32.1552 29.9469 31.705Z" fill="#111111"/>
<path id="Vector_43" d="M32.1207 31.705C32.1207 31.2547 31.7557 30.8898 31.3055 30.8898C30.8552 30.8898 30.4902 31.2547 30.4902 31.705C30.4902 32.1552 30.8552 32.5202 31.3055 32.5202C31.7557 32.5202 32.1207 32.1552 32.1207 31.705Z" fill="#111111"/>
<path id="Vector_44" d="M36.4703 31.705C36.4703 31.2547 36.1053 30.8898 35.6551 30.8898C35.2048 30.8898 34.8398 31.2547 34.8398 31.705C34.8398 32.1552 35.2048 32.5202 35.6551 32.5202C36.1053 32.5202 36.4703 32.1552 36.4703 31.705Z" fill="#111111"/>
<path id="Vector_45" d="M38.6422 31.705C38.6422 31.2547 38.2772 30.8898 37.827 30.8898C37.3767 30.8898 37.0117 31.2547 37.0117 31.705C37.0117 32.1552 37.3767 32.5202 37.827 32.5202C38.2772 32.5202 38.6422 32.1552 38.6422 31.705Z" fill="#111111"/>
<path id="Vector_46" d="M40.818 31.705C40.818 31.2547 40.453 30.8898 40.0027 30.8898C39.5525 30.8898 39.1875 31.2547 39.1875 31.705C39.1875 32.1552 39.5525 32.5202 40.0027 32.5202C40.453 32.5202 40.818 32.1552 40.818 31.705Z" fill="#111111"/>
<path id="Vector_47" d="M42.9898 31.705C42.9898 31.2547 42.6249 30.8898 42.1746 30.8898C41.7244 30.8898 41.3594 31.2547 41.3594 31.705C41.3594 32.1552 41.7244 32.5202 42.1746 32.5202C42.6249 32.5202 42.9898 32.1552 42.9898 31.705Z" fill="#111111"/>
<path id="Vector_48" d="M45.1637 31.705C45.1637 31.2547 44.7987 30.8898 44.3484 30.8898C43.8982 30.8898 43.5332 31.2547 43.5332 31.705C43.5332 32.1552 43.8982 32.5202 44.3484 32.5202C44.7987 32.5202 45.1637 32.1552 45.1637 31.705Z" fill="#111111"/>
<path id="Vector_49" d="M49.5113 31.705C49.5113 31.2547 49.1463 30.8898 48.6961 30.8898C48.2459 30.8898 47.8809 31.2547 47.8809 31.705C47.8809 32.1552 48.2459 32.5202 48.6961 32.5202C49.1463 32.5202 49.5113 32.1552 49.5113 31.705Z" fill="#111111"/>
<path id="Vector_50" d="M51.6852 31.705C51.6852 31.2547 51.3202 30.8898 50.8699 30.8898C50.4197 30.8898 50.0547 31.2547 50.0547 31.705C50.0547 32.1552 50.4197 32.5202 50.8699 32.5202C51.3202 32.5202 51.6852 32.1552 51.6852 31.705Z" fill="#111111"/>
<path id="Vector_51" d="M53.857 31.705C53.857 31.2547 53.492 30.8898 53.0418 30.8898C52.5916 30.8898 52.2266 31.2547 52.2266 31.705C52.2266 32.1552 52.5916 32.5202 53.0418 32.5202C53.492 32.5202 53.857 32.1552 53.857 31.705Z" fill="#111111"/>
<path id="Vector_52" d="M56.0328 31.705C56.0328 31.2547 55.6678 30.8898 55.2176 30.8898C54.7673 30.8898 54.4023 31.2547 54.4023 31.705C54.4023 32.1552 54.7673 32.5202 55.2176 32.5202C55.6678 32.5202 56.0328 32.1552 56.0328 31.705Z" fill="#111111"/>
<path id="Vector_53" d="M60.3824 31.705C60.3824 31.2547 60.0174 30.8898 59.5672 30.8898C59.1169 30.8898 58.752 31.2547 58.752 31.705C58.752 32.1552 59.1169 32.5202 59.5672 32.5202C60.0174 32.5202 60.3824 32.1552 60.3824 31.705Z" fill="#111111"/>
<path id="Vector_54" d="M62.5543 31.705C62.5543 31.2547 62.1893 30.8898 61.7391 30.8898C61.2888 30.8898 60.9238 31.2547 60.9238 31.705C60.9238 32.1552 61.2888 32.5202 61.7391 32.5202C62.1893 32.5202 62.5543 32.1552 62.5543 31.705Z" fill="#111111"/>
<path id="Vector_55" d="M66.9039 31.705C66.9039 31.2547 66.5389 30.8898 66.0887 30.8898C65.6384 30.8898 65.2734 31.2547 65.2734 31.705C65.2734 32.1552 65.6384 32.5202 66.0887 32.5202C66.5389 32.5202 66.9039 32.1552 66.9039 31.705Z" fill="#111111"/>
<path id="Vector_56" d="M14.7281 33.879C14.7281 33.4287 14.3631 33.0638 13.9129 33.0638C13.4626 33.0638 13.0977 33.4287 13.0977 33.879C13.0977 34.3292 13.4626 34.6942 13.9129 34.6942C14.3631 34.6942 14.7281 34.3292 14.7281 33.879Z" fill="#111111"/>
<path id="Vector_57" d="M16.902 33.879C16.902 33.4287 16.537 33.0638 16.0867 33.0638C15.6365 33.0638 15.2715 33.4287 15.2715 33.879C15.2715 34.3292 15.6365 34.6942 16.0867 34.6942C16.537 34.6942 16.902 34.3292 16.902 33.879Z" fill="#111111"/>
<path id="Vector_58" d="M19.0738 33.879C19.0738 33.4287 18.7088 33.0638 18.2586 33.0638C17.8084 33.0638 17.4434 33.4287 17.4434 33.879C17.4434 34.3292 17.8084 34.6942 18.2586 34.6942C18.7088 34.6942 19.0738 34.3292 19.0738 33.879Z" fill="#111111"/>
<path id="Vector_59" d="M21.2477 33.879C21.2477 33.4287 20.8827 33.0638 20.4324 33.0638C19.9822 33.0638 19.6172 33.4287 19.6172 33.879C19.6172 34.3292 19.9822 34.6942 20.4324 34.6942C20.8827 34.6942 21.2477 34.3292 21.2477 33.879Z" fill="#111111"/>
<path id="Vector_60" d="M34.2945 33.879C34.2945 33.4287 33.9295 33.0638 33.4793 33.0638C33.0291 33.0638 32.6641 33.4287 32.6641 33.879C32.6641 34.3292 33.0291 34.6942 33.4793 34.6942C33.9295 34.6942 34.2945 34.3292 34.2945 33.879Z" fill="#111111"/>
<path id="Vector_61" d="M40.818 33.879C40.818 33.4287 40.453 33.0638 40.0027 33.0638C39.5525 33.0638 39.1875 33.4287 39.1875 33.879C39.1875 34.3292 39.5525 34.6942 40.0027 34.6942C40.453 34.6942 40.818 34.3292 40.818 33.879Z" fill="#111111"/>
<path id="Vector_62" d="M49.5113 33.879C49.5113 33.4287 49.1463 33.0638 48.6961 33.0638C48.2459 33.0638 47.8809 33.4287 47.8809 33.879C47.8809 34.3292 48.2459 34.6942 48.6961 34.6942C49.1463 34.6942 49.5113 34.3292 49.5113 33.879Z" fill="#111111"/>
<path id="Vector_63" d="M51.6852 33.879C51.6852 33.4287 51.3202 33.0638 50.8699 33.0638C50.4197 33.0638 50.0547 33.4287 50.0547 33.879C50.0547 34.3292 50.4197 34.6942 50.8699 34.6942C51.3202 34.6942 51.6852 34.3292 51.6852 33.879Z" fill="#111111"/>
<path id="Vector_64" d="M53.857 33.879C53.857 33.4287 53.492 33.0638 53.0418 33.0638C52.5916 33.0638 52.2266 33.4287 52.2266 33.879C52.2266 34.3292 52.5916 34.6942 53.0418 34.6942C53.492 34.6942 53.857 34.3292 53.857 33.879Z" fill="#111111"/>
<path id="Vector_65" d="M66.9039 33.879C66.9039 33.4287 66.5389 33.0638 66.0887 33.0638C65.6384 33.0638 65.2734 33.4287 65.2734 33.879C65.2734 34.3292 65.6384 34.6942 66.0887 34.6942C66.5389 34.6942 66.9039 34.3292 66.9039 33.879Z" fill="#111111"/>
<path id="Vector_66" d="M14.7281 36.0532C14.7281 35.6029 14.3631 35.2379 13.9129 35.2379C13.4626 35.2379 13.0977 35.6029 13.0977 36.0532C13.0977 36.5034 13.4626 36.8684 13.9129 36.8684C14.3631 36.8684 14.7281 36.5034 14.7281 36.0532Z" fill="#111111"/>
<path id="Vector_67" d="M16.902 36.0532C16.902 35.6029 16.537 35.2379 16.0867 35.2379C15.6365 35.2379 15.2715 35.6029 15.2715 36.0532C15.2715 36.5034 15.6365 36.8684 16.0867 36.8684C16.537 36.8684 16.902 36.5034 16.902 36.0532Z" fill="#111111"/>
<path id="Vector_68" d="M21.2477 36.0532C21.2477 35.6029 20.8827 35.2379 20.4324 35.2379C19.9822 35.2379 19.6172 35.6029 19.6172 36.0532C19.6172 36.5034 19.9822 36.8684 20.4324 36.8684C20.8827 36.8684 21.2477 36.5034 21.2477 36.0532Z" fill="#111111"/>
<path id="Vector_69" d="M23.4234 36.0532C23.4234 35.6029 23.0584 35.2379 22.6082 35.2379C22.158 35.2379 21.793 35.6029 21.793 36.0532C21.793 36.5034 22.158 36.8684 22.6082 36.8684C23.0584 36.8684 23.4234 36.5034 23.4234 36.0532Z" fill="#111111"/>
<path id="Vector_70" d="M25.5973 36.0532C25.5973 35.6029 25.2323 35.2379 24.782 35.2379C24.3318 35.2379 23.9668 35.6029 23.9668 36.0532C23.9668 36.5034 24.3318 36.8684 24.782 36.8684C25.2323 36.8684 25.5973 36.5034 25.5973 36.0532Z" fill="#111111"/>
<path id="Vector_71" d="M27.7711 36.0532C27.7711 35.6029 27.4061 35.2379 26.9559 35.2379C26.5056 35.2379 26.1406 35.6029 26.1406 36.0532C26.1406 36.5034 26.5056 36.8684 26.9559 36.8684C27.4061 36.8684 27.7711 36.5034 27.7711 36.0532Z" fill="#111111"/>
<path id="Vector_72" d="M32.1207 36.0532C32.1207 35.6029 31.7557 35.2379 31.3055 35.2379C30.8552 35.2379 30.4902 35.6029 30.4902 36.0532C30.4902 36.5034 30.8552 36.8684 31.3055 36.8684C31.7557 36.8684 32.1207 36.5034 32.1207 36.0532Z" fill="#111111"/>
<path id="Vector_73" d="M34.2945 36.0532C34.2945 35.6029 33.9295 35.2379 33.4793 35.2379C33.0291 35.2379 32.6641 35.6029 32.6641 36.0532C32.6641 36.5034 33.0291 36.8684 33.4793 36.8684C33.9295 36.8684 34.2945 36.5034 34.2945 36.0532Z" fill="#111111"/>
<path id="Vector_74" d="M42.9898 36.0532C42.9898 35.6029 42.6249 35.2379 42.1746 35.2379C41.7244 35.2379 41.3594 35.6029 41.3594 36.0532C41.3594 36.5034 41.7244 36.8684 42.1746 36.8684C42.6249 36.8684 42.9898 36.5034 42.9898 36.0532Z" fill="#111111"/>
<path id="Vector_75" d="M49.5113 36.0532C49.5113 35.6029 49.1463 35.2379 48.6961 35.2379C48.2459 35.2379 47.8809 35.6029 47.8809 36.0532C47.8809 36.5034 48.2459 36.8684 48.6961 36.8684C49.1463 36.8684 49.5113 36.5034 49.5113 36.0532Z" fill="#111111"/>
<path id="Vector_76" d="M51.6852 36.0532C51.6852 35.6029 51.3202 35.2379 50.8699 35.2379C50.4197 35.2379 50.0547 35.6029 50.0547 36.0532C50.0547 36.5034 50.4197 36.8684 50.8699 36.8684C51.3202 36.8684 51.6852 36.5034 51.6852 36.0532Z" fill="#111111"/>
<path id="Vector_77" d="M53.857 36.0532C53.857 35.6029 53.492 35.2379 53.0418 35.2379C52.5916 35.2379 52.2266 35.6029 52.2266 36.0532C52.2266 36.5034 52.5916 36.8684 53.0418 36.8684C53.492 36.8684 53.857 36.5034 53.857 36.0532Z" fill="#111111"/>
<path id="Vector_78" d="M56.0328 36.0532C56.0328 35.6029 55.6678 35.2379 55.2176 35.2379C54.7673 35.2379 54.4023 35.6029 54.4023 36.0532C54.4023 36.5034 54.7673 36.8684 55.2176 36.8684C55.6678 36.8684 56.0328 36.5034 56.0328 36.0532Z" fill="#111111"/>
<path id="Vector_79" d="M64.7281 36.0532C64.7281 35.6029 64.3631 35.2379 63.9129 35.2379C63.4627 35.2379 63.0977 35.6029 63.0977 36.0532C63.0977 36.5034 63.4627 36.8684 63.9129 36.8684C64.3631 36.8684 64.7281 36.5034 64.7281 36.0532Z" fill="#111111"/>
<path id="Vector_80" d="M66.9039 36.0532C66.9039 35.6029 66.5389 35.2379 66.0887 35.2379C65.6384 35.2379 65.2734 35.6029 65.2734 36.0532C65.2734 36.5034 65.6384 36.8684 66.0887 36.8684C66.5389 36.8684 66.9039 36.5034 66.9039 36.0532Z" fill="#111111"/>
<path id="Vector_81" d="M19.0738 38.227C19.0738 37.7767 18.7088 37.4118 18.2586 37.4118C17.8084 37.4118 17.4434 37.7767 17.4434 38.227C17.4434 38.6772 17.8084 39.0422 18.2586 39.0422C18.7088 39.0422 19.0738 38.6772 19.0738 38.227Z" fill="#111111"/>
<path id="Vector_82" d="M21.2477 38.227C21.2477 37.7767 20.8827 37.4118 20.4324 37.4118C19.9822 37.4118 19.6172 37.7767 19.6172 38.227C19.6172 38.6772 19.9822 39.0422 20.4324 39.0422C20.8827 39.0422 21.2477 38.6772 21.2477 38.227Z" fill="#111111"/>
<path id="Vector_83" d="M23.4234 38.227C23.4234 37.7767 23.0584 37.4118 22.6082 37.4118C22.158 37.4118 21.793 37.7767 21.793 38.227C21.793 38.6772 22.158 39.0422 22.6082 39.0422C23.0584 39.0422 23.4234 38.6772 23.4234 38.227Z" fill="#111111"/>
<path id="Vector_84" d="M25.5973 38.227C25.5973 37.7767 25.2323 37.4118 24.782 37.4118C24.3318 37.4118 23.9668 37.7767 23.9668 38.227C23.9668 38.6772 24.3318 39.0422 24.782 39.0422C25.2323 39.0422 25.5973 38.6772 25.5973 38.227Z" fill="#111111"/>
<path id="Vector_85" d="M32.1207 38.227C32.1207 37.7767 31.7557 37.4118 31.3055 37.4118C30.8552 37.4118 30.4902 37.7767 30.4902 38.227C30.4902 38.6772 30.8552 39.0422 31.3055 39.0422C31.7557 39.0422 32.1207 38.6772 32.1207 38.227Z" fill="#111111"/>
<path id="Vector_86" d="M38.6422 38.227C38.6422 37.7767 38.2772 37.4118 37.827 37.4118C37.3767 37.4118 37.0117 37.7767 37.0117 38.227C37.0117 38.6772 37.3767 39.0422 37.827 39.0422C38.2772 39.0422 38.6422 38.6772 38.6422 38.227Z" fill="#111111"/>
<path id="Vector_87" d="M42.9898 38.227C42.9898 37.7767 42.6249 37.4118 42.1746 37.4118C41.7244 37.4118 41.3594 37.7767 41.3594 38.227C41.3594 38.6772 41.7244 39.0422 42.1746 39.0422C42.6249 39.0422 42.9898 38.6772 42.9898 38.227Z" fill="#111111"/>
<path id="Vector_88" d="M47.3375 38.227C47.3375 37.7767 46.9725 37.4118 46.5223 37.4118C46.072 37.4118 45.707 37.7767 45.707 38.227C45.707 38.6772 46.072 39.0422 46.5223 39.0422C46.9725 39.0422 47.3375 38.6772 47.3375 38.227Z" fill="#111111"/>
<path id="Vector_89" d="M56.0328 38.227C56.0328 37.7767 55.6678 37.4118 55.2176 37.4118C54.7673 37.4118 54.4023 37.7767 54.4023 38.227C54.4023 38.6772 54.7673 39.0422 55.2176 39.0422C55.6678 39.0422 56.0328 38.6772 56.0328 38.227Z" fill="#111111"/>
<path id="Vector_90" d="M58.2066 38.227C58.2066 37.7767 57.8416 37.4118 57.3914 37.4118C56.9412 37.4118 56.5762 37.7767 56.5762 38.227C56.5762 38.6772 56.9412 39.0422 57.3914 39.0422C57.8416 39.0422 58.2066 38.6772 58.2066 38.227Z" fill="#111111"/>
<path id="Vector_91" d="M14.7281 40.4008C14.7281 39.9505 14.3631 39.5856 13.9129 39.5856C13.4626 39.5856 13.0977 39.9505 13.0977 40.4008C13.0977 40.851 13.4626 41.216 13.9129 41.216C14.3631 41.216 14.7281 40.851 14.7281 40.4008Z" fill="#111111"/>
<path id="Vector_92" d="M23.4234 40.4008C23.4234 39.9505 23.0584 39.5856 22.6082 39.5856C22.158 39.5856 21.793 39.9505 21.793 40.4008C21.793 40.851 22.158 41.216 22.6082 41.216C23.0584 41.216 23.4234 40.851 23.4234 40.4008Z" fill="#111111"/>
<path id="Vector_93" d="M27.7711 40.4008C27.7711 39.9505 27.4061 39.5856 26.9559 39.5856C26.5056 39.5856 26.1406 39.9505 26.1406 40.4008C26.1406 40.851 26.5056 41.216 26.9559 41.216C27.4061 41.216 27.7711 40.851 27.7711 40.4008Z" fill="#111111"/>
<path id="Vector_94" d="M29.9469 40.4008C29.9469 39.9505 29.5819 39.5856 29.1316 39.5856C28.6814 39.5856 28.3164 39.9505 28.3164 40.4008C28.3164 40.851 28.6814 41.216 29.1316 41.216C29.5819 41.216 29.9469 40.851 29.9469 40.4008Z" fill="#111111"/>
<path id="Vector_95" d="M32.1207 40.4008C32.1207 39.9505 31.7557 39.5856 31.3055 39.5856C30.8552 39.5856 30.4902 39.9505 30.4902 40.4008C30.4902 40.851 30.8552 41.216 31.3055 41.216C31.7557 41.216 32.1207 40.851 32.1207 40.4008Z" fill="#111111"/>
<path id="Vector_96" d="M36.4703 40.4008C36.4703 39.9505 36.1053 39.5856 35.6551 39.5856C35.2048 39.5856 34.8398 39.9505 34.8398 40.4008C34.8398 40.851 35.2048 41.216 35.6551 41.216C36.1053 41.216 36.4703 40.851 36.4703 40.4008Z" fill="#111111"/>
<path id="Vector_97" d="M38.6422 40.4008C38.6422 39.9505 38.2772 39.5856 37.827 39.5856C37.3767 39.5856 37.0117 39.9505 37.0117 40.4008C37.0117 40.851 37.3767 41.216 37.827 41.216C38.2772 41.216 38.6422 40.851 38.6422 40.4008Z" fill="#111111"/>
<path id="Vector_98" d="M40.818 40.4008C40.818 39.9505 40.453 39.5856 40.0027 39.5856C39.5525 39.5856 39.1875 39.9505 39.1875 40.4008C39.1875 40.851 39.5525 41.216 40.0027 41.216C40.453 41.216 40.818 40.851 40.818 40.4008Z" fill="#111111"/>
<path id="Vector_99" d="M45.1637 40.4008C45.1637 39.9505 44.7987 39.5856 44.3484 39.5856C43.8982 39.5856 43.5332 39.9505 43.5332 40.4008C43.5332 40.851 43.8982 41.216 44.3484 41.216C44.7987 41.216 45.1637 40.851 45.1637 40.4008Z" fill="#111111"/>
<path id="Vector_100" d="M47.3375 40.4008C47.3375 39.9505 46.9725 39.5856 46.5223 39.5856C46.072 39.5856 45.707 39.9505 45.707 40.4008C45.707 40.851 46.072 41.216 46.5223 41.216C46.9725 41.216 47.3375 40.851 47.3375 40.4008Z" fill="#111111"/>
<path id="Vector_101" d="M49.5113 40.4008C49.5113 39.9505 49.1463 39.5856 48.6961 39.5856C48.2459 39.5856 47.8809 39.9505 47.8809 40.4008C47.8809 40.851 48.2459 41.216 48.6961 41.216C49.1463 41.216 49.5113 40.851 49.5113 40.4008Z" fill="#111111"/>
<path id="Vector_102" d="M51.6852 40.4008C51.6852 39.9505 51.3202 39.5856 50.8699 39.5856C50.4197 39.5856 50.0547 39.9505 50.0547 40.4008C50.0547 40.851 50.4197 41.216 50.8699 41.216C51.3202 41.216 51.6852 40.851 51.6852 40.4008Z" fill="#111111"/>
<path id="Vector_103" d="M53.857 40.4008C53.857 39.9505 53.492 39.5856 53.0418 39.5856C52.5916 39.5856 52.2266 39.9505 52.2266 40.4008C52.2266 40.851 52.5916 41.216 53.0418 41.216C53.492 41.216 53.857 40.851 53.857 40.4008Z" fill="#111111"/>
<path id="Vector_104" d="M56.0328 40.4008C56.0328 39.9505 55.6678 39.5856 55.2176 39.5856C54.7673 39.5856 54.4023 39.9505 54.4023 40.4008C54.4023 40.851 54.7673 41.216 55.2176 41.216C55.6678 41.216 56.0328 40.851 56.0328 40.4008Z" fill="#111111"/>
<path id="Vector_105" d="M60.3824 40.4008C60.3824 39.9505 60.0174 39.5856 59.5672 39.5856C59.1169 39.5856 58.752 39.9505 58.752 40.4008C58.752 40.851 59.1169 41.216 59.5672 41.216C60.0174 41.216 60.3824 40.851 60.3824 40.4008Z" fill="#111111"/>
<path id="Vector_106" d="M64.7281 40.4008C64.7281 39.9505 64.3631 39.5856 63.9129 39.5856C63.4627 39.5856 63.0977 39.9505 63.0977 40.4008C63.0977 40.851 63.4627 41.216 63.9129 41.216C64.3631 41.216 64.7281 40.851 64.7281 40.4008Z" fill="#111111"/>
<path id="Vector_107" d="M66.9039 40.4008C66.9039 39.9505 66.5389 39.5856 66.0887 39.5856C65.6384 39.5856 65.2734 39.9505 65.2734 40.4008C65.2734 40.851 65.6384 41.216 66.0887 41.216C66.5389 41.216 66.9039 40.851 66.9039 40.4008Z" fill="#111111"/>
<path id="Vector_108" d="M16.902 42.575C16.902 42.1247 16.537 41.7597 16.0867 41.7597C15.6365 41.7597 15.2715 42.1247 15.2715 42.575C15.2715 43.0252 15.6365 43.3902 16.0867 43.3902C16.537 43.3902 16.902 43.0252 16.902 42.575Z" fill="#111111"/>
<path id="Vector_109" d="M21.2477 42.575C21.2477 42.1247 20.8827 41.7597 20.4324 41.7597C19.9822 41.7597 19.6172 42.1247 19.6172 42.575C19.6172 43.0252 19.9822 43.3902 20.4324 43.3902C20.8827 43.3902 21.2477 43.0252 21.2477 42.575Z" fill="#111111"/>
<path id="Vector_110" d="M23.4234 42.575C23.4234 42.1247 23.0584 41.7597 22.6082 41.7597C22.158 41.7597 21.793 42.1247 21.793 42.575C21.793 43.0252 22.158 43.3902 22.6082 43.3902C23.0584 43.3902 23.4234 43.0252 23.4234 42.575Z" fill="#111111"/>
<path id="Vector_111" d="M25.5973 42.575C25.5973 42.1247 25.2323 41.7597 24.782 41.7597C24.3318 41.7597 23.9668 42.1247 23.9668 42.575C23.9668 43.0252 24.3318 43.3902 24.782 43.3902C25.2323 43.3902 25.5973 43.0252 25.5973 42.575Z" fill="#111111"/>
<path id="Vector_112" d="M34.2945 42.575C34.2945 42.1247 33.9295 41.7597 33.4793 41.7597C33.0291 41.7597 32.6641 42.1247 32.6641 42.575C32.6641 43.0252 33.0291 43.3902 33.4793 43.3902C33.9295 43.3902 34.2945 43.0252 34.2945 42.575Z" fill="#111111"/>
<path id="Vector_113" d="M36.4703 42.575C36.4703 42.1247 36.1053 41.7597 35.6551 41.7597C35.2048 41.7597 34.8398 42.1247 34.8398 42.575C34.8398 43.0252 35.2048 43.3902 35.6551 43.3902C36.1053 43.3902 36.4703 43.0252 36.4703 42.575Z" fill="#111111"/>
<path id="Vector_114" d="M38.6422 42.575C38.6422 42.1247 38.2772 41.7597 37.827 41.7597C37.3767 41.7597 37.0117 42.1247 37.0117 42.575C37.0117 43.0252 37.3767 43.3902 37.827 43.3902C38.2772 43.3902 38.6422 43.0252 38.6422 42.575Z" fill="#111111"/>
<path id="Vector_115" d="M42.9898 42.575C42.9898 42.1247 42.6249 41.7597 42.1746 41.7597C41.7244 41.7597 41.3594 42.1247 41.3594 42.575C41.3594 43.0252 41.7244 43.3902 42.1746 43.3902C42.6249 43.3902 42.9898 43.0252 42.9898 42.575Z" fill="#111111"/>
<path id="Vector_116" d="M51.6852 42.575C51.6852 42.1247 51.3202 41.7597 50.8699 41.7597C50.4197 41.7597 50.0547 42.1247 50.0547 42.575C50.0547 43.0252 50.4197 43.3902 50.8699 43.3902C51.3202 43.3902 51.6852 43.0252 51.6852 42.575Z" fill="#111111"/>
<path id="Vector_117" d="M53.857 42.575C53.857 42.1247 53.492 41.7597 53.0418 41.7597C52.5916 41.7597 52.2266 42.1247 52.2266 42.575C52.2266 43.0252 52.5916 43.3902 53.0418 43.3902C53.492 43.3902 53.857 43.0252 53.857 42.575Z" fill="#111111"/>
<path id="Vector_118" d="M56.0328 42.575C56.0328 42.1247 55.6678 41.7597 55.2176 41.7597C54.7673 41.7597 54.4023 42.1247 54.4023 42.575C54.4023 43.0252 54.7673 43.3902 55.2176 43.3902C55.6678 43.3902 56.0328 43.0252 56.0328 42.575Z" fill="#111111"/>
<path id="Vector_119" d="M60.3824 42.575C60.3824 42.1247 60.0174 41.7597 59.5672 41.7597C59.1169 41.7597 58.752 42.1247 58.752 42.575C58.752 43.0252 59.1169 43.3902 59.5672 43.3902C60.0174 43.3902 60.3824 43.0252 60.3824 42.575Z" fill="#111111"/>
<path id="Vector_120" d="M62.5543 42.575C62.5543 42.1247 62.1893 41.7597 61.7391 41.7597C61.2888 41.7597 60.9238 42.1247 60.9238 42.575C60.9238 43.0252 61.2888 43.3902 61.7391 43.3902C62.1893 43.3902 62.5543 43.0252 62.5543 42.575Z" fill="#111111"/>
<path id="Vector_121" d="M66.9039 42.575C66.9039 42.1247 66.5389 41.7597 66.0887 41.7597C65.6384 41.7597 65.2734 42.1247 65.2734 42.575C65.2734 43.0252 65.6384 43.3902 66.0887 43.3902C66.5389 43.3902 66.9039 43.0252 66.9039 42.575Z" fill="#111111"/>
<path id="Vector_122" d="M14.7281 44.749C14.7281 44.2987 14.3631 43.9337 13.9129 43.9337C13.4626 43.9337 13.0977 44.2987 13.0977 44.749C13.0977 45.1992 13.4626 45.5642 13.9129 45.5642C14.3631 45.5642 14.7281 45.1992 14.7281 44.749Z" fill="#111111"/>
<path id="Vector_123" d="M21.2477 44.749C21.2477 44.2987 20.8827 43.9337 20.4324 43.9337C19.9822 43.9337 19.6172 44.2987 19.6172 44.749C19.6172 45.1992 19.9822 45.5642 20.4324 45.5642C20.8827 45.5642 21.2477 45.1992 21.2477 44.749Z" fill="#111111"/>
<path id="Vector_124" d="M23.4234 44.749C23.4234 44.2987 23.0584 43.9337 22.6082 43.9337C22.158 43.9337 21.793 44.2987 21.793 44.749C21.793 45.1992 22.158 45.5642 22.6082 45.5642C23.0584 45.5642 23.4234 45.1992 23.4234 44.749Z" fill="#111111"/>
<path id="Vector_125" d="M25.5973 44.749C25.5973 44.2987 25.2323 43.9337 24.782 43.9337C24.3318 43.9337 23.9668 44.2987 23.9668 44.749C23.9668 45.1992 24.3318 45.5642 24.782 45.5642C25.2323 45.5642 25.5973 45.1992 25.5973 44.749Z" fill="#111111"/>
<path id="Vector_126" d="M27.7711 44.749C27.7711 44.2987 27.4061 43.9337 26.9559 43.9337C26.5056 43.9337 26.1406 44.2987 26.1406 44.749C26.1406 45.1992 26.5056 45.5642 26.9559 45.5642C27.4061 45.5642 27.7711 45.1992 27.7711 44.749Z" fill="#111111"/>
<path id="Vector_127" d="M29.9469 44.749C29.9469 44.2987 29.5819 43.9337 29.1316 43.9337C28.6814 43.9337 28.3164 44.2987 28.3164 44.749C28.3164 45.1992 28.6814 45.5642 29.1316 45.5642C29.5819 45.5642 29.9469 45.1992 29.9469 44.749Z" fill="#111111"/>
<path id="Vector_128" d="M36.4703 44.749C36.4703 44.2987 36.1053 43.9337 35.6551 43.9337C35.2048 43.9337 34.8398 44.2987 34.8398 44.749C34.8398 45.1992 35.2048 45.5642 35.6551 45.5642C36.1053 45.5642 36.4703 45.1992 36.4703 44.749Z" fill="#111111"/>
<path id="Vector_129" d="M38.6422 44.749C38.6422 44.2987 38.2772 43.9337 37.827 43.9337C37.3767 43.9337 37.0117 44.2987 37.0117 44.749C37.0117 45.1992 37.3767 45.5642 37.827 45.5642C38.2772 45.5642 38.6422 45.1992 38.6422 44.749Z" fill="#111111"/>
<path id="Vector_130" d="M42.9898 44.749C42.9898 44.2987 42.6249 43.9337 42.1746 43.9337C41.7244 43.9337 41.3594 44.2987 41.3594 44.749C41.3594 45.1992 41.7244 45.5642 42.1746 45.5642C42.6249 45.5642 42.9898 45.1992 42.9898 44.749Z" fill="#111111"/>
<path id="Vector_131" d="M45.1637 44.749C45.1637 44.2987 44.7987 43.9337 44.3484 43.9337C43.8982 43.9337 43.5332 44.2987 43.5332 44.749C43.5332 45.1992 43.8982 45.5642 44.3484 45.5642C44.7987 45.5642 45.1637 45.1992 45.1637 44.749Z" fill="#111111"/>
<path id="Vector_132" d="M49.5113 44.749C49.5113 44.2987 49.1463 43.9337 48.6961 43.9337C48.2459 43.9337 47.8809 44.2987 47.8809 44.749C47.8809 45.1992 48.2459 45.5642 48.6961 45.5642C49.1463 45.5642 49.5113 45.1992 49.5113 44.749Z" fill="#111111"/>
<path id="Vector_133" d="M53.857 44.749C53.857 44.2987 53.492 43.9337 53.0418 43.9337C52.5916 43.9337 52.2266 44.2987 52.2266 44.749C52.2266 45.1992 52.5916 45.5642 53.0418 45.5642C53.492 45.5642 53.857 45.1992 53.857 44.749Z" fill="#111111"/>
<path id="Vector_134" d="M56.0328 44.749C56.0328 44.2987 55.6678 43.9337 55.2176 43.9337C54.7673 43.9337 54.4023 44.2987 54.4023 44.749C54.4023 45.1992 54.7673 45.5642 55.2176 45.5642C55.6678 45.5642 56.0328 45.1992 56.0328 44.749Z" fill="#111111"/>
<path id="Vector_135" d="M58.2066 44.749C58.2066 44.2987 57.8416 43.9337 57.3914 43.9337C56.9412 43.9337 56.5762 44.2987 56.5762 44.749C56.5762 45.1992 56.9412 45.5642 57.3914 45.5642C57.8416 45.5642 58.2066 45.1992 58.2066 44.749Z" fill="#111111"/>
<path id="Vector_136" d="M62.5543 44.749C62.5543 44.2987 62.1893 43.9337 61.7391 43.9337C61.2888 43.9337 60.9238 44.2987 60.9238 44.749C60.9238 45.1992 61.2888 45.5642 61.7391 45.5642C62.1893 45.5642 62.5543 45.1992 62.5543 44.749Z" fill="#111111"/>
<path id="Vector_137" d="M66.9039 44.749C66.9039 44.2987 66.5389 43.9337 66.0887 43.9337C65.6384 43.9337 65.2734 44.2987 65.2734 44.749C65.2734 45.1992 65.6384 45.5642 66.0887 45.5642C66.5389 45.5642 66.9039 45.1992 66.9039 44.749Z" fill="#111111"/>
<path id="Vector_138" d="M16.902 46.9226C16.902 46.4723 16.537 46.1074 16.0867 46.1074C15.6365 46.1074 15.2715 46.4723 15.2715 46.9226C15.2715 47.3728 15.6365 47.7378 16.0867 47.7378C16.537 47.7378 16.902 47.3728 16.902 46.9226Z" fill="#111111"/>
<path id="Vector_139" d="M21.2477 46.9226C21.2477 46.4723 20.8827 46.1074 20.4324 46.1074C19.9822 46.1074 19.6172 46.4723 19.6172 46.9226C19.6172 47.3728 19.9822 47.7378 20.4324 47.7378C20.8827 47.7378 21.2477 47.3728 21.2477 46.9226Z" fill="#111111"/>
<path id="Vector_140" d="M25.5973 46.9226C25.5973 46.4723 25.2323 46.1074 24.782 46.1074C24.3318 46.1074 23.9668 46.4723 23.9668 46.9226C23.9668 47.3728 24.3318 47.7378 24.782 47.7378C25.2323 47.7378 25.5973 47.3728 25.5973 46.9226Z" fill="#111111"/>
<path id="Vector_141" d="M29.9469 46.9226C29.9469 46.4723 29.5819 46.1074 29.1316 46.1074C28.6814 46.1074 28.3164 46.4723 28.3164 46.9226C28.3164 47.3728 28.6814 47.7378 29.1316 47.7378C29.5819 47.7378 29.9469 47.3728 29.9469 46.9226Z" fill="#111111"/>
<path id="Vector_142" d="M32.1207 46.9226C32.1207 46.4723 31.7557 46.1074 31.3055 46.1074C30.8552 46.1074 30.4902 46.4723 30.4902 46.9226C30.4902 47.3728 30.8552 47.7378 31.3055 47.7378C31.7557 47.7378 32.1207 47.3728 32.1207 46.9226Z" fill="#111111"/>
<path id="Vector_143" d="M40.818 46.9226C40.818 46.4723 40.453 46.1074 40.0027 46.1074C39.5525 46.1074 39.1875 46.4723 39.1875 46.9226C39.1875 47.3728 39.5525 47.7378 40.0027 47.7378C40.453 47.7378 40.818 47.3728 40.818 46.9226Z" fill="#111111"/>
<path id="Vector_144" d="M45.1637 46.9226C45.1637 46.4723 44.7987 46.1074 44.3484 46.1074C43.8982 46.1074 43.5332 46.4723 43.5332 46.9226C43.5332 47.3728 43.8982 47.7378 44.3484 47.7378C44.7987 47.7378 45.1637 47.3728 45.1637 46.9226Z" fill="#111111"/>
<path id="Vector_145" d="M49.5113 46.9226C49.5113 46.4723 49.1463 46.1074 48.6961 46.1074C48.2459 46.1074 47.8809 46.4723 47.8809 46.9226C47.8809 47.3728 48.2459 47.7378 48.6961 47.7378C49.1463 47.7378 49.5113 47.3728 49.5113 46.9226Z" fill="#111111"/>
<path id="Vector_146" d="M58.2066 46.9226C58.2066 46.4723 57.8416 46.1074 57.3914 46.1074C56.9412 46.1074 56.5762 46.4723 56.5762 46.9226C56.5762 47.3728 56.9412 47.7378 57.3914 47.7378C57.8416 47.7378 58.2066 47.3728 58.2066 46.9226Z" fill="#111111"/>
<path id="Vector_147" d="M60.3824 46.9226C60.3824 46.4723 60.0174 46.1074 59.5672 46.1074C59.1169 46.1074 58.752 46.4723 58.752 46.9226C58.752 47.3728 59.1169 47.7378 59.5672 47.7378C60.0174 47.7378 60.3824 47.3728 60.3824 46.9226Z" fill="#111111"/>
<path id="Vector_148" d="M64.7281 46.9226C64.7281 46.4723 64.3631 46.1074 63.9129 46.1074C63.4627 46.1074 63.0977 46.4723 63.0977 46.9226C63.0977 47.3728 63.4627 47.7378 63.9129 47.7378C64.3631 47.7378 64.7281 47.3728 64.7281 46.9226Z" fill="#111111"/>
<path id="Vector_149" d="M14.7281 49.0968C14.7281 48.6465 14.3631 48.2815 13.9129 48.2815C13.4626 48.2815 13.0977 48.6465 13.0977 49.0968C13.0977 49.547 13.4626 49.912 13.9129 49.912C14.3631 49.912 14.7281 49.547 14.7281 49.0968Z" fill="#111111"/>
<path id="Vector_150" d="M16.902 49.0968C16.902 48.6465 16.537 48.2815 16.0867 48.2815C15.6365 48.2815 15.2715 48.6465 15.2715 49.0968C15.2715 49.547 15.6365 49.912 16.0867 49.912C16.537 49.912 16.902 49.547 16.902 49.0968Z" fill="#111111"/>
<path id="Vector_151" d="M23.4234 49.0968C23.4234 48.6465 23.0584 48.2815 22.6082 48.2815C22.158 48.2815 21.793 48.6465 21.793 49.0968C21.793 49.547 22.158 49.912 22.6082 49.912C23.0584 49.912 23.4234 49.547 23.4234 49.0968Z" fill="#111111"/>
<path id="Vector_152" d="M27.7711 49.0968C27.7711 48.6465 27.4061 48.2815 26.9559 48.2815C26.5056 48.2815 26.1406 48.6465 26.1406 49.0968C26.1406 49.547 26.5056 49.912 26.9559 49.912C27.4061 49.912 27.7711 49.547 27.7711 49.0968Z" fill="#111111"/>
<path id="Vector_153" d="M29.9469 49.0968C29.9469 48.6465 29.5819 48.2815 29.1316 48.2815C28.6814 48.2815 28.3164 48.6465 28.3164 49.0968C28.3164 49.547 28.6814 49.912 29.1316 49.912C29.5819 49.912 29.9469 49.547 29.9469 49.0968Z" fill="#111111"/>
<path id="Vector_154" d="M34.2945 49.0968C34.2945 48.6465 33.9295 48.2815 33.4793 48.2815C33.0291 48.2815 32.6641 48.6465 32.6641 49.0968C32.6641 49.547 33.0291 49.912 33.4793 49.912C33.9295 49.912 34.2945 49.547 34.2945 49.0968Z" fill="#111111"/>
<path id="Vector_155" d="M40.818 49.0968C40.818 48.6465 40.453 48.2815 40.0027 48.2815C39.5525 48.2815 39.1875 48.6465 39.1875 49.0968C39.1875 49.547 39.5525 49.912 40.0027 49.912C40.453 49.912 40.818 49.547 40.818 49.0968Z" fill="#111111"/>
<path id="Vector_156" d="M42.9898 49.0968C42.9898 48.6465 42.6249 48.2815 42.1746 48.2815C41.7244 48.2815 41.3594 48.6465 41.3594 49.0968C41.3594 49.547 41.7244 49.912 42.1746 49.912C42.6249 49.912 42.9898 49.547 42.9898 49.0968Z" fill="#111111"/>
<path id="Vector_157" d="M49.5113 49.0968C49.5113 48.6465 49.1463 48.2815 48.6961 48.2815C48.2459 48.2815 47.8809 48.6465 47.8809 49.0968C47.8809 49.547 48.2459 49.912 48.6961 49.912C49.1463 49.912 49.5113 49.547 49.5113 49.0968Z" fill="#111111"/>
<path id="Vector_158" d="M51.6852 49.0968C51.6852 48.6465 51.3202 48.2815 50.8699 48.2815C50.4197 48.2815 50.0547 48.6465 50.0547 49.0968C50.0547 49.547 50.4197 49.912 50.8699 49.912C51.3202 49.912 51.6852 49.547 51.6852 49.0968Z" fill="#111111"/>
<path id="Vector_159" d="M53.857 49.0968C53.857 48.6465 53.492 48.2815 53.0418 48.2815C52.5916 48.2815 52.2266 48.6465 52.2266 49.0968C52.2266 49.547 52.5916 49.912 53.0418 49.912C53.492 49.912 53.857 49.547 53.857 49.0968Z" fill="#111111"/>
<path id="Vector_160" d="M56.0328 49.0968C56.0328 48.6465 55.6678 48.2815 55.2176 48.2815C54.7673 48.2815 54.4023 48.6465 54.4023 49.0968C54.4023 49.547 54.7673 49.912 55.2176 49.912C55.6678 49.912 56.0328 49.547 56.0328 49.0968Z" fill="#111111"/>
<path id="Vector_161" d="M58.2066 49.0968C58.2066 48.6465 57.8416 48.2815 57.3914 48.2815C56.9412 48.2815 56.5762 48.6465 56.5762 49.0968C56.5762 49.547 56.9412 49.912 57.3914 49.912C57.8416 49.912 58.2066 49.547 58.2066 49.0968Z" fill="#111111"/>
<path id="Vector_162" d="M60.3824 49.0968C60.3824 48.6465 60.0174 48.2815 59.5672 48.2815C59.1169 48.2815 58.752 48.6465 58.752 49.0968C58.752 49.547 59.1169 49.912 59.5672 49.912C60.0174 49.912 60.3824 49.547 60.3824 49.0968Z" fill="#111111"/>
<path id="Vector_163" d="M62.5543 49.0968C62.5543 48.6465 62.1893 48.2815 61.7391 48.2815C61.2888 48.2815 60.9238 48.6465 60.9238 49.0968C60.9238 49.547 61.2888 49.912 61.7391 49.912C62.1893 49.912 62.5543 49.547 62.5543 49.0968Z" fill="#111111"/>
<path id="Vector_164" d="M32.1207 51.2708C32.1207 50.8205 31.7557 50.4555 31.3055 50.4555C30.8552 50.4555 30.4902 50.8205 30.4902 51.2708C30.4902 51.721 30.8552 52.086 31.3055 52.086C31.7557 52.086 32.1207 51.721 32.1207 51.2708Z" fill="#111111"/>
<path id="Vector_165" d="M34.2945 51.2708C34.2945 50.8205 33.9295 50.4555 33.4793 50.4555C33.0291 50.4555 32.6641 50.8205 32.6641 51.2708C32.6641 51.721 33.0291 52.086 33.4793 52.086C33.9295 52.086 34.2945 51.721 34.2945 51.2708Z" fill="#111111"/>
<path id="Vector_166" d="M42.9898 51.2708C42.9898 50.8205 42.6249 50.4555 42.1746 50.4555C41.7244 50.4555 41.3594 50.8205 41.3594 51.2708C41.3594 51.721 41.7244 52.086 42.1746 52.086C42.6249 52.086 42.9898 51.721 42.9898 51.2708Z" fill="#111111"/>
<path id="Vector_167" d="M47.3375 51.2708C47.3375 50.8205 46.9725 50.4555 46.5223 50.4555C46.072 50.4555 45.707 50.8205 45.707 51.2708C45.707 51.721 46.072 52.086 46.5223 52.086C46.9725 52.086 47.3375 51.721 47.3375 51.2708Z" fill="#111111"/>
<path id="Vector_168" d="M49.5113 51.2708C49.5113 50.8205 49.1463 50.4555 48.6961 50.4555C48.2459 50.4555 47.8809 50.8205 47.8809 51.2708C47.8809 51.721 48.2459 52.086 48.6961 52.086C49.1463 52.086 49.5113 51.721 49.5113 51.2708Z" fill="#111111"/>
<path id="Vector_169" d="M58.2066 51.2708C58.2066 50.8205 57.8416 50.4555 57.3914 50.4555C56.9412 50.4555 56.5762 50.8205 56.5762 51.2708C56.5762 51.721 56.9412 52.086 57.3914 52.086C57.8416 52.086 58.2066 51.721 58.2066 51.2708Z" fill="#111111"/>
<path id="Vector_170" d="M60.3824 51.2708C60.3824 50.8205 60.0174 50.4555 59.5672 50.4555C59.1169 50.4555 58.752 50.8205 58.752 51.2708C58.752 51.721 59.1169 52.086 59.5672 52.086C60.0174 52.086 60.3824 51.721 60.3824 51.2708Z" fill="#111111"/>
<path id="Vector_171" d="M62.5543 51.2708C62.5543 50.8205 62.1893 50.4555 61.7391 50.4555C61.2888 50.4555 60.9238 50.8205 60.9238 51.2708C60.9238 51.721 61.2888 52.086 61.7391 52.086C62.1893 52.086 62.5543 51.721 62.5543 51.2708Z" fill="#111111"/>
<path id="Vector_172" d="M66.9039 51.2708C66.9039 50.8205 66.5389 50.4555 66.0887 50.4555C65.6384 50.4555 65.2734 50.8205 65.2734 51.2708C65.2734 51.721 65.6384 52.086 66.0887 52.086C66.5389 52.086 66.9039 51.721 66.9039 51.2708Z" fill="#111111"/>
<path id="Vector_173" d="M32.1207 53.4448C32.1207 52.9945 31.7557 52.6295 31.3055 52.6295C30.8552 52.6295 30.4902 52.9945 30.4902 53.4448C30.4902 53.895 30.8552 54.26 31.3055 54.26C31.7557 54.26 32.1207 53.895 32.1207 53.4448Z" fill="#111111"/>
<path id="Vector_174" d="M38.6422 53.4448C38.6422 52.9945 38.2772 52.6295 37.827 52.6295C37.3767 52.6295 37.0117 52.9945 37.0117 53.4448C37.0117 53.895 37.3767 54.26 37.827 54.26C38.2772 54.26 38.6422 53.895 38.6422 53.4448Z" fill="#111111"/>
<path id="Vector_175" d="M42.9898 53.4448C42.9898 52.9945 42.6249 52.6295 42.1746 52.6295C41.7244 52.6295 41.3594 52.9945 41.3594 53.4448C41.3594 53.895 41.7244 54.26 42.1746 54.26C42.6249 54.26 42.9898 53.895 42.9898 53.4448Z" fill="#111111"/>
<path id="Vector_176" d="M47.3375 53.4448C47.3375 52.9945 46.9725 52.6295 46.5223 52.6295C46.072 52.6295 45.707 52.9945 45.707 53.4448C45.707 53.895 46.072 54.26 46.5223 54.26C46.9725 54.26 47.3375 53.895 47.3375 53.4448Z" fill="#111111"/>
<path id="Vector_177" d="M49.5113 53.4448C49.5113 52.9945 49.1463 52.6295 48.6961 52.6295C48.2459 52.6295 47.8809 52.9945 47.8809 53.4448C47.8809 53.895 48.2459 54.26 48.6961 54.26C49.1463 54.26 49.5113 53.895 49.5113 53.4448Z" fill="#111111"/>
<path id="Vector_178" d="M53.857 53.4448C53.857 52.9945 53.492 52.6295 53.0418 52.6295C52.5916 52.6295 52.2266 52.9945 52.2266 53.4448C52.2266 53.895 52.5916 54.26 53.0418 54.26C53.492 54.26 53.857 53.895 53.857 53.4448Z" fill="#111111"/>
<path id="Vector_179" d="M58.2066 53.4448C58.2066 52.9945 57.8416 52.6295 57.3914 52.6295C56.9412 52.6295 56.5762 52.9945 56.5762 53.4448C56.5762 53.895 56.9412 54.26 57.3914 54.26C57.8416 54.26 58.2066 53.895 58.2066 53.4448Z" fill="#111111"/>
<path id="Vector_180" d="M64.7281 53.4448C64.7281 52.9945 64.3631 52.6295 63.9129 52.6295C63.4627 52.6295 63.0977 52.9945 63.0977 53.4448C63.0977 53.895 63.4627 54.26 63.9129 54.26C64.3631 54.26 64.7281 53.895 64.7281 53.4448Z" fill="#111111"/>
<path id="Vector_181" d="M66.9039 53.4448C66.9039 52.9945 66.5389 52.6295 66.0887 52.6295C65.6384 52.6295 65.2734 52.9945 65.2734 53.4448C65.2734 53.895 65.6384 54.26 66.0887 54.26C66.5389 54.26 66.9039 53.895 66.9039 53.4448Z" fill="#111111"/>
<path id="Vector_182" d="M32.1207 55.6186C32.1207 55.1683 31.7557 54.8033 31.3055 54.8033C30.8552 54.8033 30.4902 55.1683 30.4902 55.6186C30.4902 56.0688 30.8552 56.4338 31.3055 56.4338C31.7557 56.4338 32.1207 56.0688 32.1207 55.6186Z" fill="#111111"/>
<path id="Vector_183" d="M36.4703 55.6186C36.4703 55.1683 36.1053 54.8033 35.6551 54.8033C35.2048 54.8033 34.8398 55.1683 34.8398 55.6186C34.8398 56.0688 35.2048 56.4338 35.6551 56.4338C36.1053 56.4338 36.4703 56.0688 36.4703 55.6186Z" fill="#111111"/>
<path id="Vector_184" d="M40.818 55.6186C40.818 55.1683 40.453 54.8033 40.0027 54.8033C39.5525 54.8033 39.1875 55.1683 39.1875 55.6186C39.1875 56.0688 39.5525 56.4338 40.0027 56.4338C40.453 56.4338 40.818 56.0688 40.818 55.6186Z" fill="#111111"/>
<path id="Vector_185" d="M42.9898 55.6186C42.9898 55.1683 42.6249 54.8033 42.1746 54.8033C41.7244 54.8033 41.3594 55.1683 41.3594 55.6186C41.3594 56.0688 41.7244 56.4338 42.1746 56.4338C42.6249 56.4338 42.9898 56.0688 42.9898 55.6186Z" fill="#111111"/>
<path id="Vector_186" d="M45.1637 55.6186C45.1637 55.1683 44.7987 54.8033 44.3484 54.8033C43.8982 54.8033 43.5332 55.1683 43.5332 55.6186C43.5332 56.0688 43.8982 56.4338 44.3484 56.4338C44.7987 56.4338 45.1637 56.0688 45.1637 55.6186Z" fill="#111111"/>
<path id="Vector_187" d="M49.5113 55.6186C49.5113 55.1683 49.1463 54.8033 48.6961 54.8033C48.2459 54.8033 47.8809 55.1683 47.8809 55.6186C47.8809 56.0688 48.2459 56.4338 48.6961 56.4338C49.1463 56.4338 49.5113 56.0688 49.5113 55.6186Z" fill="#111111"/>
<path id="Vector_188" d="M58.2066 55.6186C58.2066 55.1683 57.8416 54.8033 57.3914 54.8033C56.9412 54.8033 56.5762 55.1683 56.5762 55.6186C56.5762 56.0688 56.9412 56.4338 57.3914 56.4338C57.8416 56.4338 58.2066 56.0688 58.2066 55.6186Z" fill="#111111"/>
<path id="Vector_189" d="M60.3824 55.6186C60.3824 55.1683 60.0174 54.8033 59.5672 54.8033C59.1169 54.8033 58.752 55.1683 58.752 55.6186C58.752 56.0688 59.1169 56.4338 59.5672 56.4338C60.0174 56.4338 60.3824 56.0688 60.3824 55.6186Z" fill="#111111"/>
<path id="Vector_190" d="M62.5543 55.6186C62.5543 55.1683 62.1893 54.8033 61.7391 54.8033C61.2888 54.8033 60.9238 55.1683 60.9238 55.6186C60.9238 56.0688 61.2888 56.4338 61.7391 56.4338C62.1893 56.4338 62.5543 56.0688 62.5543 55.6186Z" fill="#111111"/>
<path id="Vector_191" d="M64.7281 55.6186C64.7281 55.1683 64.3631 54.8033 63.9129 54.8033C63.4627 54.8033 63.0977 55.1683 63.0977 55.6186C63.0977 56.0688 63.4627 56.4338 63.9129 56.4338C64.3631 56.4338 64.7281 56.0688 64.7281 55.6186Z" fill="#111111"/>
<path id="Vector_192" d="M36.4703 57.7926C36.4703 57.3423 36.1053 56.9773 35.6551 56.9773C35.2048 56.9773 34.8398 57.3423 34.8398 57.7926C34.8398 58.2428 35.2048 58.6078 35.6551 58.6078C36.1053 58.6078 36.4703 58.2428 36.4703 57.7926Z" fill="#111111"/>
<path id="Vector_193" d="M40.818 57.7926C40.818 57.3423 40.453 56.9773 40.0027 56.9773C39.5525 56.9773 39.1875 57.3423 39.1875 57.7926C39.1875 58.2428 39.5525 58.6078 40.0027 58.6078C40.453 58.6078 40.818 58.2428 40.818 57.7926Z" fill="#111111"/>
<path id="Vector_194" d="M42.9898 57.7926C42.9898 57.3423 42.6249 56.9773 42.1746 56.9773C41.7244 56.9773 41.3594 57.3423 41.3594 57.7926C41.3594 58.2428 41.7244 58.6078 42.1746 58.6078C42.6249 58.6078 42.9898 58.2428 42.9898 57.7926Z" fill="#111111"/>
<path id="Vector_195" d="M49.5113 57.7926C49.5113 57.3423 49.1463 56.9773 48.6961 56.9773C48.2459 56.9773 47.8809 57.3423 47.8809 57.7926C47.8809 58.2428 48.2459 58.6078 48.6961 58.6078C49.1463 58.6078 49.5113 58.2428 49.5113 57.7926Z" fill="#111111"/>
<path id="Vector_196" d="M51.6852 57.7926C51.6852 57.3423 51.3202 56.9773 50.8699 56.9773C50.4197 56.9773 50.0547 57.3423 50.0547 57.7926C50.0547 58.2428 50.4197 58.6078 50.8699 58.6078C51.3202 58.6078 51.6852 58.2428 51.6852 57.7926Z" fill="#111111"/>
<path id="Vector_197" d="M53.857 57.7926C53.857 57.3423 53.492 56.9773 53.0418 56.9773C52.5916 56.9773 52.2266 57.3423 52.2266 57.7926C52.2266 58.2428 52.5916 58.6078 53.0418 58.6078C53.492 58.6078 53.857 58.2428 53.857 57.7926Z" fill="#111111"/>
<path id="Vector_198" d="M56.0328 57.7926C56.0328 57.3423 55.6678 56.9773 55.2176 56.9773C54.7673 56.9773 54.4023 57.3423 54.4023 57.7926C54.4023 58.2428 54.7673 58.6078 55.2176 58.6078C55.6678 58.6078 56.0328 58.2428 56.0328 57.7926Z" fill="#111111"/>
<path id="Vector_199" d="M58.2066 57.7926C58.2066 57.3423 57.8416 56.9773 57.3914 56.9773C56.9412 56.9773 56.5762 57.3423 56.5762 57.7926C56.5762 58.2428 56.9412 58.6078 57.3914 58.6078C57.8416 58.6078 58.2066 58.2428 58.2066 57.7926Z" fill="#111111"/>
<path id="Vector_200" d="M66.9039 57.7926C66.9039 57.3423 66.5389 56.9773 66.0887 56.9773C65.6384 56.9773 65.2734 57.3423 65.2734 57.7926C65.2734 58.2428 65.6384 58.6078 66.0887 58.6078C66.5389 58.6078 66.9039 58.2428 66.9039 57.7926Z" fill="#111111"/>
<path id="Vector_201" d="M32.1207 59.9666C32.1207 59.5163 31.7557 59.1513 31.3055 59.1513C30.8552 59.1513 30.4902 59.5163 30.4902 59.9666C30.4902 60.4168 30.8552 60.7818 31.3055 60.7818C31.7557 60.7818 32.1207 60.4168 32.1207 59.9666Z" fill="#111111"/>
<path id="Vector_202" d="M36.4703 59.9666C36.4703 59.5163 36.1053 59.1513 35.6551 59.1513C35.2048 59.1513 34.8398 59.5163 34.8398 59.9666C34.8398 60.4168 35.2048 60.7818 35.6551 60.7818C36.1053 60.7818 36.4703 60.4168 36.4703 59.9666Z" fill="#111111"/>
<path id="Vector_203" d="M42.9898 59.9666C42.9898 59.5163 42.6249 59.1513 42.1746 59.1513C41.7244 59.1513 41.3594 59.5163 41.3594 59.9666C41.3594 60.4168 41.7244 60.7818 42.1746 60.7818C42.6249 60.7818 42.9898 60.4168 42.9898 59.9666Z" fill="#111111"/>
<path id="Vector_204" d="M56.0328 59.9666C56.0328 59.5163 55.6678 59.1513 55.2176 59.1513C54.7673 59.1513 54.4023 59.5163 54.4023 59.9666C54.4023 60.4168 54.7673 60.7818 55.2176 60.7818C55.6678 60.7818 56.0328 60.4168 56.0328 59.9666Z" fill="#111111"/>
<path id="Vector_205" d="M62.5543 59.9666C62.5543 59.5163 62.1893 59.1513 61.7391 59.1513C61.2888 59.1513 60.9238 59.5163 60.9238 59.9666C60.9238 60.4168 61.2888 60.7818 61.7391 60.7818C62.1893 60.7818 62.5543 60.4168 62.5543 59.9666Z" fill="#111111"/>
<path id="Vector_206" d="M34.2945 62.1406C34.2945 61.6903 33.9295 61.3253 33.4793 61.3253C33.0291 61.3253 32.6641 61.6903 32.6641 62.1406C32.6641 62.5908 33.0291 62.9558 33.4793 62.9558C33.9295 62.9558 34.2945 62.5908 34.2945 62.1406Z" fill="#111111"/>
<path id="Vector_207" d="M40.818 62.1406C40.818 61.6903 40.453 61.3253 40.0027 61.3253C39.5525 61.3253 39.1875 61.6903 39.1875 62.1406C39.1875 62.5908 39.5525 62.9558 40.0027 62.9558C40.453 62.9558 40.818 62.5908 40.818 62.1406Z" fill="#111111"/>
<path id="Vector_208" d="M42.9898 62.1406C42.9898 61.6903 42.6249 61.3253 42.1746 61.3253C41.7244 61.3253 41.3594 61.6903 41.3594 62.1406C41.3594 62.5908 41.7244 62.9558 42.1746 62.9558C42.6249 62.9558 42.9898 62.5908 42.9898 62.1406Z" fill="#111111"/>
<path id="Vector_209" d="M49.5113 62.1406C49.5113 61.6903 49.1463 61.3253 48.6961 61.3253C48.2459 61.3253 47.8809 61.6903 47.8809 62.1406C47.8809 62.5908 48.2459 62.9558 48.6961 62.9558C49.1463 62.9558 49.5113 62.5908 49.5113 62.1406Z" fill="#111111"/>
<path id="Vector_210" d="M51.6852 62.1406C51.6852 61.6903 51.3202 61.3253 50.8699 61.3253C50.4197 61.3253 50.0547 61.6903 50.0547 62.1406C50.0547 62.5908 50.4197 62.9558 50.8699 62.9558C51.3202 62.9558 51.6852 62.5908 51.6852 62.1406Z" fill="#111111"/>
<path id="Vector_211" d="M58.2066 62.1406C58.2066 61.6903 57.8416 61.3253 57.3914 61.3253C56.9412 61.3253 56.5762 61.6903 56.5762 62.1406C56.5762 62.5908 56.9412 62.9558 57.3914 62.9558C57.8416 62.9558 58.2066 62.5908 58.2066 62.1406Z" fill="#111111"/>
<path id="Vector_212" d="M60.3824 62.1406C60.3824 61.6903 60.0174 61.3253 59.5672 61.3253C59.1169 61.3253 58.752 61.6903 58.752 62.1406C58.752 62.5908 59.1169 62.9558 59.5672 62.9558C60.0174 62.9558 60.3824 62.5908 60.3824 62.1406Z" fill="#111111"/>
<path id="Vector_213" d="M62.5543 62.1406C62.5543 61.6903 62.1893 61.3253 61.7391 61.3253C61.2888 61.3253 60.9238 61.6903 60.9238 62.1406C60.9238 62.5908 61.2888 62.9558 61.7391 62.9558C62.1893 62.9558 62.5543 62.5908 62.5543 62.1406Z" fill="#111111"/>
<path id="Vector_214" d="M66.9039 62.1406C66.9039 61.6903 66.5389 61.3253 66.0887 61.3253C65.6384 61.3253 65.2734 61.6903 65.2734 62.1406C65.2734 62.5908 65.6384 62.9558 66.0887 62.9558C66.5389 62.9558 66.9039 62.5908 66.9039 62.1406Z" fill="#111111"/>
<path id="Vector_215" d="M32.1207 64.3144C32.1207 63.8641 31.7557 63.4991 31.3055 63.4991C30.8552 63.4991 30.4902 63.8641 30.4902 64.3144C30.4902 64.7646 30.8552 65.1296 31.3055 65.1296C31.7557 65.1296 32.1207 64.7646 32.1207 64.3144Z" fill="#111111"/>
<path id="Vector_216" d="M34.2945 64.3144C34.2945 63.8641 33.9295 63.4991 33.4793 63.4991C33.0291 63.4991 32.6641 63.8641 32.6641 64.3144C32.6641 64.7646 33.0291 65.1296 33.4793 65.1296C33.9295 65.1296 34.2945 64.7646 34.2945 64.3144Z" fill="#111111"/>
<path id="Vector_217" d="M36.4703 64.3144C36.4703 63.8641 36.1053 63.4991 35.6551 63.4991C35.2048 63.4991 34.8398 63.8641 34.8398 64.3144C34.8398 64.7646 35.2048 65.1296 35.6551 65.1296C36.1053 65.1296 36.4703 64.7646 36.4703 64.3144Z" fill="#111111"/>
<path id="Vector_218" d="M40.818 64.3144C40.818 63.8641 40.453 63.4991 40.0027 63.4991C39.5525 63.4991 39.1875 63.8641 39.1875 64.3144C39.1875 64.7646 39.5525 65.1296 40.0027 65.1296C40.453 65.1296 40.818 64.7646 40.818 64.3144Z" fill="#111111"/>
<path id="Vector_219" d="M42.9898 64.3144C42.9898 63.8641 42.6249 63.4991 42.1746 63.4991C41.7244 63.4991 41.3594 63.8641 41.3594 64.3144C41.3594 64.7646 41.7244 65.1296 42.1746 65.1296C42.6249 65.1296 42.9898 64.7646 42.9898 64.3144Z" fill="#111111"/>
<path id="Vector_220" d="M47.3375 64.3144C47.3375 63.8641 46.9725 63.4991 46.5223 63.4991C46.072 63.4991 45.707 63.8641 45.707 64.3144C45.707 64.7646 46.072 65.1296 46.5223 65.1296C46.9725 65.1296 47.3375 64.7646 47.3375 64.3144Z" fill="#111111"/>
<path id="Vector_221" d="M49.5113 64.3144C49.5113 63.8641 49.1463 63.4991 48.6961 63.4991C48.2459 63.4991 47.8809 63.8641 47.8809 64.3144C47.8809 64.7646 48.2459 65.1296 48.6961 65.1296C49.1463 65.1296 49.5113 64.7646 49.5113 64.3144Z" fill="#111111"/>
<path id="Vector_222" d="M60.3824 64.3144C60.3824 63.8641 60.0174 63.4991 59.5672 63.4991C59.1169 63.4991 58.752 63.8641 58.752 64.3144C58.752 64.7646 59.1169 65.1296 59.5672 65.1296C60.0174 65.1296 60.3824 64.7646 60.3824 64.3144Z" fill="#111111"/>
<path id="Vector_223" d="M34.2945 66.4884C34.2945 66.0381 33.9295 65.6731 33.4793 65.6731C33.0291 65.6731 32.6641 66.0381 32.6641 66.4884C32.6641 66.9386 33.0291 67.3036 33.4793 67.3036C33.9295 67.3036 34.2945 66.9386 34.2945 66.4884Z" fill="#111111"/>
<path id="Vector_224" d="M36.4703 66.4884C36.4703 66.0381 36.1053 65.6731 35.6551 65.6731C35.2048 65.6731 34.8398 66.0381 34.8398 66.4884C34.8398 66.9386 35.2048 67.3036 35.6551 67.3036C36.1053 67.3036 36.4703 66.9386 36.4703 66.4884Z" fill="#111111"/>
<path id="Vector_225" d="M38.6422 66.4884C38.6422 66.0381 38.2772 65.6731 37.827 65.6731C37.3767 65.6731 37.0117 66.0381 37.0117 66.4884C37.0117 66.9386 37.3767 67.3036 37.827 67.3036C38.2772 67.3036 38.6422 66.9386 38.6422 66.4884Z" fill="#111111"/>
<path id="Vector_226" d="M40.818 66.4884C40.818 66.0381 40.453 65.6731 40.0027 65.6731C39.5525 65.6731 39.1875 66.0381 39.1875 66.4884C39.1875 66.9386 39.5525 67.3036 40.0027 67.3036C40.453 67.3036 40.818 66.9386 40.818 66.4884Z" fill="#111111"/>
<path id="Vector_227" d="M42.9898 66.4884C42.9898 66.0381 42.6249 65.6731 42.1746 65.6731C41.7244 65.6731 41.3594 66.0381 41.3594 66.4884C41.3594 66.9386 41.7244 67.3036 42.1746 67.3036C42.6249 67.3036 42.9898 66.9386 42.9898 66.4884Z" fill="#111111"/>
<path id="Vector_228" d="M47.3375 66.4884C47.3375 66.0381 46.9725 65.6731 46.5223 65.6731C46.072 65.6731 45.707 66.0381 45.707 66.4884C45.707 66.9386 46.072 67.3036 46.5223 67.3036C46.9725 67.3036 47.3375 66.9386 47.3375 66.4884Z" fill="#111111"/>
<path id="Vector_229" d="M49.5113 66.4884C49.5113 66.0381 49.1463 65.6731 48.6961 65.6731C48.2459 65.6731 47.8809 66.0381 47.8809 66.4884C47.8809 66.9386 48.2459 67.3036 48.6961 67.3036C49.1463 67.3036 49.5113 66.9386 49.5113 66.4884Z" fill="#111111"/>
<path id="Vector_230" d="M56.0328 66.4884C56.0328 66.0381 55.6678 65.6731 55.2176 65.6731C54.7673 65.6731 54.4023 66.0381 54.4023 66.4884C54.4023 66.9386 54.7673 67.3036 55.2176 67.3036C55.6678 67.3036 56.0328 66.9386 56.0328 66.4884Z" fill="#111111"/>
<path id="Vector_231" d="M64.7281 66.4884C64.7281 66.0381 64.3631 65.6731 63.9129 65.6731C63.4627 65.6731 63.0977 66.0381 63.0977 66.4884C63.0977 66.9386 63.4627 67.3036 63.9129 67.3036C64.3631 67.3036 64.7281 66.9386 64.7281 66.4884Z" fill="#111111"/>
<path id="Vector_232" d="M66.9039 66.4884C66.9039 66.0381 66.5389 65.6731 66.0887 65.6731C65.6384 65.6731 65.2734 66.0381 65.2734 66.4884C65.2734 66.9386 65.6384 67.3036 66.0887 67.3036C66.5389 67.3036 66.9039 66.9386 66.9039 66.4884Z" fill="#111111"/>
</g>
<g id="Group_3">
<path id="Vector_233" d="M26.9559 14.3103H13.9121V27.354H26.9559V14.3103Z" stroke="#111111" stroke-width="2.72017"/>
<path id="Vector_234" d="M23.6957 17.5717H17.1738V24.0936H23.6957V17.5717Z" fill="#111111"/>
<path id="Vector_235" d="M66.0926 14.3103H53.0488V27.3541H66.0926V14.3103Z" stroke="#111111" stroke-width="2.72017"/>
<path id="Vector_236" d="M62.8344 17.5717H56.3125V24.0936H62.8344V17.5717Z" fill="#111111"/>
<path id="Vector_237" d="M26.9559 53.4476H13.9121V66.4914H26.9559V53.4476Z" stroke="#111111" stroke-width="2.72017"/>
<path id="Vector_238" d="M23.6957 56.7086H17.1738V63.2305H23.6957V56.7086Z" fill="#111111"/>
</g>
</g>
</g>
</svg>
