<svg width="41" height="40" viewBox="0 0 41 40" fill="none" xmlns="http://www.w3.org/2000/svg">
<g id="Group">
<g id="Group_2">
<path id="Vector" d="M14.9404 0.707085H13.7559V1.88396H14.9404V0.707085Z" fill="#111111"/>
<path id="Vector_2" d="M18.0947 0.707085H16.9102V1.88396H18.0947V0.707085Z" fill="#111111"/>
<path id="Vector_3" d="M19.6767 0.707085H18.4922V1.88396H19.6767V0.707085Z" fill="#111111"/>
<path id="Vector_4" d="M24.4111 0.707085H23.2266V1.88396H24.4111V0.707085Z" fill="#111111"/>
<path id="Vector_5" d="M25.9892 0.707085H24.8047V1.88396H25.9892V0.707085Z" fill="#111111"/>
<path id="Vector_6" d="M18.0947 2.27551H16.9102V3.45238H18.0947V2.27551Z" fill="#111111"/>
<path id="Vector_7" d="M19.6767 2.27551H18.4922V3.45238H19.6767V2.27551Z" fill="#111111"/>
<path id="Vector_8" d="M22.831 2.27551H21.6465V3.45238H22.831V2.27551Z" fill="#111111"/>
<path id="Vector_9" d="M25.9892 2.27551H24.8047V3.45238H25.9892V2.27551Z" fill="#111111"/>
<path id="Vector_10" d="M27.5654 2.27551H26.3809V3.45238H27.5654V2.27551Z" fill="#111111"/>
<path id="Vector_11" d="M14.9404 3.84377H13.7559V5.02064H14.9404V3.84377Z" fill="#111111"/>
<path id="Vector_12" d="M21.2548 3.84377H20.0703V5.02064H21.2548V3.84377Z" fill="#111111"/>
<path id="Vector_13" d="M24.4111 3.84377H23.2266V5.02064H24.4111V3.84377Z" fill="#111111"/>
<path id="Vector_14" d="M25.9892 3.84377H24.8047V5.02064H25.9892V3.84377Z" fill="#111111"/>
<path id="Vector_15" d="M14.9404 5.41186H13.7559V6.58874H14.9404V5.41186Z" fill="#111111"/>
<path id="Vector_16" d="M19.6767 5.41186H18.4922V6.58874H19.6767V5.41186Z" fill="#111111"/>
<path id="Vector_17" d="M24.4111 5.41186H23.2266V6.58874H24.4111V5.41186Z" fill="#111111"/>
<path id="Vector_18" d="M16.5166 6.98044H15.332V8.15732H16.5166V6.98044Z" fill="#111111"/>
<path id="Vector_19" d="M21.2548 6.98044H20.0703V8.15732H21.2548V6.98044Z" fill="#111111"/>
<path id="Vector_20" d="M24.4111 6.98044H23.2266V8.15732H24.4111V6.98044Z" fill="#111111"/>
<path id="Vector_21" d="M25.9892 6.98044H24.8047V8.15732H25.9892V6.98044Z" fill="#111111"/>
<path id="Vector_22" d="M14.9404 8.54854H13.7559V9.72542H14.9404V8.54854Z" fill="#111111"/>
<path id="Vector_23" d="M16.5166 8.54854H15.332V9.72542H16.5166V8.54854Z" fill="#111111"/>
<path id="Vector_24" d="M19.6767 8.54854H18.4922V9.72542H19.6767V8.54854Z" fill="#111111"/>
<path id="Vector_25" d="M25.9892 8.54854H24.8047V9.72542H25.9892V8.54854Z" fill="#111111"/>
<path id="Vector_26" d="M27.5654 8.54854H26.3809V9.72542H27.5654V8.54854Z" fill="#111111"/>
<path id="Vector_27" d="M14.9404 10.117H13.7559V11.2938H14.9404V10.117Z" fill="#111111"/>
<path id="Vector_28" d="M18.0947 10.117H16.9102V11.2938H18.0947V10.117Z" fill="#111111"/>
<path id="Vector_29" d="M21.2548 10.117H20.0703V11.2938H21.2548V10.117Z" fill="#111111"/>
<path id="Vector_30" d="M24.4111 10.117H23.2266V11.2938H24.4111V10.117Z" fill="#111111"/>
<path id="Vector_31" d="M27.5654 10.117H26.3809V11.2938H27.5654V10.117Z" fill="#111111"/>
<path id="Vector_32" d="M14.9404 11.6854H13.7559V12.8623H14.9404V11.6854Z" fill="#111111"/>
<path id="Vector_33" d="M18.0947 11.6854H16.9102V12.8623H18.0947V11.6854Z" fill="#111111"/>
<path id="Vector_34" d="M19.6767 11.6854H18.4922V12.8623H19.6767V11.6854Z" fill="#111111"/>
<path id="Vector_35" d="M24.4111 11.6854H23.2266V12.8623H24.4111V11.6854Z" fill="#111111"/>
<path id="Vector_36" d="M27.5654 11.6854H26.3809V12.8623H27.5654V11.6854Z" fill="#111111"/>
<path id="Vector_37" d="M3.88765 13.2536H2.70312V14.4305H3.88765V13.2536Z" fill="#111111"/>
<path id="Vector_38" d="M7.0478 13.2536H5.86328V14.4305H7.0478V13.2536Z" fill="#111111"/>
<path id="Vector_39" d="M10.206 13.2536H9.02148V14.4305H10.206V13.2536Z" fill="#111111"/>
<path id="Vector_40" d="M11.7822 13.2536H10.5977V14.4305H11.7822V13.2536Z" fill="#111111"/>
<path id="Vector_41" d="M13.3603 13.2536H12.1758V14.4305H13.3603V13.2536Z" fill="#111111"/>
<path id="Vector_42" d="M14.9404 13.2536H13.7559V14.4305H14.9404V13.2536Z" fill="#111111"/>
<path id="Vector_43" d="M18.0947 13.2536H16.9102V14.4305H18.0947V13.2536Z" fill="#111111"/>
<path id="Vector_44" d="M19.6767 13.2536H18.4922V14.4305H19.6767V13.2536Z" fill="#111111"/>
<path id="Vector_45" d="M21.2548 13.2536H20.0703V14.4305H21.2548V13.2536Z" fill="#111111"/>
<path id="Vector_46" d="M22.831 13.2536H21.6465V14.4305H22.831V13.2536Z" fill="#111111"/>
<path id="Vector_47" d="M24.4111 13.2536H23.2266V14.4305H24.4111V13.2536Z" fill="#111111"/>
<path id="Vector_48" d="M27.5654 13.2536H26.3809V14.4305H27.5654V13.2536Z" fill="#111111"/>
<path id="Vector_49" d="M29.1455 13.2536H27.9609V14.4305H29.1455V13.2536Z" fill="#111111"/>
<path id="Vector_50" d="M30.7236 13.2536H29.5391V14.4305H30.7236V13.2536Z" fill="#111111"/>
<path id="Vector_51" d="M32.2998 13.2536H31.1152V14.4305H32.2998V13.2536Z" fill="#111111"/>
<path id="Vector_52" d="M35.4599 13.2536H34.2754V14.4305H35.4599V13.2536Z" fill="#111111"/>
<path id="Vector_53" d="M37.038 13.2536H35.8535V14.4305H37.038V13.2536Z" fill="#111111"/>
<path id="Vector_54" d="M40.1943 13.2536H39.0098V14.4305H40.1943V13.2536Z" fill="#111111"/>
<path id="Vector_55" d="M2.31147 14.8219H1.12695V15.9988H2.31147V14.8219Z" fill="#111111"/>
<path id="Vector_56" d="M3.88765 14.8219H2.70312V15.9988H3.88765V14.8219Z" fill="#111111"/>
<path id="Vector_57" d="M5.46968 14.8219H4.28516V15.9988H5.46968V14.8219Z" fill="#111111"/>
<path id="Vector_58" d="M7.0478 14.8219H5.86328V15.9988H7.0478V14.8219Z" fill="#111111"/>
<path id="Vector_59" d="M16.5166 14.8219H15.332V15.9988H16.5166V14.8219Z" fill="#111111"/>
<path id="Vector_60" d="M21.2548 14.8219H20.0703V15.9988H21.2548V14.8219Z" fill="#111111"/>
<path id="Vector_61" d="M27.5654 14.8219H26.3809V15.9988H27.5654V14.8219Z" fill="#111111"/>
<path id="Vector_62" d="M29.1455 14.8219H27.9609V15.9988H29.1455V14.8219Z" fill="#111111"/>
<path id="Vector_63" d="M30.7236 14.8219H29.5391V15.9988H30.7236V14.8219Z" fill="#111111"/>
<path id="Vector_64" d="M40.1943 14.8219H39.0098V15.9988H40.1943V14.8219Z" fill="#111111"/>
<path id="Vector_65" d="M2.31147 16.3903H1.12695V17.5672H2.31147V16.3903Z" fill="#111111"/>
<path id="Vector_66" d="M3.88765 16.3903H2.70312V17.5672H3.88765V16.3903Z" fill="#111111"/>
<path id="Vector_67" d="M7.0478 16.3903H5.86328V17.5672H7.0478V16.3903Z" fill="#111111"/>
<path id="Vector_68" d="M8.62593 16.3903H7.44141V17.5672H8.62593V16.3903Z" fill="#111111"/>
<path id="Vector_69" d="M10.206 16.3903H9.02148V17.5672H10.206V16.3903Z" fill="#111111"/>
<path id="Vector_70" d="M11.7822 16.3903H10.5977V17.5672H11.7822V16.3903Z" fill="#111111"/>
<path id="Vector_71" d="M14.9404 16.3903H13.7559V17.5672H14.9404V16.3903Z" fill="#111111"/>
<path id="Vector_72" d="M16.5166 16.3903H15.332V17.5672H16.5166V16.3903Z" fill="#111111"/>
<path id="Vector_73" d="M22.831 16.3903H21.6465V17.5672H22.831V16.3903Z" fill="#111111"/>
<path id="Vector_74" d="M27.5654 16.3903H26.3809V17.5672H27.5654V16.3903Z" fill="#111111"/>
<path id="Vector_75" d="M29.1455 16.3903H27.9609V17.5672H29.1455V16.3903Z" fill="#111111"/>
<path id="Vector_76" d="M30.7236 16.3903H29.5391V17.5672H30.7236V16.3903Z" fill="#111111"/>
<path id="Vector_77" d="M32.2998 16.3903H31.1152V17.5672H32.2998V16.3903Z" fill="#111111"/>
<path id="Vector_78" d="M38.6181 16.3903H37.4336V17.5672H38.6181V16.3903Z" fill="#111111"/>
<path id="Vector_79" d="M40.1943 16.3903H39.0098V17.5672H40.1943V16.3903Z" fill="#111111"/>
<path id="Vector_80" d="M5.46968 17.9587H4.28516V19.1356H5.46968V17.9587Z" fill="#111111"/>
<path id="Vector_81" d="M7.0478 17.9587H5.86328V19.1356H7.0478V17.9587Z" fill="#111111"/>
<path id="Vector_82" d="M8.62593 17.9587H7.44141V19.1356H8.62593V17.9587Z" fill="#111111"/>
<path id="Vector_83" d="M10.206 17.9587H9.02148V19.1356H10.206V17.9587Z" fill="#111111"/>
<path id="Vector_84" d="M14.9404 17.9587H13.7559V19.1356H14.9404V17.9587Z" fill="#111111"/>
<path id="Vector_85" d="M19.6767 17.9587H18.4922V19.1356H19.6767V17.9587Z" fill="#111111"/>
<path id="Vector_86" d="M22.831 17.9587H21.6465V19.1356H22.831V17.9587Z" fill="#111111"/>
<path id="Vector_87" d="M25.9892 17.9587H24.8047V19.1356H25.9892V17.9587Z" fill="#111111"/>
<path id="Vector_88" d="M32.2998 17.9587H31.1152V19.1356H32.2998V17.9587Z" fill="#111111"/>
<path id="Vector_89" d="M33.8818 17.9587H32.6973V19.1356H33.8818V17.9587Z" fill="#111111"/>
<path id="Vector_90" d="M2.31147 19.5268H1.12695V20.7037H2.31147V19.5268Z" fill="#111111"/>
<path id="Vector_91" d="M8.62593 19.5268H7.44141V20.7037H8.62593V19.5268Z" fill="#111111"/>
<path id="Vector_92" d="M11.7822 19.5268H10.5977V20.7037H11.7822V19.5268Z" fill="#111111"/>
<path id="Vector_93" d="M13.3603 19.5268H12.1758V20.7037H13.3603V19.5268Z" fill="#111111"/>
<path id="Vector_94" d="M14.9404 19.5268H13.7559V20.7037H14.9404V19.5268Z" fill="#111111"/>
<path id="Vector_95" d="M18.0947 19.5268H16.9102V20.7037H18.0947V19.5268Z" fill="#111111"/>
<path id="Vector_96" d="M19.6767 19.5268H18.4922V20.7037H19.6767V19.5268Z" fill="#111111"/>
<path id="Vector_97" d="M21.2548 19.5268H20.0703V20.7037H21.2548V19.5268Z" fill="#111111"/>
<path id="Vector_98" d="M24.4111 19.5268H23.2266V20.7037H24.4111V19.5268Z" fill="#111111"/>
<path id="Vector_99" d="M25.9892 19.5268H24.8047V20.7037H25.9892V19.5268Z" fill="#111111"/>
<path id="Vector_100" d="M27.5654 19.5268H26.3809V20.7037H27.5654V19.5268Z" fill="#111111"/>
<path id="Vector_101" d="M29.1455 19.5268H27.9609V20.7037H29.1455V19.5268Z" fill="#111111"/>
<path id="Vector_102" d="M30.7236 19.5268H29.5391V20.7037H30.7236V19.5268Z" fill="#111111"/>
<path id="Vector_103" d="M32.2998 19.5268H31.1152V20.7037H32.2998V19.5268Z" fill="#111111"/>
<path id="Vector_104" d="M35.4599 19.5268H34.2754V20.7037H35.4599V19.5268Z" fill="#111111"/>
<path id="Vector_105" d="M38.6181 19.5268H37.4336V20.7037H38.6181V19.5268Z" fill="#111111"/>
<path id="Vector_106" d="M40.1943 19.5268H39.0098V20.7037H40.1943V19.5268Z" fill="#111111"/>
<path id="Vector_107" d="M3.88765 21.0953H2.70312V22.2721H3.88765V21.0953Z" fill="#111111"/>
<path id="Vector_108" d="M7.0478 21.0953H5.86328V22.2721H7.0478V21.0953Z" fill="#111111"/>
<path id="Vector_109" d="M8.62593 21.0953H7.44141V22.2721H8.62593V21.0953Z" fill="#111111"/>
<path id="Vector_110" d="M10.206 21.0953H9.02148V22.2721H10.206V21.0953Z" fill="#111111"/>
<path id="Vector_111" d="M16.5166 21.0953H15.332V22.2721H16.5166V21.0953Z" fill="#111111"/>
<path id="Vector_112" d="M18.0947 21.0953H16.9102V22.2721H18.0947V21.0953Z" fill="#111111"/>
<path id="Vector_113" d="M19.6767 21.0953H18.4922V22.2721H19.6767V21.0953Z" fill="#111111"/>
<path id="Vector_114" d="M22.831 21.0953H21.6465V22.2721H22.831V21.0953Z" fill="#111111"/>
<path id="Vector_115" d="M29.1455 21.0953H27.9609V22.2721H29.1455V21.0953Z" fill="#111111"/>
<path id="Vector_116" d="M30.7236 21.0953H29.5391V22.2721H30.7236V21.0953Z" fill="#111111"/>
<path id="Vector_117" d="M32.2998 21.0953H31.1152V22.2721H32.2998V21.0953Z" fill="#111111"/>
<path id="Vector_118" d="M35.4599 21.0953H34.2754V22.2721H35.4599V21.0953Z" fill="#111111"/>
<path id="Vector_119" d="M37.038 21.0953H35.8535V22.2721H37.038V21.0953Z" fill="#111111"/>
<path id="Vector_120" d="M40.1943 21.0953H39.0098V22.2721H40.1943V21.0953Z" fill="#111111"/>
<path id="Vector_121" d="M2.31147 22.6637H1.12695V23.8405H2.31147V22.6637Z" fill="#111111"/>
<path id="Vector_122" d="M7.0478 22.6637H5.86328V23.8405H7.0478V22.6637Z" fill="#111111"/>
<path id="Vector_123" d="M8.62593 22.6637H7.44141V23.8405H8.62593V22.6637Z" fill="#111111"/>
<path id="Vector_124" d="M10.206 22.6637H9.02148V23.8405H10.206V22.6637Z" fill="#111111"/>
<path id="Vector_125" d="M11.7822 22.6637H10.5977V23.8405H11.7822V22.6637Z" fill="#111111"/>
<path id="Vector_126" d="M13.3603 22.6637H12.1758V23.8405H13.3603V22.6637Z" fill="#111111"/>
<path id="Vector_127" d="M18.0947 22.6637H16.9102V23.8405H18.0947V22.6637Z" fill="#111111"/>
<path id="Vector_128" d="M19.6767 22.6637H18.4922V23.8405H19.6767V22.6637Z" fill="#111111"/>
<path id="Vector_129" d="M22.831 22.6637H21.6465V23.8405H22.831V22.6637Z" fill="#111111"/>
<path id="Vector_130" d="M24.4111 22.6637H23.2266V23.8405H24.4111V22.6637Z" fill="#111111"/>
<path id="Vector_131" d="M27.5654 22.6637H26.3809V23.8405H27.5654V22.6637Z" fill="#111111"/>
<path id="Vector_132" d="M30.7236 22.6637H29.5391V23.8405H30.7236V22.6637Z" fill="#111111"/>
<path id="Vector_133" d="M32.2998 22.6637H31.1152V23.8405H32.2998V22.6637Z" fill="#111111"/>
<path id="Vector_134" d="M33.8818 22.6637H32.6973V23.8405H33.8818V22.6637Z" fill="#111111"/>
<path id="Vector_135" d="M37.038 22.6637H35.8535V23.8405H37.038V22.6637Z" fill="#111111"/>
<path id="Vector_136" d="M40.1943 22.6637H39.0098V23.8405H40.1943V22.6637Z" fill="#111111"/>
<path id="Vector_137" d="M3.88765 24.2318H2.70312V25.4087H3.88765V24.2318Z" fill="#111111"/>
<path id="Vector_138" d="M7.0478 24.2318H5.86328V25.4087H7.0478V24.2318Z" fill="#111111"/>
<path id="Vector_139" d="M10.206 24.2318H9.02148V25.4087H10.206V24.2318Z" fill="#111111"/>
<path id="Vector_140" d="M13.3603 24.2318H12.1758V25.4087H13.3603V24.2318Z" fill="#111111"/>
<path id="Vector_141" d="M14.9404 24.2318H13.7559V25.4087H14.9404V24.2318Z" fill="#111111"/>
<path id="Vector_142" d="M21.2548 24.2318H20.0703V25.4087H21.2548V24.2318Z" fill="#111111"/>
<path id="Vector_143" d="M24.4111 24.2318H23.2266V25.4087H24.4111V24.2318Z" fill="#111111"/>
<path id="Vector_144" d="M27.5654 24.2318H26.3809V25.4087H27.5654V24.2318Z" fill="#111111"/>
<path id="Vector_145" d="M33.8818 24.2318H32.6973V25.4087H33.8818V24.2318Z" fill="#111111"/>
<path id="Vector_146" d="M35.4599 24.2318H34.2754V25.4087H35.4599V24.2318Z" fill="#111111"/>
<path id="Vector_147" d="M38.6181 24.2318H37.4336V25.4087H38.6181V24.2318Z" fill="#111111"/>
<path id="Vector_148" d="M2.31147 25.8H1.12695V26.9769H2.31147V25.8Z" fill="#111111"/>
<path id="Vector_149" d="M3.88765 25.8H2.70312V26.9769H3.88765V25.8Z" fill="#111111"/>
<path id="Vector_150" d="M8.62593 25.8H7.44141V26.9769H8.62593V25.8Z" fill="#111111"/>
<path id="Vector_151" d="M11.7822 25.8H10.5977V26.9769H11.7822V25.8Z" fill="#111111"/>
<path id="Vector_152" d="M13.3603 25.8H12.1758V26.9769H13.3603V25.8Z" fill="#111111"/>
<path id="Vector_153" d="M16.5166 25.8H15.332V26.9769H16.5166V25.8Z" fill="#111111"/>
<path id="Vector_154" d="M21.2548 25.8H20.0703V26.9769H21.2548V25.8Z" fill="#111111"/>
<path id="Vector_155" d="M22.831 25.8H21.6465V26.9769H22.831V25.8Z" fill="#111111"/>
<path id="Vector_156" d="M27.5654 25.8H26.3809V26.9769H27.5654V25.8Z" fill="#111111"/>
<path id="Vector_157" d="M29.1455 25.8H27.9609V26.9769H29.1455V25.8Z" fill="#111111"/>
<path id="Vector_158" d="M30.7236 25.8H29.5391V26.9769H30.7236V25.8Z" fill="#111111"/>
<path id="Vector_159" d="M32.2998 25.8H31.1152V26.9769H32.2998V25.8Z" fill="#111111"/>
<path id="Vector_160" d="M33.8818 25.8H32.6973V26.9769H33.8818V25.8Z" fill="#111111"/>
<path id="Vector_161" d="M35.4599 25.8H34.2754V26.9769H35.4599V25.8Z" fill="#111111"/>
<path id="Vector_162" d="M37.038 25.8H35.8535V26.9769H37.038V25.8Z" fill="#111111"/>
<path id="Vector_163" d="M14.9404 27.3688H13.7559V28.5457H14.9404V27.3688Z" fill="#111111"/>
<path id="Vector_164" d="M16.5166 27.3688H15.332V28.5457H16.5166V27.3688Z" fill="#111111"/>
<path id="Vector_165" d="M22.831 27.3688H21.6465V28.5457H22.831V27.3688Z" fill="#111111"/>
<path id="Vector_166" d="M25.9892 27.3688H24.8047V28.5457H25.9892V27.3688Z" fill="#111111"/>
<path id="Vector_167" d="M27.5654 27.3688H26.3809V28.5457H27.5654V27.3688Z" fill="#111111"/>
<path id="Vector_168" d="M33.8818 27.3688H32.6973V28.5457H33.8818V27.3688Z" fill="#111111"/>
<path id="Vector_169" d="M35.4599 27.3688H34.2754V28.5457H35.4599V27.3688Z" fill="#111111"/>
<path id="Vector_170" d="M37.038 27.3688H35.8535V28.5457H37.038V27.3688Z" fill="#111111"/>
<path id="Vector_171" d="M40.1943 27.3688H39.0098V28.5457H40.1943V27.3688Z" fill="#111111"/>
<path id="Vector_172" d="M14.9404 28.9369H13.7559V30.1138H14.9404V28.9369Z" fill="#111111"/>
<path id="Vector_173" d="M19.6767 28.9369H18.4922V30.1138H19.6767V28.9369Z" fill="#111111"/>
<path id="Vector_174" d="M22.831 28.9369H21.6465V30.1138H22.831V28.9369Z" fill="#111111"/>
<path id="Vector_175" d="M25.9892 28.9369H24.8047V30.1138H25.9892V28.9369Z" fill="#111111"/>
<path id="Vector_176" d="M27.5654 28.9369H26.3809V30.1138H27.5654V28.9369Z" fill="#111111"/>
<path id="Vector_177" d="M30.7236 28.9369H29.5391V30.1138H30.7236V28.9369Z" fill="#111111"/>
<path id="Vector_178" d="M33.8818 28.9369H32.6973V30.1138H33.8818V28.9369Z" fill="#111111"/>
<path id="Vector_179" d="M38.6181 28.9369H37.4336V30.1138H38.6181V28.9369Z" fill="#111111"/>
<path id="Vector_180" d="M40.1943 28.9369H39.0098V30.1138H40.1943V28.9369Z" fill="#111111"/>
<path id="Vector_181" d="M14.9404 30.505H13.7559V31.6818H14.9404V30.505Z" fill="#111111"/>
<path id="Vector_182" d="M18.0947 30.505H16.9102V31.6818H18.0947V30.505Z" fill="#111111"/>
<path id="Vector_183" d="M21.2548 30.505H20.0703V31.6818H21.2548V30.505Z" fill="#111111"/>
<path id="Vector_184" d="M22.831 30.505H21.6465V31.6818H22.831V30.505Z" fill="#111111"/>
<path id="Vector_185" d="M24.4111 30.505H23.2266V31.6818H24.4111V30.505Z" fill="#111111"/>
<path id="Vector_186" d="M27.5654 30.505H26.3809V31.6818H27.5654V30.505Z" fill="#111111"/>
<path id="Vector_187" d="M33.8818 30.505H32.6973V31.6818H33.8818V30.505Z" fill="#111111"/>
<path id="Vector_188" d="M35.4599 30.505H34.2754V31.6818H35.4599V30.505Z" fill="#111111"/>
<path id="Vector_189" d="M37.038 30.505H35.8535V31.6818H37.038V30.505Z" fill="#111111"/>
<path id="Vector_190" d="M38.6181 30.505H37.4336V31.6818H38.6181V30.505Z" fill="#111111"/>
<path id="Vector_191" d="M18.0947 32.0734H16.9102V33.2503H18.0947V32.0734Z" fill="#111111"/>
<path id="Vector_192" d="M21.2548 32.0734H20.0703V33.2503H21.2548V32.0734Z" fill="#111111"/>
<path id="Vector_193" d="M22.831 32.0734H21.6465V33.2503H22.831V32.0734Z" fill="#111111"/>
<path id="Vector_194" d="M27.5654 32.0734H26.3809V33.2503H27.5654V32.0734Z" fill="#111111"/>
<path id="Vector_195" d="M29.1455 32.0734H27.9609V33.2503H29.1455V32.0734Z" fill="#111111"/>
<path id="Vector_196" d="M30.7236 32.0734H29.5391V33.2503H30.7236V32.0734Z" fill="#111111"/>
<path id="Vector_197" d="M32.2998 32.0734H31.1152V33.2503H32.2998V32.0734Z" fill="#111111"/>
<path id="Vector_198" d="M33.8818 32.0734H32.6973V33.2503H33.8818V32.0734Z" fill="#111111"/>
<path id="Vector_199" d="M40.1943 32.0734H39.0098V33.2503H40.1943V32.0734Z" fill="#111111"/>
<path id="Vector_200" d="M14.9404 33.6418H13.7559V34.8187H14.9404V33.6418Z" fill="#111111"/>
<path id="Vector_201" d="M18.0947 33.6418H16.9102V34.8187H18.0947V33.6418Z" fill="#111111"/>
<path id="Vector_202" d="M22.831 33.6418H21.6465V34.8187H22.831V33.6418Z" fill="#111111"/>
<path id="Vector_203" d="M32.2998 33.6418H31.1152V34.8187H32.2998V33.6418Z" fill="#111111"/>
<path id="Vector_204" d="M37.038 33.6418H35.8535V34.8187H37.038V33.6418Z" fill="#111111"/>
<path id="Vector_205" d="M16.5166 35.2102H15.332V36.3871H16.5166V35.2102Z" fill="#111111"/>
<path id="Vector_206" d="M21.2548 35.2102H20.0703V36.3871H21.2548V35.2102Z" fill="#111111"/>
<path id="Vector_207" d="M22.831 35.2102H21.6465V36.3871H22.831V35.2102Z" fill="#111111"/>
<path id="Vector_208" d="M27.5654 35.2102H26.3809V36.3871H27.5654V35.2102Z" fill="#111111"/>
<path id="Vector_209" d="M29.1455 35.2102H27.9609V36.3871H29.1455V35.2102Z" fill="#111111"/>
<path id="Vector_210" d="M33.8818 35.2102H32.6973V36.3871H33.8818V35.2102Z" fill="#111111"/>
<path id="Vector_211" d="M35.4599 35.2102H34.2754V36.3871H35.4599V35.2102Z" fill="#111111"/>
<path id="Vector_212" d="M37.038 35.2102H35.8535V36.3871H37.038V35.2102Z" fill="#111111"/>
<path id="Vector_213" d="M40.1943 35.2102H39.0098V36.3871H40.1943V35.2102Z" fill="#111111"/>
<path id="Vector_214" d="M14.9404 36.7785H13.7559V37.9554H14.9404V36.7785Z" fill="#111111"/>
<path id="Vector_215" d="M16.5166 36.7785H15.332V37.9554H16.5166V36.7785Z" fill="#111111"/>
<path id="Vector_216" d="M18.0947 36.7785H16.9102V37.9554H18.0947V36.7785Z" fill="#111111"/>
<path id="Vector_217" d="M21.2548 36.7785H20.0703V37.9554H21.2548V36.7785Z" fill="#111111"/>
<path id="Vector_218" d="M22.831 36.7785H21.6465V37.9554H22.831V36.7785Z" fill="#111111"/>
<path id="Vector_219" d="M25.9892 36.7785H24.8047V37.9554H25.9892V36.7785Z" fill="#111111"/>
<path id="Vector_220" d="M27.5654 36.7785H26.3809V37.9554H27.5654V36.7785Z" fill="#111111"/>
<path id="Vector_221" d="M35.4599 36.7785H34.2754V37.9554H35.4599V36.7785Z" fill="#111111"/>
<path id="Vector_222" d="M16.5166 38.3466H15.332V39.5235H16.5166V38.3466Z" fill="#111111"/>
<path id="Vector_223" d="M18.0947 38.3466H16.9102V39.5235H18.0947V38.3466Z" fill="#111111"/>
<path id="Vector_224" d="M19.6767 38.3466H18.4922V39.5235H19.6767V38.3466Z" fill="#111111"/>
<path id="Vector_225" d="M21.2548 38.3466H20.0703V39.5235H21.2548V38.3466Z" fill="#111111"/>
<path id="Vector_226" d="M22.831 38.3466H21.6465V39.5235H22.831V38.3466Z" fill="#111111"/>
<path id="Vector_227" d="M25.9892 38.3466H24.8047V39.5235H25.9892V38.3466Z" fill="#111111"/>
<path id="Vector_228" d="M27.5654 38.3466H26.3809V39.5235H27.5654V38.3466Z" fill="#111111"/>
<path id="Vector_229" d="M32.2998 38.3466H31.1152V39.5235H32.2998V38.3466Z" fill="#111111"/>
<path id="Vector_230" d="M38.6181 38.3466H37.4336V39.5235H38.6181V38.3466Z" fill="#111111"/>
<path id="Vector_231" d="M40.1943 38.3466H39.0098V39.5235H40.1943V38.3466Z" fill="#111111"/>
</g>
<g id="Group_3">
<path id="Vector_232" d="M11.1898 1.29332H1.71875V10.7032H11.1898V1.29332Z" stroke="#111111" stroke-width="1.97511"/>
<path id="Vector_233" d="M8.82145 3.64563H4.08594V8.35058H8.82145V3.64563Z" fill="#111111"/>
<path id="Vector_234" d="M39.6077 1.29332H30.1367V10.7032H39.6077V1.29332Z" stroke="#111111" stroke-width="1.97511"/>
<path id="Vector_235" d="M37.2375 3.64563H32.502V8.35058H37.2375V3.64563Z" fill="#111111"/>
<path id="Vector_236" d="M11.1898 29.5273H1.71875V38.9372H11.1898V29.5273Z" stroke="#111111" stroke-width="1.97511"/>
<path id="Vector_237" d="M8.82145 31.8799H4.08594V36.5849H8.82145V31.8799Z" fill="#111111"/>
</g>
</g>
</svg>
