<svg width="56" height="66" viewBox="0 0 56 66" fill="none" xmlns="http://www.w3.org/2000/svg">
<path id="Vector" fill-rule="evenodd" clip-rule="evenodd" d="M6.6019 0.541073C3.16827 0.541073 0.384766 3.30249 0.384766 6.70887L0.384766 59.4434C0.384766 62.85 3.16827 65.6113 6.6019 65.6113H48.8265C52.2604 65.6113 55.0437 62.85 55.0437 59.4434V6.70887C55.0437 3.30249 52.2604 0.541073 48.8265 0.541073L6.6019 0.541073ZM6.76558 2.75938C4.47649 2.75938 2.62081 4.60032 2.62081 6.87125L2.62081 48.4362C2.62081 50.707 4.47649 52.548 6.76558 52.548H48.6631C50.952 52.548 52.8077 50.707 52.8077 48.4362V6.87125C52.8077 4.60032 50.952 2.75938 48.6631 2.75938L6.76558 2.75938Z" fill="#111111"/>
</svg>
