<svg xmlns="http://www.w3.org/2000/svg" width="105" height="105" viewBox="0 0 105 105" fill="none">
  <g filter="url(#filter0_d_5356_10365)">
    <path d="M2 8.69803C2 5.10945 4.90912 2.20032 8.49771 2.20032H95.6024C99.191 2.20032 102.1 5.10944 102.1 8.69803V95.8028C102.1 99.3913 99.191 102.3 95.6024 102.3H8.49772C4.90913 102.3 2 99.3913 2 95.8028V8.69803Z" fill="white"/>
    <path d="M2.40611 8.69803C2.40611 5.33373 5.13341 2.60642 8.49771 2.60642H95.6024C98.9667 2.60642 101.694 5.33373 101.694 8.69803V95.8028C101.694 99.1671 98.9667 101.894 95.6024 101.894H8.49772C5.13342 101.894 2.40611 99.1671 2.40611 95.8028V8.69803Z" stroke="#FF5F5F" stroke-width="0.812214"/>
    <path d="M40.2649 11.1344H37.0059V14.3934H40.2649V11.1344Z" fill="#111111"/>
    <path d="M46.7825 11.1344H43.5234V14.3934H46.7825V11.1344Z" fill="#111111"/>
    <path d="M50.0403 11.1344H46.7812V14.3934H50.0403V11.1344Z" fill="#111111"/>
    <path d="M59.8196 11.1344H56.5605V14.3934H59.8196V11.1344Z" fill="#111111"/>
    <path d="M63.0754 11.1344H59.8164V14.3934H63.0754V11.1344Z" fill="#111111"/>
    <path d="M46.7825 14.3936H43.5234V17.6526H46.7825V14.3936Z" fill="#111111"/>
    <path d="M50.0403 14.3936H46.7812V17.6526H50.0403V14.3936Z" fill="#111111"/>
    <path d="M56.5598 14.3936H53.3008V17.6526H56.5598V14.3936Z" fill="#111111"/>
    <path d="M63.0754 14.3936H59.8164V17.6526H63.0754V14.3936Z" fill="#111111"/>
    <path d="M66.3352 14.3936H63.0762V17.6526H66.3352V14.3936Z" fill="#111111"/>
    <path d="M40.2649 17.6523H37.0059V20.9114H40.2649V17.6523Z" fill="#111111"/>
    <path d="M53.302 17.6523H50.043V20.9114H53.302V17.6523Z" fill="#111111"/>
    <path d="M59.8196 17.6523H56.5605V20.9114H59.8196V17.6523Z" fill="#111111"/>
    <path d="M63.0754 17.6523H59.8164V20.9114H63.0754V17.6523Z" fill="#111111"/>
    <path d="M40.2649 20.9115H37.0059V24.1705H40.2649V20.9115Z" fill="#111111"/>
    <path d="M50.0403 20.9115H46.7812V24.1705H50.0403V20.9115Z" fill="#111111"/>
    <path d="M59.8196 20.9115H56.5605V24.1705H59.8196V20.9115Z" fill="#111111"/>
    <path d="M43.5227 24.1704H40.2637V27.4294H43.5227V24.1704Z" fill="#111111"/>
    <path d="M53.302 24.1704H50.043V27.4294H53.302V24.1704Z" fill="#111111"/>
    <path d="M59.8196 24.1704H56.5605V27.4294H59.8196V24.1704Z" fill="#111111"/>
    <path d="M63.0754 24.1704H59.8164V27.4294H63.0754V24.1704Z" fill="#111111"/>
    <path d="M40.2649 27.4296H37.0059V30.6886H40.2649V27.4296Z" fill="#111111"/>
    <path d="M43.5227 27.4296H40.2637V30.6886H43.5227V27.4296Z" fill="#111111"/>
    <path d="M50.0403 27.4296H46.7812V30.6886H50.0403V27.4296Z" fill="#111111"/>
    <path d="M63.0754 27.4296H59.8164V30.6886H63.0754V27.4296Z" fill="#111111"/>
    <path d="M66.3352 27.4296H63.0762V30.6886H66.3352V27.4296Z" fill="#111111"/>
    <path d="M40.2649 30.6884H37.0059V33.9474H40.2649V30.6884Z" fill="#111111"/>
    <path d="M46.7825 30.6884H43.5234V33.9474H46.7825V30.6884Z" fill="#111111"/>
    <path d="M53.302 30.6884H50.043V33.9474H53.302V30.6884Z" fill="#111111"/>
    <path d="M59.8196 30.6884H56.5605V33.9474H59.8196V30.6884Z" fill="#111111"/>
    <path d="M66.3352 30.6884H63.0762V33.9474H66.3352V30.6884Z" fill="#111111"/>
    <path d="M40.2649 33.9478H37.0059V37.2068H40.2649V33.9478Z" fill="#111111"/>
    <path d="M46.7825 33.9478H43.5234V37.2068H46.7825V33.9478Z" fill="#111111"/>
    <path d="M50.0403 33.9478H46.7812V37.2068H50.0403V33.9478Z" fill="#111111"/>
    <path d="M59.8196 33.9478H56.5605V37.2068H59.8196V33.9478Z" fill="#111111"/>
    <path d="M66.3352 33.9478H63.0762V37.2068H66.3352V33.9478Z" fill="#111111"/>
    <path d="M17.4524 37.2067H14.1934V40.4657H17.4524V37.2067Z" fill="#111111"/>
    <path d="M23.97 37.2067H20.7109V40.4657H23.97V37.2067Z" fill="#111111"/>
    <path d="M30.4875 37.2067H27.2285V40.4657H30.4875V37.2067Z" fill="#111111"/>
    <path d="M33.7493 37.2067H30.4902V40.4657H33.7493V37.2067Z" fill="#111111"/>
    <path d="M37.0051 37.2067H33.7461V40.4657H37.0051V37.2067Z" fill="#111111"/>
    <path d="M40.2649 37.2067H37.0059V40.4657H40.2649V37.2067Z" fill="#111111"/>
    <path d="M46.7825 37.2067H43.5234V40.4657H46.7825V37.2067Z" fill="#111111"/>
    <path d="M50.0403 37.2067H46.7812V40.4657H50.0403V37.2067Z" fill="#111111"/>
    <path d="M53.302 37.2067H50.043V40.4657H53.302V37.2067Z" fill="#111111"/>
    <path d="M56.5598 37.2067H53.3008V40.4657H56.5598V37.2067Z" fill="#111111"/>
    <path d="M59.8196 37.2067H56.5605V40.4657H59.8196V37.2067Z" fill="#111111"/>
    <path d="M66.3352 37.2067H63.0762V40.4657H66.3352V37.2067Z" fill="#111111"/>
    <path d="M69.595 37.2067H66.3359V40.4657H69.595V37.2067Z" fill="#111111"/>
    <path d="M72.8567 37.2067H69.5977V40.4657H72.8567V37.2067Z" fill="#111111"/>
    <path d="M76.1164 37.2067H72.8574V40.4657H76.1164V37.2067Z" fill="#111111"/>
    <path d="M82.6301 37.2067H79.3711V40.4657H82.6301V37.2067Z" fill="#111111"/>
    <path d="M85.8899 37.2067H82.6309V40.4657H85.8899V37.2067Z" fill="#111111"/>
    <path d="M92.4075 37.2067H89.1484V40.4657H92.4075V37.2067Z" fill="#111111"/>
    <path d="M14.1926 40.4657H10.9336V43.7247H14.1926V40.4657Z" fill="#111111"/>
    <path d="M17.4524 40.4657H14.1934V43.7247H17.4524V40.4657Z" fill="#111111"/>
    <path d="M20.7121 40.4657H17.4531V43.7247H20.7121V40.4657Z" fill="#111111"/>
    <path d="M23.97 40.4657H20.7109V43.7247H23.97V40.4657Z" fill="#111111"/>
    <path d="M43.5227 40.4657H40.2637V43.7247H43.5227V40.4657Z" fill="#111111"/>
    <path d="M53.302 40.4657H50.043V43.7247H53.302V40.4657Z" fill="#111111"/>
    <path d="M66.3352 40.4657H63.0762V43.7247H66.3352V40.4657Z" fill="#111111"/>
    <path d="M69.595 40.4657H66.3359V43.7247H69.595V40.4657Z" fill="#111111"/>
    <path d="M72.8567 40.4657H69.5977V43.7247H72.8567V40.4657Z" fill="#111111"/>
    <path d="M92.4075 40.4657H89.1484V43.7247H92.4075V40.4657Z" fill="#111111"/>
    <path d="M14.1926 43.7244H10.9336V46.9834H14.1926V43.7244Z" fill="#111111"/>
    <path d="M17.4524 43.7244H14.1934V46.9834H17.4524V43.7244Z" fill="#111111"/>
    <path d="M23.97 43.7244H20.7109V46.9834H23.97V43.7244Z" fill="#111111"/>
    <path d="M27.2278 43.7244H23.9688V46.9834H27.2278V43.7244Z" fill="#111111"/>
    <path d="M30.4875 43.7244H27.2285V46.9834H30.4875V43.7244Z" fill="#111111"/>
    <path d="M33.7493 43.7244H30.4902V46.9834H33.7493V43.7244Z" fill="#111111"/>
    <path d="M40.2649 43.7244H37.0059V46.9834H40.2649V43.7244Z" fill="#111111"/>
    <path d="M43.5227 43.7244H40.2637V46.9834H43.5227V43.7244Z" fill="#111111"/>
    <path d="M56.5598 43.7244H53.3008V46.9834H56.5598V43.7244Z" fill="#111111"/>
    <path d="M66.3352 43.7244H63.0762V46.9834H66.3352V43.7244Z" fill="#111111"/>
    <path d="M69.595 43.7244H66.3359V46.9834H69.595V43.7244Z" fill="#111111"/>
    <path d="M72.8567 43.7244H69.5977V46.9834H72.8567V43.7244Z" fill="#111111"/>
    <path d="M76.1164 43.7244H72.8574V46.9834H76.1164V43.7244Z" fill="#111111"/>
    <path d="M89.1516 43.7244H85.8926V46.9834H89.1516V43.7244Z" fill="#111111"/>
    <path d="M92.4075 43.7244H89.1484V46.9834H92.4075V43.7244Z" fill="#111111"/>
    <path d="M20.7121 46.984H17.4531V50.243H20.7121V46.984Z" fill="#111111"/>
    <path d="M23.97 46.984H20.7109V50.243H23.97V46.984Z" fill="#111111"/>
    <path d="M27.2278 46.984H23.9688V50.243H27.2278V46.984Z" fill="#111111"/>
    <path d="M30.4875 46.984H27.2285V50.243H30.4875V46.984Z" fill="#111111"/>
    <path d="M40.2649 46.984H37.0059V50.243H40.2649V46.984Z" fill="#111111"/>
    <path d="M50.0403 46.984H46.7812V50.243H50.0403V46.984Z" fill="#111111"/>
    <path d="M56.5598 46.984H53.3008V50.243H56.5598V46.984Z" fill="#111111"/>
    <path d="M63.0754 46.984H59.8164V50.243H63.0754V46.984Z" fill="#111111"/>
    <path d="M76.1164 46.984H72.8574V50.243H76.1164V46.984Z" fill="#111111"/>
    <path d="M79.3743 46.984H76.1152V50.243H79.3743V46.984Z" fill="#111111"/>
    <path d="M14.1926 50.2429H10.9336V53.5019H14.1926V50.2429Z" fill="#111111"/>
    <path d="M27.2278 50.2429H23.9688V53.5019H27.2278V50.2429Z" fill="#111111"/>
    <path d="M33.7493 50.2429H30.4902V53.5019H33.7493V50.2429Z" fill="#111111"/>
    <path d="M37.0051 50.2429H33.7461V53.5019H37.0051V50.2429Z" fill="#111111"/>
    <path d="M40.2649 50.2429H37.0059V53.5019H40.2649V50.2429Z" fill="#111111"/>
    <path d="M46.7825 50.2429H43.5234V53.5019H46.7825V50.2429Z" fill="#111111"/>
    <path d="M50.0403 50.2429H46.7812V53.5019H50.0403V50.2429Z" fill="#111111"/>
    <path d="M53.302 50.2429H50.043V53.5019H53.302V50.2429Z" fill="#111111"/>
    <path d="M59.8196 50.2429H56.5605V53.5019H59.8196V50.2429Z" fill="#111111"/>
    <path d="M63.0754 50.2429H59.8164V53.5019H63.0754V50.2429Z" fill="#111111"/>
    <path d="M66.3352 50.2429H63.0762V53.5019H66.3352V50.2429Z" fill="#111111"/>
    <path d="M69.595 50.2429H66.3359V53.5019H69.595V50.2429Z" fill="#111111"/>
    <path d="M72.8567 50.2429H69.5977V53.5019H72.8567V50.2429Z" fill="#111111"/>
    <path d="M76.1164 50.2429H72.8574V53.5019H76.1164V50.2429Z" fill="#111111"/>
    <path d="M82.6301 50.2429H79.3711V53.5019H82.6301V50.2429Z" fill="#111111"/>
    <path d="M89.1516 50.2429H85.8926V53.5019H89.1516V50.2429Z" fill="#111111"/>
    <path d="M92.4075 50.2429H89.1484V53.5019H92.4075V50.2429Z" fill="#111111"/>
    <path d="M17.4524 53.5015H14.1934V56.7605H17.4524V53.5015Z" fill="#111111"/>
    <path d="M23.97 53.5015H20.7109V56.7605H23.97V53.5015Z" fill="#111111"/>
    <path d="M27.2278 53.5015H23.9688V56.7605H27.2278V53.5015Z" fill="#111111"/>
    <path d="M30.4875 53.5015H27.2285V56.7605H30.4875V53.5015Z" fill="#111111"/>
    <path d="M43.5227 53.5015H40.2637V56.7605H43.5227V53.5015Z" fill="#111111"/>
    <path d="M46.7825 53.5015H43.5234V56.7605H46.7825V53.5015Z" fill="#111111"/>
    <path d="M50.0403 53.5015H46.7812V56.7605H50.0403V53.5015Z" fill="#111111"/>
    <path d="M56.5598 53.5015H53.3008V56.7605H56.5598V53.5015Z" fill="#111111"/>
    <path d="M69.595 53.5015H66.3359V56.7605H69.595V53.5015Z" fill="#111111"/>
    <path d="M72.8567 53.5015H69.5977V56.7605H72.8567V53.5015Z" fill="#111111"/>
    <path d="M76.1164 53.5015H72.8574V56.7605H76.1164V53.5015Z" fill="#111111"/>
    <path d="M82.6301 53.5015H79.3711V56.7605H82.6301V53.5015Z" fill="#111111"/>
    <path d="M85.8899 53.5015H82.6309V56.7605H85.8899V53.5015Z" fill="#111111"/>
    <path d="M92.4075 53.5015H89.1484V56.7605H92.4075V53.5015Z" fill="#111111"/>
    <path d="M14.1926 56.7606H10.9336V60.0196H14.1926V56.7606Z" fill="#111111"/>
    <path d="M23.97 56.7606H20.7109V60.0196H23.97V56.7606Z" fill="#111111"/>
    <path d="M27.2278 56.7606H23.9688V60.0196H27.2278V56.7606Z" fill="#111111"/>
    <path d="M30.4875 56.7606H27.2285V60.0196H30.4875V56.7606Z" fill="#111111"/>
    <path d="M33.7493 56.7606H30.4902V60.0196H33.7493V56.7606Z" fill="#111111"/>
    <path d="M37.0051 56.7606H33.7461V60.0196H37.0051V56.7606Z" fill="#111111"/>
    <path d="M46.7825 56.7606H43.5234V60.0196H46.7825V56.7606Z" fill="#111111"/>
    <path d="M50.0403 56.7606H46.7812V60.0196H50.0403V56.7606Z" fill="#111111"/>
    <path d="M56.5598 56.7606H53.3008V60.0196H56.5598V56.7606Z" fill="#111111"/>
    <path d="M59.8196 56.7606H56.5605V60.0196H59.8196V56.7606Z" fill="#111111"/>
    <path d="M66.3352 56.7606H63.0762V60.0196H66.3352V56.7606Z" fill="#111111"/>
    <path d="M72.8567 56.7606H69.5977V60.0196H72.8567V56.7606Z" fill="#111111"/>
    <path d="M76.1164 56.7606H72.8574V60.0196H76.1164V56.7606Z" fill="#111111"/>
    <path d="M79.3743 56.7606H76.1152V60.0196H79.3743V56.7606Z" fill="#111111"/>
    <path d="M85.8899 56.7606H82.6309V60.0196H85.8899V56.7606Z" fill="#111111"/>
    <path d="M92.4075 56.7606H89.1484V60.0196H92.4075V56.7606Z" fill="#111111"/>
    <path d="M17.4524 60.0198H14.1934V63.2788H17.4524V60.0198Z" fill="#111111"/>
    <path d="M23.97 60.0198H20.7109V63.2788H23.97V60.0198Z" fill="#111111"/>
    <path d="M30.4875 60.0198H27.2285V63.2788H30.4875V60.0198Z" fill="#111111"/>
    <path d="M37.0051 60.0198H33.7461V63.2788H37.0051V60.0198Z" fill="#111111"/>
    <path d="M40.2649 60.0198H37.0059V63.2788H40.2649V60.0198Z" fill="#111111"/>
    <path d="M53.302 60.0198H50.043V63.2788H53.302V60.0198Z" fill="#111111"/>
    <path d="M59.8196 60.0198H56.5605V63.2788H59.8196V60.0198Z" fill="#111111"/>
    <path d="M66.3352 60.0198H63.0762V63.2788H66.3352V60.0198Z" fill="#111111"/>
    <path d="M79.3743 60.0198H76.1152V63.2788H79.3743V60.0198Z" fill="#111111"/>
    <path d="M82.6301 60.0198H79.3711V63.2788H82.6301V60.0198Z" fill="#111111"/>
    <path d="M89.1516 60.0198H85.8926V63.2788H89.1516V60.0198Z" fill="#111111"/>
    <path d="M14.1926 63.2788H10.9336V66.5378H14.1926V63.2788Z" fill="#111111"/>
    <path d="M17.4524 63.2788H14.1934V66.5378H17.4524V63.2788Z" fill="#111111"/>
    <path d="M27.2278 63.2788H23.9688V66.5378H27.2278V63.2788Z" fill="#111111"/>
    <path d="M33.7493 63.2788H30.4902V66.5378H33.7493V63.2788Z" fill="#111111"/>
    <path d="M37.0051 63.2788H33.7461V66.5378H37.0051V63.2788Z" fill="#111111"/>
    <path d="M43.5227 63.2788H40.2637V66.5378H43.5227V63.2788Z" fill="#111111"/>
    <path d="M53.302 63.2788H50.043V66.5378H53.302V63.2788Z" fill="#111111"/>
    <path d="M56.5598 63.2788H53.3008V66.5378H56.5598V63.2788Z" fill="#111111"/>
    <path d="M66.3352 63.2788H63.0762V66.5378H66.3352V63.2788Z" fill="#111111"/>
    <path d="M69.595 63.2788H66.3359V66.5378H69.595V63.2788Z" fill="#111111"/>
    <path d="M72.8567 63.2788H69.5977V66.5378H72.8567V63.2788Z" fill="#111111"/>
    <path d="M76.1164 63.2788H72.8574V66.5378H76.1164V63.2788Z" fill="#111111"/>
    <path d="M79.3743 63.2788H76.1152V66.5378H79.3743V63.2788Z" fill="#111111"/>
    <path d="M82.6301 63.2788H79.3711V66.5378H82.6301V63.2788Z" fill="#111111"/>
    <path d="M85.8899 63.2788H82.6309V66.5378H85.8899V63.2788Z" fill="#111111"/>
    <path d="M40.2649 66.5375H37.0059V69.7965H40.2649V66.5375Z" fill="#111111"/>
    <path d="M43.5227 66.5375H40.2637V69.7965H43.5227V66.5375Z" fill="#111111"/>
    <path d="M56.5598 66.5375H53.3008V69.7965H56.5598V66.5375Z" fill="#111111"/>
    <path d="M63.0754 66.5375H59.8164V69.7965H63.0754V66.5375Z" fill="#111111"/>
    <path d="M66.3352 66.5375H63.0762V69.7965H66.3352V66.5375Z" fill="#111111"/>
    <path d="M79.3743 66.5375H76.1152V69.7965H79.3743V66.5375Z" fill="#111111"/>
    <path d="M82.6301 66.5375H79.3711V69.7965H82.6301V66.5375Z" fill="#111111"/>
    <path d="M85.8899 66.5375H82.6309V69.7965H85.8899V66.5375Z" fill="#111111"/>
    <path d="M92.4075 66.5375H89.1484V69.7965H92.4075V66.5375Z" fill="#111111"/>
    <path d="M40.2649 69.7966H37.0059V73.0556H40.2649V69.7966Z" fill="#111111"/>
    <path d="M50.0403 69.7966H46.7812V73.0556H50.0403V69.7966Z" fill="#111111"/>
    <path d="M56.5598 69.7966H53.3008V73.0556H56.5598V69.7966Z" fill="#111111"/>
    <path d="M63.0754 69.7966H59.8164V73.0556H63.0754V69.7966Z" fill="#111111"/>
    <path d="M66.3352 69.7966H63.0762V73.0556H66.3352V69.7966Z" fill="#111111"/>
    <path d="M72.8567 69.7966H69.5977V73.0556H72.8567V69.7966Z" fill="#111111"/>
    <path d="M79.3743 69.7966H76.1152V73.0556H79.3743V69.7966Z" fill="#111111"/>
    <path d="M89.1516 69.7966H85.8926V73.0556H89.1516V69.7966Z" fill="#111111"/>
    <path d="M92.4075 69.7966H89.1484V73.0556H92.4075V69.7966Z" fill="#111111"/>
    <path d="M40.2649 73.0557H37.0059V76.3147H40.2649V73.0557Z" fill="#111111"/>
    <path d="M46.7825 73.0557H43.5234V76.3147H46.7825V73.0557Z" fill="#111111"/>
    <path d="M53.302 73.0557H50.043V76.3147H53.302V73.0557Z" fill="#111111"/>
    <path d="M56.5598 73.0557H53.3008V76.3147H56.5598V73.0557Z" fill="#111111"/>
    <path d="M59.8196 73.0557H56.5605V76.3147H59.8196V73.0557Z" fill="#111111"/>
    <path d="M66.3352 73.0557H63.0762V76.3147H66.3352V73.0557Z" fill="#111111"/>
    <path d="M79.3743 73.0557H76.1152V76.3147H79.3743V73.0557Z" fill="#111111"/>
    <path d="M82.6301 73.0557H79.3711V76.3147H82.6301V73.0557Z" fill="#111111"/>
    <path d="M85.8899 73.0557H82.6309V76.3147H85.8899V73.0557Z" fill="#111111"/>
    <path d="M89.1516 73.0557H85.8926V76.3147H89.1516V73.0557Z" fill="#111111"/>
    <path d="M46.7825 76.3148H43.5234V79.5738H46.7825V76.3148Z" fill="#111111"/>
    <path d="M53.302 76.3148H50.043V79.5738H53.302V76.3148Z" fill="#111111"/>
    <path d="M56.5598 76.3148H53.3008V79.5738H56.5598V76.3148Z" fill="#111111"/>
    <path d="M66.3352 76.3148H63.0762V79.5738H66.3352V76.3148Z" fill="#111111"/>
    <path d="M69.595 76.3148H66.3359V79.5738H69.595V76.3148Z" fill="#111111"/>
    <path d="M72.8567 76.3148H69.5977V79.5738H72.8567V76.3148Z" fill="#111111"/>
    <path d="M76.1164 76.3148H72.8574V79.5738H76.1164V76.3148Z" fill="#111111"/>
    <path d="M79.3743 76.3148H76.1152V79.5738H79.3743V76.3148Z" fill="#111111"/>
    <path d="M92.4075 76.3148H89.1484V79.5738H92.4075V76.3148Z" fill="#111111"/>
    <path d="M40.2649 79.5742H37.0059V82.8332H40.2649V79.5742Z" fill="#111111"/>
    <path d="M46.7825 79.5742H43.5234V82.8332H46.7825V79.5742Z" fill="#111111"/>
    <path d="M56.5598 79.5742H53.3008V82.8332H56.5598V79.5742Z" fill="#111111"/>
    <path d="M76.1164 79.5742H72.8574V82.8332H76.1164V79.5742Z" fill="#111111"/>
    <path d="M85.8899 79.5742H82.6309V82.8332H85.8899V79.5742Z" fill="#111111"/>
    <path d="M43.5227 82.8329H40.2637V86.0919H43.5227V82.8329Z" fill="#111111"/>
    <path d="M53.302 82.8329H50.043V86.0919H53.302V82.8329Z" fill="#111111"/>
    <path d="M56.5598 82.8329H53.3008V86.0919H56.5598V82.8329Z" fill="#111111"/>
    <path d="M66.3352 82.8329H63.0762V86.0919H66.3352V82.8329Z" fill="#111111"/>
    <path d="M69.595 82.8329H66.3359V86.0919H69.595V82.8329Z" fill="#111111"/>
    <path d="M79.3743 82.8329H76.1152V86.0919H79.3743V82.8329Z" fill="#111111"/>
    <path d="M82.6301 82.8329H79.3711V86.0919H82.6301V82.8329Z" fill="#111111"/>
    <path d="M85.8899 82.8329H82.6309V86.0919H85.8899V82.8329Z" fill="#111111"/>
    <path d="M92.4075 82.8329H89.1484V86.0919H92.4075V82.8329Z" fill="#111111"/>
    <path d="M40.2649 86.0919H37.0059V89.3509H40.2649V86.0919Z" fill="#111111"/>
    <path d="M43.5227 86.0919H40.2637V89.3509H43.5227V86.0919Z" fill="#111111"/>
    <path d="M46.7825 86.0919H43.5234V89.3509H46.7825V86.0919Z" fill="#111111"/>
    <path d="M53.302 86.0919H50.043V89.3509H53.302V86.0919Z" fill="#111111"/>
    <path d="M56.5598 86.0919H53.3008V89.3509H56.5598V86.0919Z" fill="#111111"/>
    <path d="M63.0754 86.0919H59.8164V89.3509H63.0754V86.0919Z" fill="#111111"/>
    <path d="M66.3352 86.0919H63.0762V89.3509H66.3352V86.0919Z" fill="#111111"/>
    <path d="M82.6301 86.0919H79.3711V89.3509H82.6301V86.0919Z" fill="#111111"/>
    <path d="M43.5227 89.3508H40.2637V92.6099H43.5227V89.3508Z" fill="#111111"/>
    <path d="M46.7825 89.3508H43.5234V92.6099H46.7825V89.3508Z" fill="#111111"/>
    <path d="M50.0403 89.3508H46.7812V92.6099H50.0403V89.3508Z" fill="#111111"/>
    <path d="M53.302 89.3508H50.043V92.6099H53.302V89.3508Z" fill="#111111"/>
    <path d="M56.5598 89.3508H53.3008V92.6099H56.5598V89.3508Z" fill="#111111"/>
    <path d="M63.0754 89.3508H59.8164V92.6099H63.0754V89.3508Z" fill="#111111"/>
    <path d="M66.3352 89.3508H63.0762V92.6099H66.3352V89.3508Z" fill="#111111"/>
    <path d="M76.1164 89.3508H72.8574V92.6099H76.1164V89.3508Z" fill="#111111"/>
    <path d="M89.1516 89.3508H85.8926V92.6099H89.1516V89.3508Z" fill="#111111"/>
    <path d="M92.4075 89.3508H89.1484V92.6099H92.4075V89.3508Z" fill="#111111"/>
    <path d="M32.1127 12.76H12.5586V32.3141H32.1127V12.76Z" stroke="#111111" stroke-width="3.63964"/>
    <path d="M27.2243 17.6488H17.4473V27.4259H27.2243V17.6488Z" fill="#111111"/>
    <path d="M90.7846 12.76H71.2305V32.3141H90.7846V12.76Z" stroke="#111111" stroke-width="3.63964"/>
    <path d="M85.8923 17.6488H76.1152V27.4259H85.8923V17.6488Z" fill="#111111"/>
    <path d="M32.1127 71.4305H12.5586V90.9847H32.1127V71.4305Z" stroke="#111111" stroke-width="3.63964"/>
    <path d="M27.2243 76.3196H17.4473V86.0966H27.2243V76.3196Z" fill="#111111"/>
  </g>
  <defs>
    <filter id="filter0_d_5356_10365" x="0" y="0.200317" width="104.1" height="104.1" filterUnits="userSpaceOnUse" color-interpolation-filters="sRGB">
      <feFlood flood-opacity="0" result="BackgroundImageFix"/>
      <feColorMatrix in="SourceAlpha" type="matrix" values="0 0 0 0 0 0 0 0 0 0 0 0 0 0 0 0 0 0 127 0" result="hardAlpha"/>
      <feMorphology radius="2" operator="dilate" in="SourceAlpha" result="effect1_dropShadow_5356_10365"/>
      <feOffset/>
      <feComposite in2="hardAlpha" operator="out"/>
      <feColorMatrix type="matrix" values="0 0 0 0 1 0 0 0 0 0.372549 0 0 0 0 0.372549 0 0 0 0.24 0"/>
      <feBlend mode="normal" in2="BackgroundImageFix" result="effect1_dropShadow_5356_10365"/>
      <feBlend mode="normal" in="SourceGraphic" in2="effect1_dropShadow_5356_10365" result="shape"/>
    </filter>
  </defs>
</svg>