<svg width="80" height="81" viewBox="0 0 80 81" fill="none" xmlns="http://www.w3.org/2000/svg">
<g id="Template 14">
<rect y="0.400635" width="80" height="80" rx="40" fill="white"/>
<rect x="0.5" y="0.900635" width="79" height="79" rx="39.5" stroke="#1A1A1A" stroke-opacity="0.1"/>
<path id="Vector" d="M40.6774 72.2486C57.6707 72.2486 71.4466 58.2938 71.4466 41.0798C71.4466 23.8658 57.6707 9.91103 40.6774 9.91103C23.684 9.91103 9.9082 23.8658 9.9082 41.0798C9.9082 58.2938 23.684 72.2486 40.6774 72.2486Z" fill="white"/>
<path id="Vector_2" fill-rule="evenodd" clip-rule="evenodd" d="M39.8793 72.2486C57.7553 72.2486 72.2469 57.9359 72.2469 40.2806C72.2469 22.6252 57.7553 8.31263 39.8793 8.31263C22.0032 8.31263 7.51172 22.6252 7.51172 40.2806C7.51172 57.9359 22.0032 72.2486 39.8793 72.2486ZM20.4588 19.3561C19.4837 19.3561 18.6932 20.1368 18.6932 21.0998V59.4614C18.6932 60.4245 19.4837 61.2051 20.4588 61.2051H59.2998C60.275 61.2051 61.0653 60.4245 61.0653 59.4614V21.0998C61.0653 20.1368 60.275 19.3561 59.2998 19.3561H20.4588Z" fill="#111111"/>
<g id="Group">
<g id="Group_2">
<path id="Vector_3" d="M34.8327 21.9357H33.3555V23.4129H34.8327V21.9357Z" fill="#111111"/>
<path id="Vector_4" d="M37.7878 21.9357H36.3105V23.4129H37.7878V21.9357Z" fill="#111111"/>
<path id="Vector_5" d="M39.2643 21.9357H37.7871V23.4129H39.2643V21.9357Z" fill="#111111"/>
<path id="Vector_6" d="M43.694 21.9357H42.2168V23.4129H43.694V21.9357Z" fill="#111111"/>
<path id="Vector_7" d="M45.1725 21.9357H43.6953V23.4129H45.1725V21.9357Z" fill="#111111"/>
<path id="Vector_8" d="M37.7878 23.4132H36.3105V24.8904H37.7878V23.4132Z" fill="#111111"/>
<path id="Vector_9" d="M39.2643 23.4132H37.7871V24.8904H39.2643V23.4132Z" fill="#111111"/>
<path id="Vector_10" d="M42.2194 23.4132H40.7422V24.8904H42.2194V23.4132Z" fill="#111111"/>
<path id="Vector_11" d="M45.1725 23.4132H43.6953V24.8904H45.1725V23.4132Z" fill="#111111"/>
<path id="Vector_12" d="M46.653 23.4132H45.1758V24.8904H46.653V23.4132Z" fill="#111111"/>
<path id="Vector_13" d="M34.8327 24.8905H33.3555V26.3677H34.8327V24.8905Z" fill="#111111"/>
<path id="Vector_14" d="M40.739 24.8905H39.2617V26.3677H40.739V24.8905Z" fill="#111111"/>
<path id="Vector_15" d="M43.694 24.8905H42.2168V26.3677H43.694V24.8905Z" fill="#111111"/>
<path id="Vector_16" d="M45.1725 24.8905H43.6953V26.3677H45.1725V24.8905Z" fill="#111111"/>
<path id="Vector_17" d="M34.8327 26.3672H33.3555V27.8444H34.8327V26.3672Z" fill="#111111"/>
<path id="Vector_18" d="M39.2643 26.3672H37.7871V27.8444H39.2643V26.3672Z" fill="#111111"/>
<path id="Vector_19" d="M43.694 26.3672H42.2168V27.8444H43.694V26.3672Z" fill="#111111"/>
<path id="Vector_20" d="M36.3093 27.8448H34.832V29.322H36.3093V27.8448Z" fill="#111111"/>
<path id="Vector_21" d="M40.739 27.8448H39.2617V29.322H40.739V27.8448Z" fill="#111111"/>
<path id="Vector_22" d="M43.694 27.8448H42.2168V29.322H43.694V27.8448Z" fill="#111111"/>
<path id="Vector_23" d="M45.1725 27.8448H43.6953V29.322H45.1725V27.8448Z" fill="#111111"/>
<path id="Vector_24" d="M34.8327 29.3218H33.3555V30.799H34.8327V29.3218Z" fill="#111111"/>
<path id="Vector_25" d="M36.3093 29.3218H34.832V30.799H36.3093V29.3218Z" fill="#111111"/>
<path id="Vector_26" d="M39.2643 29.3218H37.7871V30.799H39.2643V29.3218Z" fill="#111111"/>
<path id="Vector_27" d="M45.1725 29.3218H43.6953V30.799H45.1725V29.3218Z" fill="#111111"/>
<path id="Vector_28" d="M46.653 29.3218H45.1758V30.799H46.653V29.3218Z" fill="#111111"/>
<path id="Vector_29" d="M34.8327 30.7993H33.3555V32.2765H34.8327V30.7993Z" fill="#111111"/>
<path id="Vector_30" d="M37.7878 30.7993H36.3105V32.2765H37.7878V30.7993Z" fill="#111111"/>
<path id="Vector_31" d="M40.739 30.7993H39.2617V32.2765H40.739V30.7993Z" fill="#111111"/>
<path id="Vector_32" d="M43.694 30.7993H42.2168V32.2765H43.694V30.7993Z" fill="#111111"/>
<path id="Vector_33" d="M46.653 30.7993H45.1758V32.2765H46.653V30.7993Z" fill="#111111"/>
<path id="Vector_34" d="M34.8327 32.2763H33.3555V33.7535H34.8327V32.2763Z" fill="#111111"/>
<path id="Vector_35" d="M37.7878 32.2763H36.3105V33.7535H37.7878V32.2763Z" fill="#111111"/>
<path id="Vector_36" d="M39.2643 32.2763H37.7871V33.7535H39.2643V32.2763Z" fill="#111111"/>
<path id="Vector_37" d="M43.694 32.2763H42.2168V33.7535H43.694V32.2763Z" fill="#111111"/>
<path id="Vector_38" d="M46.653 32.2763H45.1758V33.7535H46.653V32.2763Z" fill="#111111"/>
<path id="Vector_39" d="M24.4909 33.7536H23.0137V35.2308H24.4909V33.7536Z" fill="#111111"/>
<path id="Vector_40" d="M27.446 33.7536H25.9688V35.2308H27.446V33.7536Z" fill="#111111"/>
<path id="Vector_41" d="M30.3991 33.7536H28.9219V35.2308H30.3991V33.7536Z" fill="#111111"/>
<path id="Vector_42" d="M31.8776 33.7536H30.4004V35.2308H31.8776V33.7536Z" fill="#111111"/>
<path id="Vector_43" d="M33.3561 33.7536H31.8789V35.2308H33.3561V33.7536Z" fill="#111111"/>
<path id="Vector_44" d="M34.8327 33.7536H33.3555V35.2308H34.8327V33.7536Z" fill="#111111"/>
<path id="Vector_45" d="M37.7878 33.7536H36.3105V35.2308H37.7878V33.7536Z" fill="#111111"/>
<path id="Vector_46" d="M39.2643 33.7536H37.7871V35.2308H39.2643V33.7536Z" fill="#111111"/>
<path id="Vector_47" d="M40.739 33.7536H39.2617V35.2308H40.739V33.7536Z" fill="#111111"/>
<path id="Vector_48" d="M42.2194 33.7536H40.7422V35.2308H42.2194V33.7536Z" fill="#111111"/>
<path id="Vector_49" d="M43.694 33.7536H42.2168V35.2308H43.694V33.7536Z" fill="#111111"/>
<path id="Vector_50" d="M46.653 33.7536H45.1758V35.2308H46.653V33.7536Z" fill="#111111"/>
<path id="Vector_51" d="M48.1276 33.7536H46.6504V35.2308H48.1276V33.7536Z" fill="#111111"/>
<path id="Vector_52" d="M49.6042 33.7536H48.127V35.2308H49.6042V33.7536Z" fill="#111111"/>
<path id="Vector_53" d="M51.0827 33.7536H49.6055V35.2308H51.0827V33.7536Z" fill="#111111"/>
<path id="Vector_54" d="M54.0378 33.7536H52.5605V35.2308H54.0378V33.7536Z" fill="#111111"/>
<path id="Vector_55" d="M55.5124 33.7536H54.0352V35.2308H55.5124V33.7536Z" fill="#111111"/>
<path id="Vector_56" d="M58.4675 33.7536H56.9902V35.2308H58.4675V33.7536Z" fill="#111111"/>
<path id="Vector_57" d="M23.0143 35.2308H21.5371V36.708H23.0143V35.2308Z" fill="#111111"/>
<path id="Vector_58" d="M24.4909 35.2308H23.0137V36.708H24.4909V35.2308Z" fill="#111111"/>
<path id="Vector_59" d="M25.9694 35.2308H24.4922V36.708H25.9694V35.2308Z" fill="#111111"/>
<path id="Vector_60" d="M27.446 35.2308H25.9688V36.708H27.446V35.2308Z" fill="#111111"/>
<path id="Vector_61" d="M36.3093 35.2308H34.832V36.708H36.3093V35.2308Z" fill="#111111"/>
<path id="Vector_62" d="M40.739 35.2308H39.2617V36.708H40.739V35.2308Z" fill="#111111"/>
<path id="Vector_63" d="M46.653 35.2308H45.1758V36.708H46.653V35.2308Z" fill="#111111"/>
<path id="Vector_64" d="M48.1276 35.2308H46.6504V36.708H48.1276V35.2308Z" fill="#111111"/>
<path id="Vector_65" d="M49.6042 35.2308H48.127V36.708H49.6042V35.2308Z" fill="#111111"/>
<path id="Vector_66" d="M58.4675 35.2308H56.9902V36.708H58.4675V35.2308Z" fill="#111111"/>
<path id="Vector_67" d="M23.0143 36.7081H21.5371V38.1853H23.0143V36.7081Z" fill="#111111"/>
<path id="Vector_68" d="M24.4909 36.7081H23.0137V38.1853H24.4909V36.7081Z" fill="#111111"/>
<path id="Vector_69" d="M27.446 36.7081H25.9688V38.1853H27.446V36.7081Z" fill="#111111"/>
<path id="Vector_70" d="M28.9225 36.7081H27.4453V38.1853H28.9225V36.7081Z" fill="#111111"/>
<path id="Vector_71" d="M30.3991 36.7081H28.9219V38.1853H30.3991V36.7081Z" fill="#111111"/>
<path id="Vector_72" d="M31.8776 36.7081H30.4004V38.1853H31.8776V36.7081Z" fill="#111111"/>
<path id="Vector_73" d="M34.8327 36.7081H33.3555V38.1853H34.8327V36.7081Z" fill="#111111"/>
<path id="Vector_74" d="M36.3093 36.7081H34.832V38.1853H36.3093V36.7081Z" fill="#111111"/>
<path id="Vector_75" d="M42.2194 36.7081H40.7422V38.1853H42.2194V36.7081Z" fill="#111111"/>
<path id="Vector_76" d="M46.653 36.7081H45.1758V38.1853H46.653V36.7081Z" fill="#111111"/>
<path id="Vector_77" d="M48.1276 36.7081H46.6504V38.1853H48.1276V36.7081Z" fill="#111111"/>
<path id="Vector_78" d="M49.6042 36.7081H48.127V38.1853H49.6042V36.7081Z" fill="#111111"/>
<path id="Vector_79" d="M51.0827 36.7081H49.6055V38.1853H51.0827V36.7081Z" fill="#111111"/>
<path id="Vector_80" d="M56.9909 36.7081H55.5137V38.1853H56.9909V36.7081Z" fill="#111111"/>
<path id="Vector_81" d="M58.4675 36.7081H56.9902V38.1853H58.4675V36.7081Z" fill="#111111"/>
<path id="Vector_82" d="M25.9694 38.1854H24.4922V39.6626H25.9694V38.1854Z" fill="#111111"/>
<path id="Vector_83" d="M27.446 38.1854H25.9688V39.6626H27.446V38.1854Z" fill="#111111"/>
<path id="Vector_84" d="M28.9225 38.1854H27.4453V39.6626H28.9225V38.1854Z" fill="#111111"/>
<path id="Vector_85" d="M30.3991 38.1854H28.9219V39.6626H30.3991V38.1854Z" fill="#111111"/>
<path id="Vector_86" d="M34.8327 38.1854H33.3555V39.6626H34.8327V38.1854Z" fill="#111111"/>
<path id="Vector_87" d="M39.2643 38.1854H37.7871V39.6626H39.2643V38.1854Z" fill="#111111"/>
<path id="Vector_88" d="M42.2194 38.1854H40.7422V39.6626H42.2194V38.1854Z" fill="#111111"/>
<path id="Vector_89" d="M45.1725 38.1854H43.6953V39.6626H45.1725V38.1854Z" fill="#111111"/>
<path id="Vector_90" d="M51.0827 38.1854H49.6055V39.6626H51.0827V38.1854Z" fill="#111111"/>
<path id="Vector_91" d="M52.5573 38.1854H51.0801V39.6626H52.5573V38.1854Z" fill="#111111"/>
<path id="Vector_92" d="M23.0143 39.6626H21.5371V41.1398H23.0143V39.6626Z" fill="#111111"/>
<path id="Vector_93" d="M28.9225 39.6626H27.4453V41.1398H28.9225V39.6626Z" fill="#111111"/>
<path id="Vector_94" d="M31.8776 39.6626H30.4004V41.1398H31.8776V39.6626Z" fill="#111111"/>
<path id="Vector_95" d="M33.3561 39.6626H31.8789V41.1398H33.3561V39.6626Z" fill="#111111"/>
<path id="Vector_96" d="M34.8327 39.6626H33.3555V41.1398H34.8327V39.6626Z" fill="#111111"/>
<path id="Vector_97" d="M37.7878 39.6626H36.3105V41.1398H37.7878V39.6626Z" fill="#111111"/>
<path id="Vector_98" d="M39.2643 39.6626H37.7871V41.1398H39.2643V39.6626Z" fill="#111111"/>
<path id="Vector_99" d="M40.739 39.6626H39.2617V41.1398H40.739V39.6626Z" fill="#111111"/>
<path id="Vector_100" d="M43.694 39.6626H42.2168V41.1398H43.694V39.6626Z" fill="#111111"/>
<path id="Vector_101" d="M45.1725 39.6626H43.6953V41.1398H45.1725V39.6626Z" fill="#111111"/>
<path id="Vector_102" d="M46.653 39.6626H45.1758V41.1398H46.653V39.6626Z" fill="#111111"/>
<path id="Vector_103" d="M48.1276 39.6626H46.6504V41.1398H48.1276V39.6626Z" fill="#111111"/>
<path id="Vector_104" d="M49.6042 39.6626H48.127V41.1398H49.6042V39.6626Z" fill="#111111"/>
<path id="Vector_105" d="M51.0827 39.6626H49.6055V41.1398H51.0827V39.6626Z" fill="#111111"/>
<path id="Vector_106" d="M54.0378 39.6626H52.5605V41.1398H54.0378V39.6626Z" fill="#111111"/>
<path id="Vector_107" d="M56.9909 39.6626H55.5137V41.1398H56.9909V39.6626Z" fill="#111111"/>
<path id="Vector_108" d="M58.4675 39.6626H56.9902V41.1398H58.4675V39.6626Z" fill="#111111"/>
<path id="Vector_109" d="M24.4909 41.1397H23.0137V42.617H24.4909V41.1397Z" fill="#111111"/>
<path id="Vector_110" d="M27.446 41.1397H25.9688V42.617H27.446V41.1397Z" fill="#111111"/>
<path id="Vector_111" d="M28.9225 41.1397H27.4453V42.617H28.9225V41.1397Z" fill="#111111"/>
<path id="Vector_112" d="M30.3991 41.1397H28.9219V42.617H30.3991V41.1397Z" fill="#111111"/>
<path id="Vector_113" d="M36.3093 41.1397H34.832V42.617H36.3093V41.1397Z" fill="#111111"/>
<path id="Vector_114" d="M37.7878 41.1397H36.3105V42.617H37.7878V41.1397Z" fill="#111111"/>
<path id="Vector_115" d="M39.2643 41.1397H37.7871V42.617H39.2643V41.1397Z" fill="#111111"/>
<path id="Vector_116" d="M42.2194 41.1397H40.7422V42.617H42.2194V41.1397Z" fill="#111111"/>
<path id="Vector_117" d="M48.1276 41.1397H46.6504V42.617H48.1276V41.1397Z" fill="#111111"/>
<path id="Vector_118" d="M49.6042 41.1397H48.127V42.617H49.6042V41.1397Z" fill="#111111"/>
<path id="Vector_119" d="M51.0827 41.1397H49.6055V42.617H51.0827V41.1397Z" fill="#111111"/>
<path id="Vector_120" d="M54.0378 41.1397H52.5605V42.617H54.0378V41.1397Z" fill="#111111"/>
<path id="Vector_121" d="M55.5124 41.1397H54.0352V42.617H55.5124V41.1397Z" fill="#111111"/>
<path id="Vector_122" d="M58.4675 41.1397H56.9902V42.617H58.4675V41.1397Z" fill="#111111"/>
<path id="Vector_123" d="M23.0143 42.6169H21.5371V44.0941H23.0143V42.6169Z" fill="#111111"/>
<path id="Vector_124" d="M27.446 42.6169H25.9688V44.0941H27.446V42.6169Z" fill="#111111"/>
<path id="Vector_125" d="M28.9225 42.6169H27.4453V44.0941H28.9225V42.6169Z" fill="#111111"/>
<path id="Vector_126" d="M30.3991 42.6169H28.9219V44.0941H30.3991V42.6169Z" fill="#111111"/>
<path id="Vector_127" d="M31.8776 42.6169H30.4004V44.0941H31.8776V42.6169Z" fill="#111111"/>
<path id="Vector_128" d="M33.3561 42.6169H31.8789V44.0941H33.3561V42.6169Z" fill="#111111"/>
<path id="Vector_129" d="M37.7878 42.6169H36.3105V44.0941H37.7878V42.6169Z" fill="#111111"/>
<path id="Vector_130" d="M39.2643 42.6169H37.7871V44.0941H39.2643V42.6169Z" fill="#111111"/>
<path id="Vector_131" d="M42.2194 42.6169H40.7422V44.0941H42.2194V42.6169Z" fill="#111111"/>
<path id="Vector_132" d="M43.694 42.6169H42.2168V44.0941H43.694V42.6169Z" fill="#111111"/>
<path id="Vector_133" d="M46.653 42.6169H45.1758V44.0941H46.653V42.6169Z" fill="#111111"/>
<path id="Vector_134" d="M49.6042 42.6169H48.127V44.0941H49.6042V42.6169Z" fill="#111111"/>
<path id="Vector_135" d="M51.0827 42.6169H49.6055V44.0941H51.0827V42.6169Z" fill="#111111"/>
<path id="Vector_136" d="M52.5573 42.6169H51.0801V44.0941H52.5573V42.6169Z" fill="#111111"/>
<path id="Vector_137" d="M55.5124 42.6169H54.0352V44.0941H55.5124V42.6169Z" fill="#111111"/>
<path id="Vector_138" d="M58.4675 42.6169H56.9902V44.0941H58.4675V42.6169Z" fill="#111111"/>
<path id="Vector_139" d="M24.4909 44.0944H23.0137V45.5716H24.4909V44.0944Z" fill="#111111"/>
<path id="Vector_140" d="M27.446 44.0944H25.9688V45.5716H27.446V44.0944Z" fill="#111111"/>
<path id="Vector_141" d="M30.3991 44.0944H28.9219V45.5716H30.3991V44.0944Z" fill="#111111"/>
<path id="Vector_142" d="M33.3561 44.0944H31.8789V45.5716H33.3561V44.0944Z" fill="#111111"/>
<path id="Vector_143" d="M34.8327 44.0944H33.3555V45.5716H34.8327V44.0944Z" fill="#111111"/>
<path id="Vector_144" d="M40.739 44.0944H39.2617V45.5716H40.739V44.0944Z" fill="#111111"/>
<path id="Vector_145" d="M43.694 44.0944H42.2168V45.5716H43.694V44.0944Z" fill="#111111"/>
<path id="Vector_146" d="M46.653 44.0944H45.1758V45.5716H46.653V44.0944Z" fill="#111111"/>
<path id="Vector_147" d="M52.5573 44.0944H51.0801V45.5716H52.5573V44.0944Z" fill="#111111"/>
<path id="Vector_148" d="M54.0378 44.0944H52.5605V45.5716H54.0378V44.0944Z" fill="#111111"/>
<path id="Vector_149" d="M56.9909 44.0944H55.5137V45.5716H56.9909V44.0944Z" fill="#111111"/>
<path id="Vector_150" d="M23.0143 45.5712H21.5371V47.0485H23.0143V45.5712Z" fill="#111111"/>
<path id="Vector_151" d="M24.4909 45.5712H23.0137V47.0485H24.4909V45.5712Z" fill="#111111"/>
<path id="Vector_152" d="M28.9225 45.5712H27.4453V47.0485H28.9225V45.5712Z" fill="#111111"/>
<path id="Vector_153" d="M31.8776 45.5712H30.4004V47.0485H31.8776V45.5712Z" fill="#111111"/>
<path id="Vector_154" d="M33.3561 45.5712H31.8789V47.0485H33.3561V45.5712Z" fill="#111111"/>
<path id="Vector_155" d="M36.3093 45.5712H34.832V47.0485H36.3093V45.5712Z" fill="#111111"/>
<path id="Vector_156" d="M40.739 45.5712H39.2617V47.0485H40.739V45.5712Z" fill="#111111"/>
<path id="Vector_157" d="M42.2194 45.5712H40.7422V47.0485H42.2194V45.5712Z" fill="#111111"/>
<path id="Vector_158" d="M46.653 45.5712H45.1758V47.0485H46.653V45.5712Z" fill="#111111"/>
<path id="Vector_159" d="M48.1276 45.5712H46.6504V47.0485H48.1276V45.5712Z" fill="#111111"/>
<path id="Vector_160" d="M49.6042 45.5712H48.127V47.0485H49.6042V45.5712Z" fill="#111111"/>
<path id="Vector_161" d="M51.0827 45.5712H49.6055V47.0485H51.0827V45.5712Z" fill="#111111"/>
<path id="Vector_162" d="M52.5573 45.5712H51.0801V47.0485H52.5573V45.5712Z" fill="#111111"/>
<path id="Vector_163" d="M54.0378 45.5712H52.5605V47.0485H54.0378V45.5712Z" fill="#111111"/>
<path id="Vector_164" d="M55.5124 45.5712H54.0352V47.0485H55.5124V45.5712Z" fill="#111111"/>
<path id="Vector_165" d="M34.8327 47.0487H33.3555V48.5259H34.8327V47.0487Z" fill="#111111"/>
<path id="Vector_166" d="M36.3093 47.0487H34.832V48.5259H36.3093V47.0487Z" fill="#111111"/>
<path id="Vector_167" d="M42.2194 47.0487H40.7422V48.5259H42.2194V47.0487Z" fill="#111111"/>
<path id="Vector_168" d="M45.1725 47.0487H43.6953V48.5259H45.1725V47.0487Z" fill="#111111"/>
<path id="Vector_169" d="M46.653 47.0487H45.1758V48.5259H46.653V47.0487Z" fill="#111111"/>
<path id="Vector_170" d="M52.5573 47.0487H51.0801V48.5259H52.5573V47.0487Z" fill="#111111"/>
<path id="Vector_171" d="M54.0378 47.0487H52.5605V48.5259H54.0378V47.0487Z" fill="#111111"/>
<path id="Vector_172" d="M55.5124 47.0487H54.0352V48.5259H55.5124V47.0487Z" fill="#111111"/>
<path id="Vector_173" d="M58.4675 47.0487H56.9902V48.5259H58.4675V47.0487Z" fill="#111111"/>
<path id="Vector_174" d="M34.8327 48.526H33.3555V50.0033H34.8327V48.526Z" fill="#111111"/>
<path id="Vector_175" d="M39.2643 48.526H37.7871V50.0033H39.2643V48.526Z" fill="#111111"/>
<path id="Vector_176" d="M42.2194 48.526H40.7422V50.0033H42.2194V48.526Z" fill="#111111"/>
<path id="Vector_177" d="M45.1725 48.526H43.6953V50.0033H45.1725V48.526Z" fill="#111111"/>
<path id="Vector_178" d="M46.653 48.526H45.1758V50.0033H46.653V48.526Z" fill="#111111"/>
<path id="Vector_179" d="M49.6042 48.526H48.127V50.0033H49.6042V48.526Z" fill="#111111"/>
<path id="Vector_180" d="M52.5573 48.526H51.0801V50.0033H52.5573V48.526Z" fill="#111111"/>
<path id="Vector_181" d="M56.9909 48.526H55.5137V50.0033H56.9909V48.526Z" fill="#111111"/>
<path id="Vector_182" d="M58.4675 48.526H56.9902V50.0033H58.4675V48.526Z" fill="#111111"/>
<path id="Vector_183" d="M34.8327 50.003H33.3555V51.4803H34.8327V50.003Z" fill="#111111"/>
<path id="Vector_184" d="M37.7878 50.003H36.3105V51.4803H37.7878V50.003Z" fill="#111111"/>
<path id="Vector_185" d="M40.739 50.003H39.2617V51.4803H40.739V50.003Z" fill="#111111"/>
<path id="Vector_186" d="M42.2194 50.003H40.7422V51.4803H42.2194V50.003Z" fill="#111111"/>
<path id="Vector_187" d="M43.694 50.003H42.2168V51.4803H43.694V50.003Z" fill="#111111"/>
<path id="Vector_188" d="M46.653 50.003H45.1758V51.4803H46.653V50.003Z" fill="#111111"/>
<path id="Vector_189" d="M52.5573 50.003H51.0801V51.4803H52.5573V50.003Z" fill="#111111"/>
<path id="Vector_190" d="M54.0378 50.003H52.5605V51.4803H54.0378V50.003Z" fill="#111111"/>
<path id="Vector_191" d="M55.5124 50.003H54.0352V51.4803H55.5124V50.003Z" fill="#111111"/>
<path id="Vector_192" d="M56.9909 50.003H55.5137V51.4803H56.9909V50.003Z" fill="#111111"/>
<path id="Vector_193" d="M37.7878 51.4805H36.3105V52.9577H37.7878V51.4805Z" fill="#111111"/>
<path id="Vector_194" d="M40.739 51.4805H39.2617V52.9577H40.739V51.4805Z" fill="#111111"/>
<path id="Vector_195" d="M42.2194 51.4805H40.7422V52.9577H42.2194V51.4805Z" fill="#111111"/>
<path id="Vector_196" d="M46.653 51.4805H45.1758V52.9577H46.653V51.4805Z" fill="#111111"/>
<path id="Vector_197" d="M48.1276 51.4805H46.6504V52.9577H48.1276V51.4805Z" fill="#111111"/>
<path id="Vector_198" d="M49.6042 51.4805H48.127V52.9577H49.6042V51.4805Z" fill="#111111"/>
<path id="Vector_199" d="M51.0827 51.4805H49.6055V52.9577H51.0827V51.4805Z" fill="#111111"/>
<path id="Vector_200" d="M52.5573 51.4805H51.0801V52.9577H52.5573V51.4805Z" fill="#111111"/>
<path id="Vector_201" d="M58.4675 51.4805H56.9902V52.9577H58.4675V51.4805Z" fill="#111111"/>
<path id="Vector_202" d="M34.8327 52.9575H33.3555V54.4347H34.8327V52.9575Z" fill="#111111"/>
<path id="Vector_203" d="M37.7878 52.9575H36.3105V54.4347H37.7878V52.9575Z" fill="#111111"/>
<path id="Vector_204" d="M42.2194 52.9575H40.7422V54.4347H42.2194V52.9575Z" fill="#111111"/>
<path id="Vector_205" d="M51.0827 52.9575H49.6055V54.4347H51.0827V52.9575Z" fill="#111111"/>
<path id="Vector_206" d="M55.5124 52.9575H54.0352V54.4347H55.5124V52.9575Z" fill="#111111"/>
<path id="Vector_207" d="M36.3093 54.4348H34.832V55.9121H36.3093V54.4348Z" fill="#111111"/>
<path id="Vector_208" d="M40.739 54.4348H39.2617V55.9121H40.739V54.4348Z" fill="#111111"/>
<path id="Vector_209" d="M42.2194 54.4348H40.7422V55.9121H42.2194V54.4348Z" fill="#111111"/>
<path id="Vector_210" d="M46.653 54.4348H45.1758V55.9121H46.653V54.4348Z" fill="#111111"/>
<path id="Vector_211" d="M48.1276 54.4348H46.6504V55.9121H48.1276V54.4348Z" fill="#111111"/>
<path id="Vector_212" d="M52.5573 54.4348H51.0801V55.9121H52.5573V54.4348Z" fill="#111111"/>
<path id="Vector_213" d="M54.0378 54.4348H52.5605V55.9121H54.0378V54.4348Z" fill="#111111"/>
<path id="Vector_214" d="M55.5124 54.4348H54.0352V55.9121H55.5124V54.4348Z" fill="#111111"/>
<path id="Vector_215" d="M58.4675 54.4348H56.9902V55.9121H58.4675V54.4348Z" fill="#111111"/>
<path id="Vector_216" d="M34.8327 55.9123H33.3555V57.3895H34.8327V55.9123Z" fill="#111111"/>
<path id="Vector_217" d="M36.3093 55.9123H34.832V57.3895H36.3093V55.9123Z" fill="#111111"/>
<path id="Vector_218" d="M37.7878 55.9123H36.3105V57.3895H37.7878V55.9123Z" fill="#111111"/>
<path id="Vector_219" d="M40.739 55.9123H39.2617V57.3895H40.739V55.9123Z" fill="#111111"/>
<path id="Vector_220" d="M42.2194 55.9123H40.7422V57.3895H42.2194V55.9123Z" fill="#111111"/>
<path id="Vector_221" d="M45.1725 55.9123H43.6953V57.3895H45.1725V55.9123Z" fill="#111111"/>
<path id="Vector_222" d="M46.653 55.9123H45.1758V57.3895H46.653V55.9123Z" fill="#111111"/>
<path id="Vector_223" d="M54.0378 55.9123H52.5605V57.3895H54.0378V55.9123Z" fill="#111111"/>
<path id="Vector_224" d="M36.3093 57.3895H34.832V58.8667H36.3093V57.3895Z" fill="#111111"/>
<path id="Vector_225" d="M37.7878 57.3895H36.3105V58.8667H37.7878V57.3895Z" fill="#111111"/>
<path id="Vector_226" d="M39.2643 57.3895H37.7871V58.8667H39.2643V57.3895Z" fill="#111111"/>
<path id="Vector_227" d="M40.739 57.3895H39.2617V58.8667H40.739V57.3895Z" fill="#111111"/>
<path id="Vector_228" d="M42.2194 57.3895H40.7422V58.8667H42.2194V57.3895Z" fill="#111111"/>
<path id="Vector_229" d="M45.1725 57.3895H43.6953V58.8667H45.1725V57.3895Z" fill="#111111"/>
<path id="Vector_230" d="M46.653 57.3895H45.1758V58.8667H46.653V57.3895Z" fill="#111111"/>
<path id="Vector_231" d="M51.0827 57.3895H49.6055V58.8667H51.0827V57.3895Z" fill="#111111"/>
<path id="Vector_232" d="M56.9909 57.3895H55.5137V58.8667H56.9909V57.3895Z" fill="#111111"/>
<path id="Vector_233" d="M58.4675 57.3895H56.9902V58.8667H58.4675V57.3895Z" fill="#111111"/>
</g>
<g id="Group_3">
<path id="Vector_234" d="M31.1369 22.6711H22.2734V31.5345H31.1369V22.6711Z" stroke="#111111" stroke-width="2.29284"/>
<path id="Vector_235" d="M28.92 24.8868H24.4883V29.3185H28.92V24.8868Z" fill="#111111"/>
<path id="Vector_236" d="M57.7345 22.6711H48.8711V31.5345H57.7345V22.6711Z" stroke="#111111" stroke-width="2.29284"/>
<path id="Vector_237" d="M55.5176 24.8868H51.0859V29.3185H55.5176V24.8868Z" fill="#111111"/>
<path id="Vector_238" d="M31.1369 49.2671H22.2734V58.1305H31.1369V49.2671Z" stroke="#111111" stroke-width="2.29284"/>
<path id="Vector_239" d="M28.92 51.4829H24.4883V55.9146H28.92V51.4829Z" fill="#111111"/>
</g>
</g>
</g>
</svg>
