<svg width="80" height="81" viewBox="0 0 80 81" fill="none" xmlns="http://www.w3.org/2000/svg">
<g id="Template 3">
<path d="M0 6.89835C0 3.30976 2.90912 0.400635 6.49771 0.400635H73.5023C77.0909 0.400635 80 3.30976 80 6.89834V73.9029C80 77.4915 77.0909 80.4006 73.5023 80.4006H6.49771C2.90913 80.4006 0 77.4915 0 73.9029V6.89835Z" fill="white"/>
<path d="M0.406107 6.89835C0.406107 3.53405 3.13341 0.806742 6.49771 0.806742H73.5023C76.8666 0.806742 79.5939 3.53404 79.5939 6.89834V73.9029C79.5939 77.2672 76.8666 79.9945 73.5023 79.9945H6.49771C3.13341 79.9945 0.406107 77.2672 0.406107 73.9029V6.89835Z" stroke="#1A1A1A" stroke-opacity="0.1" stroke-width="0.812214"/>
<g id="Group">
<g id="Group_2">
<path id="Vector" d="M30.0559 8.33724C30.0559 7.89735 29.6993 7.54074 29.2594 7.54074C28.8195 7.54074 28.4629 7.89735 28.4629 8.33724C28.4629 8.77713 28.8195 9.13373 29.2594 9.13373C29.6993 9.13373 30.0559 8.77713 30.0559 8.33724Z" fill="#111111"/>
<path id="Vector_2" d="M35.3645 8.33724C35.3645 7.89735 35.0079 7.54074 34.568 7.54074C34.1281 7.54074 33.7715 7.89735 33.7715 8.33724C33.7715 8.77713 34.1281 9.13373 34.568 9.13373C35.0079 9.13373 35.3645 8.77713 35.3645 8.33724Z" fill="#111111"/>
<path id="Vector_3" d="M38.0207 8.33724C38.0207 7.89735 37.6641 7.54074 37.2242 7.54074C36.7843 7.54074 36.4277 7.89735 36.4277 8.33724C36.4277 8.77713 36.7843 9.13373 37.2242 9.13373C37.6641 9.13373 38.0207 8.77713 38.0207 8.33724Z" fill="#111111"/>
<path id="Vector_4" d="M45.9856 8.33724C45.9856 7.89735 45.629 7.54074 45.1891 7.54074C44.7492 7.54074 44.3926 7.89735 44.3926 8.33724C44.3926 8.77713 44.7492 9.13373 45.1891 9.13373C45.629 9.13373 45.9856 8.77713 45.9856 8.33724Z" fill="#111111"/>
<path id="Vector_5" d="M48.6399 8.33724C48.6399 7.89735 48.2833 7.54074 47.8434 7.54074C47.4035 7.54074 47.0469 7.89735 47.0469 8.33724C47.0469 8.77713 47.4035 9.13373 47.8434 9.13373C48.2833 9.13373 48.6399 8.77713 48.6399 8.33724Z" fill="#111111"/>
<path id="Vector_6" d="M35.3645 10.992C35.3645 10.5521 35.0079 10.1955 34.568 10.1955C34.1281 10.1955 33.7715 10.5521 33.7715 10.992C33.7715 11.4319 34.1281 11.7885 34.568 11.7885C35.0079 11.7885 35.3645 11.4319 35.3645 10.992Z" fill="#111111"/>
<path id="Vector_7" d="M38.0207 10.992C38.0207 10.5521 37.6641 10.1955 37.2242 10.1955C36.7843 10.1955 36.4277 10.5521 36.4277 10.992C36.4277 11.4319 36.7843 11.7885 37.2242 11.7885C37.6641 11.7885 38.0207 11.4319 38.0207 10.992Z" fill="#111111"/>
<path id="Vector_8" d="M43.3293 10.992C43.3293 10.5521 42.9727 10.1955 42.5328 10.1955C42.0929 10.1955 41.7363 10.5521 41.7363 10.992C41.7363 11.4319 42.0929 11.7885 42.5328 11.7885C42.9727 11.7885 43.3293 11.4319 43.3293 10.992Z" fill="#111111"/>
<path id="Vector_9" d="M48.6399 10.992C48.6399 10.5521 48.2833 10.1955 47.8434 10.1955C47.4035 10.1955 47.0469 10.5521 47.0469 10.992C47.0469 11.4319 47.4035 11.7885 47.8434 11.7885C48.2833 11.7885 48.6399 11.4319 48.6399 10.992Z" fill="#111111"/>
<path id="Vector_10" d="M51.2942 10.992C51.2942 10.5521 50.9376 10.1955 50.4977 10.1955C50.0578 10.1955 49.7012 10.5521 49.7012 10.992C49.7012 11.4319 50.0578 11.7885 50.4977 11.7885C50.9376 11.7885 51.2942 11.4319 51.2942 10.992Z" fill="#111111"/>
<path id="Vector_11" d="M30.0559 13.6471C30.0559 13.2072 29.6993 12.8506 29.2594 12.8506C28.8195 12.8506 28.4629 13.2072 28.4629 13.6471C28.4629 14.087 28.8195 14.4436 29.2594 14.4436C29.6993 14.4436 30.0559 14.087 30.0559 13.6471Z" fill="#111111"/>
<path id="Vector_12" d="M40.677 13.6471C40.677 13.2072 40.3204 12.8506 39.8805 12.8506C39.4406 12.8506 39.084 13.2072 39.084 13.6471C39.084 14.087 39.4406 14.4436 39.8805 14.4436C40.3204 14.4436 40.677 14.087 40.677 13.6471Z" fill="#111111"/>
<path id="Vector_13" d="M45.9856 13.6471C45.9856 13.2072 45.629 12.8506 45.1891 12.8506C44.7492 12.8506 44.3926 13.2072 44.3926 13.6471C44.3926 14.087 44.7492 14.4436 45.1891 14.4436C45.629 14.4436 45.9856 14.087 45.9856 13.6471Z" fill="#111111"/>
<path id="Vector_14" d="M48.6399 13.6471C48.6399 13.2072 48.2833 12.8506 47.8434 12.8506C47.4035 12.8506 47.0469 13.2072 47.0469 13.6471C47.0469 14.087 47.4035 14.4436 47.8434 14.4436C48.2833 14.4436 48.6399 14.087 48.6399 13.6471Z" fill="#111111"/>
<path id="Vector_15" d="M30.0559 16.3019C30.0559 15.862 29.6993 15.5054 29.2594 15.5054C28.8195 15.5054 28.4629 15.862 28.4629 16.3019C28.4629 16.7418 28.8195 17.0984 29.2594 17.0984C29.6993 17.0984 30.0559 16.7418 30.0559 16.3019Z" fill="#111111"/>
<path id="Vector_16" d="M38.0207 16.3019C38.0207 15.862 37.6641 15.5054 37.2242 15.5054C36.7843 15.5054 36.4277 15.862 36.4277 16.3019C36.4277 16.7418 36.7843 17.0984 37.2242 17.0984C37.6641 17.0984 38.0207 16.7418 38.0207 16.3019Z" fill="#111111"/>
<path id="Vector_17" d="M45.9856 16.3019C45.9856 15.862 45.629 15.5054 45.1891 15.5054C44.7492 15.5054 44.3926 15.862 44.3926 16.3019C44.3926 16.7418 44.7492 17.0984 45.1891 17.0984C45.629 17.0984 45.9856 16.7418 45.9856 16.3019Z" fill="#111111"/>
<path id="Vector_18" d="M32.7082 18.957C32.7082 18.5171 32.3516 18.1605 31.9117 18.1605C31.4718 18.1605 31.1152 18.5171 31.1152 18.957C31.1152 19.3969 31.4718 19.7535 31.9117 19.7535C32.3516 19.7535 32.7082 19.3969 32.7082 18.957Z" fill="#111111"/>
<path id="Vector_19" d="M40.677 18.957C40.677 18.5171 40.3204 18.1605 39.8805 18.1605C39.4406 18.1605 39.084 18.5171 39.084 18.957C39.084 19.3969 39.4406 19.7535 39.8805 19.7535C40.3204 19.7535 40.677 19.3969 40.677 18.957Z" fill="#111111"/>
<path id="Vector_20" d="M45.9856 18.957C45.9856 18.5171 45.629 18.1605 45.1891 18.1605C44.7492 18.1605 44.3926 18.5171 44.3926 18.957C44.3926 19.3969 44.7492 19.7535 45.1891 19.7535C45.629 19.7535 45.9856 19.3969 45.9856 18.957Z" fill="#111111"/>
<path id="Vector_21" d="M48.6399 18.957C48.6399 18.5171 48.2833 18.1605 47.8434 18.1605C47.4035 18.1605 47.0469 18.5171 47.0469 18.957C47.0469 19.3969 47.4035 19.7535 47.8434 19.7535C48.2833 19.7535 48.6399 19.3969 48.6399 18.957Z" fill="#111111"/>
<path id="Vector_22" d="M30.0559 21.6118C30.0559 21.1719 29.6993 20.8153 29.2594 20.8153C28.8195 20.8153 28.4629 21.1719 28.4629 21.6118C28.4629 22.0517 28.8195 22.4083 29.2594 22.4083C29.6993 22.4083 30.0559 22.0517 30.0559 21.6118Z" fill="#111111"/>
<path id="Vector_23" d="M32.7082 21.6118C32.7082 21.1719 32.3516 20.8153 31.9117 20.8153C31.4718 20.8153 31.1152 21.1719 31.1152 21.6118C31.1152 22.0517 31.4718 22.4083 31.9117 22.4083C32.3516 22.4083 32.7082 22.0517 32.7082 21.6118Z" fill="#111111"/>
<path id="Vector_24" d="M38.0207 21.6118C38.0207 21.1719 37.6641 20.8153 37.2242 20.8153C36.7843 20.8153 36.4277 21.1719 36.4277 21.6118C36.4277 22.0517 36.7843 22.4083 37.2242 22.4083C37.6641 22.4083 38.0207 22.0517 38.0207 21.6118Z" fill="#111111"/>
<path id="Vector_25" d="M48.6399 21.6118C48.6399 21.1719 48.2833 20.8153 47.8434 20.8153C47.4035 20.8153 47.0469 21.1719 47.0469 21.6118C47.0469 22.0517 47.4035 22.4083 47.8434 22.4083C48.2833 22.4083 48.6399 22.0517 48.6399 21.6118Z" fill="#111111"/>
<path id="Vector_26" d="M51.2942 21.6118C51.2942 21.1719 50.9376 20.8153 50.4977 20.8153C50.0578 20.8153 49.7012 21.1719 49.7012 21.6118C49.7012 22.0517 50.0578 22.4083 50.4977 22.4083C50.9376 22.4083 51.2942 22.0517 51.2942 21.6118Z" fill="#111111"/>
<path id="Vector_27" d="M30.0559 24.2673C30.0559 23.8274 29.6993 23.4708 29.2594 23.4708C28.8195 23.4708 28.4629 23.8274 28.4629 24.2673C28.4629 24.7072 28.8195 25.0638 29.2594 25.0638C29.6993 25.0638 30.0559 24.7072 30.0559 24.2673Z" fill="#111111"/>
<path id="Vector_28" d="M35.3645 24.2673C35.3645 23.8274 35.0079 23.4708 34.568 23.4708C34.1281 23.4708 33.7715 23.8274 33.7715 24.2673C33.7715 24.7072 34.1281 25.0638 34.568 25.0638C35.0079 25.0638 35.3645 24.7072 35.3645 24.2673Z" fill="#111111"/>
<path id="Vector_29" d="M40.677 24.2673C40.677 23.8274 40.3204 23.4708 39.8805 23.4708C39.4406 23.4708 39.084 23.8274 39.084 24.2673C39.084 24.7072 39.4406 25.0638 39.8805 25.0638C40.3204 25.0638 40.677 24.7072 40.677 24.2673Z" fill="#111111"/>
<path id="Vector_30" d="M45.9856 24.2673C45.9856 23.8274 45.629 23.4708 45.1891 23.4708C44.7492 23.4708 44.3926 23.8274 44.3926 24.2673C44.3926 24.7072 44.7492 25.0638 45.1891 25.0638C45.629 25.0638 45.9856 24.7072 45.9856 24.2673Z" fill="#111111"/>
<path id="Vector_31" d="M51.2942 24.2673C51.2942 23.8274 50.9376 23.4708 50.4977 23.4708C50.0578 23.4708 49.7012 23.8274 49.7012 24.2673C49.7012 24.7072 50.0578 25.0638 50.4977 25.0638C50.9376 25.0638 51.2942 24.7072 51.2942 24.2673Z" fill="#111111"/>
<path id="Vector_32" d="M30.0559 26.9219C30.0559 26.482 29.6993 26.1254 29.2594 26.1254C28.8195 26.1254 28.4629 26.482 28.4629 26.9219C28.4629 27.3618 28.8195 27.7184 29.2594 27.7184C29.6993 27.7184 30.0559 27.3618 30.0559 26.9219Z" fill="#111111"/>
<path id="Vector_33" d="M35.3645 26.9219C35.3645 26.482 35.0079 26.1254 34.568 26.1254C34.1281 26.1254 33.7715 26.482 33.7715 26.9219C33.7715 27.3618 34.1281 27.7184 34.568 27.7184C35.0079 27.7184 35.3645 27.3618 35.3645 26.9219Z" fill="#111111"/>
<path id="Vector_34" d="M38.0207 26.9219C38.0207 26.482 37.6641 26.1254 37.2242 26.1254C36.7843 26.1254 36.4277 26.482 36.4277 26.9219C36.4277 27.3618 36.7843 27.7184 37.2242 27.7184C37.6641 27.7184 38.0207 27.3618 38.0207 26.9219Z" fill="#111111"/>
<path id="Vector_35" d="M45.9856 26.9219C45.9856 26.482 45.629 26.1254 45.1891 26.1254C44.7492 26.1254 44.3926 26.482 44.3926 26.9219C44.3926 27.3618 44.7492 27.7184 45.1891 27.7184C45.629 27.7184 45.9856 27.3618 45.9856 26.9219Z" fill="#111111"/>
<path id="Vector_36" d="M51.2942 26.9219C51.2942 26.482 50.9376 26.1254 50.4977 26.1254C50.0578 26.1254 49.7012 26.482 49.7012 26.9219C49.7012 27.3618 50.0578 27.7184 50.4977 27.7184C50.9376 27.7184 51.2942 27.3618 51.2942 26.9219Z" fill="#111111"/>
<path id="Vector_37" d="M11.4719 29.5772C11.4719 29.1373 11.1153 28.7807 10.6754 28.7807C10.2355 28.7807 9.87891 29.1373 9.87891 29.5772C9.87891 30.0171 10.2355 30.3737 10.6754 30.3737C11.1153 30.3737 11.4719 30.0171 11.4719 29.5772Z" fill="#111111"/>
<path id="Vector_38" d="M16.7785 29.5772C16.7785 29.1373 16.4219 28.7807 15.982 28.7807C15.5421 28.7807 15.1855 29.1373 15.1855 29.5772C15.1855 30.0171 15.5421 30.3737 15.982 30.3737C16.4219 30.3737 16.7785 30.0171 16.7785 29.5772Z" fill="#111111"/>
<path id="Vector_39" d="M22.091 29.5772C22.091 29.1373 21.7344 28.7807 21.2945 28.7807C20.8546 28.7807 20.498 29.1373 20.498 29.5772C20.498 30.0171 20.8546 30.3737 21.2945 30.3737C21.7344 30.3737 22.091 30.0171 22.091 29.5772Z" fill="#111111"/>
<path id="Vector_40" d="M24.7453 29.5772C24.7453 29.1373 24.3887 28.7807 23.9488 28.7807C23.5089 28.7807 23.1523 29.1373 23.1523 29.5772C23.1523 30.0171 23.5089 30.3737 23.9488 30.3737C24.3887 30.3737 24.7453 30.0171 24.7453 29.5772Z" fill="#111111"/>
<path id="Vector_41" d="M27.4016 29.5772C27.4016 29.1373 27.045 28.7807 26.6051 28.7807C26.1652 28.7807 25.8086 29.1373 25.8086 29.5772C25.8086 30.0171 26.1652 30.3737 26.6051 30.3737C27.045 30.3737 27.4016 30.0171 27.4016 29.5772Z" fill="#111111"/>
<path id="Vector_42" d="M30.0559 29.5772C30.0559 29.1373 29.6993 28.7807 29.2594 28.7807C28.8195 28.7807 28.4629 29.1373 28.4629 29.5772C28.4629 30.0171 28.8195 30.3737 29.2594 30.3737C29.6993 30.3737 30.0559 30.0171 30.0559 29.5772Z" fill="#111111"/>
<path id="Vector_43" d="M35.3645 29.5772C35.3645 29.1373 35.0079 28.7807 34.568 28.7807C34.1281 28.7807 33.7715 29.1373 33.7715 29.5772C33.7715 30.0171 34.1281 30.3737 34.568 30.3737C35.0079 30.3737 35.3645 30.0171 35.3645 29.5772Z" fill="#111111"/>
<path id="Vector_44" d="M38.0207 29.5772C38.0207 29.1373 37.6641 28.7807 37.2242 28.7807C36.7843 28.7807 36.4277 29.1373 36.4277 29.5772C36.4277 30.0171 36.7843 30.3737 37.2242 30.3737C37.6641 30.3737 38.0207 30.0171 38.0207 29.5772Z" fill="#111111"/>
<path id="Vector_45" d="M40.677 29.5772C40.677 29.1373 40.3204 28.7807 39.8805 28.7807C39.4406 28.7807 39.084 29.1373 39.084 29.5772C39.084 30.0171 39.4406 30.3737 39.8805 30.3737C40.3204 30.3737 40.677 30.0171 40.677 29.5772Z" fill="#111111"/>
<path id="Vector_46" d="M43.3293 29.5772C43.3293 29.1373 42.9727 28.7807 42.5328 28.7807C42.0929 28.7807 41.7363 29.1373 41.7363 29.5772C41.7363 30.0171 42.0929 30.3737 42.5328 30.3737C42.9727 30.3737 43.3293 30.0171 43.3293 29.5772Z" fill="#111111"/>
<path id="Vector_47" d="M45.9856 29.5772C45.9856 29.1373 45.629 28.7807 45.1891 28.7807C44.7492 28.7807 44.3926 29.1373 44.3926 29.5772C44.3926 30.0171 44.7492 30.3737 45.1891 30.3737C45.629 30.3737 45.9856 30.0171 45.9856 29.5772Z" fill="#111111"/>
<path id="Vector_48" d="M51.2942 29.5772C51.2942 29.1373 50.9376 28.7807 50.4977 28.7807C50.0578 28.7807 49.7012 29.1373 49.7012 29.5772C49.7012 30.0171 50.0578 30.3737 50.4977 30.3737C50.9376 30.3737 51.2942 30.0171 51.2942 29.5772Z" fill="#111111"/>
<path id="Vector_49" d="M53.9485 29.5772C53.9485 29.1373 53.5919 28.7807 53.152 28.7807C52.7121 28.7807 52.3555 29.1373 52.3555 29.5772C52.3555 30.0171 52.7121 30.3737 53.152 30.3737C53.5919 30.3737 53.9485 30.0171 53.9485 29.5772Z" fill="#111111"/>
<path id="Vector_50" d="M56.6047 29.5772C56.6047 29.1373 56.2481 28.7807 55.8082 28.7807C55.3683 28.7807 55.0117 29.1373 55.0117 29.5772C55.0117 30.0171 55.3683 30.3737 55.8082 30.3737C56.2481 30.3737 56.6047 30.0171 56.6047 29.5772Z" fill="#111111"/>
<path id="Vector_51" d="M59.259 29.5772C59.259 29.1373 58.9024 28.7807 58.4625 28.7807C58.0226 28.7807 57.666 29.1373 57.666 29.5772C57.666 30.0171 58.0226 30.3737 58.4625 30.3737C58.9024 30.3737 59.259 30.0171 59.259 29.5772Z" fill="#111111"/>
<path id="Vector_52" d="M64.5715 29.5772C64.5715 29.1373 64.2149 28.7807 63.775 28.7807C63.3351 28.7807 62.9785 29.1373 62.9785 29.5772C62.9785 30.0171 63.3351 30.3737 63.775 30.3737C64.2149 30.3737 64.5715 30.0171 64.5715 29.5772Z" fill="#111111"/>
<path id="Vector_53" d="M67.2258 29.5772C67.2258 29.1373 66.8692 28.7807 66.4293 28.7807C65.9894 28.7807 65.6328 29.1373 65.6328 29.5772C65.6328 30.0171 65.9894 30.3737 66.4293 30.3737C66.8692 30.3737 67.2258 30.0171 67.2258 29.5772Z" fill="#111111"/>
<path id="Vector_54" d="M72.5324 29.5772C72.5324 29.1373 72.1758 28.7807 71.7359 28.7807C71.2961 28.7807 70.9395 29.1373 70.9395 29.5772C70.9395 30.0171 71.2961 30.3737 71.7359 30.3737C72.1758 30.3737 72.5324 30.0171 72.5324 29.5772Z" fill="#111111"/>
<path id="Vector_55" d="M8.81564 32.2318C8.81564 31.7919 8.45904 31.4353 8.01915 31.4353C7.57926 31.4353 7.22266 31.7919 7.22266 32.2318C7.22266 32.6716 7.57926 33.0282 8.01915 33.0282C8.45904 33.0282 8.81564 32.6716 8.81564 32.2318Z" fill="#111111"/>
<path id="Vector_56" d="M11.4719 32.2318C11.4719 31.7919 11.1153 31.4353 10.6754 31.4353C10.2355 31.4353 9.87891 31.7919 9.87891 32.2318C9.87891 32.6716 10.2355 33.0282 10.6754 33.0282C11.1153 33.0282 11.4719 32.6716 11.4719 32.2318Z" fill="#111111"/>
<path id="Vector_57" d="M14.1262 32.2318C14.1262 31.7919 13.7696 31.4353 13.3297 31.4353C12.8898 31.4353 12.5332 31.7919 12.5332 32.2318C12.5332 32.6716 12.8898 33.0282 13.3297 33.0282C13.7696 33.0282 14.1262 32.6716 14.1262 32.2318Z" fill="#111111"/>
<path id="Vector_58" d="M16.7785 32.2318C16.7785 31.7919 16.4219 31.4353 15.982 31.4353C15.5421 31.4353 15.1855 31.7919 15.1855 32.2318C15.1855 32.6716 15.5421 33.0282 15.982 33.0282C16.4219 33.0282 16.7785 32.6716 16.7785 32.2318Z" fill="#111111"/>
<path id="Vector_59" d="M32.7082 32.2318C32.7082 31.7919 32.3516 31.4353 31.9117 31.4353C31.4718 31.4353 31.1152 31.7919 31.1152 32.2318C31.1152 32.6716 31.4718 33.0282 31.9117 33.0282C32.3516 33.0282 32.7082 32.6716 32.7082 32.2318Z" fill="#111111"/>
<path id="Vector_60" d="M40.677 32.2318C40.677 31.7919 40.3204 31.4353 39.8805 31.4353C39.4406 31.4353 39.084 31.7919 39.084 32.2318C39.084 32.6716 39.4406 33.0282 39.8805 33.0282C40.3204 33.0282 40.677 32.6716 40.677 32.2318Z" fill="#111111"/>
<path id="Vector_61" d="M51.2942 32.2318C51.2942 31.7919 50.9376 31.4353 50.4977 31.4353C50.0578 31.4353 49.7012 31.7919 49.7012 32.2318C49.7012 32.6716 50.0578 33.0282 50.4977 33.0282C50.9376 33.0282 51.2942 32.6716 51.2942 32.2318Z" fill="#111111"/>
<path id="Vector_62" d="M53.9485 32.2318C53.9485 31.7919 53.5919 31.4353 53.152 31.4353C52.7121 31.4353 52.3555 31.7919 52.3555 32.2318C52.3555 32.6716 52.7121 33.0282 53.152 33.0282C53.5919 33.0282 53.9485 32.6716 53.9485 32.2318Z" fill="#111111"/>
<path id="Vector_63" d="M56.6047 32.2318C56.6047 31.7919 56.2481 31.4353 55.8082 31.4353C55.3683 31.4353 55.0117 31.7919 55.0117 32.2318C55.0117 32.6716 55.3683 33.0282 55.8082 33.0282C56.2481 33.0282 56.6047 32.6716 56.6047 32.2318Z" fill="#111111"/>
<path id="Vector_64" d="M72.5324 32.2318C72.5324 31.7919 72.1758 31.4353 71.7359 31.4353C71.2961 31.4353 70.9395 31.7919 70.9395 32.2318C70.9395 32.6716 71.2961 33.0282 71.7359 33.0282C72.1758 33.0282 72.5324 32.6716 72.5324 32.2318Z" fill="#111111"/>
<path id="Vector_65" d="M8.81564 34.8869C8.81564 34.447 8.45904 34.0904 8.01915 34.0904C7.57926 34.0904 7.22266 34.447 7.22266 34.8869C7.22266 35.3268 7.57926 35.6834 8.01915 35.6834C8.45904 35.6834 8.81564 35.3268 8.81564 34.8869Z" fill="#111111"/>
<path id="Vector_66" d="M11.4719 34.8869C11.4719 34.447 11.1153 34.0904 10.6754 34.0904C10.2355 34.0904 9.87891 34.447 9.87891 34.8869C9.87891 35.3268 10.2355 35.6834 10.6754 35.6834C11.1153 35.6834 11.4719 35.3268 11.4719 34.8869Z" fill="#111111"/>
<path id="Vector_67" d="M16.7785 34.8869C16.7785 34.447 16.4219 34.0904 15.982 34.0904C15.5421 34.0904 15.1855 34.447 15.1855 34.8869C15.1855 35.3268 15.5421 35.6834 15.982 35.6834C16.4219 35.6834 16.7785 35.3268 16.7785 34.8869Z" fill="#111111"/>
<path id="Vector_68" d="M19.4348 34.8869C19.4348 34.447 19.0782 34.0904 18.6383 34.0904C18.1984 34.0904 17.8418 34.447 17.8418 34.8869C17.8418 35.3268 18.1984 35.6834 18.6383 35.6834C19.0782 35.6834 19.4348 35.3268 19.4348 34.8869Z" fill="#111111"/>
<path id="Vector_69" d="M22.091 34.8869C22.091 34.447 21.7344 34.0904 21.2945 34.0904C20.8546 34.0904 20.498 34.447 20.498 34.8869C20.498 35.3268 20.8546 35.6834 21.2945 35.6834C21.7344 35.6834 22.091 35.3268 22.091 34.8869Z" fill="#111111"/>
<path id="Vector_70" d="M24.7453 34.8869C24.7453 34.447 24.3887 34.0904 23.9488 34.0904C23.5089 34.0904 23.1523 34.447 23.1523 34.8869C23.1523 35.3268 23.5089 35.6834 23.9488 35.6834C24.3887 35.6834 24.7453 35.3268 24.7453 34.8869Z" fill="#111111"/>
<path id="Vector_71" d="M30.0559 34.8869C30.0559 34.447 29.6993 34.0904 29.2594 34.0904C28.8195 34.0904 28.4629 34.447 28.4629 34.8869C28.4629 35.3268 28.8195 35.6834 29.2594 35.6834C29.6993 35.6834 30.0559 35.3268 30.0559 34.8869Z" fill="#111111"/>
<path id="Vector_72" d="M32.7082 34.8869C32.7082 34.447 32.3516 34.0904 31.9117 34.0904C31.4718 34.0904 31.1152 34.447 31.1152 34.8869C31.1152 35.3268 31.4718 35.6834 31.9117 35.6834C32.3516 35.6834 32.7082 35.3268 32.7082 34.8869Z" fill="#111111"/>
<path id="Vector_73" d="M43.3293 34.8869C43.3293 34.447 42.9727 34.0904 42.5328 34.0904C42.0929 34.0904 41.7363 34.447 41.7363 34.8869C41.7363 35.3268 42.0929 35.6834 42.5328 35.6834C42.9727 35.6834 43.3293 35.3268 43.3293 34.8869Z" fill="#111111"/>
<path id="Vector_74" d="M51.2942 34.8869C51.2942 34.447 50.9376 34.0904 50.4977 34.0904C50.0578 34.0904 49.7012 34.447 49.7012 34.8869C49.7012 35.3268 50.0578 35.6834 50.4977 35.6834C50.9376 35.6834 51.2942 35.3268 51.2942 34.8869Z" fill="#111111"/>
<path id="Vector_75" d="M53.9485 34.8869C53.9485 34.447 53.5919 34.0904 53.152 34.0904C52.7121 34.0904 52.3555 34.447 52.3555 34.8869C52.3555 35.3268 52.7121 35.6834 53.152 35.6834C53.5919 35.6834 53.9485 35.3268 53.9485 34.8869Z" fill="#111111"/>
<path id="Vector_76" d="M56.6047 34.8869C56.6047 34.447 56.2481 34.0904 55.8082 34.0904C55.3683 34.0904 55.0117 34.447 55.0117 34.8869C55.0117 35.3268 55.3683 35.6834 55.8082 35.6834C56.2481 35.6834 56.6047 35.3268 56.6047 34.8869Z" fill="#111111"/>
<path id="Vector_77" d="M59.259 34.8869C59.259 34.447 58.9024 34.0904 58.4625 34.0904C58.0226 34.0904 57.666 34.447 57.666 34.8869C57.666 35.3268 58.0226 35.6834 58.4625 35.6834C58.9024 35.6834 59.259 35.3268 59.259 34.8869Z" fill="#111111"/>
<path id="Vector_78" d="M69.8801 34.8869C69.8801 34.447 69.5235 34.0904 69.0836 34.0904C68.6437 34.0904 68.2871 34.447 68.2871 34.8869C68.2871 35.3268 68.6437 35.6834 69.0836 35.6834C69.5235 35.6834 69.8801 35.3268 69.8801 34.8869Z" fill="#111111"/>
<path id="Vector_79" d="M72.5324 34.8869C72.5324 34.447 72.1758 34.0904 71.7359 34.0904C71.2961 34.0904 70.9395 34.447 70.9395 34.8869C70.9395 35.3268 71.2961 35.6834 71.7359 35.6834C72.1758 35.6834 72.5324 35.3268 72.5324 34.8869Z" fill="#111111"/>
<path id="Vector_80" d="M14.1262 37.5416C14.1262 37.1017 13.7696 36.7451 13.3297 36.7451C12.8898 36.7451 12.5332 37.1017 12.5332 37.5416C12.5332 37.9815 12.8898 38.3381 13.3297 38.3381C13.7696 38.3381 14.1262 37.9815 14.1262 37.5416Z" fill="#111111"/>
<path id="Vector_81" d="M16.7785 37.5416C16.7785 37.1017 16.4219 36.7451 15.982 36.7451C15.5421 36.7451 15.1855 37.1017 15.1855 37.5416C15.1855 37.9815 15.5421 38.3381 15.982 38.3381C16.4219 38.3381 16.7785 37.9815 16.7785 37.5416Z" fill="#111111"/>
<path id="Vector_82" d="M19.4348 37.5416C19.4348 37.1017 19.0782 36.7451 18.6383 36.7451C18.1984 36.7451 17.8418 37.1017 17.8418 37.5416C17.8418 37.9815 18.1984 38.3381 18.6383 38.3381C19.0782 38.3381 19.4348 37.9815 19.4348 37.5416Z" fill="#111111"/>
<path id="Vector_83" d="M22.091 37.5416C22.091 37.1017 21.7344 36.7451 21.2945 36.7451C20.8546 36.7451 20.498 37.1017 20.498 37.5416C20.498 37.9815 20.8546 38.3381 21.2945 38.3381C21.7344 38.3381 22.091 37.9815 22.091 37.5416Z" fill="#111111"/>
<path id="Vector_84" d="M30.0559 37.5416C30.0559 37.1017 29.6993 36.7451 29.2594 36.7451C28.8195 36.7451 28.4629 37.1017 28.4629 37.5416C28.4629 37.9815 28.8195 38.3381 29.2594 38.3381C29.6993 38.3381 30.0559 37.9815 30.0559 37.5416Z" fill="#111111"/>
<path id="Vector_85" d="M38.0207 37.5416C38.0207 37.1017 37.6641 36.7451 37.2242 36.7451C36.7843 36.7451 36.4277 37.1017 36.4277 37.5416C36.4277 37.9815 36.7843 38.3381 37.2242 38.3381C37.6641 38.3381 38.0207 37.9815 38.0207 37.5416Z" fill="#111111"/>
<path id="Vector_86" d="M43.3293 37.5416C43.3293 37.1017 42.9727 36.7451 42.5328 36.7451C42.0929 36.7451 41.7363 37.1017 41.7363 37.5416C41.7363 37.9815 42.0929 38.3381 42.5328 38.3381C42.9727 38.3381 43.3293 37.9815 43.3293 37.5416Z" fill="#111111"/>
<path id="Vector_87" d="M48.6399 37.5416C48.6399 37.1017 48.2833 36.7451 47.8434 36.7451C47.4035 36.7451 47.0469 37.1017 47.0469 37.5416C47.0469 37.9815 47.4035 38.3381 47.8434 38.3381C48.2833 38.3381 48.6399 37.9815 48.6399 37.5416Z" fill="#111111"/>
<path id="Vector_88" d="M59.259 37.5416C59.259 37.1017 58.9024 36.7451 58.4625 36.7451C58.0226 36.7451 57.666 37.1017 57.666 37.5416C57.666 37.9815 58.0226 38.3381 58.4625 38.3381C58.9024 38.3381 59.259 37.9815 59.259 37.5416Z" fill="#111111"/>
<path id="Vector_89" d="M61.9152 37.5416C61.9152 37.1017 61.5587 36.7451 61.1188 36.7451C60.6789 36.7451 60.3223 37.1017 60.3223 37.5416C60.3223 37.9815 60.6789 38.3381 61.1188 38.3381C61.5587 38.3381 61.9152 37.9815 61.9152 37.5416Z" fill="#111111"/>
<path id="Vector_90" d="M8.81564 40.197C8.81564 39.7571 8.45904 39.4005 8.01915 39.4005C7.57926 39.4005 7.22266 39.7571 7.22266 40.197C7.22266 40.6369 7.57926 40.9935 8.01915 40.9935C8.45904 40.9935 8.81564 40.6369 8.81564 40.197Z" fill="#111111"/>
<path id="Vector_91" d="M19.4348 40.197C19.4348 39.7571 19.0782 39.4005 18.6383 39.4005C18.1984 39.4005 17.8418 39.7571 17.8418 40.197C17.8418 40.6369 18.1984 40.9935 18.6383 40.9935C19.0782 40.9935 19.4348 40.6369 19.4348 40.197Z" fill="#111111"/>
<path id="Vector_92" d="M24.7453 40.197C24.7453 39.7571 24.3887 39.4005 23.9488 39.4005C23.5089 39.4005 23.1523 39.7571 23.1523 40.197C23.1523 40.6369 23.5089 40.9935 23.9488 40.9935C24.3887 40.9935 24.7453 40.6369 24.7453 40.197Z" fill="#111111"/>
<path id="Vector_93" d="M27.4016 40.197C27.4016 39.7571 27.045 39.4005 26.6051 39.4005C26.1652 39.4005 25.8086 39.7571 25.8086 40.197C25.8086 40.6369 26.1652 40.9935 26.6051 40.9935C27.045 40.9935 27.4016 40.6369 27.4016 40.197Z" fill="#111111"/>
<path id="Vector_94" d="M30.0559 40.197C30.0559 39.7571 29.6993 39.4005 29.2594 39.4005C28.8195 39.4005 28.4629 39.7571 28.4629 40.197C28.4629 40.6369 28.8195 40.9935 29.2594 40.9935C29.6993 40.9935 30.0559 40.6369 30.0559 40.197Z" fill="#111111"/>
<path id="Vector_95" d="M35.3645 40.197C35.3645 39.7571 35.0079 39.4005 34.568 39.4005C34.1281 39.4005 33.7715 39.7571 33.7715 40.197C33.7715 40.6369 34.1281 40.9935 34.568 40.9935C35.0079 40.9935 35.3645 40.6369 35.3645 40.197Z" fill="#111111"/>
<path id="Vector_96" d="M38.0207 40.197C38.0207 39.7571 37.6641 39.4005 37.2242 39.4005C36.7843 39.4005 36.4277 39.7571 36.4277 40.197C36.4277 40.6369 36.7843 40.9935 37.2242 40.9935C37.6641 40.9935 38.0207 40.6369 38.0207 40.197Z" fill="#111111"/>
<path id="Vector_97" d="M40.677 40.197C40.677 39.7571 40.3204 39.4005 39.8805 39.4005C39.4406 39.4005 39.084 39.7571 39.084 40.197C39.084 40.6369 39.4406 40.9935 39.8805 40.9935C40.3204 40.9935 40.677 40.6369 40.677 40.197Z" fill="#111111"/>
<path id="Vector_98" d="M45.9856 40.197C45.9856 39.7571 45.629 39.4005 45.1891 39.4005C44.7492 39.4005 44.3926 39.7571 44.3926 40.197C44.3926 40.6369 44.7492 40.9935 45.1891 40.9935C45.629 40.9935 45.9856 40.6369 45.9856 40.197Z" fill="#111111"/>
<path id="Vector_99" d="M48.6399 40.197C48.6399 39.7571 48.2833 39.4005 47.8434 39.4005C47.4035 39.4005 47.0469 39.7571 47.0469 40.197C47.0469 40.6369 47.4035 40.9935 47.8434 40.9935C48.2833 40.9935 48.6399 40.6369 48.6399 40.197Z" fill="#111111"/>
<path id="Vector_100" d="M51.2942 40.197C51.2942 39.7571 50.9376 39.4005 50.4977 39.4005C50.0578 39.4005 49.7012 39.7571 49.7012 40.197C49.7012 40.6369 50.0578 40.9935 50.4977 40.9935C50.9376 40.9935 51.2942 40.6369 51.2942 40.197Z" fill="#111111"/>
<path id="Vector_101" d="M53.9485 40.197C53.9485 39.7571 53.5919 39.4005 53.152 39.4005C52.7121 39.4005 52.3555 39.7571 52.3555 40.197C52.3555 40.6369 52.7121 40.9935 53.152 40.9935C53.5919 40.9935 53.9485 40.6369 53.9485 40.197Z" fill="#111111"/>
<path id="Vector_102" d="M56.6047 40.197C56.6047 39.7571 56.2481 39.4005 55.8082 39.4005C55.3683 39.4005 55.0117 39.7571 55.0117 40.197C55.0117 40.6369 55.3683 40.9935 55.8082 40.9935C56.2481 40.9935 56.6047 40.6369 56.6047 40.197Z" fill="#111111"/>
<path id="Vector_103" d="M59.259 40.197C59.259 39.7571 58.9024 39.4005 58.4625 39.4005C58.0226 39.4005 57.666 39.7571 57.666 40.197C57.666 40.6369 58.0226 40.9935 58.4625 40.9935C58.9024 40.9935 59.259 40.6369 59.259 40.197Z" fill="#111111"/>
<path id="Vector_104" d="M64.5715 40.197C64.5715 39.7571 64.2149 39.4005 63.775 39.4005C63.3351 39.4005 62.9785 39.7571 62.9785 40.197C62.9785 40.6369 63.3351 40.9935 63.775 40.9935C64.2149 40.9935 64.5715 40.6369 64.5715 40.197Z" fill="#111111"/>
<path id="Vector_105" d="M69.8801 40.197C69.8801 39.7571 69.5235 39.4005 69.0836 39.4005C68.6437 39.4005 68.2871 39.7571 68.2871 40.197C68.2871 40.6369 68.6437 40.9935 69.0836 40.9935C69.5235 40.9935 69.8801 40.6369 69.8801 40.197Z" fill="#111111"/>
<path id="Vector_106" d="M72.5324 40.197C72.5324 39.7571 72.1758 39.4005 71.7359 39.4005C71.2961 39.4005 70.9395 39.7571 70.9395 40.197C70.9395 40.6369 71.2961 40.9935 71.7359 40.9935C72.1758 40.9935 72.5324 40.6369 72.5324 40.197Z" fill="#111111"/>
<path id="Vector_107" d="M11.4719 42.8519C11.4719 42.412 11.1153 42.0554 10.6754 42.0554C10.2355 42.0554 9.87891 42.412 9.87891 42.8519C9.87891 43.2918 10.2355 43.6484 10.6754 43.6484C11.1153 43.6484 11.4719 43.2918 11.4719 42.8519Z" fill="#111111"/>
<path id="Vector_108" d="M16.7785 42.8519C16.7785 42.412 16.4219 42.0554 15.982 42.0554C15.5421 42.0554 15.1855 42.412 15.1855 42.8519C15.1855 43.2918 15.5421 43.6484 15.982 43.6484C16.4219 43.6484 16.7785 43.2918 16.7785 42.8519Z" fill="#111111"/>
<path id="Vector_109" d="M19.4348 42.8519C19.4348 42.412 19.0782 42.0554 18.6383 42.0554C18.1984 42.0554 17.8418 42.412 17.8418 42.8519C17.8418 43.2918 18.1984 43.6484 18.6383 43.6484C19.0782 43.6484 19.4348 43.2918 19.4348 42.8519Z" fill="#111111"/>
<path id="Vector_110" d="M22.091 42.8519C22.091 42.412 21.7344 42.0554 21.2945 42.0554C20.8546 42.0554 20.498 42.412 20.498 42.8519C20.498 43.2918 20.8546 43.6484 21.2945 43.6484C21.7344 43.6484 22.091 43.2918 22.091 42.8519Z" fill="#111111"/>
<path id="Vector_111" d="M32.7082 42.8519C32.7082 42.412 32.3516 42.0554 31.9117 42.0554C31.4718 42.0554 31.1152 42.412 31.1152 42.8519C31.1152 43.2918 31.4718 43.6484 31.9117 43.6484C32.3516 43.6484 32.7082 43.2918 32.7082 42.8519Z" fill="#111111"/>
<path id="Vector_112" d="M35.3645 42.8519C35.3645 42.412 35.0079 42.0554 34.568 42.0554C34.1281 42.0554 33.7715 42.412 33.7715 42.8519C33.7715 43.2918 34.1281 43.6484 34.568 43.6484C35.0079 43.6484 35.3645 43.2918 35.3645 42.8519Z" fill="#111111"/>
<path id="Vector_113" d="M38.0207 42.8519C38.0207 42.412 37.6641 42.0554 37.2242 42.0554C36.7843 42.0554 36.4277 42.412 36.4277 42.8519C36.4277 43.2918 36.7843 43.6484 37.2242 43.6484C37.6641 43.6484 38.0207 43.2918 38.0207 42.8519Z" fill="#111111"/>
<path id="Vector_114" d="M43.3293 42.8519C43.3293 42.412 42.9727 42.0554 42.5328 42.0554C42.0929 42.0554 41.7363 42.412 41.7363 42.8519C41.7363 43.2918 42.0929 43.6484 42.5328 43.6484C42.9727 43.6484 43.3293 43.2918 43.3293 42.8519Z" fill="#111111"/>
<path id="Vector_115" d="M53.9485 42.8519C53.9485 42.412 53.5919 42.0554 53.152 42.0554C52.7121 42.0554 52.3555 42.412 52.3555 42.8519C52.3555 43.2918 52.7121 43.6484 53.152 43.6484C53.5919 43.6484 53.9485 43.2918 53.9485 42.8519Z" fill="#111111"/>
<path id="Vector_116" d="M56.6047 42.8519C56.6047 42.412 56.2481 42.0554 55.8082 42.0554C55.3683 42.0554 55.0117 42.412 55.0117 42.8519C55.0117 43.2918 55.3683 43.6484 55.8082 43.6484C56.2481 43.6484 56.6047 43.2918 56.6047 42.8519Z" fill="#111111"/>
<path id="Vector_117" d="M59.259 42.8519C59.259 42.412 58.9024 42.0554 58.4625 42.0554C58.0226 42.0554 57.666 42.412 57.666 42.8519C57.666 43.2918 58.0226 43.6484 58.4625 43.6484C58.9024 43.6484 59.259 43.2918 59.259 42.8519Z" fill="#111111"/>
<path id="Vector_118" d="M64.5715 42.8519C64.5715 42.412 64.2149 42.0554 63.775 42.0554C63.3351 42.0554 62.9785 42.412 62.9785 42.8519C62.9785 43.2918 63.3351 43.6484 63.775 43.6484C64.2149 43.6484 64.5715 43.2918 64.5715 42.8519Z" fill="#111111"/>
<path id="Vector_119" d="M67.2258 42.8519C67.2258 42.412 66.8692 42.0554 66.4293 42.0554C65.9894 42.0554 65.6328 42.412 65.6328 42.8519C65.6328 43.2918 65.9894 43.6484 66.4293 43.6484C66.8692 43.6484 67.2258 43.2918 67.2258 42.8519Z" fill="#111111"/>
<path id="Vector_120" d="M72.5324 42.8519C72.5324 42.412 72.1758 42.0554 71.7359 42.0554C71.2961 42.0554 70.9395 42.412 70.9395 42.8519C70.9395 43.2918 71.2961 43.6484 71.7359 43.6484C72.1758 43.6484 72.5324 43.2918 72.5324 42.8519Z" fill="#111111"/>
<path id="Vector_121" d="M8.81564 45.5067C8.81564 45.0668 8.45904 44.7102 8.01915 44.7102C7.57926 44.7102 7.22266 45.0668 7.22266 45.5067C7.22266 45.9466 7.57926 46.3032 8.01915 46.3032C8.45904 46.3032 8.81564 45.9466 8.81564 45.5067Z" fill="#111111"/>
<path id="Vector_122" d="M16.7785 45.5067C16.7785 45.0668 16.4219 44.7102 15.982 44.7102C15.5421 44.7102 15.1855 45.0668 15.1855 45.5067C15.1855 45.9466 15.5421 46.3032 15.982 46.3032C16.4219 46.3032 16.7785 45.9466 16.7785 45.5067Z" fill="#111111"/>
<path id="Vector_123" d="M19.4348 45.5067C19.4348 45.0668 19.0782 44.7102 18.6383 44.7102C18.1984 44.7102 17.8418 45.0668 17.8418 45.5067C17.8418 45.9466 18.1984 46.3032 18.6383 46.3032C19.0782 46.3032 19.4348 45.9466 19.4348 45.5067Z" fill="#111111"/>
<path id="Vector_124" d="M22.091 45.5067C22.091 45.0668 21.7344 44.7102 21.2945 44.7102C20.8546 44.7102 20.498 45.0668 20.498 45.5067C20.498 45.9466 20.8546 46.3032 21.2945 46.3032C21.7344 46.3032 22.091 45.9466 22.091 45.5067Z" fill="#111111"/>
<path id="Vector_125" d="M24.7453 45.5067C24.7453 45.0668 24.3887 44.7102 23.9488 44.7102C23.5089 44.7102 23.1523 45.0668 23.1523 45.5067C23.1523 45.9466 23.5089 46.3032 23.9488 46.3032C24.3887 46.3032 24.7453 45.9466 24.7453 45.5067Z" fill="#111111"/>
<path id="Vector_126" d="M27.4016 45.5067C27.4016 45.0668 27.045 44.7102 26.6051 44.7102C26.1652 44.7102 25.8086 45.0668 25.8086 45.5067C25.8086 45.9466 26.1652 46.3032 26.6051 46.3032C27.045 46.3032 27.4016 45.9466 27.4016 45.5067Z" fill="#111111"/>
<path id="Vector_127" d="M35.3645 45.5067C35.3645 45.0668 35.0079 44.7102 34.568 44.7102C34.1281 44.7102 33.7715 45.0668 33.7715 45.5067C33.7715 45.9466 34.1281 46.3032 34.568 46.3032C35.0079 46.3032 35.3645 45.9466 35.3645 45.5067Z" fill="#111111"/>
<path id="Vector_128" d="M38.0207 45.5067C38.0207 45.0668 37.6641 44.7102 37.2242 44.7102C36.7843 44.7102 36.4277 45.0668 36.4277 45.5067C36.4277 45.9466 36.7843 46.3032 37.2242 46.3032C37.6641 46.3032 38.0207 45.9466 38.0207 45.5067Z" fill="#111111"/>
<path id="Vector_129" d="M43.3293 45.5067C43.3293 45.0668 42.9727 44.7102 42.5328 44.7102C42.0929 44.7102 41.7363 45.0668 41.7363 45.5067C41.7363 45.9466 42.0929 46.3032 42.5328 46.3032C42.9727 46.3032 43.3293 45.9466 43.3293 45.5067Z" fill="#111111"/>
<path id="Vector_130" d="M45.9856 45.5067C45.9856 45.0668 45.629 44.7102 45.1891 44.7102C44.7492 44.7102 44.3926 45.0668 44.3926 45.5067C44.3926 45.9466 44.7492 46.3032 45.1891 46.3032C45.629 46.3032 45.9856 45.9466 45.9856 45.5067Z" fill="#111111"/>
<path id="Vector_131" d="M51.2942 45.5067C51.2942 45.0668 50.9376 44.7102 50.4977 44.7102C50.0578 44.7102 49.7012 45.0668 49.7012 45.5067C49.7012 45.9466 50.0578 46.3032 50.4977 46.3032C50.9376 46.3032 51.2942 45.9466 51.2942 45.5067Z" fill="#111111"/>
<path id="Vector_132" d="M56.6047 45.5067C56.6047 45.0668 56.2481 44.7102 55.8082 44.7102C55.3683 44.7102 55.0117 45.0668 55.0117 45.5067C55.0117 45.9466 55.3683 46.3032 55.8082 46.3032C56.2481 46.3032 56.6047 45.9466 56.6047 45.5067Z" fill="#111111"/>
<path id="Vector_133" d="M59.259 45.5067C59.259 45.0668 58.9024 44.7102 58.4625 44.7102C58.0226 44.7102 57.666 45.0668 57.666 45.5067C57.666 45.9466 58.0226 46.3032 58.4625 46.3032C58.9024 46.3032 59.259 45.9466 59.259 45.5067Z" fill="#111111"/>
<path id="Vector_134" d="M61.9152 45.5067C61.9152 45.0668 61.5587 44.7102 61.1188 44.7102C60.6789 44.7102 60.3223 45.0668 60.3223 45.5067C60.3223 45.9466 60.6789 46.3032 61.1188 46.3032C61.5587 46.3032 61.9152 45.9466 61.9152 45.5067Z" fill="#111111"/>
<path id="Vector_135" d="M67.2258 45.5067C67.2258 45.0668 66.8692 44.7102 66.4293 44.7102C65.9894 44.7102 65.6328 45.0668 65.6328 45.5067C65.6328 45.9466 65.9894 46.3032 66.4293 46.3032C66.8692 46.3032 67.2258 45.9466 67.2258 45.5067Z" fill="#111111"/>
<path id="Vector_136" d="M72.5324 45.5067C72.5324 45.0668 72.1758 44.7102 71.7359 44.7102C71.2961 44.7102 70.9395 45.0668 70.9395 45.5067C70.9395 45.9466 71.2961 46.3032 71.7359 46.3032C72.1758 46.3032 72.5324 45.9466 72.5324 45.5067Z" fill="#111111"/>
<path id="Vector_137" d="M11.4719 48.1618C11.4719 47.7219 11.1153 47.3653 10.6754 47.3653C10.2355 47.3653 9.87891 47.7219 9.87891 48.1618C9.87891 48.6017 10.2355 48.9583 10.6754 48.9583C11.1153 48.9583 11.4719 48.6017 11.4719 48.1618Z" fill="#111111"/>
<path id="Vector_138" d="M16.7785 48.1618C16.7785 47.7219 16.4219 47.3653 15.982 47.3653C15.5421 47.3653 15.1855 47.7219 15.1855 48.1618C15.1855 48.6017 15.5421 48.9583 15.982 48.9583C16.4219 48.9583 16.7785 48.6017 16.7785 48.1618Z" fill="#111111"/>
<path id="Vector_139" d="M22.091 48.1618C22.091 47.7219 21.7344 47.3653 21.2945 47.3653C20.8546 47.3653 20.498 47.7219 20.498 48.1618C20.498 48.6017 20.8546 48.9583 21.2945 48.9583C21.7344 48.9583 22.091 48.6017 22.091 48.1618Z" fill="#111111"/>
<path id="Vector_140" d="M27.4016 48.1618C27.4016 47.7219 27.045 47.3653 26.6051 47.3653C26.1652 47.3653 25.8086 47.7219 25.8086 48.1618C25.8086 48.6017 26.1652 48.9583 26.6051 48.9583C27.045 48.9583 27.4016 48.6017 27.4016 48.1618Z" fill="#111111"/>
<path id="Vector_141" d="M30.0559 48.1618C30.0559 47.7219 29.6993 47.3653 29.2594 47.3653C28.8195 47.3653 28.4629 47.7219 28.4629 48.1618C28.4629 48.6017 28.8195 48.9583 29.2594 48.9583C29.6993 48.9583 30.0559 48.6017 30.0559 48.1618Z" fill="#111111"/>
<path id="Vector_142" d="M40.677 48.1618C40.677 47.7219 40.3204 47.3653 39.8805 47.3653C39.4406 47.3653 39.084 47.7219 39.084 48.1618C39.084 48.6017 39.4406 48.9583 39.8805 48.9583C40.3204 48.9583 40.677 48.6017 40.677 48.1618Z" fill="#111111"/>
<path id="Vector_143" d="M45.9856 48.1618C45.9856 47.7219 45.629 47.3653 45.1891 47.3653C44.7492 47.3653 44.3926 47.7219 44.3926 48.1618C44.3926 48.6017 44.7492 48.9583 45.1891 48.9583C45.629 48.9583 45.9856 48.6017 45.9856 48.1618Z" fill="#111111"/>
<path id="Vector_144" d="M51.2942 48.1618C51.2942 47.7219 50.9376 47.3653 50.4977 47.3653C50.0578 47.3653 49.7012 47.7219 49.7012 48.1618C49.7012 48.6017 50.0578 48.9583 50.4977 48.9583C50.9376 48.9583 51.2942 48.6017 51.2942 48.1618Z" fill="#111111"/>
<path id="Vector_145" d="M61.9152 48.1618C61.9152 47.7219 61.5587 47.3653 61.1188 47.3653C60.6789 47.3653 60.3223 47.7219 60.3223 48.1618C60.3223 48.6017 60.6789 48.9583 61.1188 48.9583C61.5587 48.9583 61.9152 48.6017 61.9152 48.1618Z" fill="#111111"/>
<path id="Vector_146" d="M64.5715 48.1618C64.5715 47.7219 64.2149 47.3653 63.775 47.3653C63.3351 47.3653 62.9785 47.7219 62.9785 48.1618C62.9785 48.6017 63.3351 48.9583 63.775 48.9583C64.2149 48.9583 64.5715 48.6017 64.5715 48.1618Z" fill="#111111"/>
<path id="Vector_147" d="M69.8801 48.1618C69.8801 47.7219 69.5235 47.3653 69.0836 47.3653C68.6437 47.3653 68.2871 47.7219 68.2871 48.1618C68.2871 48.6017 68.6437 48.9583 69.0836 48.9583C69.5235 48.9583 69.8801 48.6017 69.8801 48.1618Z" fill="#111111"/>
<path id="Vector_148" d="M8.81564 50.8166C8.81564 50.3767 8.45904 50.0201 8.01915 50.0201C7.57926 50.0201 7.22266 50.3767 7.22266 50.8166C7.22266 51.2565 7.57926 51.6131 8.01915 51.6131C8.45904 51.6131 8.81564 51.2565 8.81564 50.8166Z" fill="#111111"/>
<path id="Vector_149" d="M11.4719 50.8166C11.4719 50.3767 11.1153 50.0201 10.6754 50.0201C10.2355 50.0201 9.87891 50.3767 9.87891 50.8166C9.87891 51.2565 10.2355 51.6131 10.6754 51.6131C11.1153 51.6131 11.4719 51.2565 11.4719 50.8166Z" fill="#111111"/>
<path id="Vector_150" d="M19.4348 50.8166C19.4348 50.3767 19.0782 50.0201 18.6383 50.0201C18.1984 50.0201 17.8418 50.3767 17.8418 50.8166C17.8418 51.2565 18.1984 51.6131 18.6383 51.6131C19.0782 51.6131 19.4348 51.2565 19.4348 50.8166Z" fill="#111111"/>
<path id="Vector_151" d="M24.7453 50.8166C24.7453 50.3767 24.3887 50.0201 23.9488 50.0201C23.5089 50.0201 23.1523 50.3767 23.1523 50.8166C23.1523 51.2565 23.5089 51.6131 23.9488 51.6131C24.3887 51.6131 24.7453 51.2565 24.7453 50.8166Z" fill="#111111"/>
<path id="Vector_152" d="M27.4016 50.8166C27.4016 50.3767 27.045 50.0201 26.6051 50.0201C26.1652 50.0201 25.8086 50.3767 25.8086 50.8166C25.8086 51.2565 26.1652 51.6131 26.6051 51.6131C27.045 51.6131 27.4016 51.2565 27.4016 50.8166Z" fill="#111111"/>
<path id="Vector_153" d="M32.7082 50.8166C32.7082 50.3767 32.3516 50.0201 31.9117 50.0201C31.4718 50.0201 31.1152 50.3767 31.1152 50.8166C31.1152 51.2565 31.4718 51.6131 31.9117 51.6131C32.3516 51.6131 32.7082 51.2565 32.7082 50.8166Z" fill="#111111"/>
<path id="Vector_154" d="M40.677 50.8166C40.677 50.3767 40.3204 50.0201 39.8805 50.0201C39.4406 50.0201 39.084 50.3767 39.084 50.8166C39.084 51.2565 39.4406 51.6131 39.8805 51.6131C40.3204 51.6131 40.677 51.2565 40.677 50.8166Z" fill="#111111"/>
<path id="Vector_155" d="M43.3293 50.8166C43.3293 50.3767 42.9727 50.0201 42.5328 50.0201C42.0929 50.0201 41.7363 50.3767 41.7363 50.8166C41.7363 51.2565 42.0929 51.6131 42.5328 51.6131C42.9727 51.6131 43.3293 51.2565 43.3293 50.8166Z" fill="#111111"/>
<path id="Vector_156" d="M64.5715 50.8166C64.5715 50.3767 64.2149 50.0201 63.775 50.0201C63.3351 50.0201 62.9785 50.3767 62.9785 50.8166C62.9785 51.2565 63.3351 51.6131 63.775 51.6131C64.2149 51.6131 64.5715 51.2565 64.5715 50.8166Z" fill="#111111"/>
<path id="Vector_157" d="M67.2258 50.8166C67.2258 50.3767 66.8692 50.0201 66.4293 50.0201C65.9894 50.0201 65.6328 50.3767 65.6328 50.8166C65.6328 51.2565 65.9894 51.6131 66.4293 51.6131C66.8692 51.6131 67.2258 51.2565 67.2258 50.8166Z" fill="#111111"/>
<path id="Vector_158" d="M30.0559 53.4717C30.0559 53.0318 29.6993 52.6752 29.2594 52.6752C28.8195 52.6752 28.4629 53.0318 28.4629 53.4717C28.4629 53.9116 28.8195 54.2682 29.2594 54.2682C29.6993 54.2682 30.0559 53.9116 30.0559 53.4717Z" fill="#111111"/>
<path id="Vector_159" d="M32.7082 53.4717C32.7082 53.0318 32.3516 52.6752 31.9117 52.6752C31.4718 52.6752 31.1152 53.0318 31.1152 53.4717C31.1152 53.9116 31.4718 54.2682 31.9117 54.2682C32.3516 54.2682 32.7082 53.9116 32.7082 53.4717Z" fill="#111111"/>
<path id="Vector_160" d="M43.3293 53.4717C43.3293 53.0318 42.9727 52.6752 42.5328 52.6752C42.0929 52.6752 41.7363 53.0318 41.7363 53.4717C41.7363 53.9116 42.0929 54.2682 42.5328 54.2682C42.9727 54.2682 43.3293 53.9116 43.3293 53.4717Z" fill="#111111"/>
<path id="Vector_161" d="M48.6399 53.4717C48.6399 53.0318 48.2833 52.6752 47.8434 52.6752C47.4035 52.6752 47.0469 53.0318 47.0469 53.4717C47.0469 53.9116 47.4035 54.2682 47.8434 54.2682C48.2833 54.2682 48.6399 53.9116 48.6399 53.4717Z" fill="#111111"/>
<path id="Vector_162" d="M64.5715 53.4717C64.5715 53.0318 64.2149 52.6752 63.775 52.6752C63.3351 52.6752 62.9785 53.0318 62.9785 53.4717C62.9785 53.9116 63.3351 54.2682 63.775 54.2682C64.2149 54.2682 64.5715 53.9116 64.5715 53.4717Z" fill="#111111"/>
<path id="Vector_163" d="M67.2258 53.4717C67.2258 53.0318 66.8692 52.6752 66.4293 52.6752C65.9894 52.6752 65.6328 53.0318 65.6328 53.4717C65.6328 53.9116 65.9894 54.2682 66.4293 54.2682C66.8692 54.2682 67.2258 53.9116 67.2258 53.4717Z" fill="#111111"/>
<path id="Vector_164" d="M72.5324 53.4717C72.5324 53.0318 72.1758 52.6752 71.7359 52.6752C71.2961 52.6752 70.9395 53.0318 70.9395 53.4717C70.9395 53.9116 71.2961 54.2682 71.7359 54.2682C72.1758 54.2682 72.5324 53.9116 72.5324 53.4717Z" fill="#111111"/>
<path id="Vector_165" d="M30.0559 56.1266C30.0559 55.6868 29.6993 55.3302 29.2594 55.3302C28.8195 55.3302 28.4629 55.6868 28.4629 56.1266C28.4629 56.5665 28.8195 56.9231 29.2594 56.9231C29.6993 56.9231 30.0559 56.5665 30.0559 56.1266Z" fill="#111111"/>
<path id="Vector_166" d="M38.0207 56.1266C38.0207 55.6868 37.6641 55.3302 37.2242 55.3302C36.7843 55.3302 36.4277 55.6868 36.4277 56.1266C36.4277 56.5665 36.7843 56.9231 37.2242 56.9231C37.6641 56.9231 38.0207 56.5665 38.0207 56.1266Z" fill="#111111"/>
<path id="Vector_167" d="M43.3293 56.1266C43.3293 55.6868 42.9727 55.3302 42.5328 55.3302C42.0929 55.3302 41.7363 55.6868 41.7363 56.1266C41.7363 56.5665 42.0929 56.9231 42.5328 56.9231C42.9727 56.9231 43.3293 56.5665 43.3293 56.1266Z" fill="#111111"/>
<path id="Vector_168" d="M48.6399 56.1266C48.6399 55.6868 48.2833 55.3302 47.8434 55.3302C47.4035 55.3302 47.0469 55.6868 47.0469 56.1266C47.0469 56.5665 47.4035 56.9231 47.8434 56.9231C48.2833 56.9231 48.6399 56.5665 48.6399 56.1266Z" fill="#111111"/>
<path id="Vector_169" d="M61.2496 50.0201H53.0193C52.6527 50.0201 52.3555 50.3173 52.3555 50.6839V50.9492C52.3555 51.3159 52.6527 51.6131 53.0193 51.6131H61.2496C61.6162 51.6131 61.9134 51.3159 61.9134 50.9492V50.6839C61.9134 50.3173 61.6162 50.0201 61.2496 50.0201Z" fill="#111111"/>
<path id="Vector_170" d="M61.2514 52.6752H60.9861C60.6195 52.6752 60.3223 52.9724 60.3223 53.339V61.5693C60.3223 61.9359 60.6195 62.2331 60.9861 62.2331H61.2514C61.6181 62.2331 61.9152 61.9359 61.9152 61.5693V53.339C61.9152 52.9724 61.6181 52.6752 61.2514 52.6752Z" fill="#111111"/>
<path id="Vector_171" d="M58.5953 60.6402H50.365C49.9984 60.6402 49.7012 60.9374 49.7012 61.3041V61.5694C49.7012 61.936 49.9984 62.2332 50.365 62.2332H58.5953C58.9619 62.2332 59.2591 61.936 59.2591 61.5694V61.3041C59.2591 60.9374 58.9619 60.6402 58.5953 60.6402Z" fill="#111111"/>
<path id="Vector_172" d="M50.6303 50.0201H50.365C49.9984 50.0201 49.7012 50.3173 49.7012 50.6839V58.9142C49.7012 59.2808 49.9984 59.578 50.365 59.578H50.6303C50.997 59.578 51.2942 59.2808 51.2942 58.9142V50.6839C51.2942 50.3173 50.997 50.0201 50.6303 50.0201Z" fill="#111111"/>
<path id="Vector_173" d="M56.6047 56.1266C56.6047 55.6868 56.2481 55.3302 55.8082 55.3302C55.3683 55.3302 55.0117 55.6868 55.0117 56.1266C55.0117 56.5665 55.3683 56.9231 55.8082 56.9231C56.2481 56.9231 56.6047 56.5665 56.6047 56.1266Z" fill="#111111"/>
<path id="Vector_174" d="M69.8801 56.1266C69.8801 55.6868 69.5235 55.3302 69.0836 55.3302C68.6437 55.3302 68.2871 55.6868 68.2871 56.1266C68.2871 56.5665 68.6437 56.9231 69.0836 56.9231C69.5235 56.9231 69.8801 56.5665 69.8801 56.1266Z" fill="#111111"/>
<path id="Vector_175" d="M72.5324 56.1266C72.5324 55.6868 72.1758 55.3302 71.7359 55.3302C71.2961 55.3302 70.9395 55.6868 70.9395 56.1266C70.9395 56.5665 71.2961 56.9231 71.7359 56.9231C72.1758 56.9231 72.5324 56.5665 72.5324 56.1266Z" fill="#111111"/>
<path id="Vector_176" d="M30.0559 58.7818C30.0559 58.3419 29.6993 57.9853 29.2594 57.9853C28.8195 57.9853 28.4629 58.3419 28.4629 58.7818C28.4629 59.2217 28.8195 59.5783 29.2594 59.5783C29.6993 59.5783 30.0559 59.2217 30.0559 58.7818Z" fill="#111111"/>
<path id="Vector_177" d="M35.3645 58.7818C35.3645 58.3419 35.0079 57.9853 34.568 57.9853C34.1281 57.9853 33.7715 58.3419 33.7715 58.7818C33.7715 59.2217 34.1281 59.5783 34.568 59.5783C35.0079 59.5783 35.3645 59.2217 35.3645 58.7818Z" fill="#111111"/>
<path id="Vector_178" d="M40.677 58.7818C40.677 58.3419 40.3204 57.9853 39.8805 57.9853C39.4406 57.9853 39.084 58.3419 39.084 58.7818C39.084 59.2217 39.4406 59.5783 39.8805 59.5783C40.3204 59.5783 40.677 59.2217 40.677 58.7818Z" fill="#111111"/>
<path id="Vector_179" d="M43.3293 58.7818C43.3293 58.3419 42.9727 57.9853 42.5328 57.9853C42.0929 57.9853 41.7363 58.3419 41.7363 58.7818C41.7363 59.2217 42.0929 59.5783 42.5328 59.5783C42.9727 59.5783 43.3293 59.2217 43.3293 58.7818Z" fill="#111111"/>
<path id="Vector_180" d="M45.9856 58.7818C45.9856 58.3419 45.629 57.9853 45.1891 57.9853C44.7492 57.9853 44.3926 58.3419 44.3926 58.7818C44.3926 59.2217 44.7492 59.5783 45.1891 59.5783C45.629 59.5783 45.9856 59.2217 45.9856 58.7818Z" fill="#111111"/>
<path id="Vector_181" d="M64.5715 58.7818C64.5715 58.3419 64.2149 57.9853 63.775 57.9853C63.3351 57.9853 62.9785 58.3419 62.9785 58.7818C62.9785 59.2217 63.3351 59.5783 63.775 59.5783C64.2149 59.5783 64.5715 59.2217 64.5715 58.7818Z" fill="#111111"/>
<path id="Vector_182" d="M67.2258 58.7818C67.2258 58.3419 66.8692 57.9853 66.4293 57.9853C65.9894 57.9853 65.6328 58.3419 65.6328 58.7818C65.6328 59.2217 65.9894 59.5783 66.4293 59.5783C66.8692 59.5783 67.2258 59.2217 67.2258 58.7818Z" fill="#111111"/>
<path id="Vector_183" d="M69.8801 58.7818C69.8801 58.3419 69.5235 57.9853 69.0836 57.9853C68.6437 57.9853 68.2871 58.3419 68.2871 58.7818C68.2871 59.2217 68.6437 59.5783 69.0836 59.5783C69.5235 59.5783 69.8801 59.2217 69.8801 58.7818Z" fill="#111111"/>
<path id="Vector_184" d="M35.3645 61.4367C35.3645 60.9969 35.0079 60.6402 34.568 60.6402C34.1281 60.6402 33.7715 60.9969 33.7715 61.4367C33.7715 61.8766 34.1281 62.2332 34.568 62.2332C35.0079 62.2332 35.3645 61.8766 35.3645 61.4367Z" fill="#111111"/>
<path id="Vector_185" d="M40.677 61.4367C40.677 60.9969 40.3204 60.6402 39.8805 60.6402C39.4406 60.6402 39.084 60.9969 39.084 61.4367C39.084 61.8766 39.4406 62.2332 39.8805 62.2332C40.3204 62.2332 40.677 61.8766 40.677 61.4367Z" fill="#111111"/>
<path id="Vector_186" d="M43.3293 61.4367C43.3293 60.9969 42.9727 60.6402 42.5328 60.6402C42.0929 60.6402 41.7363 60.9969 41.7363 61.4367C41.7363 61.8766 42.0929 62.2332 42.5328 62.2332C42.9727 62.2332 43.3293 61.8766 43.3293 61.4367Z" fill="#111111"/>
<path id="Vector_187" d="M72.5324 61.4367C72.5324 60.9969 72.1758 60.6402 71.7359 60.6402C71.2961 60.6402 70.9395 60.9969 70.9395 61.4367C70.9395 61.8766 71.2961 62.2332 71.7359 62.2332C72.1758 62.2332 72.5324 61.8766 72.5324 61.4367Z" fill="#111111"/>
<path id="Vector_188" d="M30.0559 64.0919C30.0559 63.652 29.6993 63.2954 29.2594 63.2954C28.8195 63.2954 28.4629 63.652 28.4629 64.0919C28.4629 64.5318 28.8195 64.8884 29.2594 64.8884C29.6993 64.8884 30.0559 64.5318 30.0559 64.0919Z" fill="#111111"/>
<path id="Vector_189" d="M35.3645 64.0919C35.3645 63.652 35.0079 63.2954 34.568 63.2954C34.1281 63.2954 33.7715 63.652 33.7715 64.0919C33.7715 64.5318 34.1281 64.8884 34.568 64.8884C35.0079 64.8884 35.3645 64.5318 35.3645 64.0919Z" fill="#111111"/>
<path id="Vector_190" d="M43.3293 64.0919C43.3293 63.652 42.9727 63.2954 42.5328 63.2954C42.0929 63.2954 41.7363 63.652 41.7363 64.0919C41.7363 64.5318 42.0929 64.8884 42.5328 64.8884C42.9727 64.8884 43.3293 64.5318 43.3293 64.0919Z" fill="#111111"/>
<path id="Vector_191" d="M59.259 64.0919C59.259 63.652 58.9024 63.2954 58.4625 63.2954C58.0226 63.2954 57.666 63.652 57.666 64.0919C57.666 64.5318 58.0226 64.8884 58.4625 64.8884C58.9024 64.8884 59.259 64.5318 59.259 64.0919Z" fill="#111111"/>
<path id="Vector_192" d="M67.2258 64.0919C67.2258 63.652 66.8692 63.2954 66.4293 63.2954C65.9894 63.2954 65.6328 63.652 65.6328 64.0919C65.6328 64.5318 65.9894 64.8884 66.4293 64.8884C66.8692 64.8884 67.2258 64.5318 67.2258 64.0919Z" fill="#111111"/>
<path id="Vector_193" d="M32.7082 66.7464C32.7082 66.3065 32.3516 65.9499 31.9117 65.9499C31.4718 65.9499 31.1152 66.3065 31.1152 66.7464C31.1152 67.1863 31.4718 67.5429 31.9117 67.5429C32.3516 67.5429 32.7082 67.1863 32.7082 66.7464Z" fill="#111111"/>
<path id="Vector_194" d="M40.677 66.7464C40.677 66.3065 40.3204 65.9499 39.8805 65.9499C39.4406 65.9499 39.084 66.3065 39.084 66.7464C39.084 67.1863 39.4406 67.5429 39.8805 67.5429C40.3204 67.5429 40.677 67.1863 40.677 66.7464Z" fill="#111111"/>
<path id="Vector_195" d="M43.3293 66.7464C43.3293 66.3065 42.9727 65.9499 42.5328 65.9499C42.0929 65.9499 41.7363 66.3065 41.7363 66.7464C41.7363 67.1863 42.0929 67.5429 42.5328 67.5429C42.9727 67.5429 43.3293 67.1863 43.3293 66.7464Z" fill="#111111"/>
<path id="Vector_196" d="M51.2942 66.7464C51.2942 66.3065 50.9376 65.9499 50.4977 65.9499C50.0578 65.9499 49.7012 66.3065 49.7012 66.7464C49.7012 67.1863 50.0578 67.5429 50.4977 67.5429C50.9376 67.5429 51.2942 67.1863 51.2942 66.7464Z" fill="#111111"/>
<path id="Vector_197" d="M53.9485 66.7464C53.9485 66.3065 53.5919 65.9499 53.152 65.9499C52.7121 65.9499 52.3555 66.3065 52.3555 66.7464C52.3555 67.1863 52.7121 67.5429 53.152 67.5429C53.5919 67.5429 53.9485 67.1863 53.9485 66.7464Z" fill="#111111"/>
<path id="Vector_198" d="M61.9152 66.7464C61.9152 66.3065 61.5587 65.9499 61.1188 65.9499C60.6789 65.9499 60.3223 66.3065 60.3223 66.7464C60.3223 67.1863 60.6789 67.5429 61.1188 67.5429C61.5587 67.5429 61.9152 67.1863 61.9152 66.7464Z" fill="#111111"/>
<path id="Vector_199" d="M64.5715 66.7464C64.5715 66.3065 64.2149 65.9499 63.775 65.9499C63.3351 65.9499 62.9785 66.3065 62.9785 66.7464C62.9785 67.1863 63.3351 67.5429 63.775 67.5429C64.2149 67.5429 64.5715 67.1863 64.5715 66.7464Z" fill="#111111"/>
<path id="Vector_200" d="M67.2258 66.7464C67.2258 66.3065 66.8692 65.9499 66.4293 65.9499C65.9894 65.9499 65.6328 66.3065 65.6328 66.7464C65.6328 67.1863 65.9894 67.5429 66.4293 67.5429C66.8692 67.5429 67.2258 67.1863 67.2258 66.7464Z" fill="#111111"/>
<path id="Vector_201" d="M72.5324 66.7464C72.5324 66.3065 72.1758 65.9499 71.7359 65.9499C71.2961 65.9499 70.9395 66.3065 70.9395 66.7464C70.9395 67.1863 71.2961 67.5429 71.7359 67.5429C72.1758 67.5429 72.5324 67.1863 72.5324 66.7464Z" fill="#111111"/>
<path id="Vector_202" d="M30.0559 69.4016C30.0559 68.9617 29.6993 68.6051 29.2594 68.6051C28.8195 68.6051 28.4629 68.9617 28.4629 69.4016C28.4629 69.8415 28.8195 70.1981 29.2594 70.1981C29.6993 70.1981 30.0559 69.8415 30.0559 69.4016Z" fill="#111111"/>
<path id="Vector_203" d="M32.7082 69.4016C32.7082 68.9617 32.3516 68.6051 31.9117 68.6051C31.4718 68.6051 31.1152 68.9617 31.1152 69.4016C31.1152 69.8415 31.4718 70.1981 31.9117 70.1981C32.3516 70.1981 32.7082 69.8415 32.7082 69.4016Z" fill="#111111"/>
<path id="Vector_204" d="M35.3645 69.4016C35.3645 68.9617 35.0079 68.6051 34.568 68.6051C34.1281 68.6051 33.7715 68.9617 33.7715 69.4016C33.7715 69.8415 34.1281 70.1981 34.568 70.1981C35.0079 70.1981 35.3645 69.8415 35.3645 69.4016Z" fill="#111111"/>
<path id="Vector_205" d="M40.677 69.4016C40.677 68.9617 40.3204 68.6051 39.8805 68.6051C39.4406 68.6051 39.084 68.9617 39.084 69.4016C39.084 69.8415 39.4406 70.1981 39.8805 70.1981C40.3204 70.1981 40.677 69.8415 40.677 69.4016Z" fill="#111111"/>
<path id="Vector_206" d="M43.3293 69.4016C43.3293 68.9617 42.9727 68.6051 42.5328 68.6051C42.0929 68.6051 41.7363 68.9617 41.7363 69.4016C41.7363 69.8415 42.0929 70.1981 42.5328 70.1981C42.9727 70.1981 43.3293 69.8415 43.3293 69.4016Z" fill="#111111"/>
<path id="Vector_207" d="M48.6399 69.4016C48.6399 68.9617 48.2833 68.6051 47.8434 68.6051C47.4035 68.6051 47.0469 68.9617 47.0469 69.4016C47.0469 69.8415 47.4035 70.1981 47.8434 70.1981C48.2833 70.1981 48.6399 69.8415 48.6399 69.4016Z" fill="#111111"/>
<path id="Vector_208" d="M51.2942 69.4016C51.2942 68.9617 50.9376 68.6051 50.4977 68.6051C50.0578 68.6051 49.7012 68.9617 49.7012 69.4016C49.7012 69.8415 50.0578 70.1981 50.4977 70.1981C50.9376 70.1981 51.2942 69.8415 51.2942 69.4016Z" fill="#111111"/>
<path id="Vector_209" d="M64.5715 69.4016C64.5715 68.9617 64.2149 68.6051 63.775 68.6051C63.3351 68.6051 62.9785 68.9617 62.9785 69.4016C62.9785 69.8415 63.3351 70.1981 63.775 70.1981C64.2149 70.1981 64.5715 69.8415 64.5715 69.4016Z" fill="#111111"/>
<path id="Vector_210" d="M32.7082 72.0563C32.7082 71.6164 32.3516 71.2598 31.9117 71.2598C31.4718 71.2598 31.1152 71.6164 31.1152 72.0563C31.1152 72.4962 31.4718 72.8528 31.9117 72.8528C32.3516 72.8528 32.7082 72.4962 32.7082 72.0563Z" fill="#111111"/>
<path id="Vector_211" d="M35.3645 72.0563C35.3645 71.6164 35.0079 71.2598 34.568 71.2598C34.1281 71.2598 33.7715 71.6164 33.7715 72.0563C33.7715 72.4962 34.1281 72.8528 34.568 72.8528C35.0079 72.8528 35.3645 72.4962 35.3645 72.0563Z" fill="#111111"/>
<path id="Vector_212" d="M38.0207 72.0563C38.0207 71.6164 37.6641 71.2598 37.2242 71.2598C36.7843 71.2598 36.4277 71.6164 36.4277 72.0563C36.4277 72.4962 36.7843 72.8528 37.2242 72.8528C37.6641 72.8528 38.0207 72.4962 38.0207 72.0563Z" fill="#111111"/>
<path id="Vector_213" d="M40.677 72.0563C40.677 71.6164 40.3204 71.2598 39.8805 71.2598C39.4406 71.2598 39.084 71.6164 39.084 72.0563C39.084 72.4962 39.4406 72.8528 39.8805 72.8528C40.3204 72.8528 40.677 72.4962 40.677 72.0563Z" fill="#111111"/>
<path id="Vector_214" d="M43.3293 72.0563C43.3293 71.6164 42.9727 71.2598 42.5328 71.2598C42.0929 71.2598 41.7363 71.6164 41.7363 72.0563C41.7363 72.4962 42.0929 72.8528 42.5328 72.8528C42.9727 72.8528 43.3293 72.4962 43.3293 72.0563Z" fill="#111111"/>
<path id="Vector_215" d="M48.6399 72.0563C48.6399 71.6164 48.2833 71.2598 47.8434 71.2598C47.4035 71.2598 47.0469 71.6164 47.0469 72.0563C47.0469 72.4962 47.4035 72.8528 47.8434 72.8528C48.2833 72.8528 48.6399 72.4962 48.6399 72.0563Z" fill="#111111"/>
<path id="Vector_216" d="M51.2942 72.0563C51.2942 71.6164 50.9376 71.2598 50.4977 71.2598C50.0578 71.2598 49.7012 71.6164 49.7012 72.0563C49.7012 72.4962 50.0578 72.8528 50.4977 72.8528C50.9376 72.8528 51.2942 72.4962 51.2942 72.0563Z" fill="#111111"/>
<path id="Vector_217" d="M59.259 72.0563C59.259 71.6164 58.9024 71.2598 58.4625 71.2598C58.0226 71.2598 57.666 71.6164 57.666 72.0563C57.666 72.4962 58.0226 72.8528 58.4625 72.8528C58.9024 72.8528 59.259 72.4962 59.259 72.0563Z" fill="#111111"/>
<path id="Vector_218" d="M69.8801 72.0563C69.8801 71.6164 69.5235 71.2598 69.0836 71.2598C68.6437 71.2598 68.2871 71.6164 68.2871 72.0563C68.2871 72.4962 68.6437 72.8528 69.0836 72.8528C69.5235 72.8528 69.8801 72.4962 69.8801 72.0563Z" fill="#111111"/>
<path id="Vector_219" d="M72.5324 72.0563C72.5324 71.6164 72.1758 71.2598 71.7359 71.2598C71.2961 71.2598 70.9395 71.6164 70.9395 72.0563C70.9395 72.4962 71.2961 72.8528 71.7359 72.8528C72.1758 72.8528 72.5324 72.4962 72.5324 72.0563Z" fill="#111111"/>
<path id="Vector_220" d="M66.562 42.0554H66.2966C65.93 42.0554 65.6328 42.3526 65.6328 42.7192V45.6396C65.6328 46.0062 65.93 46.3034 66.2966 46.3034H66.562C66.9286 46.3034 67.2258 46.0062 67.2258 45.6396V42.7192C67.2258 42.3526 66.9286 42.0554 66.562 42.0554Z" fill="#111111"/>
<path id="Vector_221" d="M66.562 50.0201H66.2966C65.93 50.0201 65.6328 50.3173 65.6328 50.6839V53.6042C65.6328 53.9708 65.93 54.268 66.2966 54.268H66.562C66.9286 54.268 67.2258 53.9708 67.2258 53.6042V50.6839C67.2258 50.3173 66.9286 50.0201 66.562 50.0201Z" fill="#111111"/>
<path id="Vector_222" d="M66.562 63.2954H66.2966C65.93 63.2954 65.6328 63.5926 65.6328 63.9592V66.8795C65.6328 67.2462 65.93 67.5434 66.2966 67.5434H66.562C66.9286 67.5434 67.2258 67.2462 67.2258 66.8795V63.9592C67.2258 63.5926 66.9286 63.2954 66.562 63.2954Z" fill="#111111"/>
<path id="Vector_223" d="M71.8713 55.3302H68.9509C68.5843 55.3302 68.2871 55.6274 68.2871 55.994V56.2593C68.2871 56.6259 68.5843 56.9231 68.9509 56.9231H71.8713C72.2379 56.9231 72.5351 56.6259 72.5351 56.2593V55.994C72.5351 55.6274 72.2379 55.3302 71.8713 55.3302Z" fill="#111111"/>
<path id="Vector_224" d="M8.15183 31.4353H7.88647C7.51985 31.4353 7.22266 31.7325 7.22266 32.0991V35.0194C7.22266 35.386 7.51985 35.6832 7.88647 35.6832H8.15183C8.51844 35.6832 8.81564 35.386 8.81564 35.0194V32.0991C8.81564 31.7325 8.51844 31.4353 8.15183 31.4353Z" fill="#111111"/>
<path id="Vector_225" d="M47.9761 7.54074H47.7107C47.3441 7.54074 47.0469 7.83794 47.0469 8.20456V13.7799C47.0469 14.1465 47.3441 14.4437 47.7107 14.4437H47.9761C48.3427 14.4437 48.6399 14.1465 48.6399 13.7799V8.20456C48.6399 7.83794 48.3427 7.54074 47.9761 7.54074Z" fill="#111111"/>
<path id="Vector_226" d="M47.9761 18.1605H47.7107C47.3441 18.1605 47.0469 18.4577 47.0469 18.8243V21.7447C47.0469 22.1113 47.3441 22.4085 47.7107 22.4085H47.9761C48.3427 22.4085 48.6399 22.1113 48.6399 21.7447V18.8243C48.6399 18.4577 48.3427 18.1605 47.9761 18.1605Z" fill="#111111"/>
<path id="Vector_227" d="M47.9761 36.7451H47.7107C47.3441 36.7451 47.0469 37.0423 47.0469 37.409V40.3293C47.0469 40.6959 47.3441 40.9931 47.7107 40.9931H47.9761C48.3427 40.9931 48.6399 40.6959 48.6399 40.3293V37.409C48.6399 37.0423 48.3427 36.7451 47.9761 36.7451Z" fill="#111111"/>
<path id="Vector_228" d="M47.9761 52.6752H47.7107C47.3441 52.6752 47.0469 52.9724 47.0469 53.339V56.2594C47.0469 56.626 47.3441 56.9232 47.7107 56.9232H47.9761C48.3427 56.9232 48.6399 56.626 48.6399 56.2594V53.339C48.6399 52.9724 48.3427 52.6752 47.9761 52.6752Z" fill="#111111"/>
<path id="Vector_229" d="M47.9761 68.6051H47.7107C47.3441 68.6051 47.0469 68.9023 47.0469 69.2689V72.1892C47.0469 72.5558 47.3441 72.853 47.7107 72.853H47.9761C48.3427 72.853 48.6399 72.5558 48.6399 72.1892V69.2689C48.6399 68.9023 48.3427 68.6051 47.9761 68.6051Z" fill="#111111"/>
<path id="Vector_230" d="M61.2514 44.7102H60.9861C60.6195 44.7102 60.3223 45.0074 60.3223 45.374V48.2943C60.3223 48.6609 60.6195 48.9581 60.9861 48.9581H61.2514C61.6181 48.9581 61.9152 48.6609 61.9152 48.2943V45.374C61.9152 45.0074 61.6181 44.7102 61.2514 44.7102Z" fill="#111111"/>
<path id="Vector_231" d="M18.771 34.0904H18.5056C18.139 34.0904 17.8418 34.3876 17.8418 34.7542V45.6395C17.8418 46.0061 18.139 46.3033 18.5056 46.3033H18.771C19.1376 46.3033 19.4348 46.0061 19.4348 45.6395V34.7542C19.4348 34.3876 19.1376 34.0904 18.771 34.0904Z" fill="#111111"/>
<path id="Vector_232" d="M61.2502 36.7451H58.3298C57.9632 36.7451 57.666 37.0423 57.666 37.409V37.6743C57.666 38.0409 57.9632 38.3381 58.3298 38.3381H61.2502C61.6168 38.3381 61.914 38.0409 61.914 37.6743V37.409C61.914 37.0423 61.6168 36.7451 61.2502 36.7451Z" fill="#111111"/>
<path id="Vector_233" d="M29.3921 12.8506H29.1267C28.7601 12.8506 28.4629 13.1478 28.4629 13.5144V16.4348C28.4629 16.8014 28.7601 17.0986 29.1267 17.0986H29.3921C29.7587 17.0986 30.0559 16.8014 30.0559 16.4348V13.5144C30.0559 13.1478 29.7587 12.8506 29.3921 12.8506Z" fill="#111111"/>
<path id="Vector_234" d="M29.3921 20.8153H29.1267C28.7601 20.8153 28.4629 21.1125 28.4629 21.4791V29.7094C28.4629 30.076 28.7601 30.3732 29.1267 30.3732H29.3921C29.7587 30.3732 30.0559 30.076 30.0559 29.7094V21.4791C30.0559 21.1125 29.7587 20.8153 29.3921 20.8153Z" fill="#111111"/>
<path id="Vector_235" d="M29.3921 34.0904H29.1267C28.7601 34.0904 28.4629 34.3876 28.4629 34.7542V40.3295C28.4629 40.6961 28.7601 40.9933 29.1267 40.9933H29.3921C29.7587 40.9933 30.0559 40.6961 30.0559 40.3295V34.7542C30.0559 34.3876 29.7587 34.0904 29.3921 34.0904Z" fill="#111111"/>
<path id="Vector_236" d="M29.3921 52.6752H29.1267C28.7601 52.6752 28.4629 52.9724 28.4629 53.339V58.9143C28.4629 59.281 28.7601 59.5781 29.1267 59.5781H29.3921C29.7587 59.5781 30.0559 59.281 30.0559 58.9143V53.339C30.0559 52.9724 29.7587 52.6752 29.3921 52.6752Z" fill="#111111"/>
<path id="Vector_237" d="M42.6681 60.6402H39.7478C39.3812 60.6402 39.084 60.9374 39.084 61.3041V61.5694C39.084 61.936 39.3812 62.2332 39.7478 62.2332H42.6681C43.0347 62.2332 43.3319 61.936 43.3319 61.5694V61.3041C43.3319 60.9374 43.0347 60.6402 42.6681 60.6402Z" fill="#111111"/>
<path id="Vector_238" d="M37.3556 26.1254H34.4353C34.0687 26.1254 33.7715 26.4226 33.7715 26.7892V27.0545C33.7715 27.4212 34.0687 27.7184 34.4353 27.7184H37.3556C37.7222 27.7184 38.0194 27.4212 38.0194 27.0545V26.7892C38.0194 26.4226 37.7222 26.1254 37.3556 26.1254Z" fill="#111111"/>
<path id="Vector_239" d="M55.9403 31.4353H50.365C49.9984 31.4353 49.7012 31.7325 49.7012 32.0991V32.3644C49.7012 32.731 49.9984 33.0282 50.365 33.0282H55.9403C56.3069 33.0282 56.6041 32.731 56.6041 32.3644V32.0991C56.6041 31.7325 56.3069 31.4353 55.9403 31.4353Z" fill="#111111"/>
<path id="Vector_240" d="M58.5952 34.0904H58.3298C57.9632 34.0904 57.666 34.3876 57.666 34.7542V35.0196C57.666 35.3862 57.9632 35.6834 58.3298 35.6834H58.5952C58.9618 35.6834 59.259 35.3862 59.259 35.0196V34.7542C59.259 34.3876 58.9618 34.0904 58.5952 34.0904Z" fill="#111111"/>
<path id="Vector_241" d="M58.5952 39.4005H58.3298C57.9632 39.4005 57.666 39.6977 57.666 40.0643V45.6396C57.666 46.0062 57.9632 46.3034 58.3298 46.3034H58.5952C58.9618 46.3034 59.259 46.0062 59.259 45.6396V40.0643C59.259 39.6977 58.9618 39.4005 58.5952 39.4005Z" fill="#111111"/>
<path id="Vector_242" d="M26.7378 44.7102H26.4724C26.1058 44.7102 25.8086 45.0074 25.8086 45.374V50.9493C25.8086 51.3159 26.1058 51.6131 26.4724 51.6131H26.7378C27.1044 51.6131 27.4016 51.3159 27.4016 50.9493V45.374C27.4016 45.0074 27.1044 44.7102 26.7378 44.7102Z" fill="#111111"/>
<path id="Vector_243" d="M42.6681 65.9499H39.7478C39.3812 65.9499 39.084 66.2471 39.084 66.6138V66.8791C39.084 67.2457 39.3812 67.5429 39.7478 67.5429H42.6681C43.0347 67.5429 43.3319 67.2457 43.3319 66.8791V66.6138C43.3319 66.2471 43.0347 65.9499 42.6681 65.9499Z" fill="#111111"/>
<path id="Vector_244" d="M53.2853 65.9499H50.365C49.9984 65.9499 49.7012 66.2471 49.7012 66.6138V66.8791C49.7012 67.2457 49.9984 67.5429 50.365 67.5429H53.2853C53.6519 67.5429 53.9491 67.2457 53.9491 66.8791V66.6138C53.9491 66.2471 53.6519 65.9499 53.2853 65.9499Z" fill="#111111"/>
<path id="Vector_245" d="M10.8068 50.0201H7.88647C7.51985 50.0201 7.22266 50.3173 7.22266 50.6839V50.9492C7.22266 51.3159 7.51985 51.6131 7.88647 51.6131H10.8068C11.1734 51.6131 11.4706 51.3159 11.4706 50.9492V50.6839C11.4706 50.3173 11.1734 50.0201 10.8068 50.0201Z" fill="#111111"/>
<path id="Vector_246" d="M42.6681 50.0201H39.7478C39.3812 50.0201 39.084 50.3173 39.084 50.6839V50.9492C39.084 51.3159 39.3812 51.6131 39.7478 51.6131H42.6681C43.0347 51.6131 43.3319 51.3159 43.3319 50.9492V50.6839C43.3319 50.3173 43.0347 50.0201 42.6681 50.0201Z" fill="#111111"/>
<path id="Vector_247" d="M34.702 68.6051H29.1267C28.7601 68.6051 28.4629 68.9023 28.4629 69.2689V69.5342C28.4629 69.9009 28.7601 70.1981 29.1267 70.1981H34.702C35.0686 70.1981 35.3658 69.9009 35.3658 69.5342V69.2689C35.3658 68.9023 35.0686 68.6051 34.702 68.6051Z" fill="#111111"/>
<path id="Vector_248" d="M42.6681 68.6051H39.7478C39.3812 68.6051 39.084 68.9023 39.084 69.2689V69.5342C39.084 69.9009 39.3812 70.1981 39.7478 70.1981H42.6681C43.0347 70.1981 43.3319 69.9009 43.3319 69.5342V69.2689C43.3319 68.9023 43.0347 68.6051 42.6681 68.6051Z" fill="#111111"/>
<path id="Vector_249" d="M37.3556 10.1955H34.4353C34.0687 10.1955 33.7715 10.4927 33.7715 10.8593V11.1247C33.7715 11.4913 34.0687 11.7885 34.4353 11.7885H37.3556C37.7222 11.7885 38.0194 11.4913 38.0194 11.1247V10.8593C38.0194 10.4927 37.7222 10.1955 37.3556 10.1955Z" fill="#111111"/>
<path id="Vector_250" d="M40.0132 28.7807H39.7478C39.3812 28.7807 39.084 29.0779 39.084 29.4445V32.3649C39.084 32.7315 39.3812 33.0287 39.7478 33.0287H40.0132C40.3798 33.0287 40.677 32.7315 40.677 32.3649V29.4445C40.677 29.0779 40.3798 28.7807 40.0132 28.7807Z" fill="#111111"/>
<path id="Vector_251" d="M40.0132 47.3653H39.7478C39.3812 47.3653 39.084 47.6625 39.084 48.0291V48.2945C39.084 48.6611 39.3812 48.9583 39.7478 48.9583H40.0132C40.3798 48.9583 40.677 48.6611 40.677 48.2945V48.0291C40.677 47.6625 40.3798 47.3653 40.0132 47.3653Z" fill="#111111"/>
<path id="Vector_252" d="M40.0132 57.9853H39.7478C39.3812 57.9853 39.084 58.2825 39.084 58.6491V58.9145C39.084 59.2811 39.3812 59.5783 39.7478 59.5783H40.0132C40.3798 59.5783 40.677 59.2811 40.677 58.9145V58.6491C40.677 58.2825 40.3798 57.9853 40.0132 57.9853Z" fill="#111111"/>
<path id="Vector_253" d="M37.3556 44.7102H34.4353C34.0687 44.7102 33.7715 45.0074 33.7715 45.374V45.6394C33.7715 46.006 34.0687 46.3032 34.4353 46.3032H37.3556C37.7222 46.3032 38.0194 46.006 38.0194 45.6394V45.374C38.0194 45.0074 37.7222 44.7102 37.3556 44.7102Z" fill="#111111"/>
<path id="Vector_254" d="M45.3205 44.7102H42.4001C42.0335 44.7102 41.7363 45.0074 41.7363 45.374V45.6394C41.7363 46.006 42.0335 46.3032 42.4001 46.3032H45.3205C45.6871 46.3032 45.9843 46.006 45.9843 45.6394V45.374C45.9843 45.0074 45.6871 44.7102 45.3205 44.7102Z" fill="#111111"/>
<path id="Vector_255" d="M21.4272 34.0904H21.1619C20.7952 34.0904 20.498 34.3876 20.498 34.7542V37.6746C20.498 38.0412 20.7952 38.3384 21.1619 38.3384H21.4272C21.7938 38.3384 22.091 38.0412 22.091 37.6746V34.7542C22.091 34.3876 21.7938 34.0904 21.4272 34.0904Z" fill="#111111"/>
<path id="Vector_256" d="M21.4272 42.0554H21.1619C20.7952 42.0554 20.498 42.3526 20.498 42.7192V48.2946C20.498 48.6612 20.7952 48.9584 21.1619 48.9584H21.4272C21.7938 48.9584 22.091 48.6612 22.091 48.2946V42.7192C22.091 42.3526 21.7938 42.0554 21.4272 42.0554Z" fill="#111111"/>
<path id="Vector_257" d="M63.9077 39.4005H63.6423C63.2757 39.4005 62.9785 39.6977 62.9785 40.0643V42.9846C62.9785 43.3512 63.2757 43.6484 63.6423 43.6484H63.9077C64.2743 43.6484 64.5715 43.3512 64.5715 42.9846V40.0643C64.5715 39.6977 64.2743 39.4005 63.9077 39.4005Z" fill="#111111"/>
<path id="Vector_258" d="M63.9077 47.3653H63.6423C63.2757 47.3653 62.9785 47.6625 62.9785 48.0291V53.6045C62.9785 53.9711 63.2757 54.2683 63.6423 54.2683H63.9077C64.2743 54.2683 64.5715 53.9711 64.5715 53.6045V48.0291C64.5715 47.6625 64.2743 47.3653 63.9077 47.3653Z" fill="#111111"/>
<path id="Vector_259" d="M63.9077 65.9499H63.6423C63.2757 65.9499 62.9785 66.2471 62.9785 66.6138V69.5341C62.9785 69.9007 63.2757 70.1979 63.6423 70.1979H63.9077C64.2743 70.1979 64.5715 69.9007 64.5715 69.5341V66.6138C64.5715 66.2471 64.2743 65.9499 63.9077 65.9499Z" fill="#111111"/>
<path id="Vector_260" d="M40.0106 39.4005H34.4353C34.0687 39.4005 33.7715 39.6977 33.7715 40.0643V40.3297C33.7715 40.6963 34.0687 40.9935 34.4353 40.9935H40.0106C40.3772 40.9935 40.6744 40.6963 40.6744 40.3297V40.0643C40.6744 39.6977 40.3772 39.4005 40.0106 39.4005Z" fill="#111111"/>
<path id="Vector_261" d="M71.8713 39.4005H68.9509C68.5843 39.4005 68.2871 39.6977 68.2871 40.0643V40.3297C68.2871 40.6963 68.5843 40.9935 68.9509 40.9935H71.8713C72.2379 40.9935 72.5351 40.6963 72.5351 40.3297V40.0643C72.5351 39.6977 72.2379 39.4005 71.8713 39.4005Z" fill="#111111"/>
<path id="Vector_262" d="M69.2176 57.9853H63.6423C63.2757 57.9853 62.9785 58.2825 62.9785 58.6491V58.9145C62.9785 59.2811 63.2757 59.5783 63.6423 59.5783H69.2176C69.5843 59.5783 69.8815 59.2811 69.8815 58.9145V58.6491C69.8815 58.2825 69.5843 57.9853 69.2176 57.9853Z" fill="#111111"/>
<path id="Vector_263" d="M55.9409 28.7807H55.6755C55.3089 28.7807 55.0117 29.0779 55.0117 29.4445V29.7099C55.0117 30.0765 55.3089 30.3737 55.6755 30.3737H55.9409C56.3075 30.3737 56.6047 30.0765 56.6047 29.7099V29.4445C56.6047 29.0779 56.3075 28.7807 55.9409 28.7807Z" fill="#111111"/>
<path id="Vector_264" d="M55.9409 39.4005H55.6755C55.3089 39.4005 55.0117 39.6977 55.0117 40.0643V45.6396C55.0117 46.0062 55.3089 46.3034 55.6755 46.3034H55.9409C56.3075 46.3034 56.6047 46.0062 56.6047 45.6396V40.0643C56.6047 39.6977 56.3075 39.4005 55.9409 39.4005Z" fill="#111111"/>
<path id="Vector_265" d="M53.2846 28.7807H53.0193C52.6527 28.7807 52.3555 29.0779 52.3555 29.4445V29.7099C52.3555 30.0765 52.6527 30.3737 53.0193 30.3737H53.2846C53.6513 30.3737 53.9485 30.0765 53.9485 29.7099V29.4445C53.9485 29.0779 53.6513 28.7807 53.2846 28.7807Z" fill="#111111"/>
<path id="Vector_266" d="M53.2846 39.4005H53.0193C52.6527 39.4005 52.3555 39.6977 52.3555 40.0643V42.9846C52.3555 43.3512 52.6527 43.6484 53.0193 43.6484H53.2846C53.6513 43.6484 53.9485 43.3512 53.9485 42.9846V40.0643C53.9485 39.6977 53.6513 39.4005 53.2846 39.4005Z" fill="#111111"/>
<path id="Vector_267" d="M37.3544 42.0554H31.779C31.4124 42.0554 31.1152 42.3526 31.1152 42.7192V42.9846C31.1152 43.3512 31.4124 43.6484 31.779 43.6484H37.3544C37.721 43.6484 38.0182 43.3512 38.0182 42.9846V42.7192C38.0182 42.3526 37.721 42.0554 37.3544 42.0554Z" fill="#111111"/>
<path id="Vector_268" d="M16.1147 28.7807H15.8494C15.4827 28.7807 15.1855 29.0779 15.1855 29.4445V37.6748C15.1855 38.0414 15.4827 38.3386 15.8494 38.3386H16.1147C16.4813 38.3386 16.7785 38.0414 16.7785 37.6748V29.4445C16.7785 29.0779 16.4813 28.7807 16.1147 28.7807Z" fill="#111111"/>
<path id="Vector_269" d="M16.1147 42.0554H15.8494C15.4827 42.0554 15.1855 42.3526 15.1855 42.7192V48.2946C15.1855 48.6612 15.4827 48.9584 15.8494 48.9584H16.1147C16.4813 48.9584 16.7785 48.6612 16.7785 48.2946V42.7192C16.7785 42.3526 16.4813 42.0554 16.1147 42.0554Z" fill="#111111"/>
<path id="Vector_270" d="M37.3556 7.54074H34.4353C34.0687 7.54074 33.7715 7.83794 33.7715 8.20456V8.46992C33.7715 8.83653 34.0687 9.13373 34.4353 9.13373H37.3556C37.7222 9.13373 38.0194 8.83653 38.0194 8.46992V8.20456C38.0194 7.83794 37.7222 7.54074 37.3556 7.54074Z" fill="#111111"/>
<path id="Vector_271" d="M37.3569 36.7451H37.0915C36.7249 36.7451 36.4277 37.0423 36.4277 37.409V37.6743C36.4277 38.0409 36.7249 38.3381 37.0915 38.3381H37.3569C37.7235 38.3381 38.0207 38.0409 38.0207 37.6743V37.409C38.0207 37.0423 37.7235 36.7451 37.3569 36.7451Z" fill="#111111"/>
<path id="Vector_272" d="M50.6303 20.8153H50.365C49.9984 20.8153 49.7012 21.1125 49.7012 21.4791V29.7094C49.7012 30.076 49.9984 30.3732 50.365 30.3732H50.6303C50.997 30.3732 51.2942 30.076 51.2942 29.7094V21.4791C51.2942 21.1125 50.997 20.8153 50.6303 20.8153Z" fill="#111111"/>
<path id="Vector_273" d="M50.6303 44.7102H50.365C49.9984 44.7102 49.7012 45.0074 49.7012 45.374V48.2943C49.7012 48.6609 49.9984 48.9581 50.365 48.9581H50.6303C50.997 48.9581 51.2942 48.6609 51.2942 48.2943V45.374C51.2942 45.0074 50.997 44.7102 50.6303 44.7102Z" fill="#111111"/>
<path id="Vector_274" d="M50.6303 68.6051H50.365C49.9984 68.6051 49.7012 68.9023 49.7012 69.2689V72.1892C49.7012 72.5558 49.9984 72.853 50.365 72.853H50.6303C50.997 72.853 51.2942 72.5558 51.2942 72.1892V69.2689C51.2942 68.9023 50.997 68.6051 50.6303 68.6051Z" fill="#111111"/>
<path id="Vector_275" d="M42.6655 34.0904H42.4001C42.0335 34.0904 41.7363 34.3876 41.7363 34.7542V37.6746C41.7363 38.0412 42.0335 38.3384 42.4001 38.3384H42.6655C43.0321 38.3384 43.3293 38.0412 43.3293 37.6746V34.7542C43.3293 34.3876 43.0321 34.0904 42.6655 34.0904Z" fill="#111111"/>
<path id="Vector_276" d="M42.6655 42.0554H42.4001C42.0335 42.0554 41.7363 42.3526 41.7363 42.7192V42.9846C41.7363 43.3512 42.0335 43.6484 42.4001 43.6484H42.6655C43.0321 43.6484 43.3293 43.3512 43.3293 42.9846V42.7192C43.3293 42.3526 43.0321 42.0554 42.6655 42.0554Z" fill="#111111"/>
<path id="Vector_277" d="M42.6655 52.6752H42.4001C42.0335 52.6752 41.7363 52.9724 41.7363 53.339V58.9143C41.7363 59.281 42.0335 59.5781 42.4001 59.5781H42.6655C43.0321 59.5781 43.3293 59.281 43.3293 58.9143V53.339C43.3293 52.9724 43.0321 52.6752 42.6655 52.6752Z" fill="#111111"/>
<path id="Vector_278" d="M42.6655 63.2954H42.4001C42.0335 63.2954 41.7363 63.5926 41.7363 63.9592V64.2246C41.7363 64.5912 42.0335 64.8884 42.4001 64.8884H42.6655C43.0321 64.8884 43.3293 64.5912 43.3293 64.2246V63.9592C43.3293 63.5926 43.0321 63.2954 42.6655 63.2954Z" fill="#111111"/>
<path id="Vector_279" d="M66.5627 28.7807H63.6423C63.2757 28.7807 62.9785 29.0779 62.9785 29.4445V29.7099C62.9785 30.0765 63.2757 30.3737 63.6423 30.3737H66.5627C66.9293 30.3737 67.2265 30.0765 67.2265 29.7099V29.4445C67.2265 29.0779 66.9293 28.7807 66.5627 28.7807Z" fill="#111111"/>
<path id="Vector_280" d="M71.8713 34.0904H68.9509C68.5843 34.0904 68.2871 34.3876 68.2871 34.7542V35.0196C68.2871 35.3862 68.5843 35.6834 68.9509 35.6834H71.8713C72.2379 35.6834 72.5351 35.3862 72.5351 35.0196V34.7542C72.5351 34.3876 72.2379 34.0904 71.8713 34.0904Z" fill="#111111"/>
<path id="Vector_281" d="M71.8686 28.7807H71.6033C71.2367 28.7807 70.9395 29.0779 70.9395 29.4445V32.3649C70.9395 32.7315 71.2367 33.0287 71.6033 33.0287H71.8686C72.2352 33.0287 72.5324 32.7315 72.5324 32.3649V29.4445C72.5324 29.0779 72.2352 28.7807 71.8686 28.7807Z" fill="#111111"/>
<path id="Vector_282" d="M71.8686 42.0554H71.6033C71.2367 42.0554 70.9395 42.3526 70.9395 42.7192V45.6396C70.9395 46.0062 71.2367 46.3034 71.6033 46.3034H71.8686C72.2352 46.3034 72.5324 46.0062 72.5324 45.6396V42.7192C72.5324 42.3526 72.2352 42.0554 71.8686 42.0554Z" fill="#111111"/>
<path id="Vector_283" d="M71.8686 52.6752H71.6033C71.2367 52.6752 70.9395 52.9724 70.9395 53.339V53.6044C70.9395 53.971 71.2367 54.2682 71.6033 54.2682H71.8686C72.2352 54.2682 72.5324 53.971 72.5324 53.6044V53.339C72.5324 52.9724 72.2352 52.6752 71.8686 52.6752Z" fill="#111111"/>
<path id="Vector_284" d="M45.3218 12.8506H45.0564C44.6898 12.8506 44.3926 13.1478 44.3926 13.5144V19.0898C44.3926 19.4564 44.6898 19.7536 45.0564 19.7536H45.3218C45.6884 19.7536 45.9856 19.4564 45.9856 19.0898V13.5144C45.9856 13.1478 45.6884 12.8506 45.3218 12.8506Z" fill="#111111"/>
<path id="Vector_285" d="M45.3218 23.4708H45.0564C44.6898 23.4708 44.3926 23.768 44.3926 24.1346V29.7099C44.3926 30.0766 44.6898 30.3737 45.0564 30.3737H45.3218C45.6884 30.3737 45.9856 30.0766 45.9856 29.7099V24.1346C45.9856 23.768 45.6884 23.4708 45.3218 23.4708Z" fill="#111111"/>
<path id="Vector_286" d="M34.7007 23.4708H34.4353C34.0687 23.4708 33.7715 23.768 33.7715 24.1346V24.4C33.7715 24.7666 34.0687 25.0638 34.4353 25.0638H34.7007C35.0673 25.0638 35.3645 24.7666 35.3645 24.4V24.1346C35.3645 23.768 35.0673 23.4708 34.7007 23.4708Z" fill="#111111"/>
<path id="Vector_287" d="M34.7007 57.9853H34.4353C34.0687 57.9853 33.7715 58.2825 33.7715 58.6491V64.2244C33.7715 64.591 34.0687 64.8882 34.4353 64.8882H34.7007C35.0673 64.8882 35.3645 64.591 35.3645 64.2244V58.6491C35.3645 58.2825 35.0673 57.9853 34.7007 57.9853Z" fill="#111111"/>
<path id="Vector_288" d="M32.0444 18.1605H31.779C31.4124 18.1605 31.1152 18.4577 31.1152 18.8243V21.7447C31.1152 22.1113 31.4124 22.4085 31.779 22.4085H32.0444C32.411 22.4085 32.7082 22.1113 32.7082 21.7447V18.8243C32.7082 18.4577 32.411 18.1605 32.0444 18.1605Z" fill="#111111"/>
<path id="Vector_289" d="M32.0444 31.4353H31.779C31.4124 31.4353 31.1152 31.7325 31.1152 32.0991V35.0194C31.1152 35.386 31.4124 35.6832 31.779 35.6832H32.0444C32.411 35.6832 32.7082 35.386 32.7082 35.0194V32.0991C32.7082 31.7325 32.411 31.4353 32.0444 31.4353Z" fill="#111111"/>
<path id="Vector_290" d="M32.0444 50.0201H31.779C31.4124 50.0201 31.1152 50.3173 31.1152 50.6839V53.6042C31.1152 53.9708 31.4124 54.268 31.779 54.268H32.0444C32.411 54.268 32.7082 53.9708 32.7082 53.6042V50.6839C32.7082 50.3173 32.411 50.0201 32.0444 50.0201Z" fill="#111111"/>
<path id="Vector_291" d="M32.0444 65.9499H31.779C31.4124 65.9499 31.1152 66.2471 31.1152 66.6138V66.8791C31.1152 67.2457 31.4124 67.5429 31.779 67.5429H32.0444C32.411 67.5429 32.7082 67.2457 32.7082 66.8791V66.6138C32.7082 66.2471 32.411 65.9499 32.0444 65.9499Z" fill="#111111"/>
<path id="Vector_292" d="M42.6643 71.2598H31.779C31.4124 71.2598 31.1152 71.557 31.1152 71.9236V72.189C31.1152 72.5556 31.4124 72.8528 31.779 72.8528H42.6643C43.0309 72.8528 43.3281 72.5556 43.3281 72.189V71.9236C43.3281 71.557 43.0309 71.2598 42.6643 71.2598Z" fill="#111111"/>
<path id="Vector_293" d="M71.8713 71.2598H68.9509C68.5843 71.2598 68.2871 71.557 68.2871 71.9236V72.189C68.2871 72.5556 68.5843 72.8528 68.9509 72.8528H71.8713C72.2379 72.8528 72.5351 72.5556 72.5351 72.189V71.9236C72.5351 71.557 72.2379 71.2598 71.8713 71.2598Z" fill="#111111"/>
<path id="Vector_294" d="M10.8081 28.7807H10.5427C10.1761 28.7807 9.87891 29.0779 9.87891 29.4445V35.0198C9.87891 35.3864 10.1761 35.6836 10.5427 35.6836H10.8081C11.1747 35.6836 11.4719 35.3864 11.4719 35.0198V29.4445C11.4719 29.0779 11.1747 28.7807 10.8081 28.7807Z" fill="#111111"/>
<path id="Vector_295" d="M10.8081 47.3653H10.5427C10.1761 47.3653 9.87891 47.6625 9.87891 48.0291V48.2945C9.87891 48.6611 10.1761 48.9583 10.5427 48.9583H10.8081C11.1747 48.9583 11.4719 48.6611 11.4719 48.2945V48.0291C11.4719 47.6625 11.1747 47.3653 10.8081 47.3653Z" fill="#111111"/>
</g>
<g id="Group_3">
<path id="Vector_296" d="M8.01367 8.33365H21.2886C21.6372 8.33365 21.9825 8.40233 22.3046 8.53575C22.6267 8.66918 22.9194 8.86474 23.1659 9.11128C23.4124 9.35781 23.608 9.6505 23.7414 9.97261C23.8749 10.2947 23.9435 10.64 23.9435 10.9886V24.2635H21.2886H10.6686C10.32 24.2635 9.97475 24.1948 9.65263 24.0614C9.33052 23.928 9.03783 23.7324 8.7913 23.4859C8.29339 22.988 8.01367 22.3127 8.01367 21.6085V8.33365Z" stroke="#111111" stroke-width="3.63964"/>
<path id="Vector_297" d="M11.9961 12.3164H18.6335C18.9856 12.3164 19.3233 12.4562 19.5722 12.7052C19.8212 12.9541 19.961 13.2918 19.961 13.6439V20.2813H18.6335H13.3236C12.9715 20.2813 12.6339 20.1414 12.3849 19.8925C12.136 19.6435 11.9961 19.3059 11.9961 18.9538V12.3164Z" fill="#111111"/>
<path id="Vector_298" d="M71.7424 8.33367V21.6086C71.7424 22.3127 71.4626 22.988 70.9647 23.4859C70.4668 23.9838 69.7915 24.2635 69.0874 24.2635H58.4675H55.8125V10.9886C55.8125 10.2845 56.0922 9.6092 56.5901 9.1113C57.088 8.61339 57.7633 8.33367 58.4675 8.33367H71.7424Z" stroke="#111111" stroke-width="3.63964"/>
<path id="Vector_299" d="M67.7559 12.3164V18.9538C67.7559 19.3059 67.6161 19.6435 67.3671 19.8925C67.1182 20.1414 66.7805 20.2813 66.4285 20.2813H61.1185H59.791V13.6439C59.791 13.2918 59.9309 12.9541 60.1798 12.7052C60.4288 12.4562 60.7664 12.3164 61.1185 12.3164H67.7559Z" fill="#111111"/>
<path id="Vector_300" d="M23.9435 56.1297V69.4046C23.9435 70.1087 23.6638 70.784 23.1659 71.2819C22.668 71.7798 21.9927 72.0596 21.2886 72.0596H10.6686H8.01367V58.7847C8.01367 58.0805 8.29339 57.4052 8.7913 56.9073C9.2892 56.4094 9.9645 56.1297 10.6686 56.1297H23.9435Z" stroke="#111111" stroke-width="3.63964"/>
<path id="Vector_301" d="M15.9786 60.1124H19.961V61.4399V66.7499C19.961 67.1019 19.8212 67.4396 19.5722 67.6885C19.3233 67.9375 18.9856 68.0773 18.6335 68.0773H11.9961V61.4399C11.9961 61.0878 12.136 60.7502 12.3849 60.5012C12.6339 60.2523 12.9715 60.1124 13.3236 60.1124H15.9786Z" fill="#111111"/>
</g>
</g>
</g>
</svg>
