<svg width="80" height="81" viewBox="0 0 80 81" fill="none" xmlns="http://www.w3.org/2000/svg">
<g id="Template 5">
<rect y="0.400635" width="80" height="80" rx="40" fill="white"/>
<rect x="0.406107" y="0.806742" width="79.1878" height="79.1878" rx="39.5939" stroke="#1A1A1A" stroke-opacity="0.1" stroke-width="0.812214"/>
<g id="Group">
<path id="Vector" fill-rule="evenodd" clip-rule="evenodd" d="M43.5249 7.00585C43.6624 7.21974 43.6004 7.5045 43.3865 7.64187L41.0301 9.15517C40.8163 9.29254 40.5315 9.2305 40.394 9.0166C40.2566 8.8027 40.3189 8.51794 40.5327 8.38058L42.8891 6.86728C43.103 6.72991 43.3877 6.79195 43.5249 7.00585ZM48.8484 7.65839C48.9581 7.42915 49.2331 7.33237 49.4625 7.44223L51.9888 8.65298C52.2182 8.76284 52.3148 9.03774 52.2051 9.26698C52.0951 9.49623 51.8201 9.59301 51.591 9.48315L49.0644 8.27239C48.8353 8.16253 48.7384 7.88763 48.8484 7.65839ZM35.6379 7.61319C35.824 7.44008 36.1153 7.45067 36.2884 7.63683L38.1938 9.68574C38.3667 9.87191 38.356 10.1632 38.1699 10.3363C37.9839 10.5094 37.6924 10.4988 37.5195 10.3126L35.6142 8.2637C35.4411 8.07754 35.4517 7.78629 35.6379 7.61319ZM31.1874 8.84232C31.3248 9.05621 31.2627 9.34097 31.0489 9.47834L28.6925 10.9916C28.4786 11.129 28.1938 11.067 28.0565 10.8531C27.9191 10.6392 27.9811 10.3544 28.195 10.217L30.5514 8.70375C30.7653 8.56638 31.05 8.62842 31.1874 8.84232ZM25.0797 10.3218C25.2816 10.1674 25.5705 10.2059 25.7249 10.4077L27.4242 12.6291C27.5787 12.8311 27.5402 13.1199 27.3383 13.2744C27.1364 13.4288 26.8475 13.3904 26.6931 13.1885L24.9938 10.9671C24.8393 10.7652 24.8778 10.4763 25.0797 10.3218ZM30.1376 11.2639C30.3827 11.1965 30.636 11.3407 30.7034 11.5858L31.4436 14.2796C31.511 14.5247 31.3669 14.778 31.1217 14.8453C30.8766 14.9127 30.6233 14.7686 30.5559 14.5235L29.8157 11.8297C29.7484 11.5846 29.8925 11.3313 30.1376 11.2639ZM50.0992 11.7735C50.149 12.0228 49.9871 12.2652 49.7378 12.3149L46.9885 12.8626C46.7392 12.9122 46.4969 12.7504 46.4471 12.5011C46.3976 12.2518 46.5592 12.0094 46.8085 11.9597L49.5578 11.412C49.8071 11.3624 50.0494 11.5242 50.0992 11.7735ZM40.5251 11.455C40.7585 11.5555 40.8664 11.8262 40.7662 12.0597L39.662 14.6269C39.5615 14.8605 39.2908 14.9684 39.0574 14.8679C38.8237 14.7675 38.7159 14.4968 38.8164 14.2633L39.9205 11.6961C40.0207 11.4625 40.2914 11.3546 40.5251 11.455ZM43.26 11.7373C43.4675 11.59 43.7547 11.6386 43.9019 11.8458L45.5223 14.1249C45.6699 14.3321 45.6213 14.6194 45.4142 14.7667C45.2067 14.914 44.9196 14.8655 44.7723 14.6583L43.1519 12.3792C43.0043 12.172 43.0529 11.8846 43.26 11.7373ZM54.6935 12.1127C54.8575 12.3069 54.8334 12.5973 54.6391 12.7614L52.5011 14.5681C52.3071 14.7322 52.0166 14.7078 51.8525 14.5137C51.6885 14.3195 51.7129 14.0291 51.9069 13.865L54.0449 12.0583C54.2392 11.8942 54.5294 11.9186 54.6935 12.1127ZM33.1353 12.4505C33.1909 12.2025 33.4371 12.0465 33.6852 12.1022L36.4203 12.7157C36.6683 12.7714 36.8243 13.0176 36.7687 13.2656C36.713 13.5137 36.4668 13.6696 36.2188 13.614L33.4837 13.0004C33.2356 12.9448 33.0797 12.6986 33.1353 12.4505ZM22.7063 12.3662C22.9086 12.5202 22.9476 12.809 22.7936 13.0112L21.0989 15.2361C20.9449 15.4383 20.6561 15.4774 20.4538 15.3233C20.2516 15.1693 20.2126 14.8805 20.3666 14.6783L22.0613 12.4534C22.2153 12.2512 22.5041 12.2121 22.7063 12.3662ZM56.6781 12.793C56.7917 12.5657 57.0685 12.4737 57.2958 12.5876L59.8007 13.842C60.028 13.9559 60.1199 14.2324 60.006 14.4597C59.892 14.687 59.6155 14.779 59.3882 14.6652L56.8834 13.4107C56.6561 13.2968 56.5641 13.0203 56.6781 12.793ZM13.7849 20.7145C14.0119 20.829 14.103 21.1058 13.9885 21.3328L12.7291 23.828C12.6146 24.055 12.3378 24.1461 12.1108 24.0316C11.8839 23.9171 11.7927 23.6403 11.9073 23.4133L13.1666 20.918C13.2811 20.6911 13.558 20.5999 13.7849 20.7145ZM65.3463 20.8479C65.4997 20.6451 65.7884 20.6049 65.9912 20.7582L68.2245 22.4464C68.4274 22.5997 68.4674 22.8884 68.3143 23.0912C68.161 23.294 67.8723 23.3341 67.6694 23.1808L65.4361 21.4926C65.2333 21.3393 65.1932 21.0506 65.3463 20.8479ZM70.3664 25.456C70.5201 25.6585 70.4807 25.9472 70.2781 26.1009L68.0482 27.7937C67.8457 27.9474 67.557 27.9079 67.4033 27.7054C67.2496 27.5029 67.289 27.2142 67.4916 27.0605L69.7215 25.3677C69.9241 25.214 70.2128 25.2535 70.3664 25.456ZM11.4282 26.0073C11.6218 25.8425 11.9123 25.8657 12.0771 26.0593L13.8908 28.189C14.0556 28.3826 14.0323 28.6731 13.8388 28.8379C13.6452 29.0027 13.3547 28.9794 13.1899 28.7859L11.3762 26.6561C11.2114 26.4626 11.2347 26.1721 11.4282 26.0073ZM69.833 28.4205C70.0466 28.2824 70.3316 28.3434 70.4697 28.5568L71.9887 30.9042C72.1268 31.1176 72.0657 31.4026 71.8524 31.5407C71.6389 31.6788 71.3542 31.6177 71.2158 31.4043L69.6968 29.057C69.5587 28.8435 69.6198 28.5586 69.833 28.4205ZM8.57221 28.4856C8.80113 28.5961 8.89708 28.8713 8.78654 29.1002L7.57113 31.617C7.46058 31.8459 7.1854 31.9419 6.95648 31.8313C6.72757 31.7208 6.63161 31.4456 6.74216 31.2167L7.95757 28.6999C8.06811 28.471 8.3433 28.375 8.57221 28.4856ZM67.1613 29.6511C67.414 29.623 67.6416 29.8051 67.6697 30.0578L67.9777 32.8337C68.0058 33.0864 67.8237 33.314 67.571 33.342C67.3184 33.37 67.0908 33.1879 67.0627 32.9353L66.7547 30.1593C66.7266 29.9067 66.9087 29.6791 67.1613 29.6511ZM9.74119 31.6727C9.84097 31.4389 10.1114 31.3302 10.3452 31.43L12.9223 32.5298C13.1561 32.6296 13.2647 32.9 13.1649 33.1338C13.0652 33.3676 12.7947 33.4763 12.5609 33.3765L9.98385 32.2767C9.75005 32.1769 9.64141 31.9065 9.74119 31.6727ZM69.4759 34.439C69.592 34.6651 69.5031 34.9426 69.277 35.0589L66.7859 36.3402C66.5598 36.4565 66.2824 36.3675 66.166 36.1415C66.0496 35.9154 66.1388 35.6379 66.3649 35.5216L68.856 34.2402C69.0821 34.124 69.3595 34.213 69.4759 34.439ZM15.1916 35.3601C15.3233 35.5775 15.2538 35.8605 15.0364 35.9923L12.6411 37.4436C12.4237 37.5753 12.1406 37.506 12.0089 37.2885C11.8772 37.0711 11.9466 36.788 12.164 36.6563L14.5594 35.2049C14.7768 35.0732 15.0598 35.1427 15.1916 35.3601ZM73.0858 35.9736C73.2581 36.1604 73.2465 36.4516 73.0595 36.624L71.0028 38.5218C70.8162 38.6944 70.5247 38.6825 70.3524 38.4958C70.1801 38.3088 70.1917 38.0177 70.3787 37.8454L72.4354 35.9475C72.622 35.7751 72.9135 35.7868 73.0858 35.9736ZM6.60284 37.1327C6.81626 36.9946 7.10123 37.0556 7.23934 37.2691L8.75846 39.6164C8.89657 39.83 8.83553 40.1147 8.62211 40.2528C8.40869 40.3909 8.12372 40.3301 7.98561 40.1165L6.46649 37.7693C6.32838 37.5558 6.38942 37.2708 6.60284 37.1327ZM65.5473 38.8682C65.6472 38.6345 65.9176 38.5258 66.1513 38.6257L68.7283 39.7255C68.9623 39.8251 69.0708 40.0955 68.9712 40.3295C68.8713 40.5632 68.6009 40.672 68.3672 40.5721L65.7899 39.4722C65.5562 39.3723 65.4474 39.1019 65.5473 38.8682ZM11.7975 40.6344C11.8972 40.4007 12.1677 40.2919 12.4015 40.3918L14.9785 41.4916C15.2124 41.5912 15.321 41.8616 15.2212 42.0956C15.1214 42.3294 14.851 42.4381 14.6172 42.3382L12.0401 41.2384C11.8063 41.1388 11.6977 40.8681 11.7975 40.6344ZM71.3752 40.7108C71.5888 40.5727 71.8738 40.6338 72.0119 40.8473L73.5309 43.1946C73.669 43.4081 73.6079 43.6928 73.3947 43.8309C73.1811 43.969 72.8961 43.9082 72.758 43.6947L71.239 41.3474C71.1009 41.1339 71.162 40.8489 71.3752 40.7108ZM9.64501 42.4681C9.81741 42.6547 9.80571 42.9459 9.61889 43.1185L7.5621 45.0163C7.37528 45.1886 7.08408 45.177 6.91169 44.9903C6.73929 44.8034 6.75099 44.5122 6.93781 44.3399L8.9946 42.4418C9.18142 42.2695 9.47261 42.2811 9.64501 42.4681ZM70.5589 43.6754C70.6906 43.8927 70.6212 44.1759 70.4037 44.3075L68.0085 45.7587C67.791 45.8907 67.5081 45.821 67.3761 45.6038C67.2444 45.3863 67.3141 45.1034 67.5313 44.9714L69.9268 43.5202C70.144 43.3886 70.4272 43.4579 70.5589 43.6754ZM12.5861 43.8624C12.834 43.9183 12.9896 44.1649 12.9336 44.4126L12.3176 47.1375C12.2616 47.3852 12.0151 47.5407 11.7672 47.4848C11.5192 47.4289 11.3637 47.1824 11.4197 46.9343L12.0356 44.2098C12.0917 43.9617 12.3381 43.8062 12.5861 43.8624ZM66.0615 48.3421C66.1611 48.1084 66.4315 47.9996 66.6655 48.0995L69.2425 49.1991C69.4762 49.299 69.5849 49.5693 69.485 49.8034C69.3854 50.0371 69.1151 50.1455 68.8811 50.0459L66.3041 48.9461C66.0704 48.8462 65.9616 48.5758 66.0615 48.3421ZM73.0409 49.1325C73.27 49.2431 73.3659 49.5183 73.2553 49.7471L72.0397 52.2639C71.9294 52.4928 71.6542 52.5887 71.4253 52.4781C71.1962 52.3678 71.1003 52.0925 71.2109 51.8634L72.4262 49.3466C72.5368 49.1178 72.8121 49.0219 73.0409 49.1325ZM14.1701 49.4896C14.237 49.7349 14.0924 49.9879 13.8471 50.0548L11.143 50.792C10.8977 50.8589 10.6447 50.7144 10.5778 50.4691C10.5109 50.2237 10.6555 49.9708 10.9008 49.9039L13.6049 49.1667C13.8501 49.0998 14.1032 49.2443 14.1701 49.4896ZM8.14504 49.423C8.35846 49.2849 8.64343 49.346 8.78154 49.5596L10.3007 51.9068C10.4388 52.1203 10.3777 52.4051 10.1643 52.5432C9.95089 52.6816 9.66594 52.6205 9.52782 52.4069L8.0087 50.0597C7.87058 49.8461 7.93163 49.5611 8.14504 49.423ZM66.1586 52.1258C66.3523 51.9612 66.6426 51.9844 66.8076 52.1778L68.6214 54.3075C68.786 54.5012 68.7628 54.7917 68.5691 54.9564C68.3757 55.1214 68.0852 55.0982 67.9202 54.9045L66.1067 52.7747C65.9417 52.5811 65.9653 52.2908 66.1586 52.1258ZM12.5942 53.2584C12.7479 53.4609 12.7083 53.7496 12.5059 53.9033L10.276 55.5961C10.0735 55.7498 9.78472 55.7104 9.63102 55.5078C9.47732 55.3053 9.51685 55.0166 9.71931 54.8629L11.9493 53.1701C12.1517 53.0164 12.4405 53.0558 12.5942 53.2584ZM67.8866 56.9321C68.1136 57.0467 68.2047 57.3235 68.0901 57.5505L66.8308 60.0459C66.7162 60.2726 66.4394 60.3639 66.2124 60.2494C65.9857 60.1348 65.8944 59.858 66.0089 59.631L67.2683 57.1356C67.3828 56.9089 67.6596 56.8176 67.8866 56.9321ZM11.6832 57.8725C11.8365 57.6699 12.1251 57.6296 12.3279 57.783L14.5613 59.4712C14.7641 59.6246 14.8043 59.913 14.651 60.1159C14.4977 60.3187 14.2091 60.3587 14.0063 60.2057L11.7728 58.5174C11.57 58.3641 11.5299 58.0754 11.6832 57.8725ZM41.7343 65.5115C41.9677 65.6117 42.0759 65.8824 41.9754 66.1161L40.8713 68.6833C40.7707 68.9167 40.5001 69.0245 40.2666 68.9243C40.0329 68.8238 39.9251 68.5531 40.0256 68.3194L41.1297 65.7522C41.2299 65.5188 41.5009 65.411 41.7343 65.5115ZM59.8236 66.08C60.0258 66.234 60.0649 66.523 59.911 66.7253L58.2163 68.95C58.0623 69.1522 57.7733 69.1913 57.5711 69.0374C57.3691 68.8834 57.33 68.5944 57.484 68.3921L59.1787 66.1674C59.3326 65.9652 59.6216 65.926 59.8236 66.08ZM49.1558 66.5582C49.4008 66.4906 49.6544 66.6348 49.7216 66.8799L50.4618 69.5738C50.529 69.8189 50.3852 70.0721 50.1398 70.1397C49.8948 70.2069 49.6415 70.0627 49.5743 69.8176L48.8341 67.124C48.7666 66.8786 48.9108 66.6254 49.1558 66.5582ZM20.2716 66.9437C20.3854 66.7164 20.662 66.6245 20.8892 66.7384L23.3941 67.9928C23.6214 68.1065 23.7134 68.3833 23.5995 68.6106C23.4857 68.8379 23.2092 68.9298 22.9819 68.8159L20.477 67.5615C20.2497 67.4475 20.1577 67.171 20.2716 66.9437ZM28.425 66.8899C28.5891 67.0839 28.5647 67.3745 28.3706 67.5385L26.2326 69.3453C26.0385 69.5094 25.7481 69.4849 25.584 69.2906C25.4199 69.0966 25.4443 68.8061 25.6384 68.642L27.7764 66.8352C27.9705 66.6712 28.2609 66.6956 28.425 66.8899ZM38.5463 67.5795C38.5897 67.83 38.4214 68.068 38.1708 68.1111L35.4083 68.587C35.1578 68.6301 34.9197 68.4621 34.8766 68.2116C34.8334 67.9611 35.0015 67.7228 35.2521 67.6797L38.0147 67.204C38.2652 67.1606 38.5032 67.329 38.5463 67.5795ZM32.7381 67.5596C32.9717 67.6601 33.0795 67.9308 32.9791 68.1645L31.8751 70.7317C31.7747 70.9651 31.5039 71.073 31.2704 70.9725C31.0369 70.8723 30.929 70.6016 31.0294 70.3679L32.1334 67.8007C32.2339 67.5673 32.5046 67.4594 32.7381 67.5596ZM43.509 68.1379C43.5646 67.8899 43.8109 67.7338 44.0586 67.7894L46.7939 68.4031C47.042 68.4587 47.1978 68.705 47.1422 68.953C47.0866 69.2008 46.8403 69.3569 46.5922 69.3013L43.8573 68.6879C43.6092 68.632 43.4531 68.386 43.509 68.1379ZM52.9392 68.1291C53.1412 67.9745 53.4302 68.013 53.5845 68.2149L55.2837 70.4363C55.4383 70.6382 55.3998 70.9273 55.1979 71.0815C54.9959 71.2361 54.7072 71.1976 54.5526 70.9957L52.8534 68.7743C52.6988 68.5724 52.7373 68.2834 52.9392 68.1291ZM52.221 70.5503C52.3584 70.7644 52.2964 71.0492 52.0826 71.1863L49.7262 72.6998C49.5123 72.837 49.2276 72.775 49.0901 72.5611C48.9529 72.3473 49.0149 72.0625 49.2288 71.9251L51.5852 70.4119C51.7991 70.2744 52.0838 70.3364 52.221 70.5503ZM42.1077 71.0672C42.2937 70.894 42.5849 70.9046 42.7581 71.0907L44.6632 73.1398C44.8365 73.3258 44.8258 73.6173 44.6397 73.7902C44.4537 73.9634 44.1622 73.9527 43.9893 73.7667L42.0838 71.7176C41.9109 71.5316 41.9213 71.2404 42.1077 71.0672ZM36.6258 71.549C36.7316 71.3177 37.0047 71.2163 37.236 71.322L39.7833 72.4887C40.0143 72.5947 40.116 72.8679 40.01 73.0988C39.9043 73.3301 39.6312 73.4315 39.3999 73.3258L36.8526 72.1591C36.6215 72.0534 36.52 71.7799 36.6258 71.549ZM28.0725 72.1365C28.1824 71.9073 28.4573 71.8105 28.6866 71.9205L31.213 73.1312C31.4423 73.2409 31.539 73.5158 31.4292 73.745C31.3193 73.9744 31.0444 74.071 30.8152 73.9613L28.2887 72.7505C28.0595 72.6406 27.9627 72.3656 28.0725 72.1365Z" fill="#111111"/>
</g>
<g id="Group_2">
<g id="Group_3">
<path id="Vector_2" d="M33.3102 18.7007C33.3102 18.4009 33.0672 18.1579 32.7674 18.1579C32.4676 18.1579 32.2246 18.4009 32.2246 18.7007C32.2246 19.0004 32.4676 19.2435 32.7674 19.2435C33.0672 19.2435 33.3102 19.0004 33.3102 18.7007Z" fill="#111111"/>
<path id="Vector_3" d="M36.9196 18.7007C36.9196 18.4009 36.6766 18.1579 36.3768 18.1579C36.077 18.1579 35.834 18.4009 35.834 18.7007C35.834 19.0004 36.077 19.2435 36.3768 19.2435C36.6766 19.2435 36.9196 19.0004 36.9196 18.7007Z" fill="#111111"/>
<path id="Vector_4" d="M38.7321 18.7007C38.7321 18.4009 38.4891 18.1579 38.1893 18.1579C37.8895 18.1579 37.6465 18.4009 37.6465 18.7007C37.6465 19.0004 37.8895 19.2435 38.1893 19.2435C38.4891 19.2435 38.7321 19.0004 38.7321 18.7007Z" fill="#111111"/>
<path id="Vector_5" d="M44.1559 18.7007C44.1559 18.4009 43.9129 18.1579 43.6131 18.1579C43.3133 18.1579 43.0703 18.4009 43.0703 18.7007C43.0703 19.0004 43.3133 19.2435 43.6131 19.2435C43.9129 19.2435 44.1559 19.0004 44.1559 18.7007Z" fill="#111111"/>
<path id="Vector_6" d="M45.9645 18.7007C45.9645 18.4009 45.7215 18.1579 45.4217 18.1579C45.1219 18.1579 44.8789 18.4009 44.8789 18.7007C44.8789 19.0004 45.1219 19.2435 45.4217 19.2435C45.7215 19.2435 45.9645 19.0004 45.9645 18.7007Z" fill="#111111"/>
<path id="Vector_7" d="M36.9196 20.5092C36.9196 20.2095 36.6766 19.9664 36.3768 19.9664C36.077 19.9664 35.834 20.2095 35.834 20.5092C35.834 20.809 36.077 21.052 36.3768 21.052C36.6766 21.052 36.9196 20.809 36.9196 20.5092Z" fill="#111111"/>
<path id="Vector_8" d="M38.7321 20.5092C38.7321 20.2095 38.4891 19.9664 38.1893 19.9664C37.8895 19.9664 37.6465 20.2095 37.6465 20.5092C37.6465 20.809 37.8895 21.052 38.1893 21.052C38.4891 21.052 38.7321 20.809 38.7321 20.5092Z" fill="#111111"/>
<path id="Vector_9" d="M42.3512 20.5092C42.3512 20.2095 42.1082 19.9664 41.8084 19.9664C41.5086 19.9664 41.2656 20.2095 41.2656 20.5092C41.2656 20.809 41.5086 21.052 41.8084 21.052C42.1082 21.052 42.3512 20.809 42.3512 20.5092Z" fill="#111111"/>
<path id="Vector_10" d="M45.9645 20.5092C45.9645 20.2095 45.7215 19.9664 45.4217 19.9664C45.1219 19.9664 44.8789 20.2095 44.8789 20.5092C44.8789 20.809 45.1219 21.052 45.4217 21.052C45.7215 21.052 45.9645 20.809 45.9645 20.5092Z" fill="#111111"/>
<path id="Vector_11" d="M47.7731 20.5092C47.7731 20.2095 47.5301 19.9664 47.2303 19.9664C46.9305 19.9664 46.6875 20.2095 46.6875 20.5092C46.6875 20.809 46.9305 21.052 47.2303 21.052C47.5301 21.052 47.7731 20.809 47.7731 20.5092Z" fill="#111111"/>
<path id="Vector_12" d="M33.3102 22.3172C33.3102 22.0174 33.0672 21.7744 32.7674 21.7744C32.4676 21.7744 32.2246 22.0174 32.2246 22.3172C32.2246 22.6169 32.4676 22.86 32.7674 22.86C33.0672 22.86 33.3102 22.6169 33.3102 22.3172Z" fill="#111111"/>
<path id="Vector_13" d="M40.5426 22.3172C40.5426 22.0174 40.2996 21.7744 39.9998 21.7744C39.7001 21.7744 39.457 22.0174 39.457 22.3172C39.457 22.6169 39.7001 22.86 39.9998 22.86C40.2996 22.86 40.5426 22.6169 40.5426 22.3172Z" fill="#111111"/>
<path id="Vector_14" d="M44.1559 22.3172C44.1559 22.0174 43.9129 21.7744 43.6131 21.7744C43.3133 21.7744 43.0703 22.0174 43.0703 22.3172C43.0703 22.6169 43.3133 22.86 43.6131 22.86C43.9129 22.86 44.1559 22.6169 44.1559 22.3172Z" fill="#111111"/>
<path id="Vector_15" d="M45.9645 22.3172C45.9645 22.0174 45.7215 21.7744 45.4217 21.7744C45.1219 21.7744 44.8789 22.0174 44.8789 22.3172C44.8789 22.6169 45.1219 22.86 45.4217 22.86C45.7215 22.86 45.9645 22.6169 45.9645 22.3172Z" fill="#111111"/>
<path id="Vector_16" d="M33.3102 24.1257C33.3102 23.8259 33.0672 23.5829 32.7674 23.5829C32.4676 23.5829 32.2246 23.8259 32.2246 24.1257C32.2246 24.4255 32.4676 24.6685 32.7674 24.6685C33.0672 24.6685 33.3102 24.4255 33.3102 24.1257Z" fill="#111111"/>
<path id="Vector_17" d="M38.7321 24.1257C38.7321 23.8259 38.4891 23.5829 38.1893 23.5829C37.8895 23.5829 37.6465 23.8259 37.6465 24.1257C37.6465 24.4255 37.8895 24.6685 38.1893 24.6685C38.4891 24.6685 38.7321 24.4255 38.7321 24.1257Z" fill="#111111"/>
<path id="Vector_18" d="M44.1559 24.1257C44.1559 23.8259 43.9129 23.5829 43.6131 23.5829C43.3133 23.5829 43.0703 23.8259 43.0703 24.1257C43.0703 24.4255 43.3133 24.6685 43.6131 24.6685C43.9129 24.6685 44.1559 24.4255 44.1559 24.1257Z" fill="#111111"/>
<path id="Vector_19" d="M35.1149 25.9339C35.1149 25.6341 34.8719 25.3911 34.5721 25.3911C34.2723 25.3911 34.0293 25.6341 34.0293 25.9339C34.0293 26.2336 34.2723 26.4767 34.5721 26.4767C34.8719 26.4767 35.1149 26.2336 35.1149 25.9339Z" fill="#111111"/>
<path id="Vector_20" d="M40.5426 25.9339C40.5426 25.6341 40.2996 25.3911 39.9998 25.3911C39.7001 25.3911 39.457 25.6341 39.457 25.9339C39.457 26.2336 39.7001 26.4767 39.9998 26.4767C40.2996 26.4767 40.5426 26.2336 40.5426 25.9339Z" fill="#111111"/>
<path id="Vector_21" d="M44.1559 25.9339C44.1559 25.6341 43.9129 25.3911 43.6131 25.3911C43.3133 25.3911 43.0703 25.6341 43.0703 25.9339C43.0703 26.2336 43.3133 26.4767 43.6131 26.4767C43.9129 26.4767 44.1559 26.2336 44.1559 25.9339Z" fill="#111111"/>
<path id="Vector_22" d="M45.9645 25.9339C45.9645 25.6341 45.7215 25.3911 45.4217 25.3911C45.1219 25.3911 44.8789 25.6341 44.8789 25.9339C44.8789 26.2336 45.1219 26.4767 45.4217 26.4767C45.7215 26.4767 45.9645 26.2336 45.9645 25.9339Z" fill="#111111"/>
<path id="Vector_23" d="M33.3102 27.7424C33.3102 27.4427 33.0672 27.1996 32.7674 27.1996C32.4676 27.1996 32.2246 27.4427 32.2246 27.7424C32.2246 28.0422 32.4676 28.2852 32.7674 28.2852C33.0672 28.2852 33.3102 28.0422 33.3102 27.7424Z" fill="#111111"/>
<path id="Vector_24" d="M35.1149 27.7424C35.1149 27.4427 34.8719 27.1996 34.5721 27.1996C34.2723 27.1996 34.0293 27.4427 34.0293 27.7424C34.0293 28.0422 34.2723 28.2852 34.5721 28.2852C34.8719 28.2852 35.1149 28.0422 35.1149 27.7424Z" fill="#111111"/>
<path id="Vector_25" d="M38.7321 27.7424C38.7321 27.4427 38.4891 27.1996 38.1893 27.1996C37.8895 27.1996 37.6465 27.4427 37.6465 27.7424C37.6465 28.0422 37.8895 28.2852 38.1893 28.2852C38.4891 28.2852 38.7321 28.0422 38.7321 27.7424Z" fill="#111111"/>
<path id="Vector_26" d="M45.9645 27.7424C45.9645 27.4427 45.7215 27.1996 45.4217 27.1996C45.1219 27.1996 44.8789 27.4427 44.8789 27.7424C44.8789 28.0422 45.1219 28.2852 45.4217 28.2852C45.7215 28.2852 45.9645 28.0422 45.9645 27.7424Z" fill="#111111"/>
<path id="Vector_27" d="M47.7731 27.7424C47.7731 27.4427 47.5301 27.1996 47.2303 27.1996C46.9305 27.1996 46.6875 27.4427 46.6875 27.7424C46.6875 28.0422 46.9305 28.2852 47.2303 28.2852C47.5301 28.2852 47.7731 28.0422 47.7731 27.7424Z" fill="#111111"/>
<path id="Vector_28" d="M33.3102 29.5508C33.3102 29.251 33.0672 29.008 32.7674 29.008C32.4676 29.008 32.2246 29.251 32.2246 29.5508C32.2246 29.8506 32.4676 30.0936 32.7674 30.0936C33.0672 30.0936 33.3102 29.8506 33.3102 29.5508Z" fill="#111111"/>
<path id="Vector_29" d="M36.9196 29.5508C36.9196 29.251 36.6766 29.008 36.3768 29.008C36.077 29.008 35.834 29.251 35.834 29.5508C35.834 29.8506 36.077 30.0936 36.3768 30.0936C36.6766 30.0936 36.9196 29.8506 36.9196 29.5508Z" fill="#111111"/>
<path id="Vector_30" d="M40.5426 29.5508C40.5426 29.251 40.2996 29.008 39.9998 29.008C39.7001 29.008 39.457 29.251 39.457 29.5508C39.457 29.8506 39.7001 30.0936 39.9998 30.0936C40.2996 30.0936 40.5426 29.8506 40.5426 29.5508Z" fill="#111111"/>
<path id="Vector_31" d="M44.1559 29.5508C44.1559 29.251 43.9129 29.008 43.6131 29.008C43.3133 29.008 43.0703 29.251 43.0703 29.5508C43.0703 29.8506 43.3133 30.0936 43.6131 30.0936C43.9129 30.0936 44.1559 29.8506 44.1559 29.5508Z" fill="#111111"/>
<path id="Vector_32" d="M47.7731 29.5508C47.7731 29.251 47.5301 29.008 47.2303 29.008C46.9305 29.008 46.6875 29.251 46.6875 29.5508C46.6875 29.8506 46.9305 30.0936 47.2303 30.0936C47.5301 30.0936 47.7731 29.8506 47.7731 29.5508Z" fill="#111111"/>
<path id="Vector_33" d="M33.3102 31.3589C33.3102 31.0591 33.0672 30.8161 32.7674 30.8161C32.4676 30.8161 32.2246 31.0591 32.2246 31.3589C32.2246 31.6587 32.4676 31.9017 32.7674 31.9017C33.0672 31.9017 33.3102 31.6587 33.3102 31.3589Z" fill="#111111"/>
<path id="Vector_34" d="M36.9196 31.3589C36.9196 31.0591 36.6766 30.8161 36.3768 30.8161C36.077 30.8161 35.834 31.0591 35.834 31.3589C35.834 31.6587 36.077 31.9017 36.3768 31.9017C36.6766 31.9017 36.9196 31.6587 36.9196 31.3589Z" fill="#111111"/>
<path id="Vector_35" d="M38.7321 31.3589C38.7321 31.0591 38.4891 30.8161 38.1893 30.8161C37.8895 30.8161 37.6465 31.0591 37.6465 31.3589C37.6465 31.6587 37.8895 31.9017 38.1893 31.9017C38.4891 31.9017 38.7321 31.6587 38.7321 31.3589Z" fill="#111111"/>
<path id="Vector_36" d="M44.1559 31.3589C44.1559 31.0591 43.9129 30.8161 43.6131 30.8161C43.3133 30.8161 43.0703 31.0591 43.0703 31.3589C43.0703 31.6587 43.3133 31.9017 43.6131 31.9017C43.9129 31.9017 44.1559 31.6587 44.1559 31.3589Z" fill="#111111"/>
<path id="Vector_37" d="M47.7731 31.3589C47.7731 31.0591 47.5301 30.8161 47.2303 30.8161C46.9305 30.8161 46.6875 31.0591 46.6875 31.3589C46.6875 31.6587 46.9305 31.9017 47.2303 31.9017C47.5301 31.9017 47.7731 31.6587 47.7731 31.3589Z" fill="#111111"/>
<path id="Vector_38" d="M20.6481 33.1673C20.6481 32.8675 20.4051 32.6245 20.1053 32.6245C19.8055 32.6245 19.5625 32.8675 19.5625 33.1673C19.5625 33.4671 19.8055 33.7101 20.1053 33.7101C20.4051 33.7101 20.6481 33.4671 20.6481 33.1673Z" fill="#111111"/>
<path id="Vector_39" d="M24.2672 33.1673C24.2672 32.8675 24.0242 32.6245 23.7244 32.6245C23.4247 32.6245 23.1816 32.8675 23.1816 33.1673C23.1816 33.4671 23.4247 33.7101 23.7244 33.7101C24.0242 33.7101 24.2672 33.4671 24.2672 33.1673Z" fill="#111111"/>
<path id="Vector_40" d="M27.8825 33.1673C27.8825 32.8675 27.6395 32.6245 27.3397 32.6245C27.0399 32.6245 26.7969 32.8675 26.7969 33.1673C26.7969 33.4671 27.0399 33.7101 27.3397 33.7101C27.6395 33.7101 27.8825 33.4671 27.8825 33.1673Z" fill="#111111"/>
<path id="Vector_41" d="M29.6891 33.1673C29.6891 32.8675 29.4461 32.6245 29.1463 32.6245C28.8465 32.6245 28.6035 32.8675 28.6035 33.1673C28.6035 33.4671 28.8465 33.7101 29.1463 33.7101C29.4461 33.7101 29.6891 33.4671 29.6891 33.1673Z" fill="#111111"/>
<path id="Vector_42" d="M31.4997 33.1673C31.4997 32.8675 31.2566 32.6245 30.9569 32.6245C30.6571 32.6245 30.4141 32.8675 30.4141 33.1673C30.4141 33.4671 30.6571 33.7101 30.9569 33.7101C31.2566 33.7101 31.4997 33.4671 31.4997 33.1673Z" fill="#111111"/>
<path id="Vector_43" d="M33.3102 33.1673C33.3102 32.8675 33.0672 32.6245 32.7674 32.6245C32.4676 32.6245 32.2246 32.8675 32.2246 33.1673C32.2246 33.4671 32.4676 33.7101 32.7674 33.7101C33.0672 33.7101 33.3102 33.4671 33.3102 33.1673Z" fill="#111111"/>
<path id="Vector_44" d="M36.9196 33.1673C36.9196 32.8675 36.6766 32.6245 36.3768 32.6245C36.077 32.6245 35.834 32.8675 35.834 33.1673C35.834 33.4671 36.077 33.7101 36.3768 33.7101C36.6766 33.7101 36.9196 33.4671 36.9196 33.1673Z" fill="#111111"/>
<path id="Vector_45" d="M38.7321 33.1673C38.7321 32.8675 38.4891 32.6245 38.1893 32.6245C37.8895 32.6245 37.6465 32.8675 37.6465 33.1673C37.6465 33.4671 37.8895 33.7101 38.1893 33.7101C38.4891 33.7101 38.7321 33.4671 38.7321 33.1673Z" fill="#111111"/>
<path id="Vector_46" d="M40.5426 33.1673C40.5426 32.8675 40.2996 32.6245 39.9998 32.6245C39.7001 32.6245 39.457 32.8675 39.457 33.1673C39.457 33.4671 39.7001 33.7101 39.9998 33.7101C40.2996 33.7101 40.5426 33.4671 40.5426 33.1673Z" fill="#111111"/>
<path id="Vector_47" d="M42.3512 33.1673C42.3512 32.8675 42.1082 32.6245 41.8084 32.6245C41.5086 32.6245 41.2656 32.8675 41.2656 33.1673C41.2656 33.4671 41.5086 33.7101 41.8084 33.7101C42.1082 33.7101 42.3512 33.4671 42.3512 33.1673Z" fill="#111111"/>
<path id="Vector_48" d="M44.1559 33.1673C44.1559 32.8675 43.9129 32.6245 43.6131 32.6245C43.3133 32.6245 43.0703 32.8675 43.0703 33.1673C43.0703 33.4671 43.3133 33.7101 43.6131 33.7101C43.9129 33.7101 44.1559 33.4671 44.1559 33.1673Z" fill="#111111"/>
<path id="Vector_49" d="M47.7731 33.1673C47.7731 32.8675 47.5301 32.6245 47.2303 32.6245C46.9305 32.6245 46.6875 32.8675 46.6875 33.1673C46.6875 33.4671 46.9305 33.7101 47.2303 33.7101C47.5301 33.7101 47.7731 33.4671 47.7731 33.1673Z" fill="#111111"/>
<path id="Vector_50" d="M49.5817 33.1673C49.5817 32.8675 49.3387 32.6245 49.0389 32.6245C48.7391 32.6245 48.4961 32.8675 48.4961 33.1673C48.4961 33.4671 48.7391 33.7101 49.0389 33.7101C49.3387 33.7101 49.5817 33.4671 49.5817 33.1673Z" fill="#111111"/>
<path id="Vector_51" d="M51.3922 33.1673C51.3922 32.8675 51.1492 32.6245 50.8494 32.6245C50.5497 32.6245 50.3066 32.8675 50.3066 33.1673C50.3066 33.4671 50.5497 33.7101 50.8494 33.7101C51.1492 33.7101 51.3922 33.4671 51.3922 33.1673Z" fill="#111111"/>
<path id="Vector_52" d="M53.2008 33.1673C53.2008 32.8675 52.9578 32.6245 52.658 32.6245C52.3583 32.6245 52.1152 32.8675 52.1152 33.1673C52.1152 33.4671 52.3583 33.7101 52.658 33.7101C52.9578 33.7101 53.2008 33.4671 53.2008 33.1673Z" fill="#111111"/>
<path id="Vector_53" d="M56.8161 33.1673C56.8161 32.8675 56.573 32.6245 56.2733 32.6245C55.9735 32.6245 55.7305 32.8675 55.7305 33.1673C55.7305 33.4671 55.9735 33.7101 56.2733 33.7101C56.573 33.7101 56.8161 33.4671 56.8161 33.1673Z" fill="#111111"/>
<path id="Vector_54" d="M58.6266 33.1673C58.6266 32.8675 58.3836 32.6245 58.0838 32.6245C57.784 32.6245 57.541 32.8675 57.541 33.1673C57.541 33.4671 57.784 33.7101 58.0838 33.7101C58.3836 33.7101 58.6266 33.4671 58.6266 33.1673Z" fill="#111111"/>
<path id="Vector_55" d="M62.2438 33.1673C62.2438 32.8675 62.0008 32.6245 61.701 32.6245C61.4012 32.6245 61.1582 32.8675 61.1582 33.1673C61.1582 33.4671 61.4012 33.7101 61.701 33.7101C62.0008 33.7101 62.2438 33.4671 62.2438 33.1673Z" fill="#111111"/>
<path id="Vector_56" d="M18.8415 34.9758C18.8415 34.6761 18.5984 34.433 18.2987 34.433C17.9989 34.433 17.7559 34.6761 17.7559 34.9758C17.7559 35.2756 17.9989 35.5186 18.2987 35.5186C18.5984 35.5186 18.8415 35.2756 18.8415 34.9758Z" fill="#111111"/>
<path id="Vector_57" d="M20.6481 34.9758C20.6481 34.6761 20.4051 34.433 20.1053 34.433C19.8055 34.433 19.5625 34.6761 19.5625 34.9758C19.5625 35.2756 19.8055 35.5186 20.1053 35.5186C20.4051 35.5186 20.6481 35.2756 20.6481 34.9758Z" fill="#111111"/>
<path id="Vector_58" d="M22.4586 34.9758C22.4586 34.6761 22.2156 34.433 21.9158 34.433C21.6161 34.433 21.373 34.6761 21.373 34.9758C21.373 35.2756 21.6161 35.5186 21.9158 35.5186C22.2156 35.5186 22.4586 35.2756 22.4586 34.9758Z" fill="#111111"/>
<path id="Vector_59" d="M24.2672 34.9758C24.2672 34.6761 24.0242 34.433 23.7244 34.433C23.4247 34.433 23.1816 34.6761 23.1816 34.9758C23.1816 35.2756 23.4247 35.5186 23.7244 35.5186C24.0242 35.5186 24.2672 35.2756 24.2672 34.9758Z" fill="#111111"/>
<path id="Vector_60" d="M35.1149 34.9758C35.1149 34.6761 34.8719 34.433 34.5721 34.433C34.2723 34.433 34.0293 34.6761 34.0293 34.9758C34.0293 35.2756 34.2723 35.5186 34.5721 35.5186C34.8719 35.5186 35.1149 35.2756 35.1149 34.9758Z" fill="#111111"/>
<path id="Vector_61" d="M40.5426 34.9758C40.5426 34.6761 40.2996 34.433 39.9998 34.433C39.7001 34.433 39.457 34.6761 39.457 34.9758C39.457 35.2756 39.7001 35.5186 39.9998 35.5186C40.2996 35.5186 40.5426 35.2756 40.5426 34.9758Z" fill="#111111"/>
<path id="Vector_62" d="M47.7731 34.9758C47.7731 34.6761 47.5301 34.433 47.2303 34.433C46.9305 34.433 46.6875 34.6761 46.6875 34.9758C46.6875 35.2756 46.9305 35.5186 47.2303 35.5186C47.5301 35.5186 47.7731 35.2756 47.7731 34.9758Z" fill="#111111"/>
<path id="Vector_63" d="M49.5817 34.9758C49.5817 34.6761 49.3387 34.433 49.0389 34.433C48.7391 34.433 48.4961 34.6761 48.4961 34.9758C48.4961 35.2756 48.7391 35.5186 49.0389 35.5186C49.3387 35.5186 49.5817 35.2756 49.5817 34.9758Z" fill="#111111"/>
<path id="Vector_64" d="M51.3922 34.9758C51.3922 34.6761 51.1492 34.433 50.8494 34.433C50.5497 34.433 50.3066 34.6761 50.3066 34.9758C50.3066 35.2756 50.5497 35.5186 50.8494 35.5186C51.1492 35.5186 51.3922 35.2756 51.3922 34.9758Z" fill="#111111"/>
<path id="Vector_65" d="M62.2438 34.9758C62.2438 34.6761 62.0008 34.433 61.701 34.433C61.4012 34.433 61.1582 34.6761 61.1582 34.9758C61.1582 35.2756 61.4012 35.5186 61.701 35.5186C62.0008 35.5186 62.2438 35.2756 62.2438 34.9758Z" fill="#111111"/>
<path id="Vector_66" d="M18.8415 36.7844C18.8415 36.4846 18.5984 36.2416 18.2987 36.2416C17.9989 36.2416 17.7559 36.4846 17.7559 36.7844C17.7559 37.0842 17.9989 37.3272 18.2987 37.3272C18.5984 37.3272 18.8415 37.0842 18.8415 36.7844Z" fill="#111111"/>
<path id="Vector_67" d="M20.6481 36.7844C20.6481 36.4846 20.4051 36.2416 20.1053 36.2416C19.8055 36.2416 19.5625 36.4846 19.5625 36.7844C19.5625 37.0842 19.8055 37.3272 20.1053 37.3272C20.4051 37.3272 20.6481 37.0842 20.6481 36.7844Z" fill="#111111"/>
<path id="Vector_68" d="M24.2672 36.7844C24.2672 36.4846 24.0242 36.2416 23.7244 36.2416C23.4247 36.2416 23.1816 36.4846 23.1816 36.7844C23.1816 37.0842 23.4247 37.3272 23.7244 37.3272C24.0242 37.3272 24.2672 37.0842 24.2672 36.7844Z" fill="#111111"/>
<path id="Vector_69" d="M26.0758 36.7844C26.0758 36.4846 25.8328 36.2416 25.533 36.2416C25.2333 36.2416 24.9902 36.4846 24.9902 36.7844C24.9902 37.0842 25.2333 37.3272 25.533 37.3272C25.8328 37.3272 26.0758 37.0842 26.0758 36.7844Z" fill="#111111"/>
<path id="Vector_70" d="M27.8825 36.7844C27.8825 36.4846 27.6395 36.2416 27.3397 36.2416C27.0399 36.2416 26.7969 36.4846 26.7969 36.7844C26.7969 37.0842 27.0399 37.3272 27.3397 37.3272C27.6395 37.3272 27.8825 37.0842 27.8825 36.7844Z" fill="#111111"/>
<path id="Vector_71" d="M29.6891 36.7844C29.6891 36.4846 29.4461 36.2416 29.1463 36.2416C28.8465 36.2416 28.6035 36.4846 28.6035 36.7844C28.6035 37.0842 28.8465 37.3272 29.1463 37.3272C29.4461 37.3272 29.6891 37.0842 29.6891 36.7844Z" fill="#111111"/>
<path id="Vector_72" d="M33.3102 36.7844C33.3102 36.4846 33.0672 36.2416 32.7674 36.2416C32.4676 36.2416 32.2246 36.4846 32.2246 36.7844C32.2246 37.0842 32.4676 37.3272 32.7674 37.3272C33.0672 37.3272 33.3102 37.0842 33.3102 36.7844Z" fill="#111111"/>
<path id="Vector_73" d="M35.1149 36.7844C35.1149 36.4846 34.8719 36.2416 34.5721 36.2416C34.2723 36.2416 34.0293 36.4846 34.0293 36.7844C34.0293 37.0842 34.2723 37.3272 34.5721 37.3272C34.8719 37.3272 35.1149 37.0842 35.1149 36.7844Z" fill="#111111"/>
<path id="Vector_74" d="M42.3512 36.7844C42.3512 36.4846 42.1082 36.2416 41.8084 36.2416C41.5086 36.2416 41.2656 36.4846 41.2656 36.7844C41.2656 37.0842 41.5086 37.3272 41.8084 37.3272C42.1082 37.3272 42.3512 37.0842 42.3512 36.7844Z" fill="#111111"/>
<path id="Vector_75" d="M47.7731 36.7844C47.7731 36.4846 47.5301 36.2416 47.2303 36.2416C46.9305 36.2416 46.6875 36.4846 46.6875 36.7844C46.6875 37.0842 46.9305 37.3272 47.2303 37.3272C47.5301 37.3272 47.7731 37.0842 47.7731 36.7844Z" fill="#111111"/>
<path id="Vector_76" d="M49.5817 36.7844C49.5817 36.4846 49.3387 36.2416 49.0389 36.2416C48.7391 36.2416 48.4961 36.4846 48.4961 36.7844C48.4961 37.0842 48.7391 37.3272 49.0389 37.3272C49.3387 37.3272 49.5817 37.0842 49.5817 36.7844Z" fill="#111111"/>
<path id="Vector_77" d="M51.3922 36.7844C51.3922 36.4846 51.1492 36.2416 50.8494 36.2416C50.5497 36.2416 50.3066 36.4846 50.3066 36.7844C50.3066 37.0842 50.5497 37.3272 50.8494 37.3272C51.1492 37.3272 51.3922 37.0842 51.3922 36.7844Z" fill="#111111"/>
<path id="Vector_78" d="M53.2008 36.7844C53.2008 36.4846 52.9578 36.2416 52.658 36.2416C52.3583 36.2416 52.1152 36.4846 52.1152 36.7844C52.1152 37.0842 52.3583 37.3272 52.658 37.3272C52.9578 37.3272 53.2008 37.0842 53.2008 36.7844Z" fill="#111111"/>
<path id="Vector_79" d="M60.4352 36.7844C60.4352 36.4846 60.1922 36.2416 59.8924 36.2416C59.5926 36.2416 59.3496 36.4846 59.3496 36.7844C59.3496 37.0842 59.5926 37.3272 59.8924 37.3272C60.1922 37.3272 60.4352 37.0842 60.4352 36.7844Z" fill="#111111"/>
<path id="Vector_80" d="M62.2438 36.7844C62.2438 36.4846 62.0008 36.2416 61.701 36.2416C61.4012 36.2416 61.1582 36.4846 61.1582 36.7844C61.1582 37.0842 61.4012 37.3272 61.701 37.3272C62.0008 37.3272 62.2438 37.0842 62.2438 36.7844Z" fill="#111111"/>
<path id="Vector_81" d="M22.4586 38.5928C22.4586 38.293 22.2156 38.05 21.9158 38.05C21.6161 38.05 21.373 38.293 21.373 38.5928C21.373 38.8926 21.6161 39.1356 21.9158 39.1356C22.2156 39.1356 22.4586 38.8926 22.4586 38.5928Z" fill="#111111"/>
<path id="Vector_82" d="M24.2672 38.5928C24.2672 38.293 24.0242 38.05 23.7244 38.05C23.4247 38.05 23.1816 38.293 23.1816 38.5928C23.1816 38.8926 23.4247 39.1356 23.7244 39.1356C24.0242 39.1356 24.2672 38.8926 24.2672 38.5928Z" fill="#111111"/>
<path id="Vector_83" d="M26.0758 38.5928C26.0758 38.293 25.8328 38.05 25.533 38.05C25.2333 38.05 24.9902 38.293 24.9902 38.5928C24.9902 38.8926 25.2333 39.1356 25.533 39.1356C25.8328 39.1356 26.0758 38.8926 26.0758 38.5928Z" fill="#111111"/>
<path id="Vector_84" d="M27.8825 38.5928C27.8825 38.293 27.6395 38.05 27.3397 38.05C27.0399 38.05 26.7969 38.293 26.7969 38.5928C26.7969 38.8926 27.0399 39.1356 27.3397 39.1356C27.6395 39.1356 27.8825 38.8926 27.8825 38.5928Z" fill="#111111"/>
<path id="Vector_85" d="M33.3102 38.5928C33.3102 38.293 33.0672 38.05 32.7674 38.05C32.4676 38.05 32.2246 38.293 32.2246 38.5928C32.2246 38.8926 32.4676 39.1356 32.7674 39.1356C33.0672 39.1356 33.3102 38.8926 33.3102 38.5928Z" fill="#111111"/>
<path id="Vector_86" d="M38.7321 38.5928C38.7321 38.293 38.4891 38.05 38.1893 38.05C37.8895 38.05 37.6465 38.293 37.6465 38.5928C37.6465 38.8926 37.8895 39.1356 38.1893 39.1356C38.4891 39.1356 38.7321 38.8926 38.7321 38.5928Z" fill="#111111"/>
<path id="Vector_87" d="M42.3512 38.5928C42.3512 38.293 42.1082 38.05 41.8084 38.05C41.5086 38.05 41.2656 38.293 41.2656 38.5928C41.2656 38.8926 41.5086 39.1356 41.8084 39.1356C42.1082 39.1356 42.3512 38.8926 42.3512 38.5928Z" fill="#111111"/>
<path id="Vector_88" d="M45.9645 38.5928C45.9645 38.293 45.7215 38.05 45.4217 38.05C45.1219 38.05 44.8789 38.293 44.8789 38.5928C44.8789 38.8926 45.1219 39.1356 45.4217 39.1356C45.7215 39.1356 45.9645 38.8926 45.9645 38.5928Z" fill="#111111"/>
<path id="Vector_89" d="M53.2008 38.5928C53.2008 38.293 52.9578 38.05 52.658 38.05C52.3583 38.05 52.1152 38.293 52.1152 38.5928C52.1152 38.8926 52.3583 39.1356 52.658 39.1356C52.9578 39.1356 53.2008 38.8926 53.2008 38.5928Z" fill="#111111"/>
<path id="Vector_90" d="M55.0094 38.5928C55.0094 38.293 54.7664 38.05 54.4666 38.05C54.1668 38.05 53.9238 38.293 53.9238 38.5928C53.9238 38.8926 54.1668 39.1356 54.4666 39.1356C54.7664 39.1356 55.0094 38.8926 55.0094 38.5928Z" fill="#111111"/>
<path id="Vector_91" d="M18.8415 40.4007C18.8415 40.1009 18.5984 39.8579 18.2987 39.8579C17.9989 39.8579 17.7559 40.1009 17.7559 40.4007C17.7559 40.7005 17.9989 40.9435 18.2987 40.9435C18.5984 40.9435 18.8415 40.7005 18.8415 40.4007Z" fill="#111111"/>
<path id="Vector_92" d="M26.0758 40.4007C26.0758 40.1009 25.8328 39.8579 25.533 39.8579C25.2333 39.8579 24.9902 40.1009 24.9902 40.4007C24.9902 40.7005 25.2333 40.9435 25.533 40.9435C25.8328 40.9435 26.0758 40.7005 26.0758 40.4007Z" fill="#111111"/>
<path id="Vector_93" d="M29.6891 40.4007C29.6891 40.1009 29.4461 39.8579 29.1463 39.8579C28.8465 39.8579 28.6035 40.1009 28.6035 40.4007C28.6035 40.7005 28.8465 40.9435 29.1463 40.9435C29.4461 40.9435 29.6891 40.7005 29.6891 40.4007Z" fill="#111111"/>
<path id="Vector_94" d="M31.4997 40.4007C31.4997 40.1009 31.2566 39.8579 30.9569 39.8579C30.6571 39.8579 30.4141 40.1009 30.4141 40.4007C30.4141 40.7005 30.6571 40.9435 30.9569 40.9435C31.2566 40.9435 31.4997 40.7005 31.4997 40.4007Z" fill="#111111"/>
<path id="Vector_95" d="M33.3102 40.4007C33.3102 40.1009 33.0672 39.8579 32.7674 39.8579C32.4676 39.8579 32.2246 40.1009 32.2246 40.4007C32.2246 40.7005 32.4676 40.9435 32.7674 40.9435C33.0672 40.9435 33.3102 40.7005 33.3102 40.4007Z" fill="#111111"/>
<path id="Vector_96" d="M36.9196 40.4007C36.9196 40.1009 36.6766 39.8579 36.3768 39.8579C36.077 39.8579 35.834 40.1009 35.834 40.4007C35.834 40.7005 36.077 40.9435 36.3768 40.9435C36.6766 40.9435 36.9196 40.7005 36.9196 40.4007Z" fill="#111111"/>
<path id="Vector_97" d="M38.7321 40.4007C38.7321 40.1009 38.4891 39.8579 38.1893 39.8579C37.8895 39.8579 37.6465 40.1009 37.6465 40.4007C37.6465 40.7005 37.8895 40.9435 38.1893 40.9435C38.4891 40.9435 38.7321 40.7005 38.7321 40.4007Z" fill="#111111"/>
<path id="Vector_98" d="M40.5426 40.4007C40.5426 40.1009 40.2996 39.8579 39.9998 39.8579C39.7001 39.8579 39.457 40.1009 39.457 40.4007C39.457 40.7005 39.7001 40.9435 39.9998 40.9435C40.2996 40.9435 40.5426 40.7005 40.5426 40.4007Z" fill="#111111"/>
<path id="Vector_99" d="M44.1559 40.4007C44.1559 40.1009 43.9129 39.8579 43.6131 39.8579C43.3133 39.8579 43.0703 40.1009 43.0703 40.4007C43.0703 40.7005 43.3133 40.9435 43.6131 40.9435C43.9129 40.9435 44.1559 40.7005 44.1559 40.4007Z" fill="#111111"/>
<path id="Vector_100" d="M45.9645 40.4007C45.9645 40.1009 45.7215 39.8579 45.4217 39.8579C45.1219 39.8579 44.8789 40.1009 44.8789 40.4007C44.8789 40.7005 45.1219 40.9435 45.4217 40.9435C45.7215 40.9435 45.9645 40.7005 45.9645 40.4007Z" fill="#111111"/>
<path id="Vector_101" d="M47.7731 40.4007C47.7731 40.1009 47.5301 39.8579 47.2303 39.8579C46.9305 39.8579 46.6875 40.1009 46.6875 40.4007C46.6875 40.7005 46.9305 40.9435 47.2303 40.9435C47.5301 40.9435 47.7731 40.7005 47.7731 40.4007Z" fill="#111111"/>
<path id="Vector_102" d="M49.5817 40.4007C49.5817 40.1009 49.3387 39.8579 49.0389 39.8579C48.7391 39.8579 48.4961 40.1009 48.4961 40.4007C48.4961 40.7005 48.7391 40.9435 49.0389 40.9435C49.3387 40.9435 49.5817 40.7005 49.5817 40.4007Z" fill="#111111"/>
<path id="Vector_103" d="M51.3922 40.4007C51.3922 40.1009 51.1492 39.8579 50.8494 39.8579C50.5497 39.8579 50.3066 40.1009 50.3066 40.4007C50.3066 40.7005 50.5497 40.9435 50.8494 40.9435C51.1492 40.9435 51.3922 40.7005 51.3922 40.4007Z" fill="#111111"/>
<path id="Vector_104" d="M53.2008 40.4007C53.2008 40.1009 52.9578 39.8579 52.658 39.8579C52.3583 39.8579 52.1152 40.1009 52.1152 40.4007C52.1152 40.7005 52.3583 40.9435 52.658 40.9435C52.9578 40.9435 53.2008 40.7005 53.2008 40.4007Z" fill="#111111"/>
<path id="Vector_105" d="M56.8161 40.4007C56.8161 40.1009 56.573 39.8579 56.2733 39.8579C55.9735 39.8579 55.7305 40.1009 55.7305 40.4007C55.7305 40.7005 55.9735 40.9435 56.2733 40.9435C56.573 40.9435 56.8161 40.7005 56.8161 40.4007Z" fill="#111111"/>
<path id="Vector_106" d="M60.4352 40.4007C60.4352 40.1009 60.1922 39.8579 59.8924 39.8579C59.5926 39.8579 59.3496 40.1009 59.3496 40.4007C59.3496 40.7005 59.5926 40.9435 59.8924 40.9435C60.1922 40.9435 60.4352 40.7005 60.4352 40.4007Z" fill="#111111"/>
<path id="Vector_107" d="M62.2438 40.4007C62.2438 40.1009 62.0008 39.8579 61.701 39.8579C61.4012 39.8579 61.1582 40.1009 61.1582 40.4007C61.1582 40.7005 61.4012 40.9435 61.701 40.9435C62.0008 40.9435 62.2438 40.7005 62.2438 40.4007Z" fill="#111111"/>
<path id="Vector_108" d="M20.6481 42.209C20.6481 41.9093 20.4051 41.6662 20.1053 41.6662C19.8055 41.6662 19.5625 41.9093 19.5625 42.209C19.5625 42.5088 19.8055 42.7518 20.1053 42.7518C20.4051 42.7518 20.6481 42.5088 20.6481 42.209Z" fill="#111111"/>
<path id="Vector_109" d="M24.2672 42.209C24.2672 41.9093 24.0242 41.6662 23.7244 41.6662C23.4247 41.6662 23.1816 41.9093 23.1816 42.209C23.1816 42.5088 23.4247 42.7518 23.7244 42.7518C24.0242 42.7518 24.2672 42.5088 24.2672 42.209Z" fill="#111111"/>
<path id="Vector_110" d="M26.0758 42.209C26.0758 41.9093 25.8328 41.6662 25.533 41.6662C25.2333 41.6662 24.9902 41.9093 24.9902 42.209C24.9902 42.5088 25.2333 42.7518 25.533 42.7518C25.8328 42.7518 26.0758 42.5088 26.0758 42.209Z" fill="#111111"/>
<path id="Vector_111" d="M27.8825 42.209C27.8825 41.9093 27.6395 41.6662 27.3397 41.6662C27.0399 41.6662 26.7969 41.9093 26.7969 42.209C26.7969 42.5088 27.0399 42.7518 27.3397 42.7518C27.6395 42.7518 27.8825 42.5088 27.8825 42.209Z" fill="#111111"/>
<path id="Vector_112" d="M35.1149 42.209C35.1149 41.9093 34.8719 41.6662 34.5721 41.6662C34.2723 41.6662 34.0293 41.9093 34.0293 42.209C34.0293 42.5088 34.2723 42.7518 34.5721 42.7518C34.8719 42.7518 35.1149 42.5088 35.1149 42.209Z" fill="#111111"/>
<path id="Vector_113" d="M36.9196 42.209C36.9196 41.9093 36.6766 41.6662 36.3768 41.6662C36.077 41.6662 35.834 41.9093 35.834 42.209C35.834 42.5088 36.077 42.7518 36.3768 42.7518C36.6766 42.7518 36.9196 42.5088 36.9196 42.209Z" fill="#111111"/>
<path id="Vector_114" d="M38.7321 42.209C38.7321 41.9093 38.4891 41.6662 38.1893 41.6662C37.8895 41.6662 37.6465 41.9093 37.6465 42.209C37.6465 42.5088 37.8895 42.7518 38.1893 42.7518C38.4891 42.7518 38.7321 42.5088 38.7321 42.209Z" fill="#111111"/>
<path id="Vector_115" d="M42.3512 42.209C42.3512 41.9093 42.1082 41.6662 41.8084 41.6662C41.5086 41.6662 41.2656 41.9093 41.2656 42.209C41.2656 42.5088 41.5086 42.7518 41.8084 42.7518C42.1082 42.7518 42.3512 42.5088 42.3512 42.209Z" fill="#111111"/>
<path id="Vector_116" d="M49.5817 42.209C49.5817 41.9093 49.3387 41.6662 49.0389 41.6662C48.7391 41.6662 48.4961 41.9093 48.4961 42.209C48.4961 42.5088 48.7391 42.7518 49.0389 42.7518C49.3387 42.7518 49.5817 42.5088 49.5817 42.209Z" fill="#111111"/>
<path id="Vector_117" d="M51.3922 42.209C51.3922 41.9093 51.1492 41.6662 50.8494 41.6662C50.5497 41.6662 50.3066 41.9093 50.3066 42.209C50.3066 42.5088 50.5497 42.7518 50.8494 42.7518C51.1492 42.7518 51.3922 42.5088 51.3922 42.209Z" fill="#111111"/>
<path id="Vector_118" d="M53.2008 42.209C53.2008 41.9093 52.9578 41.6662 52.658 41.6662C52.3583 41.6662 52.1152 41.9093 52.1152 42.209C52.1152 42.5088 52.3583 42.7518 52.658 42.7518C52.9578 42.7518 53.2008 42.5088 53.2008 42.209Z" fill="#111111"/>
<path id="Vector_119" d="M56.8161 42.209C56.8161 41.9093 56.573 41.6662 56.2733 41.6662C55.9735 41.6662 55.7305 41.9093 55.7305 42.209C55.7305 42.5088 55.9735 42.7518 56.2733 42.7518C56.573 42.7518 56.8161 42.5088 56.8161 42.209Z" fill="#111111"/>
<path id="Vector_120" d="M58.6266 42.209C58.6266 41.9093 58.3836 41.6662 58.0838 41.6662C57.784 41.6662 57.541 41.9093 57.541 42.209C57.541 42.5088 57.784 42.7518 58.0838 42.7518C58.3836 42.7518 58.6266 42.5088 58.6266 42.209Z" fill="#111111"/>
<path id="Vector_121" d="M62.2438 42.209C62.2438 41.9093 62.0008 41.6662 61.701 41.6662C61.4012 41.6662 61.1582 41.9093 61.1582 42.209C61.1582 42.5088 61.4012 42.7518 61.701 42.7518C62.0008 42.7518 62.2438 42.5088 62.2438 42.209Z" fill="#111111"/>
<path id="Vector_122" d="M18.8415 44.0176C18.8415 43.7178 18.5984 43.4748 18.2987 43.4748C17.9989 43.4748 17.7559 43.7178 17.7559 44.0176C17.7559 44.3174 17.9989 44.5604 18.2987 44.5604C18.5984 44.5604 18.8415 44.3174 18.8415 44.0176Z" fill="#111111"/>
<path id="Vector_123" d="M24.2672 44.0176C24.2672 43.7178 24.0242 43.4748 23.7244 43.4748C23.4247 43.4748 23.1816 43.7178 23.1816 44.0176C23.1816 44.3174 23.4247 44.5604 23.7244 44.5604C24.0242 44.5604 24.2672 44.3174 24.2672 44.0176Z" fill="#111111"/>
<path id="Vector_124" d="M26.0758 44.0176C26.0758 43.7178 25.8328 43.4748 25.533 43.4748C25.2333 43.4748 24.9902 43.7178 24.9902 44.0176C24.9902 44.3174 25.2333 44.5604 25.533 44.5604C25.8328 44.5604 26.0758 44.3174 26.0758 44.0176Z" fill="#111111"/>
<path id="Vector_125" d="M27.8825 44.0176C27.8825 43.7178 27.6395 43.4748 27.3397 43.4748C27.0399 43.4748 26.7969 43.7178 26.7969 44.0176C26.7969 44.3174 27.0399 44.5604 27.3397 44.5604C27.6395 44.5604 27.8825 44.3174 27.8825 44.0176Z" fill="#111111"/>
<path id="Vector_126" d="M29.6891 44.0176C29.6891 43.7178 29.4461 43.4748 29.1463 43.4748C28.8465 43.4748 28.6035 43.7178 28.6035 44.0176C28.6035 44.3174 28.8465 44.5604 29.1463 44.5604C29.4461 44.5604 29.6891 44.3174 29.6891 44.0176Z" fill="#111111"/>
<path id="Vector_127" d="M31.4997 44.0176C31.4997 43.7178 31.2566 43.4748 30.9569 43.4748C30.6571 43.4748 30.4141 43.7178 30.4141 44.0176C30.4141 44.3174 30.6571 44.5604 30.9569 44.5604C31.2566 44.5604 31.4997 44.3174 31.4997 44.0176Z" fill="#111111"/>
<path id="Vector_128" d="M36.9196 44.0176C36.9196 43.7178 36.6766 43.4748 36.3768 43.4748C36.077 43.4748 35.834 43.7178 35.834 44.0176C35.834 44.3174 36.077 44.5604 36.3768 44.5604C36.6766 44.5604 36.9196 44.3174 36.9196 44.0176Z" fill="#111111"/>
<path id="Vector_129" d="M38.7321 44.0176C38.7321 43.7178 38.4891 43.4748 38.1893 43.4748C37.8895 43.4748 37.6465 43.7178 37.6465 44.0176C37.6465 44.3174 37.8895 44.5604 38.1893 44.5604C38.4891 44.5604 38.7321 44.3174 38.7321 44.0176Z" fill="#111111"/>
<path id="Vector_130" d="M42.3512 44.0176C42.3512 43.7178 42.1082 43.4748 41.8084 43.4748C41.5086 43.4748 41.2656 43.7178 41.2656 44.0176C41.2656 44.3174 41.5086 44.5604 41.8084 44.5604C42.1082 44.5604 42.3512 44.3174 42.3512 44.0176Z" fill="#111111"/>
<path id="Vector_131" d="M44.1559 44.0176C44.1559 43.7178 43.9129 43.4748 43.6131 43.4748C43.3133 43.4748 43.0703 43.7178 43.0703 44.0176C43.0703 44.3174 43.3133 44.5604 43.6131 44.5604C43.9129 44.5604 44.1559 44.3174 44.1559 44.0176Z" fill="#111111"/>
<path id="Vector_132" d="M47.7731 44.0176C47.7731 43.7178 47.5301 43.4748 47.2303 43.4748C46.9305 43.4748 46.6875 43.7178 46.6875 44.0176C46.6875 44.3174 46.9305 44.5604 47.2303 44.5604C47.5301 44.5604 47.7731 44.3174 47.7731 44.0176Z" fill="#111111"/>
<path id="Vector_133" d="M51.3922 44.0176C51.3922 43.7178 51.1492 43.4748 50.8494 43.4748C50.5497 43.4748 50.3066 43.7178 50.3066 44.0176C50.3066 44.3174 50.5497 44.5604 50.8494 44.5604C51.1492 44.5604 51.3922 44.3174 51.3922 44.0176Z" fill="#111111"/>
<path id="Vector_134" d="M53.2008 44.0176C53.2008 43.7178 52.9578 43.4748 52.658 43.4748C52.3583 43.4748 52.1152 43.7178 52.1152 44.0176C52.1152 44.3174 52.3583 44.5604 52.658 44.5604C52.9578 44.5604 53.2008 44.3174 53.2008 44.0176Z" fill="#111111"/>
<path id="Vector_135" d="M55.0094 44.0176C55.0094 43.7178 54.7664 43.4748 54.4666 43.4748C54.1668 43.4748 53.9238 43.7178 53.9238 44.0176C53.9238 44.3174 54.1668 44.5604 54.4666 44.5604C54.7664 44.5604 55.0094 44.3174 55.0094 44.0176Z" fill="#111111"/>
<path id="Vector_136" d="M58.6266 44.0176C58.6266 43.7178 58.3836 43.4748 58.0838 43.4748C57.784 43.4748 57.541 43.7178 57.541 44.0176C57.541 44.3174 57.784 44.5604 58.0838 44.5604C58.3836 44.5604 58.6266 44.3174 58.6266 44.0176Z" fill="#111111"/>
<path id="Vector_137" d="M62.2438 44.0176C62.2438 43.7178 62.0008 43.4748 61.701 43.4748C61.4012 43.4748 61.1582 43.7178 61.1582 44.0176C61.1582 44.3174 61.4012 44.5604 61.701 44.5604C62.0008 44.5604 62.2438 44.3174 62.2438 44.0176Z" fill="#111111"/>
<path id="Vector_138" d="M20.6481 45.826C20.6481 45.5262 20.4051 45.2832 20.1053 45.2832C19.8055 45.2832 19.5625 45.5262 19.5625 45.826C19.5625 46.1257 19.8055 46.3688 20.1053 46.3688C20.4051 46.3688 20.6481 46.1257 20.6481 45.826Z" fill="#111111"/>
<path id="Vector_139" d="M24.2672 45.826C24.2672 45.5262 24.0242 45.2832 23.7244 45.2832C23.4247 45.2832 23.1816 45.5262 23.1816 45.826C23.1816 46.1257 23.4247 46.3688 23.7244 46.3688C24.0242 46.3688 24.2672 46.1257 24.2672 45.826Z" fill="#111111"/>
<path id="Vector_140" d="M27.8825 45.826C27.8825 45.5262 27.6395 45.2832 27.3397 45.2832C27.0399 45.2832 26.7969 45.5262 26.7969 45.826C26.7969 46.1257 27.0399 46.3688 27.3397 46.3688C27.6395 46.3688 27.8825 46.1257 27.8825 45.826Z" fill="#111111"/>
<path id="Vector_141" d="M31.4997 45.826C31.4997 45.5262 31.2566 45.2832 30.9569 45.2832C30.6571 45.2832 30.4141 45.5262 30.4141 45.826C30.4141 46.1257 30.6571 46.3688 30.9569 46.3688C31.2566 46.3688 31.4997 46.1257 31.4997 45.826Z" fill="#111111"/>
<path id="Vector_142" d="M33.3102 45.826C33.3102 45.5262 33.0672 45.2832 32.7674 45.2832C32.4676 45.2832 32.2246 45.5262 32.2246 45.826C32.2246 46.1257 32.4676 46.3688 32.7674 46.3688C33.0672 46.3688 33.3102 46.1257 33.3102 45.826Z" fill="#111111"/>
<path id="Vector_143" d="M40.5426 45.826C40.5426 45.5262 40.2996 45.2832 39.9998 45.2832C39.7001 45.2832 39.457 45.5262 39.457 45.826C39.457 46.1257 39.7001 46.3688 39.9998 46.3688C40.2996 46.3688 40.5426 46.1257 40.5426 45.826Z" fill="#111111"/>
<path id="Vector_144" d="M44.1559 45.826C44.1559 45.5262 43.9129 45.2832 43.6131 45.2832C43.3133 45.2832 43.0703 45.5262 43.0703 45.826C43.0703 46.1257 43.3133 46.3688 43.6131 46.3688C43.9129 46.3688 44.1559 46.1257 44.1559 45.826Z" fill="#111111"/>
<path id="Vector_145" d="M47.7731 45.826C47.7731 45.5262 47.5301 45.2832 47.2303 45.2832C46.9305 45.2832 46.6875 45.5262 46.6875 45.826C46.6875 46.1257 46.9305 46.3688 47.2303 46.3688C47.5301 46.3688 47.7731 46.1257 47.7731 45.826Z" fill="#111111"/>
<path id="Vector_146" d="M55.0094 45.826C55.0094 45.5262 54.7664 45.2832 54.4666 45.2832C54.1668 45.2832 53.9238 45.5262 53.9238 45.826C53.9238 46.1257 54.1668 46.3688 54.4666 46.3688C54.7664 46.3688 55.0094 46.1257 55.0094 45.826Z" fill="#111111"/>
<path id="Vector_147" d="M56.8161 45.826C56.8161 45.5262 56.573 45.2832 56.2733 45.2832C55.9735 45.2832 55.7305 45.5262 55.7305 45.826C55.7305 46.1257 55.9735 46.3688 56.2733 46.3688C56.573 46.3688 56.8161 46.1257 56.8161 45.826Z" fill="#111111"/>
<path id="Vector_148" d="M60.4352 45.826C60.4352 45.5262 60.1922 45.2832 59.8924 45.2832C59.5926 45.2832 59.3496 45.5262 59.3496 45.826C59.3496 46.1257 59.5926 46.3688 59.8924 46.3688C60.1922 46.3688 60.4352 46.1257 60.4352 45.826Z" fill="#111111"/>
<path id="Vector_149" d="M18.8415 47.6343C18.8415 47.3345 18.5984 47.0915 18.2987 47.0915C17.9989 47.0915 17.7559 47.3345 17.7559 47.6343C17.7559 47.9341 17.9989 48.1771 18.2987 48.1771C18.5984 48.1771 18.8415 47.9341 18.8415 47.6343Z" fill="#111111"/>
<path id="Vector_150" d="M20.6481 47.6343C20.6481 47.3345 20.4051 47.0915 20.1053 47.0915C19.8055 47.0915 19.5625 47.3345 19.5625 47.6343C19.5625 47.9341 19.8055 48.1771 20.1053 48.1771C20.4051 48.1771 20.6481 47.9341 20.6481 47.6343Z" fill="#111111"/>
<path id="Vector_151" d="M26.0758 47.6343C26.0758 47.3345 25.8328 47.0915 25.533 47.0915C25.2333 47.0915 24.9902 47.3345 24.9902 47.6343C24.9902 47.9341 25.2333 48.1771 25.533 48.1771C25.8328 48.1771 26.0758 47.9341 26.0758 47.6343Z" fill="#111111"/>
<path id="Vector_152" d="M29.6891 47.6343C29.6891 47.3345 29.4461 47.0915 29.1463 47.0915C28.8465 47.0915 28.6035 47.3345 28.6035 47.6343C28.6035 47.9341 28.8465 48.1771 29.1463 48.1771C29.4461 48.1771 29.6891 47.9341 29.6891 47.6343Z" fill="#111111"/>
<path id="Vector_153" d="M31.4997 47.6343C31.4997 47.3345 31.2566 47.0915 30.9569 47.0915C30.6571 47.0915 30.4141 47.3345 30.4141 47.6343C30.4141 47.9341 30.6571 48.1771 30.9569 48.1771C31.2566 48.1771 31.4997 47.9341 31.4997 47.6343Z" fill="#111111"/>
<path id="Vector_154" d="M35.1149 47.6343C35.1149 47.3345 34.8719 47.0915 34.5721 47.0915C34.2723 47.0915 34.0293 47.3345 34.0293 47.6343C34.0293 47.9341 34.2723 48.1771 34.5721 48.1771C34.8719 48.1771 35.1149 47.9341 35.1149 47.6343Z" fill="#111111"/>
<path id="Vector_155" d="M40.5426 47.6343C40.5426 47.3345 40.2996 47.0915 39.9998 47.0915C39.7001 47.0915 39.457 47.3345 39.457 47.6343C39.457 47.9341 39.7001 48.1771 39.9998 48.1771C40.2996 48.1771 40.5426 47.9341 40.5426 47.6343Z" fill="#111111"/>
<path id="Vector_156" d="M42.3512 47.6343C42.3512 47.3345 42.1082 47.0915 41.8084 47.0915C41.5086 47.0915 41.2656 47.3345 41.2656 47.6343C41.2656 47.9341 41.5086 48.1771 41.8084 48.1771C42.1082 48.1771 42.3512 47.9341 42.3512 47.6343Z" fill="#111111"/>
<path id="Vector_157" d="M56.8161 47.6343C56.8161 47.3345 56.573 47.0915 56.2733 47.0915C55.9735 47.0915 55.7305 47.3345 55.7305 47.6343C55.7305 47.9341 55.9735 48.1771 56.2733 48.1771C56.573 48.1771 56.8161 47.9341 56.8161 47.6343Z" fill="#111111"/>
<path id="Vector_158" d="M58.6266 47.6343C58.6266 47.3345 58.3836 47.0915 58.0838 47.0915C57.784 47.0915 57.541 47.3345 57.541 47.6343C57.541 47.9341 57.784 48.1771 58.0838 48.1771C58.3836 48.1771 58.6266 47.9341 58.6266 47.6343Z" fill="#111111"/>
<path id="Vector_159" d="M33.3102 49.4422C33.3102 49.1424 33.0672 48.8994 32.7674 48.8994C32.4676 48.8994 32.2246 49.1424 32.2246 49.4422C32.2246 49.742 32.4676 49.985 32.7674 49.985C33.0672 49.985 33.3102 49.742 33.3102 49.4422Z" fill="#111111"/>
<path id="Vector_160" d="M35.1149 49.4422C35.1149 49.1424 34.8719 48.8994 34.5721 48.8994C34.2723 48.8994 34.0293 49.1424 34.0293 49.4422C34.0293 49.742 34.2723 49.985 34.5721 49.985C34.8719 49.985 35.1149 49.742 35.1149 49.4422Z" fill="#111111"/>
<path id="Vector_161" d="M42.3512 49.4422C42.3512 49.1424 42.1082 48.8994 41.8084 48.8994C41.5086 48.8994 41.2656 49.1424 41.2656 49.4422C41.2656 49.742 41.5086 49.985 41.8084 49.985C42.1082 49.985 42.3512 49.742 42.3512 49.4422Z" fill="#111111"/>
<path id="Vector_162" d="M45.9645 49.4422C45.9645 49.1424 45.7215 48.8994 45.4217 48.8994C45.1219 48.8994 44.8789 49.1424 44.8789 49.4422C44.8789 49.742 45.1219 49.985 45.4217 49.985C45.7215 49.985 45.9645 49.742 45.9645 49.4422Z" fill="#111111"/>
<path id="Vector_163" d="M56.8161 49.4422C56.8161 49.1424 56.573 48.8994 56.2733 48.8994C55.9735 48.8994 55.7305 49.1424 55.7305 49.4422C55.7305 49.742 55.9735 49.985 56.2733 49.985C56.573 49.985 56.8161 49.742 56.8161 49.4422Z" fill="#111111"/>
<path id="Vector_164" d="M58.6266 49.4422C58.6266 49.1424 58.3836 48.8994 58.0838 48.8994C57.784 48.8994 57.541 49.1424 57.541 49.4422C57.541 49.742 57.784 49.985 58.0838 49.985C58.3836 49.985 58.6266 49.742 58.6266 49.4422Z" fill="#111111"/>
<path id="Vector_165" d="M62.2438 49.4422C62.2438 49.1424 62.0008 48.8994 61.701 48.8994C61.4012 48.8994 61.1582 49.1424 61.1582 49.4422C61.1582 49.742 61.4012 49.985 61.701 49.985C62.0008 49.985 62.2438 49.742 62.2438 49.4422Z" fill="#111111"/>
<path id="Vector_166" d="M33.3102 51.2508C33.3102 50.951 33.0672 50.708 32.7674 50.708C32.4676 50.708 32.2246 50.951 32.2246 51.2508C32.2246 51.5506 32.4676 51.7936 32.7674 51.7936C33.0672 51.7936 33.3102 51.5506 33.3102 51.2508Z" fill="#111111"/>
<path id="Vector_167" d="M38.7321 51.2508C38.7321 50.951 38.4891 50.708 38.1893 50.708C37.8895 50.708 37.6465 50.951 37.6465 51.2508C37.6465 51.5506 37.8895 51.7936 38.1893 51.7936C38.4891 51.7936 38.7321 51.5506 38.7321 51.2508Z" fill="#111111"/>
<path id="Vector_168" d="M42.3512 51.2508C42.3512 50.951 42.1082 50.708 41.8084 50.708C41.5086 50.708 41.2656 50.951 41.2656 51.2508C41.2656 51.5506 41.5086 51.7936 41.8084 51.7936C42.1082 51.7936 42.3512 51.5506 42.3512 51.2508Z" fill="#111111"/>
<path id="Vector_169" d="M45.9645 51.2508C45.9645 50.951 45.7215 50.708 45.4217 50.708C45.1219 50.708 44.8789 50.951 44.8789 51.2508C44.8789 51.5506 45.1219 51.7936 45.4217 51.7936C45.7215 51.7936 45.9645 51.5506 45.9645 51.2508Z" fill="#111111"/>
<path id="Vector_170" d="M54.3272 47.0915H49.175C48.8001 47.0915 48.4961 47.3344 48.4961 47.634C48.4961 47.9336 48.8001 48.1765 49.175 48.1765H54.3272C54.7022 48.1765 55.0062 47.9336 55.0062 47.634C55.0062 47.3344 54.7022 47.0915 54.3272 47.0915Z" fill="#111111"/>
<path id="Vector_171" d="M55.0088 49.5783C55.0088 49.2034 54.7659 48.8994 54.4663 48.8994C54.1667 48.8994 53.9238 49.2034 53.9238 49.5783V54.7306C53.9238 55.1055 54.1667 55.4095 54.4663 55.4095C54.7659 55.4095 55.0088 55.1055 55.0088 54.7306V49.5783Z" fill="#111111"/>
<path id="Vector_172" d="M52.5186 54.3251H47.3664C46.9915 54.3251 46.6875 54.568 46.6875 54.8677C46.6875 55.1673 46.9915 55.4102 47.3664 55.4102H52.5186C52.8936 55.4102 53.1976 55.1673 53.1976 54.8677C53.1976 54.568 52.8936 54.3251 52.5186 54.3251Z" fill="#111111"/>
<path id="Vector_173" d="M47.7725 47.7704C47.7725 47.3955 47.5296 47.0915 47.23 47.0915C46.9304 47.0915 46.6875 47.3955 46.6875 47.7704V52.9227C46.6875 53.2976 46.9304 53.6016 47.23 53.6016C47.5296 53.6016 47.7725 53.2976 47.7725 52.9227V47.7704Z" fill="#111111"/>
<path id="Vector_174" d="M51.3922 51.2508C51.3922 50.951 51.1492 50.708 50.8494 50.708C50.5497 50.708 50.3066 50.951 50.3066 51.2508C50.3066 51.5506 50.5497 51.7936 50.8494 51.7936C51.1492 51.7936 51.3922 51.5506 51.3922 51.2508Z" fill="#111111"/>
<path id="Vector_175" d="M60.4352 51.2508C60.4352 50.951 60.1922 50.708 59.8924 50.708C59.5926 50.708 59.3496 50.951 59.3496 51.2508C59.3496 51.5506 59.5926 51.7936 59.8924 51.7936C60.1922 51.7936 60.4352 51.5506 60.4352 51.2508Z" fill="#111111"/>
<path id="Vector_176" d="M62.2438 51.2508C62.2438 50.951 62.0008 50.708 61.701 50.708C61.4012 50.708 61.1582 50.951 61.1582 51.2508C61.1582 51.5506 61.4012 51.7936 61.701 51.7936C62.0008 51.7936 62.2438 51.5506 62.2438 51.2508Z" fill="#111111"/>
<path id="Vector_177" d="M33.3102 53.0594C33.3102 52.7596 33.0672 52.5166 32.7674 52.5166C32.4676 52.5166 32.2246 52.7596 32.2246 53.0594C32.2246 53.3592 32.4676 53.6022 32.7674 53.6022C33.0672 53.6022 33.3102 53.3592 33.3102 53.0594Z" fill="#111111"/>
<path id="Vector_178" d="M36.9196 53.0594C36.9196 52.7596 36.6766 52.5166 36.3768 52.5166C36.077 52.5166 35.834 52.7596 35.834 53.0594C35.834 53.3592 36.077 53.6022 36.3768 53.6022C36.6766 53.6022 36.9196 53.3592 36.9196 53.0594Z" fill="#111111"/>
<path id="Vector_179" d="M40.5426 53.0594C40.5426 52.7596 40.2996 52.5166 39.9998 52.5166C39.7001 52.5166 39.457 52.7596 39.457 53.0594C39.457 53.3592 39.7001 53.6022 39.9998 53.6022C40.2996 53.6022 40.5426 53.3592 40.5426 53.0594Z" fill="#111111"/>
<path id="Vector_180" d="M42.3512 53.0594C42.3512 52.7596 42.1082 52.5166 41.8084 52.5166C41.5086 52.5166 41.2656 52.7596 41.2656 53.0594C41.2656 53.3592 41.5086 53.6022 41.8084 53.6022C42.1082 53.6022 42.3512 53.3592 42.3512 53.0594Z" fill="#111111"/>
<path id="Vector_181" d="M44.1559 53.0594C44.1559 52.7596 43.9129 52.5166 43.6131 52.5166C43.3133 52.5166 43.0703 52.7596 43.0703 53.0594C43.0703 53.3592 43.3133 53.6022 43.6131 53.6022C43.9129 53.6022 44.1559 53.3592 44.1559 53.0594Z" fill="#111111"/>
<path id="Vector_182" d="M56.8161 53.0594C56.8161 52.7596 56.573 52.5166 56.2733 52.5166C55.9735 52.5166 55.7305 52.7596 55.7305 53.0594C55.7305 53.3592 55.9735 53.6022 56.2733 53.6022C56.573 53.6022 56.8161 53.3592 56.8161 53.0594Z" fill="#111111"/>
<path id="Vector_183" d="M58.6266 53.0594C58.6266 52.7596 58.3836 52.5166 58.0838 52.5166C57.784 52.5166 57.541 52.7596 57.541 53.0594C57.541 53.3592 57.784 53.6022 58.0838 53.6022C58.3836 53.6022 58.6266 53.3592 58.6266 53.0594Z" fill="#111111"/>
<path id="Vector_184" d="M60.4352 53.0594C60.4352 52.7596 60.1922 52.5166 59.8924 52.5166C59.5926 52.5166 59.3496 52.7596 59.3496 53.0594C59.3496 53.3592 59.5926 53.6022 59.8924 53.6022C60.1922 53.6022 60.4352 53.3592 60.4352 53.0594Z" fill="#111111"/>
<path id="Vector_185" d="M36.9196 54.8679C36.9196 54.5682 36.6766 54.3251 36.3768 54.3251C36.077 54.3251 35.834 54.5682 35.834 54.8679C35.834 55.1677 36.077 55.4107 36.3768 55.4107C36.6766 55.4107 36.9196 55.1677 36.9196 54.8679Z" fill="#111111"/>
<path id="Vector_186" d="M40.5426 54.8679C40.5426 54.5682 40.2996 54.3251 39.9998 54.3251C39.7001 54.3251 39.457 54.5682 39.457 54.8679C39.457 55.1677 39.7001 55.4107 39.9998 55.4107C40.2996 55.4107 40.5426 55.1677 40.5426 54.8679Z" fill="#111111"/>
<path id="Vector_187" d="M42.3512 54.8679C42.3512 54.5682 42.1082 54.3251 41.8084 54.3251C41.5086 54.3251 41.2656 54.5682 41.2656 54.8679C41.2656 55.1677 41.5086 55.4107 41.8084 55.4107C42.1082 55.4107 42.3512 55.1677 42.3512 54.8679Z" fill="#111111"/>
<path id="Vector_188" d="M62.2438 54.8679C62.2438 54.5682 62.0008 54.3251 61.701 54.3251C61.4012 54.3251 61.1582 54.5682 61.1582 54.8679C61.1582 55.1677 61.4012 55.4107 61.701 55.4107C62.0008 55.4107 62.2438 55.1677 62.2438 54.8679Z" fill="#111111"/>
<path id="Vector_189" d="M33.3102 56.6761C33.3102 56.3763 33.0672 56.1333 32.7674 56.1333C32.4676 56.1333 32.2246 56.3763 32.2246 56.6761C32.2246 56.9759 32.4676 57.2189 32.7674 57.2189C33.0672 57.2189 33.3102 56.9759 33.3102 56.6761Z" fill="#111111"/>
<path id="Vector_190" d="M36.9196 56.6761C36.9196 56.3763 36.6766 56.1333 36.3768 56.1333C36.077 56.1333 35.834 56.3763 35.834 56.6761C35.834 56.9759 36.077 57.2189 36.3768 57.2189C36.6766 57.2189 36.9196 56.9759 36.9196 56.6761Z" fill="#111111"/>
<path id="Vector_191" d="M42.3512 56.6761C42.3512 56.3763 42.1082 56.1333 41.8084 56.1333C41.5086 56.1333 41.2656 56.3763 41.2656 56.6761C41.2656 56.9759 41.5086 57.2189 41.8084 57.2189C42.1082 57.2189 42.3512 56.9759 42.3512 56.6761Z" fill="#111111"/>
<path id="Vector_192" d="M53.2008 56.6761C53.2008 56.3763 52.9578 56.1333 52.658 56.1333C52.3583 56.1333 52.1152 56.3763 52.1152 56.6761C52.1152 56.9759 52.3583 57.2189 52.658 57.2189C52.9578 57.2189 53.2008 56.9759 53.2008 56.6761Z" fill="#111111"/>
<path id="Vector_193" d="M58.6266 56.6761C58.6266 56.3763 58.3836 56.1333 58.0838 56.1333C57.784 56.1333 57.541 56.3763 57.541 56.6761C57.541 56.9759 57.784 57.2189 58.0838 57.2189C58.3836 57.2189 58.6266 56.9759 58.6266 56.6761Z" fill="#111111"/>
<path id="Vector_194" d="M35.1149 58.4842C35.1149 58.1844 34.8719 57.9414 34.5721 57.9414C34.2723 57.9414 34.0293 58.1844 34.0293 58.4842C34.0293 58.784 34.2723 59.027 34.5721 59.027C34.8719 59.027 35.1149 58.784 35.1149 58.4842Z" fill="#111111"/>
<path id="Vector_195" d="M40.5426 58.4842C40.5426 58.1844 40.2996 57.9414 39.9998 57.9414C39.7001 57.9414 39.457 58.1844 39.457 58.4842C39.457 58.784 39.7001 59.027 39.9998 59.027C40.2996 59.027 40.5426 58.784 40.5426 58.4842Z" fill="#111111"/>
<path id="Vector_196" d="M42.3512 58.4842C42.3512 58.1844 42.1082 57.9414 41.8084 57.9414C41.5086 57.9414 41.2656 58.1844 41.2656 58.4842C41.2656 58.784 41.5086 59.027 41.8084 59.027C42.1082 59.027 42.3512 58.784 42.3512 58.4842Z" fill="#111111"/>
<path id="Vector_197" d="M47.7731 58.4842C47.7731 58.1844 47.5301 57.9414 47.2303 57.9414C46.9305 57.9414 46.6875 58.1844 46.6875 58.4842C46.6875 58.784 46.9305 59.027 47.2303 59.027C47.5301 59.027 47.7731 58.784 47.7731 58.4842Z" fill="#111111"/>
<path id="Vector_198" d="M49.5817 58.4842C49.5817 58.1844 49.3387 57.9414 49.0389 57.9414C48.7391 57.9414 48.4961 58.1844 48.4961 58.4842C48.4961 58.784 48.7391 59.027 49.0389 59.027C49.3387 59.027 49.5817 58.784 49.5817 58.4842Z" fill="#111111"/>
<path id="Vector_199" d="M55.0094 58.4842C55.0094 58.1844 54.7664 57.9414 54.4666 57.9414C54.1668 57.9414 53.9238 58.1844 53.9238 58.4842C53.9238 58.784 54.1668 59.027 54.4666 59.027C54.7664 59.027 55.0094 58.784 55.0094 58.4842Z" fill="#111111"/>
<path id="Vector_200" d="M56.8161 58.4842C56.8161 58.1844 56.573 57.9414 56.2733 57.9414C55.9735 57.9414 55.7305 58.1844 55.7305 58.4842C55.7305 58.784 55.9735 59.027 56.2733 59.027C56.573 59.027 56.8161 58.784 56.8161 58.4842Z" fill="#111111"/>
<path id="Vector_201" d="M58.6266 58.4842C58.6266 58.1844 58.3836 57.9414 58.0838 57.9414C57.784 57.9414 57.541 58.1844 57.541 58.4842C57.541 58.784 57.784 59.027 58.0838 59.027C58.3836 59.027 58.6266 58.784 58.6266 58.4842Z" fill="#111111"/>
<path id="Vector_202" d="M62.2438 58.4842C62.2438 58.1844 62.0008 57.9414 61.701 57.9414C61.4012 57.9414 61.1582 58.1844 61.1582 58.4842C61.1582 58.784 61.4012 59.027 61.701 59.027C62.0008 59.027 62.2438 58.784 62.2438 58.4842Z" fill="#111111"/>
<path id="Vector_203" d="M33.3102 60.2926C33.3102 59.9928 33.0672 59.7498 32.7674 59.7498C32.4676 59.7498 32.2246 59.9928 32.2246 60.2926C32.2246 60.5923 32.4676 60.8354 32.7674 60.8354C33.0672 60.8354 33.3102 60.5923 33.3102 60.2926Z" fill="#111111"/>
<path id="Vector_204" d="M35.1149 60.2926C35.1149 59.9928 34.8719 59.7498 34.5721 59.7498C34.2723 59.7498 34.0293 59.9928 34.0293 60.2926C34.0293 60.5923 34.2723 60.8354 34.5721 60.8354C34.8719 60.8354 35.1149 60.5923 35.1149 60.2926Z" fill="#111111"/>
<path id="Vector_205" d="M36.9196 60.2926C36.9196 59.9928 36.6766 59.7498 36.3768 59.7498C36.077 59.7498 35.834 59.9928 35.834 60.2926C35.834 60.5923 36.077 60.8354 36.3768 60.8354C36.6766 60.8354 36.9196 60.5923 36.9196 60.2926Z" fill="#111111"/>
<path id="Vector_206" d="M40.5426 60.2926C40.5426 59.9928 40.2996 59.7498 39.9998 59.7498C39.7001 59.7498 39.457 59.9928 39.457 60.2926C39.457 60.5923 39.7001 60.8354 39.9998 60.8354C40.2996 60.8354 40.5426 60.5923 40.5426 60.2926Z" fill="#111111"/>
<path id="Vector_207" d="M42.3512 60.2926C42.3512 59.9928 42.1082 59.7498 41.8084 59.7498C41.5086 59.7498 41.2656 59.9928 41.2656 60.2926C41.2656 60.5923 41.5086 60.8354 41.8084 60.8354C42.1082 60.8354 42.3512 60.5923 42.3512 60.2926Z" fill="#111111"/>
<path id="Vector_208" d="M45.9645 60.2926C45.9645 59.9928 45.7215 59.7498 45.4217 59.7498C45.1219 59.7498 44.8789 59.9928 44.8789 60.2926C44.8789 60.5923 45.1219 60.8354 45.4217 60.8354C45.7215 60.8354 45.9645 60.5923 45.9645 60.2926Z" fill="#111111"/>
<path id="Vector_209" d="M47.7731 60.2926C47.7731 59.9928 47.5301 59.7498 47.2303 59.7498C46.9305 59.7498 46.6875 59.9928 46.6875 60.2926C46.6875 60.5923 46.9305 60.8354 47.2303 60.8354C47.5301 60.8354 47.7731 60.5923 47.7731 60.2926Z" fill="#111111"/>
<path id="Vector_210" d="M56.8161 60.2926C56.8161 59.9928 56.573 59.7498 56.2733 59.7498C55.9735 59.7498 55.7305 59.9928 55.7305 60.2926C55.7305 60.5923 55.9735 60.8354 56.2733 60.8354C56.573 60.8354 56.8161 60.5923 56.8161 60.2926Z" fill="#111111"/>
<path id="Vector_211" d="M35.1149 62.1009C35.1149 61.8011 34.8719 61.5581 34.5721 61.5581C34.2723 61.5581 34.0293 61.8011 34.0293 62.1009C34.0293 62.4007 34.2723 62.6437 34.5721 62.6437C34.8719 62.6437 35.1149 62.4007 35.1149 62.1009Z" fill="#111111"/>
<path id="Vector_212" d="M36.9196 62.1009C36.9196 61.8011 36.6766 61.5581 36.3768 61.5581C36.077 61.5581 35.834 61.8011 35.834 62.1009C35.834 62.4007 36.077 62.6437 36.3768 62.6437C36.6766 62.6437 36.9196 62.4007 36.9196 62.1009Z" fill="#111111"/>
<path id="Vector_213" d="M38.7321 62.1009C38.7321 61.8011 38.4891 61.5581 38.1893 61.5581C37.8895 61.5581 37.6465 61.8011 37.6465 62.1009C37.6465 62.4007 37.8895 62.6437 38.1893 62.6437C38.4891 62.6437 38.7321 62.4007 38.7321 62.1009Z" fill="#111111"/>
<path id="Vector_214" d="M40.5426 62.1009C40.5426 61.8011 40.2996 61.5581 39.9998 61.5581C39.7001 61.5581 39.457 61.8011 39.457 62.1009C39.457 62.4007 39.7001 62.6437 39.9998 62.6437C40.2996 62.6437 40.5426 62.4007 40.5426 62.1009Z" fill="#111111"/>
<path id="Vector_215" d="M42.3512 62.1009C42.3512 61.8011 42.1082 61.5581 41.8084 61.5581C41.5086 61.5581 41.2656 61.8011 41.2656 62.1009C41.2656 62.4007 41.5086 62.6437 41.8084 62.6437C42.1082 62.6437 42.3512 62.4007 42.3512 62.1009Z" fill="#111111"/>
<path id="Vector_216" d="M45.9645 62.1009C45.9645 61.8011 45.7215 61.5581 45.4217 61.5581C45.1219 61.5581 44.8789 61.8011 44.8789 62.1009C44.8789 62.4007 45.1219 62.6437 45.4217 62.6437C45.7215 62.6437 45.9645 62.4007 45.9645 62.1009Z" fill="#111111"/>
<path id="Vector_217" d="M47.7731 62.1009C47.7731 61.8011 47.5301 61.5581 47.2303 61.5581C46.9305 61.5581 46.6875 61.8011 46.6875 62.1009C46.6875 62.4007 46.9305 62.6437 47.2303 62.6437C47.5301 62.6437 47.7731 62.4007 47.7731 62.1009Z" fill="#111111"/>
<path id="Vector_218" d="M53.2008 62.1009C53.2008 61.8011 52.9578 61.5581 52.658 61.5581C52.3583 61.5581 52.1152 61.8011 52.1152 62.1009C52.1152 62.4007 52.3583 62.6437 52.658 62.6437C52.9578 62.6437 53.2008 62.4007 53.2008 62.1009Z" fill="#111111"/>
<path id="Vector_219" d="M60.4352 62.1009C60.4352 61.8011 60.1922 61.5581 59.8924 61.5581C59.5926 61.5581 59.3496 61.8011 59.3496 62.1009C59.3496 62.4007 59.5926 62.6437 59.8924 62.6437C60.1922 62.6437 60.4352 62.4007 60.4352 62.1009Z" fill="#111111"/>
<path id="Vector_220" d="M62.2438 62.1009C62.2438 61.8011 62.0008 61.5581 61.701 61.5581C61.4012 61.5581 61.1582 61.8011 61.1582 62.1009C61.1582 62.4007 61.4012 62.6437 61.701 62.6437C62.0008 62.6437 62.2438 62.4007 62.2438 62.1009Z" fill="#111111"/>
<path id="Vector_221" d="M58.626 42.3451C58.626 41.9702 58.3831 41.6662 58.0835 41.6662C57.7839 41.6662 57.541 41.9702 57.541 42.3451V43.8807C57.541 44.2556 57.7839 44.5596 58.0835 44.5596C58.3831 44.5596 58.626 44.2556 58.626 43.8807V42.3451Z" fill="#111111"/>
<path id="Vector_222" d="M58.626 47.7704C58.626 47.3955 58.3831 47.0915 58.0835 47.0915C57.7839 47.0915 57.541 47.3955 57.541 47.7704V49.306C57.541 49.6809 57.7839 49.9849 58.0835 49.9849C58.3831 49.9849 58.626 49.6809 58.626 49.306V47.7704Z" fill="#111111"/>
<path id="Vector_223" d="M58.626 56.8122C58.626 56.4372 58.3831 56.1333 58.0835 56.1333C57.7839 56.1333 57.541 56.4372 57.541 56.8122V58.3477C57.541 58.7227 57.7839 59.0266 58.0835 59.0266C58.3831 59.0266 58.626 58.7227 58.626 58.3477V56.8122Z" fill="#111111"/>
<path id="Vector_224" d="M61.5641 50.708H60.0285C59.6536 50.708 59.3496 50.9509 59.3496 51.2505C59.3496 51.5501 59.6536 51.793 60.0285 51.793H61.5641C61.939 51.793 62.243 51.5501 62.243 51.2505C62.243 50.9509 61.939 50.708 61.5641 50.708Z" fill="#111111"/>
<path id="Vector_225" d="M18.8409 35.112C18.8409 34.737 18.598 34.433 18.2984 34.433C17.9987 34.433 17.7559 34.737 17.7559 35.112V36.6475C17.7559 37.0224 17.9987 37.3264 18.2984 37.3264C18.598 37.3264 18.8409 37.0224 18.8409 36.6475V35.112Z" fill="#111111"/>
<path id="Vector_226" d="M45.9639 18.8368C45.9639 18.4618 45.721 18.1579 45.4214 18.1579C45.1218 18.1579 44.8789 18.4618 44.8789 18.8368V22.1807C44.8789 22.5556 45.1218 22.8596 45.4214 22.8596C45.721 22.8596 45.9639 22.5556 45.9639 22.1807V18.8368Z" fill="#111111"/>
<path id="Vector_227" d="M45.9639 26.07C45.9639 25.695 45.721 25.3911 45.4214 25.3911C45.1218 25.3911 44.8789 25.695 44.8789 26.07V27.6055C44.8789 27.9805 45.1218 28.2844 45.4214 28.2844C45.721 28.2844 45.9639 27.9805 45.9639 27.6055V26.07Z" fill="#111111"/>
<path id="Vector_228" d="M45.9639 38.7289C45.9639 38.3539 45.721 38.05 45.4214 38.05C45.1218 38.05 44.8789 38.3539 44.8789 38.7289V40.2644C44.8789 40.6394 45.1218 40.9433 45.4214 40.9433C45.721 40.9433 45.9639 40.6394 45.9639 40.2644V38.7289Z" fill="#111111"/>
<path id="Vector_229" d="M45.9639 49.5783C45.9639 49.2034 45.721 48.8994 45.4214 48.8994C45.1218 48.8994 44.8789 49.2034 44.8789 49.5783V51.1139C44.8789 51.4888 45.1218 51.7928 45.4214 51.7928C45.721 51.7928 45.9639 51.4888 45.9639 51.1139V49.5783Z" fill="#111111"/>
<path id="Vector_230" d="M45.9639 60.4287C45.9639 60.0537 45.721 59.7498 45.4214 59.7498C45.1218 59.7498 44.8789 60.0537 44.8789 60.4287V61.9642C44.8789 62.3392 45.1218 62.6431 45.4214 62.6431C45.721 62.6431 45.9639 62.3392 45.9639 61.9642V60.4287Z" fill="#111111"/>
<path id="Vector_231" d="M55.0088 44.1537C55.0088 43.7788 54.7659 43.4748 54.4663 43.4748C54.1667 43.4748 53.9238 43.7788 53.9238 44.1537V45.6893C53.9238 46.0642 54.1667 46.3682 54.4663 46.3682C54.7659 46.3682 55.0088 46.0642 55.0088 45.6893V44.1537Z" fill="#111111"/>
<path id="Vector_232" d="M26.0752 36.9205C26.0752 36.5456 25.8324 36.2416 25.5327 36.2416C25.2331 36.2416 24.9902 36.5456 24.9902 36.9205V43.8811C24.9902 44.2561 25.2331 44.56 25.5327 44.56C25.8324 44.56 26.0752 44.2561 26.0752 43.8811V36.9205Z" fill="#111111"/>
<path id="Vector_233" d="M54.3297 38.05H52.7941C52.4192 38.05 52.1152 38.2929 52.1152 38.5925C52.1152 38.8921 52.4192 39.135 52.7941 39.135H54.3297C54.7046 39.135 55.0086 38.8921 55.0086 38.5925C55.0086 38.2929 54.7046 38.05 54.3297 38.05Z" fill="#111111"/>
<path id="Vector_234" d="M33.3096 22.4533C33.3096 22.0783 33.0667 21.7744 32.7671 21.7744C32.4675 21.7744 32.2246 22.0783 32.2246 22.4533V23.9888C32.2246 24.3638 32.4675 24.6677 32.7671 24.6677C33.0667 24.6677 33.3096 24.3638 33.3096 23.9888V22.4533Z" fill="#111111"/>
<path id="Vector_235" d="M33.3096 27.8785C33.3096 27.5036 33.0667 27.1996 32.7671 27.1996C32.4675 27.1996 32.2246 27.5036 32.2246 27.8785V33.0308C32.2246 33.4057 32.4675 33.7097 32.7671 33.7097C33.0667 33.7097 33.3096 33.4057 33.3096 33.0308V27.8785Z" fill="#111111"/>
<path id="Vector_236" d="M33.3096 36.9205C33.3096 36.5456 33.0667 36.2416 32.7671 36.2416C32.4675 36.2416 32.2246 36.5456 32.2246 36.9205V40.2644C32.2246 40.6394 32.4675 40.9433 32.7671 40.9433C33.0667 40.9433 33.3096 40.6394 33.3096 40.2644V36.9205Z" fill="#111111"/>
<path id="Vector_237" d="M33.3096 49.5783C33.3096 49.2034 33.0667 48.8994 32.7671 48.8994C32.4675 48.8994 32.2246 49.2034 32.2246 49.5783V52.9222C32.2246 53.2972 32.4675 53.6011 32.7671 53.6011C33.0667 53.6011 33.3096 53.2972 33.3096 52.9222V49.5783Z" fill="#111111"/>
<path id="Vector_238" d="M41.6715 54.3251H40.1359C39.761 54.3251 39.457 54.568 39.457 54.8677C39.457 55.1673 39.761 55.4102 40.1359 55.4102H41.6715C42.0464 55.4102 42.3504 55.1673 42.3504 54.8677C42.3504 54.568 42.0464 54.3251 41.6715 54.3251Z" fill="#111111"/>
<path id="Vector_239" d="M38.0484 30.8161H36.5129C36.1379 30.8161 35.834 31.059 35.834 31.3586C35.834 31.6582 36.1379 31.9011 36.5129 31.9011H38.0484C38.4234 31.9011 38.7273 31.6582 38.7273 31.3586C38.7273 31.059 38.4234 30.8161 38.0484 30.8161Z" fill="#111111"/>
<path id="Vector_240" d="M50.7103 34.433H47.3664C46.9915 34.433 46.6875 34.6759 46.6875 34.9756C46.6875 35.2752 46.9915 35.5181 47.3664 35.5181H50.7103C51.0853 35.5181 51.3892 35.2752 51.3892 34.9756C51.3892 34.6759 51.0853 34.433 50.7103 34.433Z" fill="#111111"/>
<path id="Vector_241" d="M53.2008 36.7844C53.2008 36.4846 52.9578 36.2416 52.658 36.2416C52.3583 36.2416 52.1152 36.4846 52.1152 36.7844C52.1152 37.0842 52.3583 37.3272 52.658 37.3272C52.9578 37.3272 53.2008 37.0842 53.2008 36.7844Z" fill="#111111"/>
<path id="Vector_242" d="M53.2002 40.5368C53.2002 40.1618 52.9574 39.8579 52.6577 39.8579C52.3581 39.8579 52.1152 40.1618 52.1152 40.5368V43.8807C52.1152 44.2556 52.3581 44.5596 52.6577 44.5596C52.9574 44.5596 53.2002 44.2556 53.2002 43.8807V40.5368Z" fill="#111111"/>
<path id="Vector_243" d="M31.4991 44.1537C31.4991 43.7788 31.2562 43.4748 30.9566 43.4748C30.657 43.4748 30.4141 43.7788 30.4141 44.1537V47.4976C30.4141 47.8726 30.657 48.1765 30.9566 48.1765C31.2562 48.1765 31.4991 47.8726 31.4991 47.4976V44.1537Z" fill="#111111"/>
<path id="Vector_244" d="M41.6715 57.9414H40.1359C39.761 57.9414 39.457 58.1843 39.457 58.4839C39.457 58.7835 39.761 59.0264 40.1359 59.0264H41.6715C42.0464 59.0264 42.3504 58.7835 42.3504 58.4839C42.3504 58.1843 42.0464 57.9414 41.6715 57.9414Z" fill="#111111"/>
<path id="Vector_245" d="M48.9019 57.9414H47.3664C46.9915 57.9414 46.6875 58.1843 46.6875 58.4839C46.6875 58.7835 46.9915 59.0264 47.3664 59.0264H48.9019C49.2769 59.0264 49.5809 58.7835 49.5809 58.4839C49.5809 58.1843 49.2769 57.9414 48.9019 57.9414Z" fill="#111111"/>
<path id="Vector_246" d="M19.9703 47.0915H18.4348C18.0598 47.0915 17.7559 47.3344 17.7559 47.634C17.7559 47.9336 18.0598 48.1765 18.4348 48.1765H19.9703C20.3453 48.1765 20.6492 47.9336 20.6492 47.634C20.6492 47.3344 20.3453 47.0915 19.9703 47.0915Z" fill="#111111"/>
<path id="Vector_247" d="M41.6715 47.0915H40.1359C39.761 47.0915 39.457 47.3344 39.457 47.634C39.457 47.9336 39.761 48.1765 40.1359 48.1765H41.6715C42.0464 48.1765 42.3504 47.9336 42.3504 47.634C42.3504 47.3344 42.0464 47.0915 41.6715 47.0915Z" fill="#111111"/>
<path id="Vector_248" d="M36.2474 59.7498H32.9035C32.5286 59.7498 32.2246 59.9927 32.2246 60.2923C32.2246 60.5919 32.5286 60.8348 32.9035 60.8348H36.2474C36.6224 60.8348 36.9263 60.5919 36.9263 60.2923C36.9263 59.9927 36.6224 59.7498 36.2474 59.7498Z" fill="#111111"/>
<path id="Vector_249" d="M41.6715 59.7498H40.1359C39.761 59.7498 39.457 59.9927 39.457 60.2923C39.457 60.5919 39.761 60.8348 40.1359 60.8348H41.6715C42.0464 60.8348 42.3504 60.5919 42.3504 60.2923C42.3504 59.9927 42.0464 59.7498 41.6715 59.7498Z" fill="#111111"/>
<path id="Vector_250" d="M38.0484 19.9664H36.5129C36.1379 19.9664 35.834 20.2093 35.834 20.5089C35.834 20.8086 36.1379 21.0515 36.5129 21.0515H38.0484C38.4234 21.0515 38.7273 20.8086 38.7273 20.5089C38.7273 20.2093 38.4234 19.9664 38.0484 19.9664Z" fill="#111111"/>
<path id="Vector_251" d="M40.542 33.3034C40.542 32.9284 40.2992 32.6245 39.9995 32.6245C39.6999 32.6245 39.457 32.9284 39.457 33.3034V34.8389C39.457 35.2139 39.6999 35.5178 39.9995 35.5178C40.2992 35.5178 40.542 35.2139 40.542 34.8389V33.3034Z" fill="#111111"/>
<path id="Vector_252" d="M40.5426 45.826C40.5426 45.5262 40.2996 45.2832 39.9998 45.2832C39.7001 45.2832 39.457 45.5262 39.457 45.826C39.457 46.1257 39.7001 46.3688 39.9998 46.3688C40.2996 46.3688 40.5426 46.1257 40.5426 45.826Z" fill="#111111"/>
<path id="Vector_253" d="M40.5426 53.0594C40.5426 52.7596 40.2996 52.5166 39.9998 52.5166C39.7001 52.5166 39.457 52.7596 39.457 53.0594C39.457 53.3592 39.7001 53.6022 39.9998 53.6022C40.2996 53.6022 40.5426 53.3592 40.5426 53.0594Z" fill="#111111"/>
<path id="Vector_254" d="M38.0484 43.4748H36.5129C36.1379 43.4748 35.834 43.7177 35.834 44.0173C35.834 44.3169 36.1379 44.5598 36.5129 44.5598H38.0484C38.4234 44.5598 38.7273 44.3169 38.7273 44.0173C38.7273 43.7177 38.4234 43.4748 38.0484 43.4748Z" fill="#111111"/>
<path id="Vector_255" d="M43.4801 43.4748H41.9445C41.5696 43.4748 41.2656 43.7177 41.2656 44.0173C41.2656 44.3169 41.5696 44.5598 41.9445 44.5598H43.4801C43.855 44.5598 44.159 44.3169 44.159 44.0173C44.159 43.7177 43.855 43.4748 43.4801 43.4748Z" fill="#111111"/>
<path id="Vector_256" d="M27.8819 36.9205C27.8819 36.5456 27.639 36.2416 27.3394 36.2416C27.0398 36.2416 26.7969 36.5456 26.7969 36.9205V38.4561C26.7969 38.831 27.0398 39.135 27.3394 39.135C27.639 39.135 27.8819 38.831 27.8819 38.4561V36.9205Z" fill="#111111"/>
<path id="Vector_257" d="M27.8819 42.3451C27.8819 41.9702 27.639 41.6662 27.3394 41.6662C27.0398 41.6662 26.7969 41.9702 26.7969 42.3451V45.689C26.7969 46.064 27.0398 46.3679 27.3394 46.3679C27.639 46.3679 27.8819 46.064 27.8819 45.689V42.3451Z" fill="#111111"/>
<path id="Vector_258" d="M56.8155 40.5368C56.8155 40.1618 56.5726 39.8579 56.273 39.8579C55.9734 39.8579 55.7305 40.1618 55.7305 40.5368V42.0723C55.7305 42.4473 55.9734 42.7512 56.273 42.7512C56.5726 42.7512 56.8155 42.4473 56.8155 42.0723V40.5368Z" fill="#111111"/>
<path id="Vector_259" d="M56.8155 45.9621C56.8155 45.5871 56.5726 45.2832 56.273 45.2832C55.9734 45.2832 55.7305 45.5871 55.7305 45.9621V49.306C55.7305 49.6809 55.9734 49.9849 56.273 49.9849C56.5726 49.9849 56.8155 49.6809 56.8155 49.306V45.9621Z" fill="#111111"/>
<path id="Vector_260" d="M56.8155 58.6203C56.8155 58.2454 56.5726 57.9414 56.273 57.9414C55.9734 57.9414 55.7305 58.2454 55.7305 58.6203V60.1559C55.7305 60.5308 55.9734 60.8348 56.273 60.8348C56.5726 60.8348 56.8155 60.5308 56.8155 60.1559V58.6203Z" fill="#111111"/>
<path id="Vector_261" d="M39.8568 39.8579H36.5129C36.1379 39.8579 35.834 40.1008 35.834 40.4004C35.834 40.7 36.1379 40.9429 36.5129 40.9429H39.8568C40.2317 40.9429 40.5357 40.7 40.5357 40.4004C40.5357 40.1008 40.2317 39.8579 39.8568 39.8579Z" fill="#111111"/>
<path id="Vector_262" d="M61.5641 39.8579H60.0285C59.6536 39.8579 59.3496 40.1008 59.3496 40.4004C59.3496 40.7 59.6536 40.9429 60.0285 40.9429H61.5641C61.939 40.9429 62.243 40.7 62.243 40.4004C62.243 40.1008 61.939 39.8579 61.5641 39.8579Z" fill="#111111"/>
<path id="Vector_263" d="M59.7533 52.5166H56.4094C56.0344 52.5166 55.7305 52.7595 55.7305 53.0591C55.7305 53.3587 56.0344 53.6016 56.4094 53.6016H59.7533C60.1282 53.6016 60.4322 53.3587 60.4322 53.0591C60.4322 52.7595 60.1282 52.5166 59.7533 52.5166Z" fill="#111111"/>
<path id="Vector_264" d="M51.3922 33.1673C51.3922 32.8675 51.1492 32.6245 50.8494 32.6245C50.5497 32.6245 50.3066 32.8675 50.3066 33.1673C50.3066 33.4671 50.5497 33.7101 50.8494 33.7101C51.1492 33.7101 51.3922 33.4671 51.3922 33.1673Z" fill="#111111"/>
<path id="Vector_265" d="M51.3917 40.5368C51.3917 40.1618 51.1488 39.8579 50.8491 39.8579C50.5495 39.8579 50.3066 40.1618 50.3066 40.5368V43.8807C50.3066 44.2556 50.5495 44.5596 50.8491 44.5596C51.1488 44.5596 51.3917 44.2556 51.3917 43.8807V40.5368Z" fill="#111111"/>
<path id="Vector_266" d="M49.5817 33.1673C49.5817 32.8675 49.3387 32.6245 49.0389 32.6245C48.7391 32.6245 48.4961 32.8675 48.4961 33.1673C48.4961 33.4671 48.7391 33.7101 49.0389 33.7101C49.3387 33.7101 49.5817 33.4671 49.5817 33.1673Z" fill="#111111"/>
<path id="Vector_267" d="M49.5811 40.5368C49.5811 40.1618 49.3382 39.8579 49.0386 39.8579C48.739 39.8579 48.4961 40.1618 48.4961 40.5368V42.0723C48.4961 42.4473 48.739 42.7512 49.0386 42.7512C49.3382 42.7512 49.5811 42.4473 49.5811 42.0723V40.5368Z" fill="#111111"/>
<path id="Vector_268" d="M38.0521 41.6662H34.7082C34.3333 41.6662 34.0293 41.9091 34.0293 42.2087C34.0293 42.5084 34.3333 42.7512 34.7082 42.7512H38.0521C38.427 42.7512 38.731 42.5084 38.731 42.2087C38.731 41.9091 38.427 41.6662 38.0521 41.6662Z" fill="#111111"/>
<path id="Vector_269" d="M24.2667 33.3034C24.2667 32.9284 24.0238 32.6245 23.7241 32.6245C23.4245 32.6245 23.1816 32.9284 23.1816 33.3034V38.4556C23.1816 38.8306 23.4245 39.1345 23.7241 39.1345C24.0238 39.1345 24.2667 38.8306 24.2667 38.4556V33.3034Z" fill="#111111"/>
<path id="Vector_270" d="M24.2667 42.3451C24.2667 41.9702 24.0238 41.6662 23.7241 41.6662C23.4245 41.6662 23.1816 41.9702 23.1816 42.3451V45.689C23.1816 46.064 23.4245 46.3679 23.7241 46.3679C24.0238 46.3679 24.2667 46.064 24.2667 45.689V42.3451Z" fill="#111111"/>
<path id="Vector_271" d="M38.0484 18.1579H36.5129C36.1379 18.1579 35.834 18.4008 35.834 18.7004C35.834 19 36.1379 19.2429 36.5129 19.2429H38.0484C38.4234 19.2429 38.7273 19 38.7273 18.7004C38.7273 18.4008 38.4234 18.1579 38.0484 18.1579Z" fill="#111111"/>
<path id="Vector_272" d="M38.7321 38.5928C38.7321 38.293 38.4891 38.05 38.1893 38.05C37.8895 38.05 37.6465 38.293 37.6465 38.5928C37.6465 38.8926 37.8895 39.1356 38.1893 39.1356C38.4891 39.1356 38.7321 38.8926 38.7321 38.5928Z" fill="#111111"/>
<path id="Vector_273" d="M47.7725 27.8785C47.7725 27.5036 47.5296 27.1996 47.23 27.1996C46.9304 27.1996 46.6875 27.5036 46.6875 27.8785V33.0308C46.6875 33.4057 46.9304 33.7097 47.23 33.7097C47.5296 33.7097 47.7725 33.4057 47.7725 33.0308V27.8785Z" fill="#111111"/>
<path id="Vector_274" d="M47.7725 44.1537C47.7725 43.7788 47.5296 43.4748 47.23 43.4748C46.9304 43.4748 46.6875 43.7788 46.6875 44.1537V45.6893C46.6875 46.0642 46.9304 46.3682 47.23 46.3682C47.5296 46.3682 47.7725 46.0642 47.7725 45.6893V44.1537Z" fill="#111111"/>
<path id="Vector_275" d="M47.7725 60.4287C47.7725 60.0537 47.5296 59.7498 47.23 59.7498C46.9304 59.7498 46.6875 60.0537 46.6875 60.4287V61.9642C46.6875 62.3392 46.9304 62.6431 47.23 62.6431C47.5296 62.6431 47.7725 62.3392 47.7725 61.9642V60.4287Z" fill="#111111"/>
<path id="Vector_276" d="M42.3506 36.9205C42.3506 36.5456 42.1077 36.2416 41.8081 36.2416C41.5085 36.2416 41.2656 36.5456 41.2656 36.9205V38.4561C41.2656 38.831 41.5085 39.135 41.8081 39.135C42.1077 39.135 42.3506 38.831 42.3506 38.4561V36.9205Z" fill="#111111"/>
<path id="Vector_277" d="M42.3512 42.209C42.3512 41.9093 42.1082 41.6662 41.8084 41.6662C41.5086 41.6662 41.2656 41.9093 41.2656 42.209C41.2656 42.5088 41.5086 42.7518 41.8084 42.7518C42.1082 42.7518 42.3512 42.5088 42.3512 42.209Z" fill="#111111"/>
<path id="Vector_278" d="M42.3506 49.5783C42.3506 49.2034 42.1077 48.8994 41.8081 48.8994C41.5085 48.8994 41.2656 49.2034 41.2656 49.5783V52.9222C41.2656 53.2972 41.5085 53.6011 41.8081 53.6011C42.1077 53.6011 42.3506 53.2972 42.3506 52.9222V49.5783Z" fill="#111111"/>
<path id="Vector_279" d="M42.3512 56.6761C42.3512 56.3763 42.1082 56.1333 41.8084 56.1333C41.5086 56.1333 41.2656 56.3763 41.2656 56.6761C41.2656 56.9759 41.5086 57.2189 41.8084 57.2189C42.1082 57.2189 42.3512 56.9759 42.3512 56.6761Z" fill="#111111"/>
<path id="Vector_280" d="M57.9449 32.6245H56.4094C56.0344 32.6245 55.7305 32.8674 55.7305 33.167C55.7305 33.4666 56.0344 33.7095 56.4094 33.7095H57.9449C58.3199 33.7095 58.6238 33.4666 58.6238 33.167C58.6238 32.8674 58.3199 32.6245 57.9449 32.6245Z" fill="#111111"/>
<path id="Vector_281" d="M61.5641 36.2416H60.0285C59.6536 36.2416 59.3496 36.4845 59.3496 36.7841C59.3496 37.0837 59.6536 37.3266 60.0285 37.3266H61.5641C61.939 37.3266 62.243 37.0837 62.243 36.7841C62.243 36.4845 61.939 36.2416 61.5641 36.2416Z" fill="#111111"/>
<path id="Vector_282" d="M62.2432 33.3034C62.2432 32.9284 62.0003 32.6245 61.7007 32.6245C61.4011 32.6245 61.1582 32.9284 61.1582 33.3034V34.8389C61.1582 35.2139 61.4011 35.5178 61.7007 35.5178C62.0003 35.5178 62.2432 35.2139 62.2432 34.8389V33.3034Z" fill="#111111"/>
<path id="Vector_283" d="M62.2432 42.3451C62.2432 41.9702 62.0003 41.6662 61.7007 41.6662C61.4011 41.6662 61.1582 41.9702 61.1582 42.3451V43.8807C61.1582 44.2556 61.4011 44.5596 61.7007 44.5596C62.0003 44.5596 62.2432 44.2556 62.2432 43.8807V42.3451Z" fill="#111111"/>
<path id="Vector_284" d="M62.2438 49.4422C62.2438 49.1424 62.0008 48.8994 61.701 48.8994C61.4012 48.8994 61.1582 49.1424 61.1582 49.4422C61.1582 49.742 61.4012 49.985 61.701 49.985C62.0008 49.985 62.2438 49.742 62.2438 49.4422Z" fill="#111111"/>
<path id="Vector_285" d="M44.1553 22.4533C44.1553 22.0783 43.9124 21.7744 43.6128 21.7744C43.3132 21.7744 43.0703 22.0783 43.0703 22.4533V25.7971C43.0703 26.1721 43.3132 26.4761 43.6128 26.4761C43.9124 26.4761 44.1553 26.1721 44.1553 25.7971V22.4533Z" fill="#111111"/>
<path id="Vector_286" d="M44.1553 29.6869C44.1553 29.3119 43.9124 29.008 43.6128 29.008C43.3132 29.008 43.0703 29.3119 43.0703 29.6869V33.0308C43.0703 33.4057 43.3132 33.7097 43.6128 33.7097C43.9124 33.7097 44.1553 33.4057 44.1553 33.0308V29.6869Z" fill="#111111"/>
<path id="Vector_287" d="M36.9196 29.5508C36.9196 29.251 36.6766 29.008 36.3768 29.008C36.077 29.008 35.834 29.251 35.834 29.5508C35.834 29.8506 36.077 30.0936 36.3768 30.0936C36.6766 30.0936 36.9196 29.8506 36.9196 29.5508Z" fill="#111111"/>
<path id="Vector_288" d="M36.919 53.1955C36.919 52.8205 36.6761 52.5166 36.3765 52.5166C36.0769 52.5166 35.834 52.8205 35.834 53.1955V56.5394C35.834 56.9143 36.0769 57.2183 36.3765 57.2183C36.6761 57.2183 36.919 56.9143 36.919 56.5394V53.1955Z" fill="#111111"/>
<path id="Vector_289" d="M35.1143 26.07C35.1143 25.695 34.8714 25.3911 34.5718 25.3911C34.2722 25.3911 34.0293 25.695 34.0293 26.07V27.6055C34.0293 27.9805 34.2722 28.2844 34.5718 28.2844C34.8714 28.2844 35.1143 27.9805 35.1143 27.6055V26.07Z" fill="#111111"/>
<path id="Vector_290" d="M35.1143 35.112C35.1143 34.737 34.8714 34.433 34.5718 34.433C34.2722 34.433 34.0293 34.737 34.0293 35.112V36.6475C34.0293 37.0224 34.2722 37.3264 34.5718 37.3264C34.8714 37.3264 35.1143 37.0224 35.1143 36.6475V35.112Z" fill="#111111"/>
<path id="Vector_291" d="M35.1143 47.7704C35.1143 47.3955 34.8714 47.0915 34.5718 47.0915C34.2722 47.0915 34.0293 47.3955 34.0293 47.7704V49.306C34.0293 49.6809 34.2722 49.9849 34.5718 49.9849C34.8714 49.9849 35.1143 49.6809 35.1143 49.306V47.7704Z" fill="#111111"/>
<path id="Vector_292" d="M35.1149 58.4842C35.1149 58.1844 34.8719 57.9414 34.5721 57.9414C34.2723 57.9414 34.0293 58.1844 34.0293 58.4842C34.0293 58.784 34.2723 59.027 34.5721 59.027C34.8719 59.027 35.1149 58.784 35.1149 58.4842Z" fill="#111111"/>
<path id="Vector_293" d="M41.6688 61.5581H34.7082C34.3333 61.5581 34.0293 61.801 34.0293 62.1006C34.0293 62.4002 34.3333 62.6431 34.7082 62.6431H41.6688C42.0437 62.6431 42.3477 62.4002 42.3477 62.1006C42.3477 61.801 42.0437 61.5581 41.6688 61.5581Z" fill="#111111"/>
<path id="Vector_294" d="M61.5641 61.5581H60.0285C59.6536 61.5581 59.3496 61.801 59.3496 62.1006C59.3496 62.4002 59.6536 62.6431 60.0285 62.6431H61.5641C61.939 62.6431 62.243 62.4002 62.243 62.1006C62.243 61.801 61.939 61.5581 61.5641 61.5581Z" fill="#111111"/>
<path id="Vector_295" d="M20.6475 33.3034C20.6475 32.9284 20.4046 32.6245 20.105 32.6245C19.8054 32.6245 19.5625 32.9284 19.5625 33.3034V36.6473C19.5625 37.0222 19.8054 37.3262 20.105 37.3262C20.4046 37.3262 20.6475 37.0222 20.6475 36.6473V33.3034Z" fill="#111111"/>
<path id="Vector_296" d="M20.6481 45.826C20.6481 45.5262 20.4051 45.2832 20.1053 45.2832C19.8055 45.2832 19.5625 45.5262 19.5625 45.826C19.5625 46.1257 19.8055 46.3688 20.1053 46.3688C20.4051 46.3688 20.6481 46.1257 20.6481 45.826Z" fill="#111111"/>
</g>
<g id="Group_4">
<path id="Vector_297" d="M27.3347 18.697H20.1013C19.1026 18.697 18.293 19.5066 18.293 20.5054V27.7388C18.293 28.7375 19.1026 29.5471 20.1013 29.5471H27.3347C28.3334 29.5471 29.1431 28.7375 29.1431 27.7388V20.5054C29.1431 19.5066 28.3334 18.697 27.3347 18.697Z" stroke="#111111" stroke-width="2.2627"/>
<path id="Vector_298" d="M25.5267 21.4098H21.91C21.4107 21.4098 21.0059 21.8146 21.0059 22.3139V25.9306C21.0059 26.43 21.4107 26.8348 21.91 26.8348H25.5267C26.0261 26.8348 26.4309 26.43 26.4309 25.9306V22.3139C26.4309 21.8146 26.0261 21.4098 25.5267 21.4098Z" fill="#111111"/>
<path id="Vector_299" d="M59.8914 18.697H52.658C51.6592 18.697 50.8496 19.5066 50.8496 20.5054V27.7388C50.8496 28.7375 51.6592 29.5471 52.658 29.5471H59.8914C60.8901 29.5471 61.6997 28.7375 61.6997 27.7388V20.5054C61.6997 19.5066 60.8901 18.697 59.8914 18.697Z" stroke="#111111" stroke-width="2.2627"/>
<path id="Vector_300" d="M58.0853 21.4098H54.4686C53.9693 21.4098 53.5645 21.8146 53.5645 22.3139V25.9306C53.5645 26.43 53.9693 26.8348 54.4686 26.8348H58.0853C58.5847 26.8348 58.9895 26.43 58.9895 25.9306V22.3139C58.9895 21.8146 58.5847 21.4098 58.0853 21.4098Z" fill="#111111"/>
<path id="Vector_301" d="M27.3347 51.2545H20.1013C19.1026 51.2545 18.293 52.0641 18.293 53.0628V60.2962C18.293 61.2949 19.1026 62.1046 20.1013 62.1046H27.3347C28.3334 62.1046 29.1431 61.2949 29.1431 60.2962V53.0628C29.1431 52.0641 28.3334 51.2545 27.3347 51.2545Z" stroke="#111111" stroke-width="2.2627"/>
<path id="Vector_302" d="M25.5267 53.9663H21.91C21.4107 53.9663 21.0059 54.3711 21.0059 54.8705V58.4872C21.0059 58.9866 21.4107 59.3914 21.91 59.3914H25.5267C26.0261 59.3914 26.4309 58.9866 26.4309 58.4872V54.8705C26.4309 54.3711 26.0261 53.9663 25.5267 53.9663Z" fill="#111111"/>
</g>
</g>
</g>
</svg>
