<svg width="46" height="46" viewBox="0 0 46 46" fill="none" xmlns="http://www.w3.org/2000/svg">
<g id="Group">
<g id="Group_2">
<path id="Vector" d="M16.2289 1.36025C16.2289 0.992553 15.9285 0.694473 15.5578 0.694473C15.1872 0.694473 14.8867 0.992553 14.8867 1.36025C14.8867 1.72795 15.1872 2.02603 15.5578 2.02603C15.9285 2.02603 16.2289 1.72795 16.2289 1.36025Z" fill="#111111"/>
<path id="Vector_2" d="M19.8071 1.36025C19.8071 0.992553 19.5066 0.694473 19.1359 0.694473C18.7653 0.694473 18.4648 0.992553 18.4648 1.36025C18.4648 1.72795 18.7653 2.02603 19.1359 2.02603C19.5066 2.02603 19.8071 1.72795 19.8071 1.36025Z" fill="#111111"/>
<path id="Vector_3" d="M21.5942 1.36025C21.5942 0.992553 21.2937 0.694473 20.9231 0.694473C20.5524 0.694473 20.252 0.992553 20.252 1.36025C20.252 1.72795 20.5524 2.02603 20.9231 2.02603C21.2937 2.02603 21.5942 1.72795 21.5942 1.36025Z" fill="#111111"/>
<path id="Vector_4" d="M26.9614 1.36025C26.9614 0.992553 26.6609 0.694473 26.2902 0.694473C25.9196 0.694473 25.6191 0.992553 25.6191 1.36025C25.6191 1.72795 25.9196 2.02603 26.2902 2.02603C26.6609 2.02603 26.9614 1.72795 26.9614 1.36025Z" fill="#111111"/>
<path id="Vector_5" d="M28.7524 1.36025C28.7524 0.992553 28.4519 0.694473 28.0813 0.694473C27.7106 0.694473 27.4102 0.992553 27.4102 1.36025C27.4102 1.72795 27.7106 2.02603 28.0813 2.02603C28.4519 2.02603 28.7524 1.72795 28.7524 1.36025Z" fill="#111111"/>
<path id="Vector_6" d="M19.8071 3.1345C19.8071 2.7668 19.5066 2.46872 19.1359 2.46872C18.7653 2.46872 18.4648 2.7668 18.4648 3.1345C18.4648 3.5022 18.7653 3.80028 19.1359 3.80028C19.5066 3.80028 19.8071 3.5022 19.8071 3.1345Z" fill="#111111"/>
<path id="Vector_7" d="M21.5942 3.1345C21.5942 2.7668 21.2937 2.46872 20.9231 2.46872C20.5524 2.46872 20.252 2.7668 20.252 3.1345C20.252 3.5022 20.5524 3.80028 20.9231 3.80028C21.2937 3.80028 21.5942 3.5022 21.5942 3.1345Z" fill="#111111"/>
<path id="Vector_8" d="M25.1742 3.1345C25.1742 2.7668 24.8738 2.46872 24.5031 2.46872C24.1325 2.46872 23.832 2.7668 23.832 3.1345C23.832 3.5022 24.1325 3.80028 24.5031 3.80028C24.8738 3.80028 25.1742 3.5022 25.1742 3.1345Z" fill="#111111"/>
<path id="Vector_9" d="M28.7524 3.1345C28.7524 2.7668 28.4519 2.46872 28.0813 2.46872C27.7106 2.46872 27.4102 2.7668 27.4102 3.1345C27.4102 3.5022 27.7106 3.80028 28.0813 3.80028C28.4519 3.80028 28.7524 3.5022 28.7524 3.1345Z" fill="#111111"/>
<path id="Vector_10" d="M30.5375 3.1345C30.5375 2.7668 30.2371 2.46872 29.8664 2.46872C29.4958 2.46872 29.1953 2.7668 29.1953 3.1345C29.1953 3.5022 29.4958 3.80028 29.8664 3.80028C30.2371 3.80028 30.5375 3.5022 30.5375 3.1345Z" fill="#111111"/>
<path id="Vector_11" d="M16.2289 4.90914C16.2289 4.54144 15.9285 4.24336 15.5578 4.24336C15.1872 4.24336 14.8867 4.54144 14.8867 4.90914C14.8867 5.27684 15.1872 5.57492 15.5578 5.57492C15.9285 5.57492 16.2289 5.27684 16.2289 4.90914Z" fill="#111111"/>
<path id="Vector_12" d="M23.3852 4.90914C23.3852 4.54144 23.0847 4.24336 22.7141 4.24336C22.3434 4.24336 22.043 4.54144 22.043 4.90914C22.043 5.27684 22.3434 5.57492 22.7141 5.57492C23.0847 5.57492 23.3852 5.27684 23.3852 4.90914Z" fill="#111111"/>
<path id="Vector_13" d="M26.9614 4.90914C26.9614 4.54144 26.6609 4.24336 26.2902 4.24336C25.9196 4.24336 25.6191 4.54144 25.6191 4.90914C25.6191 5.27684 25.9196 5.57492 26.2902 5.57492C26.6609 5.57492 26.9614 5.27684 26.9614 4.90914Z" fill="#111111"/>
<path id="Vector_14" d="M28.7524 4.90914C28.7524 4.54144 28.4519 4.24336 28.0813 4.24336C27.7106 4.24336 27.4102 4.54144 27.4102 4.90914C27.4102 5.27684 27.7106 5.57492 28.0813 5.57492C28.4519 5.57492 28.7524 5.27684 28.7524 4.90914Z" fill="#111111"/>
<path id="Vector_15" d="M16.2289 6.68339C16.2289 6.31569 15.9285 6.01761 15.5578 6.01761C15.1872 6.01761 14.8867 6.31569 14.8867 6.68339C14.8867 7.05109 15.1872 7.34917 15.5578 7.34917C15.9285 7.34917 16.2289 7.05109 16.2289 6.68339Z" fill="#111111"/>
<path id="Vector_16" d="M21.5942 6.68339C21.5942 6.31569 21.2937 6.01761 20.9231 6.01761C20.5524 6.01761 20.252 6.31569 20.252 6.68339C20.252 7.05109 20.5524 7.34917 20.9231 7.34917C21.2937 7.34917 21.5942 7.05109 21.5942 6.68339Z" fill="#111111"/>
<path id="Vector_17" d="M26.9614 6.68339C26.9614 6.31569 26.6609 6.01761 26.2902 6.01761C25.9196 6.01761 25.6191 6.31569 25.6191 6.68339C25.6191 7.05109 25.9196 7.34917 26.2902 7.34917C26.6609 7.34917 26.9614 7.05109 26.9614 6.68339Z" fill="#111111"/>
<path id="Vector_18" d="M18.018 8.45803C18.018 8.09033 17.7175 7.79225 17.3469 7.79225C16.9762 7.79225 16.6758 8.09033 16.6758 8.45803C16.6758 8.82573 16.9762 9.12381 17.3469 9.12381C17.7175 9.12381 18.018 8.82573 18.018 8.45803Z" fill="#111111"/>
<path id="Vector_19" d="M23.3852 8.45803C23.3852 8.09033 23.0847 7.79225 22.7141 7.79225C22.3434 7.79225 22.043 8.09033 22.043 8.45803C22.043 8.82573 22.3434 9.12381 22.7141 9.12381C23.0847 9.12381 23.3852 8.82573 23.3852 8.45803Z" fill="#111111"/>
<path id="Vector_20" d="M26.9614 8.45803C26.9614 8.09033 26.6609 7.79225 26.2902 7.79225C25.9196 7.79225 25.6191 8.09033 25.6191 8.45803C25.6191 8.82573 25.9196 9.12381 26.2902 9.12381C26.6609 9.12381 26.9614 8.82573 26.9614 8.45803Z" fill="#111111"/>
<path id="Vector_21" d="M28.7524 8.45803C28.7524 8.09033 28.4519 7.79225 28.0813 7.79225C27.7106 7.79225 27.4102 8.09033 27.4102 8.45803C27.4102 8.82573 27.7106 9.12381 28.0813 9.12381C28.4519 9.12381 28.7524 8.82573 28.7524 8.45803Z" fill="#111111"/>
<path id="Vector_22" d="M16.2289 10.2323C16.2289 9.86458 15.9285 9.5665 15.5578 9.5665C15.1872 9.5665 14.8867 9.86458 14.8867 10.2323C14.8867 10.6 15.1872 10.8981 15.5578 10.8981C15.9285 10.8981 16.2289 10.6 16.2289 10.2323Z" fill="#111111"/>
<path id="Vector_23" d="M18.018 10.2323C18.018 9.86458 17.7175 9.5665 17.3469 9.5665C16.9762 9.5665 16.6758 9.86458 16.6758 10.2323C16.6758 10.6 16.9762 10.8981 17.3469 10.8981C17.7175 10.8981 18.018 10.6 18.018 10.2323Z" fill="#111111"/>
<path id="Vector_24" d="M21.5942 10.2323C21.5942 9.86458 21.2937 9.5665 20.9231 9.5665C20.5524 9.5665 20.252 9.86458 20.252 10.2323C20.252 10.6 20.5524 10.8981 20.9231 10.8981C21.2937 10.8981 21.5942 10.6 21.5942 10.2323Z" fill="#111111"/>
<path id="Vector_25" d="M28.7524 10.2323C28.7524 9.86458 28.4519 9.5665 28.0813 9.5665C27.7106 9.5665 27.4102 9.86458 27.4102 10.2323C27.4102 10.6 27.7106 10.8981 28.0813 10.8981C28.4519 10.8981 28.7524 10.6 28.7524 10.2323Z" fill="#111111"/>
<path id="Vector_26" d="M30.5375 10.2323C30.5375 9.86458 30.2371 9.5665 29.8664 9.5665C29.4958 9.5665 29.1953 9.86458 29.1953 10.2323C29.1953 10.6 29.4958 10.8981 29.8664 10.8981C30.2371 10.8981 30.5375 10.6 30.5375 10.2323Z" fill="#111111"/>
<path id="Vector_27" d="M16.2289 12.0069C16.2289 11.6392 15.9285 11.3411 15.5578 11.3411C15.1872 11.3411 14.8867 11.6392 14.8867 12.0069C14.8867 12.3746 15.1872 12.6727 15.5578 12.6727C15.9285 12.6727 16.2289 12.3746 16.2289 12.0069Z" fill="#111111"/>
<path id="Vector_28" d="M19.8071 12.0069C19.8071 11.6392 19.5066 11.3411 19.1359 11.3411C18.7653 11.3411 18.4648 11.6392 18.4648 12.0069C18.4648 12.3746 18.7653 12.6727 19.1359 12.6727C19.5066 12.6727 19.8071 12.3746 19.8071 12.0069Z" fill="#111111"/>
<path id="Vector_29" d="M23.3852 12.0069C23.3852 11.6392 23.0847 11.3411 22.7141 11.3411C22.3434 11.3411 22.043 11.6392 22.043 12.0069C22.043 12.3746 22.3434 12.6727 22.7141 12.6727C23.0847 12.6727 23.3852 12.3746 23.3852 12.0069Z" fill="#111111"/>
<path id="Vector_30" d="M26.9614 12.0069C26.9614 11.6392 26.6609 11.3411 26.2902 11.3411C25.9196 11.3411 25.6191 11.6392 25.6191 12.0069C25.6191 12.3746 25.9196 12.6727 26.2902 12.6727C26.6609 12.6727 26.9614 12.3746 26.9614 12.0069Z" fill="#111111"/>
<path id="Vector_31" d="M30.5375 12.0069C30.5375 11.6392 30.2371 11.3411 29.8664 11.3411C29.4958 11.3411 29.1953 11.6392 29.1953 12.0069C29.1953 12.3746 29.4958 12.6727 29.8664 12.6727C30.2371 12.6727 30.5375 12.3746 30.5375 12.0069Z" fill="#111111"/>
<path id="Vector_32" d="M16.2289 13.7812C16.2289 13.4135 15.9285 13.1154 15.5578 13.1154C15.1872 13.1154 14.8867 13.4135 14.8867 13.7812C14.8867 14.1489 15.1872 14.4469 15.5578 14.4469C15.9285 14.4469 16.2289 14.1489 16.2289 13.7812Z" fill="#111111"/>
<path id="Vector_33" d="M19.8071 13.7812C19.8071 13.4135 19.5066 13.1154 19.1359 13.1154C18.7653 13.1154 18.4648 13.4135 18.4648 13.7812C18.4648 14.1489 18.7653 14.4469 19.1359 14.4469C19.5066 14.4469 19.8071 14.1489 19.8071 13.7812Z" fill="#111111"/>
<path id="Vector_34" d="M21.5942 13.7812C21.5942 13.4135 21.2937 13.1154 20.9231 13.1154C20.5524 13.1154 20.252 13.4135 20.252 13.7812C20.252 14.1489 20.5524 14.4469 20.9231 14.4469C21.2937 14.4469 21.5942 14.1489 21.5942 13.7812Z" fill="#111111"/>
<path id="Vector_35" d="M26.9614 13.7812C26.9614 13.4135 26.6609 13.1154 26.2902 13.1154C25.9196 13.1154 25.6191 13.4135 25.6191 13.7812C25.6191 14.1489 25.9196 14.4469 26.2902 14.4469C26.6609 14.4469 26.9614 14.1489 26.9614 13.7812Z" fill="#111111"/>
<path id="Vector_36" d="M30.5375 13.7812C30.5375 13.4135 30.2371 13.1154 29.8664 13.1154C29.4958 13.1154 29.1953 13.4135 29.1953 13.7812C29.1953 14.1489 29.4958 14.4469 29.8664 14.4469C30.2371 14.4469 30.5375 14.1489 30.5375 13.7812Z" fill="#111111"/>
<path id="Vector_37" d="M3.70744 15.5556C3.70744 15.1879 3.40698 14.8898 3.03634 14.8898C2.6657 14.8898 2.36523 15.1879 2.36523 15.5556C2.36523 15.9233 2.6657 16.2214 3.03634 16.2214C3.40698 16.2214 3.70744 15.9233 3.70744 15.5556Z" fill="#111111"/>
<path id="Vector_38" d="M7.28557 15.5556C7.28557 15.1879 6.98511 14.8898 6.61446 14.8898C6.24382 14.8898 5.94336 15.1879 5.94336 15.5556C5.94336 15.9233 6.24382 16.2214 6.61446 16.2214C6.98511 16.2214 7.28557 15.9233 7.28557 15.5556Z" fill="#111111"/>
<path id="Vector_39" d="M10.8637 15.5556C10.8637 15.1879 10.5632 14.8898 10.1926 14.8898C9.82195 14.8898 9.52148 15.1879 9.52148 15.5556C9.52148 15.9233 9.82195 16.2214 10.1926 16.2214C10.5632 16.2214 10.8637 15.9233 10.8637 15.5556Z" fill="#111111"/>
<path id="Vector_40" d="M12.6528 15.5556C12.6528 15.1879 12.3523 14.8898 11.9817 14.8898C11.611 14.8898 11.3105 15.1879 11.3105 15.5556C11.3105 15.9233 11.611 16.2214 11.9817 16.2214C12.3523 16.2214 12.6528 15.9233 12.6528 15.5556Z" fill="#111111"/>
<path id="Vector_41" d="M14.4399 15.5556C14.4399 15.1879 14.1394 14.8898 13.7688 14.8898C13.3981 14.8898 13.0977 15.1879 13.0977 15.5556C13.0977 15.9233 13.3981 16.2214 13.7688 16.2214C14.1394 16.2214 14.4399 15.9233 14.4399 15.5556Z" fill="#111111"/>
<path id="Vector_42" d="M16.2289 15.5556C16.2289 15.1879 15.9285 14.8898 15.5578 14.8898C15.1872 14.8898 14.8867 15.1879 14.8867 15.5556C14.8867 15.9233 15.1872 16.2214 15.5578 16.2214C15.9285 16.2214 16.2289 15.9233 16.2289 15.5556Z" fill="#111111"/>
<path id="Vector_43" d="M19.8071 15.5556C19.8071 15.1879 19.5066 14.8898 19.1359 14.8898C18.7653 14.8898 18.4648 15.1879 18.4648 15.5556C18.4648 15.9233 18.7653 16.2214 19.1359 16.2214C19.5066 16.2214 19.8071 15.9233 19.8071 15.5556Z" fill="#111111"/>
<path id="Vector_44" d="M21.5942 15.5556C21.5942 15.1879 21.2937 14.8898 20.9231 14.8898C20.5524 14.8898 20.252 15.1879 20.252 15.5556C20.252 15.9233 20.5524 16.2214 20.9231 16.2214C21.2937 16.2214 21.5942 15.9233 21.5942 15.5556Z" fill="#111111"/>
<path id="Vector_45" d="M23.3852 15.5556C23.3852 15.1879 23.0847 14.8898 22.7141 14.8898C22.3434 14.8898 22.043 15.1879 22.043 15.5556C22.043 15.9233 22.3434 16.2214 22.7141 16.2214C23.0847 16.2214 23.3852 15.9233 23.3852 15.5556Z" fill="#111111"/>
<path id="Vector_46" d="M25.1742 15.5556C25.1742 15.1879 24.8738 14.8898 24.5031 14.8898C24.1325 14.8898 23.832 15.1879 23.832 15.5556C23.832 15.9233 24.1325 16.2214 24.5031 16.2214C24.8738 16.2214 25.1742 15.9233 25.1742 15.5556Z" fill="#111111"/>
<path id="Vector_47" d="M26.9614 15.5556C26.9614 15.1879 26.6609 14.8898 26.2902 14.8898C25.9196 14.8898 25.6191 15.1879 25.6191 15.5556C25.6191 15.9233 25.9196 16.2214 26.2902 16.2214C26.6609 16.2214 26.9614 15.9233 26.9614 15.5556Z" fill="#111111"/>
<path id="Vector_48" d="M30.5375 15.5556C30.5375 15.1879 30.2371 14.8898 29.8664 14.8898C29.4958 14.8898 29.1953 15.1879 29.1953 15.5556C29.1953 15.9233 29.4958 16.2214 29.8664 16.2214C30.2371 16.2214 30.5375 15.9233 30.5375 15.5556Z" fill="#111111"/>
<path id="Vector_49" d="M32.3285 15.5556C32.3285 15.1879 32.0281 14.8898 31.6574 14.8898C31.2868 14.8898 30.9863 15.1879 30.9863 15.5556C30.9863 15.9233 31.2868 16.2214 31.6574 16.2214C32.0281 16.2214 32.3285 15.9233 32.3285 15.5556Z" fill="#111111"/>
<path id="Vector_50" d="M34.1156 15.5556C34.1156 15.1879 33.8152 14.8898 33.4445 14.8898C33.0739 14.8898 32.7734 15.1879 32.7734 15.5556C32.7734 15.9233 33.0739 16.2214 33.4445 16.2214C33.8152 16.2214 34.1156 15.9233 34.1156 15.5556Z" fill="#111111"/>
<path id="Vector_51" d="M35.9028 15.5556C35.9028 15.1879 35.6023 14.8898 35.2316 14.8898C34.861 14.8898 34.5605 15.1879 34.5605 15.5556C34.5605 15.9233 34.861 16.2214 35.2316 16.2214C35.6023 16.2214 35.9028 15.9233 35.9028 15.5556Z" fill="#111111"/>
<path id="Vector_52" d="M39.4848 15.5556C39.4848 15.1879 39.1843 14.8898 38.8137 14.8898C38.443 14.8898 38.1426 15.1879 38.1426 15.5556C38.1426 15.9233 38.443 16.2214 38.8137 16.2214C39.1843 16.2214 39.4848 15.9233 39.4848 15.5556Z" fill="#111111"/>
<path id="Vector_53" d="M41.2699 15.5556C41.2699 15.1879 40.9695 14.8898 40.5988 14.8898C40.2282 14.8898 39.9277 15.1879 39.9277 15.5556C39.9277 15.9233 40.2282 16.2214 40.5988 16.2214C40.9695 16.2214 41.2699 15.9233 41.2699 15.5556Z" fill="#111111"/>
<path id="Vector_54" d="M44.85 15.5556C44.85 15.1879 44.5496 14.8898 44.1789 14.8898C43.8083 14.8898 43.5078 15.1879 43.5078 15.5556C43.5078 15.9233 43.8083 16.2214 44.1789 16.2214C44.5496 16.2214 44.85 15.9233 44.85 15.5556Z" fill="#111111"/>
<path id="Vector_55" d="M1.92034 17.3301C1.92034 16.9624 1.61987 16.6643 1.24923 16.6643C0.878589 16.6643 0.578125 16.9624 0.578125 17.3301C0.578125 17.6978 0.878589 17.9958 1.24923 17.9958C1.61987 17.9958 1.92034 17.6978 1.92034 17.3301Z" fill="#111111"/>
<path id="Vector_56" d="M3.70744 17.3301C3.70744 16.9624 3.40698 16.6643 3.03634 16.6643C2.6657 16.6643 2.36523 16.9624 2.36523 17.3301C2.36523 17.6978 2.6657 17.9958 3.03634 17.9958C3.40698 17.9958 3.70744 17.6978 3.70744 17.3301Z" fill="#111111"/>
<path id="Vector_57" d="M5.49846 17.3301C5.49846 16.9624 5.198 16.6643 4.82735 16.6643C4.45671 16.6643 4.15625 16.9624 4.15625 17.3301C4.15625 17.6978 4.45671 17.9958 4.82735 17.9958C5.198 17.9958 5.49846 17.6978 5.49846 17.3301Z" fill="#111111"/>
<path id="Vector_58" d="M7.28557 17.3301C7.28557 16.9624 6.98511 16.6643 6.61446 16.6643C6.24382 16.6643 5.94336 16.9624 5.94336 17.3301C5.94336 17.6978 6.24382 17.9958 6.61446 17.9958C6.98511 17.9958 7.28557 17.6978 7.28557 17.3301Z" fill="#111111"/>
<path id="Vector_59" d="M18.018 17.3301C18.018 16.9624 17.7175 16.6643 17.3469 16.6643C16.9762 16.6643 16.6758 16.9624 16.6758 17.3301C16.6758 17.6978 16.9762 17.9958 17.3469 17.9958C17.7175 17.9958 18.018 17.6978 18.018 17.3301Z" fill="#111111"/>
<path id="Vector_60" d="M23.3852 17.3301C23.3852 16.9624 23.0847 16.6643 22.7141 16.6643C22.3434 16.6643 22.043 16.9624 22.043 17.3301C22.043 17.6978 22.3434 17.9958 22.7141 17.9958C23.0847 17.9958 23.3852 17.6978 23.3852 17.3301Z" fill="#111111"/>
<path id="Vector_61" d="M30.5375 17.3301C30.5375 16.9624 30.2371 16.6643 29.8664 16.6643C29.4958 16.6643 29.1953 16.9624 29.1953 17.3301C29.1953 17.6978 29.4958 17.9958 29.8664 17.9958C30.2371 17.9958 30.5375 17.6978 30.5375 17.3301Z" fill="#111111"/>
<path id="Vector_62" d="M32.3285 17.3301C32.3285 16.9624 32.0281 16.6643 31.6574 16.6643C31.2868 16.6643 30.9863 16.9624 30.9863 17.3301C30.9863 17.6978 31.2868 17.9958 31.6574 17.9958C32.0281 17.9958 32.3285 17.6978 32.3285 17.3301Z" fill="#111111"/>
<path id="Vector_63" d="M34.1156 17.3301C34.1156 16.9624 33.8152 16.6643 33.4445 16.6643C33.0739 16.6643 32.7734 16.9624 32.7734 17.3301C32.7734 17.6978 33.0739 17.9958 33.4445 17.9958C33.8152 17.9958 34.1156 17.6978 34.1156 17.3301Z" fill="#111111"/>
<path id="Vector_64" d="M44.85 17.3301C44.85 16.9624 44.5496 16.6643 44.1789 16.6643C43.8083 16.6643 43.5078 16.9624 43.5078 17.3301C43.5078 17.6978 43.8083 17.9958 44.1789 17.9958C44.5496 17.9958 44.85 17.6978 44.85 17.3301Z" fill="#111111"/>
<path id="Vector_65" d="M1.92034 19.1049C1.92034 18.7372 1.61987 18.4391 1.24923 18.4391C0.878589 18.4391 0.578125 18.7372 0.578125 19.1049C0.578125 19.4726 0.878589 19.7707 1.24923 19.7707C1.61987 19.7707 1.92034 19.4726 1.92034 19.1049Z" fill="#111111"/>
<path id="Vector_66" d="M3.70744 19.1049C3.70744 18.7372 3.40698 18.4391 3.03634 18.4391C2.6657 18.4391 2.36523 18.7372 2.36523 19.1049C2.36523 19.4726 2.6657 19.7707 3.03634 19.7707C3.40698 19.7707 3.70744 19.4726 3.70744 19.1049Z" fill="#111111"/>
<path id="Vector_67" d="M7.28557 19.1049C7.28557 18.7372 6.98511 18.4391 6.61446 18.4391C6.24382 18.4391 5.94336 18.7372 5.94336 19.1049C5.94336 19.4726 6.24382 19.7707 6.61446 19.7707C6.98511 19.7707 7.28557 19.4726 7.28557 19.1049Z" fill="#111111"/>
<path id="Vector_68" d="M9.07659 19.1049C9.07659 18.7372 8.77612 18.4391 8.40548 18.4391C8.03484 18.4391 7.73438 18.7372 7.73438 19.1049C7.73438 19.4726 8.03484 19.7707 8.40548 19.7707C8.77612 19.7707 9.07659 19.4726 9.07659 19.1049Z" fill="#111111"/>
<path id="Vector_69" d="M10.8637 19.1049C10.8637 18.7372 10.5632 18.4391 10.1926 18.4391C9.82195 18.4391 9.52148 18.7372 9.52148 19.1049C9.52148 19.4726 9.82195 19.7707 10.1926 19.7707C10.5632 19.7707 10.8637 19.4726 10.8637 19.1049Z" fill="#111111"/>
<path id="Vector_70" d="M12.6528 19.1049C12.6528 18.7372 12.3523 18.4391 11.9817 18.4391C11.611 18.4391 11.3105 18.7372 11.3105 19.1049C11.3105 19.4726 11.611 19.7707 11.9817 19.7707C12.3523 19.7707 12.6528 19.4726 12.6528 19.1049Z" fill="#111111"/>
<path id="Vector_71" d="M16.2289 19.1049C16.2289 18.7372 15.9285 18.4391 15.5578 18.4391C15.1872 18.4391 14.8867 18.7372 14.8867 19.1049C14.8867 19.4726 15.1872 19.7707 15.5578 19.7707C15.9285 19.7707 16.2289 19.4726 16.2289 19.1049Z" fill="#111111"/>
<path id="Vector_72" d="M18.018 19.1049C18.018 18.7372 17.7175 18.4391 17.3469 18.4391C16.9762 18.4391 16.6758 18.7372 16.6758 19.1049C16.6758 19.4726 16.9762 19.7707 17.3469 19.7707C17.7175 19.7707 18.018 19.4726 18.018 19.1049Z" fill="#111111"/>
<path id="Vector_73" d="M25.1742 19.1049C25.1742 18.7372 24.8738 18.4391 24.5031 18.4391C24.1325 18.4391 23.832 18.7372 23.832 19.1049C23.832 19.4726 24.1325 19.7707 24.5031 19.7707C24.8738 19.7707 25.1742 19.4726 25.1742 19.1049Z" fill="#111111"/>
<path id="Vector_74" d="M30.5375 19.1049C30.5375 18.7372 30.2371 18.4391 29.8664 18.4391C29.4958 18.4391 29.1953 18.7372 29.1953 19.1049C29.1953 19.4726 29.4958 19.7707 29.8664 19.7707C30.2371 19.7707 30.5375 19.4726 30.5375 19.1049Z" fill="#111111"/>
<path id="Vector_75" d="M32.3285 19.1049C32.3285 18.7372 32.0281 18.4391 31.6574 18.4391C31.2868 18.4391 30.9863 18.7372 30.9863 19.1049C30.9863 19.4726 31.2868 19.7707 31.6574 19.7707C32.0281 19.7707 32.3285 19.4726 32.3285 19.1049Z" fill="#111111"/>
<path id="Vector_76" d="M34.1156 19.1049C34.1156 18.7372 33.8152 18.4391 33.4445 18.4391C33.0739 18.4391 32.7734 18.7372 32.7734 19.1049C32.7734 19.4726 33.0739 19.7707 33.4445 19.7707C33.8152 19.7707 34.1156 19.4726 34.1156 19.1049Z" fill="#111111"/>
<path id="Vector_77" d="M35.9028 19.1049C35.9028 18.7372 35.6023 18.4391 35.2316 18.4391C34.861 18.4391 34.5605 18.7372 34.5605 19.1049C34.5605 19.4726 34.861 19.7707 35.2316 19.7707C35.6023 19.7707 35.9028 19.4726 35.9028 19.1049Z" fill="#111111"/>
<path id="Vector_78" d="M43.061 19.1049C43.061 18.7372 42.7605 18.4391 42.3899 18.4391C42.0192 18.4391 41.7188 18.7372 41.7188 19.1049C41.7188 19.4726 42.0192 19.7707 42.3899 19.7707C42.7605 19.7707 43.061 19.4726 43.061 19.1049Z" fill="#111111"/>
<path id="Vector_79" d="M44.85 19.1049C44.85 18.7372 44.5496 18.4391 44.1789 18.4391C43.8083 18.4391 43.5078 18.7372 43.5078 19.1049C43.5078 19.4726 43.8083 19.7707 44.1789 19.7707C44.5496 19.7707 44.85 19.4726 44.85 19.1049Z" fill="#111111"/>
<path id="Vector_80" d="M5.49846 20.8791C5.49846 20.5114 5.198 20.2134 4.82735 20.2134C4.45671 20.2134 4.15625 20.5114 4.15625 20.8791C4.15625 21.2468 4.45671 21.5449 4.82735 21.5449C5.198 21.5449 5.49846 21.2468 5.49846 20.8791Z" fill="#111111"/>
<path id="Vector_81" d="M7.28557 20.8791C7.28557 20.5114 6.98511 20.2134 6.61446 20.2134C6.24382 20.2134 5.94336 20.5114 5.94336 20.8791C5.94336 21.2468 6.24382 21.5449 6.61446 21.5449C6.98511 21.5449 7.28557 21.2468 7.28557 20.8791Z" fill="#111111"/>
<path id="Vector_82" d="M9.07659 20.8791C9.07659 20.5114 8.77612 20.2134 8.40548 20.2134C8.03484 20.2134 7.73438 20.5114 7.73438 20.8791C7.73438 21.2468 8.03484 21.5449 8.40548 21.5449C8.77612 21.5449 9.07659 21.2468 9.07659 20.8791Z" fill="#111111"/>
<path id="Vector_83" d="M10.8637 20.8791C10.8637 20.5114 10.5632 20.2134 10.1926 20.2134C9.82195 20.2134 9.52148 20.5114 9.52148 20.8791C9.52148 21.2468 9.82195 21.5449 10.1926 21.5449C10.5632 21.5449 10.8637 21.2468 10.8637 20.8791Z" fill="#111111"/>
<path id="Vector_84" d="M16.2289 20.8791C16.2289 20.5114 15.9285 20.2134 15.5578 20.2134C15.1872 20.2134 14.8867 20.5114 14.8867 20.8791C14.8867 21.2468 15.1872 21.5449 15.5578 21.5449C15.9285 21.5449 16.2289 21.2468 16.2289 20.8791Z" fill="#111111"/>
<path id="Vector_85" d="M21.5942 20.8791C21.5942 20.5114 21.2937 20.2134 20.9231 20.2134C20.5524 20.2134 20.252 20.5114 20.252 20.8791C20.252 21.2468 20.5524 21.5449 20.9231 21.5449C21.2937 21.5449 21.5942 21.2468 21.5942 20.8791Z" fill="#111111"/>
<path id="Vector_86" d="M25.1742 20.8791C25.1742 20.5114 24.8738 20.2134 24.5031 20.2134C24.1325 20.2134 23.832 20.5114 23.832 20.8791C23.832 21.2468 24.1325 21.5449 24.5031 21.5449C24.8738 21.5449 25.1742 21.2468 25.1742 20.8791Z" fill="#111111"/>
<path id="Vector_87" d="M28.7524 20.8791C28.7524 20.5114 28.4519 20.2134 28.0813 20.2134C27.7106 20.2134 27.4102 20.5114 27.4102 20.8791C27.4102 21.2468 27.7106 21.5449 28.0813 21.5449C28.4519 21.5449 28.7524 21.2468 28.7524 20.8791Z" fill="#111111"/>
<path id="Vector_88" d="M35.9028 20.8791C35.9028 20.5114 35.6023 20.2134 35.2316 20.2134C34.861 20.2134 34.5605 20.5114 34.5605 20.8791C34.5605 21.2468 34.861 21.5449 35.2316 21.5449C35.6023 21.5449 35.9028 21.2468 35.9028 20.8791Z" fill="#111111"/>
<path id="Vector_89" d="M37.6938 20.8791C37.6938 20.5114 37.3933 20.2134 37.0227 20.2134C36.652 20.2134 36.3516 20.5114 36.3516 20.8791C36.3516 21.2468 36.652 21.5449 37.0227 21.5449C37.3933 21.5449 37.6938 21.2468 37.6938 20.8791Z" fill="#111111"/>
<path id="Vector_90" d="M1.92034 22.6542C1.92034 22.2865 1.61987 21.9884 1.24923 21.9884C0.878589 21.9884 0.578125 22.2865 0.578125 22.6542C0.578125 23.0219 0.878589 23.3199 1.24923 23.3199C1.61987 23.3199 1.92034 23.0219 1.92034 22.6542Z" fill="#111111"/>
<path id="Vector_91" d="M9.07659 22.6542C9.07659 22.2865 8.77612 21.9884 8.40548 21.9884C8.03484 21.9884 7.73438 22.2865 7.73438 22.6542C7.73438 23.0219 8.03484 23.3199 8.40548 23.3199C8.77612 23.3199 9.07659 23.0219 9.07659 22.6542Z" fill="#111111"/>
<path id="Vector_92" d="M12.6528 22.6542C12.6528 22.2865 12.3523 21.9884 11.9817 21.9884C11.611 21.9884 11.3105 22.2865 11.3105 22.6542C11.3105 23.0219 11.611 23.3199 11.9817 23.3199C12.3523 23.3199 12.6528 23.0219 12.6528 22.6542Z" fill="#111111"/>
<path id="Vector_93" d="M14.4399 22.6542C14.4399 22.2865 14.1394 21.9884 13.7688 21.9884C13.3981 21.9884 13.0977 22.2865 13.0977 22.6542C13.0977 23.0219 13.3981 23.3199 13.7688 23.3199C14.1394 23.3199 14.4399 23.0219 14.4399 22.6542Z" fill="#111111"/>
<path id="Vector_94" d="M16.2289 22.6542C16.2289 22.2865 15.9285 21.9884 15.5578 21.9884C15.1872 21.9884 14.8867 22.2865 14.8867 22.6542C14.8867 23.0219 15.1872 23.3199 15.5578 23.3199C15.9285 23.3199 16.2289 23.0219 16.2289 22.6542Z" fill="#111111"/>
<path id="Vector_95" d="M19.8071 22.6542C19.8071 22.2865 19.5066 21.9884 19.1359 21.9884C18.7653 21.9884 18.4648 22.2865 18.4648 22.6542C18.4648 23.0219 18.7653 23.3199 19.1359 23.3199C19.5066 23.3199 19.8071 23.0219 19.8071 22.6542Z" fill="#111111"/>
<path id="Vector_96" d="M21.5942 22.6542C21.5942 22.2865 21.2937 21.9884 20.9231 21.9884C20.5524 21.9884 20.252 22.2865 20.252 22.6542C20.252 23.0219 20.5524 23.3199 20.9231 23.3199C21.2937 23.3199 21.5942 23.0219 21.5942 22.6542Z" fill="#111111"/>
<path id="Vector_97" d="M23.3852 22.6542C23.3852 22.2865 23.0847 21.9884 22.7141 21.9884C22.3434 21.9884 22.043 22.2865 22.043 22.6542C22.043 23.0219 22.3434 23.3199 22.7141 23.3199C23.0847 23.3199 23.3852 23.0219 23.3852 22.6542Z" fill="#111111"/>
<path id="Vector_98" d="M26.9614 22.6542C26.9614 22.2865 26.6609 21.9884 26.2902 21.9884C25.9196 21.9884 25.6191 22.2865 25.6191 22.6542C25.6191 23.0219 25.9196 23.3199 26.2902 23.3199C26.6609 23.3199 26.9614 23.0219 26.9614 22.6542Z" fill="#111111"/>
<path id="Vector_99" d="M28.7524 22.6542C28.7524 22.2865 28.4519 21.9884 28.0813 21.9884C27.7106 21.9884 27.4102 22.2865 27.4102 22.6542C27.4102 23.0219 27.7106 23.3199 28.0813 23.3199C28.4519 23.3199 28.7524 23.0219 28.7524 22.6542Z" fill="#111111"/>
<path id="Vector_100" d="M30.5375 22.6542C30.5375 22.2865 30.2371 21.9884 29.8664 21.9884C29.4958 21.9884 29.1953 22.2865 29.1953 22.6542C29.1953 23.0219 29.4958 23.3199 29.8664 23.3199C30.2371 23.3199 30.5375 23.0219 30.5375 22.6542Z" fill="#111111"/>
<path id="Vector_101" d="M32.3285 22.6542C32.3285 22.2865 32.0281 21.9884 31.6574 21.9884C31.2868 21.9884 30.9863 22.2865 30.9863 22.6542C30.9863 23.0219 31.2868 23.3199 31.6574 23.3199C32.0281 23.3199 32.3285 23.0219 32.3285 22.6542Z" fill="#111111"/>
<path id="Vector_102" d="M34.1156 22.6542C34.1156 22.2865 33.8152 21.9884 33.4445 21.9884C33.0739 21.9884 32.7734 22.2865 32.7734 22.6542C32.7734 23.0219 33.0739 23.3199 33.4445 23.3199C33.8152 23.3199 34.1156 23.0219 34.1156 22.6542Z" fill="#111111"/>
<path id="Vector_103" d="M35.9028 22.6542C35.9028 22.2865 35.6023 21.9884 35.2316 21.9884C34.861 21.9884 34.5605 22.2865 34.5605 22.6542C34.5605 23.0219 34.861 23.3199 35.2316 23.3199C35.6023 23.3199 35.9028 23.0219 35.9028 22.6542Z" fill="#111111"/>
<path id="Vector_104" d="M39.4848 22.6542C39.4848 22.2865 39.1843 21.9884 38.8137 21.9884C38.443 21.9884 38.1426 22.2865 38.1426 22.6542C38.1426 23.0219 38.443 23.3199 38.8137 23.3199C39.1843 23.3199 39.4848 23.0219 39.4848 22.6542Z" fill="#111111"/>
<path id="Vector_105" d="M43.061 22.6542C43.061 22.2865 42.7605 21.9884 42.3899 21.9884C42.0192 21.9884 41.7188 22.2865 41.7188 22.6542C41.7188 23.0219 42.0192 23.3199 42.3899 23.3199C42.7605 23.3199 43.061 23.0219 43.061 22.6542Z" fill="#111111"/>
<path id="Vector_106" d="M44.85 22.6542C44.85 22.2865 44.5496 21.9884 44.1789 21.9884C43.8083 21.9884 43.5078 22.2865 43.5078 22.6542C43.5078 23.0219 43.8083 23.3199 44.1789 23.3199C44.5496 23.3199 44.85 23.0219 44.85 22.6542Z" fill="#111111"/>
<path id="Vector_107" d="M3.70744 24.428C3.70744 24.0603 3.40698 23.7622 3.03634 23.7622C2.6657 23.7622 2.36523 24.0603 2.36523 24.428C2.36523 24.7957 2.6657 25.0938 3.03634 25.0938C3.40698 25.0938 3.70744 24.7957 3.70744 24.428Z" fill="#111111"/>
<path id="Vector_108" d="M7.28557 24.428C7.28557 24.0603 6.98511 23.7622 6.61446 23.7622C6.24382 23.7622 5.94336 24.0603 5.94336 24.428C5.94336 24.7957 6.24382 25.0938 6.61446 25.0938C6.98511 25.0938 7.28557 24.7957 7.28557 24.428Z" fill="#111111"/>
<path id="Vector_109" d="M9.07659 24.428C9.07659 24.0603 8.77612 23.7622 8.40548 23.7622C8.03484 23.7622 7.73438 24.0603 7.73438 24.428C7.73438 24.7957 8.03484 25.0938 8.40548 25.0938C8.77612 25.0938 9.07659 24.7957 9.07659 24.428Z" fill="#111111"/>
<path id="Vector_110" d="M10.8637 24.428C10.8637 24.0603 10.5632 23.7622 10.1926 23.7622C9.82195 23.7622 9.52148 24.0603 9.52148 24.428C9.52148 24.7957 9.82195 25.0938 10.1926 25.0938C10.5632 25.0938 10.8637 24.7957 10.8637 24.428Z" fill="#111111"/>
<path id="Vector_111" d="M18.018 24.428C18.018 24.0603 17.7175 23.7622 17.3469 23.7622C16.9762 23.7622 16.6758 24.0603 16.6758 24.428C16.6758 24.7957 16.9762 25.0938 17.3469 25.0938C17.7175 25.0938 18.018 24.7957 18.018 24.428Z" fill="#111111"/>
<path id="Vector_112" d="M19.8071 24.428C19.8071 24.0603 19.5066 23.7622 19.1359 23.7622C18.7653 23.7622 18.4648 24.0603 18.4648 24.428C18.4648 24.7957 18.7653 25.0938 19.1359 25.0938C19.5066 25.0938 19.8071 24.7957 19.8071 24.428Z" fill="#111111"/>
<path id="Vector_113" d="M21.5942 24.428C21.5942 24.0603 21.2937 23.7622 20.9231 23.7622C20.5524 23.7622 20.252 24.0603 20.252 24.428C20.252 24.7957 20.5524 25.0938 20.9231 25.0938C21.2937 25.0938 21.5942 24.7957 21.5942 24.428Z" fill="#111111"/>
<path id="Vector_114" d="M25.1742 24.428C25.1742 24.0603 24.8738 23.7622 24.5031 23.7622C24.1325 23.7622 23.832 24.0603 23.832 24.428C23.832 24.7957 24.1325 25.0938 24.5031 25.0938C24.8738 25.0938 25.1742 24.7957 25.1742 24.428Z" fill="#111111"/>
<path id="Vector_115" d="M32.3285 24.428C32.3285 24.0603 32.0281 23.7622 31.6574 23.7622C31.2868 23.7622 30.9863 24.0603 30.9863 24.428C30.9863 24.7957 31.2868 25.0938 31.6574 25.0938C32.0281 25.0938 32.3285 24.7957 32.3285 24.428Z" fill="#111111"/>
<path id="Vector_116" d="M34.1156 24.428C34.1156 24.0603 33.8152 23.7622 33.4445 23.7622C33.0739 23.7622 32.7734 24.0603 32.7734 24.428C32.7734 24.7957 33.0739 25.0938 33.4445 25.0938C33.8152 25.0938 34.1156 24.7957 34.1156 24.428Z" fill="#111111"/>
<path id="Vector_117" d="M35.9028 24.428C35.9028 24.0603 35.6023 23.7622 35.2316 23.7622C34.861 23.7622 34.5605 24.0603 34.5605 24.428C34.5605 24.7957 34.861 25.0938 35.2316 25.0938C35.6023 25.0938 35.9028 24.7957 35.9028 24.428Z" fill="#111111"/>
<path id="Vector_118" d="M39.4848 24.428C39.4848 24.0603 39.1843 23.7622 38.8137 23.7622C38.443 23.7622 38.1426 24.0603 38.1426 24.428C38.1426 24.7957 38.443 25.0938 38.8137 25.0938C39.1843 25.0938 39.4848 24.7957 39.4848 24.428Z" fill="#111111"/>
<path id="Vector_119" d="M41.2699 24.428C41.2699 24.0603 40.9695 23.7622 40.5988 23.7622C40.2282 23.7622 39.9277 24.0603 39.9277 24.428C39.9277 24.7957 40.2282 25.0938 40.5988 25.0938C40.9695 25.0938 41.2699 24.7957 41.2699 24.428Z" fill="#111111"/>
<path id="Vector_120" d="M44.85 24.428C44.85 24.0603 44.5496 23.7622 44.1789 23.7622C43.8083 23.7622 43.5078 24.0603 43.5078 24.428C43.5078 24.7957 43.8083 25.0938 44.1789 25.0938C44.5496 25.0938 44.85 24.7957 44.85 24.428Z" fill="#111111"/>
<path id="Vector_121" d="M1.92034 26.2027C1.92034 25.835 1.61987 25.5369 1.24923 25.5369C0.878589 25.5369 0.578125 25.835 0.578125 26.2027C0.578125 26.5704 0.878589 26.8684 1.24923 26.8684C1.61987 26.8684 1.92034 26.5704 1.92034 26.2027Z" fill="#111111"/>
<path id="Vector_122" d="M7.28557 26.2027C7.28557 25.835 6.98511 25.5369 6.61446 25.5369C6.24382 25.5369 5.94336 25.835 5.94336 26.2027C5.94336 26.5704 6.24382 26.8684 6.61446 26.8684C6.98511 26.8684 7.28557 26.5704 7.28557 26.2027Z" fill="#111111"/>
<path id="Vector_123" d="M9.07659 26.2027C9.07659 25.835 8.77612 25.5369 8.40548 25.5369C8.03484 25.5369 7.73438 25.835 7.73438 26.2027C7.73438 26.5704 8.03484 26.8684 8.40548 26.8684C8.77612 26.8684 9.07659 26.5704 9.07659 26.2027Z" fill="#111111"/>
<path id="Vector_124" d="M10.8637 26.2027C10.8637 25.835 10.5632 25.5369 10.1926 25.5369C9.82195 25.5369 9.52148 25.835 9.52148 26.2027C9.52148 26.5704 9.82195 26.8684 10.1926 26.8684C10.5632 26.8684 10.8637 26.5704 10.8637 26.2027Z" fill="#111111"/>
<path id="Vector_125" d="M12.6528 26.2027C12.6528 25.835 12.3523 25.5369 11.9817 25.5369C11.611 25.5369 11.3105 25.835 11.3105 26.2027C11.3105 26.5704 11.611 26.8684 11.9817 26.8684C12.3523 26.8684 12.6528 26.5704 12.6528 26.2027Z" fill="#111111"/>
<path id="Vector_126" d="M14.4399 26.2027C14.4399 25.835 14.1394 25.5369 13.7688 25.5369C13.3981 25.5369 13.0977 25.835 13.0977 26.2027C13.0977 26.5704 13.3981 26.8684 13.7688 26.8684C14.1394 26.8684 14.4399 26.5704 14.4399 26.2027Z" fill="#111111"/>
<path id="Vector_127" d="M19.8071 26.2027C19.8071 25.835 19.5066 25.5369 19.1359 25.5369C18.7653 25.5369 18.4648 25.835 18.4648 26.2027C18.4648 26.5704 18.7653 26.8684 19.1359 26.8684C19.5066 26.8684 19.8071 26.5704 19.8071 26.2027Z" fill="#111111"/>
<path id="Vector_128" d="M21.5942 26.2027C21.5942 25.835 21.2937 25.5369 20.9231 25.5369C20.5524 25.5369 20.252 25.835 20.252 26.2027C20.252 26.5704 20.5524 26.8684 20.9231 26.8684C21.2937 26.8684 21.5942 26.5704 21.5942 26.2027Z" fill="#111111"/>
<path id="Vector_129" d="M25.1742 26.2027C25.1742 25.835 24.8738 25.5369 24.5031 25.5369C24.1325 25.5369 23.832 25.835 23.832 26.2027C23.832 26.5704 24.1325 26.8684 24.5031 26.8684C24.8738 26.8684 25.1742 26.5704 25.1742 26.2027Z" fill="#111111"/>
<path id="Vector_130" d="M26.9614 26.2027C26.9614 25.835 26.6609 25.5369 26.2902 25.5369C25.9196 25.5369 25.6191 25.835 25.6191 26.2027C25.6191 26.5704 25.9196 26.8684 26.2902 26.8684C26.6609 26.8684 26.9614 26.5704 26.9614 26.2027Z" fill="#111111"/>
<path id="Vector_131" d="M30.5375 26.2027C30.5375 25.835 30.2371 25.5369 29.8664 25.5369C29.4958 25.5369 29.1953 25.835 29.1953 26.2027C29.1953 26.5704 29.4958 26.8684 29.8664 26.8684C30.2371 26.8684 30.5375 26.5704 30.5375 26.2027Z" fill="#111111"/>
<path id="Vector_132" d="M34.1156 26.2027C34.1156 25.835 33.8152 25.5369 33.4445 25.5369C33.0739 25.5369 32.7734 25.835 32.7734 26.2027C32.7734 26.5704 33.0739 26.8684 33.4445 26.8684C33.8152 26.8684 34.1156 26.5704 34.1156 26.2027Z" fill="#111111"/>
<path id="Vector_133" d="M35.9028 26.2027C35.9028 25.835 35.6023 25.5369 35.2316 25.5369C34.861 25.5369 34.5605 25.835 34.5605 26.2027C34.5605 26.5704 34.861 26.8684 35.2316 26.8684C35.6023 26.8684 35.9028 26.5704 35.9028 26.2027Z" fill="#111111"/>
<path id="Vector_134" d="M37.6938 26.2027C37.6938 25.835 37.3933 25.5369 37.0227 25.5369C36.652 25.5369 36.3516 25.835 36.3516 26.2027C36.3516 26.5704 36.652 26.8684 37.0227 26.8684C37.3933 26.8684 37.6938 26.5704 37.6938 26.2027Z" fill="#111111"/>
<path id="Vector_135" d="M41.2699 26.2027C41.2699 25.835 40.9695 25.5369 40.5988 25.5369C40.2282 25.5369 39.9277 25.835 39.9277 26.2027C39.9277 26.5704 40.2282 26.8684 40.5988 26.8684C40.9695 26.8684 41.2699 26.5704 41.2699 26.2027Z" fill="#111111"/>
<path id="Vector_136" d="M44.85 26.2027C44.85 25.835 44.5496 25.5369 44.1789 25.5369C43.8083 25.5369 43.5078 25.835 43.5078 26.2027C43.5078 26.5704 43.8083 26.8684 44.1789 26.8684C44.5496 26.8684 44.85 26.5704 44.85 26.2027Z" fill="#111111"/>
<path id="Vector_137" d="M3.70744 27.9769C3.70744 27.6092 3.40698 27.3111 3.03634 27.3111C2.6657 27.3111 2.36523 27.6092 2.36523 27.9769C2.36523 28.3446 2.6657 28.6427 3.03634 28.6427C3.40698 28.6427 3.70744 28.3446 3.70744 27.9769Z" fill="#111111"/>
<path id="Vector_138" d="M7.28557 27.9769C7.28557 27.6092 6.98511 27.3111 6.61446 27.3111C6.24382 27.3111 5.94336 27.6092 5.94336 27.9769C5.94336 28.3446 6.24382 28.6427 6.61446 28.6427C6.98511 28.6427 7.28557 28.3446 7.28557 27.9769Z" fill="#111111"/>
<path id="Vector_139" d="M10.8637 27.9769C10.8637 27.6092 10.5632 27.3111 10.1926 27.3111C9.82195 27.3111 9.52148 27.6092 9.52148 27.9769C9.52148 28.3446 9.82195 28.6427 10.1926 28.6427C10.5632 28.6427 10.8637 28.3446 10.8637 27.9769Z" fill="#111111"/>
<path id="Vector_140" d="M14.4399 27.9769C14.4399 27.6092 14.1394 27.3111 13.7688 27.3111C13.3981 27.3111 13.0977 27.6092 13.0977 27.9769C13.0977 28.3446 13.3981 28.6427 13.7688 28.6427C14.1394 28.6427 14.4399 28.3446 14.4399 27.9769Z" fill="#111111"/>
<path id="Vector_141" d="M16.2289 27.9769C16.2289 27.6092 15.9285 27.3111 15.5578 27.3111C15.1872 27.3111 14.8867 27.6092 14.8867 27.9769C14.8867 28.3446 15.1872 28.6427 15.5578 28.6427C15.9285 28.6427 16.2289 28.3446 16.2289 27.9769Z" fill="#111111"/>
<path id="Vector_142" d="M23.3852 27.9769C23.3852 27.6092 23.0847 27.3111 22.7141 27.3111C22.3434 27.3111 22.043 27.6092 22.043 27.9769C22.043 28.3446 22.3434 28.6427 22.7141 28.6427C23.0847 28.6427 23.3852 28.3446 23.3852 27.9769Z" fill="#111111"/>
<path id="Vector_143" d="M26.9614 27.9769C26.9614 27.6092 26.6609 27.3111 26.2902 27.3111C25.9196 27.3111 25.6191 27.6092 25.6191 27.9769C25.6191 28.3446 25.9196 28.6427 26.2902 28.6427C26.6609 28.6427 26.9614 28.3446 26.9614 27.9769Z" fill="#111111"/>
<path id="Vector_144" d="M30.5375 27.9769C30.5375 27.6092 30.2371 27.3111 29.8664 27.3111C29.4958 27.3111 29.1953 27.6092 29.1953 27.9769C29.1953 28.3446 29.4958 28.6427 29.8664 28.6427C30.2371 28.6427 30.5375 28.3446 30.5375 27.9769Z" fill="#111111"/>
<path id="Vector_145" d="M37.6938 27.9769C37.6938 27.6092 37.3933 27.3111 37.0227 27.3111C36.652 27.3111 36.3516 27.6092 36.3516 27.9769C36.3516 28.3446 36.652 28.6427 37.0227 28.6427C37.3933 28.6427 37.6938 28.3446 37.6938 27.9769Z" fill="#111111"/>
<path id="Vector_146" d="M39.4848 27.9769C39.4848 27.6092 39.1843 27.3111 38.8137 27.3111C38.443 27.3111 38.1426 27.6092 38.1426 27.9769C38.1426 28.3446 38.443 28.6427 38.8137 28.6427C39.1843 28.6427 39.4848 28.3446 39.4848 27.9769Z" fill="#111111"/>
<path id="Vector_147" d="M43.061 27.9769C43.061 27.6092 42.7605 27.3111 42.3899 27.3111C42.0192 27.3111 41.7188 27.6092 41.7188 27.9769C41.7188 28.3446 42.0192 28.6427 42.3899 28.6427C42.7605 28.6427 43.061 28.3446 43.061 27.9769Z" fill="#111111"/>
<path id="Vector_148" d="M1.92034 29.7514C1.92034 29.3837 1.61987 29.0856 1.24923 29.0856C0.878589 29.0856 0.578125 29.3837 0.578125 29.7514C0.578125 30.1191 0.878589 30.4171 1.24923 30.4171C1.61987 30.4171 1.92034 30.1191 1.92034 29.7514Z" fill="#111111"/>
<path id="Vector_149" d="M3.70744 29.7514C3.70744 29.3837 3.40698 29.0856 3.03634 29.0856C2.6657 29.0856 2.36523 29.3837 2.36523 29.7514C2.36523 30.1191 2.6657 30.4171 3.03634 30.4171C3.40698 30.4171 3.70744 30.1191 3.70744 29.7514Z" fill="#111111"/>
<path id="Vector_150" d="M9.07659 29.7514C9.07659 29.3837 8.77612 29.0856 8.40548 29.0856C8.03484 29.0856 7.73438 29.3837 7.73438 29.7514C7.73438 30.1191 8.03484 30.4171 8.40548 30.4171C8.77612 30.4171 9.07659 30.1191 9.07659 29.7514Z" fill="#111111"/>
<path id="Vector_151" d="M12.6528 29.7514C12.6528 29.3837 12.3523 29.0856 11.9817 29.0856C11.611 29.0856 11.3105 29.3837 11.3105 29.7514C11.3105 30.1191 11.611 30.4171 11.9817 30.4171C12.3523 30.4171 12.6528 30.1191 12.6528 29.7514Z" fill="#111111"/>
<path id="Vector_152" d="M14.4399 29.7514C14.4399 29.3837 14.1394 29.0856 13.7688 29.0856C13.3981 29.0856 13.0977 29.3837 13.0977 29.7514C13.0977 30.1191 13.3981 30.4171 13.7688 30.4171C14.1394 30.4171 14.4399 30.1191 14.4399 29.7514Z" fill="#111111"/>
<path id="Vector_153" d="M18.018 29.7514C18.018 29.3837 17.7175 29.0856 17.3469 29.0856C16.9762 29.0856 16.6758 29.3837 16.6758 29.7514C16.6758 30.1191 16.9762 30.4171 17.3469 30.4171C17.7175 30.4171 18.018 30.1191 18.018 29.7514Z" fill="#111111"/>
<path id="Vector_154" d="M23.3852 29.7514C23.3852 29.3837 23.0847 29.0856 22.7141 29.0856C22.3434 29.0856 22.043 29.3837 22.043 29.7514C22.043 30.1191 22.3434 30.4171 22.7141 30.4171C23.0847 30.4171 23.3852 30.1191 23.3852 29.7514Z" fill="#111111"/>
<path id="Vector_155" d="M25.1742 29.7514C25.1742 29.3837 24.8738 29.0856 24.5031 29.0856C24.1325 29.0856 23.832 29.3837 23.832 29.7514C23.832 30.1191 24.1325 30.4171 24.5031 30.4171C24.8738 30.4171 25.1742 30.1191 25.1742 29.7514Z" fill="#111111"/>
<path id="Vector_156" d="M30.5375 29.7514C30.5375 29.3837 30.2371 29.0856 29.8664 29.0856C29.4958 29.0856 29.1953 29.3837 29.1953 29.7514C29.1953 30.1191 29.4958 30.4171 29.8664 30.4171C30.2371 30.4171 30.5375 30.1191 30.5375 29.7514Z" fill="#111111"/>
<path id="Vector_157" d="M32.3285 29.7514C32.3285 29.3837 32.0281 29.0856 31.6574 29.0856C31.2868 29.0856 30.9863 29.3837 30.9863 29.7514C30.9863 30.1191 31.2868 30.4171 31.6574 30.4171C32.0281 30.4171 32.3285 30.1191 32.3285 29.7514Z" fill="#111111"/>
<path id="Vector_158" d="M34.1156 29.7514C34.1156 29.3837 33.8152 29.0856 33.4445 29.0856C33.0739 29.0856 32.7734 29.3837 32.7734 29.7514C32.7734 30.1191 33.0739 30.4171 33.4445 30.4171C33.8152 30.4171 34.1156 30.1191 34.1156 29.7514Z" fill="#111111"/>
<path id="Vector_159" d="M35.9028 29.7514C35.9028 29.3837 35.6023 29.0856 35.2316 29.0856C34.861 29.0856 34.5605 29.3837 34.5605 29.7514C34.5605 30.1191 34.861 30.4171 35.2316 30.4171C35.6023 30.4171 35.9028 30.1191 35.9028 29.7514Z" fill="#111111"/>
<path id="Vector_160" d="M37.6938 29.7514C37.6938 29.3837 37.3933 29.0856 37.0227 29.0856C36.652 29.0856 36.3516 29.3837 36.3516 29.7514C36.3516 30.1191 36.652 30.4171 37.0227 30.4171C37.3933 30.4171 37.6938 30.1191 37.6938 29.7514Z" fill="#111111"/>
<path id="Vector_161" d="M39.4848 29.7514C39.4848 29.3837 39.1843 29.0856 38.8137 29.0856C38.443 29.0856 38.1426 29.3837 38.1426 29.7514C38.1426 30.1191 38.443 30.4171 38.8137 30.4171C39.1843 30.4171 39.4848 30.1191 39.4848 29.7514Z" fill="#111111"/>
<path id="Vector_162" d="M41.2699 29.7514C41.2699 29.3837 40.9695 29.0856 40.5988 29.0856C40.2282 29.0856 39.9277 29.3837 39.9277 29.7514C39.9277 30.1191 40.2282 30.4171 40.5988 30.4171C40.9695 30.4171 41.2699 30.1191 41.2699 29.7514Z" fill="#111111"/>
<path id="Vector_163" d="M16.2289 31.526C16.2289 31.1583 15.9285 30.8602 15.5578 30.8602C15.1872 30.8602 14.8867 31.1583 14.8867 31.526C14.8867 31.8937 15.1872 32.1918 15.5578 32.1918C15.9285 32.1918 16.2289 31.8937 16.2289 31.526Z" fill="#111111"/>
<path id="Vector_164" d="M18.018 31.526C18.018 31.1583 17.7175 30.8602 17.3469 30.8602C16.9762 30.8602 16.6758 31.1583 16.6758 31.526C16.6758 31.8937 16.9762 32.1918 17.3469 32.1918C17.7175 32.1918 18.018 31.8937 18.018 31.526Z" fill="#111111"/>
<path id="Vector_165" d="M25.1742 31.526C25.1742 31.1583 24.8738 30.8602 24.5031 30.8602C24.1325 30.8602 23.832 31.1583 23.832 31.526C23.832 31.8937 24.1325 32.1918 24.5031 32.1918C24.8738 32.1918 25.1742 31.8937 25.1742 31.526Z" fill="#111111"/>
<path id="Vector_166" d="M28.7524 31.526C28.7524 31.1583 28.4519 30.8602 28.0813 30.8602C27.7106 30.8602 27.4102 31.1583 27.4102 31.526C27.4102 31.8937 27.7106 32.1918 28.0813 32.1918C28.4519 32.1918 28.7524 31.8937 28.7524 31.526Z" fill="#111111"/>
<path id="Vector_167" d="M30.5375 31.526C30.5375 31.1583 30.2371 30.8602 29.8664 30.8602C29.4958 30.8602 29.1953 31.1583 29.1953 31.526C29.1953 31.8937 29.4958 32.1918 29.8664 32.1918C30.2371 32.1918 30.5375 31.8937 30.5375 31.526Z" fill="#111111"/>
<path id="Vector_168" d="M37.6938 31.526C37.6938 31.1583 37.3933 30.8602 37.0227 30.8602C36.652 30.8602 36.3516 31.1583 36.3516 31.526C36.3516 31.8937 36.652 32.1918 37.0227 32.1918C37.3933 32.1918 37.6938 31.8937 37.6938 31.526Z" fill="#111111"/>
<path id="Vector_169" d="M39.4848 31.526C39.4848 31.1583 39.1843 30.8602 38.8137 30.8602C38.443 30.8602 38.1426 31.1583 38.1426 31.526C38.1426 31.8937 38.443 32.1918 38.8137 32.1918C39.1843 32.1918 39.4848 31.8937 39.4848 31.526Z" fill="#111111"/>
<path id="Vector_170" d="M41.2699 31.526C41.2699 31.1583 40.9695 30.8602 40.5988 30.8602C40.2282 30.8602 39.9277 31.1583 39.9277 31.526C39.9277 31.8937 40.2282 32.1918 40.5988 32.1918C40.9695 32.1918 41.2699 31.8937 41.2699 31.526Z" fill="#111111"/>
<path id="Vector_171" d="M44.85 31.526C44.85 31.1583 44.5496 30.8602 44.1789 30.8602C43.8083 30.8602 43.5078 31.1583 43.5078 31.526C43.5078 31.8937 43.8083 32.1918 44.1789 32.1918C44.5496 32.1918 44.85 31.8937 44.85 31.526Z" fill="#111111"/>
<path id="Vector_172" d="M16.2289 33.3004C16.2289 32.9327 15.9285 32.6347 15.5578 32.6347C15.1872 32.6347 14.8867 32.9327 14.8867 33.3004C14.8867 33.6681 15.1872 33.9662 15.5578 33.9662C15.9285 33.9662 16.2289 33.6681 16.2289 33.3004Z" fill="#111111"/>
<path id="Vector_173" d="M21.5942 33.3004C21.5942 32.9327 21.2937 32.6347 20.9231 32.6347C20.5524 32.6347 20.252 32.9327 20.252 33.3004C20.252 33.6681 20.5524 33.9662 20.9231 33.9662C21.2937 33.9662 21.5942 33.6681 21.5942 33.3004Z" fill="#111111"/>
<path id="Vector_174" d="M25.1742 33.3004C25.1742 32.9327 24.8738 32.6347 24.5031 32.6347C24.1325 32.6347 23.832 32.9327 23.832 33.3004C23.832 33.6681 24.1325 33.9662 24.5031 33.9662C24.8738 33.9662 25.1742 33.6681 25.1742 33.3004Z" fill="#111111"/>
<path id="Vector_175" d="M28.7524 33.3004C28.7524 32.9327 28.4519 32.6347 28.0813 32.6347C27.7106 32.6347 27.4102 32.9327 27.4102 33.3004C27.4102 33.6681 27.7106 33.9662 28.0813 33.9662C28.4519 33.9662 28.7524 33.6681 28.7524 33.3004Z" fill="#111111"/>
<path id="Vector_176" d="M30.5375 33.3004C30.5375 32.9327 30.2371 32.6347 29.8664 32.6347C29.4958 32.6347 29.1953 32.9327 29.1953 33.3004C29.1953 33.6681 29.4958 33.9662 29.8664 33.9662C30.2371 33.9662 30.5375 33.6681 30.5375 33.3004Z" fill="#111111"/>
<path id="Vector_177" d="M34.1156 33.3004C34.1156 32.9327 33.8152 32.6347 33.4445 32.6347C33.0739 32.6347 32.7734 32.9327 32.7734 33.3004C32.7734 33.6681 33.0739 33.9662 33.4445 33.9662C33.8152 33.9662 34.1156 33.6681 34.1156 33.3004Z" fill="#111111"/>
<path id="Vector_178" d="M37.6938 33.3004C37.6938 32.9327 37.3933 32.6347 37.0227 32.6347C36.652 32.6347 36.3516 32.9327 36.3516 33.3004C36.3516 33.6681 36.652 33.9662 37.0227 33.9662C37.3933 33.9662 37.6938 33.6681 37.6938 33.3004Z" fill="#111111"/>
<path id="Vector_179" d="M43.061 33.3004C43.061 32.9327 42.7605 32.6347 42.3899 32.6347C42.0192 32.6347 41.7188 32.9327 41.7188 33.3004C41.7188 33.6681 42.0192 33.9662 42.3899 33.9662C42.7605 33.9662 43.061 33.6681 43.061 33.3004Z" fill="#111111"/>
<path id="Vector_180" d="M44.85 33.3004C44.85 32.9327 44.5496 32.6347 44.1789 32.6347C43.8083 32.6347 43.5078 32.9327 43.5078 33.3004C43.5078 33.6681 43.8083 33.9662 44.1789 33.9662C44.5496 33.9662 44.85 33.6681 44.85 33.3004Z" fill="#111111"/>
<path id="Vector_181" d="M16.2289 35.0747C16.2289 34.707 15.9285 34.4089 15.5578 34.4089C15.1872 34.4089 14.8867 34.707 14.8867 35.0747C14.8867 35.4424 15.1872 35.7405 15.5578 35.7405C15.9285 35.7405 16.2289 35.4424 16.2289 35.0747Z" fill="#111111"/>
<path id="Vector_182" d="M19.8071 35.0747C19.8071 34.707 19.5066 34.4089 19.1359 34.4089C18.7653 34.4089 18.4648 34.707 18.4648 35.0747C18.4648 35.4424 18.7653 35.7405 19.1359 35.7405C19.5066 35.7405 19.8071 35.4424 19.8071 35.0747Z" fill="#111111"/>
<path id="Vector_183" d="M23.3852 35.0747C23.3852 34.707 23.0847 34.4089 22.7141 34.4089C22.3434 34.4089 22.043 34.707 22.043 35.0747C22.043 35.4424 22.3434 35.7405 22.7141 35.7405C23.0847 35.7405 23.3852 35.4424 23.3852 35.0747Z" fill="#111111"/>
<path id="Vector_184" d="M25.1742 35.0747C25.1742 34.707 24.8738 34.4089 24.5031 34.4089C24.1325 34.4089 23.832 34.707 23.832 35.0747C23.832 35.4424 24.1325 35.7405 24.5031 35.7405C24.8738 35.7405 25.1742 35.4424 25.1742 35.0747Z" fill="#111111"/>
<path id="Vector_185" d="M26.9614 35.0747C26.9614 34.707 26.6609 34.4089 26.2902 34.4089C25.9196 34.4089 25.6191 34.707 25.6191 35.0747C25.6191 35.4424 25.9196 35.7405 26.2902 35.7405C26.6609 35.7405 26.9614 35.4424 26.9614 35.0747Z" fill="#111111"/>
<path id="Vector_186" d="M30.5375 35.0747C30.5375 34.707 30.2371 34.4089 29.8664 34.4089C29.4958 34.4089 29.1953 34.707 29.1953 35.0747C29.1953 35.4424 29.4958 35.7405 29.8664 35.7405C30.2371 35.7405 30.5375 35.4424 30.5375 35.0747Z" fill="#111111"/>
<path id="Vector_187" d="M37.6938 35.0747C37.6938 34.707 37.3933 34.4089 37.0227 34.4089C36.652 34.4089 36.3516 34.707 36.3516 35.0747C36.3516 35.4424 36.652 35.7405 37.0227 35.7405C37.3933 35.7405 37.6938 35.4424 37.6938 35.0747Z" fill="#111111"/>
<path id="Vector_188" d="M39.4848 35.0747C39.4848 34.707 39.1843 34.4089 38.8137 34.4089C38.443 34.4089 38.1426 34.707 38.1426 35.0747C38.1426 35.4424 38.443 35.7405 38.8137 35.7405C39.1843 35.7405 39.4848 35.4424 39.4848 35.0747Z" fill="#111111"/>
<path id="Vector_189" d="M41.2699 35.0747C41.2699 34.707 40.9695 34.4089 40.5988 34.4089C40.2282 34.4089 39.9277 34.707 39.9277 35.0747C39.9277 35.4424 40.2282 35.7405 40.5988 35.7405C40.9695 35.7405 41.2699 35.4424 41.2699 35.0747Z" fill="#111111"/>
<path id="Vector_190" d="M43.061 35.0747C43.061 34.707 42.7605 34.4089 42.3899 34.4089C42.0192 34.4089 41.7188 34.707 41.7188 35.0747C41.7188 35.4424 42.0192 35.7405 42.3899 35.7405C42.7605 35.7405 43.061 35.4424 43.061 35.0747Z" fill="#111111"/>
<path id="Vector_191" d="M19.8071 36.8491C19.8071 36.4814 19.5066 36.1834 19.1359 36.1834C18.7653 36.1834 18.4648 36.4814 18.4648 36.8491C18.4648 37.2168 18.7653 37.5149 19.1359 37.5149C19.5066 37.5149 19.8071 37.2168 19.8071 36.8491Z" fill="#111111"/>
<path id="Vector_192" d="M23.3852 36.8491C23.3852 36.4814 23.0847 36.1834 22.7141 36.1834C22.3434 36.1834 22.043 36.4814 22.043 36.8491C22.043 37.2168 22.3434 37.5149 22.7141 37.5149C23.0847 37.5149 23.3852 37.2168 23.3852 36.8491Z" fill="#111111"/>
<path id="Vector_193" d="M25.1742 36.8491C25.1742 36.4814 24.8738 36.1834 24.5031 36.1834C24.1325 36.1834 23.832 36.4814 23.832 36.8491C23.832 37.2168 24.1325 37.5149 24.5031 37.5149C24.8738 37.5149 25.1742 37.2168 25.1742 36.8491Z" fill="#111111"/>
<path id="Vector_194" d="M30.5375 36.8491C30.5375 36.4814 30.2371 36.1834 29.8664 36.1834C29.4958 36.1834 29.1953 36.4814 29.1953 36.8491C29.1953 37.2168 29.4958 37.5149 29.8664 37.5149C30.2371 37.5149 30.5375 37.2168 30.5375 36.8491Z" fill="#111111"/>
<path id="Vector_195" d="M32.3285 36.8491C32.3285 36.4814 32.0281 36.1834 31.6574 36.1834C31.2868 36.1834 30.9863 36.4814 30.9863 36.8491C30.9863 37.2168 31.2868 37.5149 31.6574 37.5149C32.0281 37.5149 32.3285 37.2168 32.3285 36.8491Z" fill="#111111"/>
<path id="Vector_196" d="M34.1156 36.8491C34.1156 36.4814 33.8152 36.1834 33.4445 36.1834C33.0739 36.1834 32.7734 36.4814 32.7734 36.8491C32.7734 37.2168 33.0739 37.5149 33.4445 37.5149C33.8152 37.5149 34.1156 37.2168 34.1156 36.8491Z" fill="#111111"/>
<path id="Vector_197" d="M35.9028 36.8491C35.9028 36.4814 35.6023 36.1834 35.2316 36.1834C34.861 36.1834 34.5605 36.4814 34.5605 36.8491C34.5605 37.2168 34.861 37.5149 35.2316 37.5149C35.6023 37.5149 35.9028 37.2168 35.9028 36.8491Z" fill="#111111"/>
<path id="Vector_198" d="M37.6938 36.8491C37.6938 36.4814 37.3933 36.1834 37.0227 36.1834C36.652 36.1834 36.3516 36.4814 36.3516 36.8491C36.3516 37.2168 36.652 37.5149 37.0227 37.5149C37.3933 37.5149 37.6938 37.2168 37.6938 36.8491Z" fill="#111111"/>
<path id="Vector_199" d="M44.85 36.8491C44.85 36.4814 44.5496 36.1834 44.1789 36.1834C43.8083 36.1834 43.5078 36.4814 43.5078 36.8491C43.5078 37.2168 43.8083 37.5149 44.1789 37.5149C44.5496 37.5149 44.85 37.2168 44.85 36.8491Z" fill="#111111"/>
<path id="Vector_200" d="M16.2289 38.6238C16.2289 38.2561 15.9285 37.958 15.5578 37.958C15.1872 37.958 14.8867 38.2561 14.8867 38.6238C14.8867 38.9915 15.1872 39.2896 15.5578 39.2896C15.9285 39.2896 16.2289 38.9915 16.2289 38.6238Z" fill="#111111"/>
<path id="Vector_201" d="M19.8071 38.6238C19.8071 38.2561 19.5066 37.958 19.1359 37.958C18.7653 37.958 18.4648 38.2561 18.4648 38.6238C18.4648 38.9915 18.7653 39.2896 19.1359 39.2896C19.5066 39.2896 19.8071 38.9915 19.8071 38.6238Z" fill="#111111"/>
<path id="Vector_202" d="M25.1742 38.6238C25.1742 38.2561 24.8738 37.958 24.5031 37.958C24.1325 37.958 23.832 38.2561 23.832 38.6238C23.832 38.9915 24.1325 39.2896 24.5031 39.2896C24.8738 39.2896 25.1742 38.9915 25.1742 38.6238Z" fill="#111111"/>
<path id="Vector_203" d="M35.9028 38.6238C35.9028 38.2561 35.6023 37.958 35.2316 37.958C34.861 37.958 34.5605 38.2561 34.5605 38.6238C34.5605 38.9915 34.861 39.2896 35.2316 39.2896C35.6023 39.2896 35.9028 38.9915 35.9028 38.6238Z" fill="#111111"/>
<path id="Vector_204" d="M41.2699 38.6238C41.2699 38.2561 40.9695 37.958 40.5988 37.958C40.2282 37.958 39.9277 38.2561 39.9277 38.6238C39.9277 38.9915 40.2282 39.2896 40.5988 39.2896C40.9695 39.2896 41.2699 38.9915 41.2699 38.6238Z" fill="#111111"/>
<path id="Vector_205" d="M18.018 40.3978C18.018 40.0301 17.7175 39.7321 17.3469 39.7321C16.9762 39.7321 16.6758 40.0301 16.6758 40.3978C16.6758 40.7655 16.9762 41.0636 17.3469 41.0636C17.7175 41.0636 18.018 40.7655 18.018 40.3978Z" fill="#111111"/>
<path id="Vector_206" d="M23.3852 40.3978C23.3852 40.0301 23.0847 39.7321 22.7141 39.7321C22.3434 39.7321 22.043 40.0301 22.043 40.3978C22.043 40.7655 22.3434 41.0636 22.7141 41.0636C23.0847 41.0636 23.3852 40.7655 23.3852 40.3978Z" fill="#111111"/>
<path id="Vector_207" d="M25.1742 40.3978C25.1742 40.0301 24.8738 39.7321 24.5031 39.7321C24.1325 39.7321 23.832 40.0301 23.832 40.3978C23.832 40.7655 24.1325 41.0636 24.5031 41.0636C24.8738 41.0636 25.1742 40.7655 25.1742 40.3978Z" fill="#111111"/>
<path id="Vector_208" d="M30.5375 40.3978C30.5375 40.0301 30.2371 39.7321 29.8664 39.7321C29.4958 39.7321 29.1953 40.0301 29.1953 40.3978C29.1953 40.7655 29.4958 41.0636 29.8664 41.0636C30.2371 41.0636 30.5375 40.7655 30.5375 40.3978Z" fill="#111111"/>
<path id="Vector_209" d="M32.3285 40.3978C32.3285 40.0301 32.0281 39.7321 31.6574 39.7321C31.2868 39.7321 30.9863 40.0301 30.9863 40.3978C30.9863 40.7655 31.2868 41.0636 31.6574 41.0636C32.0281 41.0636 32.3285 40.7655 32.3285 40.3978Z" fill="#111111"/>
<path id="Vector_210" d="M37.6938 40.3978C37.6938 40.0301 37.3933 39.7321 37.0227 39.7321C36.652 39.7321 36.3516 40.0301 36.3516 40.3978C36.3516 40.7655 36.652 41.0636 37.0227 41.0636C37.3933 41.0636 37.6938 40.7655 37.6938 40.3978Z" fill="#111111"/>
<path id="Vector_211" d="M39.4848 40.3978C39.4848 40.0301 39.1843 39.7321 38.8137 39.7321C38.443 39.7321 38.1426 40.0301 38.1426 40.3978C38.1426 40.7655 38.443 41.0636 38.8137 41.0636C39.1843 41.0636 39.4848 40.7655 39.4848 40.3978Z" fill="#111111"/>
<path id="Vector_212" d="M41.2699 40.3978C41.2699 40.0301 40.9695 39.7321 40.5988 39.7321C40.2282 39.7321 39.9277 40.0301 39.9277 40.3978C39.9277 40.7655 40.2282 41.0636 40.5988 41.0636C40.9695 41.0636 41.2699 40.7655 41.2699 40.3978Z" fill="#111111"/>
<path id="Vector_213" d="M44.85 40.3978C44.85 40.0301 44.5496 39.7321 44.1789 39.7321C43.8083 39.7321 43.5078 40.0301 43.5078 40.3978C43.5078 40.7655 43.8083 41.0636 44.1789 41.0636C44.5496 41.0636 44.85 40.7655 44.85 40.3978Z" fill="#111111"/>
<path id="Vector_214" d="M16.2289 42.1725C16.2289 41.8048 15.9285 41.5067 15.5578 41.5067C15.1872 41.5067 14.8867 41.8048 14.8867 42.1725C14.8867 42.5402 15.1872 42.8382 15.5578 42.8382C15.9285 42.8382 16.2289 42.5402 16.2289 42.1725Z" fill="#111111"/>
<path id="Vector_215" d="M18.018 42.1725C18.018 41.8048 17.7175 41.5067 17.3469 41.5067C16.9762 41.5067 16.6758 41.8048 16.6758 42.1725C16.6758 42.5402 16.9762 42.8382 17.3469 42.8382C17.7175 42.8382 18.018 42.5402 18.018 42.1725Z" fill="#111111"/>
<path id="Vector_216" d="M19.8071 42.1725C19.8071 41.8048 19.5066 41.5067 19.1359 41.5067C18.7653 41.5067 18.4648 41.8048 18.4648 42.1725C18.4648 42.5402 18.7653 42.8382 19.1359 42.8382C19.5066 42.8382 19.8071 42.5402 19.8071 42.1725Z" fill="#111111"/>
<path id="Vector_217" d="M23.3852 42.1725C23.3852 41.8048 23.0847 41.5067 22.7141 41.5067C22.3434 41.5067 22.043 41.8048 22.043 42.1725C22.043 42.5402 22.3434 42.8382 22.7141 42.8382C23.0847 42.8382 23.3852 42.5402 23.3852 42.1725Z" fill="#111111"/>
<path id="Vector_218" d="M25.1742 42.1725C25.1742 41.8048 24.8738 41.5067 24.5031 41.5067C24.1325 41.5067 23.832 41.8048 23.832 42.1725C23.832 42.5402 24.1325 42.8382 24.5031 42.8382C24.8738 42.8382 25.1742 42.5402 25.1742 42.1725Z" fill="#111111"/>
<path id="Vector_219" d="M28.7524 42.1725C28.7524 41.8048 28.4519 41.5067 28.0813 41.5067C27.7106 41.5067 27.4102 41.8048 27.4102 42.1725C27.4102 42.5402 27.7106 42.8382 28.0813 42.8382C28.4519 42.8382 28.7524 42.5402 28.7524 42.1725Z" fill="#111111"/>
<path id="Vector_220" d="M30.5375 42.1725C30.5375 41.8048 30.2371 41.5067 29.8664 41.5067C29.4958 41.5067 29.1953 41.8048 29.1953 42.1725C29.1953 42.5402 29.4958 42.8382 29.8664 42.8382C30.2371 42.8382 30.5375 42.5402 30.5375 42.1725Z" fill="#111111"/>
<path id="Vector_221" d="M39.4848 42.1725C39.4848 41.8048 39.1843 41.5067 38.8137 41.5067C38.443 41.5067 38.1426 41.8048 38.1426 42.1725C38.1426 42.5402 38.443 42.8382 38.8137 42.8382C39.1843 42.8382 39.4848 42.5402 39.4848 42.1725Z" fill="#111111"/>
<path id="Vector_222" d="M18.018 43.9469C18.018 43.5792 17.7175 43.2811 17.3469 43.2811C16.9762 43.2811 16.6758 43.5792 16.6758 43.9469C16.6758 44.3146 16.9762 44.6127 17.3469 44.6127C17.7175 44.6127 18.018 44.3146 18.018 43.9469Z" fill="#111111"/>
<path id="Vector_223" d="M19.8071 43.9469C19.8071 43.5792 19.5066 43.2811 19.1359 43.2811C18.7653 43.2811 18.4648 43.5792 18.4648 43.9469C18.4648 44.3146 18.7653 44.6127 19.1359 44.6127C19.5066 44.6127 19.8071 44.3146 19.8071 43.9469Z" fill="#111111"/>
<path id="Vector_224" d="M21.5942 43.9469C21.5942 43.5792 21.2937 43.2811 20.9231 43.2811C20.5524 43.2811 20.252 43.5792 20.252 43.9469C20.252 44.3146 20.5524 44.6127 20.9231 44.6127C21.2937 44.6127 21.5942 44.3146 21.5942 43.9469Z" fill="#111111"/>
<path id="Vector_225" d="M23.3852 43.9469C23.3852 43.5792 23.0847 43.2811 22.7141 43.2811C22.3434 43.2811 22.043 43.5792 22.043 43.9469C22.043 44.3146 22.3434 44.6127 22.7141 44.6127C23.0847 44.6127 23.3852 44.3146 23.3852 43.9469Z" fill="#111111"/>
<path id="Vector_226" d="M25.1742 43.9469C25.1742 43.5792 24.8738 43.2811 24.5031 43.2811C24.1325 43.2811 23.832 43.5792 23.832 43.9469C23.832 44.3146 24.1325 44.6127 24.5031 44.6127C24.8738 44.6127 25.1742 44.3146 25.1742 43.9469Z" fill="#111111"/>
<path id="Vector_227" d="M28.7524 43.9469C28.7524 43.5792 28.4519 43.2811 28.0813 43.2811C27.7106 43.2811 27.4102 43.5792 27.4102 43.9469C27.4102 44.3146 27.7106 44.6127 28.0813 44.6127C28.4519 44.6127 28.7524 44.3146 28.7524 43.9469Z" fill="#111111"/>
<path id="Vector_228" d="M30.5375 43.9469C30.5375 43.5792 30.2371 43.2811 29.8664 43.2811C29.4958 43.2811 29.1953 43.5792 29.1953 43.9469C29.1953 44.3146 29.4958 44.6127 29.8664 44.6127C30.2371 44.6127 30.5375 44.3146 30.5375 43.9469Z" fill="#111111"/>
<path id="Vector_229" d="M35.9028 43.9469C35.9028 43.5792 35.6023 43.2811 35.2316 43.2811C34.861 43.2811 34.5605 43.5792 34.5605 43.9469C34.5605 44.3146 34.861 44.6127 35.2316 44.6127C35.6023 44.6127 35.9028 44.3146 35.9028 43.9469Z" fill="#111111"/>
<path id="Vector_230" d="M43.061 43.9469C43.061 43.5792 42.7605 43.2811 42.3899 43.2811C42.0192 43.2811 41.7188 43.5792 41.7188 43.9469C41.7188 44.3146 42.0192 44.6127 42.3899 44.6127C42.7605 44.6127 43.061 44.3146 43.061 43.9469Z" fill="#111111"/>
<path id="Vector_231" d="M44.85 43.9469C44.85 43.5792 44.5496 43.2811 44.1789 43.2811C43.8083 43.2811 43.5078 43.5792 43.5078 43.9469C43.5078 44.3146 43.8083 44.6127 44.1789 44.6127C44.5496 44.6127 44.85 44.3146 44.85 43.9469Z" fill="#111111"/>
</g>
<g id="Group_3">
<path id="Vector_232" d="M10.1932 1.35741L3.03864 1.35741C2.0508 1.35741 1.25 2.15186 1.25 3.13186L1.25 10.2296C1.25 11.2096 2.0508 12.0041 3.03864 12.0041H10.1932C11.181 12.0041 11.9818 11.2096 11.9818 10.2296V3.13186C11.9818 2.15186 11.181 1.35741 10.1932 1.35741Z" stroke="#111111" stroke-width="2.23804"/>
<path id="Vector_233" d="M8.40324 4.01924H4.82596C4.33204 4.01924 3.93164 4.41646 3.93164 4.90646L3.93164 8.45536C3.93164 8.94535 4.33204 9.34258 4.82596 9.34258H8.40324C8.89716 9.34258 9.29756 8.94535 9.29756 8.45536V4.90646C9.29756 4.41646 8.89716 4.01924 8.40324 4.01924Z" fill="#111111"/>
<path id="Vector_234" d="M42.3944 1.35749L35.2398 1.35749C34.252 1.35749 33.4512 2.15194 33.4512 3.13194V10.2297C33.4512 11.2097 34.252 12.0042 35.2398 12.0042H42.3944C43.3822 12.0042 44.183 11.2097 44.183 10.2297V3.13194C44.183 2.15194 43.3822 1.35749 42.3944 1.35749Z" stroke="#111111" stroke-width="2.23804"/>
<path id="Vector_235" d="M40.6064 4.01924H37.0291C36.5352 4.01924 36.1348 4.41646 36.1348 4.90646V8.45536C36.1348 8.94535 36.5352 9.34258 37.0291 9.34258H40.6064C41.1003 9.34258 41.5007 8.94535 41.5007 8.45536V4.90646C41.5007 4.41646 41.1003 4.01924 40.6064 4.01924Z" fill="#111111"/>
<path id="Vector_236" d="M10.1932 33.3023H3.03864C2.0508 33.3023 1.25 34.0968 1.25 35.0768L1.25 42.1746C1.25 43.1546 2.0508 43.949 3.03864 43.949H10.1932C11.181 43.949 11.9818 43.1546 11.9818 42.1746V35.0768C11.9818 34.0968 11.181 33.3023 10.1932 33.3023Z" stroke="#111111" stroke-width="2.23804"/>
<path id="Vector_237" d="M8.40324 35.9639H4.82596C4.33204 35.9639 3.93164 36.3611 3.93164 36.8511L3.93164 40.4C3.93164 40.89 4.33204 41.2872 4.82596 41.2872H8.40324C8.89716 41.2872 9.29756 40.89 9.29756 40.4V36.8511C9.29756 36.3611 8.89716 35.9639 8.40324 35.9639Z" fill="#111111"/>
</g>
</g>
</svg>
