<svg width="80" height="81" viewBox="0 0 80 81" fill="none" xmlns="http://www.w3.org/2000/svg">
<path d="M0 6.89835C0 3.30976 2.90912 0.400635 6.49771 0.400635L73.5023 0.400635C77.0909 0.400635 80 3.30976 80 6.89834V73.9029C80 77.4915 77.0909 80.4006 73.5023 80.4006H6.49771C2.90913 80.4006 0 77.4915 0 73.9029L0 6.89835Z" fill="white"/>
<path d="M0.406107 6.89835C0.406107 3.53405 3.13341 0.806742 6.49771 0.806742L73.5023 0.806742C76.8666 0.806742 79.5939 3.53404 79.5939 6.89834V73.9029C79.5939 77.2672 76.8666 79.9945 73.5023 79.9945H6.49771C3.13341 79.9945 0.406107 77.2672 0.406107 73.9029L0.406107 6.89835Z" stroke="#1A1A1A" stroke-opacity="0.1" stroke-width="0.812214"/>
<path d="M60.5855 9.01981L18.846 9.01981C16.1016 9.01981 13.877 11.2268 13.877 13.9494L13.877 55.3577C13.877 58.0802 16.1016 60.2873 18.846 60.2873H60.5855C63.3298 60.2873 65.5545 58.0802 65.5545 55.3577V13.9494C65.5545 11.2268 63.3298 9.01981 60.5855 9.01981Z" fill="white"/>
<path fill-rule="evenodd" clip-rule="evenodd" d="M18.6019 7.54107C15.1683 7.54107 12.3848 10.3025 12.3848 13.7089L12.3848 66.4434C12.3848 69.85 15.1683 72.6113 18.6019 72.6113H60.8265C64.2604 72.6113 67.0437 69.85 67.0437 66.4434V13.7089C67.0437 10.3025 64.2604 7.54107 60.8265 7.54107L18.6019 7.54107ZM18.7656 9.75938C16.4765 9.75938 14.6208 11.6003 14.6208 13.8712L14.6208 55.4362C14.6208 57.707 16.4765 59.548 18.7656 59.548H60.6631C62.952 59.548 64.8077 57.707 64.8077 55.4362V13.8712C64.8077 11.6003 62.952 9.75938 60.6631 9.75938L18.7656 9.75938Z" fill="#111111"/>
<path d="M31.7878 65.5589C31.7649 65.3274 31.6663 65.1475 31.4922 65.0193C31.318 64.8911 31.0817 64.827 30.7832 64.827C30.5804 64.827 30.4091 64.8557 30.2694 64.9131C30.1298 64.9686 30.0226 65.0461 29.948 65.1456C29.8753 65.2451 29.8389 65.358 29.8389 65.4843C29.8351 65.5895 29.8571 65.6814 29.9049 65.7598C29.9547 65.8383 30.0226 65.9062 30.1087 65.9636C30.1948 66.0191 30.2943 66.0679 30.4072 66.11C30.5201 66.1502 30.6407 66.1846 30.7689 66.2133L31.297 66.3396C31.5534 66.397 31.7888 66.4736 32.0031 66.5693C32.2174 66.6649 32.403 66.7826 32.5599 66.9223C32.7168 67.062 32.8383 67.2265 32.9244 67.416C33.0125 67.6054 33.0574 67.8226 33.0593 68.0675C33.0574 68.4273 32.9656 68.7392 32.7838 69.0032C32.6039 69.2654 32.3437 69.4692 32.0031 69.6146C31.6644 69.7581 31.2559 69.8299 30.7775 69.8299C30.3029 69.8299 29.8896 69.7572 29.5375 69.6117C29.1873 69.4663 28.9137 69.251 28.7166 68.9659C28.5214 68.6789 28.4191 68.3239 28.4095 67.9011H29.6121C29.6255 68.0982 29.682 68.2627 29.7815 68.3947C29.8829 68.5249 30.0178 68.6234 30.1862 68.6904C30.3565 68.7554 30.5488 68.788 30.7631 68.788C30.9736 68.788 31.1564 68.7574 31.3113 68.6961C31.4683 68.6349 31.5898 68.5497 31.6759 68.4407C31.762 68.3316 31.805 68.2063 31.805 68.0647C31.805 67.9326 31.7658 67.8216 31.6874 67.7317C31.6108 67.6418 31.4979 67.5652 31.3487 67.5021C31.2013 67.4389 31.0205 67.3815 30.8062 67.3299L30.1661 67.1691C29.6705 67.0486 29.2792 66.8601 28.9922 66.6037C28.7051 66.3473 28.5626 66.0019 28.5645 65.5675C28.5626 65.2116 28.6573 64.9007 28.8486 64.6347C29.0419 64.3687 29.3069 64.1611 29.6437 64.0118C29.9805 63.8626 30.3632 63.7879 30.7918 63.7879C31.2281 63.7879 31.6089 63.8626 31.9342 64.0118C32.2614 64.1611 32.5159 64.3687 32.6977 64.6347C32.8795 64.9007 32.9732 65.2087 32.979 65.5589H31.7878ZM39.0819 65.9263H37.8247C37.8018 65.7637 37.7549 65.6192 37.6841 65.4929C37.6133 65.3647 37.5224 65.2556 37.4114 65.1657C37.3004 65.0757 37.1722 65.0069 37.0268 64.959C36.8833 64.9112 36.7273 64.8873 36.5589 64.8873C36.2547 64.8873 35.9897 64.9629 35.7639 65.114C35.5381 65.2633 35.363 65.4814 35.2386 65.7684C35.1142 66.0536 35.052 66.3999 35.052 66.8075C35.052 67.2265 35.1142 67.5786 35.2386 67.8637C35.3649 68.1489 35.5409 68.3641 35.7667 68.5096C35.9925 68.655 36.2537 68.7277 36.5503 68.7277C36.7168 68.7277 36.8708 68.7057 37.0124 68.6617C37.156 68.6177 37.2832 68.5536 37.3942 68.4694C37.5052 68.3833 37.597 68.279 37.6697 68.1565C37.7444 68.0341 37.796 67.8944 37.8247 67.7375L39.0819 67.7432C39.0494 68.013 38.9681 68.2732 38.8379 68.5239C38.7097 68.7727 38.5366 68.9956 38.3184 69.1927C38.1022 69.3879 37.8439 69.5429 37.5434 69.6577C37.2449 69.7706 36.9072 69.827 36.5302 69.827C36.0059 69.827 35.5371 69.7084 35.1238 69.4711C34.7124 69.2338 34.3871 68.8904 34.1479 68.4407C33.9106 67.991 33.792 67.4466 33.792 66.8075C33.792 66.1665 33.9125 65.6211 34.1536 65.1714C34.3947 64.7217 34.722 64.3792 35.1353 64.1439C35.5486 63.9066 36.0136 63.7879 36.5302 63.7879C36.8708 63.7879 37.1866 63.8358 37.4774 63.9315C37.7702 64.0271 38.0295 64.1668 38.2553 64.3505C38.4811 64.5323 38.6648 64.7552 38.8064 65.0193C38.9499 65.2834 39.0417 65.5857 39.0819 65.9263ZM40.8758 69.7467H39.544L41.5733 63.8683H43.1749L45.2014 69.7467H43.8695L42.3971 65.2116H42.3512L40.8758 69.7467ZM40.7926 67.4361H43.9384V68.4062H40.7926V67.4361ZM50.8257 63.8683V69.7467H49.7522L47.1948 66.0469H47.1517V69.7467H45.9089V63.8683H46.9996L49.5369 67.5652H49.5886V63.8683H50.8257ZM34.0532 73.8683H35.5859L37.2048 77.8178H37.2736L38.8925 73.8683H40.4252V79.7467H39.2197V75.9206H39.1709L37.6496 79.7179H36.8287L35.3075 75.9062H35.2587V79.7467H34.0532V73.8683ZM41.4492 79.7467V73.8683H45.4102V74.893H42.692V76.2937H45.2064V77.3184H42.692V78.722H45.4216V79.7467H41.4492Z" fill="white"/>
<path d="M33.2289 13.3603C33.2289 12.9926 32.9285 12.6945 32.5578 12.6945C32.1872 12.6945 31.8867 12.9926 31.8867 13.3603C31.8867 13.728 32.1872 14.026 32.5578 14.026C32.9285 14.026 33.2289 13.728 33.2289 13.3603Z" fill="#111111"/>
<path d="M36.8071 13.3603C36.8071 12.9926 36.5066 12.6945 36.1359 12.6945C35.7653 12.6945 35.4648 12.9926 35.4648 13.3603C35.4648 13.728 35.7653 14.026 36.1359 14.026C36.5066 14.026 36.8071 13.728 36.8071 13.3603Z" fill="#111111"/>
<path d="M38.5942 13.3603C38.5942 12.9926 38.2937 12.6945 37.9231 12.6945C37.5524 12.6945 37.252 12.9926 37.252 13.3603C37.252 13.728 37.5524 14.026 37.9231 14.026C38.2937 14.026 38.5942 13.728 38.5942 13.3603Z" fill="#111111"/>
<path d="M43.9614 13.3603C43.9614 12.9926 43.6609 12.6945 43.2902 12.6945C42.9196 12.6945 42.6191 12.9926 42.6191 13.3603C42.6191 13.728 42.9196 14.026 43.2902 14.026C43.6609 14.026 43.9614 13.728 43.9614 13.3603Z" fill="#111111"/>
<path d="M45.7524 13.3603C45.7524 12.9926 45.4519 12.6945 45.0813 12.6945C44.7106 12.6945 44.4102 12.9926 44.4102 13.3603C44.4102 13.728 44.7106 14.026 45.0813 14.026C45.4519 14.026 45.7524 13.728 45.7524 13.3603Z" fill="#111111"/>
<path d="M36.8071 15.1345C36.8071 14.7668 36.5066 14.4687 36.1359 14.4687C35.7653 14.4687 35.4648 14.7668 35.4648 15.1345C35.4648 15.5022 35.7653 15.8003 36.1359 15.8003C36.5066 15.8003 36.8071 15.5022 36.8071 15.1345Z" fill="#111111"/>
<path d="M38.5942 15.1345C38.5942 14.7668 38.2937 14.4687 37.9231 14.4687C37.5524 14.4687 37.252 14.7668 37.252 15.1345C37.252 15.5022 37.5524 15.8003 37.9231 15.8003C38.2937 15.8003 38.5942 15.5022 38.5942 15.1345Z" fill="#111111"/>
<path d="M42.1742 15.1345C42.1742 14.7668 41.8738 14.4687 41.5031 14.4687C41.1325 14.4687 40.832 14.7668 40.832 15.1345C40.832 15.5022 41.1325 15.8003 41.5031 15.8003C41.8738 15.8003 42.1742 15.5022 42.1742 15.1345Z" fill="#111111"/>
<path d="M45.7524 15.1345C45.7524 14.7668 45.4519 14.4687 45.0813 14.4687C44.7106 14.4687 44.4102 14.7668 44.4102 15.1345C44.4102 15.5022 44.7106 15.8003 45.0813 15.8003C45.4519 15.8003 45.7524 15.5022 45.7524 15.1345Z" fill="#111111"/>
<path d="M47.5375 15.1345C47.5375 14.7668 47.2371 14.4687 46.8664 14.4687C46.4958 14.4687 46.1953 14.7668 46.1953 15.1345C46.1953 15.5022 46.4958 15.8003 46.8664 15.8003C47.2371 15.8003 47.5375 15.5022 47.5375 15.1345Z" fill="#111111"/>
<path d="M33.2289 16.9091C33.2289 16.5414 32.9285 16.2434 32.5578 16.2434C32.1872 16.2434 31.8867 16.5414 31.8867 16.9091C31.8867 17.2768 32.1872 17.5749 32.5578 17.5749C32.9285 17.5749 33.2289 17.2768 33.2289 16.9091Z" fill="#111111"/>
<path d="M40.3852 16.9091C40.3852 16.5414 40.0847 16.2434 39.7141 16.2434C39.3434 16.2434 39.043 16.5414 39.043 16.9091C39.043 17.2768 39.3434 17.5749 39.7141 17.5749C40.0847 17.5749 40.3852 17.2768 40.3852 16.9091Z" fill="#111111"/>
<path d="M43.9614 16.9091C43.9614 16.5414 43.6609 16.2434 43.2902 16.2434C42.9196 16.2434 42.6191 16.5414 42.6191 16.9091C42.6191 17.2768 42.9196 17.5749 43.2902 17.5749C43.6609 17.5749 43.9614 17.2768 43.9614 16.9091Z" fill="#111111"/>
<path d="M45.7524 16.9091C45.7524 16.5414 45.4519 16.2434 45.0813 16.2434C44.7106 16.2434 44.4102 16.5414 44.4102 16.9091C44.4102 17.2768 44.7106 17.5749 45.0813 17.5749C45.4519 17.5749 45.7524 17.2768 45.7524 16.9091Z" fill="#111111"/>
<path d="M33.2289 18.6834C33.2289 18.3157 32.9285 18.0176 32.5578 18.0176C32.1872 18.0176 31.8867 18.3157 31.8867 18.6834C31.8867 19.0511 32.1872 19.3492 32.5578 19.3492C32.9285 19.3492 33.2289 19.0511 33.2289 18.6834Z" fill="#111111"/>
<path d="M38.5942 18.6834C38.5942 18.3157 38.2937 18.0176 37.9231 18.0176C37.5524 18.0176 37.252 18.3157 37.252 18.6834C37.252 19.0511 37.5524 19.3492 37.9231 19.3492C38.2937 19.3492 38.5942 19.0511 38.5942 18.6834Z" fill="#111111"/>
<path d="M43.9614 18.6834C43.9614 18.3157 43.6609 18.0176 43.2902 18.0176C42.9196 18.0176 42.6191 18.3157 42.6191 18.6834C42.6191 19.0511 42.9196 19.3492 43.2902 19.3492C43.6609 19.3492 43.9614 19.0511 43.9614 18.6834Z" fill="#111111"/>
<path d="M35.018 20.458C35.018 20.0903 34.7175 19.7923 34.3469 19.7923C33.9762 19.7923 33.6758 20.0903 33.6758 20.458C33.6758 20.8257 33.9762 21.1238 34.3469 21.1238C34.7175 21.1238 35.018 20.8257 35.018 20.458Z" fill="#111111"/>
<path d="M40.3852 20.458C40.3852 20.0903 40.0847 19.7923 39.7141 19.7923C39.3434 19.7923 39.043 20.0903 39.043 20.458C39.043 20.8257 39.3434 21.1238 39.7141 21.1238C40.0847 21.1238 40.3852 20.8257 40.3852 20.458Z" fill="#111111"/>
<path d="M43.9614 20.458C43.9614 20.0903 43.6609 19.7923 43.2902 19.7923C42.9196 19.7923 42.6191 20.0903 42.6191 20.458C42.6191 20.8257 42.9196 21.1238 43.2902 21.1238C43.6609 21.1238 43.9614 20.8257 43.9614 20.458Z" fill="#111111"/>
<path d="M45.7524 20.458C45.7524 20.0903 45.4519 19.7923 45.0813 19.7923C44.7106 19.7923 44.4102 20.0903 44.4102 20.458C44.4102 20.8257 44.7106 21.1238 45.0813 21.1238C45.4519 21.1238 45.7524 20.8257 45.7524 20.458Z" fill="#111111"/>
<path d="M33.2289 22.2323C33.2289 21.8646 32.9285 21.5665 32.5578 21.5665C32.1872 21.5665 31.8867 21.8646 31.8867 22.2323C31.8867 22.6 32.1872 22.8981 32.5578 22.8981C32.9285 22.8981 33.2289 22.6 33.2289 22.2323Z" fill="#111111"/>
<path d="M35.018 22.2323C35.018 21.8646 34.7175 21.5665 34.3469 21.5665C33.9762 21.5665 33.6758 21.8646 33.6758 22.2323C33.6758 22.6 33.9762 22.8981 34.3469 22.8981C34.7175 22.8981 35.018 22.6 35.018 22.2323Z" fill="#111111"/>
<path d="M38.5942 22.2323C38.5942 21.8646 38.2937 21.5665 37.9231 21.5665C37.5524 21.5665 37.252 21.8646 37.252 22.2323C37.252 22.6 37.5524 22.8981 37.9231 22.8981C38.2937 22.8981 38.5942 22.6 38.5942 22.2323Z" fill="#111111"/>
<path d="M45.7524 22.2323C45.7524 21.8646 45.4519 21.5665 45.0813 21.5665C44.7106 21.5665 44.4102 21.8646 44.4102 22.2323C44.4102 22.6 44.7106 22.8981 45.0813 22.8981C45.4519 22.8981 45.7524 22.6 45.7524 22.2323Z" fill="#111111"/>
<path d="M47.5375 22.2323C47.5375 21.8646 47.2371 21.5665 46.8664 21.5665C46.4958 21.5665 46.1953 21.8646 46.1953 22.2323C46.1953 22.6 46.4958 22.8981 46.8664 22.8981C47.2371 22.8981 47.5375 22.6 47.5375 22.2323Z" fill="#111111"/>
<path d="M33.2289 24.0069C33.2289 23.6392 32.9285 23.3411 32.5578 23.3411C32.1872 23.3411 31.8867 23.6392 31.8867 24.0069C31.8867 24.3746 32.1872 24.6727 32.5578 24.6727C32.9285 24.6727 33.2289 24.3746 33.2289 24.0069Z" fill="#111111"/>
<path d="M36.8071 24.0069C36.8071 23.6392 36.5066 23.3411 36.1359 23.3411C35.7653 23.3411 35.4648 23.6392 35.4648 24.0069C35.4648 24.3746 35.7653 24.6727 36.1359 24.6727C36.5066 24.6727 36.8071 24.3746 36.8071 24.0069Z" fill="#111111"/>
<path d="M40.3852 24.0069C40.3852 23.6392 40.0847 23.3411 39.7141 23.3411C39.3434 23.3411 39.043 23.6392 39.043 24.0069C39.043 24.3746 39.3434 24.6727 39.7141 24.6727C40.0847 24.6727 40.3852 24.3746 40.3852 24.0069Z" fill="#111111"/>
<path d="M43.9614 24.0069C43.9614 23.6392 43.6609 23.3411 43.2902 23.3411C42.9196 23.3411 42.6191 23.6392 42.6191 24.0069C42.6191 24.3746 42.9196 24.6727 43.2902 24.6727C43.6609 24.6727 43.9614 24.3746 43.9614 24.0069Z" fill="#111111"/>
<path d="M47.5375 24.0069C47.5375 23.6392 47.2371 23.3411 46.8664 23.3411C46.4958 23.3411 46.1953 23.6392 46.1953 24.0069C46.1953 24.3746 46.4958 24.6727 46.8664 24.6727C47.2371 24.6727 47.5375 24.3746 47.5375 24.0069Z" fill="#111111"/>
<path d="M33.2289 25.7812C33.2289 25.4135 32.9285 25.1154 32.5578 25.1154C32.1872 25.1154 31.8867 25.4135 31.8867 25.7812C31.8867 26.1489 32.1872 26.4469 32.5578 26.4469C32.9285 26.4469 33.2289 26.1489 33.2289 25.7812Z" fill="#111111"/>
<path d="M36.8071 25.7812C36.8071 25.4135 36.5066 25.1154 36.1359 25.1154C35.7653 25.1154 35.4648 25.4135 35.4648 25.7812C35.4648 26.1489 35.7653 26.4469 36.1359 26.4469C36.5066 26.4469 36.8071 26.1489 36.8071 25.7812Z" fill="#111111"/>
<path d="M38.5942 25.7812C38.5942 25.4135 38.2937 25.1154 37.9231 25.1154C37.5524 25.1154 37.252 25.4135 37.252 25.7812C37.252 26.1489 37.5524 26.4469 37.9231 26.4469C38.2937 26.4469 38.5942 26.1489 38.5942 25.7812Z" fill="#111111"/>
<path d="M43.9614 25.7812C43.9614 25.4135 43.6609 25.1154 43.2902 25.1154C42.9196 25.1154 42.6191 25.4135 42.6191 25.7812C42.6191 26.1489 42.9196 26.4469 43.2902 26.4469C43.6609 26.4469 43.9614 26.1489 43.9614 25.7812Z" fill="#111111"/>
<path d="M47.5375 25.7812C47.5375 25.4135 47.2371 25.1154 46.8664 25.1154C46.4958 25.1154 46.1953 25.4135 46.1953 25.7812C46.1953 26.1489 46.4958 26.4469 46.8664 26.4469C47.2371 26.4469 47.5375 26.1489 47.5375 25.7812Z" fill="#111111"/>
<path d="M20.7074 27.5556C20.7074 27.1879 20.407 26.8898 20.0363 26.8898C19.6657 26.8898 19.3652 27.1879 19.3652 27.5556C19.3652 27.9233 19.6657 28.2214 20.0363 28.2214C20.407 28.2214 20.7074 27.9233 20.7074 27.5556Z" fill="#111111"/>
<path d="M24.2856 27.5556C24.2856 27.1879 23.9851 26.8898 23.6145 26.8898C23.2438 26.8898 22.9434 27.1879 22.9434 27.5556C22.9434 27.9233 23.2438 28.2214 23.6145 28.2214C23.9851 28.2214 24.2856 27.9233 24.2856 27.5556Z" fill="#111111"/>
<path d="M27.8637 27.5556C27.8637 27.1879 27.5632 26.8898 27.1926 26.8898C26.8219 26.8898 26.5215 27.1879 26.5215 27.5556C26.5215 27.9233 26.8219 28.2214 27.1926 28.2214C27.5632 28.2214 27.8637 27.9233 27.8637 27.5556Z" fill="#111111"/>
<path d="M29.6528 27.5556C29.6528 27.1879 29.3523 26.8898 28.9817 26.8898C28.611 26.8898 28.3105 27.1879 28.3105 27.5556C28.3105 27.9233 28.611 28.2214 28.9817 28.2214C29.3523 28.2214 29.6528 27.9233 29.6528 27.5556Z" fill="#111111"/>
<path d="M31.4399 27.5556C31.4399 27.1879 31.1394 26.8898 30.7688 26.8898C30.3981 26.8898 30.0977 27.1879 30.0977 27.5556C30.0977 27.9233 30.3981 28.2214 30.7688 28.2214C31.1394 28.2214 31.4399 27.9233 31.4399 27.5556Z" fill="#111111"/>
<path d="M33.2289 27.5556C33.2289 27.1879 32.9285 26.8898 32.5578 26.8898C32.1872 26.8898 31.8867 27.1879 31.8867 27.5556C31.8867 27.9233 32.1872 28.2214 32.5578 28.2214C32.9285 28.2214 33.2289 27.9233 33.2289 27.5556Z" fill="#111111"/>
<path d="M36.8071 27.5556C36.8071 27.1879 36.5066 26.8898 36.1359 26.8898C35.7653 26.8898 35.4648 27.1879 35.4648 27.5556C35.4648 27.9233 35.7653 28.2214 36.1359 28.2214C36.5066 28.2214 36.8071 27.9233 36.8071 27.5556Z" fill="#111111"/>
<path d="M38.5942 27.5556C38.5942 27.1879 38.2937 26.8898 37.9231 26.8898C37.5524 26.8898 37.252 27.1879 37.252 27.5556C37.252 27.9233 37.5524 28.2214 37.9231 28.2214C38.2937 28.2214 38.5942 27.9233 38.5942 27.5556Z" fill="#111111"/>
<path d="M40.3852 27.5556C40.3852 27.1879 40.0847 26.8898 39.7141 26.8898C39.3434 26.8898 39.043 27.1879 39.043 27.5556C39.043 27.9233 39.3434 28.2214 39.7141 28.2214C40.0847 28.2214 40.3852 27.9233 40.3852 27.5556Z" fill="#111111"/>
<path d="M42.1742 27.5556C42.1742 27.1879 41.8738 26.8898 41.5031 26.8898C41.1325 26.8898 40.832 27.1879 40.832 27.5556C40.832 27.9233 41.1325 28.2214 41.5031 28.2214C41.8738 28.2214 42.1742 27.9233 42.1742 27.5556Z" fill="#111111"/>
<path d="M43.9614 27.5556C43.9614 27.1879 43.6609 26.8898 43.2902 26.8898C42.9196 26.8898 42.6191 27.1879 42.6191 27.5556C42.6191 27.9233 42.9196 28.2214 43.2902 28.2214C43.6609 28.2214 43.9614 27.9233 43.9614 27.5556Z" fill="#111111"/>
<path d="M47.5375 27.5556C47.5375 27.1879 47.2371 26.8898 46.8664 26.8898C46.4958 26.8898 46.1953 27.1879 46.1953 27.5556C46.1953 27.9233 46.4958 28.2214 46.8664 28.2214C47.2371 28.2214 47.5375 27.9233 47.5375 27.5556Z" fill="#111111"/>
<path d="M49.3285 27.5556C49.3285 27.1879 49.0281 26.8898 48.6574 26.8898C48.2868 26.8898 47.9863 27.1879 47.9863 27.5556C47.9863 27.9233 48.2868 28.2214 48.6574 28.2214C49.0281 28.2214 49.3285 27.9233 49.3285 27.5556Z" fill="#111111"/>
<path d="M51.1156 27.5556C51.1156 27.1879 50.8152 26.8898 50.4445 26.8898C50.0739 26.8898 49.7734 27.1879 49.7734 27.5556C49.7734 27.9233 50.0739 28.2214 50.4445 28.2214C50.8152 28.2214 51.1156 27.9233 51.1156 27.5556Z" fill="#111111"/>
<path d="M52.9028 27.5556C52.9028 27.1879 52.6023 26.8898 52.2316 26.8898C51.861 26.8898 51.5605 27.1879 51.5605 27.5556C51.5605 27.9233 51.861 28.2214 52.2316 28.2214C52.6023 28.2214 52.9028 27.9233 52.9028 27.5556Z" fill="#111111"/>
<path d="M56.4848 27.5556C56.4848 27.1879 56.1843 26.8898 55.8137 26.8898C55.443 26.8898 55.1426 27.1879 55.1426 27.5556C55.1426 27.9233 55.443 28.2214 55.8137 28.2214C56.1843 28.2214 56.4848 27.9233 56.4848 27.5556Z" fill="#111111"/>
<path d="M58.2699 27.5556C58.2699 27.1879 57.9695 26.8898 57.5988 26.8898C57.2282 26.8898 56.9277 27.1879 56.9277 27.5556C56.9277 27.9233 57.2282 28.2214 57.5988 28.2214C57.9695 28.2214 58.2699 27.9233 58.2699 27.5556Z" fill="#111111"/>
<path d="M61.85 27.5556C61.85 27.1879 61.5496 26.8898 61.1789 26.8898C60.8083 26.8898 60.5078 27.1879 60.5078 27.5556C60.5078 27.9233 60.8083 28.2214 61.1789 28.2214C61.5496 28.2214 61.85 27.9233 61.85 27.5556Z" fill="#111111"/>
<path d="M18.9203 29.3301C18.9203 28.9624 18.6199 28.6643 18.2492 28.6643C17.8786 28.6643 17.5781 28.9624 17.5781 29.3301C17.5781 29.6978 17.8786 29.9958 18.2492 29.9958C18.6199 29.9958 18.9203 29.6978 18.9203 29.3301Z" fill="#111111"/>
<path d="M20.7074 29.3301C20.7074 28.9624 20.407 28.6643 20.0363 28.6643C19.6657 28.6643 19.3652 28.9624 19.3652 29.3301C19.3652 29.6978 19.6657 29.9958 20.0363 29.9958C20.407 29.9958 20.7074 29.6978 20.7074 29.3301Z" fill="#111111"/>
<path d="M22.4985 29.3301C22.4985 28.9624 22.198 28.6643 21.8274 28.6643C21.4567 28.6643 21.1562 28.9624 21.1562 29.3301C21.1562 29.6978 21.4567 29.9958 21.8274 29.9958C22.198 29.9958 22.4985 29.6978 22.4985 29.3301Z" fill="#111111"/>
<path d="M24.2856 29.3301C24.2856 28.9624 23.9851 28.6643 23.6145 28.6643C23.2438 28.6643 22.9434 28.9624 22.9434 29.3301C22.9434 29.6978 23.2438 29.9958 23.6145 29.9958C23.9851 29.9958 24.2856 29.6978 24.2856 29.3301Z" fill="#111111"/>
<path d="M35.018 29.3301C35.018 28.9624 34.7175 28.6643 34.3469 28.6643C33.9762 28.6643 33.6758 28.9624 33.6758 29.3301C33.6758 29.6978 33.9762 29.9958 34.3469 29.9958C34.7175 29.9958 35.018 29.6978 35.018 29.3301Z" fill="#111111"/>
<path d="M40.3852 29.3301C40.3852 28.9624 40.0847 28.6643 39.7141 28.6643C39.3434 28.6643 39.043 28.9624 39.043 29.3301C39.043 29.6978 39.3434 29.9958 39.7141 29.9958C40.0847 29.9958 40.3852 29.6978 40.3852 29.3301Z" fill="#111111"/>
<path d="M47.5375 29.3301C47.5375 28.9624 47.2371 28.6643 46.8664 28.6643C46.4958 28.6643 46.1953 28.9624 46.1953 29.3301C46.1953 29.6978 46.4958 29.9958 46.8664 29.9958C47.2371 29.9958 47.5375 29.6978 47.5375 29.3301Z" fill="#111111"/>
<path d="M49.3285 29.3301C49.3285 28.9624 49.0281 28.6643 48.6574 28.6643C48.2868 28.6643 47.9863 28.9624 47.9863 29.3301C47.9863 29.6978 48.2868 29.9958 48.6574 29.9958C49.0281 29.9958 49.3285 29.6978 49.3285 29.3301Z" fill="#111111"/>
<path d="M51.1156 29.3301C51.1156 28.9624 50.8152 28.6643 50.4445 28.6643C50.0739 28.6643 49.7734 28.9624 49.7734 29.3301C49.7734 29.6978 50.0739 29.9958 50.4445 29.9958C50.8152 29.9958 51.1156 29.6978 51.1156 29.3301Z" fill="#111111"/>
<path d="M61.85 29.3301C61.85 28.9624 61.5496 28.6643 61.1789 28.6643C60.8083 28.6643 60.5078 28.9624 60.5078 29.3301C60.5078 29.6978 60.8083 29.9958 61.1789 29.9958C61.5496 29.9958 61.85 29.6978 61.85 29.3301Z" fill="#111111"/>
<path d="M18.9203 31.1049C18.9203 30.7372 18.6199 30.4391 18.2492 30.4391C17.8786 30.4391 17.5781 30.7372 17.5781 31.1049C17.5781 31.4726 17.8786 31.7707 18.2492 31.7707C18.6199 31.7707 18.9203 31.4726 18.9203 31.1049Z" fill="#111111"/>
<path d="M20.7074 31.1049C20.7074 30.7372 20.407 30.4391 20.0363 30.4391C19.6657 30.4391 19.3652 30.7372 19.3652 31.1049C19.3652 31.4726 19.6657 31.7707 20.0363 31.7707C20.407 31.7707 20.7074 31.4726 20.7074 31.1049Z" fill="#111111"/>
<path d="M24.2856 31.1049C24.2856 30.7372 23.9851 30.4391 23.6145 30.4391C23.2438 30.4391 22.9434 30.7372 22.9434 31.1049C22.9434 31.4726 23.2438 31.7707 23.6145 31.7707C23.9851 31.7707 24.2856 31.4726 24.2856 31.1049Z" fill="#111111"/>
<path d="M26.0766 31.1049C26.0766 30.7372 25.7761 30.4391 25.4055 30.4391C25.0348 30.4391 24.7344 30.7372 24.7344 31.1049C24.7344 31.4726 25.0348 31.7707 25.4055 31.7707C25.7761 31.7707 26.0766 31.4726 26.0766 31.1049Z" fill="#111111"/>
<path d="M27.8637 31.1049C27.8637 30.7372 27.5632 30.4391 27.1926 30.4391C26.8219 30.4391 26.5215 30.7372 26.5215 31.1049C26.5215 31.4726 26.8219 31.7707 27.1926 31.7707C27.5632 31.7707 27.8637 31.4726 27.8637 31.1049Z" fill="#111111"/>
<path d="M29.6528 31.1049C29.6528 30.7372 29.3523 30.4391 28.9817 30.4391C28.611 30.4391 28.3105 30.7372 28.3105 31.1049C28.3105 31.4726 28.611 31.7707 28.9817 31.7707C29.3523 31.7707 29.6528 31.4726 29.6528 31.1049Z" fill="#111111"/>
<path d="M33.2289 31.1049C33.2289 30.7372 32.9285 30.4391 32.5578 30.4391C32.1872 30.4391 31.8867 30.7372 31.8867 31.1049C31.8867 31.4726 32.1872 31.7707 32.5578 31.7707C32.9285 31.7707 33.2289 31.4726 33.2289 31.1049Z" fill="#111111"/>
<path d="M35.018 31.1049C35.018 30.7372 34.7175 30.4391 34.3469 30.4391C33.9762 30.4391 33.6758 30.7372 33.6758 31.1049C33.6758 31.4726 33.9762 31.7707 34.3469 31.7707C34.7175 31.7707 35.018 31.4726 35.018 31.1049Z" fill="#111111"/>
<path d="M42.1742 31.1049C42.1742 30.7372 41.8738 30.4391 41.5031 30.4391C41.1325 30.4391 40.832 30.7372 40.832 31.1049C40.832 31.4726 41.1325 31.7707 41.5031 31.7707C41.8738 31.7707 42.1742 31.4726 42.1742 31.1049Z" fill="#111111"/>
<path d="M47.5375 31.1049C47.5375 30.7372 47.2371 30.4391 46.8664 30.4391C46.4958 30.4391 46.1953 30.7372 46.1953 31.1049C46.1953 31.4726 46.4958 31.7707 46.8664 31.7707C47.2371 31.7707 47.5375 31.4726 47.5375 31.1049Z" fill="#111111"/>
<path d="M49.3285 31.1049C49.3285 30.7372 49.0281 30.4391 48.6574 30.4391C48.2868 30.4391 47.9863 30.7372 47.9863 31.1049C47.9863 31.4726 48.2868 31.7707 48.6574 31.7707C49.0281 31.7707 49.3285 31.4726 49.3285 31.1049Z" fill="#111111"/>
<path d="M51.1156 31.1049C51.1156 30.7372 50.8152 30.4391 50.4445 30.4391C50.0739 30.4391 49.7734 30.7372 49.7734 31.1049C49.7734 31.4726 50.0739 31.7707 50.4445 31.7707C50.8152 31.7707 51.1156 31.4726 51.1156 31.1049Z" fill="#111111"/>
<path d="M52.9028 31.1049C52.9028 30.7372 52.6023 30.4391 52.2316 30.4391C51.861 30.4391 51.5605 30.7372 51.5605 31.1049C51.5605 31.4726 51.861 31.7707 52.2316 31.7707C52.6023 31.7707 52.9028 31.4726 52.9028 31.1049Z" fill="#111111"/>
<path d="M60.061 31.1049C60.061 30.7372 59.7605 30.4391 59.3899 30.4391C59.0192 30.4391 58.7188 30.7372 58.7188 31.1049C58.7188 31.4726 59.0192 31.7707 59.3899 31.7707C59.7605 31.7707 60.061 31.4726 60.061 31.1049Z" fill="#111111"/>
<path d="M61.85 31.1049C61.85 30.7372 61.5496 30.4391 61.1789 30.4391C60.8083 30.4391 60.5078 30.7372 60.5078 31.1049C60.5078 31.4726 60.8083 31.7707 61.1789 31.7707C61.5496 31.7707 61.85 31.4726 61.85 31.1049Z" fill="#111111"/>
<path d="M22.4985 32.8791C22.4985 32.5114 22.198 32.2134 21.8274 32.2134C21.4567 32.2134 21.1562 32.5114 21.1562 32.8791C21.1562 33.2468 21.4567 33.5449 21.8274 33.5449C22.198 33.5449 22.4985 33.2468 22.4985 32.8791Z" fill="#111111"/>
<path d="M24.2856 32.8791C24.2856 32.5114 23.9851 32.2134 23.6145 32.2134C23.2438 32.2134 22.9434 32.5114 22.9434 32.8791C22.9434 33.2468 23.2438 33.5449 23.6145 33.5449C23.9851 33.5449 24.2856 33.2468 24.2856 32.8791Z" fill="#111111"/>
<path d="M26.0766 32.8791C26.0766 32.5114 25.7761 32.2134 25.4055 32.2134C25.0348 32.2134 24.7344 32.5114 24.7344 32.8791C24.7344 33.2468 25.0348 33.5449 25.4055 33.5449C25.7761 33.5449 26.0766 33.2468 26.0766 32.8791Z" fill="#111111"/>
<path d="M27.8637 32.8791C27.8637 32.5114 27.5632 32.2134 27.1926 32.2134C26.8219 32.2134 26.5215 32.5114 26.5215 32.8791C26.5215 33.2468 26.8219 33.5449 27.1926 33.5449C27.5632 33.5449 27.8637 33.2468 27.8637 32.8791Z" fill="#111111"/>
<path d="M33.2289 32.8791C33.2289 32.5114 32.9285 32.2134 32.5578 32.2134C32.1872 32.2134 31.8867 32.5114 31.8867 32.8791C31.8867 33.2468 32.1872 33.5449 32.5578 33.5449C32.9285 33.5449 33.2289 33.2468 33.2289 32.8791Z" fill="#111111"/>
<path d="M38.5942 32.8791C38.5942 32.5114 38.2937 32.2134 37.9231 32.2134C37.5524 32.2134 37.252 32.5114 37.252 32.8791C37.252 33.2468 37.5524 33.5449 37.9231 33.5449C38.2937 33.5449 38.5942 33.2468 38.5942 32.8791Z" fill="#111111"/>
<path d="M42.1742 32.8791C42.1742 32.5114 41.8738 32.2134 41.5031 32.2134C41.1325 32.2134 40.832 32.5114 40.832 32.8791C40.832 33.2468 41.1325 33.5449 41.5031 33.5449C41.8738 33.5449 42.1742 33.2468 42.1742 32.8791Z" fill="#111111"/>
<path d="M45.7524 32.8791C45.7524 32.5114 45.4519 32.2134 45.0813 32.2134C44.7106 32.2134 44.4102 32.5114 44.4102 32.8791C44.4102 33.2468 44.7106 33.5449 45.0813 33.5449C45.4519 33.5449 45.7524 33.2468 45.7524 32.8791Z" fill="#111111"/>
<path d="M52.9028 32.8791C52.9028 32.5114 52.6023 32.2134 52.2316 32.2134C51.861 32.2134 51.5605 32.5114 51.5605 32.8791C51.5605 33.2468 51.861 33.5449 52.2316 33.5449C52.6023 33.5449 52.9028 33.2468 52.9028 32.8791Z" fill="#111111"/>
<path d="M54.6938 32.8791C54.6938 32.5114 54.3933 32.2134 54.0227 32.2134C53.652 32.2134 53.3516 32.5114 53.3516 32.8791C53.3516 33.2468 53.652 33.5449 54.0227 33.5449C54.3933 33.5449 54.6938 33.2468 54.6938 32.8791Z" fill="#111111"/>
<path d="M18.9203 34.6542C18.9203 34.2865 18.6199 33.9884 18.2492 33.9884C17.8786 33.9884 17.5781 34.2865 17.5781 34.6542C17.5781 35.0219 17.8786 35.3199 18.2492 35.3199C18.6199 35.3199 18.9203 35.0219 18.9203 34.6542Z" fill="#111111"/>
<path d="M26.0766 34.6542C26.0766 34.2865 25.7761 33.9884 25.4055 33.9884C25.0348 33.9884 24.7344 34.2865 24.7344 34.6542C24.7344 35.0219 25.0348 35.3199 25.4055 35.3199C25.7761 35.3199 26.0766 35.0219 26.0766 34.6542Z" fill="#111111"/>
<path d="M29.6528 34.6542C29.6528 34.2865 29.3523 33.9884 28.9817 33.9884C28.611 33.9884 28.3105 34.2865 28.3105 34.6542C28.3105 35.0219 28.611 35.3199 28.9817 35.3199C29.3523 35.3199 29.6528 35.0219 29.6528 34.6542Z" fill="#111111"/>
<path d="M31.4399 34.6542C31.4399 34.2865 31.1394 33.9884 30.7688 33.9884C30.3981 33.9884 30.0977 34.2865 30.0977 34.6542C30.0977 35.0219 30.3981 35.3199 30.7688 35.3199C31.1394 35.3199 31.4399 35.0219 31.4399 34.6542Z" fill="#111111"/>
<path d="M33.2289 34.6542C33.2289 34.2865 32.9285 33.9884 32.5578 33.9884C32.1872 33.9884 31.8867 34.2865 31.8867 34.6542C31.8867 35.0219 32.1872 35.3199 32.5578 35.3199C32.9285 35.3199 33.2289 35.0219 33.2289 34.6542Z" fill="#111111"/>
<path d="M36.8071 34.6542C36.8071 34.2865 36.5066 33.9884 36.1359 33.9884C35.7653 33.9884 35.4648 34.2865 35.4648 34.6542C35.4648 35.0219 35.7653 35.3199 36.1359 35.3199C36.5066 35.3199 36.8071 35.0219 36.8071 34.6542Z" fill="#111111"/>
<path d="M38.5942 34.6542C38.5942 34.2865 38.2937 33.9884 37.9231 33.9884C37.5524 33.9884 37.252 34.2865 37.252 34.6542C37.252 35.0219 37.5524 35.3199 37.9231 35.3199C38.2937 35.3199 38.5942 35.0219 38.5942 34.6542Z" fill="#111111"/>
<path d="M40.3852 34.6542C40.3852 34.2865 40.0847 33.9884 39.7141 33.9884C39.3434 33.9884 39.043 34.2865 39.043 34.6542C39.043 35.0219 39.3434 35.3199 39.7141 35.3199C40.0847 35.3199 40.3852 35.0219 40.3852 34.6542Z" fill="#111111"/>
<path d="M43.9614 34.6542C43.9614 34.2865 43.6609 33.9884 43.2902 33.9884C42.9196 33.9884 42.6191 34.2865 42.6191 34.6542C42.6191 35.0219 42.9196 35.3199 43.2902 35.3199C43.6609 35.3199 43.9614 35.0219 43.9614 34.6542Z" fill="#111111"/>
<path d="M45.7524 34.6542C45.7524 34.2865 45.4519 33.9884 45.0813 33.9884C44.7106 33.9884 44.4102 34.2865 44.4102 34.6542C44.4102 35.0219 44.7106 35.3199 45.0813 35.3199C45.4519 35.3199 45.7524 35.0219 45.7524 34.6542Z" fill="#111111"/>
<path d="M47.5375 34.6542C47.5375 34.2865 47.2371 33.9884 46.8664 33.9884C46.4958 33.9884 46.1953 34.2865 46.1953 34.6542C46.1953 35.0219 46.4958 35.3199 46.8664 35.3199C47.2371 35.3199 47.5375 35.0219 47.5375 34.6542Z" fill="#111111"/>
<path d="M49.3285 34.6542C49.3285 34.2865 49.0281 33.9884 48.6574 33.9884C48.2868 33.9884 47.9863 34.2865 47.9863 34.6542C47.9863 35.0219 48.2868 35.3199 48.6574 35.3199C49.0281 35.3199 49.3285 35.0219 49.3285 34.6542Z" fill="#111111"/>
<path d="M51.1156 34.6542C51.1156 34.2865 50.8152 33.9884 50.4445 33.9884C50.0739 33.9884 49.7734 34.2865 49.7734 34.6542C49.7734 35.0219 50.0739 35.3199 50.4445 35.3199C50.8152 35.3199 51.1156 35.0219 51.1156 34.6542Z" fill="#111111"/>
<path d="M52.9028 34.6542C52.9028 34.2865 52.6023 33.9884 52.2316 33.9884C51.861 33.9884 51.5605 34.2865 51.5605 34.6542C51.5605 35.0219 51.861 35.3199 52.2316 35.3199C52.6023 35.3199 52.9028 35.0219 52.9028 34.6542Z" fill="#111111"/>
<path d="M56.4848 34.6542C56.4848 34.2865 56.1843 33.9884 55.8137 33.9884C55.443 33.9884 55.1426 34.2865 55.1426 34.6542C55.1426 35.0219 55.443 35.3199 55.8137 35.3199C56.1843 35.3199 56.4848 35.0219 56.4848 34.6542Z" fill="#111111"/>
<path d="M60.061 34.6542C60.061 34.2865 59.7605 33.9884 59.3899 33.9884C59.0192 33.9884 58.7188 34.2865 58.7188 34.6542C58.7188 35.0219 59.0192 35.3199 59.3899 35.3199C59.7605 35.3199 60.061 35.0219 60.061 34.6542Z" fill="#111111"/>
<path d="M61.85 34.6542C61.85 34.2865 61.5496 33.9884 61.1789 33.9884C60.8083 33.9884 60.5078 34.2865 60.5078 34.6542C60.5078 35.0219 60.8083 35.3199 61.1789 35.3199C61.5496 35.3199 61.85 35.0219 61.85 34.6542Z" fill="#111111"/>
<path d="M20.7074 36.428C20.7074 36.0603 20.407 35.7622 20.0363 35.7622C19.6657 35.7622 19.3652 36.0603 19.3652 36.428C19.3652 36.7957 19.6657 37.0938 20.0363 37.0938C20.407 37.0938 20.7074 36.7957 20.7074 36.428Z" fill="#111111"/>
<path d="M24.2856 36.428C24.2856 36.0603 23.9851 35.7622 23.6145 35.7622C23.2438 35.7622 22.9434 36.0603 22.9434 36.428C22.9434 36.7957 23.2438 37.0938 23.6145 37.0938C23.9851 37.0938 24.2856 36.7957 24.2856 36.428Z" fill="#111111"/>
<path d="M26.0766 36.428C26.0766 36.0603 25.7761 35.7622 25.4055 35.7622C25.0348 35.7622 24.7344 36.0603 24.7344 36.428C24.7344 36.7957 25.0348 37.0938 25.4055 37.0938C25.7761 37.0938 26.0766 36.7957 26.0766 36.428Z" fill="#111111"/>
<path d="M27.8637 36.428C27.8637 36.0603 27.5632 35.7622 27.1926 35.7622C26.8219 35.7622 26.5215 36.0603 26.5215 36.428C26.5215 36.7957 26.8219 37.0938 27.1926 37.0938C27.5632 37.0938 27.8637 36.7957 27.8637 36.428Z" fill="#111111"/>
<path d="M35.018 36.428C35.018 36.0603 34.7175 35.7622 34.3469 35.7622C33.9762 35.7622 33.6758 36.0603 33.6758 36.428C33.6758 36.7957 33.9762 37.0938 34.3469 37.0938C34.7175 37.0938 35.018 36.7957 35.018 36.428Z" fill="#111111"/>
<path d="M36.8071 36.428C36.8071 36.0603 36.5066 35.7622 36.1359 35.7622C35.7653 35.7622 35.4648 36.0603 35.4648 36.428C35.4648 36.7957 35.7653 37.0938 36.1359 37.0938C36.5066 37.0938 36.8071 36.7957 36.8071 36.428Z" fill="#111111"/>
<path d="M38.5942 36.428C38.5942 36.0603 38.2937 35.7622 37.9231 35.7622C37.5524 35.7622 37.252 36.0603 37.252 36.428C37.252 36.7957 37.5524 37.0938 37.9231 37.0938C38.2937 37.0938 38.5942 36.7957 38.5942 36.428Z" fill="#111111"/>
<path d="M42.1742 36.428C42.1742 36.0603 41.8738 35.7622 41.5031 35.7622C41.1325 35.7622 40.832 36.0603 40.832 36.428C40.832 36.7957 41.1325 37.0938 41.5031 37.0938C41.8738 37.0938 42.1742 36.7957 42.1742 36.428Z" fill="#111111"/>
<path d="M49.3285 36.428C49.3285 36.0603 49.0281 35.7622 48.6574 35.7622C48.2868 35.7622 47.9863 36.0603 47.9863 36.428C47.9863 36.7957 48.2868 37.0938 48.6574 37.0938C49.0281 37.0938 49.3285 36.7957 49.3285 36.428Z" fill="#111111"/>
<path d="M51.1156 36.428C51.1156 36.0603 50.8152 35.7622 50.4445 35.7622C50.0739 35.7622 49.7734 36.0603 49.7734 36.428C49.7734 36.7957 50.0739 37.0938 50.4445 37.0938C50.8152 37.0938 51.1156 36.7957 51.1156 36.428Z" fill="#111111"/>
<path d="M52.9028 36.428C52.9028 36.0603 52.6023 35.7622 52.2316 35.7622C51.861 35.7622 51.5605 36.0603 51.5605 36.428C51.5605 36.7957 51.861 37.0938 52.2316 37.0938C52.6023 37.0938 52.9028 36.7957 52.9028 36.428Z" fill="#111111"/>
<path d="M56.4848 36.428C56.4848 36.0603 56.1843 35.7622 55.8137 35.7622C55.443 35.7622 55.1426 36.0603 55.1426 36.428C55.1426 36.7957 55.443 37.0938 55.8137 37.0938C56.1843 37.0938 56.4848 36.7957 56.4848 36.428Z" fill="#111111"/>
<path d="M58.2699 36.428C58.2699 36.0603 57.9695 35.7622 57.5988 35.7622C57.2282 35.7622 56.9277 36.0603 56.9277 36.428C56.9277 36.7957 57.2282 37.0938 57.5988 37.0938C57.9695 37.0938 58.2699 36.7957 58.2699 36.428Z" fill="#111111"/>
<path d="M61.85 36.428C61.85 36.0603 61.5496 35.7622 61.1789 35.7622C60.8083 35.7622 60.5078 36.0603 60.5078 36.428C60.5078 36.7957 60.8083 37.0938 61.1789 37.0938C61.5496 37.0938 61.85 36.7957 61.85 36.428Z" fill="#111111"/>
<path d="M18.9203 38.2027C18.9203 37.835 18.6199 37.5369 18.2492 37.5369C17.8786 37.5369 17.5781 37.835 17.5781 38.2027C17.5781 38.5704 17.8786 38.8684 18.2492 38.8684C18.6199 38.8684 18.9203 38.5704 18.9203 38.2027Z" fill="#111111"/>
<path d="M24.2856 38.2027C24.2856 37.835 23.9851 37.5369 23.6145 37.5369C23.2438 37.5369 22.9434 37.835 22.9434 38.2027C22.9434 38.5704 23.2438 38.8684 23.6145 38.8684C23.9851 38.8684 24.2856 38.5704 24.2856 38.2027Z" fill="#111111"/>
<path d="M26.0766 38.2027C26.0766 37.835 25.7761 37.5369 25.4055 37.5369C25.0348 37.5369 24.7344 37.835 24.7344 38.2027C24.7344 38.5704 25.0348 38.8684 25.4055 38.8684C25.7761 38.8684 26.0766 38.5704 26.0766 38.2027Z" fill="#111111"/>
<path d="M27.8637 38.2027C27.8637 37.835 27.5632 37.5369 27.1926 37.5369C26.8219 37.5369 26.5215 37.835 26.5215 38.2027C26.5215 38.5704 26.8219 38.8684 27.1926 38.8684C27.5632 38.8684 27.8637 38.5704 27.8637 38.2027Z" fill="#111111"/>
<path d="M29.6528 38.2027C29.6528 37.835 29.3523 37.5369 28.9817 37.5369C28.611 37.5369 28.3105 37.835 28.3105 38.2027C28.3105 38.5704 28.611 38.8684 28.9817 38.8684C29.3523 38.8684 29.6528 38.5704 29.6528 38.2027Z" fill="#111111"/>
<path d="M31.4399 38.2027C31.4399 37.835 31.1394 37.5369 30.7688 37.5369C30.3981 37.5369 30.0977 37.835 30.0977 38.2027C30.0977 38.5704 30.3981 38.8684 30.7688 38.8684C31.1394 38.8684 31.4399 38.5704 31.4399 38.2027Z" fill="#111111"/>
<path d="M36.8071 38.2027C36.8071 37.835 36.5066 37.5369 36.1359 37.5369C35.7653 37.5369 35.4648 37.835 35.4648 38.2027C35.4648 38.5704 35.7653 38.8684 36.1359 38.8684C36.5066 38.8684 36.8071 38.5704 36.8071 38.2027Z" fill="#111111"/>
<path d="M38.5942 38.2027C38.5942 37.835 38.2937 37.5369 37.9231 37.5369C37.5524 37.5369 37.252 37.835 37.252 38.2027C37.252 38.5704 37.5524 38.8684 37.9231 38.8684C38.2937 38.8684 38.5942 38.5704 38.5942 38.2027Z" fill="#111111"/>
<path d="M42.1742 38.2027C42.1742 37.835 41.8738 37.5369 41.5031 37.5369C41.1325 37.5369 40.832 37.835 40.832 38.2027C40.832 38.5704 41.1325 38.8684 41.5031 38.8684C41.8738 38.8684 42.1742 38.5704 42.1742 38.2027Z" fill="#111111"/>
<path d="M43.9614 38.2027C43.9614 37.835 43.6609 37.5369 43.2902 37.5369C42.9196 37.5369 42.6191 37.835 42.6191 38.2027C42.6191 38.5704 42.9196 38.8684 43.2902 38.8684C43.6609 38.8684 43.9614 38.5704 43.9614 38.2027Z" fill="#111111"/>
<path d="M47.5375 38.2027C47.5375 37.835 47.2371 37.5369 46.8664 37.5369C46.4958 37.5369 46.1953 37.835 46.1953 38.2027C46.1953 38.5704 46.4958 38.8684 46.8664 38.8684C47.2371 38.8684 47.5375 38.5704 47.5375 38.2027Z" fill="#111111"/>
<path d="M51.1156 38.2027C51.1156 37.835 50.8152 37.5369 50.4445 37.5369C50.0739 37.5369 49.7734 37.835 49.7734 38.2027C49.7734 38.5704 50.0739 38.8684 50.4445 38.8684C50.8152 38.8684 51.1156 38.5704 51.1156 38.2027Z" fill="#111111"/>
<path d="M52.9028 38.2027C52.9028 37.835 52.6023 37.5369 52.2316 37.5369C51.861 37.5369 51.5605 37.835 51.5605 38.2027C51.5605 38.5704 51.861 38.8684 52.2316 38.8684C52.6023 38.8684 52.9028 38.5704 52.9028 38.2027Z" fill="#111111"/>
<path d="M54.6938 38.2027C54.6938 37.835 54.3933 37.5369 54.0227 37.5369C53.652 37.5369 53.3516 37.835 53.3516 38.2027C53.3516 38.5704 53.652 38.8684 54.0227 38.8684C54.3933 38.8684 54.6938 38.5704 54.6938 38.2027Z" fill="#111111"/>
<path d="M58.2699 38.2027C58.2699 37.835 57.9695 37.5369 57.5988 37.5369C57.2282 37.5369 56.9277 37.835 56.9277 38.2027C56.9277 38.5704 57.2282 38.8684 57.5988 38.8684C57.9695 38.8684 58.2699 38.5704 58.2699 38.2027Z" fill="#111111"/>
<path d="M61.85 38.2027C61.85 37.835 61.5496 37.5369 61.1789 37.5369C60.8083 37.5369 60.5078 37.835 60.5078 38.2027C60.5078 38.5704 60.8083 38.8684 61.1789 38.8684C61.5496 38.8684 61.85 38.5704 61.85 38.2027Z" fill="#111111"/>
<path d="M20.7074 39.9769C20.7074 39.6092 20.407 39.3111 20.0363 39.3111C19.6657 39.3111 19.3652 39.6092 19.3652 39.9769C19.3652 40.3446 19.6657 40.6427 20.0363 40.6427C20.407 40.6427 20.7074 40.3446 20.7074 39.9769Z" fill="#111111"/>
<path d="M24.2856 39.9769C24.2856 39.6092 23.9851 39.3111 23.6145 39.3111C23.2438 39.3111 22.9434 39.6092 22.9434 39.9769C22.9434 40.3446 23.2438 40.6427 23.6145 40.6427C23.9851 40.6427 24.2856 40.3446 24.2856 39.9769Z" fill="#111111"/>
<path d="M27.8637 39.9769C27.8637 39.6092 27.5632 39.3111 27.1926 39.3111C26.8219 39.3111 26.5215 39.6092 26.5215 39.9769C26.5215 40.3446 26.8219 40.6427 27.1926 40.6427C27.5632 40.6427 27.8637 40.3446 27.8637 39.9769Z" fill="#111111"/>
<path d="M31.4399 39.9769C31.4399 39.6092 31.1394 39.3111 30.7688 39.3111C30.3981 39.3111 30.0977 39.6092 30.0977 39.9769C30.0977 40.3446 30.3981 40.6427 30.7688 40.6427C31.1394 40.6427 31.4399 40.3446 31.4399 39.9769Z" fill="#111111"/>
<path d="M33.2289 39.9769C33.2289 39.6092 32.9285 39.3111 32.5578 39.3111C32.1872 39.3111 31.8867 39.6092 31.8867 39.9769C31.8867 40.3446 32.1872 40.6427 32.5578 40.6427C32.9285 40.6427 33.2289 40.3446 33.2289 39.9769Z" fill="#111111"/>
<path d="M40.3852 39.9769C40.3852 39.6092 40.0847 39.3111 39.7141 39.3111C39.3434 39.3111 39.043 39.6092 39.043 39.9769C39.043 40.3446 39.3434 40.6427 39.7141 40.6427C40.0847 40.6427 40.3852 40.3446 40.3852 39.9769Z" fill="#111111"/>
<path d="M43.9614 39.9769C43.9614 39.6092 43.6609 39.3111 43.2902 39.3111C42.9196 39.3111 42.6191 39.6092 42.6191 39.9769C42.6191 40.3446 42.9196 40.6427 43.2902 40.6427C43.6609 40.6427 43.9614 40.3446 43.9614 39.9769Z" fill="#111111"/>
<path d="M47.5375 39.9769C47.5375 39.6092 47.2371 39.3111 46.8664 39.3111C46.4958 39.3111 46.1953 39.6092 46.1953 39.9769C46.1953 40.3446 46.4958 40.6427 46.8664 40.6427C47.2371 40.6427 47.5375 40.3446 47.5375 39.9769Z" fill="#111111"/>
<path d="M54.6938 39.9769C54.6938 39.6092 54.3933 39.3111 54.0227 39.3111C53.652 39.3111 53.3516 39.6092 53.3516 39.9769C53.3516 40.3446 53.652 40.6427 54.0227 40.6427C54.3933 40.6427 54.6938 40.3446 54.6938 39.9769Z" fill="#111111"/>
<path d="M56.4848 39.9769C56.4848 39.6092 56.1843 39.3111 55.8137 39.3111C55.443 39.3111 55.1426 39.6092 55.1426 39.9769C55.1426 40.3446 55.443 40.6427 55.8137 40.6427C56.1843 40.6427 56.4848 40.3446 56.4848 39.9769Z" fill="#111111"/>
<path d="M60.061 39.9769C60.061 39.6092 59.7605 39.3111 59.3899 39.3111C59.0192 39.3111 58.7188 39.6092 58.7188 39.9769C58.7188 40.3446 59.0192 40.6427 59.3899 40.6427C59.7605 40.6427 60.061 40.3446 60.061 39.9769Z" fill="#111111"/>
<path d="M18.9203 41.7514C18.9203 41.3837 18.6199 41.0856 18.2492 41.0856C17.8786 41.0856 17.5781 41.3837 17.5781 41.7514C17.5781 42.1191 17.8786 42.4171 18.2492 42.4171C18.6199 42.4171 18.9203 42.1191 18.9203 41.7514Z" fill="#111111"/>
<path d="M20.7074 41.7514C20.7074 41.3837 20.407 41.0856 20.0363 41.0856C19.6657 41.0856 19.3652 41.3837 19.3652 41.7514C19.3652 42.1191 19.6657 42.4171 20.0363 42.4171C20.407 42.4171 20.7074 42.1191 20.7074 41.7514Z" fill="#111111"/>
<path d="M26.0766 41.7514C26.0766 41.3837 25.7761 41.0856 25.4055 41.0856C25.0348 41.0856 24.7344 41.3837 24.7344 41.7514C24.7344 42.1191 25.0348 42.4171 25.4055 42.4171C25.7761 42.4171 26.0766 42.1191 26.0766 41.7514Z" fill="#111111"/>
<path d="M29.6528 41.7514C29.6528 41.3837 29.3523 41.0856 28.9817 41.0856C28.611 41.0856 28.3105 41.3837 28.3105 41.7514C28.3105 42.1191 28.611 42.4171 28.9817 42.4171C29.3523 42.4171 29.6528 42.1191 29.6528 41.7514Z" fill="#111111"/>
<path d="M31.4399 41.7514C31.4399 41.3837 31.1394 41.0856 30.7688 41.0856C30.3981 41.0856 30.0977 41.3837 30.0977 41.7514C30.0977 42.1191 30.3981 42.4171 30.7688 42.4171C31.1394 42.4171 31.4399 42.1191 31.4399 41.7514Z" fill="#111111"/>
<path d="M35.018 41.7514C35.018 41.3837 34.7175 41.0856 34.3469 41.0856C33.9762 41.0856 33.6758 41.3837 33.6758 41.7514C33.6758 42.1191 33.9762 42.4171 34.3469 42.4171C34.7175 42.4171 35.018 42.1191 35.018 41.7514Z" fill="#111111"/>
<path d="M40.3852 41.7514C40.3852 41.3837 40.0847 41.0856 39.7141 41.0856C39.3434 41.0856 39.043 41.3837 39.043 41.7514C39.043 42.1191 39.3434 42.4171 39.7141 42.4171C40.0847 42.4171 40.3852 42.1191 40.3852 41.7514Z" fill="#111111"/>
<path d="M42.1742 41.7514C42.1742 41.3837 41.8738 41.0856 41.5031 41.0856C41.1325 41.0856 40.832 41.3837 40.832 41.7514C40.832 42.1191 41.1325 42.4171 41.5031 42.4171C41.8738 42.4171 42.1742 42.1191 42.1742 41.7514Z" fill="#111111"/>
<path d="M47.5375 41.7514C47.5375 41.3837 47.2371 41.0856 46.8664 41.0856C46.4958 41.0856 46.1953 41.3837 46.1953 41.7514C46.1953 42.1191 46.4958 42.4171 46.8664 42.4171C47.2371 42.4171 47.5375 42.1191 47.5375 41.7514Z" fill="#111111"/>
<path d="M49.3285 41.7514C49.3285 41.3837 49.0281 41.0856 48.6574 41.0856C48.2868 41.0856 47.9863 41.3837 47.9863 41.7514C47.9863 42.1191 48.2868 42.4171 48.6574 42.4171C49.0281 42.4171 49.3285 42.1191 49.3285 41.7514Z" fill="#111111"/>
<path d="M51.1156 41.7514C51.1156 41.3837 50.8152 41.0856 50.4445 41.0856C50.0739 41.0856 49.7734 41.3837 49.7734 41.7514C49.7734 42.1191 50.0739 42.4171 50.4445 42.4171C50.8152 42.4171 51.1156 42.1191 51.1156 41.7514Z" fill="#111111"/>
<path d="M52.9028 41.7514C52.9028 41.3837 52.6023 41.0856 52.2316 41.0856C51.861 41.0856 51.5605 41.3837 51.5605 41.7514C51.5605 42.1191 51.861 42.4171 52.2316 42.4171C52.6023 42.4171 52.9028 42.1191 52.9028 41.7514Z" fill="#111111"/>
<path d="M54.6938 41.7514C54.6938 41.3837 54.3933 41.0856 54.0227 41.0856C53.652 41.0856 53.3516 41.3837 53.3516 41.7514C53.3516 42.1191 53.652 42.4171 54.0227 42.4171C54.3933 42.4171 54.6938 42.1191 54.6938 41.7514Z" fill="#111111"/>
<path d="M56.4848 41.7514C56.4848 41.3837 56.1843 41.0856 55.8137 41.0856C55.443 41.0856 55.1426 41.3837 55.1426 41.7514C55.1426 42.1191 55.443 42.4171 55.8137 42.4171C56.1843 42.4171 56.4848 42.1191 56.4848 41.7514Z" fill="#111111"/>
<path d="M58.2699 41.7514C58.2699 41.3837 57.9695 41.0856 57.5988 41.0856C57.2282 41.0856 56.9277 41.3837 56.9277 41.7514C56.9277 42.1191 57.2282 42.4171 57.5988 42.4171C57.9695 42.4171 58.2699 42.1191 58.2699 41.7514Z" fill="#111111"/>
<path d="M33.2289 43.526C33.2289 43.1583 32.9285 42.8602 32.5578 42.8602C32.1872 42.8602 31.8867 43.1583 31.8867 43.526C31.8867 43.8937 32.1872 44.1918 32.5578 44.1918C32.9285 44.1918 33.2289 43.8937 33.2289 43.526Z" fill="#111111"/>
<path d="M35.018 43.526C35.018 43.1583 34.7175 42.8602 34.3469 42.8602C33.9762 42.8602 33.6758 43.1583 33.6758 43.526C33.6758 43.8937 33.9762 44.1918 34.3469 44.1918C34.7175 44.1918 35.018 43.8937 35.018 43.526Z" fill="#111111"/>
<path d="M42.1742 43.526C42.1742 43.1583 41.8738 42.8602 41.5031 42.8602C41.1325 42.8602 40.832 43.1583 40.832 43.526C40.832 43.8937 41.1325 44.1918 41.5031 44.1918C41.8738 44.1918 42.1742 43.8937 42.1742 43.526Z" fill="#111111"/>
<path d="M45.7524 43.526C45.7524 43.1583 45.4519 42.8602 45.0813 42.8602C44.7106 42.8602 44.4102 43.1583 44.4102 43.526C44.4102 43.8937 44.7106 44.1918 45.0813 44.1918C45.4519 44.1918 45.7524 43.8937 45.7524 43.526Z" fill="#111111"/>
<path d="M47.5375 43.526C47.5375 43.1583 47.2371 42.8602 46.8664 42.8602C46.4958 42.8602 46.1953 43.1583 46.1953 43.526C46.1953 43.8937 46.4958 44.1918 46.8664 44.1918C47.2371 44.1918 47.5375 43.8937 47.5375 43.526Z" fill="#111111"/>
<path d="M54.6938 43.526C54.6938 43.1583 54.3933 42.8602 54.0227 42.8602C53.652 42.8602 53.3516 43.1583 53.3516 43.526C53.3516 43.8937 53.652 44.1918 54.0227 44.1918C54.3933 44.1918 54.6938 43.8937 54.6938 43.526Z" fill="#111111"/>
<path d="M56.4848 43.526C56.4848 43.1583 56.1843 42.8602 55.8137 42.8602C55.443 42.8602 55.1426 43.1583 55.1426 43.526C55.1426 43.8937 55.443 44.1918 55.8137 44.1918C56.1843 44.1918 56.4848 43.8937 56.4848 43.526Z" fill="#111111"/>
<path d="M58.2699 43.526C58.2699 43.1583 57.9695 42.8602 57.5988 42.8602C57.2282 42.8602 56.9277 43.1583 56.9277 43.526C56.9277 43.8937 57.2282 44.1918 57.5988 44.1918C57.9695 44.1918 58.2699 43.8937 58.2699 43.526Z" fill="#111111"/>
<path d="M61.85 43.526C61.85 43.1583 61.5496 42.8602 61.1789 42.8602C60.8083 42.8602 60.5078 43.1583 60.5078 43.526C60.5078 43.8937 60.8083 44.1918 61.1789 44.1918C61.5496 44.1918 61.85 43.8937 61.85 43.526Z" fill="#111111"/>
<path d="M33.2289 45.3004C33.2289 44.9327 32.9285 44.6347 32.5578 44.6347C32.1872 44.6347 31.8867 44.9327 31.8867 45.3004C31.8867 45.6681 32.1872 45.9662 32.5578 45.9662C32.9285 45.9662 33.2289 45.6681 33.2289 45.3004Z" fill="#111111"/>
<path d="M38.5942 45.3004C38.5942 44.9327 38.2937 44.6347 37.9231 44.6347C37.5524 44.6347 37.252 44.9327 37.252 45.3004C37.252 45.6681 37.5524 45.9662 37.9231 45.9662C38.2937 45.9662 38.5942 45.6681 38.5942 45.3004Z" fill="#111111"/>
<path d="M42.1742 45.3004C42.1742 44.9327 41.8738 44.6347 41.5031 44.6347C41.1325 44.6347 40.832 44.9327 40.832 45.3004C40.832 45.6681 41.1325 45.9662 41.5031 45.9662C41.8738 45.9662 42.1742 45.6681 42.1742 45.3004Z" fill="#111111"/>
<path d="M45.7524 45.3004C45.7524 44.9327 45.4519 44.6347 45.0813 44.6347C44.7106 44.6347 44.4102 44.9327 44.4102 45.3004C44.4102 45.6681 44.7106 45.9662 45.0813 45.9662C45.4519 45.9662 45.7524 45.6681 45.7524 45.3004Z" fill="#111111"/>
<path d="M47.5375 45.3004C47.5375 44.9327 47.2371 44.6347 46.8664 44.6347C46.4958 44.6347 46.1953 44.9327 46.1953 45.3004C46.1953 45.6681 46.4958 45.9662 46.8664 45.9662C47.2371 45.9662 47.5375 45.6681 47.5375 45.3004Z" fill="#111111"/>
<path d="M51.1156 45.3004C51.1156 44.9327 50.8152 44.6347 50.4445 44.6347C50.0739 44.6347 49.7734 44.9327 49.7734 45.3004C49.7734 45.6681 50.0739 45.9662 50.4445 45.9662C50.8152 45.9662 51.1156 45.6681 51.1156 45.3004Z" fill="#111111"/>
<path d="M54.6938 45.3004C54.6938 44.9327 54.3933 44.6347 54.0227 44.6347C53.652 44.6347 53.3516 44.9327 53.3516 45.3004C53.3516 45.6681 53.652 45.9662 54.0227 45.9662C54.3933 45.9662 54.6938 45.6681 54.6938 45.3004Z" fill="#111111"/>
<path d="M60.061 45.3004C60.061 44.9327 59.7605 44.6347 59.3899 44.6347C59.0192 44.6347 58.7188 44.9327 58.7188 45.3004C58.7188 45.6681 59.0192 45.9662 59.3899 45.9662C59.7605 45.9662 60.061 45.6681 60.061 45.3004Z" fill="#111111"/>
<path d="M61.85 45.3004C61.85 44.9327 61.5496 44.6347 61.1789 44.6347C60.8083 44.6347 60.5078 44.9327 60.5078 45.3004C60.5078 45.6681 60.8083 45.9662 61.1789 45.9662C61.5496 45.9662 61.85 45.6681 61.85 45.3004Z" fill="#111111"/>
<path d="M33.2289 47.0747C33.2289 46.707 32.9285 46.4089 32.5578 46.4089C32.1872 46.4089 31.8867 46.707 31.8867 47.0747C31.8867 47.4424 32.1872 47.7405 32.5578 47.7405C32.9285 47.7405 33.2289 47.4424 33.2289 47.0747Z" fill="#111111"/>
<path d="M36.8071 47.0747C36.8071 46.707 36.5066 46.4089 36.1359 46.4089C35.7653 46.4089 35.4648 46.707 35.4648 47.0747C35.4648 47.4424 35.7653 47.7405 36.1359 47.7405C36.5066 47.7405 36.8071 47.4424 36.8071 47.0747Z" fill="#111111"/>
<path d="M40.3852 47.0747C40.3852 46.707 40.0847 46.4089 39.7141 46.4089C39.3434 46.4089 39.043 46.707 39.043 47.0747C39.043 47.4424 39.3434 47.7405 39.7141 47.7405C40.0847 47.7405 40.3852 47.4424 40.3852 47.0747Z" fill="#111111"/>
<path d="M42.1742 47.0747C42.1742 46.707 41.8738 46.4089 41.5031 46.4089C41.1325 46.4089 40.832 46.707 40.832 47.0747C40.832 47.4424 41.1325 47.7405 41.5031 47.7405C41.8738 47.7405 42.1742 47.4424 42.1742 47.0747Z" fill="#111111"/>
<path d="M43.9614 47.0747C43.9614 46.707 43.6609 46.4089 43.2902 46.4089C42.9196 46.4089 42.6191 46.707 42.6191 47.0747C42.6191 47.4424 42.9196 47.7405 43.2902 47.7405C43.6609 47.7405 43.9614 47.4424 43.9614 47.0747Z" fill="#111111"/>
<path d="M47.5375 47.0747C47.5375 46.707 47.2371 46.4089 46.8664 46.4089C46.4958 46.4089 46.1953 46.707 46.1953 47.0747C46.1953 47.4424 46.4958 47.7405 46.8664 47.7405C47.2371 47.7405 47.5375 47.4424 47.5375 47.0747Z" fill="#111111"/>
<path d="M54.6938 47.0747C54.6938 46.707 54.3933 46.4089 54.0227 46.4089C53.652 46.4089 53.3516 46.707 53.3516 47.0747C53.3516 47.4424 53.652 47.7405 54.0227 47.7405C54.3933 47.7405 54.6938 47.4424 54.6938 47.0747Z" fill="#111111"/>
<path d="M56.4848 47.0747C56.4848 46.707 56.1843 46.4089 55.8137 46.4089C55.443 46.4089 55.1426 46.707 55.1426 47.0747C55.1426 47.4424 55.443 47.7405 55.8137 47.7405C56.1843 47.7405 56.4848 47.4424 56.4848 47.0747Z" fill="#111111"/>
<path d="M58.2699 47.0747C58.2699 46.707 57.9695 46.4089 57.5988 46.4089C57.2282 46.4089 56.9277 46.707 56.9277 47.0747C56.9277 47.4424 57.2282 47.7405 57.5988 47.7405C57.9695 47.7405 58.2699 47.4424 58.2699 47.0747Z" fill="#111111"/>
<path d="M60.061 47.0747C60.061 46.707 59.7605 46.4089 59.3899 46.4089C59.0192 46.4089 58.7188 46.707 58.7188 47.0747C58.7188 47.4424 59.0192 47.7405 59.3899 47.7405C59.7605 47.7405 60.061 47.4424 60.061 47.0747Z" fill="#111111"/>
<path d="M36.8071 48.8491C36.8071 48.4814 36.5066 48.1834 36.1359 48.1834C35.7653 48.1834 35.4648 48.4814 35.4648 48.8491C35.4648 49.2168 35.7653 49.5149 36.1359 49.5149C36.5066 49.5149 36.8071 49.2168 36.8071 48.8491Z" fill="#111111"/>
<path d="M40.3852 48.8491C40.3852 48.4814 40.0847 48.1834 39.7141 48.1834C39.3434 48.1834 39.043 48.4814 39.043 48.8491C39.043 49.2168 39.3434 49.5149 39.7141 49.5149C40.0847 49.5149 40.3852 49.2168 40.3852 48.8491Z" fill="#111111"/>
<path d="M42.1742 48.8491C42.1742 48.4814 41.8738 48.1834 41.5031 48.1834C41.1325 48.1834 40.832 48.4814 40.832 48.8491C40.832 49.2168 41.1325 49.5149 41.5031 49.5149C41.8738 49.5149 42.1742 49.2168 42.1742 48.8491Z" fill="#111111"/>
<path d="M47.5375 48.8491C47.5375 48.4814 47.2371 48.1834 46.8664 48.1834C46.4958 48.1834 46.1953 48.4814 46.1953 48.8491C46.1953 49.2168 46.4958 49.5149 46.8664 49.5149C47.2371 49.5149 47.5375 49.2168 47.5375 48.8491Z" fill="#111111"/>
<path d="M49.3285 48.8491C49.3285 48.4814 49.0281 48.1834 48.6574 48.1834C48.2868 48.1834 47.9863 48.4814 47.9863 48.8491C47.9863 49.2168 48.2868 49.5149 48.6574 49.5149C49.0281 49.5149 49.3285 49.2168 49.3285 48.8491Z" fill="#111111"/>
<path d="M51.1156 48.8491C51.1156 48.4814 50.8152 48.1834 50.4445 48.1834C50.0739 48.1834 49.7734 48.4814 49.7734 48.8491C49.7734 49.2168 50.0739 49.5149 50.4445 49.5149C50.8152 49.5149 51.1156 49.2168 51.1156 48.8491Z" fill="#111111"/>
<path d="M52.9028 48.8491C52.9028 48.4814 52.6023 48.1834 52.2316 48.1834C51.861 48.1834 51.5605 48.4814 51.5605 48.8491C51.5605 49.2168 51.861 49.5149 52.2316 49.5149C52.6023 49.5149 52.9028 49.2168 52.9028 48.8491Z" fill="#111111"/>
<path d="M54.6938 48.8491C54.6938 48.4814 54.3933 48.1834 54.0227 48.1834C53.652 48.1834 53.3516 48.4814 53.3516 48.8491C53.3516 49.2168 53.652 49.5149 54.0227 49.5149C54.3933 49.5149 54.6938 49.2168 54.6938 48.8491Z" fill="#111111"/>
<path d="M61.85 48.8491C61.85 48.4814 61.5496 48.1834 61.1789 48.1834C60.8083 48.1834 60.5078 48.4814 60.5078 48.8491C60.5078 49.2168 60.8083 49.5149 61.1789 49.5149C61.5496 49.5149 61.85 49.2168 61.85 48.8491Z" fill="#111111"/>
<path d="M33.2289 50.6238C33.2289 50.2561 32.9285 49.958 32.5578 49.958C32.1872 49.958 31.8867 50.2561 31.8867 50.6238C31.8867 50.9915 32.1872 51.2896 32.5578 51.2896C32.9285 51.2896 33.2289 50.9915 33.2289 50.6238Z" fill="#111111"/>
<path d="M36.8071 50.6238C36.8071 50.2561 36.5066 49.958 36.1359 49.958C35.7653 49.958 35.4648 50.2561 35.4648 50.6238C35.4648 50.9915 35.7653 51.2896 36.1359 51.2896C36.5066 51.2896 36.8071 50.9915 36.8071 50.6238Z" fill="#111111"/>
<path d="M42.1742 50.6238C42.1742 50.2561 41.8738 49.958 41.5031 49.958C41.1325 49.958 40.832 50.2561 40.832 50.6238C40.832 50.9915 41.1325 51.2896 41.5031 51.2896C41.8738 51.2896 42.1742 50.9915 42.1742 50.6238Z" fill="#111111"/>
<path d="M52.9028 50.6238C52.9028 50.2561 52.6023 49.958 52.2316 49.958C51.861 49.958 51.5605 50.2561 51.5605 50.6238C51.5605 50.9915 51.861 51.2896 52.2316 51.2896C52.6023 51.2896 52.9028 50.9915 52.9028 50.6238Z" fill="#111111"/>
<path d="M58.2699 50.6238C58.2699 50.2561 57.9695 49.958 57.5988 49.958C57.2282 49.958 56.9277 50.2561 56.9277 50.6238C56.9277 50.9915 57.2282 51.2896 57.5988 51.2896C57.9695 51.2896 58.2699 50.9915 58.2699 50.6238Z" fill="#111111"/>
<path d="M35.018 52.3978C35.018 52.0301 34.7175 51.7321 34.3469 51.7321C33.9762 51.7321 33.6758 52.0301 33.6758 52.3978C33.6758 52.7655 33.9762 53.0636 34.3469 53.0636C34.7175 53.0636 35.018 52.7655 35.018 52.3978Z" fill="#111111"/>
<path d="M40.3852 52.3978C40.3852 52.0301 40.0847 51.7321 39.7141 51.7321C39.3434 51.7321 39.043 52.0301 39.043 52.3978C39.043 52.7655 39.3434 53.0636 39.7141 53.0636C40.0847 53.0636 40.3852 52.7655 40.3852 52.3978Z" fill="#111111"/>
<path d="M42.1742 52.3978C42.1742 52.0301 41.8738 51.7321 41.5031 51.7321C41.1325 51.7321 40.832 52.0301 40.832 52.3978C40.832 52.7655 41.1325 53.0636 41.5031 53.0636C41.8738 53.0636 42.1742 52.7655 42.1742 52.3978Z" fill="#111111"/>
<path d="M47.5375 52.3978C47.5375 52.0301 47.2371 51.7321 46.8664 51.7321C46.4958 51.7321 46.1953 52.0301 46.1953 52.3978C46.1953 52.7655 46.4958 53.0636 46.8664 53.0636C47.2371 53.0636 47.5375 52.7655 47.5375 52.3978Z" fill="#111111"/>
<path d="M49.3285 52.3978C49.3285 52.0301 49.0281 51.7321 48.6574 51.7321C48.2868 51.7321 47.9863 52.0301 47.9863 52.3978C47.9863 52.7655 48.2868 53.0636 48.6574 53.0636C49.0281 53.0636 49.3285 52.7655 49.3285 52.3978Z" fill="#111111"/>
<path d="M54.6938 52.3978C54.6938 52.0301 54.3933 51.7321 54.0227 51.7321C53.652 51.7321 53.3516 52.0301 53.3516 52.3978C53.3516 52.7655 53.652 53.0636 54.0227 53.0636C54.3933 53.0636 54.6938 52.7655 54.6938 52.3978Z" fill="#111111"/>
<path d="M56.4848 52.3978C56.4848 52.0301 56.1843 51.7321 55.8137 51.7321C55.443 51.7321 55.1426 52.0301 55.1426 52.3978C55.1426 52.7655 55.443 53.0636 55.8137 53.0636C56.1843 53.0636 56.4848 52.7655 56.4848 52.3978Z" fill="#111111"/>
<path d="M58.2699 52.3978C58.2699 52.0301 57.9695 51.7321 57.5988 51.7321C57.2282 51.7321 56.9277 52.0301 56.9277 52.3978C56.9277 52.7655 57.2282 53.0636 57.5988 53.0636C57.9695 53.0636 58.2699 52.7655 58.2699 52.3978Z" fill="#111111"/>
<path d="M61.85 52.3978C61.85 52.0301 61.5496 51.7321 61.1789 51.7321C60.8083 51.7321 60.5078 52.0301 60.5078 52.3978C60.5078 52.7655 60.8083 53.0636 61.1789 53.0636C61.5496 53.0636 61.85 52.7655 61.85 52.3978Z" fill="#111111"/>
<path d="M33.2289 54.1725C33.2289 53.8048 32.9285 53.5067 32.5578 53.5067C32.1872 53.5067 31.8867 53.8048 31.8867 54.1725C31.8867 54.5402 32.1872 54.8382 32.5578 54.8382C32.9285 54.8382 33.2289 54.5402 33.2289 54.1725Z" fill="#111111"/>
<path d="M35.018 54.1725C35.018 53.8048 34.7175 53.5067 34.3469 53.5067C33.9762 53.5067 33.6758 53.8048 33.6758 54.1725C33.6758 54.5402 33.9762 54.8382 34.3469 54.8382C34.7175 54.8382 35.018 54.5402 35.018 54.1725Z" fill="#111111"/>
<path d="M36.8071 54.1725C36.8071 53.8048 36.5066 53.5067 36.1359 53.5067C35.7653 53.5067 35.4648 53.8048 35.4648 54.1725C35.4648 54.5402 35.7653 54.8382 36.1359 54.8382C36.5066 54.8382 36.8071 54.5402 36.8071 54.1725Z" fill="#111111"/>
<path d="M40.3852 54.1725C40.3852 53.8048 40.0847 53.5067 39.7141 53.5067C39.3434 53.5067 39.043 53.8048 39.043 54.1725C39.043 54.5402 39.3434 54.8382 39.7141 54.8382C40.0847 54.8382 40.3852 54.5402 40.3852 54.1725Z" fill="#111111"/>
<path d="M42.1742 54.1725C42.1742 53.8048 41.8738 53.5067 41.5031 53.5067C41.1325 53.5067 40.832 53.8048 40.832 54.1725C40.832 54.5402 41.1325 54.8382 41.5031 54.8382C41.8738 54.8382 42.1742 54.5402 42.1742 54.1725Z" fill="#111111"/>
<path d="M45.7524 54.1725C45.7524 53.8048 45.4519 53.5067 45.0813 53.5067C44.7106 53.5067 44.4102 53.8048 44.4102 54.1725C44.4102 54.5402 44.7106 54.8382 45.0813 54.8382C45.4519 54.8382 45.7524 54.5402 45.7524 54.1725Z" fill="#111111"/>
<path d="M47.5375 54.1725C47.5375 53.8048 47.2371 53.5067 46.8664 53.5067C46.4958 53.5067 46.1953 53.8048 46.1953 54.1725C46.1953 54.5402 46.4958 54.8382 46.8664 54.8382C47.2371 54.8382 47.5375 54.5402 47.5375 54.1725Z" fill="#111111"/>
<path d="M56.4848 54.1725C56.4848 53.8048 56.1843 53.5067 55.8137 53.5067C55.443 53.5067 55.1426 53.8048 55.1426 54.1725C55.1426 54.5402 55.443 54.8382 55.8137 54.8382C56.1843 54.8382 56.4848 54.5402 56.4848 54.1725Z" fill="#111111"/>
<path d="M35.018 55.9469C35.018 55.5792 34.7175 55.2811 34.3469 55.2811C33.9762 55.2811 33.6758 55.5792 33.6758 55.9469C33.6758 56.3146 33.9762 56.6127 34.3469 56.6127C34.7175 56.6127 35.018 56.3146 35.018 55.9469Z" fill="#111111"/>
<path d="M36.8071 55.9469C36.8071 55.5792 36.5066 55.2811 36.1359 55.2811C35.7653 55.2811 35.4648 55.5792 35.4648 55.9469C35.4648 56.3146 35.7653 56.6127 36.1359 56.6127C36.5066 56.6127 36.8071 56.3146 36.8071 55.9469Z" fill="#111111"/>
<path d="M38.5942 55.9469C38.5942 55.5792 38.2937 55.2811 37.9231 55.2811C37.5524 55.2811 37.252 55.5792 37.252 55.9469C37.252 56.3146 37.5524 56.6127 37.9231 56.6127C38.2937 56.6127 38.5942 56.3146 38.5942 55.9469Z" fill="#111111"/>
<path d="M40.3852 55.9469C40.3852 55.5792 40.0847 55.2811 39.7141 55.2811C39.3434 55.2811 39.043 55.5792 39.043 55.9469C39.043 56.3146 39.3434 56.6127 39.7141 56.6127C40.0847 56.6127 40.3852 56.3146 40.3852 55.9469Z" fill="#111111"/>
<path d="M42.1742 55.9469C42.1742 55.5792 41.8738 55.2811 41.5031 55.2811C41.1325 55.2811 40.832 55.5792 40.832 55.9469C40.832 56.3146 41.1325 56.6127 41.5031 56.6127C41.8738 56.6127 42.1742 56.3146 42.1742 55.9469Z" fill="#111111"/>
<path d="M45.7524 55.9469C45.7524 55.5792 45.4519 55.2811 45.0813 55.2811C44.7106 55.2811 44.4102 55.5792 44.4102 55.9469C44.4102 56.3146 44.7106 56.6127 45.0813 56.6127C45.4519 56.6127 45.7524 56.3146 45.7524 55.9469Z" fill="#111111"/>
<path d="M47.5375 55.9469C47.5375 55.5792 47.2371 55.2811 46.8664 55.2811C46.4958 55.2811 46.1953 55.5792 46.1953 55.9469C46.1953 56.3146 46.4958 56.6127 46.8664 56.6127C47.2371 56.6127 47.5375 56.3146 47.5375 55.9469Z" fill="#111111"/>
<path d="M52.9028 55.9469C52.9028 55.5792 52.6023 55.2811 52.2316 55.2811C51.861 55.2811 51.5605 55.5792 51.5605 55.9469C51.5605 56.3146 51.861 56.6127 52.2316 56.6127C52.6023 56.6127 52.9028 56.3146 52.9028 55.9469Z" fill="#111111"/>
<path d="M60.061 55.9469C60.061 55.5792 59.7605 55.2811 59.3899 55.2811C59.0192 55.2811 58.7188 55.5792 58.7188 55.9469C58.7188 56.3146 59.0192 56.6127 59.3899 56.6127C59.7605 56.6127 60.061 56.3146 60.061 55.9469Z" fill="#111111"/>
<path d="M61.85 55.9469C61.85 55.5792 61.5496 55.2811 61.1789 55.2811C60.8083 55.2811 60.5078 55.5792 60.5078 55.9469C60.5078 56.3146 60.8083 56.6127 61.1789 56.6127C61.5496 56.6127 61.85 56.3146 61.85 55.9469Z" fill="#111111"/>
<path d="M27.1932 13.3574H20.0386C19.0508 13.3574 18.25 14.1519 18.25 15.1319V22.2296C18.25 23.2096 19.0508 24.0041 20.0386 24.0041H27.1932C28.181 24.0041 28.9818 23.2096 28.9818 22.2296V15.1319C28.9818 14.1519 28.181 13.3574 27.1932 13.3574Z" stroke="#111111" stroke-width="2.23804"/>
<path d="M25.4032 16.0192H21.826C21.332 16.0192 20.9316 16.4165 20.9316 16.9065V20.4554C20.9316 20.9454 21.332 21.3426 21.826 21.3426H25.4032C25.8972 21.3426 26.2976 20.9454 26.2976 20.4554V16.9065C26.2976 16.4165 25.8972 16.0192 25.4032 16.0192Z" fill="#111111"/>
<path d="M59.3944 13.3575H52.2398C51.252 13.3575 50.4512 14.1519 50.4512 15.1319V22.2297C50.4512 23.2097 51.252 24.0042 52.2398 24.0042H59.3944C60.3822 24.0042 61.183 23.2097 61.183 22.2297V15.1319C61.183 14.1519 60.3822 13.3575 59.3944 13.3575Z" stroke="#111111" stroke-width="2.23804"/>
<path d="M57.6064 16.0192H54.0291C53.5352 16.0192 53.1348 16.4165 53.1348 16.9065V20.4554C53.1348 20.9454 53.5352 21.3426 54.0291 21.3426H57.6064C58.1003 21.3426 58.5007 20.9454 58.5007 20.4554V16.9065C58.5007 16.4165 58.1003 16.0192 57.6064 16.0192Z" fill="#111111"/>
<path d="M27.1932 45.3023H20.0386C19.0508 45.3023 18.25 46.0968 18.25 47.0768V54.1746C18.25 55.1546 19.0508 55.949 20.0386 55.949H27.1932C28.181 55.949 28.9818 55.1546 28.9818 54.1746V47.0768C28.9818 46.0968 28.181 45.3023 27.1932 45.3023Z" stroke="#111111" stroke-width="2.23804"/>
<path d="M25.4032 47.9639H21.826C21.332 47.9639 20.9316 48.3611 20.9316 48.8511V52.4C20.9316 52.89 21.332 53.2872 21.826 53.2872H25.4032C25.8972 53.2872 26.2976 52.89 26.2976 52.4V48.8511C26.2976 48.3611 25.8972 47.9639 25.4032 47.9639Z" fill="#111111"/>
</svg>
