<svg width="80" height="81" viewBox="0 0 80 81" fill="none" xmlns="http://www.w3.org/2000/svg">
<g id="Template 6">
<path d="M0 8.40064C0 3.98236 3.58172 0.400635 8 0.400635H72C76.4183 0.400635 80 3.98236 80 8.40063V72.4006C80 76.8189 76.4183 80.4006 72 80.4006H8C3.58172 80.4006 0 76.8189 0 72.4006V8.40064Z" fill="white"/>
<path d="M0.5 8.40064C0.5 4.2585 3.85786 0.900635 8 0.900635H72C76.1421 0.900635 79.5 4.2585 79.5 8.40063V72.4006C79.5 76.5428 76.1421 79.9006 72 79.9006H8C3.85787 79.9006 0.5 76.5428 0.5 72.4006V8.40064Z" stroke="#1A1A1A" stroke-opacity="0.1"/>
<g id="Group">
<g id="Group_2">
<path id="Vector" d="M31.0197 9.36245C31.0197 8.82683 30.5855 8.39263 30.0499 8.39263C29.5143 8.39263 29.0801 8.82683 29.0801 9.36245C29.0801 9.89806 29.5143 10.3323 30.0499 10.3323C30.5855 10.3323 31.0197 9.89806 31.0197 9.36245Z" fill="#111111"/>
<path id="Vector_2" d="M36.1935 9.36245C36.1935 8.82683 35.7593 8.39263 35.2237 8.39263C34.6881 8.39263 34.2539 8.82683 34.2539 9.36245C34.2539 9.89806 34.6881 10.3323 35.2237 10.3323C35.7593 10.3323 36.1935 9.89806 36.1935 9.36245Z" fill="#111111"/>
<path id="Vector_3" d="M38.7795 9.36245C38.7795 8.82683 38.3453 8.39263 37.8097 8.39263C37.274 8.39263 36.8398 8.82683 36.8398 9.36245C36.8398 9.89806 37.274 10.3323 37.8097 10.3323C38.3453 10.3323 38.7795 9.89806 38.7795 9.36245Z" fill="#111111"/>
<path id="Vector_4" d="M46.5392 9.36245C46.5392 8.82683 46.105 8.39263 45.5694 8.39263C45.0338 8.39263 44.5996 8.82683 44.5996 9.36245C44.5996 9.89806 45.0338 10.3323 45.5694 10.3323C46.105 10.3323 46.5392 9.89806 46.5392 9.36245Z" fill="#111111"/>
<path id="Vector_5" d="M49.1232 9.36245C49.1232 8.82683 48.689 8.39263 48.1534 8.39263C47.6178 8.39263 47.1836 8.82683 47.1836 9.36245C47.1836 9.89806 47.6178 10.3323 48.1534 10.3323C48.689 10.3323 49.1232 9.89806 49.1232 9.36245Z" fill="#111111"/>
<path id="Vector_6" d="M36.1935 11.9486C36.1935 11.413 35.7593 10.9788 35.2237 10.9788C34.6881 10.9788 34.2539 11.413 34.2539 11.9486C34.2539 12.4842 34.6881 12.9184 35.2237 12.9184C35.7593 12.9184 36.1935 12.4842 36.1935 11.9486Z" fill="#111111"/>
<path id="Vector_7" d="M38.7795 11.9486C38.7795 11.413 38.3453 10.9788 37.8097 10.9788C37.274 10.9788 36.8398 11.413 36.8398 11.9486C36.8398 12.4842 37.274 12.9184 37.8097 12.9184C38.3453 12.9184 38.7795 12.4842 38.7795 11.9486Z" fill="#111111"/>
<path id="Vector_8" d="M43.9514 11.9486C43.9514 11.413 43.5171 10.9788 42.9815 10.9788C42.4459 10.9788 42.0117 11.413 42.0117 11.9486C42.0117 12.4842 42.4459 12.9184 42.9815 12.9184C43.5171 12.9184 43.9514 12.4842 43.9514 11.9486Z" fill="#111111"/>
<path id="Vector_9" d="M49.1232 11.9486C49.1232 11.413 48.689 10.9788 48.1534 10.9788C47.6178 10.9788 47.1836 11.413 47.1836 11.9486C47.1836 12.4842 47.6178 12.9184 48.1534 12.9184C48.689 12.9184 49.1232 12.4842 49.1232 11.9486Z" fill="#111111"/>
<path id="Vector_10" d="M51.7092 11.9486C51.7092 11.413 51.275 10.9788 50.7393 10.9788C50.2037 10.9788 49.7695 11.413 49.7695 11.9486C49.7695 12.4842 50.2037 12.9184 50.7393 12.9184C51.275 12.9184 51.7092 12.4842 51.7092 11.9486Z" fill="#111111"/>
<path id="Vector_11" d="M31.0197 14.5348C31.0197 13.9992 30.5855 13.565 30.0499 13.565C29.5143 13.565 29.0801 13.9992 29.0801 14.5348C29.0801 15.0704 29.5143 15.5046 30.0499 15.5046C30.5855 15.5046 31.0197 15.0704 31.0197 14.5348Z" fill="#111111"/>
<path id="Vector_12" d="M41.3654 14.5348C41.3654 13.9992 40.9312 13.565 40.3956 13.565C39.86 13.565 39.4258 13.9992 39.4258 14.5348C39.4258 15.0704 39.86 15.5046 40.3956 15.5046C40.9312 15.5046 41.3654 15.0704 41.3654 14.5348Z" fill="#111111"/>
<path id="Vector_13" d="M46.5392 14.5348C46.5392 13.9992 46.105 13.565 45.5694 13.565C45.0338 13.565 44.5996 13.9992 44.5996 14.5348C44.5996 15.0704 45.0338 15.5046 45.5694 15.5046C46.105 15.5046 46.5392 15.0704 46.5392 14.5348Z" fill="#111111"/>
<path id="Vector_14" d="M49.1232 14.5348C49.1232 13.9992 48.689 13.565 48.1534 13.565C47.6178 13.565 47.1836 13.9992 47.1836 14.5348C47.1836 15.0704 47.6178 15.5046 48.1534 15.5046C48.689 15.5046 49.1232 15.0704 49.1232 14.5348Z" fill="#111111"/>
<path id="Vector_15" d="M31.0197 17.1208C31.0197 16.5852 30.5855 16.151 30.0499 16.151C29.5143 16.151 29.0801 16.5852 29.0801 17.1208C29.0801 17.6564 29.5143 18.0906 30.0499 18.0906C30.5855 18.0906 31.0197 17.6564 31.0197 17.1208Z" fill="#111111"/>
<path id="Vector_16" d="M38.7795 17.1208C38.7795 16.5852 38.3453 16.151 37.8097 16.151C37.274 16.151 36.8398 16.5852 36.8398 17.1208C36.8398 17.6564 37.274 18.0906 37.8097 18.0906C38.3453 18.0906 38.7795 17.6564 38.7795 17.1208Z" fill="#111111"/>
<path id="Vector_17" d="M46.5392 17.1208C46.5392 16.5852 46.105 16.151 45.5694 16.151C45.0338 16.151 44.5996 16.5852 44.5996 17.1208C44.5996 17.6564 45.0338 18.0906 45.5694 18.0906C46.105 18.0906 46.5392 17.6564 46.5392 17.1208Z" fill="#111111"/>
<path id="Vector_18" d="M33.6056 19.7073C33.6056 19.1717 33.1714 18.7375 32.6358 18.7375C32.1002 18.7375 31.666 19.1717 31.666 19.7073C31.666 20.243 32.1002 20.6772 32.6358 20.6772C33.1714 20.6772 33.6056 20.243 33.6056 19.7073Z" fill="#111111"/>
<path id="Vector_19" d="M41.3654 19.7073C41.3654 19.1717 40.9312 18.7375 40.3956 18.7375C39.86 18.7375 39.4258 19.1717 39.4258 19.7073C39.4258 20.243 39.86 20.6772 40.3956 20.6772C40.9312 20.6772 41.3654 20.243 41.3654 19.7073Z" fill="#111111"/>
<path id="Vector_20" d="M46.5392 19.7073C46.5392 19.1717 46.105 18.7375 45.5694 18.7375C45.0338 18.7375 44.5996 19.1717 44.5996 19.7073C44.5996 20.243 45.0338 20.6772 45.5694 20.6772C46.105 20.6772 46.5392 20.243 46.5392 19.7073Z" fill="#111111"/>
<path id="Vector_21" d="M49.1232 19.7073C49.1232 19.1717 48.689 18.7375 48.1534 18.7375C47.6178 18.7375 47.1836 19.1717 47.1836 19.7073C47.1836 20.243 47.6178 20.6772 48.1534 20.6772C48.689 20.6772 49.1232 20.243 49.1232 19.7073Z" fill="#111111"/>
<path id="Vector_22" d="M31.0197 22.2933C31.0197 21.7577 30.5855 21.3235 30.0499 21.3235C29.5143 21.3235 29.0801 21.7577 29.0801 22.2933C29.0801 22.829 29.5143 23.2632 30.0499 23.2632C30.5855 23.2632 31.0197 22.829 31.0197 22.2933Z" fill="#111111"/>
<path id="Vector_23" d="M33.6056 22.2933C33.6056 21.7577 33.1714 21.3235 32.6358 21.3235C32.1002 21.3235 31.666 21.7577 31.666 22.2933C31.666 22.829 32.1002 23.2632 32.6358 23.2632C33.1714 23.2632 33.6056 22.829 33.6056 22.2933Z" fill="#111111"/>
<path id="Vector_24" d="M38.7795 22.2933C38.7795 21.7577 38.3453 21.3235 37.8097 21.3235C37.274 21.3235 36.8398 21.7577 36.8398 22.2933C36.8398 22.829 37.274 23.2632 37.8097 23.2632C38.3453 23.2632 38.7795 22.829 38.7795 22.2933Z" fill="#111111"/>
<path id="Vector_25" d="M49.1232 22.2933C49.1232 21.7577 48.689 21.3235 48.1534 21.3235C47.6178 21.3235 47.1836 21.7577 47.1836 22.2933C47.1836 22.829 47.6178 23.2632 48.1534 23.2632C48.689 23.2632 49.1232 22.829 49.1232 22.2933Z" fill="#111111"/>
<path id="Vector_26" d="M51.7092 22.2933C51.7092 21.7577 51.275 21.3235 50.7393 21.3235C50.2037 21.3235 49.7695 21.7577 49.7695 22.2933C49.7695 22.829 50.2037 23.2632 50.7393 23.2632C51.275 23.2632 51.7092 22.829 51.7092 22.2933Z" fill="#111111"/>
<path id="Vector_27" d="M31.0197 24.8795C31.0197 24.3439 30.5855 23.9097 30.0499 23.9097C29.5143 23.9097 29.0801 24.3439 29.0801 24.8795C29.0801 25.4151 29.5143 25.8493 30.0499 25.8493C30.5855 25.8493 31.0197 25.4151 31.0197 24.8795Z" fill="#111111"/>
<path id="Vector_28" d="M36.1935 24.8795C36.1935 24.3439 35.7593 23.9097 35.2237 23.9097C34.6881 23.9097 34.2539 24.3439 34.2539 24.8795C34.2539 25.4151 34.6881 25.8493 35.2237 25.8493C35.7593 25.8493 36.1935 25.4151 36.1935 24.8795Z" fill="#111111"/>
<path id="Vector_29" d="M41.3654 24.8795C41.3654 24.3439 40.9312 23.9097 40.3956 23.9097C39.86 23.9097 39.4258 24.3439 39.4258 24.8795C39.4258 25.4151 39.86 25.8493 40.3956 25.8493C40.9312 25.8493 41.3654 25.4151 41.3654 24.8795Z" fill="#111111"/>
<path id="Vector_30" d="M46.5392 24.8795C46.5392 24.3439 46.105 23.9097 45.5694 23.9097C45.0338 23.9097 44.5996 24.3439 44.5996 24.8795C44.5996 25.4151 45.0338 25.8493 45.5694 25.8493C46.105 25.8493 46.5392 25.4151 46.5392 24.8795Z" fill="#111111"/>
<path id="Vector_31" d="M51.7092 24.8795C51.7092 24.3439 51.275 23.9097 50.7393 23.9097C50.2037 23.9097 49.7695 24.3439 49.7695 24.8795C49.7695 25.4151 50.2037 25.8493 50.7393 25.8493C51.275 25.8493 51.7092 25.4151 51.7092 24.8795Z" fill="#111111"/>
<path id="Vector_32" d="M31.0197 27.4657C31.0197 26.9301 30.5855 26.4959 30.0499 26.4959C29.5143 26.4959 29.0801 26.9301 29.0801 27.4657C29.0801 28.0013 29.5143 28.4355 30.0499 28.4355C30.5855 28.4355 31.0197 28.0013 31.0197 27.4657Z" fill="#111111"/>
<path id="Vector_33" d="M36.1935 27.4657C36.1935 26.9301 35.7593 26.4959 35.2237 26.4959C34.6881 26.4959 34.2539 26.9301 34.2539 27.4657C34.2539 28.0013 34.6881 28.4355 35.2237 28.4355C35.7593 28.4355 36.1935 28.0013 36.1935 27.4657Z" fill="#111111"/>
<path id="Vector_34" d="M38.7795 27.4657C38.7795 26.9301 38.3453 26.4959 37.8097 26.4959C37.274 26.4959 36.8398 26.9301 36.8398 27.4657C36.8398 28.0013 37.274 28.4355 37.8097 28.4355C38.3453 28.4355 38.7795 28.0013 38.7795 27.4657Z" fill="#111111"/>
<path id="Vector_35" d="M46.5392 27.4657C46.5392 26.9301 46.105 26.4959 45.5694 26.4959C45.0338 26.4959 44.5996 26.9301 44.5996 27.4657C44.5996 28.0013 45.0338 28.4355 45.5694 28.4355C46.105 28.4355 46.5392 28.0013 46.5392 27.4657Z" fill="#111111"/>
<path id="Vector_36" d="M51.7092 27.4657C51.7092 26.9301 51.275 26.4959 50.7393 26.4959C50.2037 26.4959 49.7695 26.9301 49.7695 27.4657C49.7695 28.0013 50.2037 28.4355 50.7393 28.4355C51.275 28.4355 51.7092 28.0013 51.7092 27.4657Z" fill="#111111"/>
<path id="Vector_37" d="M12.9162 30.0517C12.9162 29.5161 12.482 29.0819 11.9464 29.0819C11.4108 29.0819 10.9766 29.5161 10.9766 30.0517C10.9766 30.5873 11.4108 31.0215 11.9464 31.0215C12.482 31.0215 12.9162 30.5873 12.9162 30.0517Z" fill="#111111"/>
<path id="Vector_38" d="M18.0881 30.0517C18.0881 29.5161 17.6539 29.0819 17.1183 29.0819C16.5826 29.0819 16.1484 29.5161 16.1484 30.0517C16.1484 30.5873 16.5826 31.0215 17.1183 31.0215C17.6539 31.0215 18.0881 30.5873 18.0881 30.0517Z" fill="#111111"/>
<path id="Vector_39" d="M23.2599 30.0517C23.2599 29.5161 22.8257 29.0819 22.2901 29.0819C21.7545 29.0819 21.3203 29.5161 21.3203 30.0517C21.3203 30.5873 21.7545 31.0215 22.2901 31.0215C22.8257 31.0215 23.2599 30.5873 23.2599 30.0517Z" fill="#111111"/>
<path id="Vector_40" d="M25.8478 30.0517C25.8478 29.5161 25.4136 29.0819 24.878 29.0819C24.3424 29.0819 23.9082 29.5161 23.9082 30.0517C23.9082 30.5873 24.3424 31.0215 24.878 31.0215C25.4136 31.0215 25.8478 30.5873 25.8478 30.0517Z" fill="#111111"/>
<path id="Vector_41" d="M28.4338 30.0517C28.4338 29.5161 27.9996 29.0819 27.464 29.0819C26.9283 29.0819 26.4941 29.5161 26.4941 30.0517C26.4941 30.5873 26.9283 31.0215 27.464 31.0215C27.9996 31.0215 28.4338 30.5873 28.4338 30.0517Z" fill="#111111"/>
<path id="Vector_42" d="M31.0197 30.0517C31.0197 29.5161 30.5855 29.0819 30.0499 29.0819C29.5143 29.0819 29.0801 29.5161 29.0801 30.0517C29.0801 30.5873 29.5143 31.0215 30.0499 31.0215C30.5855 31.0215 31.0197 30.5873 31.0197 30.0517Z" fill="#111111"/>
<path id="Vector_43" d="M36.1935 30.0517C36.1935 29.5161 35.7593 29.0819 35.2237 29.0819C34.6881 29.0819 34.2539 29.5161 34.2539 30.0517C34.2539 30.5873 34.6881 31.0215 35.2237 31.0215C35.7593 31.0215 36.1935 30.5873 36.1935 30.0517Z" fill="#111111"/>
<path id="Vector_44" d="M38.7795 30.0517C38.7795 29.5161 38.3453 29.0819 37.8097 29.0819C37.274 29.0819 36.8398 29.5161 36.8398 30.0517C36.8398 30.5873 37.274 31.0215 37.8097 31.0215C38.3453 31.0215 38.7795 30.5873 38.7795 30.0517Z" fill="#111111"/>
<path id="Vector_45" d="M41.3654 30.0517C41.3654 29.5161 40.9312 29.0819 40.3956 29.0819C39.86 29.0819 39.4258 29.5161 39.4258 30.0517C39.4258 30.5873 39.86 31.0215 40.3956 31.0215C40.9312 31.0215 41.3654 30.5873 41.3654 30.0517Z" fill="#111111"/>
<path id="Vector_46" d="M43.9514 30.0517C43.9514 29.5161 43.5171 29.0819 42.9815 29.0819C42.4459 29.0819 42.0117 29.5161 42.0117 30.0517C42.0117 30.5873 42.4459 31.0215 42.9815 31.0215C43.5171 31.0215 43.9514 30.5873 43.9514 30.0517Z" fill="#111111"/>
<path id="Vector_47" d="M46.5392 30.0517C46.5392 29.5161 46.105 29.0819 45.5694 29.0819C45.0338 29.0819 44.5996 29.5161 44.5996 30.0517C44.5996 30.5873 45.0338 31.0215 45.5694 31.0215C46.105 31.0215 46.5392 30.5873 46.5392 30.0517Z" fill="#111111"/>
<path id="Vector_48" d="M51.7092 30.0517C51.7092 29.5161 51.275 29.0819 50.7393 29.0819C50.2037 29.0819 49.7695 29.5161 49.7695 30.0517C49.7695 30.5873 50.2037 31.0215 50.7393 31.0215C51.275 31.0215 51.7092 30.5873 51.7092 30.0517Z" fill="#111111"/>
<path id="Vector_49" d="M54.299 30.0517C54.299 29.5161 53.8648 29.0819 53.3292 29.0819C52.7936 29.0819 52.3594 29.5161 52.3594 30.0517C52.3594 30.5873 52.7936 31.0215 53.3292 31.0215C53.8648 31.0215 54.299 30.5873 54.299 30.0517Z" fill="#111111"/>
<path id="Vector_50" d="M56.881 30.0517C56.881 29.5161 56.4468 29.0819 55.9112 29.0819C55.3756 29.0819 54.9414 29.5161 54.9414 30.0517C54.9414 30.5873 55.3756 31.0215 55.9112 31.0215C56.4468 31.0215 56.881 30.5873 56.881 30.0517Z" fill="#111111"/>
<path id="Vector_51" d="M59.467 30.0517C59.467 29.5161 59.0328 29.0819 58.4972 29.0819C57.9615 29.0819 57.5273 29.5161 57.5273 30.0517C57.5273 30.5873 57.9615 31.0215 58.4972 31.0215C59.0328 31.0215 59.467 30.5873 59.467 30.0517Z" fill="#111111"/>
<path id="Vector_52" d="M64.6428 30.0517C64.6428 29.5161 64.2086 29.0819 63.6729 29.0819C63.1373 29.0819 62.7031 29.5161 62.7031 30.0517C62.7031 30.5873 63.1373 31.0215 63.6729 31.0215C64.2086 31.0215 64.6428 30.5873 64.6428 30.0517Z" fill="#111111"/>
<path id="Vector_53" d="M67.2267 30.0517C67.2267 29.5161 66.7925 29.0819 66.2569 29.0819C65.7213 29.0819 65.2871 29.5161 65.2871 30.0517C65.2871 30.5873 65.7213 31.0215 66.2569 31.0215C66.7925 31.0215 67.2267 30.5873 67.2267 30.0517Z" fill="#111111"/>
<path id="Vector_54" d="M72.3967 30.0517C72.3967 29.5161 71.9625 29.0819 71.4268 29.0819C70.8912 29.0819 70.457 29.5161 70.457 30.0517C70.457 30.5873 70.8912 31.0215 71.4268 31.0215C71.9625 31.0215 72.3967 30.5873 72.3967 30.0517Z" fill="#111111"/>
<path id="Vector_55" d="M10.3303 32.6381C10.3303 32.1024 9.89605 31.6682 9.36044 31.6682C8.82483 31.6682 8.39062 32.1024 8.39062 32.6381C8.39062 33.1737 8.82483 33.6079 9.36044 33.6079C9.89605 33.6079 10.3303 33.1737 10.3303 32.6381Z" fill="#111111"/>
<path id="Vector_56" d="M12.9162 32.6381C12.9162 32.1024 12.482 31.6682 11.9464 31.6682C11.4108 31.6682 10.9766 32.1024 10.9766 32.6381C10.9766 33.1737 11.4108 33.6079 11.9464 33.6079C12.482 33.6079 12.9162 33.1737 12.9162 32.6381Z" fill="#111111"/>
<path id="Vector_57" d="M15.506 32.6381C15.506 32.1024 15.0718 31.6682 14.5362 31.6682C14.0006 31.6682 13.5664 32.1024 13.5664 32.6381C13.5664 33.1737 14.0006 33.6079 14.5362 33.6079C15.0718 33.6079 15.506 33.1737 15.506 32.6381Z" fill="#111111"/>
<path id="Vector_58" d="M18.0881 32.6381C18.0881 32.1024 17.6539 31.6682 17.1183 31.6682C16.5826 31.6682 16.1484 32.1024 16.1484 32.6381C16.1484 33.1737 16.5826 33.6079 17.1183 33.6079C17.6539 33.6079 18.0881 33.1737 18.0881 32.6381Z" fill="#111111"/>
<path id="Vector_59" d="M33.6056 32.6381C33.6056 32.1024 33.1714 31.6682 32.6358 31.6682C32.1002 31.6682 31.666 32.1024 31.666 32.6381C31.666 33.1737 32.1002 33.6079 32.6358 33.6079C33.1714 33.6079 33.6056 33.1737 33.6056 32.6381Z" fill="#111111"/>
<path id="Vector_60" d="M41.3654 32.6381C41.3654 32.1024 40.9312 31.6682 40.3956 31.6682C39.86 31.6682 39.4258 32.1024 39.4258 32.6381C39.4258 33.1737 39.86 33.6079 40.3956 33.6079C40.9312 33.6079 41.3654 33.1737 41.3654 32.6381Z" fill="#111111"/>
<path id="Vector_61" d="M51.7092 32.6381C51.7092 32.1024 51.275 31.6682 50.7393 31.6682C50.2037 31.6682 49.7695 32.1024 49.7695 32.6381C49.7695 33.1737 50.2037 33.6079 50.7393 33.6079C51.275 33.6079 51.7092 33.1737 51.7092 32.6381Z" fill="#111111"/>
<path id="Vector_62" d="M54.299 32.6381C54.299 32.1024 53.8648 31.6682 53.3292 31.6682C52.7936 31.6682 52.3594 32.1024 52.3594 32.6381C52.3594 33.1737 52.7936 33.6079 53.3292 33.6079C53.8648 33.6079 54.299 33.1737 54.299 32.6381Z" fill="#111111"/>
<path id="Vector_63" d="M56.881 32.6381C56.881 32.1024 56.4468 31.6682 55.9112 31.6682C55.3756 31.6682 54.9414 32.1024 54.9414 32.6381C54.9414 33.1737 55.3756 33.6079 55.9112 33.6079C56.4468 33.6079 56.881 33.1737 56.881 32.6381Z" fill="#111111"/>
<path id="Vector_64" d="M72.3967 32.6381C72.3967 32.1024 71.9625 31.6682 71.4268 31.6682C70.8912 31.6682 70.457 32.1024 70.457 32.6381C70.457 33.1737 70.8912 33.6079 71.4268 33.6079C71.9625 33.6079 72.3967 33.1737 72.3967 32.6381Z" fill="#111111"/>
<path id="Vector_65" d="M10.3303 35.2242C10.3303 34.6886 9.89605 34.2544 9.36044 34.2544C8.82483 34.2544 8.39062 34.6886 8.39062 35.2242C8.39062 35.7599 8.82483 36.1941 9.36044 36.1941C9.89605 36.1941 10.3303 35.7599 10.3303 35.2242Z" fill="#111111"/>
<path id="Vector_66" d="M12.9162 35.2242C12.9162 34.6886 12.482 34.2544 11.9464 34.2544C11.4108 34.2544 10.9766 34.6886 10.9766 35.2242C10.9766 35.7599 11.4108 36.1941 11.9464 36.1941C12.482 36.1941 12.9162 35.7599 12.9162 35.2242Z" fill="#111111"/>
<path id="Vector_67" d="M18.0881 35.2242C18.0881 34.6886 17.6539 34.2544 17.1183 34.2544C16.5826 34.2544 16.1484 34.6886 16.1484 35.2242C16.1484 35.7599 16.5826 36.1941 17.1183 36.1941C17.6539 36.1941 18.0881 35.7599 18.0881 35.2242Z" fill="#111111"/>
<path id="Vector_68" d="M20.674 35.2242C20.674 34.6886 20.2398 34.2544 19.7042 34.2544C19.1686 34.2544 18.7344 34.6886 18.7344 35.2242C18.7344 35.7599 19.1686 36.1941 19.7042 36.1941C20.2398 36.1941 20.674 35.7599 20.674 35.2242Z" fill="#111111"/>
<path id="Vector_69" d="M23.2599 35.2242C23.2599 34.6886 22.8257 34.2544 22.2901 34.2544C21.7545 34.2544 21.3203 34.6886 21.3203 35.2242C21.3203 35.7599 21.7545 36.1941 22.2901 36.1941C22.8257 36.1941 23.2599 35.7599 23.2599 35.2242Z" fill="#111111"/>
<path id="Vector_70" d="M25.8478 35.2242C25.8478 34.6886 25.4136 34.2544 24.878 34.2544C24.3424 34.2544 23.9082 34.6886 23.9082 35.2242C23.9082 35.7599 24.3424 36.1941 24.878 36.1941C25.4136 36.1941 25.8478 35.7599 25.8478 35.2242Z" fill="#111111"/>
<path id="Vector_71" d="M31.0197 35.2242C31.0197 34.6886 30.5855 34.2544 30.0499 34.2544C29.5143 34.2544 29.0801 34.6886 29.0801 35.2242C29.0801 35.7599 29.5143 36.1941 30.0499 36.1941C30.5855 36.1941 31.0197 35.7599 31.0197 35.2242Z" fill="#111111"/>
<path id="Vector_72" d="M33.6056 35.2242C33.6056 34.6886 33.1714 34.2544 32.6358 34.2544C32.1002 34.2544 31.666 34.6886 31.666 35.2242C31.666 35.7599 32.1002 36.1941 32.6358 36.1941C33.1714 36.1941 33.6056 35.7599 33.6056 35.2242Z" fill="#111111"/>
<path id="Vector_73" d="M43.9514 35.2242C43.9514 34.6886 43.5171 34.2544 42.9815 34.2544C42.4459 34.2544 42.0117 34.6886 42.0117 35.2242C42.0117 35.7599 42.4459 36.1941 42.9815 36.1941C43.5171 36.1941 43.9514 35.7599 43.9514 35.2242Z" fill="#111111"/>
<path id="Vector_74" d="M51.7092 35.2242C51.7092 34.6886 51.275 34.2544 50.7393 34.2544C50.2037 34.2544 49.7695 34.6886 49.7695 35.2242C49.7695 35.7599 50.2037 36.1941 50.7393 36.1941C51.275 36.1941 51.7092 35.7599 51.7092 35.2242Z" fill="#111111"/>
<path id="Vector_75" d="M54.299 35.2242C54.299 34.6886 53.8648 34.2544 53.3292 34.2544C52.7936 34.2544 52.3594 34.6886 52.3594 35.2242C52.3594 35.7599 52.7936 36.1941 53.3292 36.1941C53.8648 36.1941 54.299 35.7599 54.299 35.2242Z" fill="#111111"/>
<path id="Vector_76" d="M56.881 35.2242C56.881 34.6886 56.4468 34.2544 55.9112 34.2544C55.3756 34.2544 54.9414 34.6886 54.9414 35.2242C54.9414 35.7599 55.3756 36.1941 55.9112 36.1941C56.4468 36.1941 56.881 35.7599 56.881 35.2242Z" fill="#111111"/>
<path id="Vector_77" d="M59.467 35.2242C59.467 34.6886 59.0328 34.2544 58.4972 34.2544C57.9615 34.2544 57.5273 34.6886 57.5273 35.2242C57.5273 35.7599 57.9615 36.1941 58.4972 36.1941C59.0328 36.1941 59.467 35.7599 59.467 35.2242Z" fill="#111111"/>
<path id="Vector_78" d="M69.8127 35.2242C69.8127 34.6886 69.3785 34.2544 68.8429 34.2544C68.3072 34.2544 67.873 34.6886 67.873 35.2242C67.873 35.7599 68.3072 36.1941 68.8429 36.1941C69.3785 36.1941 69.8127 35.7599 69.8127 35.2242Z" fill="#111111"/>
<path id="Vector_79" d="M72.3967 35.2242C72.3967 34.6886 71.9625 34.2544 71.4268 34.2544C70.8912 34.2544 70.457 34.6886 70.457 35.2242C70.457 35.7599 70.8912 36.1941 71.4268 36.1941C71.9625 36.1941 72.3967 35.7599 72.3967 35.2242Z" fill="#111111"/>
<path id="Vector_80" d="M15.506 37.8104C15.506 37.2748 15.0718 36.8406 14.5362 36.8406C14.0006 36.8406 13.5664 37.2748 13.5664 37.8104C13.5664 38.346 14.0006 38.7802 14.5362 38.7802C15.0718 38.7802 15.506 38.346 15.506 37.8104Z" fill="#111111"/>
<path id="Vector_81" d="M18.0881 37.8104C18.0881 37.2748 17.6539 36.8406 17.1183 36.8406C16.5826 36.8406 16.1484 37.2748 16.1484 37.8104C16.1484 38.346 16.5826 38.7802 17.1183 38.7802C17.6539 38.7802 18.0881 38.346 18.0881 37.8104Z" fill="#111111"/>
<path id="Vector_82" d="M20.674 37.8104C20.674 37.2748 20.2398 36.8406 19.7042 36.8406C19.1686 36.8406 18.7344 37.2748 18.7344 37.8104C18.7344 38.346 19.1686 38.7802 19.7042 38.7802C20.2398 38.7802 20.674 38.346 20.674 37.8104Z" fill="#111111"/>
<path id="Vector_83" d="M23.2599 37.8104C23.2599 37.2748 22.8257 36.8406 22.2901 36.8406C21.7545 36.8406 21.3203 37.2748 21.3203 37.8104C21.3203 38.346 21.7545 38.7802 22.2901 38.7802C22.8257 38.7802 23.2599 38.346 23.2599 37.8104Z" fill="#111111"/>
<path id="Vector_84" d="M31.0197 37.8104C31.0197 37.2748 30.5855 36.8406 30.0499 36.8406C29.5143 36.8406 29.0801 37.2748 29.0801 37.8104C29.0801 38.346 29.5143 38.7802 30.0499 38.7802C30.5855 38.7802 31.0197 38.346 31.0197 37.8104Z" fill="#111111"/>
<path id="Vector_85" d="M38.7795 37.8104C38.7795 37.2748 38.3453 36.8406 37.8097 36.8406C37.274 36.8406 36.8398 37.2748 36.8398 37.8104C36.8398 38.346 37.274 38.7802 37.8097 38.7802C38.3453 38.7802 38.7795 38.346 38.7795 37.8104Z" fill="#111111"/>
<path id="Vector_86" d="M43.9514 37.8104C43.9514 37.2748 43.5171 36.8406 42.9815 36.8406C42.4459 36.8406 42.0117 37.2748 42.0117 37.8104C42.0117 38.346 42.4459 38.7802 42.9815 38.7802C43.5171 38.7802 43.9514 38.346 43.9514 37.8104Z" fill="#111111"/>
<path id="Vector_87" d="M49.1232 37.8104C49.1232 37.2748 48.689 36.8406 48.1534 36.8406C47.6178 36.8406 47.1836 37.2748 47.1836 37.8104C47.1836 38.346 47.6178 38.7802 48.1534 38.7802C48.689 38.7802 49.1232 38.346 49.1232 37.8104Z" fill="#111111"/>
<path id="Vector_88" d="M59.467 37.8104C59.467 37.2748 59.0328 36.8406 58.4972 36.8406C57.9615 36.8406 57.5273 37.2748 57.5273 37.8104C57.5273 38.346 57.9615 38.7802 58.4972 38.7802C59.0328 38.7802 59.467 38.346 59.467 37.8104Z" fill="#111111"/>
<path id="Vector_89" d="M62.0529 37.8104C62.0529 37.2748 61.6187 36.8406 61.0831 36.8406C60.5475 36.8406 60.1133 37.2748 60.1133 37.8104C60.1133 38.346 60.5475 38.7802 61.0831 38.7802C61.6187 38.7802 62.0529 38.346 62.0529 37.8104Z" fill="#111111"/>
<path id="Vector_90" d="M10.3303 40.3966C10.3303 39.861 9.89605 39.4268 9.36044 39.4268C8.82483 39.4268 8.39062 39.861 8.39062 40.3966C8.39062 40.9322 8.82483 41.3664 9.36044 41.3664C9.89605 41.3664 10.3303 40.9322 10.3303 40.3966Z" fill="#111111"/>
<path id="Vector_91" d="M20.674 40.3966C20.674 39.861 20.2398 39.4268 19.7042 39.4268C19.1686 39.4268 18.7344 39.861 18.7344 40.3966C18.7344 40.9322 19.1686 41.3664 19.7042 41.3664C20.2398 41.3664 20.674 40.9322 20.674 40.3966Z" fill="#111111"/>
<path id="Vector_92" d="M25.8478 40.3966C25.8478 39.861 25.4136 39.4268 24.878 39.4268C24.3424 39.4268 23.9082 39.861 23.9082 40.3966C23.9082 40.9322 24.3424 41.3664 24.878 41.3664C25.4136 41.3664 25.8478 40.9322 25.8478 40.3966Z" fill="#111111"/>
<path id="Vector_93" d="M28.4338 40.3966C28.4338 39.861 27.9996 39.4268 27.464 39.4268C26.9283 39.4268 26.4941 39.861 26.4941 40.3966C26.4941 40.9322 26.9283 41.3664 27.464 41.3664C27.9996 41.3664 28.4338 40.9322 28.4338 40.3966Z" fill="#111111"/>
<path id="Vector_94" d="M31.0197 40.3966C31.0197 39.861 30.5855 39.4268 30.0499 39.4268C29.5143 39.4268 29.0801 39.861 29.0801 40.3966C29.0801 40.9322 29.5143 41.3664 30.0499 41.3664C30.5855 41.3664 31.0197 40.9322 31.0197 40.3966Z" fill="#111111"/>
<path id="Vector_95" d="M36.1935 40.3966C36.1935 39.861 35.7593 39.4268 35.2237 39.4268C34.6881 39.4268 34.2539 39.861 34.2539 40.3966C34.2539 40.9322 34.6881 41.3664 35.2237 41.3664C35.7593 41.3664 36.1935 40.9322 36.1935 40.3966Z" fill="#111111"/>
<path id="Vector_96" d="M38.7795 40.3966C38.7795 39.861 38.3453 39.4268 37.8097 39.4268C37.274 39.4268 36.8398 39.861 36.8398 40.3966C36.8398 40.9322 37.274 41.3664 37.8097 41.3664C38.3453 41.3664 38.7795 40.9322 38.7795 40.3966Z" fill="#111111"/>
<path id="Vector_97" d="M41.3654 40.3966C41.3654 39.861 40.9312 39.4268 40.3956 39.4268C39.86 39.4268 39.4258 39.861 39.4258 40.3966C39.4258 40.9322 39.86 41.3664 40.3956 41.3664C40.9312 41.3664 41.3654 40.9322 41.3654 40.3966Z" fill="#111111"/>
<path id="Vector_98" d="M46.5392 40.3966C46.5392 39.861 46.105 39.4268 45.5694 39.4268C45.0338 39.4268 44.5996 39.861 44.5996 40.3966C44.5996 40.9322 45.0338 41.3664 45.5694 41.3664C46.105 41.3664 46.5392 40.9322 46.5392 40.3966Z" fill="#111111"/>
<path id="Vector_99" d="M49.1232 40.3966C49.1232 39.861 48.689 39.4268 48.1534 39.4268C47.6178 39.4268 47.1836 39.861 47.1836 40.3966C47.1836 40.9322 47.6178 41.3664 48.1534 41.3664C48.689 41.3664 49.1232 40.9322 49.1232 40.3966Z" fill="#111111"/>
<path id="Vector_100" d="M51.7092 40.3966C51.7092 39.861 51.275 39.4268 50.7393 39.4268C50.2037 39.4268 49.7695 39.861 49.7695 40.3966C49.7695 40.9322 50.2037 41.3664 50.7393 41.3664C51.275 41.3664 51.7092 40.9322 51.7092 40.3966Z" fill="#111111"/>
<path id="Vector_101" d="M54.299 40.3966C54.299 39.861 53.8648 39.4268 53.3292 39.4268C52.7936 39.4268 52.3594 39.861 52.3594 40.3966C52.3594 40.9322 52.7936 41.3664 53.3292 41.3664C53.8648 41.3664 54.299 40.9322 54.299 40.3966Z" fill="#111111"/>
<path id="Vector_102" d="M56.881 40.3966C56.881 39.861 56.4468 39.4268 55.9112 39.4268C55.3756 39.4268 54.9414 39.861 54.9414 40.3966C54.9414 40.9322 55.3756 41.3664 55.9112 41.3664C56.4468 41.3664 56.881 40.9322 56.881 40.3966Z" fill="#111111"/>
<path id="Vector_103" d="M59.467 40.3966C59.467 39.861 59.0328 39.4268 58.4972 39.4268C57.9615 39.4268 57.5273 39.861 57.5273 40.3966C57.5273 40.9322 57.9615 41.3664 58.4972 41.3664C59.0328 41.3664 59.467 40.9322 59.467 40.3966Z" fill="#111111"/>
<path id="Vector_104" d="M64.6428 40.3966C64.6428 39.861 64.2086 39.4268 63.6729 39.4268C63.1373 39.4268 62.7031 39.861 62.7031 40.3966C62.7031 40.9322 63.1373 41.3664 63.6729 41.3664C64.2086 41.3664 64.6428 40.9322 64.6428 40.3966Z" fill="#111111"/>
<path id="Vector_105" d="M69.8127 40.3966C69.8127 39.861 69.3785 39.4268 68.8429 39.4268C68.3072 39.4268 67.873 39.861 67.873 40.3966C67.873 40.9322 68.3072 41.3664 68.8429 41.3664C69.3785 41.3664 69.8127 40.9322 69.8127 40.3966Z" fill="#111111"/>
<path id="Vector_106" d="M72.3967 40.3966C72.3967 39.861 71.9625 39.4268 71.4268 39.4268C70.8912 39.4268 70.457 39.861 70.457 40.3966C70.457 40.9322 70.8912 41.3664 71.4268 41.3664C71.9625 41.3664 72.3967 40.9322 72.3967 40.3966Z" fill="#111111"/>
<path id="Vector_107" d="M12.9162 42.9828C12.9162 42.4472 12.482 42.013 11.9464 42.013C11.4108 42.013 10.9766 42.4472 10.9766 42.9828C10.9766 43.5184 11.4108 43.9526 11.9464 43.9526C12.482 43.9526 12.9162 43.5184 12.9162 42.9828Z" fill="#111111"/>
<path id="Vector_108" d="M18.0881 42.9828C18.0881 42.4472 17.6539 42.013 17.1183 42.013C16.5826 42.013 16.1484 42.4472 16.1484 42.9828C16.1484 43.5184 16.5826 43.9526 17.1183 43.9526C17.6539 43.9526 18.0881 43.5184 18.0881 42.9828Z" fill="#111111"/>
<path id="Vector_109" d="M20.674 42.9828C20.674 42.4472 20.2398 42.013 19.7042 42.013C19.1686 42.013 18.7344 42.4472 18.7344 42.9828C18.7344 43.5184 19.1686 43.9526 19.7042 43.9526C20.2398 43.9526 20.674 43.5184 20.674 42.9828Z" fill="#111111"/>
<path id="Vector_110" d="M23.2599 42.9828C23.2599 42.4472 22.8257 42.013 22.2901 42.013C21.7545 42.013 21.3203 42.4472 21.3203 42.9828C21.3203 43.5184 21.7545 43.9526 22.2901 43.9526C22.8257 43.9526 23.2599 43.5184 23.2599 42.9828Z" fill="#111111"/>
<path id="Vector_111" d="M33.6056 42.9828C33.6056 42.4472 33.1714 42.013 32.6358 42.013C32.1002 42.013 31.666 42.4472 31.666 42.9828C31.666 43.5184 32.1002 43.9526 32.6358 43.9526C33.1714 43.9526 33.6056 43.5184 33.6056 42.9828Z" fill="#111111"/>
<path id="Vector_112" d="M36.1935 42.9828C36.1935 42.4472 35.7593 42.013 35.2237 42.013C34.6881 42.013 34.2539 42.4472 34.2539 42.9828C34.2539 43.5184 34.6881 43.9526 35.2237 43.9526C35.7593 43.9526 36.1935 43.5184 36.1935 42.9828Z" fill="#111111"/>
<path id="Vector_113" d="M38.7795 42.9828C38.7795 42.4472 38.3453 42.013 37.8097 42.013C37.274 42.013 36.8398 42.4472 36.8398 42.9828C36.8398 43.5184 37.274 43.9526 37.8097 43.9526C38.3453 43.9526 38.7795 43.5184 38.7795 42.9828Z" fill="#111111"/>
<path id="Vector_114" d="M43.9514 42.9828C43.9514 42.4472 43.5171 42.013 42.9815 42.013C42.4459 42.013 42.0117 42.4472 42.0117 42.9828C42.0117 43.5184 42.4459 43.9526 42.9815 43.9526C43.5171 43.9526 43.9514 43.5184 43.9514 42.9828Z" fill="#111111"/>
<path id="Vector_115" d="M54.299 42.9828C54.299 42.4472 53.8648 42.013 53.3292 42.013C52.7936 42.013 52.3594 42.4472 52.3594 42.9828C52.3594 43.5184 52.7936 43.9526 53.3292 43.9526C53.8648 43.9526 54.299 43.5184 54.299 42.9828Z" fill="#111111"/>
<path id="Vector_116" d="M56.881 42.9828C56.881 42.4472 56.4468 42.013 55.9112 42.013C55.3756 42.013 54.9414 42.4472 54.9414 42.9828C54.9414 43.5184 55.3756 43.9526 55.9112 43.9526C56.4468 43.9526 56.881 43.5184 56.881 42.9828Z" fill="#111111"/>
<path id="Vector_117" d="M59.467 42.9828C59.467 42.4472 59.0328 42.013 58.4972 42.013C57.9615 42.013 57.5273 42.4472 57.5273 42.9828C57.5273 43.5184 57.9615 43.9526 58.4972 43.9526C59.0328 43.9526 59.467 43.5184 59.467 42.9828Z" fill="#111111"/>
<path id="Vector_118" d="M64.6428 42.9828C64.6428 42.4472 64.2086 42.013 63.6729 42.013C63.1373 42.013 62.7031 42.4472 62.7031 42.9828C62.7031 43.5184 63.1373 43.9526 63.6729 43.9526C64.2086 43.9526 64.6428 43.5184 64.6428 42.9828Z" fill="#111111"/>
<path id="Vector_119" d="M67.2267 42.9828C67.2267 42.4472 66.7925 42.013 66.2569 42.013C65.7213 42.013 65.2871 42.4472 65.2871 42.9828C65.2871 43.5184 65.7213 43.9526 66.2569 43.9526C66.7925 43.9526 67.2267 43.5184 67.2267 42.9828Z" fill="#111111"/>
<path id="Vector_120" d="M72.3967 42.9828C72.3967 42.4472 71.9625 42.013 71.4268 42.013C70.8912 42.013 70.457 42.4472 70.457 42.9828C70.457 43.5184 70.8912 43.9526 71.4268 43.9526C71.9625 43.9526 72.3967 43.5184 72.3967 42.9828Z" fill="#111111"/>
<path id="Vector_121" d="M10.3303 45.569C10.3303 45.0333 9.89605 44.5991 9.36044 44.5991C8.82483 44.5991 8.39062 45.0333 8.39062 45.569C8.39062 46.1046 8.82483 46.5388 9.36044 46.5388C9.89605 46.5388 10.3303 46.1046 10.3303 45.569Z" fill="#111111"/>
<path id="Vector_122" d="M18.0881 45.569C18.0881 45.0333 17.6539 44.5991 17.1183 44.5991C16.5826 44.5991 16.1484 45.0333 16.1484 45.569C16.1484 46.1046 16.5826 46.5388 17.1183 46.5388C17.6539 46.5388 18.0881 46.1046 18.0881 45.569Z" fill="#111111"/>
<path id="Vector_123" d="M20.674 45.569C20.674 45.0333 20.2398 44.5991 19.7042 44.5991C19.1686 44.5991 18.7344 45.0333 18.7344 45.569C18.7344 46.1046 19.1686 46.5388 19.7042 46.5388C20.2398 46.5388 20.674 46.1046 20.674 45.569Z" fill="#111111"/>
<path id="Vector_124" d="M23.2599 45.569C23.2599 45.0333 22.8257 44.5991 22.2901 44.5991C21.7545 44.5991 21.3203 45.0333 21.3203 45.569C21.3203 46.1046 21.7545 46.5388 22.2901 46.5388C22.8257 46.5388 23.2599 46.1046 23.2599 45.569Z" fill="#111111"/>
<path id="Vector_125" d="M25.8478 45.569C25.8478 45.0333 25.4136 44.5991 24.878 44.5991C24.3424 44.5991 23.9082 45.0333 23.9082 45.569C23.9082 46.1046 24.3424 46.5388 24.878 46.5388C25.4136 46.5388 25.8478 46.1046 25.8478 45.569Z" fill="#111111"/>
<path id="Vector_126" d="M28.4338 45.569C28.4338 45.0333 27.9996 44.5991 27.464 44.5991C26.9283 44.5991 26.4941 45.0333 26.4941 45.569C26.4941 46.1046 26.9283 46.5388 27.464 46.5388C27.9996 46.5388 28.4338 46.1046 28.4338 45.569Z" fill="#111111"/>
<path id="Vector_127" d="M36.1935 45.569C36.1935 45.0333 35.7593 44.5991 35.2237 44.5991C34.6881 44.5991 34.2539 45.0333 34.2539 45.569C34.2539 46.1046 34.6881 46.5388 35.2237 46.5388C35.7593 46.5388 36.1935 46.1046 36.1935 45.569Z" fill="#111111"/>
<path id="Vector_128" d="M38.7795 45.569C38.7795 45.0333 38.3453 44.5991 37.8097 44.5991C37.274 44.5991 36.8398 45.0333 36.8398 45.569C36.8398 46.1046 37.274 46.5388 37.8097 46.5388C38.3453 46.5388 38.7795 46.1046 38.7795 45.569Z" fill="#111111"/>
<path id="Vector_129" d="M43.9514 45.569C43.9514 45.0333 43.5171 44.5991 42.9815 44.5991C42.4459 44.5991 42.0117 45.0333 42.0117 45.569C42.0117 46.1046 42.4459 46.5388 42.9815 46.5388C43.5171 46.5388 43.9514 46.1046 43.9514 45.569Z" fill="#111111"/>
<path id="Vector_130" d="M46.5392 45.569C46.5392 45.0333 46.105 44.5991 45.5694 44.5991C45.0338 44.5991 44.5996 45.0333 44.5996 45.569C44.5996 46.1046 45.0338 46.5388 45.5694 46.5388C46.105 46.5388 46.5392 46.1046 46.5392 45.569Z" fill="#111111"/>
<path id="Vector_131" d="M51.7092 45.569C51.7092 45.0333 51.275 44.5991 50.7393 44.5991C50.2037 44.5991 49.7695 45.0333 49.7695 45.569C49.7695 46.1046 50.2037 46.5388 50.7393 46.5388C51.275 46.5388 51.7092 46.1046 51.7092 45.569Z" fill="#111111"/>
<path id="Vector_132" d="M56.881 45.569C56.881 45.0333 56.4468 44.5991 55.9112 44.5991C55.3756 44.5991 54.9414 45.0333 54.9414 45.569C54.9414 46.1046 55.3756 46.5388 55.9112 46.5388C56.4468 46.5388 56.881 46.1046 56.881 45.569Z" fill="#111111"/>
<path id="Vector_133" d="M59.467 45.569C59.467 45.0333 59.0328 44.5991 58.4972 44.5991C57.9615 44.5991 57.5273 45.0333 57.5273 45.569C57.5273 46.1046 57.9615 46.5388 58.4972 46.5388C59.0328 46.5388 59.467 46.1046 59.467 45.569Z" fill="#111111"/>
<path id="Vector_134" d="M62.0529 45.569C62.0529 45.0333 61.6187 44.5991 61.0831 44.5991C60.5475 44.5991 60.1133 45.0333 60.1133 45.569C60.1133 46.1046 60.5475 46.5388 61.0831 46.5388C61.6187 46.5388 62.0529 46.1046 62.0529 45.569Z" fill="#111111"/>
<path id="Vector_135" d="M67.2267 45.569C67.2267 45.0333 66.7925 44.5991 66.2569 44.5991C65.7213 44.5991 65.2871 45.0333 65.2871 45.569C65.2871 46.1046 65.7213 46.5388 66.2569 46.5388C66.7925 46.5388 67.2267 46.1046 67.2267 45.569Z" fill="#111111"/>
<path id="Vector_136" d="M72.3967 45.569C72.3967 45.0333 71.9625 44.5991 71.4268 44.5991C70.8912 44.5991 70.457 45.0333 70.457 45.569C70.457 46.1046 70.8912 46.5388 71.4268 46.5388C71.9625 46.5388 72.3967 46.1046 72.3967 45.569Z" fill="#111111"/>
<path id="Vector_137" d="M12.9162 48.1548C12.9162 47.6192 12.482 47.185 11.9464 47.185C11.4108 47.185 10.9766 47.6192 10.9766 48.1548C10.9766 48.6904 11.4108 49.1246 11.9464 49.1246C12.482 49.1246 12.9162 48.6904 12.9162 48.1548Z" fill="#111111"/>
<path id="Vector_138" d="M18.0881 48.1548C18.0881 47.6192 17.6539 47.185 17.1183 47.185C16.5826 47.185 16.1484 47.6192 16.1484 48.1548C16.1484 48.6904 16.5826 49.1246 17.1183 49.1246C17.6539 49.1246 18.0881 48.6904 18.0881 48.1548Z" fill="#111111"/>
<path id="Vector_139" d="M23.2599 48.1548C23.2599 47.6192 22.8257 47.185 22.2901 47.185C21.7545 47.185 21.3203 47.6192 21.3203 48.1548C21.3203 48.6904 21.7545 49.1246 22.2901 49.1246C22.8257 49.1246 23.2599 48.6904 23.2599 48.1548Z" fill="#111111"/>
<path id="Vector_140" d="M28.4338 48.1548C28.4338 47.6192 27.9996 47.185 27.464 47.185C26.9283 47.185 26.4941 47.6192 26.4941 48.1548C26.4941 48.6904 26.9283 49.1246 27.464 49.1246C27.9996 49.1246 28.4338 48.6904 28.4338 48.1548Z" fill="#111111"/>
<path id="Vector_141" d="M31.0197 48.1548C31.0197 47.6192 30.5855 47.185 30.0499 47.185C29.5143 47.185 29.0801 47.6192 29.0801 48.1548C29.0801 48.6904 29.5143 49.1246 30.0499 49.1246C30.5855 49.1246 31.0197 48.6904 31.0197 48.1548Z" fill="#111111"/>
<path id="Vector_142" d="M41.3654 48.1548C41.3654 47.6192 40.9312 47.185 40.3956 47.185C39.86 47.185 39.4258 47.6192 39.4258 48.1548C39.4258 48.6904 39.86 49.1246 40.3956 49.1246C40.9312 49.1246 41.3654 48.6904 41.3654 48.1548Z" fill="#111111"/>
<path id="Vector_143" d="M46.5392 48.1548C46.5392 47.6192 46.105 47.185 45.5694 47.185C45.0338 47.185 44.5996 47.6192 44.5996 48.1548C44.5996 48.6904 45.0338 49.1246 45.5694 49.1246C46.105 49.1246 46.5392 48.6904 46.5392 48.1548Z" fill="#111111"/>
<path id="Vector_144" d="M51.7092 48.1548C51.7092 47.6192 51.275 47.185 50.7393 47.185C50.2037 47.185 49.7695 47.6192 49.7695 48.1548C49.7695 48.6904 50.2037 49.1246 50.7393 49.1246C51.275 49.1246 51.7092 48.6904 51.7092 48.1548Z" fill="#111111"/>
<path id="Vector_145" d="M62.0529 48.1548C62.0529 47.6192 61.6187 47.185 61.0831 47.185C60.5475 47.185 60.1133 47.6192 60.1133 48.1548C60.1133 48.6904 60.5475 49.1246 61.0831 49.1246C61.6187 49.1246 62.0529 48.6904 62.0529 48.1548Z" fill="#111111"/>
<path id="Vector_146" d="M64.6428 48.1548C64.6428 47.6192 64.2086 47.185 63.6729 47.185C63.1373 47.185 62.7031 47.6192 62.7031 48.1548C62.7031 48.6904 63.1373 49.1246 63.6729 49.1246C64.2086 49.1246 64.6428 48.6904 64.6428 48.1548Z" fill="#111111"/>
<path id="Vector_147" d="M69.8127 48.1548C69.8127 47.6192 69.3785 47.185 68.8429 47.185C68.3072 47.185 67.873 47.6192 67.873 48.1548C67.873 48.6904 68.3072 49.1246 68.8429 49.1246C69.3785 49.1246 69.8127 48.6904 69.8127 48.1548Z" fill="#111111"/>
<path id="Vector_148" d="M10.3303 50.7411C10.3303 50.2055 9.89605 49.7713 9.36044 49.7713C8.82483 49.7713 8.39062 50.2055 8.39062 50.7411C8.39062 51.2767 8.82483 51.711 9.36044 51.711C9.89605 51.711 10.3303 51.2767 10.3303 50.7411Z" fill="#111111"/>
<path id="Vector_149" d="M12.9162 50.7411C12.9162 50.2055 12.482 49.7713 11.9464 49.7713C11.4108 49.7713 10.9766 50.2055 10.9766 50.7411C10.9766 51.2767 11.4108 51.711 11.9464 51.711C12.482 51.711 12.9162 51.2767 12.9162 50.7411Z" fill="#111111"/>
<path id="Vector_150" d="M20.674 50.7411C20.674 50.2055 20.2398 49.7713 19.7042 49.7713C19.1686 49.7713 18.7344 50.2055 18.7344 50.7411C18.7344 51.2767 19.1686 51.711 19.7042 51.711C20.2398 51.711 20.674 51.2767 20.674 50.7411Z" fill="#111111"/>
<path id="Vector_151" d="M25.8478 50.7411C25.8478 50.2055 25.4136 49.7713 24.878 49.7713C24.3424 49.7713 23.9082 50.2055 23.9082 50.7411C23.9082 51.2767 24.3424 51.711 24.878 51.711C25.4136 51.711 25.8478 51.2767 25.8478 50.7411Z" fill="#111111"/>
<path id="Vector_152" d="M28.4338 50.7411C28.4338 50.2055 27.9996 49.7713 27.464 49.7713C26.9283 49.7713 26.4941 50.2055 26.4941 50.7411C26.4941 51.2767 26.9283 51.711 27.464 51.711C27.9996 51.711 28.4338 51.2767 28.4338 50.7411Z" fill="#111111"/>
<path id="Vector_153" d="M33.6056 50.7411C33.6056 50.2055 33.1714 49.7713 32.6358 49.7713C32.1002 49.7713 31.666 50.2055 31.666 50.7411C31.666 51.2767 32.1002 51.711 32.6358 51.711C33.1714 51.711 33.6056 51.2767 33.6056 50.7411Z" fill="#111111"/>
<path id="Vector_154" d="M41.3654 50.7411C41.3654 50.2055 40.9312 49.7713 40.3956 49.7713C39.86 49.7713 39.4258 50.2055 39.4258 50.7411C39.4258 51.2767 39.86 51.711 40.3956 51.711C40.9312 51.711 41.3654 51.2767 41.3654 50.7411Z" fill="#111111"/>
<path id="Vector_155" d="M43.9514 50.7411C43.9514 50.2055 43.5171 49.7713 42.9815 49.7713C42.4459 49.7713 42.0117 50.2055 42.0117 50.7411C42.0117 51.2767 42.4459 51.711 42.9815 51.711C43.5171 51.711 43.9514 51.2767 43.9514 50.7411Z" fill="#111111"/>
<path id="Vector_156" d="M51.7092 50.7411C51.7092 50.2055 51.275 49.7713 50.7393 49.7713C50.2037 49.7713 49.7695 50.2055 49.7695 50.7411C49.7695 51.2767 50.2037 51.711 50.7393 51.711C51.275 51.711 51.7092 51.2767 51.7092 50.7411Z" fill="#111111"/>
<path id="Vector_157" d="M54.299 50.7411C54.299 50.2055 53.8648 49.7713 53.3292 49.7713C52.7936 49.7713 52.3594 50.2055 52.3594 50.7411C52.3594 51.2767 52.7936 51.711 53.3292 51.711C53.8648 51.711 54.299 51.2767 54.299 50.7411Z" fill="#111111"/>
<path id="Vector_158" d="M56.881 50.7411C56.881 50.2055 56.4468 49.7713 55.9112 49.7713C55.3756 49.7713 54.9414 50.2055 54.9414 50.7411C54.9414 51.2767 55.3756 51.711 55.9112 51.711C56.4468 51.711 56.881 51.2767 56.881 50.7411Z" fill="#111111"/>
<path id="Vector_159" d="M59.467 50.7411C59.467 50.2055 59.0328 49.7713 58.4972 49.7713C57.9615 49.7713 57.5273 50.2055 57.5273 50.7411C57.5273 51.2767 57.9615 51.711 58.4972 51.711C59.0328 51.711 59.467 51.2767 59.467 50.7411Z" fill="#111111"/>
<path id="Vector_160" d="M62.0529 50.7411C62.0529 50.2055 61.6187 49.7713 61.0831 49.7713C60.5475 49.7713 60.1133 50.2055 60.1133 50.7411C60.1133 51.2767 60.5475 51.711 61.0831 51.711C61.6187 51.711 62.0529 51.2767 62.0529 50.7411Z" fill="#111111"/>
<path id="Vector_161" d="M64.6428 50.7411C64.6428 50.2055 64.2086 49.7713 63.6729 49.7713C63.1373 49.7713 62.7031 50.2055 62.7031 50.7411C62.7031 51.2767 63.1373 51.711 63.6729 51.711C64.2086 51.711 64.6428 51.2767 64.6428 50.7411Z" fill="#111111"/>
<path id="Vector_162" d="M67.2267 50.7411C67.2267 50.2055 66.7925 49.7713 66.2569 49.7713C65.7213 49.7713 65.2871 50.2055 65.2871 50.7411C65.2871 51.2767 65.7213 51.711 66.2569 51.711C66.7925 51.711 67.2267 51.2767 67.2267 50.7411Z" fill="#111111"/>
<path id="Vector_163" d="M31.0197 53.3273C31.0197 52.7917 30.5855 52.3575 30.0499 52.3575C29.5143 52.3575 29.0801 52.7917 29.0801 53.3273C29.0801 53.8629 29.5143 54.2971 30.0499 54.2971C30.5855 54.2971 31.0197 53.8629 31.0197 53.3273Z" fill="#111111"/>
<path id="Vector_164" d="M33.6056 53.3273C33.6056 52.7917 33.1714 52.3575 32.6358 52.3575C32.1002 52.3575 31.666 52.7917 31.666 53.3273C31.666 53.8629 32.1002 54.2971 32.6358 54.2971C33.1714 54.2971 33.6056 53.8629 33.6056 53.3273Z" fill="#111111"/>
<path id="Vector_165" d="M43.9514 53.3273C43.9514 52.7917 43.5171 52.3575 42.9815 52.3575C42.4459 52.3575 42.0117 52.7917 42.0117 53.3273C42.0117 53.8629 42.4459 54.2971 42.9815 54.2971C43.5171 54.2971 43.9514 53.8629 43.9514 53.3273Z" fill="#111111"/>
<path id="Vector_166" d="M49.1232 53.3273C49.1232 52.7917 48.689 52.3575 48.1534 52.3575C47.6178 52.3575 47.1836 52.7917 47.1836 53.3273C47.1836 53.8629 47.6178 54.2971 48.1534 54.2971C48.689 54.2971 49.1232 53.8629 49.1232 53.3273Z" fill="#111111"/>
<path id="Vector_167" d="M51.7092 53.3273C51.7092 52.7917 51.275 52.3575 50.7393 52.3575C50.2037 52.3575 49.7695 52.7917 49.7695 53.3273C49.7695 53.8629 50.2037 54.2971 50.7393 54.2971C51.275 54.2971 51.7092 53.8629 51.7092 53.3273Z" fill="#111111"/>
<path id="Vector_168" d="M62.0529 53.3273C62.0529 52.7917 61.6187 52.3575 61.0831 52.3575C60.5475 52.3575 60.1133 52.7917 60.1133 53.3273C60.1133 53.8629 60.5475 54.2971 61.0831 54.2971C61.6187 54.2971 62.0529 53.8629 62.0529 53.3273Z" fill="#111111"/>
<path id="Vector_169" d="M64.6428 53.3273C64.6428 52.7917 64.2086 52.3575 63.6729 52.3575C63.1373 52.3575 62.7031 52.7917 62.7031 53.3273C62.7031 53.8629 63.1373 54.2971 63.6729 54.2971C64.2086 54.2971 64.6428 53.8629 64.6428 53.3273Z" fill="#111111"/>
<path id="Vector_170" d="M67.2267 53.3273C67.2267 52.7917 66.7925 52.3575 66.2569 52.3575C65.7213 52.3575 65.2871 52.7917 65.2871 53.3273C65.2871 53.8629 65.7213 54.2971 66.2569 54.2971C66.7925 54.2971 67.2267 53.8629 67.2267 53.3273Z" fill="#111111"/>
<path id="Vector_171" d="M72.3967 53.3273C72.3967 52.7917 71.9625 52.3575 71.4268 52.3575C70.8912 52.3575 70.457 52.7917 70.457 53.3273C70.457 53.8629 70.8912 54.2971 71.4268 54.2971C71.9625 54.2971 72.3967 53.8629 72.3967 53.3273Z" fill="#111111"/>
<path id="Vector_172" d="M31.0197 55.9135C31.0197 55.3779 30.5855 54.9437 30.0499 54.9437C29.5143 54.9437 29.0801 55.3779 29.0801 55.9135C29.0801 56.4491 29.5143 56.8833 30.0499 56.8833C30.5855 56.8833 31.0197 56.4491 31.0197 55.9135Z" fill="#111111"/>
<path id="Vector_173" d="M38.7795 55.9135C38.7795 55.3779 38.3453 54.9437 37.8097 54.9437C37.274 54.9437 36.8398 55.3779 36.8398 55.9135C36.8398 56.4491 37.274 56.8833 37.8097 56.8833C38.3453 56.8833 38.7795 56.4491 38.7795 55.9135Z" fill="#111111"/>
<path id="Vector_174" d="M43.9514 55.9135C43.9514 55.3779 43.5171 54.9437 42.9815 54.9437C42.4459 54.9437 42.0117 55.3779 42.0117 55.9135C42.0117 56.4491 42.4459 56.8833 42.9815 56.8833C43.5171 56.8833 43.9514 56.4491 43.9514 55.9135Z" fill="#111111"/>
<path id="Vector_175" d="M49.1232 55.9135C49.1232 55.3779 48.689 54.9437 48.1534 54.9437C47.6178 54.9437 47.1836 55.3779 47.1836 55.9135C47.1836 56.4491 47.6178 56.8833 48.1534 56.8833C48.689 56.8833 49.1232 56.4491 49.1232 55.9135Z" fill="#111111"/>
<path id="Vector_176" d="M51.7092 55.9135C51.7092 55.3779 51.275 54.9437 50.7393 54.9437C50.2037 54.9437 49.7695 55.3779 49.7695 55.9135C49.7695 56.4491 50.2037 56.8833 50.7393 56.8833C51.275 56.8833 51.7092 56.4491 51.7092 55.9135Z" fill="#111111"/>
<path id="Vector_177" d="M56.881 55.9135C56.881 55.3779 56.4468 54.9437 55.9112 54.9437C55.3756 54.9437 54.9414 55.3779 54.9414 55.9135C54.9414 56.4491 55.3756 56.8833 55.9112 56.8833C56.4468 56.8833 56.881 56.4491 56.881 55.9135Z" fill="#111111"/>
<path id="Vector_178" d="M62.0529 55.9135C62.0529 55.3779 61.6187 54.9437 61.0831 54.9437C60.5475 54.9437 60.1133 55.3779 60.1133 55.9135C60.1133 56.4491 60.5475 56.8833 61.0831 56.8833C61.6187 56.8833 62.0529 56.4491 62.0529 55.9135Z" fill="#111111"/>
<path id="Vector_179" d="M69.8127 55.9135C69.8127 55.3779 69.3785 54.9437 68.8429 54.9437C68.3072 54.9437 67.873 55.3779 67.873 55.9135C67.873 56.4491 68.3072 56.8833 68.8429 56.8833C69.3785 56.8833 69.8127 56.4491 69.8127 55.9135Z" fill="#111111"/>
<path id="Vector_180" d="M72.3967 55.9135C72.3967 55.3779 71.9625 54.9437 71.4268 54.9437C70.8912 54.9437 70.457 55.3779 70.457 55.9135C70.457 56.4491 70.8912 56.8833 71.4268 56.8833C71.9625 56.8833 72.3967 56.4491 72.3967 55.9135Z" fill="#111111"/>
<path id="Vector_181" d="M31.0197 58.4999C31.0197 57.9642 30.5855 57.53 30.0499 57.53C29.5143 57.53 29.0801 57.9642 29.0801 58.4999C29.0801 59.0355 29.5143 59.4697 30.0499 59.4697C30.5855 59.4697 31.0197 59.0355 31.0197 58.4999Z" fill="#111111"/>
<path id="Vector_182" d="M36.1935 58.4999C36.1935 57.9642 35.7593 57.53 35.2237 57.53C34.6881 57.53 34.2539 57.9642 34.2539 58.4999C34.2539 59.0355 34.6881 59.4697 35.2237 59.4697C35.7593 59.4697 36.1935 59.0355 36.1935 58.4999Z" fill="#111111"/>
<path id="Vector_183" d="M41.3654 58.4999C41.3654 57.9642 40.9312 57.53 40.3956 57.53C39.86 57.53 39.4258 57.9642 39.4258 58.4999C39.4258 59.0355 39.86 59.4697 40.3956 59.4697C40.9312 59.4697 41.3654 59.0355 41.3654 58.4999Z" fill="#111111"/>
<path id="Vector_184" d="M43.9514 58.4999C43.9514 57.9642 43.5171 57.53 42.9815 57.53C42.4459 57.53 42.0117 57.9642 42.0117 58.4999C42.0117 59.0355 42.4459 59.4697 42.9815 59.4697C43.5171 59.4697 43.9514 59.0355 43.9514 58.4999Z" fill="#111111"/>
<path id="Vector_185" d="M46.5392 58.4999C46.5392 57.9642 46.105 57.53 45.5694 57.53C45.0338 57.53 44.5996 57.9642 44.5996 58.4999C44.5996 59.0355 45.0338 59.4697 45.5694 59.4697C46.105 59.4697 46.5392 59.0355 46.5392 58.4999Z" fill="#111111"/>
<path id="Vector_186" d="M51.7092 58.4999C51.7092 57.9642 51.275 57.53 50.7393 57.53C50.2037 57.53 49.7695 57.9642 49.7695 58.4999C49.7695 59.0355 50.2037 59.4697 50.7393 59.4697C51.275 59.4697 51.7092 59.0355 51.7092 58.4999Z" fill="#111111"/>
<path id="Vector_187" d="M62.0529 58.4999C62.0529 57.9642 61.6187 57.53 61.0831 57.53C60.5475 57.53 60.1133 57.9642 60.1133 58.4999C60.1133 59.0355 60.5475 59.4697 61.0831 59.4697C61.6187 59.4697 62.0529 59.0355 62.0529 58.4999Z" fill="#111111"/>
<path id="Vector_188" d="M64.6428 58.4999C64.6428 57.9642 64.2086 57.53 63.6729 57.53C63.1373 57.53 62.7031 57.9642 62.7031 58.4999C62.7031 59.0355 63.1373 59.4697 63.6729 59.4697C64.2086 59.4697 64.6428 59.0355 64.6428 58.4999Z" fill="#111111"/>
<path id="Vector_189" d="M67.2267 58.4999C67.2267 57.9642 66.7925 57.53 66.2569 57.53C65.7213 57.53 65.2871 57.9642 65.2871 58.4999C65.2871 59.0355 65.7213 59.4697 66.2569 59.4697C66.7925 59.4697 67.2267 59.0355 67.2267 58.4999Z" fill="#111111"/>
<path id="Vector_190" d="M69.8127 58.4999C69.8127 57.9642 69.3785 57.53 68.8429 57.53C68.3072 57.53 67.873 57.9642 67.873 58.4999C67.873 59.0355 68.3072 59.4697 68.8429 59.4697C69.3785 59.4697 69.8127 59.0355 69.8127 58.4999Z" fill="#111111"/>
<path id="Vector_191" d="M36.1935 61.0862C36.1935 60.5506 35.7593 60.1164 35.2237 60.1164C34.6881 60.1164 34.2539 60.5506 34.2539 61.0862C34.2539 61.6218 34.6881 62.056 35.2237 62.056C35.7593 62.056 36.1935 61.6218 36.1935 61.0862Z" fill="#111111"/>
<path id="Vector_192" d="M41.3654 61.0862C41.3654 60.5506 40.9312 60.1164 40.3956 60.1164C39.86 60.1164 39.4258 60.5506 39.4258 61.0862C39.4258 61.6218 39.86 62.056 40.3956 62.056C40.9312 62.056 41.3654 61.6218 41.3654 61.0862Z" fill="#111111"/>
<path id="Vector_193" d="M43.9514 61.0862C43.9514 60.5506 43.5171 60.1164 42.9815 60.1164C42.4459 60.1164 42.0117 60.5506 42.0117 61.0862C42.0117 61.6218 42.4459 62.056 42.9815 62.056C43.5171 62.056 43.9514 61.6218 43.9514 61.0862Z" fill="#111111"/>
<path id="Vector_194" d="M51.7092 61.0862C51.7092 60.5506 51.275 60.1164 50.7393 60.1164C50.2037 60.1164 49.7695 60.5506 49.7695 61.0862C49.7695 61.6218 50.2037 62.056 50.7393 62.056C51.275 62.056 51.7092 61.6218 51.7092 61.0862Z" fill="#111111"/>
<path id="Vector_195" d="M54.299 61.0862C54.299 60.5506 53.8648 60.1164 53.3292 60.1164C52.7936 60.1164 52.3594 60.5506 52.3594 61.0862C52.3594 61.6218 52.7936 62.056 53.3292 62.056C53.8648 62.056 54.299 61.6218 54.299 61.0862Z" fill="#111111"/>
<path id="Vector_196" d="M56.881 61.0862C56.881 60.5506 56.4468 60.1164 55.9112 60.1164C55.3756 60.1164 54.9414 60.5506 54.9414 61.0862C54.9414 61.6218 55.3756 62.056 55.9112 62.056C56.4468 62.056 56.881 61.6218 56.881 61.0862Z" fill="#111111"/>
<path id="Vector_197" d="M59.467 61.0862C59.467 60.5506 59.0328 60.1164 58.4972 60.1164C57.9615 60.1164 57.5273 60.5506 57.5273 61.0862C57.5273 61.6218 57.9615 62.056 58.4972 62.056C59.0328 62.056 59.467 61.6218 59.467 61.0862Z" fill="#111111"/>
<path id="Vector_198" d="M62.0529 61.0862C62.0529 60.5506 61.6187 60.1164 61.0831 60.1164C60.5475 60.1164 60.1133 60.5506 60.1133 61.0862C60.1133 61.6218 60.5475 62.056 61.0831 62.056C61.6187 62.056 62.0529 61.6218 62.0529 61.0862Z" fill="#111111"/>
<path id="Vector_199" d="M72.3967 61.0862C72.3967 60.5506 71.9625 60.1164 71.4268 60.1164C70.8912 60.1164 70.457 60.5506 70.457 61.0862C70.457 61.6218 70.8912 62.056 71.4268 62.056C71.9625 62.056 72.3967 61.6218 72.3967 61.0862Z" fill="#111111"/>
<path id="Vector_200" d="M31.0197 63.6722C31.0197 63.1366 30.5855 62.7024 30.0499 62.7024C29.5143 62.7024 29.0801 63.1366 29.0801 63.6722C29.0801 64.2078 29.5143 64.642 30.0499 64.642C30.5855 64.642 31.0197 64.2078 31.0197 63.6722Z" fill="#111111"/>
<path id="Vector_201" d="M36.1935 63.6722C36.1935 63.1366 35.7593 62.7024 35.2237 62.7024C34.6881 62.7024 34.2539 63.1366 34.2539 63.6722C34.2539 64.2078 34.6881 64.642 35.2237 64.642C35.7593 64.642 36.1935 64.2078 36.1935 63.6722Z" fill="#111111"/>
<path id="Vector_202" d="M43.9514 63.6722C43.9514 63.1366 43.5171 62.7024 42.9815 62.7024C42.4459 62.7024 42.0117 63.1366 42.0117 63.6722C42.0117 64.2078 42.4459 64.642 42.9815 64.642C43.5171 64.642 43.9514 64.2078 43.9514 63.6722Z" fill="#111111"/>
<path id="Vector_203" d="M59.467 63.6722C59.467 63.1366 59.0328 62.7024 58.4972 62.7024C57.9615 62.7024 57.5273 63.1366 57.5273 63.6722C57.5273 64.2078 57.9615 64.642 58.4972 64.642C59.0328 64.642 59.467 64.2078 59.467 63.6722Z" fill="#111111"/>
<path id="Vector_204" d="M67.2267 63.6722C67.2267 63.1366 66.7925 62.7024 66.2569 62.7024C65.7213 62.7024 65.2871 63.1366 65.2871 63.6722C65.2871 64.2078 65.7213 64.642 66.2569 64.642C66.7925 64.642 67.2267 64.2078 67.2267 63.6722Z" fill="#111111"/>
<path id="Vector_205" d="M33.6056 66.258C33.6056 65.7224 33.1714 65.2882 32.6358 65.2882C32.1002 65.2882 31.666 65.7224 31.666 66.258C31.666 66.7937 32.1002 67.2279 32.6358 67.2279C33.1714 67.2279 33.6056 66.7937 33.6056 66.258Z" fill="#111111"/>
<path id="Vector_206" d="M41.3654 66.258C41.3654 65.7224 40.9312 65.2882 40.3956 65.2882C39.86 65.2882 39.4258 65.7224 39.4258 66.258C39.4258 66.7937 39.86 67.2279 40.3956 67.2279C40.9312 67.2279 41.3654 66.7937 41.3654 66.258Z" fill="#111111"/>
<path id="Vector_207" d="M43.9514 66.258C43.9514 65.7224 43.5171 65.2882 42.9815 65.2882C42.4459 65.2882 42.0117 65.7224 42.0117 66.258C42.0117 66.7937 42.4459 67.2279 42.9815 67.2279C43.5171 67.2279 43.9514 66.7937 43.9514 66.258Z" fill="#111111"/>
<path id="Vector_208" d="M51.7092 66.258C51.7092 65.7224 51.275 65.2882 50.7393 65.2882C50.2037 65.2882 49.7695 65.7224 49.7695 66.258C49.7695 66.7937 50.2037 67.2279 50.7393 67.2279C51.275 67.2279 51.7092 66.7937 51.7092 66.258Z" fill="#111111"/>
<path id="Vector_209" d="M54.299 66.258C54.299 65.7224 53.8648 65.2882 53.3292 65.2882C52.7936 65.2882 52.3594 65.7224 52.3594 66.258C52.3594 66.7937 52.7936 67.2279 53.3292 67.2279C53.8648 67.2279 54.299 66.7937 54.299 66.258Z" fill="#111111"/>
<path id="Vector_210" d="M62.0529 66.258C62.0529 65.7224 61.6187 65.2882 61.0831 65.2882C60.5475 65.2882 60.1133 65.7224 60.1133 66.258C60.1133 66.7937 60.5475 67.2279 61.0831 67.2279C61.6187 67.2279 62.0529 66.7937 62.0529 66.258Z" fill="#111111"/>
<path id="Vector_211" d="M64.6428 66.258C64.6428 65.7224 64.2086 65.2882 63.6729 65.2882C63.1373 65.2882 62.7031 65.7224 62.7031 66.258C62.7031 66.7937 63.1373 67.2279 63.6729 67.2279C64.2086 67.2279 64.6428 66.7937 64.6428 66.258Z" fill="#111111"/>
<path id="Vector_212" d="M67.2267 66.258C67.2267 65.7224 66.7925 65.2882 66.2569 65.2882C65.7213 65.2882 65.2871 65.7224 65.2871 66.258C65.2871 66.7937 65.7213 67.2279 66.2569 67.2279C66.7925 67.2279 67.2267 66.7937 67.2267 66.258Z" fill="#111111"/>
<path id="Vector_213" d="M72.3967 66.258C72.3967 65.7224 71.9625 65.2882 71.4268 65.2882C70.8912 65.2882 70.457 65.7224 70.457 66.258C70.457 66.7937 70.8912 67.2279 71.4268 67.2279C71.9625 67.2279 72.3967 66.7937 72.3967 66.258Z" fill="#111111"/>
<path id="Vector_214" d="M31.0197 68.8444C31.0197 68.3088 30.5855 67.8746 30.0499 67.8746C29.5143 67.8746 29.0801 68.3088 29.0801 68.8444C29.0801 69.38 29.5143 69.8142 30.0499 69.8142C30.5855 69.8142 31.0197 69.38 31.0197 68.8444Z" fill="#111111"/>
<path id="Vector_215" d="M33.6056 68.8444C33.6056 68.3088 33.1714 67.8746 32.6358 67.8746C32.1002 67.8746 31.666 68.3088 31.666 68.8444C31.666 69.38 32.1002 69.8142 32.6358 69.8142C33.1714 69.8142 33.6056 69.38 33.6056 68.8444Z" fill="#111111"/>
<path id="Vector_216" d="M36.1935 68.8444C36.1935 68.3088 35.7593 67.8746 35.2237 67.8746C34.6881 67.8746 34.2539 68.3088 34.2539 68.8444C34.2539 69.38 34.6881 69.8142 35.2237 69.8142C35.7593 69.8142 36.1935 69.38 36.1935 68.8444Z" fill="#111111"/>
<path id="Vector_217" d="M41.3654 68.8444C41.3654 68.3088 40.9312 67.8746 40.3956 67.8746C39.86 67.8746 39.4258 68.3088 39.4258 68.8444C39.4258 69.38 39.86 69.8142 40.3956 69.8142C40.9312 69.8142 41.3654 69.38 41.3654 68.8444Z" fill="#111111"/>
<path id="Vector_218" d="M43.9514 68.8444C43.9514 68.3088 43.5171 67.8746 42.9815 67.8746C42.4459 67.8746 42.0117 68.3088 42.0117 68.8444C42.0117 69.38 42.4459 69.8142 42.9815 69.8142C43.5171 69.8142 43.9514 69.38 43.9514 68.8444Z" fill="#111111"/>
<path id="Vector_219" d="M49.1232 68.8444C49.1232 68.3088 48.689 67.8746 48.1534 67.8746C47.6178 67.8746 47.1836 68.3088 47.1836 68.8444C47.1836 69.38 47.6178 69.8142 48.1534 69.8142C48.689 69.8142 49.1232 69.38 49.1232 68.8444Z" fill="#111111"/>
<path id="Vector_220" d="M51.7092 68.8444C51.7092 68.3088 51.275 67.8746 50.7393 67.8746C50.2037 67.8746 49.7695 68.3088 49.7695 68.8444C49.7695 69.38 50.2037 69.8142 50.7393 69.8142C51.275 69.8142 51.7092 69.38 51.7092 68.8444Z" fill="#111111"/>
<path id="Vector_221" d="M64.6428 68.8444C64.6428 68.3088 64.2086 67.8746 63.6729 67.8746C63.1373 67.8746 62.7031 68.3088 62.7031 68.8444C62.7031 69.38 63.1373 69.8142 63.6729 69.8142C64.2086 69.8142 64.6428 69.38 64.6428 68.8444Z" fill="#111111"/>
<path id="Vector_222" d="M33.6056 71.4306C33.6056 70.895 33.1714 70.4608 32.6358 70.4608C32.1002 70.4608 31.666 70.895 31.666 71.4306C31.666 71.9662 32.1002 72.4004 32.6358 72.4004C33.1714 72.4004 33.6056 71.9662 33.6056 71.4306Z" fill="#111111"/>
<path id="Vector_223" d="M36.1935 71.4306C36.1935 70.895 35.7593 70.4608 35.2237 70.4608C34.6881 70.4608 34.2539 70.895 34.2539 71.4306C34.2539 71.9662 34.6881 72.4004 35.2237 72.4004C35.7593 72.4004 36.1935 71.9662 36.1935 71.4306Z" fill="#111111"/>
<path id="Vector_224" d="M38.7795 71.4306C38.7795 70.895 38.3453 70.4608 37.8097 70.4608C37.274 70.4608 36.8398 70.895 36.8398 71.4306C36.8398 71.9662 37.274 72.4004 37.8097 72.4004C38.3453 72.4004 38.7795 71.9662 38.7795 71.4306Z" fill="#111111"/>
<path id="Vector_225" d="M41.3654 71.4306C41.3654 70.895 40.9312 70.4608 40.3956 70.4608C39.86 70.4608 39.4258 70.895 39.4258 71.4306C39.4258 71.9662 39.86 72.4004 40.3956 72.4004C40.9312 72.4004 41.3654 71.9662 41.3654 71.4306Z" fill="#111111"/>
<path id="Vector_226" d="M43.9514 71.4306C43.9514 70.895 43.5171 70.4608 42.9815 70.4608C42.4459 70.4608 42.0117 70.895 42.0117 71.4306C42.0117 71.9662 42.4459 72.4004 42.9815 72.4004C43.5171 72.4004 43.9514 71.9662 43.9514 71.4306Z" fill="#111111"/>
<path id="Vector_227" d="M49.1232 71.4306C49.1232 70.895 48.689 70.4608 48.1534 70.4608C47.6178 70.4608 47.1836 70.895 47.1836 71.4306C47.1836 71.9662 47.6178 72.4004 48.1534 72.4004C48.689 72.4004 49.1232 71.9662 49.1232 71.4306Z" fill="#111111"/>
<path id="Vector_228" d="M51.7092 71.4306C51.7092 70.895 51.275 70.4608 50.7393 70.4608C50.2037 70.4608 49.7695 70.895 49.7695 71.4306C49.7695 71.9662 50.2037 72.4004 50.7393 72.4004C51.275 72.4004 51.7092 71.9662 51.7092 71.4306Z" fill="#111111"/>
<path id="Vector_229" d="M59.467 71.4306C59.467 70.895 59.0328 70.4608 58.4972 70.4608C57.9615 70.4608 57.5273 70.895 57.5273 71.4306C57.5273 71.9662 57.9615 72.4004 58.4972 72.4004C59.0328 72.4004 59.467 71.9662 59.467 71.4306Z" fill="#111111"/>
<path id="Vector_230" d="M69.8127 71.4306C69.8127 70.895 69.3785 70.4608 68.8429 70.4608C68.3072 70.4608 67.873 70.895 67.873 71.4306C67.873 71.9662 68.3072 72.4004 68.8429 72.4004C69.3785 72.4004 69.8127 71.9662 69.8127 71.4306Z" fill="#111111"/>
<path id="Vector_231" d="M72.3967 71.4306C72.3967 70.895 71.9625 70.4608 71.4268 70.4608C70.8912 70.4608 70.457 70.895 70.457 71.4306C70.457 71.9662 70.8912 72.4004 71.4268 72.4004C71.9625 72.4004 72.3967 71.9662 72.3967 71.4306Z" fill="#111111"/>
</g>
<g id="Group_3">
<path id="Vector_232" d="M22.2863 9.35924H11.9416C10.5133 9.35924 9.35547 10.5171 9.35547 11.9454V22.2901C9.35547 23.7184 10.5133 24.8763 11.9416 24.8763H22.2863C23.7146 24.8763 24.8725 23.7184 24.8725 22.2901V11.9454C24.8725 10.5171 23.7146 9.35924 22.2863 9.35924Z" stroke="#111111" stroke-width="3.23596"/>
<path id="Vector_233" d="M19.6979 13.2387H14.5255C13.8114 13.2387 13.2324 13.8176 13.2324 14.5318V19.7041C13.2324 20.4183 13.8114 20.9972 14.5255 20.9972H19.6979C20.412 20.9972 20.9909 20.4183 20.9909 19.7041V14.5318C20.9909 13.8176 20.412 13.2387 19.6979 13.2387Z" fill="#111111"/>
<path id="Vector_234" d="M68.8449 9.35924H58.5002C57.0719 9.35924 55.9141 10.5171 55.9141 11.9454V22.2901C55.9141 23.7184 57.0719 24.8763 58.5002 24.8763H68.8449C70.2732 24.8763 71.4311 23.7184 71.4311 22.2901V11.9454C71.4311 10.5171 70.2732 9.35924 68.8449 9.35924Z" stroke="#111111" stroke-width="3.23596"/>
<path id="Vector_235" d="M66.2565 13.2387H61.0841C60.37 13.2387 59.791 13.8176 59.791 14.5318V19.7041C59.791 20.4183 60.37 20.9972 61.0841 20.9972H66.2565C66.9706 20.9972 67.5495 20.4183 67.5495 19.7041V14.5318C67.5495 13.8176 66.9706 13.2387 66.2565 13.2387Z" fill="#111111"/>
<path id="Vector_236" d="M22.2863 55.9172H11.9416C10.5133 55.9172 9.35547 57.0751 9.35547 58.5034V68.8481C9.35547 70.2764 10.5133 71.4343 11.9416 71.4343H22.2863C23.7146 71.4343 24.8725 70.2764 24.8725 68.8481V58.5034C24.8725 57.0751 23.7146 55.9172 22.2863 55.9172Z" stroke="#111111" stroke-width="3.23596"/>
<path id="Vector_237" d="M19.6979 59.7963H14.5255C13.8114 59.7963 13.2324 60.3753 13.2324 61.0894V66.2618C13.2324 66.9759 13.8114 67.5548 14.5255 67.5548H19.6979C20.412 67.5548 20.9909 66.9759 20.9909 66.2618V61.0894C20.9909 60.3753 20.412 59.7963 19.6979 59.7963Z" fill="#111111"/>
</g>
</g>
</g>
</svg>
