<svg width="80" height="81" viewBox="0 0 80 81" fill="none" xmlns="http://www.w3.org/2000/svg">
<path d="M0 8.40064C0 3.98236 3.58172 0.400635 8 0.400635H72C76.4183 0.400635 80 3.98236 80 8.40063V72.4006C80 76.8189 76.4183 80.4006 72 80.4006H8C3.58172 80.4006 0 76.8189 0 72.4006V8.40064Z" fill="white"/>
<path d="M0.5 8.40064C0.5 4.2585 3.85786 0.900635 8 0.900635H72C76.1421 0.900635 79.5 4.2585 79.5 8.40063V72.4006C79.5 76.5428 76.1421 79.9006 72 79.9006H8C3.85787 79.9006 0.5 76.5428 0.5 72.4006V8.40064Z" stroke="#1A1A1A" stroke-opacity="0.1"/>
<path d="M60.6802 8.31263H18.6394C17.5733 8.31263 16.709 9.17135 16.709 10.2306V52.0002C16.709 53.0595 17.5733 53.9182 18.6394 53.9182H60.6802C61.7464 53.9182 62.6107 53.0595 62.6107 52.0002V10.2306C62.6107 9.17135 61.7464 8.31263 60.6802 8.31263Z" fill="white" stroke="#111111" stroke-width="1.61032"/>
<path d="M39.6601 56.6879L43.3065 62.0157H36.0137L39.6601 56.6879Z" fill="#111111"/>
<path d="M61.1062 60.9504H18.2074C17.0228 60.9504 16.0625 61.9045 16.0625 63.0815V70.3273C16.0625 71.5042 17.0228 72.4584 18.2074 72.4584H61.1062C62.2908 72.4584 63.2512 71.5042 63.2512 70.3273V63.0815C63.2512 61.9045 62.2908 60.9504 61.1062 60.9504Z" fill="#111111"/>
<path d="M32.813 66.4064C32.7931 66.2065 32.7081 66.0512 32.5577 65.9405C32.4074 65.8298 32.2034 65.7745 31.9457 65.7745C31.7706 65.7745 31.6227 65.7993 31.5021 65.8488C31.3815 65.8967 31.289 65.9636 31.2246 66.0495C31.1618 66.1355 31.1304 66.2329 31.1304 66.342C31.1271 66.4328 31.1461 66.5121 31.1874 66.5798C31.2304 66.6476 31.289 66.7062 31.3633 66.7558C31.4377 66.8037 31.5236 66.8458 31.6211 66.8822C31.7185 66.9168 31.8226 66.9466 31.9333 66.9714L32.3892 67.0804C32.6106 67.13 32.8138 67.196 32.9988 67.2786C33.1838 67.3612 33.3441 67.4628 33.4795 67.5834C33.615 67.704 33.7199 67.8461 33.7943 68.0096C33.8702 68.1732 33.9091 68.3607 33.9107 68.5721C33.9091 68.8827 33.8298 69.152 33.6728 69.38C33.5175 69.6063 33.2929 69.7822 32.9988 69.9078C32.7064 70.0317 32.3537 70.0936 31.9407 70.0936C31.531 70.0936 31.1742 70.0309 30.8702 69.9053C30.5679 69.7798 30.3317 69.5939 30.1615 69.3478C29.993 69.1 29.9046 68.7935 29.8964 68.4284H30.9346C30.9462 68.5986 30.9949 68.7407 31.0808 68.8546C31.1684 68.967 31.2849 69.0521 31.4302 69.1099C31.5773 69.166 31.7433 69.1941 31.9283 69.1941C32.11 69.1941 32.2678 69.1677 32.4016 69.1148C32.5371 69.062 32.642 68.9885 32.7163 68.8943C32.7907 68.8001 32.8278 68.6919 32.8278 68.5697C32.8278 68.4557 32.794 68.3599 32.7262 68.2822C32.6602 68.2046 32.5627 68.1385 32.4338 68.084C32.3066 68.0295 32.1505 67.9799 31.9655 67.9353L31.4129 67.7965C30.985 67.6925 30.6472 67.5297 30.3994 67.3084C30.1516 67.087 30.0285 66.7888 30.0302 66.4138C30.0285 66.1065 30.1103 65.8381 30.2755 65.6085C30.4424 65.3788 30.6712 65.1996 30.9619 65.0707C31.2527 64.9419 31.5831 64.8775 31.9531 64.8775C32.3298 64.8775 32.6585 64.9419 32.9393 65.0707C33.2218 65.1996 33.4416 65.3788 33.5985 65.6085C33.7554 65.8381 33.8364 66.1041 33.8413 66.4064H32.813ZM39.1102 66.7236H38.0248C38.005 66.5831 37.9645 66.4584 37.9034 66.3494C37.8423 66.2387 37.7638 66.1445 37.668 66.0669C37.5722 65.9893 37.4615 65.9298 37.3359 65.8885C37.212 65.8472 37.0774 65.8265 36.932 65.8265C36.6693 65.8265 36.4405 65.8918 36.2456 66.0223C36.0507 66.1511 35.8995 66.3395 35.7921 66.5873C35.6848 66.8334 35.6311 67.1324 35.6311 67.4843C35.6311 67.8461 35.6848 68.1501 35.7921 68.3962C35.9012 68.6424 36.0532 68.8282 36.2481 68.9538C36.443 69.0793 36.6685 69.1421 36.9246 69.1421C37.0683 69.1421 37.2013 69.1231 37.3235 69.0851C37.4474 69.0471 37.5573 68.9918 37.6531 68.9191C37.7489 68.8447 37.8282 68.7547 37.891 68.649C37.9554 68.5432 38 68.4226 38.0248 68.2872L39.1102 68.2921C39.0821 68.5251 39.0119 68.7497 38.8995 68.9661C38.7889 69.1809 38.6394 69.3734 38.451 69.5435C38.2643 69.712 38.0413 69.8458 37.782 69.945C37.5243 70.0424 37.2327 70.0912 36.9072 70.0912C36.4546 70.0912 36.0498 69.9887 35.693 69.7839C35.3378 69.579 35.057 69.2825 34.8505 68.8943C34.6456 68.5061 34.5432 68.0361 34.5432 67.4843C34.5432 66.9309 34.6473 66.4601 34.8555 66.0719C35.0636 65.6836 35.3461 65.3879 35.7029 65.1847C36.0598 64.9799 36.4612 64.8775 36.9072 64.8775C37.2013 64.8775 37.4739 64.9188 37.725 65.0014C37.9777 65.084 38.2016 65.2046 38.3965 65.3631C38.5914 65.5201 38.75 65.7125 38.8723 65.9405C38.9962 66.1685 39.0755 66.4295 39.1102 66.7236ZM40.6589 70.0218H39.5091L41.2611 64.9468H42.6438L44.3933 70.0218H43.2435L41.9723 66.1065H41.9326L40.6589 70.0218ZM40.5871 68.027H43.3029V68.8646H40.5871V68.027ZM49.2489 64.9468V70.0218H48.3221L46.1142 66.8276H46.0771V70.0218H45.0041V64.9468H45.9457L48.1363 68.1385H48.1809V64.9468H49.2489ZM34.7687 72.9468H36.092L37.4896 76.3566H37.549L38.9466 72.9468H40.2699V78.0218H39.2291V74.7186H39.187L37.8737 77.997H37.1649L35.8516 74.7062H35.8095V78.0218H34.7687V72.9468ZM41.1539 78.0218V72.9468H44.5735V73.8315H42.2269V75.0407H44.3976V75.9254H42.2269V77.1371H44.5834V78.0218H41.1539Z" fill="white"/>
<path d="M33.9404 11.7071H32.7559V12.884H33.9404V11.7071Z" fill="#111111"/>
<path d="M37.0947 11.7071H35.9102V12.884H37.0947V11.7071Z" fill="#111111"/>
<path d="M38.6767 11.7071H37.4922V12.884H38.6767V11.7071Z" fill="#111111"/>
<path d="M43.4111 11.7071H42.2266V12.884H43.4111V11.7071Z" fill="#111111"/>
<path d="M44.9892 11.7071H43.8047V12.884H44.9892V11.7071Z" fill="#111111"/>
<path d="M37.0947 13.2755H35.9102V14.4524H37.0947V13.2755Z" fill="#111111"/>
<path d="M38.6767 13.2755H37.4922V14.4524H38.6767V13.2755Z" fill="#111111"/>
<path d="M41.831 13.2755H40.6465V14.4524H41.831V13.2755Z" fill="#111111"/>
<path d="M44.9892 13.2755H43.8047V14.4524H44.9892V13.2755Z" fill="#111111"/>
<path d="M46.5654 13.2755H45.3809V14.4524H46.5654V13.2755Z" fill="#111111"/>
<path d="M33.9404 14.8438H32.7559V16.0206H33.9404V14.8438Z" fill="#111111"/>
<path d="M40.2548 14.8438H39.0703V16.0206H40.2548V14.8438Z" fill="#111111"/>
<path d="M43.4111 14.8438H42.2266V16.0206H43.4111V14.8438Z" fill="#111111"/>
<path d="M44.9892 14.8438H43.8047V16.0206H44.9892V14.8438Z" fill="#111111"/>
<path d="M33.9404 16.4119H32.7559V17.5887H33.9404V16.4119Z" fill="#111111"/>
<path d="M38.6767 16.4119H37.4922V17.5887H38.6767V16.4119Z" fill="#111111"/>
<path d="M43.4111 16.4119H42.2266V17.5887H43.4111V16.4119Z" fill="#111111"/>
<path d="M35.5166 17.9804H34.332V19.1573H35.5166V17.9804Z" fill="#111111"/>
<path d="M40.2548 17.9804H39.0703V19.1573H40.2548V17.9804Z" fill="#111111"/>
<path d="M43.4111 17.9804H42.2266V19.1573H43.4111V17.9804Z" fill="#111111"/>
<path d="M44.9892 17.9804H43.8047V19.1573H44.9892V17.9804Z" fill="#111111"/>
<path d="M33.9404 19.5485H32.7559V20.7254H33.9404V19.5485Z" fill="#111111"/>
<path d="M35.5166 19.5485H34.332V20.7254H35.5166V19.5485Z" fill="#111111"/>
<path d="M38.6767 19.5485H37.4922V20.7254H38.6767V19.5485Z" fill="#111111"/>
<path d="M44.9892 19.5485H43.8047V20.7254H44.9892V19.5485Z" fill="#111111"/>
<path d="M46.5654 19.5485H45.3809V20.7254H46.5654V19.5485Z" fill="#111111"/>
<path d="M33.9404 21.117H32.7559V22.2938H33.9404V21.117Z" fill="#111111"/>
<path d="M37.0947 21.117H35.9102V22.2938H37.0947V21.117Z" fill="#111111"/>
<path d="M40.2548 21.117H39.0703V22.2938H40.2548V21.117Z" fill="#111111"/>
<path d="M43.4111 21.117H42.2266V22.2938H43.4111V21.117Z" fill="#111111"/>
<path d="M46.5654 21.117H45.3809V22.2938H46.5654V21.117Z" fill="#111111"/>
<path d="M33.9404 22.6854H32.7559V23.8623H33.9404V22.6854Z" fill="#111111"/>
<path d="M37.0947 22.6854H35.9102V23.8623H37.0947V22.6854Z" fill="#111111"/>
<path d="M38.6767 22.6854H37.4922V23.8623H38.6767V22.6854Z" fill="#111111"/>
<path d="M43.4111 22.6854H42.2266V23.8623H43.4111V22.6854Z" fill="#111111"/>
<path d="M46.5654 22.6854H45.3809V23.8623H46.5654V22.6854Z" fill="#111111"/>
<path d="M22.8876 24.2536H21.7031V25.4305H22.8876V24.2536Z" fill="#111111"/>
<path d="M26.0478 24.2536H24.8633V25.4305H26.0478V24.2536Z" fill="#111111"/>
<path d="M29.206 24.2536H28.0215V25.4305H29.206V24.2536Z" fill="#111111"/>
<path d="M30.7822 24.2536H29.5977V25.4305H30.7822V24.2536Z" fill="#111111"/>
<path d="M32.3603 24.2536H31.1758V25.4305H32.3603V24.2536Z" fill="#111111"/>
<path d="M33.9404 24.2536H32.7559V25.4305H33.9404V24.2536Z" fill="#111111"/>
<path d="M37.0947 24.2536H35.9102V25.4305H37.0947V24.2536Z" fill="#111111"/>
<path d="M38.6767 24.2536H37.4922V25.4305H38.6767V24.2536Z" fill="#111111"/>
<path d="M40.2548 24.2536H39.0703V25.4305H40.2548V24.2536Z" fill="#111111"/>
<path d="M41.831 24.2536H40.6465V25.4305H41.831V24.2536Z" fill="#111111"/>
<path d="M43.4111 24.2536H42.2266V25.4305H43.4111V24.2536Z" fill="#111111"/>
<path d="M46.5654 24.2536H45.3809V25.4305H46.5654V24.2536Z" fill="#111111"/>
<path d="M48.1455 24.2536H46.9609V25.4305H48.1455V24.2536Z" fill="#111111"/>
<path d="M49.7236 24.2536H48.5391V25.4305H49.7236V24.2536Z" fill="#111111"/>
<path d="M51.2998 24.2536H50.1152V25.4305H51.2998V24.2536Z" fill="#111111"/>
<path d="M54.4599 24.2536H53.2754V25.4305H54.4599V24.2536Z" fill="#111111"/>
<path d="M56.038 24.2536H54.8535V25.4305H56.038V24.2536Z" fill="#111111"/>
<path d="M59.1943 24.2536H58.0098V25.4305H59.1943V24.2536Z" fill="#111111"/>
<path d="M21.3115 25.8219H20.127V26.9988H21.3115V25.8219Z" fill="#111111"/>
<path d="M22.8876 25.8219H21.7031V26.9988H22.8876V25.8219Z" fill="#111111"/>
<path d="M24.4697 25.8219H23.2852V26.9988H24.4697V25.8219Z" fill="#111111"/>
<path d="M26.0478 25.8219H24.8633V26.9988H26.0478V25.8219Z" fill="#111111"/>
<path d="M35.5166 25.8219H34.332V26.9988H35.5166V25.8219Z" fill="#111111"/>
<path d="M40.2548 25.8219H39.0703V26.9988H40.2548V25.8219Z" fill="#111111"/>
<path d="M46.5654 25.8219H45.3809V26.9988H46.5654V25.8219Z" fill="#111111"/>
<path d="M48.1455 25.8219H46.9609V26.9988H48.1455V25.8219Z" fill="#111111"/>
<path d="M49.7236 25.8219H48.5391V26.9988H49.7236V25.8219Z" fill="#111111"/>
<path d="M59.1943 25.8219H58.0098V26.9988H59.1943V25.8219Z" fill="#111111"/>
<path d="M21.3115 27.3903H20.127V28.5672H21.3115V27.3903Z" fill="#111111"/>
<path d="M22.8876 27.3903H21.7031V28.5672H22.8876V27.3903Z" fill="#111111"/>
<path d="M26.0478 27.3903H24.8633V28.5672H26.0478V27.3903Z" fill="#111111"/>
<path d="M27.6259 27.3903H26.4414V28.5672H27.6259V27.3903Z" fill="#111111"/>
<path d="M29.206 27.3903H28.0215V28.5672H29.206V27.3903Z" fill="#111111"/>
<path d="M30.7822 27.3903H29.5977V28.5672H30.7822V27.3903Z" fill="#111111"/>
<path d="M33.9404 27.3903H32.7559V28.5672H33.9404V27.3903Z" fill="#111111"/>
<path d="M35.5166 27.3903H34.332V28.5672H35.5166V27.3903Z" fill="#111111"/>
<path d="M41.831 27.3903H40.6465V28.5672H41.831V27.3903Z" fill="#111111"/>
<path d="M46.5654 27.3903H45.3809V28.5672H46.5654V27.3903Z" fill="#111111"/>
<path d="M48.1455 27.3903H46.9609V28.5672H48.1455V27.3903Z" fill="#111111"/>
<path d="M49.7236 27.3903H48.5391V28.5672H49.7236V27.3903Z" fill="#111111"/>
<path d="M51.2998 27.3903H50.1152V28.5672H51.2998V27.3903Z" fill="#111111"/>
<path d="M57.6181 27.3903H56.4336V28.5672H57.6181V27.3903Z" fill="#111111"/>
<path d="M59.1943 27.3903H58.0098V28.5672H59.1943V27.3903Z" fill="#111111"/>
<path d="M24.4697 28.9587H23.2852V30.1356H24.4697V28.9587Z" fill="#111111"/>
<path d="M26.0478 28.9587H24.8633V30.1356H26.0478V28.9587Z" fill="#111111"/>
<path d="M27.6259 28.9587H26.4414V30.1356H27.6259V28.9587Z" fill="#111111"/>
<path d="M29.206 28.9587H28.0215V30.1356H29.206V28.9587Z" fill="#111111"/>
<path d="M33.9404 28.9587H32.7559V30.1356H33.9404V28.9587Z" fill="#111111"/>
<path d="M38.6767 28.9587H37.4922V30.1356H38.6767V28.9587Z" fill="#111111"/>
<path d="M41.831 28.9587H40.6465V30.1356H41.831V28.9587Z" fill="#111111"/>
<path d="M44.9892 28.9587H43.8047V30.1356H44.9892V28.9587Z" fill="#111111"/>
<path d="M51.2998 28.9587H50.1152V30.1356H51.2998V28.9587Z" fill="#111111"/>
<path d="M52.8818 28.9587H51.6973V30.1356H52.8818V28.9587Z" fill="#111111"/>
<path d="M21.3115 30.5268H20.127V31.7037H21.3115V30.5268Z" fill="#111111"/>
<path d="M27.6259 30.5268H26.4414V31.7037H27.6259V30.5268Z" fill="#111111"/>
<path d="M30.7822 30.5268H29.5977V31.7037H30.7822V30.5268Z" fill="#111111"/>
<path d="M32.3603 30.5268H31.1758V31.7037H32.3603V30.5268Z" fill="#111111"/>
<path d="M33.9404 30.5268H32.7559V31.7037H33.9404V30.5268Z" fill="#111111"/>
<path d="M37.0947 30.5268H35.9102V31.7037H37.0947V30.5268Z" fill="#111111"/>
<path d="M38.6767 30.5268H37.4922V31.7037H38.6767V30.5268Z" fill="#111111"/>
<path d="M40.2548 30.5268H39.0703V31.7037H40.2548V30.5268Z" fill="#111111"/>
<path d="M43.4111 30.5268H42.2266V31.7037H43.4111V30.5268Z" fill="#111111"/>
<path d="M44.9892 30.5268H43.8047V31.7037H44.9892V30.5268Z" fill="#111111"/>
<path d="M46.5654 30.5268H45.3809V31.7037H46.5654V30.5268Z" fill="#111111"/>
<path d="M48.1455 30.5268H46.9609V31.7037H48.1455V30.5268Z" fill="#111111"/>
<path d="M49.7236 30.5268H48.5391V31.7037H49.7236V30.5268Z" fill="#111111"/>
<path d="M51.2998 30.5268H50.1152V31.7037H51.2998V30.5268Z" fill="#111111"/>
<path d="M54.4599 30.5268H53.2754V31.7037H54.4599V30.5268Z" fill="#111111"/>
<path d="M57.6181 30.5268H56.4336V31.7037H57.6181V30.5268Z" fill="#111111"/>
<path d="M59.1943 30.5268H58.0098V31.7037H59.1943V30.5268Z" fill="#111111"/>
<path d="M22.8876 32.0953H21.7031V33.2721H22.8876V32.0953Z" fill="#111111"/>
<path d="M26.0478 32.0953H24.8633V33.2721H26.0478V32.0953Z" fill="#111111"/>
<path d="M27.6259 32.0953H26.4414V33.2721H27.6259V32.0953Z" fill="#111111"/>
<path d="M29.206 32.0953H28.0215V33.2721H29.206V32.0953Z" fill="#111111"/>
<path d="M35.5166 32.0953H34.332V33.2721H35.5166V32.0953Z" fill="#111111"/>
<path d="M37.0947 32.0953H35.9102V33.2721H37.0947V32.0953Z" fill="#111111"/>
<path d="M38.6767 32.0953H37.4922V33.2721H38.6767V32.0953Z" fill="#111111"/>
<path d="M41.831 32.0953H40.6465V33.2721H41.831V32.0953Z" fill="#111111"/>
<path d="M48.1455 32.0953H46.9609V33.2721H48.1455V32.0953Z" fill="#111111"/>
<path d="M49.7236 32.0953H48.5391V33.2721H49.7236V32.0953Z" fill="#111111"/>
<path d="M51.2998 32.0953H50.1152V33.2721H51.2998V32.0953Z" fill="#111111"/>
<path d="M54.4599 32.0953H53.2754V33.2721H54.4599V32.0953Z" fill="#111111"/>
<path d="M56.038 32.0953H54.8535V33.2721H56.038V32.0953Z" fill="#111111"/>
<path d="M59.1943 32.0953H58.0098V33.2721H59.1943V32.0953Z" fill="#111111"/>
<path d="M21.3115 33.6637H20.127V34.8405H21.3115V33.6637Z" fill="#111111"/>
<path d="M26.0478 33.6637H24.8633V34.8405H26.0478V33.6637Z" fill="#111111"/>
<path d="M27.6259 33.6637H26.4414V34.8405H27.6259V33.6637Z" fill="#111111"/>
<path d="M29.206 33.6637H28.0215V34.8405H29.206V33.6637Z" fill="#111111"/>
<path d="M30.7822 33.6637H29.5977V34.8405H30.7822V33.6637Z" fill="#111111"/>
<path d="M32.3603 33.6637H31.1758V34.8405H32.3603V33.6637Z" fill="#111111"/>
<path d="M37.0947 33.6637H35.9102V34.8405H37.0947V33.6637Z" fill="#111111"/>
<path d="M38.6767 33.6637H37.4922V34.8405H38.6767V33.6637Z" fill="#111111"/>
<path d="M41.831 33.6637H40.6465V34.8405H41.831V33.6637Z" fill="#111111"/>
<path d="M43.4111 33.6637H42.2266V34.8405H43.4111V33.6637Z" fill="#111111"/>
<path d="M46.5654 33.6637H45.3809V34.8405H46.5654V33.6637Z" fill="#111111"/>
<path d="M49.7236 33.6637H48.5391V34.8405H49.7236V33.6637Z" fill="#111111"/>
<path d="M51.2998 33.6637H50.1152V34.8405H51.2998V33.6637Z" fill="#111111"/>
<path d="M52.8818 33.6637H51.6973V34.8405H52.8818V33.6637Z" fill="#111111"/>
<path d="M56.038 33.6637H54.8535V34.8405H56.038V33.6637Z" fill="#111111"/>
<path d="M59.1943 33.6637H58.0098V34.8405H59.1943V33.6637Z" fill="#111111"/>
<path d="M22.8876 35.2318H21.7031V36.4087H22.8876V35.2318Z" fill="#111111"/>
<path d="M26.0478 35.2318H24.8633V36.4087H26.0478V35.2318Z" fill="#111111"/>
<path d="M29.206 35.2318H28.0215V36.4087H29.206V35.2318Z" fill="#111111"/>
<path d="M32.3603 35.2318H31.1758V36.4087H32.3603V35.2318Z" fill="#111111"/>
<path d="M33.9404 35.2318H32.7559V36.4087H33.9404V35.2318Z" fill="#111111"/>
<path d="M40.2548 35.2318H39.0703V36.4087H40.2548V35.2318Z" fill="#111111"/>
<path d="M43.4111 35.2318H42.2266V36.4087H43.4111V35.2318Z" fill="#111111"/>
<path d="M46.5654 35.2318H45.3809V36.4087H46.5654V35.2318Z" fill="#111111"/>
<path d="M52.8818 35.2318H51.6973V36.4087H52.8818V35.2318Z" fill="#111111"/>
<path d="M54.4599 35.2318H53.2754V36.4087H54.4599V35.2318Z" fill="#111111"/>
<path d="M57.6181 35.2318H56.4336V36.4087H57.6181V35.2318Z" fill="#111111"/>
<path d="M21.3115 36.8H20.127V37.9769H21.3115V36.8Z" fill="#111111"/>
<path d="M22.8876 36.8H21.7031V37.9769H22.8876V36.8Z" fill="#111111"/>
<path d="M27.6259 36.8H26.4414V37.9769H27.6259V36.8Z" fill="#111111"/>
<path d="M30.7822 36.8H29.5977V37.9769H30.7822V36.8Z" fill="#111111"/>
<path d="M32.3603 36.8H31.1758V37.9769H32.3603V36.8Z" fill="#111111"/>
<path d="M35.5166 36.8H34.332V37.9769H35.5166V36.8Z" fill="#111111"/>
<path d="M40.2548 36.8H39.0703V37.9769H40.2548V36.8Z" fill="#111111"/>
<path d="M41.831 36.8H40.6465V37.9769H41.831V36.8Z" fill="#111111"/>
<path d="M46.5654 36.8H45.3809V37.9769H46.5654V36.8Z" fill="#111111"/>
<path d="M48.1455 36.8H46.9609V37.9769H48.1455V36.8Z" fill="#111111"/>
<path d="M49.7236 36.8H48.5391V37.9769H49.7236V36.8Z" fill="#111111"/>
<path d="M51.2998 36.8H50.1152V37.9769H51.2998V36.8Z" fill="#111111"/>
<path d="M52.8818 36.8H51.6973V37.9769H52.8818V36.8Z" fill="#111111"/>
<path d="M54.4599 36.8H53.2754V37.9769H54.4599V36.8Z" fill="#111111"/>
<path d="M56.038 36.8H54.8535V37.9769H56.038V36.8Z" fill="#111111"/>
<path d="M33.9404 38.3688H32.7559V39.5457H33.9404V38.3688Z" fill="#111111"/>
<path d="M35.5166 38.3688H34.332V39.5457H35.5166V38.3688Z" fill="#111111"/>
<path d="M41.831 38.3688H40.6465V39.5457H41.831V38.3688Z" fill="#111111"/>
<path d="M44.9892 38.3688H43.8047V39.5457H44.9892V38.3688Z" fill="#111111"/>
<path d="M46.5654 38.3688H45.3809V39.5457H46.5654V38.3688Z" fill="#111111"/>
<path d="M52.8818 38.3688H51.6973V39.5457H52.8818V38.3688Z" fill="#111111"/>
<path d="M54.4599 38.3688H53.2754V39.5457H54.4599V38.3688Z" fill="#111111"/>
<path d="M56.038 38.3688H54.8535V39.5457H56.038V38.3688Z" fill="#111111"/>
<path d="M59.1943 38.3688H58.0098V39.5457H59.1943V38.3688Z" fill="#111111"/>
<path d="M33.9404 39.9369H32.7559V41.1138H33.9404V39.9369Z" fill="#111111"/>
<path d="M38.6767 39.9369H37.4922V41.1138H38.6767V39.9369Z" fill="#111111"/>
<path d="M41.831 39.9369H40.6465V41.1138H41.831V39.9369Z" fill="#111111"/>
<path d="M44.9892 39.9369H43.8047V41.1138H44.9892V39.9369Z" fill="#111111"/>
<path d="M46.5654 39.9369H45.3809V41.1138H46.5654V39.9369Z" fill="#111111"/>
<path d="M49.7236 39.9369H48.5391V41.1138H49.7236V39.9369Z" fill="#111111"/>
<path d="M52.8818 39.9369H51.6973V41.1138H52.8818V39.9369Z" fill="#111111"/>
<path d="M57.6181 39.9369H56.4336V41.1138H57.6181V39.9369Z" fill="#111111"/>
<path d="M59.1943 39.9369H58.0098V41.1138H59.1943V39.9369Z" fill="#111111"/>
<path d="M33.9404 41.505H32.7559V42.6818H33.9404V41.505Z" fill="#111111"/>
<path d="M37.0947 41.505H35.9102V42.6818H37.0947V41.505Z" fill="#111111"/>
<path d="M40.2548 41.505H39.0703V42.6818H40.2548V41.505Z" fill="#111111"/>
<path d="M41.831 41.505H40.6465V42.6818H41.831V41.505Z" fill="#111111"/>
<path d="M43.4111 41.505H42.2266V42.6818H43.4111V41.505Z" fill="#111111"/>
<path d="M46.5654 41.505H45.3809V42.6818H46.5654V41.505Z" fill="#111111"/>
<path d="M52.8818 41.505H51.6973V42.6818H52.8818V41.505Z" fill="#111111"/>
<path d="M54.4599 41.505H53.2754V42.6818H54.4599V41.505Z" fill="#111111"/>
<path d="M56.038 41.505H54.8535V42.6818H56.038V41.505Z" fill="#111111"/>
<path d="M57.6181 41.505H56.4336V42.6818H57.6181V41.505Z" fill="#111111"/>
<path d="M37.0947 43.0734H35.9102V44.2503H37.0947V43.0734Z" fill="#111111"/>
<path d="M40.2548 43.0734H39.0703V44.2503H40.2548V43.0734Z" fill="#111111"/>
<path d="M41.831 43.0734H40.6465V44.2503H41.831V43.0734Z" fill="#111111"/>
<path d="M46.5654 43.0734H45.3809V44.2503H46.5654V43.0734Z" fill="#111111"/>
<path d="M48.1455 43.0734H46.9609V44.2503H48.1455V43.0734Z" fill="#111111"/>
<path d="M49.7236 43.0734H48.5391V44.2503H49.7236V43.0734Z" fill="#111111"/>
<path d="M51.2998 43.0734H50.1152V44.2503H51.2998V43.0734Z" fill="#111111"/>
<path d="M52.8818 43.0734H51.6973V44.2503H52.8818V43.0734Z" fill="#111111"/>
<path d="M59.1943 43.0734H58.0098V44.2503H59.1943V43.0734Z" fill="#111111"/>
<path d="M33.9404 44.6418H32.7559V45.8187H33.9404V44.6418Z" fill="#111111"/>
<path d="M37.0947 44.6418H35.9102V45.8187H37.0947V44.6418Z" fill="#111111"/>
<path d="M41.831 44.6418H40.6465V45.8187H41.831V44.6418Z" fill="#111111"/>
<path d="M51.2998 44.6418H50.1152V45.8187H51.2998V44.6418Z" fill="#111111"/>
<path d="M56.038 44.6418H54.8535V45.8187H56.038V44.6418Z" fill="#111111"/>
<path d="M35.5166 46.2102H34.332V47.3871H35.5166V46.2102Z" fill="#111111"/>
<path d="M40.2548 46.2102H39.0703V47.3871H40.2548V46.2102Z" fill="#111111"/>
<path d="M41.831 46.2102H40.6465V47.3871H41.831V46.2102Z" fill="#111111"/>
<path d="M46.5654 46.2102H45.3809V47.3871H46.5654V46.2102Z" fill="#111111"/>
<path d="M48.1455 46.2102H46.9609V47.3871H48.1455V46.2102Z" fill="#111111"/>
<path d="M52.8818 46.2102H51.6973V47.3871H52.8818V46.2102Z" fill="#111111"/>
<path d="M54.4599 46.2102H53.2754V47.3871H54.4599V46.2102Z" fill="#111111"/>
<path d="M56.038 46.2102H54.8535V47.3871H56.038V46.2102Z" fill="#111111"/>
<path d="M59.1943 46.2102H58.0098V47.3871H59.1943V46.2102Z" fill="#111111"/>
<path d="M33.9404 47.7785H32.7559V48.9554H33.9404V47.7785Z" fill="#111111"/>
<path d="M35.5166 47.7785H34.332V48.9554H35.5166V47.7785Z" fill="#111111"/>
<path d="M37.0947 47.7785H35.9102V48.9554H37.0947V47.7785Z" fill="#111111"/>
<path d="M40.2548 47.7785H39.0703V48.9554H40.2548V47.7785Z" fill="#111111"/>
<path d="M41.831 47.7785H40.6465V48.9554H41.831V47.7785Z" fill="#111111"/>
<path d="M44.9892 47.7785H43.8047V48.9554H44.9892V47.7785Z" fill="#111111"/>
<path d="M46.5654 47.7785H45.3809V48.9554H46.5654V47.7785Z" fill="#111111"/>
<path d="M54.4599 47.7785H53.2754V48.9554H54.4599V47.7785Z" fill="#111111"/>
<path d="M35.5166 49.3466H34.332V50.5235H35.5166V49.3466Z" fill="#111111"/>
<path d="M37.0947 49.3466H35.9102V50.5235H37.0947V49.3466Z" fill="#111111"/>
<path d="M38.6767 49.3466H37.4922V50.5235H38.6767V49.3466Z" fill="#111111"/>
<path d="M40.2548 49.3466H39.0703V50.5235H40.2548V49.3466Z" fill="#111111"/>
<path d="M41.831 49.3466H40.6465V50.5235H41.831V49.3466Z" fill="#111111"/>
<path d="M44.9892 49.3466H43.8047V50.5235H44.9892V49.3466Z" fill="#111111"/>
<path d="M46.5654 49.3466H45.3809V50.5235H46.5654V49.3466Z" fill="#111111"/>
<path d="M51.2998 49.3466H50.1152V50.5235H51.2998V49.3466Z" fill="#111111"/>
<path d="M57.6181 49.3466H56.4336V50.5235H57.6181V49.3466Z" fill="#111111"/>
<path d="M59.1943 49.3466H58.0098V50.5235H59.1943V49.3466Z" fill="#111111"/>
<path d="M30.1898 12.2933H20.7188V21.7032H30.1898V12.2933Z" stroke="#111111" stroke-width="1.97511"/>
<path d="M27.8214 14.6456H23.0859V19.3506H27.8214V14.6456Z" fill="#111111"/>
<path d="M58.6077 12.2933H49.1367V21.7032H58.6077V12.2933Z" stroke="#111111" stroke-width="1.97511"/>
<path d="M56.2375 14.6456H51.502V19.3506H56.2375V14.6456Z" fill="#111111"/>
<path d="M30.1898 40.5273H20.7188V49.9372H30.1898V40.5273Z" stroke="#111111" stroke-width="1.97511"/>
<path d="M27.8214 42.8799H23.0859V47.5849H27.8214V42.8799Z" fill="#111111"/>
</svg>
