<svg width="80" height="81" viewBox="0 0 80 81" fill="none" xmlns="http://www.w3.org/2000/svg">
<g id="Template 13">
<rect y="0.400635" width="80" height="80" rx="40" fill="white"/>
<rect x="0.5" y="0.900635" width="79" height="79" rx="39.5" stroke="#1A1A1A" stroke-opacity="0.1"/>
<g id="Group">
<path id="Vector" d="M52.3618 9.33886C52.0486 9.26621 51.7357 9.19815 51.4227 9.13461C50.9988 9.04856 50.5857 9.32419 50.5001 9.75025C50.4143 10.1763 50.6885 10.5915 51.1125 10.6775C51.4113 10.7382 51.7105 10.8032 52.0093 10.8726C52.3085 10.9419 52.6056 11.0152 52.9006 11.0924C53.3193 11.2018 53.7468 10.9495 53.8558 10.5289C53.9645 10.1082 53.7134 9.67848 53.295 9.56905C52.9859 9.48825 52.6747 9.41149 52.3618 9.33886Z" fill="#111111"/>
<path id="Vector_2" d="M37.8159 10.7646C38.2387 10.673 38.5074 10.2542 38.4163 9.82934C38.3251 9.40445 37.9085 9.1343 37.4857 9.22593C36.8873 9.35561 36.2928 9.5013 35.7025 9.6628C35.6692 9.66752 35.6358 9.67446 35.6026 9.6837C34.9854 9.85506 34.374 10.0436 33.7692 10.2489C33.7421 10.2581 33.7159 10.2686 33.6905 10.2803C33.2941 10.4155 32.9001 10.5579 32.5088 10.7075C32.1045 10.8621 31.9015 11.3167 32.0553 11.723C32.2091 12.1292 32.6615 12.3333 33.0657 12.1787C34.6111 11.5878 36.1994 11.115 37.8159 10.7646Z" fill="#111111"/>
<path id="Vector_3" d="M44.2651 10.0202C44.6975 10.0144 45.0436 9.6574 45.0377 9.22278C45.0319 8.78815 44.6767 8.44048 44.2443 8.44624C44.1274 8.4478 44.0105 8.44996 43.8936 8.45272C43.4611 8.46295 43.1189 8.8235 43.1291 9.25804C43.1391 9.69258 43.498 10.0366 43.9302 10.0263C44.0418 10.0237 44.1534 10.0216 44.2651 10.0202Z" fill="#111111"/>
<path id="Vector_4" d="M59.3698 13.5651C59.0566 13.4924 58.7437 13.4244 58.4305 13.3609C58.0068 13.2748 57.5937 13.5504 57.5078 13.9765C57.4223 14.4025 57.6965 14.8177 58.1205 14.9037C58.4193 14.9644 58.7185 15.0294 59.0173 15.0988C59.3165 15.1682 59.6136 15.2415 59.9086 15.3186C60.3273 15.4281 60.7548 15.1758 60.8638 14.7551C60.9725 14.3344 60.7214 13.9047 60.303 13.7953C59.9939 13.7145 59.6827 13.6377 59.3698 13.5651Z" fill="#111111"/>
<path id="Vector_5" d="M44.8215 14.9907C45.2443 14.899 45.5133 14.4803 45.4221 14.0554C45.3307 13.6305 44.9141 13.3604 44.4916 13.452C43.8933 13.5817 43.2985 13.7274 42.7084 13.8889C42.675 13.8936 42.6416 13.9005 42.6085 13.9098C41.9911 14.0811 41.3799 14.2697 40.7749 14.475C40.748 14.4842 40.7216 14.4947 40.6964 14.5064C40.3 14.6415 39.9059 14.784 39.5147 14.9336C39.1104 15.0882 38.9073 15.5428 39.0612 15.949C39.215 16.3553 39.6674 16.5593 40.0714 16.4048C41.617 15.8139 43.2053 15.341 44.8215 14.9907Z" fill="#111111"/>
<path id="Vector_6" d="M51.2712 14.2464C51.7037 14.2406 52.0494 13.8836 52.0439 13.449C52.038 13.0144 51.6829 12.6667 51.2504 12.6725C51.1335 12.674 51.0166 12.6762 50.8997 12.679C50.4672 12.6892 50.125 13.0497 50.135 13.4843C50.1452 13.9188 50.5042 14.2628 50.9363 14.2526C51.048 14.2499 51.1596 14.2479 51.2712 14.2464Z" fill="#111111"/>
<path id="Vector_7" d="M7.93633 33.3569C7.92511 33.6796 7.91837 34.0015 7.91604 34.3224C7.91288 34.757 8.26092 35.1119 8.6934 35.1151C9.12589 35.1183 9.47904 34.7685 9.4822 34.3339C9.48443 34.0274 9.49087 33.7201 9.50158 33.4118C9.51229 33.1036 9.5272 32.7965 9.54625 32.4906C9.57327 32.0568 9.24524 31.6831 8.8136 31.656C8.38194 31.6288 8.01012 31.9585 7.9831 32.3923C7.96315 32.7126 7.94754 33.0341 7.93633 33.3569Z" fill="#111111"/>
<path id="Vector_8" d="M12.1048 47.4356C11.9346 47.0359 11.4744 46.8508 11.0767 47.0219C10.6791 47.1927 10.4948 47.6553 10.6649 48.055C10.9057 48.6205 11.1615 49.1792 11.4319 49.7306C11.4428 49.7626 11.456 49.7942 11.4714 49.8253C11.7565 50.4016 12.0573 50.9688 12.3732 51.5261C12.3873 51.5513 12.4026 51.575 12.4189 51.5979C12.6266 51.963 12.8408 52.3245 13.0617 52.6823C13.2898 53.0514 13.7726 53.1651 14.14 52.9357C14.5075 52.7066 14.6205 52.2214 14.3924 51.8519C13.5203 50.44 12.7554 48.9633 12.1048 47.4356Z" fill="#111111"/>
<path id="Vector_9" d="M10.1476 41.2164C10.0594 40.7907 9.64474 40.5176 9.22133 40.6061C8.79791 40.6949 8.52611 41.1115 8.61425 41.537C8.63809 41.6521 8.66252 41.7673 8.68753 41.8821C8.78001 42.3067 9.19748 42.5753 9.61998 42.4825C10.0425 42.3896 10.31 41.97 10.2175 41.5455C10.1936 41.4359 10.1703 41.326 10.1476 41.2164Z" fill="#111111"/>
<path id="Vector_10" d="M12.1275 24.0714C12.0828 24.3912 12.0426 24.7105 12.0069 25.0295C11.9586 25.4614 12.2678 25.8509 12.6976 25.8996C13.1274 25.9481 13.515 25.6374 13.5633 25.2054C13.5974 24.9009 13.6358 24.5959 13.6785 24.2905C13.7212 23.9851 13.768 23.6812 13.8187 23.379C13.8907 22.9504 13.6034 22.5443 13.1769 22.472C12.7504 22.3996 12.3464 22.6884 12.2744 23.117C12.2212 23.4335 12.1722 23.7516 12.1275 24.0714Z" fill="#111111"/>
<path id="Vector_11" d="M14.8089 38.5107C14.6812 38.0955 14.2427 37.8628 13.8295 37.9912C13.4163 38.1195 13.1848 38.5602 13.3125 38.9753C13.4931 39.5631 13.6894 40.1456 13.9009 40.7225C13.9085 40.7553 13.9183 40.7881 13.9303 40.8206C14.154 41.4236 14.3941 42.0193 14.6503 42.607C14.6618 42.6334 14.6745 42.6586 14.6884 42.6829C14.8569 43.0682 15.0324 43.4503 15.2148 43.8288C15.4033 44.2203 15.8716 44.3838 16.2609 44.1945C16.6502 44.0049 16.813 43.5344 16.6246 43.1432C15.9041 41.6475 15.297 40.0984 14.8089 38.5107Z" fill="#111111"/>
<path id="Vector_12" d="M13.5076 32.1199C13.4642 31.6874 13.0802 31.3722 12.6499 31.4158C12.2196 31.4595 11.9059 31.8454 11.9493 32.2779C11.961 32.3949 11.9734 32.5118 11.9863 32.6286C12.0341 33.0606 12.4214 33.3718 12.8512 33.3237C13.2811 33.2757 13.5908 32.8865 13.5429 32.4545C13.5306 32.3431 13.5188 32.2315 13.5076 32.1199Z" fill="#111111"/>
<path id="Vector_13" d="M72.3765 46.7823C72.3791 46.4594 72.3776 46.1374 72.3715 45.8166C72.3633 45.3818 72.0061 45.0363 71.5737 45.0446C71.1415 45.0528 70.7975 45.4117 70.8057 45.8462C70.8113 46.1527 70.813 46.46 70.8101 46.7685C70.8075 47.0768 70.8007 47.3841 70.7896 47.6906C70.7738 48.1248 71.1116 48.4899 71.5438 48.5054C71.9759 48.5213 72.339 48.182 72.3548 47.7477C72.3665 47.4269 72.3735 47.1052 72.3765 46.7823Z" fill="#111111"/>
<path id="Vector_14" d="M67.8414 32.8182C68.0218 33.2132 68.4868 33.3863 68.8797 33.2049C69.2729 33.0235 69.4449 32.5562 69.2644 32.1612C69.009 31.6023 68.7388 31.0504 68.4543 30.5062C68.4423 30.4746 68.4285 30.4433 68.4124 30.4127C68.1124 29.8442 67.7968 29.2851 67.4663 28.7361C67.4517 28.7115 67.4358 28.6881 67.4189 28.6658C67.2017 28.306 66.9782 27.9503 66.7482 27.5987C66.5106 27.2355 66.0248 27.1347 65.6635 27.3735C65.3022 27.6123 65.2017 28.1004 65.4394 28.4635C66.348 29.852 67.1511 31.3081 67.8414 32.8182Z" fill="#111111"/>
<path id="Vector_15" d="M69.9606 38.9839C70.0599 39.4069 70.4816 39.6692 70.9026 39.5693C71.3236 39.4696 71.5844 39.046 71.4851 38.6229C71.4584 38.5083 71.4309 38.3941 71.403 38.2801C71.2993 37.8579 70.8751 37.6 70.4552 37.704C70.0353 37.8084 69.7787 38.2347 69.8824 38.6566C69.9091 38.7656 69.9351 38.8746 69.9606 38.9839Z" fill="#111111"/>
<path id="Vector_16" d="M69.7104 54.1075C69.7134 53.7846 69.7116 53.4626 69.7057 53.1418C69.6975 52.7073 69.3404 52.3615 68.9079 52.3697C68.4755 52.3779 68.1315 52.7369 68.1397 53.1714C68.1455 53.4778 68.147 53.7852 68.1444 54.0937C68.1417 54.4022 68.1347 54.7096 68.1236 55.0158C68.108 55.45 68.4456 55.8151 68.8777 55.8309C69.3099 55.8467 69.6732 55.5074 69.6887 55.0729C69.7005 54.7521 69.7078 54.4304 69.7104 54.1075Z" fill="#111111"/>
<path id="Vector_17" d="M65.1771 40.1437C65.3576 40.5386 65.8226 40.7118 66.2158 40.5301C66.6087 40.3488 66.781 39.8814 66.6005 39.4865C66.345 38.9277 66.0748 38.3757 65.79 37.8316C65.7783 37.8 65.7643 37.7686 65.7481 37.7379C65.4481 37.1695 65.1326 36.6104 64.8023 36.0614C64.7874 36.0369 64.7716 36.0134 64.7546 35.9911C64.5378 35.6314 64.3139 35.2756 64.0839 34.924C63.8463 34.5608 63.3608 34.46 62.9992 34.6989C62.638 34.9377 62.5378 35.4257 62.7754 35.7889C63.684 37.1774 64.4871 38.6336 65.1771 40.1437Z" fill="#111111"/>
<path id="Vector_18" d="M67.2987 46.3089C67.3977 46.732 67.8194 46.9942 68.2404 46.8946C68.6614 46.7947 68.9222 46.371 68.8232 45.9479C68.7962 45.8334 68.769 45.7191 68.7408 45.6051C68.6374 45.1832 68.2132 44.9254 67.793 45.0294C67.3731 45.1334 67.1168 45.5597 67.2202 45.9819C67.2468 46.0906 67.2729 46.1999 67.2987 46.3089Z" fill="#111111"/>
<path id="Vector_19" d="M33.5651 72.8853C33.8862 72.8964 34.2064 72.9032 34.5257 72.9055C34.9582 72.9088 35.3114 72.5589 35.3145 72.1244C35.3177 71.6896 34.9697 71.3348 34.5372 71.3316C34.2322 71.3292 33.9264 71.3228 33.6197 71.3122C33.313 71.3014 33.0075 71.2864 32.7031 71.2671C32.2715 71.2401 31.8997 71.5698 31.8727 72.0037C31.8456 72.4373 32.1736 72.8112 32.6053 72.8381C32.924 72.8584 33.2439 72.8739 33.5651 72.8853Z" fill="#111111"/>
<path id="Vector_20" d="M47.573 68.6962C47.1754 68.8673 46.9908 69.33 47.161 69.7293C47.3313 70.129 47.7916 70.3144 48.1891 70.1433C48.7517 69.9013 49.3078 69.6443 49.8566 69.3724C49.8882 69.3616 49.9196 69.3484 49.9506 69.3329C50.524 69.0463 51.0884 68.744 51.643 68.4264C51.6679 68.4123 51.6916 68.3971 51.7142 68.3806C52.0778 68.1717 52.4373 67.9564 52.7933 67.7346C53.1607 67.5055 53.2735 67.02 53.0456 66.6508C52.8176 66.2816 52.3348 66.1679 51.9673 66.3971C50.5624 67.2737 49.093 68.0422 47.573 68.6962Z" fill="#111111"/>
<path id="Vector_21" d="M41.3854 70.6634C40.962 70.7519 40.6901 71.1685 40.7783 71.5942C40.8665 72.0197 41.2811 72.2927 41.7045 72.2043C41.819 72.1802 41.9336 72.1556 42.0476 72.1307C42.4701 72.0376 42.7376 71.618 42.6453 71.1934C42.5527 70.7689 42.1352 70.4999 41.7127 70.5931C41.6037 70.6171 41.4947 70.6402 41.3854 70.6634Z" fill="#111111"/>
<path id="Vector_22" d="M24.0261 68.7317C24.3439 68.7795 24.6613 68.8225 24.9783 68.8612C25.4076 68.9137 25.7979 68.6063 25.85 68.1747C25.9021 67.7431 25.5963 67.3508 25.1669 67.2987C24.8643 67.2617 24.5611 67.2204 24.2576 67.1747C23.9541 67.1293 23.6522 67.0795 23.352 67.0259C22.9261 66.95 22.5196 67.2351 22.4439 67.6631C22.3682 68.0909 22.652 68.4997 23.0778 68.5758C23.3922 68.6318 23.7083 68.6839 24.0261 68.7317Z" fill="#111111"/>
<path id="Vector_23" d="M38.4179 66.1634C38.0036 66.2882 37.7683 66.7269 37.8926 67.1432C38.0165 67.5596 38.4531 67.796 38.8674 67.6715C39.4537 67.4951 40.035 67.3029 40.6107 67.0955C40.6435 67.0881 40.6763 67.0785 40.7089 67.0667C41.3107 66.847 41.9055 66.6108 42.4923 66.3586C42.5187 66.3474 42.5439 66.3348 42.5685 66.3211C42.9529 66.1549 43.3347 65.9821 43.7132 65.8019C44.1041 65.6161 44.2711 65.1467 44.0859 64.7538C43.9011 64.3609 43.434 64.1933 43.0432 64.3794C41.5486 65.0902 40.0021 65.6867 38.4179 66.1634Z" fill="#111111"/>
<path id="Vector_24" d="M32.0473 67.4139C31.6166 67.4538 31.2996 67.837 31.3393 68.2697C31.3789 68.7025 31.7602 69.0213 32.1909 68.9814C32.3074 68.9706 32.4238 68.9592 32.5401 68.9472C32.9704 68.9029 33.2834 68.5164 33.2394 68.084C33.1953 67.6515 32.8108 67.3371 32.3806 67.3814C32.2696 67.3928 32.1585 67.4036 32.0473 67.4139Z" fill="#111111"/>
</g>
<g id="Group_2">
<g id="Group_3">
<path id="Vector_25" d="M34.0572 20.7148C34.0572 20.3749 33.7817 20.0993 33.4417 20.0993C33.1018 20.0993 32.8262 20.3749 32.8262 20.7148C32.8262 21.0548 33.1018 21.3303 33.4417 21.3303C33.7817 21.3303 34.0572 21.0548 34.0572 20.7148Z" fill="#111111"/>
<path id="Vector_26" d="M37.3365 20.7148C37.3365 20.3749 37.061 20.0993 36.721 20.0993C36.3811 20.0993 36.1055 20.3749 36.1055 20.7148C36.1055 21.0548 36.3811 21.3303 36.721 21.3303C37.061 21.3303 37.3365 21.0548 37.3365 20.7148Z" fill="#111111"/>
<path id="Vector_27" d="M38.9791 20.7148C38.9791 20.3749 38.7035 20.0993 38.3636 20.0993C38.0236 20.0993 37.748 20.3749 37.748 20.7148C37.748 21.0548 38.0236 21.3303 38.3636 21.3303C38.7035 21.3303 38.9791 21.0548 38.9791 20.7148Z" fill="#111111"/>
<path id="Vector_28" d="M43.901 20.7148C43.901 20.3749 43.6254 20.0993 43.2855 20.0993C42.9455 20.0993 42.6699 20.3749 42.6699 20.7148C42.6699 21.0548 42.9455 21.3303 43.2855 21.3303C43.6254 21.3303 43.901 21.0548 43.901 20.7148Z" fill="#111111"/>
<path id="Vector_29" d="M45.5416 20.7148C45.5416 20.3749 45.266 20.0993 44.9261 20.0993C44.5861 20.0993 44.3105 20.3749 44.3105 20.7148C44.3105 21.0548 44.5861 21.3303 44.9261 21.3303C45.266 21.3303 45.5416 21.0548 45.5416 20.7148Z" fill="#111111"/>
<path id="Vector_30" d="M37.3365 22.3555C37.3365 22.0155 37.061 21.7399 36.721 21.7399C36.3811 21.7399 36.1055 22.0155 36.1055 22.3555C36.1055 22.6954 36.3811 22.971 36.721 22.971C37.061 22.971 37.3365 22.6954 37.3365 22.3555Z" fill="#111111"/>
<path id="Vector_31" d="M38.9791 22.3555C38.9791 22.0155 38.7035 21.7399 38.3636 21.7399C38.0236 21.7399 37.748 22.0155 37.748 22.3555C37.748 22.6954 38.0236 22.971 38.3636 22.971C38.7035 22.971 38.9791 22.6954 38.9791 22.3555Z" fill="#111111"/>
<path id="Vector_32" d="M42.2604 22.3555C42.2604 22.0155 41.9848 21.7399 41.6448 21.7399C41.3049 21.7399 41.0293 22.0155 41.0293 22.3555C41.0293 22.6954 41.3049 22.971 41.6448 22.971C41.9848 22.971 42.2604 22.6954 42.2604 22.3555Z" fill="#111111"/>
<path id="Vector_33" d="M45.5416 22.3555C45.5416 22.0155 45.266 21.7399 44.9261 21.7399C44.5861 21.7399 44.3105 22.0155 44.3105 22.3555C44.3105 22.6954 44.5861 22.971 44.9261 22.971C45.266 22.971 45.5416 22.6954 45.5416 22.3555Z" fill="#111111"/>
<path id="Vector_34" d="M47.1803 22.3555C47.1803 22.0155 46.9047 21.7399 46.5648 21.7399C46.2248 21.7399 45.9492 22.0155 45.9492 22.3555C45.9492 22.6954 46.2248 22.971 46.5648 22.971C46.9047 22.971 47.1803 22.6954 47.1803 22.3555Z" fill="#111111"/>
<path id="Vector_35" d="M34.0572 23.9959C34.0572 23.656 33.7817 23.3804 33.4417 23.3804C33.1018 23.3804 32.8262 23.656 32.8262 23.9959C32.8262 24.3359 33.1018 24.6115 33.4417 24.6115C33.7817 24.6115 34.0572 24.3359 34.0572 23.9959Z" fill="#111111"/>
<path id="Vector_36" d="M40.6178 23.9959C40.6178 23.656 40.3422 23.3804 40.0023 23.3804C39.6623 23.3804 39.3867 23.656 39.3867 23.9959C39.3867 24.3359 39.6623 24.6115 40.0023 24.6115C40.3422 24.6115 40.6178 24.3359 40.6178 23.9959Z" fill="#111111"/>
<path id="Vector_37" d="M43.901 23.9959C43.901 23.656 43.6254 23.3804 43.2855 23.3804C42.9455 23.3804 42.6699 23.656 42.6699 23.9959C42.6699 24.3359 42.9455 24.6115 43.2855 24.6115C43.6254 24.6115 43.901 24.3359 43.901 23.9959Z" fill="#111111"/>
<path id="Vector_38" d="M45.5416 23.9959C45.5416 23.656 45.266 23.3804 44.9261 23.3804C44.5861 23.3804 44.3105 23.656 44.3105 23.9959C44.3105 24.3359 44.5861 24.6115 44.9261 24.6115C45.266 24.6115 45.5416 24.3359 45.5416 23.9959Z" fill="#111111"/>
<path id="Vector_39" d="M34.0572 25.6366C34.0572 25.2966 33.7817 25.0211 33.4417 25.0211C33.1018 25.0211 32.8262 25.2966 32.8262 25.6366C32.8262 25.9765 33.1018 26.2521 33.4417 26.2521C33.7817 26.2521 34.0572 25.9765 34.0572 25.6366Z" fill="#111111"/>
<path id="Vector_40" d="M38.9791 25.6366C38.9791 25.2966 38.7035 25.0211 38.3636 25.0211C38.0236 25.0211 37.748 25.2966 37.748 25.6366C37.748 25.9765 38.0236 26.2521 38.3636 26.2521C38.7035 26.2521 38.9791 25.9765 38.9791 25.6366Z" fill="#111111"/>
<path id="Vector_41" d="M43.901 25.6366C43.901 25.2966 43.6254 25.0211 43.2855 25.0211C42.9455 25.0211 42.6699 25.2966 42.6699 25.6366C42.6699 25.9765 42.9455 26.2521 43.2855 26.2521C43.6254 26.2521 43.901 25.9765 43.901 25.6366Z" fill="#111111"/>
<path id="Vector_42" d="M35.6959 27.2769C35.6959 26.937 35.4203 26.6614 35.0804 26.6614C34.7404 26.6614 34.4648 26.937 34.4648 27.2769C34.4648 27.6169 34.7404 27.8924 35.0804 27.8924C35.4203 27.8924 35.6959 27.6169 35.6959 27.2769Z" fill="#111111"/>
<path id="Vector_43" d="M40.6178 27.2769C40.6178 26.937 40.3422 26.6614 40.0023 26.6614C39.6623 26.6614 39.3867 26.937 39.3867 27.2769C39.3867 27.6169 39.6623 27.8924 40.0023 27.8924C40.3422 27.8924 40.6178 27.6169 40.6178 27.2769Z" fill="#111111"/>
<path id="Vector_44" d="M43.901 27.2769C43.901 26.937 43.6254 26.6614 43.2855 26.6614C42.9455 26.6614 42.6699 26.937 42.6699 27.2769C42.6699 27.6169 42.9455 27.8924 43.2855 27.8924C43.6254 27.8924 43.901 27.6169 43.901 27.2769Z" fill="#111111"/>
<path id="Vector_45" d="M45.5416 27.2769C45.5416 26.937 45.266 26.6614 44.9261 26.6614C44.5861 26.6614 44.3105 26.937 44.3105 27.2769C44.3105 27.6169 44.5861 27.8924 44.9261 27.8924C45.266 27.8924 45.5416 27.6169 45.5416 27.2769Z" fill="#111111"/>
<path id="Vector_46" d="M34.0572 28.9174C34.0572 28.5774 33.7817 28.3019 33.4417 28.3019C33.1018 28.3019 32.8262 28.5774 32.8262 28.9174C32.8262 29.2573 33.1018 29.5329 33.4417 29.5329C33.7817 29.5329 34.0572 29.2573 34.0572 28.9174Z" fill="#111111"/>
<path id="Vector_47" d="M35.6959 28.9174C35.6959 28.5774 35.4203 28.3019 35.0804 28.3019C34.7404 28.3019 34.4648 28.5774 34.4648 28.9174C34.4648 29.2573 34.7404 29.5329 35.0804 29.5329C35.4203 29.5329 35.6959 29.2573 35.6959 28.9174Z" fill="#111111"/>
<path id="Vector_48" d="M38.9791 28.9174C38.9791 28.5774 38.7035 28.3019 38.3636 28.3019C38.0236 28.3019 37.748 28.5774 37.748 28.9174C37.748 29.2573 38.0236 29.5329 38.3636 29.5329C38.7035 29.5329 38.9791 29.2573 38.9791 28.9174Z" fill="#111111"/>
<path id="Vector_49" d="M45.5416 28.9174C45.5416 28.5774 45.266 28.3019 44.9261 28.3019C44.5861 28.3019 44.3105 28.5774 44.3105 28.9174C44.3105 29.2573 44.5861 29.5329 44.9261 29.5329C45.266 29.5329 45.5416 29.2573 45.5416 28.9174Z" fill="#111111"/>
<path id="Vector_50" d="M47.1803 28.9174C47.1803 28.5774 46.9047 28.3019 46.5648 28.3019C46.2248 28.3019 45.9492 28.5774 45.9492 28.9174C45.9492 29.2573 46.2248 29.5329 46.5648 29.5329C46.9047 29.5329 47.1803 29.2573 47.1803 28.9174Z" fill="#111111"/>
<path id="Vector_51" d="M34.0572 30.5582C34.0572 30.2183 33.7817 29.9427 33.4417 29.9427C33.1018 29.9427 32.8262 30.2183 32.8262 30.5582C32.8262 30.8982 33.1018 31.1738 33.4417 31.1738C33.7817 31.1738 34.0572 30.8982 34.0572 30.5582Z" fill="#111111"/>
<path id="Vector_52" d="M37.3365 30.5582C37.3365 30.2183 37.061 29.9427 36.721 29.9427C36.3811 29.9427 36.1055 30.2183 36.1055 30.5582C36.1055 30.8982 36.3811 31.1738 36.721 31.1738C37.061 31.1738 37.3365 30.8982 37.3365 30.5582Z" fill="#111111"/>
<path id="Vector_53" d="M40.6178 30.5582C40.6178 30.2183 40.3422 29.9427 40.0023 29.9427C39.6623 29.9427 39.3867 30.2183 39.3867 30.5582C39.3867 30.8982 39.6623 31.1738 40.0023 31.1738C40.3422 31.1738 40.6178 30.8982 40.6178 30.5582Z" fill="#111111"/>
<path id="Vector_54" d="M43.901 30.5582C43.901 30.2183 43.6254 29.9427 43.2855 29.9427C42.9455 29.9427 42.6699 30.2183 42.6699 30.5582C42.6699 30.8982 42.9455 31.1738 43.2855 31.1738C43.6254 31.1738 43.901 30.8982 43.901 30.5582Z" fill="#111111"/>
<path id="Vector_55" d="M47.1803 30.5582C47.1803 30.2183 46.9047 29.9427 46.5648 29.9427C46.2248 29.9427 45.9492 30.2183 45.9492 30.5582C45.9492 30.8982 46.2248 31.1738 46.5648 31.1738C46.9047 31.1738 47.1803 30.8982 47.1803 30.5582Z" fill="#111111"/>
<path id="Vector_56" d="M34.0572 32.1984C34.0572 31.8584 33.7817 31.5828 33.4417 31.5828C33.1018 31.5828 32.8262 31.8584 32.8262 32.1984C32.8262 32.5383 33.1018 32.8139 33.4417 32.8139C33.7817 32.8139 34.0572 32.5383 34.0572 32.1984Z" fill="#111111"/>
<path id="Vector_57" d="M37.3365 32.1984C37.3365 31.8584 37.061 31.5828 36.721 31.5828C36.3811 31.5828 36.1055 31.8584 36.1055 32.1984C36.1055 32.5383 36.3811 32.8139 36.721 32.8139C37.061 32.8139 37.3365 32.5383 37.3365 32.1984Z" fill="#111111"/>
<path id="Vector_58" d="M38.9791 32.1984C38.9791 31.8584 38.7035 31.5828 38.3636 31.5828C38.0236 31.5828 37.748 31.8584 37.748 32.1984C37.748 32.5383 38.0236 32.8139 38.3636 32.8139C38.7035 32.8139 38.9791 32.5383 38.9791 32.1984Z" fill="#111111"/>
<path id="Vector_59" d="M43.901 32.1984C43.901 31.8584 43.6254 31.5828 43.2855 31.5828C42.9455 31.5828 42.6699 31.8584 42.6699 32.1984C42.6699 32.5383 42.9455 32.8139 43.2855 32.8139C43.6254 32.8139 43.901 32.5383 43.901 32.1984Z" fill="#111111"/>
<path id="Vector_60" d="M47.1803 32.1984C47.1803 31.8584 46.9047 31.5828 46.5648 31.5828C46.2248 31.5828 45.9492 31.8584 45.9492 32.1984C45.9492 32.5383 46.2248 32.8139 46.5648 32.8139C46.9047 32.8139 47.1803 32.5383 47.1803 32.1984Z" fill="#111111"/>
<path id="Vector_61" d="M22.5709 33.8392C22.5709 33.4992 22.2953 33.2236 21.9554 33.2236C21.6154 33.2236 21.3398 33.4992 21.3398 33.8392C21.3398 34.1791 21.6154 34.4547 21.9554 34.4547C22.2953 34.4547 22.5709 34.1791 22.5709 33.8392Z" fill="#111111"/>
<path id="Vector_62" d="M25.8541 33.8392C25.8541 33.4992 25.5785 33.2236 25.2386 33.2236C24.8986 33.2236 24.623 33.4992 24.623 33.8392C24.623 34.1791 24.8986 34.4547 25.2386 34.4547C25.5785 34.4547 25.8541 34.1791 25.8541 33.8392Z" fill="#111111"/>
<path id="Vector_63" d="M29.1354 33.8392C29.1354 33.4992 28.8598 33.2236 28.5198 33.2236C28.1799 33.2236 27.9043 33.4992 27.9043 33.8392C27.9043 34.1791 28.1799 34.4547 28.5198 34.4547C28.8598 34.4547 29.1354 34.1791 29.1354 33.8392Z" fill="#111111"/>
<path id="Vector_64" d="M30.776 33.8392C30.776 33.4992 30.5004 33.2236 30.1605 33.2236C29.8205 33.2236 29.5449 33.4992 29.5449 33.8392C29.5449 34.1791 29.8205 34.4547 30.1605 34.4547C30.5004 34.4547 30.776 34.1791 30.776 33.8392Z" fill="#111111"/>
<path id="Vector_65" d="M32.4166 33.8392C32.4166 33.4992 32.141 33.2236 31.8011 33.2236C31.4611 33.2236 31.1855 33.4992 31.1855 33.8392C31.1855 34.1791 31.4611 34.4547 31.8011 34.4547C32.141 34.4547 32.4166 34.1791 32.4166 33.8392Z" fill="#111111"/>
<path id="Vector_66" d="M34.0572 33.8392C34.0572 33.4992 33.7817 33.2236 33.4417 33.2236C33.1018 33.2236 32.8262 33.4992 32.8262 33.8392C32.8262 34.1791 33.1018 34.4547 33.4417 34.4547C33.7817 34.4547 34.0572 34.1791 34.0572 33.8392Z" fill="#111111"/>
<path id="Vector_67" d="M37.3365 33.8392C37.3365 33.4992 37.061 33.2236 36.721 33.2236C36.3811 33.2236 36.1055 33.4992 36.1055 33.8392C36.1055 34.1791 36.3811 34.4547 36.721 34.4547C37.061 34.4547 37.3365 34.1791 37.3365 33.8392Z" fill="#111111"/>
<path id="Vector_68" d="M38.9791 33.8392C38.9791 33.4992 38.7035 33.2236 38.3636 33.2236C38.0236 33.2236 37.748 33.4992 37.748 33.8392C37.748 34.1791 38.0236 34.4547 38.3636 34.4547C38.7035 34.4547 38.9791 34.1791 38.9791 33.8392Z" fill="#111111"/>
<path id="Vector_69" d="M40.6178 33.8392C40.6178 33.4992 40.3422 33.2236 40.0023 33.2236C39.6623 33.2236 39.3867 33.4992 39.3867 33.8392C39.3867 34.1791 39.6623 34.4547 40.0023 34.4547C40.3422 34.4547 40.6178 34.1791 40.6178 33.8392Z" fill="#111111"/>
<path id="Vector_70" d="M42.2604 33.8392C42.2604 33.4992 41.9848 33.2236 41.6448 33.2236C41.3049 33.2236 41.0293 33.4992 41.0293 33.8392C41.0293 34.1791 41.3049 34.4547 41.6448 34.4547C41.9848 34.4547 42.2604 34.1791 42.2604 33.8392Z" fill="#111111"/>
<path id="Vector_71" d="M43.901 33.8392C43.901 33.4992 43.6254 33.2236 43.2855 33.2236C42.9455 33.2236 42.6699 33.4992 42.6699 33.8392C42.6699 34.1791 42.9455 34.4547 43.2855 34.4547C43.6254 34.4547 43.901 34.1791 43.901 33.8392Z" fill="#111111"/>
<path id="Vector_72" d="M47.1803 33.8392C47.1803 33.4992 46.9047 33.2236 46.5648 33.2236C46.2248 33.2236 45.9492 33.4992 45.9492 33.8392C45.9492 34.1791 46.2248 34.4547 46.5648 34.4547C46.9047 34.4547 47.1803 34.1791 47.1803 33.8392Z" fill="#111111"/>
<path id="Vector_73" d="M48.8209 33.8392C48.8209 33.4992 48.5453 33.2236 48.2054 33.2236C47.8654 33.2236 47.5898 33.4992 47.5898 33.8392C47.5898 34.1791 47.8654 34.4547 48.2054 34.4547C48.5453 34.4547 48.8209 34.1791 48.8209 33.8392Z" fill="#111111"/>
<path id="Vector_74" d="M50.4635 33.8392C50.4635 33.4992 50.1879 33.2236 49.848 33.2236C49.508 33.2236 49.2324 33.4992 49.2324 33.8392C49.2324 34.1791 49.508 34.4547 49.848 34.4547C50.1879 34.4547 50.4635 34.1791 50.4635 33.8392Z" fill="#111111"/>
<path id="Vector_75" d="M52.1002 33.8392C52.1002 33.4992 51.8246 33.2236 51.4847 33.2236C51.1447 33.2236 50.8691 33.4992 50.8691 33.8392C50.8691 34.1791 51.1447 34.4547 51.4847 34.4547C51.8246 34.4547 52.1002 34.1791 52.1002 33.8392Z" fill="#111111"/>
<path id="Vector_76" d="M55.3834 33.8392C55.3834 33.4992 55.1078 33.2236 54.7679 33.2236C54.4279 33.2236 54.1523 33.4992 54.1523 33.8392C54.1523 34.1791 54.4279 34.4547 54.7679 34.4547C55.1078 34.4547 55.3834 34.1791 55.3834 33.8392Z" fill="#111111"/>
<path id="Vector_77" d="M57.024 33.8392C57.024 33.4992 56.7485 33.2236 56.4085 33.2236C56.0686 33.2236 55.793 33.4992 55.793 33.8392C55.793 34.1791 56.0686 34.4547 56.4085 34.4547C56.7485 34.4547 57.024 34.1791 57.024 33.8392Z" fill="#111111"/>
<path id="Vector_78" d="M60.3053 33.8392C60.3053 33.4992 60.0297 33.2236 59.6898 33.2236C59.3498 33.2236 59.0742 33.4992 59.0742 33.8392C59.0742 34.1791 59.3498 34.4547 59.6898 34.4547C60.0297 34.4547 60.3053 34.1791 60.3053 33.8392Z" fill="#111111"/>
<path id="Vector_79" d="M20.9322 35.4797C20.9322 35.1397 20.6567 34.8641 20.3167 34.8641C19.9768 34.8641 19.7012 35.1397 19.7012 35.4797C19.7012 35.8196 19.9768 36.0952 20.3167 36.0952C20.6567 36.0952 20.9322 35.8196 20.9322 35.4797Z" fill="#111111"/>
<path id="Vector_80" d="M22.5709 35.4797C22.5709 35.1397 22.2953 34.8641 21.9554 34.8641C21.6154 34.8641 21.3398 35.1397 21.3398 35.4797C21.3398 35.8196 21.6154 36.0952 21.9554 36.0952C22.2953 36.0952 22.5709 35.8196 22.5709 35.4797Z" fill="#111111"/>
<path id="Vector_81" d="M24.2135 35.4797C24.2135 35.1397 23.9379 34.8641 23.598 34.8641C23.258 34.8641 22.9824 35.1397 22.9824 35.4797C22.9824 35.8196 23.258 36.0952 23.598 36.0952C23.9379 36.0952 24.2135 35.8196 24.2135 35.4797Z" fill="#111111"/>
<path id="Vector_82" d="M25.8541 35.4797C25.8541 35.1397 25.5785 34.8641 25.2386 34.8641C24.8986 34.8641 24.623 35.1397 24.623 35.4797C24.623 35.8196 24.8986 36.0952 25.2386 36.0952C25.5785 36.0952 25.8541 35.8196 25.8541 35.4797Z" fill="#111111"/>
<path id="Vector_83" d="M35.6959 35.4797C35.6959 35.1397 35.4203 34.8641 35.0804 34.8641C34.7404 34.8641 34.4648 35.1397 34.4648 35.4797C34.4648 35.8196 34.7404 36.0952 35.0804 36.0952C35.4203 36.0952 35.6959 35.8196 35.6959 35.4797Z" fill="#111111"/>
<path id="Vector_84" d="M40.6178 35.4797C40.6178 35.1397 40.3422 34.8641 40.0023 34.8641C39.6623 34.8641 39.3867 35.1397 39.3867 35.4797C39.3867 35.8196 39.6623 36.0952 40.0023 36.0952C40.3422 36.0952 40.6178 35.8196 40.6178 35.4797Z" fill="#111111"/>
<path id="Vector_85" d="M47.1803 35.4797C47.1803 35.1397 46.9047 34.8641 46.5648 34.8641C46.2248 34.8641 45.9492 35.1397 45.9492 35.4797C45.9492 35.8196 46.2248 36.0952 46.5648 36.0952C46.9047 36.0952 47.1803 35.8196 47.1803 35.4797Z" fill="#111111"/>
<path id="Vector_86" d="M48.8209 35.4797C48.8209 35.1397 48.5453 34.8641 48.2054 34.8641C47.8654 34.8641 47.5898 35.1397 47.5898 35.4797C47.5898 35.8196 47.8654 36.0952 48.2054 36.0952C48.5453 36.0952 48.8209 35.8196 48.8209 35.4797Z" fill="#111111"/>
<path id="Vector_87" d="M50.4635 35.4797C50.4635 35.1397 50.1879 34.8641 49.848 34.8641C49.508 34.8641 49.2324 35.1397 49.2324 35.4797C49.2324 35.8196 49.508 36.0952 49.848 36.0952C50.1879 36.0952 50.4635 35.8196 50.4635 35.4797Z" fill="#111111"/>
<path id="Vector_88" d="M60.3053 35.4797C60.3053 35.1397 60.0297 34.8641 59.6898 34.8641C59.3498 34.8641 59.0742 35.1397 59.0742 35.4797C59.0742 35.8196 59.3498 36.0952 59.6898 36.0952C60.0297 36.0952 60.3053 35.8196 60.3053 35.4797Z" fill="#111111"/>
<path id="Vector_89" d="M20.9322 37.1202C20.9322 36.7802 20.6567 36.5046 20.3167 36.5046C19.9768 36.5046 19.7012 36.7802 19.7012 37.1202C19.7012 37.4601 19.9768 37.7357 20.3167 37.7357C20.6567 37.7357 20.9322 37.4601 20.9322 37.1202Z" fill="#111111"/>
<path id="Vector_90" d="M22.5709 37.1202C22.5709 36.7802 22.2953 36.5046 21.9554 36.5046C21.6154 36.5046 21.3398 36.7802 21.3398 37.1202C21.3398 37.4601 21.6154 37.7357 21.9554 37.7357C22.2953 37.7357 22.5709 37.4601 22.5709 37.1202Z" fill="#111111"/>
<path id="Vector_91" d="M25.8541 37.1202C25.8541 36.7802 25.5785 36.5046 25.2386 36.5046C24.8986 36.5046 24.623 36.7802 24.623 37.1202C24.623 37.4601 24.8986 37.7357 25.2386 37.7357C25.5785 37.7357 25.8541 37.4601 25.8541 37.1202Z" fill="#111111"/>
<path id="Vector_92" d="M27.4928 37.1202C27.4928 36.7802 27.2172 36.5046 26.8773 36.5046C26.5373 36.5046 26.2617 36.7802 26.2617 37.1202C26.2617 37.4601 26.5373 37.7357 26.8773 37.7357C27.2172 37.7357 27.4928 37.4601 27.4928 37.1202Z" fill="#111111"/>
<path id="Vector_93" d="M29.1354 37.1202C29.1354 36.7802 28.8598 36.5046 28.5198 36.5046C28.1799 36.5046 27.9043 36.7802 27.9043 37.1202C27.9043 37.4601 28.1799 37.7357 28.5198 37.7357C28.8598 37.7357 29.1354 37.4601 29.1354 37.1202Z" fill="#111111"/>
<path id="Vector_94" d="M30.776 37.1202C30.776 36.7802 30.5004 36.5046 30.1605 36.5046C29.8205 36.5046 29.5449 36.7802 29.5449 37.1202C29.5449 37.4601 29.8205 37.7357 30.1605 37.7357C30.5004 37.7357 30.776 37.4601 30.776 37.1202Z" fill="#111111"/>
<path id="Vector_95" d="M34.0572 37.1202C34.0572 36.7802 33.7817 36.5046 33.4417 36.5046C33.1018 36.5046 32.8262 36.7802 32.8262 37.1202C32.8262 37.4601 33.1018 37.7357 33.4417 37.7357C33.7817 37.7357 34.0572 37.4601 34.0572 37.1202Z" fill="#111111"/>
<path id="Vector_96" d="M35.6959 37.1202C35.6959 36.7802 35.4203 36.5046 35.0804 36.5046C34.7404 36.5046 34.4648 36.7802 34.4648 37.1202C34.4648 37.4601 34.7404 37.7357 35.0804 37.7357C35.4203 37.7357 35.6959 37.4601 35.6959 37.1202Z" fill="#111111"/>
<path id="Vector_97" d="M42.2604 37.1202C42.2604 36.7802 41.9848 36.5046 41.6448 36.5046C41.3049 36.5046 41.0293 36.7802 41.0293 37.1202C41.0293 37.4601 41.3049 37.7357 41.6448 37.7357C41.9848 37.7357 42.2604 37.4601 42.2604 37.1202Z" fill="#111111"/>
<path id="Vector_98" d="M47.1803 37.1202C47.1803 36.7802 46.9047 36.5046 46.5648 36.5046C46.2248 36.5046 45.9492 36.7802 45.9492 37.1202C45.9492 37.4601 46.2248 37.7357 46.5648 37.7357C46.9047 37.7357 47.1803 37.4601 47.1803 37.1202Z" fill="#111111"/>
<path id="Vector_99" d="M48.8209 37.1202C48.8209 36.7802 48.5453 36.5046 48.2054 36.5046C47.8654 36.5046 47.5898 36.7802 47.5898 37.1202C47.5898 37.4601 47.8654 37.7357 48.2054 37.7357C48.5453 37.7357 48.8209 37.4601 48.8209 37.1202Z" fill="#111111"/>
<path id="Vector_100" d="M50.4635 37.1202C50.4635 36.7802 50.1879 36.5046 49.848 36.5046C49.508 36.5046 49.2324 36.7802 49.2324 37.1202C49.2324 37.4601 49.508 37.7357 49.848 37.7357C50.1879 37.7357 50.4635 37.4601 50.4635 37.1202Z" fill="#111111"/>
<path id="Vector_101" d="M52.1002 37.1202C52.1002 36.7802 51.8246 36.5046 51.4847 36.5046C51.1447 36.5046 50.8691 36.7802 50.8691 37.1202C50.8691 37.4601 51.1447 37.7357 51.4847 37.7357C51.8246 37.7357 52.1002 37.4601 52.1002 37.1202Z" fill="#111111"/>
<path id="Vector_102" d="M58.6627 37.1202C58.6627 36.7802 58.3871 36.5046 58.0472 36.5046C57.7072 36.5046 57.4316 36.7802 57.4316 37.1202C57.4316 37.4601 57.7072 37.7357 58.0472 37.7357C58.3871 37.7357 58.6627 37.4601 58.6627 37.1202Z" fill="#111111"/>
<path id="Vector_103" d="M60.3053 37.1202C60.3053 36.7802 60.0297 36.5046 59.6898 36.5046C59.3498 36.5046 59.0742 36.7802 59.0742 37.1202C59.0742 37.4601 59.3498 37.7357 59.6898 37.7357C60.0297 37.7357 60.3053 37.4601 60.3053 37.1202Z" fill="#111111"/>
<path id="Vector_104" d="M24.2135 38.7608C24.2135 38.4209 23.9379 38.1453 23.598 38.1453C23.258 38.1453 22.9824 38.4209 22.9824 38.7608C22.9824 39.1008 23.258 39.3763 23.598 39.3763C23.9379 39.3763 24.2135 39.1008 24.2135 38.7608Z" fill="#111111"/>
<path id="Vector_105" d="M25.8541 38.7608C25.8541 38.4209 25.5785 38.1453 25.2386 38.1453C24.8986 38.1453 24.623 38.4209 24.623 38.7608C24.623 39.1008 24.8986 39.3763 25.2386 39.3763C25.5785 39.3763 25.8541 39.1008 25.8541 38.7608Z" fill="#111111"/>
<path id="Vector_106" d="M27.4928 38.7608C27.4928 38.4209 27.2172 38.1453 26.8773 38.1453C26.5373 38.1453 26.2617 38.4209 26.2617 38.7608C26.2617 39.1008 26.5373 39.3763 26.8773 39.3763C27.2172 39.3763 27.4928 39.1008 27.4928 38.7608Z" fill="#111111"/>
<path id="Vector_107" d="M29.1354 38.7608C29.1354 38.4209 28.8598 38.1453 28.5198 38.1453C28.1799 38.1453 27.9043 38.4209 27.9043 38.7608C27.9043 39.1008 28.1799 39.3763 28.5198 39.3763C28.8598 39.3763 29.1354 39.1008 29.1354 38.7608Z" fill="#111111"/>
<path id="Vector_108" d="M34.0572 38.7608C34.0572 38.4209 33.7817 38.1453 33.4417 38.1453C33.1018 38.1453 32.8262 38.4209 32.8262 38.7608C32.8262 39.1008 33.1018 39.3763 33.4417 39.3763C33.7817 39.3763 34.0572 39.1008 34.0572 38.7608Z" fill="#111111"/>
<path id="Vector_109" d="M38.9791 38.7608C38.9791 38.4209 38.7035 38.1453 38.3636 38.1453C38.0236 38.1453 37.748 38.4209 37.748 38.7608C37.748 39.1008 38.0236 39.3763 38.3636 39.3763C38.7035 39.3763 38.9791 39.1008 38.9791 38.7608Z" fill="#111111"/>
<path id="Vector_110" d="M42.2604 38.7608C42.2604 38.4209 41.9848 38.1453 41.6448 38.1453C41.3049 38.1453 41.0293 38.4209 41.0293 38.7608C41.0293 39.1008 41.3049 39.3763 41.6448 39.3763C41.9848 39.3763 42.2604 39.1008 42.2604 38.7608Z" fill="#111111"/>
<path id="Vector_111" d="M45.5416 38.7608C45.5416 38.4209 45.266 38.1453 44.9261 38.1453C44.5861 38.1453 44.3105 38.4209 44.3105 38.7608C44.3105 39.1008 44.5861 39.3763 44.9261 39.3763C45.266 39.3763 45.5416 39.1008 45.5416 38.7608Z" fill="#111111"/>
<path id="Vector_112" d="M52.1002 38.7608C52.1002 38.4209 51.8246 38.1453 51.4847 38.1453C51.1447 38.1453 50.8691 38.4209 50.8691 38.7608C50.8691 39.1008 51.1447 39.3763 51.4847 39.3763C51.8246 39.3763 52.1002 39.1008 52.1002 38.7608Z" fill="#111111"/>
<path id="Vector_113" d="M53.7428 38.7608C53.7428 38.4209 53.4672 38.1453 53.1273 38.1453C52.7873 38.1453 52.5117 38.4209 52.5117 38.7608C52.5117 39.1008 52.7873 39.3763 53.1273 39.3763C53.4672 39.3763 53.7428 39.1008 53.7428 38.7608Z" fill="#111111"/>
<path id="Vector_114" d="M20.9322 40.4011C20.9322 40.0612 20.6567 39.7856 20.3167 39.7856C19.9768 39.7856 19.7012 40.0612 19.7012 40.4011C19.7012 40.7411 19.9768 41.0167 20.3167 41.0167C20.6567 41.0167 20.9322 40.7411 20.9322 40.4011Z" fill="#111111"/>
<path id="Vector_115" d="M27.4928 40.4011C27.4928 40.0612 27.2172 39.7856 26.8773 39.7856C26.5373 39.7856 26.2617 40.0612 26.2617 40.4011C26.2617 40.7411 26.5373 41.0167 26.8773 41.0167C27.2172 41.0167 27.4928 40.7411 27.4928 40.4011Z" fill="#111111"/>
<path id="Vector_116" d="M30.776 40.4011C30.776 40.0612 30.5004 39.7856 30.1605 39.7856C29.8205 39.7856 29.5449 40.0612 29.5449 40.4011C29.5449 40.7411 29.8205 41.0167 30.1605 41.0167C30.5004 41.0167 30.776 40.7411 30.776 40.4011Z" fill="#111111"/>
<path id="Vector_117" d="M32.4166 40.4011C32.4166 40.0612 32.141 39.7856 31.8011 39.7856C31.4611 39.7856 31.1855 40.0612 31.1855 40.4011C31.1855 40.7411 31.4611 41.0167 31.8011 41.0167C32.141 41.0167 32.4166 40.7411 32.4166 40.4011Z" fill="#111111"/>
<path id="Vector_118" d="M34.0572 40.4011C34.0572 40.0612 33.7817 39.7856 33.4417 39.7856C33.1018 39.7856 32.8262 40.0612 32.8262 40.4011C32.8262 40.7411 33.1018 41.0167 33.4417 41.0167C33.7817 41.0167 34.0572 40.7411 34.0572 40.4011Z" fill="#111111"/>
<path id="Vector_119" d="M37.3365 40.4011C37.3365 40.0612 37.061 39.7856 36.721 39.7856C36.3811 39.7856 36.1055 40.0612 36.1055 40.4011C36.1055 40.7411 36.3811 41.0167 36.721 41.0167C37.061 41.0167 37.3365 40.7411 37.3365 40.4011Z" fill="#111111"/>
<path id="Vector_120" d="M38.9791 40.4011C38.9791 40.0612 38.7035 39.7856 38.3636 39.7856C38.0236 39.7856 37.748 40.0612 37.748 40.4011C37.748 40.7411 38.0236 41.0167 38.3636 41.0167C38.7035 41.0167 38.9791 40.7411 38.9791 40.4011Z" fill="#111111"/>
<path id="Vector_121" d="M40.6178 40.4011C40.6178 40.0612 40.3422 39.7856 40.0023 39.7856C39.6623 39.7856 39.3867 40.0612 39.3867 40.4011C39.3867 40.7411 39.6623 41.0167 40.0023 41.0167C40.3422 41.0167 40.6178 40.7411 40.6178 40.4011Z" fill="#111111"/>
<path id="Vector_122" d="M43.901 40.4011C43.901 40.0612 43.6254 39.7856 43.2855 39.7856C42.9455 39.7856 42.6699 40.0612 42.6699 40.4011C42.6699 40.7411 42.9455 41.0167 43.2855 41.0167C43.6254 41.0167 43.901 40.7411 43.901 40.4011Z" fill="#111111"/>
<path id="Vector_123" d="M45.5416 40.4011C45.5416 40.0612 45.266 39.7856 44.9261 39.7856C44.5861 39.7856 44.3105 40.0612 44.3105 40.4011C44.3105 40.7411 44.5861 41.0167 44.9261 41.0167C45.266 41.0167 45.5416 40.7411 45.5416 40.4011Z" fill="#111111"/>
<path id="Vector_124" d="M47.1803 40.4011C47.1803 40.0612 46.9047 39.7856 46.5648 39.7856C46.2248 39.7856 45.9492 40.0612 45.9492 40.4011C45.9492 40.7411 46.2248 41.0167 46.5648 41.0167C46.9047 41.0167 47.1803 40.7411 47.1803 40.4011Z" fill="#111111"/>
<path id="Vector_125" d="M48.8209 40.4011C48.8209 40.0612 48.5453 39.7856 48.2054 39.7856C47.8654 39.7856 47.5898 40.0612 47.5898 40.4011C47.5898 40.7411 47.8654 41.0167 48.2054 41.0167C48.5453 41.0167 48.8209 40.7411 48.8209 40.4011Z" fill="#111111"/>
<path id="Vector_126" d="M50.4635 40.4011C50.4635 40.0612 50.1879 39.7856 49.848 39.7856C49.508 39.7856 49.2324 40.0612 49.2324 40.4011C49.2324 40.7411 49.508 41.0167 49.848 41.0167C50.1879 41.0167 50.4635 40.7411 50.4635 40.4011Z" fill="#111111"/>
<path id="Vector_127" d="M52.1002 40.4011C52.1002 40.0612 51.8246 39.7856 51.4847 39.7856C51.1447 39.7856 50.8691 40.0612 50.8691 40.4011C50.8691 40.7411 51.1447 41.0167 51.4847 41.0167C51.8246 41.0167 52.1002 40.7411 52.1002 40.4011Z" fill="#111111"/>
<path id="Vector_128" d="M55.3834 40.4011C55.3834 40.0612 55.1078 39.7856 54.7679 39.7856C54.4279 39.7856 54.1523 40.0612 54.1523 40.4011C54.1523 40.7411 54.4279 41.0167 54.7679 41.0167C55.1078 41.0167 55.3834 40.7411 55.3834 40.4011Z" fill="#111111"/>
<path id="Vector_129" d="M58.6627 40.4011C58.6627 40.0612 58.3871 39.7856 58.0472 39.7856C57.7072 39.7856 57.4316 40.0612 57.4316 40.4011C57.4316 40.7411 57.7072 41.0167 58.0472 41.0167C58.3871 41.0167 58.6627 40.7411 58.6627 40.4011Z" fill="#111111"/>
<path id="Vector_130" d="M60.3053 40.4011C60.3053 40.0612 60.0297 39.7856 59.6898 39.7856C59.3498 39.7856 59.0742 40.0612 59.0742 40.4011C59.0742 40.7411 59.3498 41.0167 59.6898 41.0167C60.0297 41.0167 60.3053 40.7411 60.3053 40.4011Z" fill="#111111"/>
<path id="Vector_131" d="M22.5709 42.0418C22.5709 41.7018 22.2953 41.4262 21.9554 41.4262C21.6154 41.4262 21.3398 41.7018 21.3398 42.0418C21.3398 42.3817 21.6154 42.6573 21.9554 42.6573C22.2953 42.6573 22.5709 42.3817 22.5709 42.0418Z" fill="#111111"/>
<path id="Vector_132" d="M25.8541 42.0418C25.8541 41.7018 25.5785 41.4262 25.2386 41.4262C24.8986 41.4262 24.623 41.7018 24.623 42.0418C24.623 42.3817 24.8986 42.6573 25.2386 42.6573C25.5785 42.6573 25.8541 42.3817 25.8541 42.0418Z" fill="#111111"/>
<path id="Vector_133" d="M27.4928 42.0418C27.4928 41.7018 27.2172 41.4262 26.8773 41.4262C26.5373 41.4262 26.2617 41.7018 26.2617 42.0418C26.2617 42.3817 26.5373 42.6573 26.8773 42.6573C27.2172 42.6573 27.4928 42.3817 27.4928 42.0418Z" fill="#111111"/>
<path id="Vector_134" d="M29.1354 42.0418C29.1354 41.7018 28.8598 41.4262 28.5198 41.4262C28.1799 41.4262 27.9043 41.7018 27.9043 42.0418C27.9043 42.3817 28.1799 42.6573 28.5198 42.6573C28.8598 42.6573 29.1354 42.3817 29.1354 42.0418Z" fill="#111111"/>
<path id="Vector_135" d="M35.6959 42.0418C35.6959 41.7018 35.4203 41.4262 35.0804 41.4262C34.7404 41.4262 34.4648 41.7018 34.4648 42.0418C34.4648 42.3817 34.7404 42.6573 35.0804 42.6573C35.4203 42.6573 35.6959 42.3817 35.6959 42.0418Z" fill="#111111"/>
<path id="Vector_136" d="M37.3365 42.0418C37.3365 41.7018 37.061 41.4262 36.721 41.4262C36.3811 41.4262 36.1055 41.7018 36.1055 42.0418C36.1055 42.3817 36.3811 42.6573 36.721 42.6573C37.061 42.6573 37.3365 42.3817 37.3365 42.0418Z" fill="#111111"/>
<path id="Vector_137" d="M38.9791 42.0418C38.9791 41.7018 38.7035 41.4262 38.3636 41.4262C38.0236 41.4262 37.748 41.7018 37.748 42.0418C37.748 42.3817 38.0236 42.6573 38.3636 42.6573C38.7035 42.6573 38.9791 42.3817 38.9791 42.0418Z" fill="#111111"/>
<path id="Vector_138" d="M42.2604 42.0418C42.2604 41.7018 41.9848 41.4262 41.6448 41.4262C41.3049 41.4262 41.0293 41.7018 41.0293 42.0418C41.0293 42.3817 41.3049 42.6573 41.6448 42.6573C41.9848 42.6573 42.2604 42.3817 42.2604 42.0418Z" fill="#111111"/>
<path id="Vector_139" d="M48.8209 42.0418C48.8209 41.7018 48.5453 41.4262 48.2054 41.4262C47.8654 41.4262 47.5898 41.7018 47.5898 42.0418C47.5898 42.3817 47.8654 42.6573 48.2054 42.6573C48.5453 42.6573 48.8209 42.3817 48.8209 42.0418Z" fill="#111111"/>
<path id="Vector_140" d="M50.4635 42.0418C50.4635 41.7018 50.1879 41.4262 49.848 41.4262C49.508 41.4262 49.2324 41.7018 49.2324 42.0418C49.2324 42.3817 49.508 42.6573 49.848 42.6573C50.1879 42.6573 50.4635 42.3817 50.4635 42.0418Z" fill="#111111"/>
<path id="Vector_141" d="M52.1002 42.0418C52.1002 41.7018 51.8246 41.4262 51.4847 41.4262C51.1447 41.4262 50.8691 41.7018 50.8691 42.0418C50.8691 42.3817 51.1447 42.6573 51.4847 42.6573C51.8246 42.6573 52.1002 42.3817 52.1002 42.0418Z" fill="#111111"/>
<path id="Vector_142" d="M55.3834 42.0418C55.3834 41.7018 55.1078 41.4262 54.7679 41.4262C54.4279 41.4262 54.1523 41.7018 54.1523 42.0418C54.1523 42.3817 54.4279 42.6573 54.7679 42.6573C55.1078 42.6573 55.3834 42.3817 55.3834 42.0418Z" fill="#111111"/>
<path id="Vector_143" d="M57.024 42.0418C57.024 41.7018 56.7485 41.4262 56.4085 41.4262C56.0686 41.4262 55.793 41.7018 55.793 42.0418C55.793 42.3817 56.0686 42.6573 56.4085 42.6573C56.7485 42.6573 57.024 42.3817 57.024 42.0418Z" fill="#111111"/>
<path id="Vector_144" d="M60.3053 42.0418C60.3053 41.7018 60.0297 41.4262 59.6898 41.4262C59.3498 41.4262 59.0742 41.7018 59.0742 42.0418C59.0742 42.3817 59.3498 42.6573 59.6898 42.6573C60.0297 42.6573 60.3053 42.3817 60.3053 42.0418Z" fill="#111111"/>
<path id="Vector_145" d="M20.9322 43.6824C20.9322 43.3425 20.6567 43.0669 20.3167 43.0669C19.9768 43.0669 19.7012 43.3425 19.7012 43.6824C19.7012 44.0224 19.9768 44.298 20.3167 44.298C20.6567 44.298 20.9322 44.0224 20.9322 43.6824Z" fill="#111111"/>
<path id="Vector_146" d="M25.8541 43.6824C25.8541 43.3425 25.5785 43.0669 25.2386 43.0669C24.8986 43.0669 24.623 43.3425 24.623 43.6824C24.623 44.0224 24.8986 44.298 25.2386 44.298C25.5785 44.298 25.8541 44.0224 25.8541 43.6824Z" fill="#111111"/>
<path id="Vector_147" d="M27.4928 43.6824C27.4928 43.3425 27.2172 43.0669 26.8773 43.0669C26.5373 43.0669 26.2617 43.3425 26.2617 43.6824C26.2617 44.0224 26.5373 44.298 26.8773 44.298C27.2172 44.298 27.4928 44.0224 27.4928 43.6824Z" fill="#111111"/>
<path id="Vector_148" d="M29.1354 43.6824C29.1354 43.3425 28.8598 43.0669 28.5198 43.0669C28.1799 43.0669 27.9043 43.3425 27.9043 43.6824C27.9043 44.0224 28.1799 44.298 28.5198 44.298C28.8598 44.298 29.1354 44.0224 29.1354 43.6824Z" fill="#111111"/>
<path id="Vector_149" d="M30.776 43.6824C30.776 43.3425 30.5004 43.0669 30.1605 43.0669C29.8205 43.0669 29.5449 43.3425 29.5449 43.6824C29.5449 44.0224 29.8205 44.298 30.1605 44.298C30.5004 44.298 30.776 44.0224 30.776 43.6824Z" fill="#111111"/>
<path id="Vector_150" d="M32.4166 43.6824C32.4166 43.3425 32.141 43.0669 31.8011 43.0669C31.4611 43.0669 31.1855 43.3425 31.1855 43.6824C31.1855 44.0224 31.4611 44.298 31.8011 44.298C32.141 44.298 32.4166 44.0224 32.4166 43.6824Z" fill="#111111"/>
<path id="Vector_151" d="M37.3365 43.6824C37.3365 43.3425 37.061 43.0669 36.721 43.0669C36.3811 43.0669 36.1055 43.3425 36.1055 43.6824C36.1055 44.0224 36.3811 44.298 36.721 44.298C37.061 44.298 37.3365 44.0224 37.3365 43.6824Z" fill="#111111"/>
<path id="Vector_152" d="M38.9791 43.6824C38.9791 43.3425 38.7035 43.0669 38.3636 43.0669C38.0236 43.0669 37.748 43.3425 37.748 43.6824C37.748 44.0224 38.0236 44.298 38.3636 44.298C38.7035 44.298 38.9791 44.0224 38.9791 43.6824Z" fill="#111111"/>
<path id="Vector_153" d="M42.2604 43.6824C42.2604 43.3425 41.9848 43.0669 41.6448 43.0669C41.3049 43.0669 41.0293 43.3425 41.0293 43.6824C41.0293 44.0224 41.3049 44.298 41.6448 44.298C41.9848 44.298 42.2604 44.0224 42.2604 43.6824Z" fill="#111111"/>
<path id="Vector_154" d="M43.901 43.6824C43.901 43.3425 43.6254 43.0669 43.2855 43.0669C42.9455 43.0669 42.6699 43.3425 42.6699 43.6824C42.6699 44.0224 42.9455 44.298 43.2855 44.298C43.6254 44.298 43.901 44.0224 43.901 43.6824Z" fill="#111111"/>
<path id="Vector_155" d="M47.1803 43.6824C47.1803 43.3425 46.9047 43.0669 46.5648 43.0669C46.2248 43.0669 45.9492 43.3425 45.9492 43.6824C45.9492 44.0224 46.2248 44.298 46.5648 44.298C46.9047 44.298 47.1803 44.0224 47.1803 43.6824Z" fill="#111111"/>
<path id="Vector_156" d="M50.4635 43.6824C50.4635 43.3425 50.1879 43.0669 49.848 43.0669C49.508 43.0669 49.2324 43.3425 49.2324 43.6824C49.2324 44.0224 49.508 44.298 49.848 44.298C50.1879 44.298 50.4635 44.0224 50.4635 43.6824Z" fill="#111111"/>
<path id="Vector_157" d="M52.1002 43.6824C52.1002 43.3425 51.8246 43.0669 51.4847 43.0669C51.1447 43.0669 50.8691 43.3425 50.8691 43.6824C50.8691 44.0224 51.1447 44.298 51.4847 44.298C51.8246 44.298 52.1002 44.0224 52.1002 43.6824Z" fill="#111111"/>
<path id="Vector_158" d="M53.7428 43.6824C53.7428 43.3425 53.4672 43.0669 53.1273 43.0669C52.7873 43.0669 52.5117 43.3425 52.5117 43.6824C52.5117 44.0224 52.7873 44.298 53.1273 44.298C53.4672 44.298 53.7428 44.0224 53.7428 43.6824Z" fill="#111111"/>
<path id="Vector_159" d="M57.024 43.6824C57.024 43.3425 56.7485 43.0669 56.4085 43.0669C56.0686 43.0669 55.793 43.3425 55.793 43.6824C55.793 44.0224 56.0686 44.298 56.4085 44.298C56.7485 44.298 57.024 44.0224 57.024 43.6824Z" fill="#111111"/>
<path id="Vector_160" d="M60.3053 43.6824C60.3053 43.3425 60.0297 43.0669 59.6898 43.0669C59.3498 43.0669 59.0742 43.3425 59.0742 43.6824C59.0742 44.0224 59.3498 44.298 59.6898 44.298C60.0297 44.298 60.3053 44.0224 60.3053 43.6824Z" fill="#111111"/>
<path id="Vector_161" d="M22.5709 45.3229C22.5709 44.983 22.2953 44.7074 21.9554 44.7074C21.6154 44.7074 21.3398 44.983 21.3398 45.3229C21.3398 45.6629 21.6154 45.9385 21.9554 45.9385C22.2953 45.9385 22.5709 45.6629 22.5709 45.3229Z" fill="#111111"/>
<path id="Vector_162" d="M25.8541 45.3229C25.8541 44.983 25.5785 44.7074 25.2386 44.7074C24.8986 44.7074 24.623 44.983 24.623 45.3229C24.623 45.6629 24.8986 45.9385 25.2386 45.9385C25.5785 45.9385 25.8541 45.6629 25.8541 45.3229Z" fill="#111111"/>
<path id="Vector_163" d="M29.1354 45.3229C29.1354 44.983 28.8598 44.7074 28.5198 44.7074C28.1799 44.7074 27.9043 44.983 27.9043 45.3229C27.9043 45.6629 28.1799 45.9385 28.5198 45.9385C28.8598 45.9385 29.1354 45.6629 29.1354 45.3229Z" fill="#111111"/>
<path id="Vector_164" d="M32.4166 45.3229C32.4166 44.983 32.141 44.7074 31.8011 44.7074C31.4611 44.7074 31.1855 44.983 31.1855 45.3229C31.1855 45.6629 31.4611 45.9385 31.8011 45.9385C32.141 45.9385 32.4166 45.6629 32.4166 45.3229Z" fill="#111111"/>
<path id="Vector_165" d="M34.0572 45.3229C34.0572 44.983 33.7817 44.7074 33.4417 44.7074C33.1018 44.7074 32.8262 44.983 32.8262 45.3229C32.8262 45.6629 33.1018 45.9385 33.4417 45.9385C33.7817 45.9385 34.0572 45.6629 34.0572 45.3229Z" fill="#111111"/>
<path id="Vector_166" d="M40.6178 45.3229C40.6178 44.983 40.3422 44.7074 40.0023 44.7074C39.6623 44.7074 39.3867 44.983 39.3867 45.3229C39.3867 45.6629 39.6623 45.9385 40.0023 45.9385C40.3422 45.9385 40.6178 45.6629 40.6178 45.3229Z" fill="#111111"/>
<path id="Vector_167" d="M43.901 45.3229C43.901 44.983 43.6254 44.7074 43.2855 44.7074C42.9455 44.7074 42.6699 44.983 42.6699 45.3229C42.6699 45.6629 42.9455 45.9385 43.2855 45.9385C43.6254 45.9385 43.901 45.6629 43.901 45.3229Z" fill="#111111"/>
<path id="Vector_168" d="M47.1803 45.3229C47.1803 44.983 46.9047 44.7074 46.5648 44.7074C46.2248 44.7074 45.9492 44.983 45.9492 45.3229C45.9492 45.6629 46.2248 45.9385 46.5648 45.9385C46.9047 45.9385 47.1803 45.6629 47.1803 45.3229Z" fill="#111111"/>
<path id="Vector_169" d="M53.7428 45.3229C53.7428 44.983 53.4672 44.7074 53.1273 44.7074C52.7873 44.7074 52.5117 44.983 52.5117 45.3229C52.5117 45.6629 52.7873 45.9385 53.1273 45.9385C53.4672 45.9385 53.7428 45.6629 53.7428 45.3229Z" fill="#111111"/>
<path id="Vector_170" d="M55.3834 45.3229C55.3834 44.983 55.1078 44.7074 54.7679 44.7074C54.4279 44.7074 54.1523 44.983 54.1523 45.3229C54.1523 45.6629 54.4279 45.9385 54.7679 45.9385C55.1078 45.9385 55.3834 45.6629 55.3834 45.3229Z" fill="#111111"/>
<path id="Vector_171" d="M58.6627 45.3229C58.6627 44.983 58.3871 44.7074 58.0472 44.7074C57.7072 44.7074 57.4316 44.983 57.4316 45.3229C57.4316 45.6629 57.7072 45.9385 58.0472 45.9385C58.3871 45.9385 58.6627 45.6629 58.6627 45.3229Z" fill="#111111"/>
<path id="Vector_172" d="M20.9322 46.9636C20.9322 46.6236 20.6567 46.348 20.3167 46.348C19.9768 46.348 19.7012 46.6236 19.7012 46.9636C19.7012 47.3035 19.9768 47.5791 20.3167 47.5791C20.6567 47.5791 20.9322 47.3035 20.9322 46.9636Z" fill="#111111"/>
<path id="Vector_173" d="M22.5709 46.9636C22.5709 46.6236 22.2953 46.348 21.9554 46.348C21.6154 46.348 21.3398 46.6236 21.3398 46.9636C21.3398 47.3035 21.6154 47.5791 21.9554 47.5791C22.2953 47.5791 22.5709 47.3035 22.5709 46.9636Z" fill="#111111"/>
<path id="Vector_174" d="M27.4928 46.9636C27.4928 46.6236 27.2172 46.348 26.8773 46.348C26.5373 46.348 26.2617 46.6236 26.2617 46.9636C26.2617 47.3035 26.5373 47.5791 26.8773 47.5791C27.2172 47.5791 27.4928 47.3035 27.4928 46.9636Z" fill="#111111"/>
<path id="Vector_175" d="M30.776 46.9636C30.776 46.6236 30.5004 46.348 30.1605 46.348C29.8205 46.348 29.5449 46.6236 29.5449 46.9636C29.5449 47.3035 29.8205 47.5791 30.1605 47.5791C30.5004 47.5791 30.776 47.3035 30.776 46.9636Z" fill="#111111"/>
<path id="Vector_176" d="M32.4166 46.9636C32.4166 46.6236 32.141 46.348 31.8011 46.348C31.4611 46.348 31.1855 46.6236 31.1855 46.9636C31.1855 47.3035 31.4611 47.5791 31.8011 47.5791C32.141 47.5791 32.4166 47.3035 32.4166 46.9636Z" fill="#111111"/>
<path id="Vector_177" d="M35.6959 46.9636C35.6959 46.6236 35.4203 46.348 35.0804 46.348C34.7404 46.348 34.4648 46.6236 34.4648 46.9636C34.4648 47.3035 34.7404 47.5791 35.0804 47.5791C35.4203 47.5791 35.6959 47.3035 35.6959 46.9636Z" fill="#111111"/>
<path id="Vector_178" d="M40.6178 46.9636C40.6178 46.6236 40.3422 46.348 40.0023 46.348C39.6623 46.348 39.3867 46.6236 39.3867 46.9636C39.3867 47.3035 39.6623 47.5791 40.0023 47.5791C40.3422 47.5791 40.6178 47.3035 40.6178 46.9636Z" fill="#111111"/>
<path id="Vector_179" d="M42.2604 46.9636C42.2604 46.6236 41.9848 46.348 41.6448 46.348C41.3049 46.348 41.0293 46.6236 41.0293 46.9636C41.0293 47.3035 41.3049 47.5791 41.6448 47.5791C41.9848 47.5791 42.2604 47.3035 42.2604 46.9636Z" fill="#111111"/>
<path id="Vector_180" d="M47.1803 46.9636C47.1803 46.6236 46.9047 46.348 46.5648 46.348C46.2248 46.348 45.9492 46.6236 45.9492 46.9636C45.9492 47.3035 46.2248 47.5791 46.5648 47.5791C46.9047 47.5791 47.1803 47.3035 47.1803 46.9636Z" fill="#111111"/>
<path id="Vector_181" d="M48.8209 46.9636C48.8209 46.6236 48.5453 46.348 48.2054 46.348C47.8654 46.348 47.5898 46.6236 47.5898 46.9636C47.5898 47.3035 47.8654 47.5791 48.2054 47.5791C48.5453 47.5791 48.8209 47.3035 48.8209 46.9636Z" fill="#111111"/>
<path id="Vector_182" d="M50.4635 46.9636C50.4635 46.6236 50.1879 46.348 49.848 46.348C49.508 46.348 49.2324 46.6236 49.2324 46.9636C49.2324 47.3035 49.508 47.5791 49.848 47.5791C50.1879 47.5791 50.4635 47.3035 50.4635 46.9636Z" fill="#111111"/>
<path id="Vector_183" d="M52.1002 46.9636C52.1002 46.6236 51.8246 46.348 51.4847 46.348C51.1447 46.348 50.8691 46.6236 50.8691 46.9636C50.8691 47.3035 51.1447 47.5791 51.4847 47.5791C51.8246 47.5791 52.1002 47.3035 52.1002 46.9636Z" fill="#111111"/>
<path id="Vector_184" d="M53.7428 46.9636C53.7428 46.6236 53.4672 46.348 53.1273 46.348C52.7873 46.348 52.5117 46.6236 52.5117 46.9636C52.5117 47.3035 52.7873 47.5791 53.1273 47.5791C53.4672 47.5791 53.7428 47.3035 53.7428 46.9636Z" fill="#111111"/>
<path id="Vector_185" d="M55.3834 46.9636C55.3834 46.6236 55.1078 46.348 54.7679 46.348C54.4279 46.348 54.1523 46.6236 54.1523 46.9636C54.1523 47.3035 54.4279 47.5791 54.7679 47.5791C55.1078 47.5791 55.3834 47.3035 55.3834 46.9636Z" fill="#111111"/>
<path id="Vector_186" d="M57.024 46.9636C57.024 46.6236 56.7485 46.348 56.4085 46.348C56.0686 46.348 55.793 46.6236 55.793 46.9636C55.793 47.3035 56.0686 47.5791 56.4085 47.5791C56.7485 47.5791 57.024 47.3035 57.024 46.9636Z" fill="#111111"/>
<path id="Vector_187" d="M34.0572 48.6039C34.0572 48.2639 33.7817 47.9884 33.4417 47.9884C33.1018 47.9884 32.8262 48.2639 32.8262 48.6039C32.8262 48.9438 33.1018 49.2194 33.4417 49.2194C33.7817 49.2194 34.0572 48.9438 34.0572 48.6039Z" fill="#111111"/>
<path id="Vector_188" d="M35.6959 48.6039C35.6959 48.2639 35.4203 47.9884 35.0804 47.9884C34.7404 47.9884 34.4648 48.2639 34.4648 48.6039C34.4648 48.9438 34.7404 49.2194 35.0804 49.2194C35.4203 49.2194 35.6959 48.9438 35.6959 48.6039Z" fill="#111111"/>
<path id="Vector_189" d="M42.2604 48.6039C42.2604 48.2639 41.9848 47.9884 41.6448 47.9884C41.3049 47.9884 41.0293 48.2639 41.0293 48.6039C41.0293 48.9438 41.3049 49.2194 41.6448 49.2194C41.9848 49.2194 42.2604 48.9438 42.2604 48.6039Z" fill="#111111"/>
<path id="Vector_190" d="M45.5416 48.6039C45.5416 48.2639 45.266 47.9884 44.9261 47.9884C44.5861 47.9884 44.3105 48.2639 44.3105 48.6039C44.3105 48.9438 44.5861 49.2194 44.9261 49.2194C45.266 49.2194 45.5416 48.9438 45.5416 48.6039Z" fill="#111111"/>
<path id="Vector_191" d="M47.1803 48.6039C47.1803 48.2639 46.9047 47.9884 46.5648 47.9884C46.2248 47.9884 45.9492 48.2639 45.9492 48.6039C45.9492 48.9438 46.2248 49.2194 46.5648 49.2194C46.9047 49.2194 47.1803 48.9438 47.1803 48.6039Z" fill="#111111"/>
<path id="Vector_192" d="M53.7428 48.6039C53.7428 48.2639 53.4672 47.9884 53.1273 47.9884C52.7873 47.9884 52.5117 48.2639 52.5117 48.6039C52.5117 48.9438 52.7873 49.2194 53.1273 49.2194C53.4672 49.2194 53.7428 48.9438 53.7428 48.6039Z" fill="#111111"/>
<path id="Vector_193" d="M55.3834 48.6039C55.3834 48.2639 55.1078 47.9884 54.7679 47.9884C54.4279 47.9884 54.1523 48.2639 54.1523 48.6039C54.1523 48.9438 54.4279 49.2194 54.7679 49.2194C55.1078 49.2194 55.3834 48.9438 55.3834 48.6039Z" fill="#111111"/>
<path id="Vector_194" d="M57.024 48.6039C57.024 48.2639 56.7485 47.9884 56.4085 47.9884C56.0686 47.9884 55.793 48.2639 55.793 48.6039C55.793 48.9438 56.0686 49.2194 56.4085 49.2194C56.7485 49.2194 57.024 48.9438 57.024 48.6039Z" fill="#111111"/>
<path id="Vector_195" d="M60.3053 48.6039C60.3053 48.2639 60.0297 47.9884 59.6898 47.9884C59.3498 47.9884 59.0742 48.2639 59.0742 48.6039C59.0742 48.9438 59.3498 49.2194 59.6898 49.2194C60.0297 49.2194 60.3053 48.9438 60.3053 48.6039Z" fill="#111111"/>
<path id="Vector_196" d="M34.0572 50.2444C34.0572 49.9044 33.7817 49.6288 33.4417 49.6288C33.1018 49.6288 32.8262 49.9044 32.8262 50.2444C32.8262 50.5843 33.1018 50.8599 33.4417 50.8599C33.7817 50.8599 34.0572 50.5843 34.0572 50.2444Z" fill="#111111"/>
<path id="Vector_197" d="M38.9791 50.2444C38.9791 49.9044 38.7035 49.6288 38.3636 49.6288C38.0236 49.6288 37.748 49.9044 37.748 50.2444C37.748 50.5843 38.0236 50.8599 38.3636 50.8599C38.7035 50.8599 38.9791 50.5843 38.9791 50.2444Z" fill="#111111"/>
<path id="Vector_198" d="M42.2604 50.2444C42.2604 49.9044 41.9848 49.6288 41.6448 49.6288C41.3049 49.6288 41.0293 49.9044 41.0293 50.2444C41.0293 50.5843 41.3049 50.8599 41.6448 50.8599C41.9848 50.8599 42.2604 50.5843 42.2604 50.2444Z" fill="#111111"/>
<path id="Vector_199" d="M45.5416 50.2444C45.5416 49.9044 45.266 49.6288 44.9261 49.6288C44.5861 49.6288 44.3105 49.9044 44.3105 50.2444C44.3105 50.5843 44.5861 50.8599 44.9261 50.8599C45.266 50.8599 45.5416 50.5843 45.5416 50.2444Z" fill="#111111"/>
<path id="Vector_200" d="M47.1803 50.2444C47.1803 49.9044 46.9047 49.6288 46.5648 49.6288C46.2248 49.6288 45.9492 49.9044 45.9492 50.2444C45.9492 50.5843 46.2248 50.8599 46.5648 50.8599C46.9047 50.8599 47.1803 50.5843 47.1803 50.2444Z" fill="#111111"/>
<path id="Vector_201" d="M50.4635 50.2444C50.4635 49.9044 50.1879 49.6288 49.848 49.6288C49.508 49.6288 49.2324 49.9044 49.2324 50.2444C49.2324 50.5843 49.508 50.8599 49.848 50.8599C50.1879 50.8599 50.4635 50.5843 50.4635 50.2444Z" fill="#111111"/>
<path id="Vector_202" d="M53.7428 50.2444C53.7428 49.9044 53.4672 49.6288 53.1273 49.6288C52.7873 49.6288 52.5117 49.9044 52.5117 50.2444C52.5117 50.5843 52.7873 50.8599 53.1273 50.8599C53.4672 50.8599 53.7428 50.5843 53.7428 50.2444Z" fill="#111111"/>
<path id="Vector_203" d="M58.6627 50.2444C58.6627 49.9044 58.3871 49.6288 58.0472 49.6288C57.7072 49.6288 57.4316 49.9044 57.4316 50.2444C57.4316 50.5843 57.7072 50.8599 58.0472 50.8599C58.3871 50.8599 58.6627 50.5843 58.6627 50.2444Z" fill="#111111"/>
<path id="Vector_204" d="M60.3053 50.2444C60.3053 49.9044 60.0297 49.6288 59.6898 49.6288C59.3498 49.6288 59.0742 49.9044 59.0742 50.2444C59.0742 50.5843 59.3498 50.8599 59.6898 50.8599C60.0297 50.8599 60.3053 50.5843 60.3053 50.2444Z" fill="#111111"/>
<path id="Vector_205" d="M34.0572 51.885C34.0572 51.5451 33.7817 51.2695 33.4417 51.2695C33.1018 51.2695 32.8262 51.5451 32.8262 51.885C32.8262 52.225 33.1018 52.5006 33.4417 52.5006C33.7817 52.5006 34.0572 52.225 34.0572 51.885Z" fill="#111111"/>
<path id="Vector_206" d="M37.3365 51.885C37.3365 51.5451 37.061 51.2695 36.721 51.2695C36.3811 51.2695 36.1055 51.5451 36.1055 51.885C36.1055 52.225 36.3811 52.5006 36.721 52.5006C37.061 52.5006 37.3365 52.225 37.3365 51.885Z" fill="#111111"/>
<path id="Vector_207" d="M40.6178 51.885C40.6178 51.5451 40.3422 51.2695 40.0023 51.2695C39.6623 51.2695 39.3867 51.5451 39.3867 51.885C39.3867 52.225 39.6623 52.5006 40.0023 52.5006C40.3422 52.5006 40.6178 52.225 40.6178 51.885Z" fill="#111111"/>
<path id="Vector_208" d="M42.2604 51.885C42.2604 51.5451 41.9848 51.2695 41.6448 51.2695C41.3049 51.2695 41.0293 51.5451 41.0293 51.885C41.0293 52.225 41.3049 52.5006 41.6448 52.5006C41.9848 52.5006 42.2604 52.225 42.2604 51.885Z" fill="#111111"/>
<path id="Vector_209" d="M43.901 51.885C43.901 51.5451 43.6254 51.2695 43.2855 51.2695C42.9455 51.2695 42.6699 51.5451 42.6699 51.885C42.6699 52.225 42.9455 52.5006 43.2855 52.5006C43.6254 52.5006 43.901 52.225 43.901 51.885Z" fill="#111111"/>
<path id="Vector_210" d="M47.1803 51.885C47.1803 51.5451 46.9047 51.2695 46.5648 51.2695C46.2248 51.2695 45.9492 51.5451 45.9492 51.885C45.9492 52.225 46.2248 52.5006 46.5648 52.5006C46.9047 52.5006 47.1803 52.225 47.1803 51.885Z" fill="#111111"/>
<path id="Vector_211" d="M53.7428 51.885C53.7428 51.5451 53.4672 51.2695 53.1273 51.2695C52.7873 51.2695 52.5117 51.5451 52.5117 51.885C52.5117 52.225 52.7873 52.5006 53.1273 52.5006C53.4672 52.5006 53.7428 52.225 53.7428 51.885Z" fill="#111111"/>
<path id="Vector_212" d="M55.3834 51.885C55.3834 51.5451 55.1078 51.2695 54.7679 51.2695C54.4279 51.2695 54.1523 51.5451 54.1523 51.885C54.1523 52.225 54.4279 52.5006 54.7679 52.5006C55.1078 52.5006 55.3834 52.225 55.3834 51.885Z" fill="#111111"/>
<path id="Vector_213" d="M57.024 51.885C57.024 51.5451 56.7485 51.2695 56.4085 51.2695C56.0686 51.2695 55.793 51.5451 55.793 51.885C55.793 52.225 56.0686 52.5006 56.4085 52.5006C56.7485 52.5006 57.024 52.225 57.024 51.885Z" fill="#111111"/>
<path id="Vector_214" d="M58.6627 51.885C58.6627 51.5451 58.3871 51.2695 58.0472 51.2695C57.7072 51.2695 57.4316 51.5451 57.4316 51.885C57.4316 52.225 57.7072 52.5006 58.0472 52.5006C58.3871 52.5006 58.6627 52.225 58.6627 51.885Z" fill="#111111"/>
<path id="Vector_215" d="M37.3365 53.5257C37.3365 53.1857 37.061 52.9101 36.721 52.9101C36.3811 52.9101 36.1055 53.1857 36.1055 53.5257C36.1055 53.8656 36.3811 54.1412 36.721 54.1412C37.061 54.1412 37.3365 53.8656 37.3365 53.5257Z" fill="#111111"/>
<path id="Vector_216" d="M40.6178 53.5257C40.6178 53.1857 40.3422 52.9101 40.0023 52.9101C39.6623 52.9101 39.3867 53.1857 39.3867 53.5257C39.3867 53.8656 39.6623 54.1412 40.0023 54.1412C40.3422 54.1412 40.6178 53.8656 40.6178 53.5257Z" fill="#111111"/>
<path id="Vector_217" d="M42.2604 53.5257C42.2604 53.1857 41.9848 52.9101 41.6448 52.9101C41.3049 52.9101 41.0293 53.1857 41.0293 53.5257C41.0293 53.8656 41.3049 54.1412 41.6448 54.1412C41.9848 54.1412 42.2604 53.8656 42.2604 53.5257Z" fill="#111111"/>
<path id="Vector_218" d="M47.1803 53.5257C47.1803 53.1857 46.9047 52.9101 46.5648 52.9101C46.2248 52.9101 45.9492 53.1857 45.9492 53.5257C45.9492 53.8656 46.2248 54.1412 46.5648 54.1412C46.9047 54.1412 47.1803 53.8656 47.1803 53.5257Z" fill="#111111"/>
<path id="Vector_219" d="M48.8209 53.5257C48.8209 53.1857 48.5453 52.9101 48.2054 52.9101C47.8654 52.9101 47.5898 53.1857 47.5898 53.5257C47.5898 53.8656 47.8654 54.1412 48.2054 54.1412C48.5453 54.1412 48.8209 53.8656 48.8209 53.5257Z" fill="#111111"/>
<path id="Vector_220" d="M50.4635 53.5257C50.4635 53.1857 50.1879 52.9101 49.848 52.9101C49.508 52.9101 49.2324 53.1857 49.2324 53.5257C49.2324 53.8656 49.508 54.1412 49.848 54.1412C50.1879 54.1412 50.4635 53.8656 50.4635 53.5257Z" fill="#111111"/>
<path id="Vector_221" d="M52.1002 53.5257C52.1002 53.1857 51.8246 52.9101 51.4847 52.9101C51.1447 52.9101 50.8691 53.1857 50.8691 53.5257C50.8691 53.8656 51.1447 54.1412 51.4847 54.1412C51.8246 54.1412 52.1002 53.8656 52.1002 53.5257Z" fill="#111111"/>
<path id="Vector_222" d="M53.7428 53.5257C53.7428 53.1857 53.4672 52.9101 53.1273 52.9101C52.7873 52.9101 52.5117 53.1857 52.5117 53.5257C52.5117 53.8656 52.7873 54.1412 53.1273 54.1412C53.4672 54.1412 53.7428 53.8656 53.7428 53.5257Z" fill="#111111"/>
<path id="Vector_223" d="M60.3053 53.5257C60.3053 53.1857 60.0297 52.9101 59.6898 52.9101C59.3498 52.9101 59.0742 53.1857 59.0742 53.5257C59.0742 53.8656 59.3498 54.1412 59.6898 54.1412C60.0297 54.1412 60.3053 53.8656 60.3053 53.5257Z" fill="#111111"/>
<path id="Vector_224" d="M34.0572 55.1662C34.0572 54.8262 33.7817 54.5506 33.4417 54.5506C33.1018 54.5506 32.8262 54.8262 32.8262 55.1662C32.8262 55.5061 33.1018 55.7817 33.4417 55.7817C33.7817 55.7817 34.0572 55.5061 34.0572 55.1662Z" fill="#111111"/>
<path id="Vector_225" d="M37.3365 55.1662C37.3365 54.8262 37.061 54.5506 36.721 54.5506C36.3811 54.5506 36.1055 54.8262 36.1055 55.1662C36.1055 55.5061 36.3811 55.7817 36.721 55.7817C37.061 55.7817 37.3365 55.5061 37.3365 55.1662Z" fill="#111111"/>
<path id="Vector_226" d="M42.2604 55.1662C42.2604 54.8262 41.9848 54.5506 41.6448 54.5506C41.3049 54.5506 41.0293 54.8262 41.0293 55.1662C41.0293 55.5061 41.3049 55.7817 41.6448 55.7817C41.9848 55.7817 42.2604 55.5061 42.2604 55.1662Z" fill="#111111"/>
<path id="Vector_227" d="M52.1002 55.1662C52.1002 54.8262 51.8246 54.5506 51.4847 54.5506C51.1447 54.5506 50.8691 54.8262 50.8691 55.1662C50.8691 55.5061 51.1447 55.7817 51.4847 55.7817C51.8246 55.7817 52.1002 55.5061 52.1002 55.1662Z" fill="#111111"/>
<path id="Vector_228" d="M57.024 55.1662C57.024 54.8262 56.7485 54.5506 56.4085 54.5506C56.0686 54.5506 55.793 54.8262 55.793 55.1662C55.793 55.5061 56.0686 55.7817 56.4085 55.7817C56.7485 55.7817 57.024 55.5061 57.024 55.1662Z" fill="#111111"/>
<path id="Vector_229" d="M35.6959 56.8065C35.6959 56.4665 35.4203 56.1909 35.0804 56.1909C34.7404 56.1909 34.4648 56.4665 34.4648 56.8065C34.4648 57.1464 34.7404 57.422 35.0804 57.422C35.4203 57.422 35.6959 57.1464 35.6959 56.8065Z" fill="#111111"/>
<path id="Vector_230" d="M40.6178 56.8065C40.6178 56.4665 40.3422 56.1909 40.0023 56.1909C39.6623 56.1909 39.3867 56.4665 39.3867 56.8065C39.3867 57.1464 39.6623 57.422 40.0023 57.422C40.3422 57.422 40.6178 57.1464 40.6178 56.8065Z" fill="#111111"/>
<path id="Vector_231" d="M42.2604 56.8065C42.2604 56.4665 41.9848 56.1909 41.6448 56.1909C41.3049 56.1909 41.0293 56.4665 41.0293 56.8065C41.0293 57.1464 41.3049 57.422 41.6448 57.422C41.9848 57.422 42.2604 57.1464 42.2604 56.8065Z" fill="#111111"/>
<path id="Vector_232" d="M47.1803 56.8065C47.1803 56.4665 46.9047 56.1909 46.5648 56.1909C46.2248 56.1909 45.9492 56.4665 45.9492 56.8065C45.9492 57.1464 46.2248 57.422 46.5648 57.422C46.9047 57.422 47.1803 57.1464 47.1803 56.8065Z" fill="#111111"/>
<path id="Vector_233" d="M48.8209 56.8065C48.8209 56.4665 48.5453 56.1909 48.2054 56.1909C47.8654 56.1909 47.5898 56.4665 47.5898 56.8065C47.5898 57.1464 47.8654 57.422 48.2054 57.422C48.5453 57.422 48.8209 57.1464 48.8209 56.8065Z" fill="#111111"/>
<path id="Vector_234" d="M53.7428 56.8065C53.7428 56.4665 53.4672 56.1909 53.1273 56.1909C52.7873 56.1909 52.5117 56.4665 52.5117 56.8065C52.5117 57.1464 52.7873 57.422 53.1273 57.422C53.4672 57.422 53.7428 57.1464 53.7428 56.8065Z" fill="#111111"/>
<path id="Vector_235" d="M55.3834 56.8065C55.3834 56.4665 55.1078 56.1909 54.7679 56.1909C54.4279 56.1909 54.1523 56.4665 54.1523 56.8065C54.1523 57.1464 54.4279 57.422 54.7679 57.422C55.1078 57.422 55.3834 57.1464 55.3834 56.8065Z" fill="#111111"/>
<path id="Vector_236" d="M57.024 56.8065C57.024 56.4665 56.7485 56.1909 56.4085 56.1909C56.0686 56.1909 55.793 56.4665 55.793 56.8065C55.793 57.1464 56.0686 57.422 56.4085 57.422C56.7485 57.422 57.024 57.1464 57.024 56.8065Z" fill="#111111"/>
<path id="Vector_237" d="M60.3053 56.8065C60.3053 56.4665 60.0297 56.1909 59.6898 56.1909C59.3498 56.1909 59.0742 56.4665 59.0742 56.8065C59.0742 57.1464 59.3498 57.422 59.6898 57.422C60.0297 57.422 60.3053 57.1464 60.3053 56.8065Z" fill="#111111"/>
<path id="Vector_238" d="M34.0572 58.4473C34.0572 58.1073 33.7817 57.8318 33.4417 57.8318C33.1018 57.8318 32.8262 58.1073 32.8262 58.4473C32.8262 58.7872 33.1018 59.0628 33.4417 59.0628C33.7817 59.0628 34.0572 58.7872 34.0572 58.4473Z" fill="#111111"/>
<path id="Vector_239" d="M35.6959 58.4473C35.6959 58.1073 35.4203 57.8318 35.0804 57.8318C34.7404 57.8318 34.4648 58.1073 34.4648 58.4473C34.4648 58.7872 34.7404 59.0628 35.0804 59.0628C35.4203 59.0628 35.6959 58.7872 35.6959 58.4473Z" fill="#111111"/>
<path id="Vector_240" d="M37.3365 58.4473C37.3365 58.1073 37.061 57.8318 36.721 57.8318C36.3811 57.8318 36.1055 58.1073 36.1055 58.4473C36.1055 58.7872 36.3811 59.0628 36.721 59.0628C37.061 59.0628 37.3365 58.7872 37.3365 58.4473Z" fill="#111111"/>
<path id="Vector_241" d="M40.6178 58.4473C40.6178 58.1073 40.3422 57.8318 40.0023 57.8318C39.6623 57.8318 39.3867 58.1073 39.3867 58.4473C39.3867 58.7872 39.6623 59.0628 40.0023 59.0628C40.3422 59.0628 40.6178 58.7872 40.6178 58.4473Z" fill="#111111"/>
<path id="Vector_242" d="M42.2604 58.4473C42.2604 58.1073 41.9848 57.8318 41.6448 57.8318C41.3049 57.8318 41.0293 58.1073 41.0293 58.4473C41.0293 58.7872 41.3049 59.0628 41.6448 59.0628C41.9848 59.0628 42.2604 58.7872 42.2604 58.4473Z" fill="#111111"/>
<path id="Vector_243" d="M45.5416 58.4473C45.5416 58.1073 45.266 57.8318 44.9261 57.8318C44.5861 57.8318 44.3105 58.1073 44.3105 58.4473C44.3105 58.7872 44.5861 59.0628 44.9261 59.0628C45.266 59.0628 45.5416 58.7872 45.5416 58.4473Z" fill="#111111"/>
<path id="Vector_244" d="M47.1803 58.4473C47.1803 58.1073 46.9047 57.8318 46.5648 57.8318C46.2248 57.8318 45.9492 58.1073 45.9492 58.4473C45.9492 58.7872 46.2248 59.0628 46.5648 59.0628C46.9047 59.0628 47.1803 58.7872 47.1803 58.4473Z" fill="#111111"/>
<path id="Vector_245" d="M55.3834 58.4473C55.3834 58.1073 55.1078 57.8318 54.7679 57.8318C54.4279 57.8318 54.1523 58.1073 54.1523 58.4473C54.1523 58.7872 54.4279 59.0628 54.7679 59.0628C55.1078 59.0628 55.3834 58.7872 55.3834 58.4473Z" fill="#111111"/>
<path id="Vector_246" d="M35.6959 60.0876C35.6959 59.7477 35.4203 59.4721 35.0804 59.4721C34.7404 59.4721 34.4648 59.7477 34.4648 60.0876C34.4648 60.4276 34.7404 60.7032 35.0804 60.7032C35.4203 60.7032 35.6959 60.4276 35.6959 60.0876Z" fill="#111111"/>
<path id="Vector_247" d="M37.3365 60.0876C37.3365 59.7477 37.061 59.4721 36.721 59.4721C36.3811 59.4721 36.1055 59.7477 36.1055 60.0876C36.1055 60.4276 36.3811 60.7032 36.721 60.7032C37.061 60.7032 37.3365 60.4276 37.3365 60.0876Z" fill="#111111"/>
<path id="Vector_248" d="M38.9791 60.0876C38.9791 59.7477 38.7035 59.4721 38.3636 59.4721C38.0236 59.4721 37.748 59.7477 37.748 60.0876C37.748 60.4276 38.0236 60.7032 38.3636 60.7032C38.7035 60.7032 38.9791 60.4276 38.9791 60.0876Z" fill="#111111"/>
<path id="Vector_249" d="M40.6178 60.0876C40.6178 59.7477 40.3422 59.4721 40.0023 59.4721C39.6623 59.4721 39.3867 59.7477 39.3867 60.0876C39.3867 60.4276 39.6623 60.7032 40.0023 60.7032C40.3422 60.7032 40.6178 60.4276 40.6178 60.0876Z" fill="#111111"/>
<path id="Vector_250" d="M42.2604 60.0876C42.2604 59.7477 41.9848 59.4721 41.6448 59.4721C41.3049 59.4721 41.0293 59.7477 41.0293 60.0876C41.0293 60.4276 41.3049 60.7032 41.6448 60.7032C41.9848 60.7032 42.2604 60.4276 42.2604 60.0876Z" fill="#111111"/>
<path id="Vector_251" d="M45.5416 60.0876C45.5416 59.7477 45.266 59.4721 44.9261 59.4721C44.5861 59.4721 44.3105 59.7477 44.3105 60.0876C44.3105 60.4276 44.5861 60.7032 44.9261 60.7032C45.266 60.7032 45.5416 60.4276 45.5416 60.0876Z" fill="#111111"/>
<path id="Vector_252" d="M47.1803 60.0876C47.1803 59.7477 46.9047 59.4721 46.5648 59.4721C46.2248 59.4721 45.9492 59.7477 45.9492 60.0876C45.9492 60.4276 46.2248 60.7032 46.5648 60.7032C46.9047 60.7032 47.1803 60.4276 47.1803 60.0876Z" fill="#111111"/>
<path id="Vector_253" d="M52.1002 60.0876C52.1002 59.7477 51.8246 59.4721 51.4847 59.4721C51.1447 59.4721 50.8691 59.7477 50.8691 60.0876C50.8691 60.4276 51.1447 60.7032 51.4847 60.7032C51.8246 60.7032 52.1002 60.4276 52.1002 60.0876Z" fill="#111111"/>
<path id="Vector_254" d="M58.6627 60.0876C58.6627 59.7477 58.3871 59.4721 58.0472 59.4721C57.7072 59.4721 57.4316 59.7477 57.4316 60.0876C57.4316 60.4276 57.7072 60.7032 58.0472 60.7032C58.3871 60.7032 58.6627 60.4276 58.6627 60.0876Z" fill="#111111"/>
<path id="Vector_255" d="M60.3053 60.0876C60.3053 59.7477 60.0297 59.4721 59.6898 59.4721C59.3498 59.4721 59.0742 59.7477 59.0742 60.0876C59.0742 60.4276 59.3498 60.7032 59.6898 60.7032C60.0297 60.7032 60.3053 60.4276 60.3053 60.0876Z" fill="#111111"/>
</g>
<g id="Group_4">
<path id="Vector_256" d="M28.5171 20.7115H21.955C21.0489 20.7115 20.3145 21.446 20.3145 22.352V28.9142C20.3145 29.8202 21.0489 30.5547 21.955 30.5547H28.5171C29.4232 30.5547 30.1577 29.8202 30.1577 28.9142V22.352C30.1577 21.446 29.4232 20.7115 28.5171 20.7115Z" stroke="#111111" stroke-width="2.42024"/>
<path id="Vector_257" d="M26.8748 23.1723H23.5937C23.1407 23.1723 22.7734 23.5395 22.7734 23.9925V27.2736C22.7734 27.7266 23.1407 28.0939 23.5937 28.0939H26.8748C27.3278 28.0939 27.695 27.7266 27.695 27.2736V23.9925C27.695 23.5395 27.3278 23.1723 26.8748 23.1723Z" fill="#111111"/>
<path id="Vector_258" d="M58.0542 20.7115H51.4921C50.5861 20.7115 49.8516 21.446 49.8516 22.352V28.9141C49.8516 29.8202 50.5861 30.5547 51.4921 30.5547H58.0542C58.9603 30.5547 59.6948 29.8202 59.6948 28.9141V22.352C59.6948 21.446 58.9603 20.7115 58.0542 20.7115Z" stroke="#111111" stroke-width="2.42024"/>
<path id="Vector_259" d="M56.4119 23.1723H53.1308C52.6778 23.1723 52.3105 23.5395 52.3105 23.9925V27.2736C52.3105 27.7266 52.6778 28.0939 53.1308 28.0939H56.4119C56.8649 28.0939 57.2322 27.7266 57.2322 27.2736V23.9925C57.2322 23.5395 56.8649 23.1723 56.4119 23.1723Z" fill="#111111"/>
<path id="Vector_260" d="M28.5171 50.2475H21.955C21.0489 50.2475 20.3145 50.982 20.3145 51.888V58.4502C20.3145 59.3562 21.0489 60.0907 21.955 60.0907H28.5171C29.4232 60.0907 30.1577 59.3562 30.1577 58.4502V51.888C30.1577 50.982 29.4232 50.2475 28.5171 50.2475Z" stroke="#111111" stroke-width="2.42024"/>
<path id="Vector_261" d="M26.8748 52.7081H23.5937C23.1407 52.7081 22.7734 53.0754 22.7734 53.5284V56.8095C22.7734 57.2625 23.1407 57.6297 23.5937 57.6297H26.8748C27.3278 57.6297 27.695 57.2625 27.695 56.8095V53.5284C27.695 53.0754 27.3278 52.7081 26.8748 52.7081Z" fill="#111111"/>
</g>
</g>
</g>
</svg>
