<svg width="80" height="81" viewBox="0 0 80 81" fill="none" xmlns="http://www.w3.org/2000/svg">
<g id="Template 7">
<g clip-path="url(#clip0_3730_30886)">
<rect y="0.400635" width="80" height="80" rx="40" fill="white"/>
<path id="Vector" d="M40 80.4005C62.0914 80.4005 80 62.4919 80 40.4005C80 18.3091 62.0914 0.400536 40 0.400536C17.9086 0.400536 0 18.3091 0 40.4005C0 62.4919 17.9086 80.4005 40 80.4005Z" fill="white"/>
<g id="Group">
<path id="Vector_2" fill-rule="evenodd" clip-rule="evenodd" d="M23.7971 12.262C23.9084 12.262 24.0177 12.2328 24.1147 12.1781C28.8096 9.52949 34.2314 8.01821 40.0062 8.01821C45.7811 8.01821 51.2029 9.52949 55.8978 12.1781C55.9949 12.2328 56.1042 12.262 56.2154 12.262C56.852 12.262 57.0832 11.4577 56.5294 11.1443C51.6504 8.3835 46.0123 6.80764 40.0062 6.80764C34.0002 6.80764 28.3622 8.3835 23.4831 11.1443C22.9293 11.4577 23.1606 12.262 23.7971 12.262ZM11.7768 24.5161C11.8315 24.4191 11.8606 24.3097 11.8606 24.1984C11.8606 23.562 11.0563 23.3306 10.7429 23.8845C7.98212 28.7635 6.40625 34.4016 6.40625 40.4076C6.40625 46.4137 7.98212 52.0518 10.7429 56.9308C11.0563 57.4846 11.8606 57.2534 11.8606 56.6168C11.8606 56.5056 11.8315 56.3963 11.7768 56.2991C9.12811 51.6043 7.61682 46.1825 7.61682 40.4076C7.61682 34.6328 9.12811 29.211 11.7768 24.5161ZM24.1149 68.6374C24.018 68.5827 23.9086 68.5534 23.7973 68.5534C23.1609 68.5534 22.9295 69.3576 23.4834 69.671C28.3623 72.4317 34.0003 74.0076 40.0062 74.0076C46.0123 74.0076 51.6501 72.4317 56.5291 69.671C57.0829 69.3576 56.8517 68.5534 56.2151 68.5534C56.1039 68.5534 55.9946 68.5827 55.8974 68.6374C51.2026 71.286 45.7811 72.797 40.0062 72.797C34.2315 72.797 28.8098 71.286 24.1149 68.6374ZM68.236 56.2988C68.1813 56.396 68.152 56.5053 68.152 56.6165C68.152 57.2531 68.9562 57.4843 69.2696 56.9305C72.0303 52.0515 73.6062 46.4137 73.6062 40.4076C73.6062 34.4017 72.0303 28.7638 69.2696 23.8848C68.9562 23.3309 68.152 23.5623 68.152 24.1987C68.152 24.3101 68.1813 24.4194 68.236 24.5164C70.8846 29.2112 72.3957 34.6329 72.3957 40.4076C72.3957 46.1822 70.8846 51.604 68.236 56.2988Z" fill="#111111"/>
</g>
<g id="Group_2">
<g id="Group_3">
<path id="Vector_3" d="M32.7389 15.6074H31.2363V17.11H32.7389V15.6074Z" fill="#111111"/>
<path id="Vector_4" d="M36.7448 15.6074H35.2422V17.11H36.7448V15.6074Z" fill="#111111"/>
<path id="Vector_5" d="M38.7487 15.6074H37.2461V17.11H38.7487V15.6074Z" fill="#111111"/>
<path id="Vector_6" d="M44.7604 15.6074H43.2578V17.11H44.7604V15.6074Z" fill="#111111"/>
<path id="Vector_7" d="M46.7663 15.6074H45.2637V17.11H46.7663V15.6074Z" fill="#111111"/>
<path id="Vector_8" d="M36.7448 17.6107H35.2422V19.1134H36.7448V17.6107Z" fill="#111111"/>
<path id="Vector_9" d="M38.7487 17.6107H37.2461V19.1134H38.7487V17.6107Z" fill="#111111"/>
<path id="Vector_10" d="M42.7565 17.6107H41.2539V19.1134H42.7565V17.6107Z" fill="#111111"/>
<path id="Vector_11" d="M46.7663 17.6107H45.2637V19.1134H46.7663V17.6107Z" fill="#111111"/>
<path id="Vector_12" d="M48.7702 17.6107H47.2676V19.1134H48.7702V17.6107Z" fill="#111111"/>
<path id="Vector_13" d="M32.7389 19.6145H31.2363V21.1171H32.7389V19.6145Z" fill="#111111"/>
<path id="Vector_14" d="M40.7526 19.6145H39.25V21.1171H40.7526V19.6145Z" fill="#111111"/>
<path id="Vector_15" d="M44.7604 19.6145H43.2578V21.1171H44.7604V19.6145Z" fill="#111111"/>
<path id="Vector_16" d="M46.7663 19.6145H45.2637V21.1171H46.7663V19.6145Z" fill="#111111"/>
<path id="Vector_17" d="M32.7389 21.6178H31.2363V23.1204H32.7389V21.6178Z" fill="#111111"/>
<path id="Vector_18" d="M38.7487 21.6178H37.2461V23.1204H38.7487V21.6178Z" fill="#111111"/>
<path id="Vector_19" d="M44.7604 21.6178H43.2578V23.1204H44.7604V21.6178Z" fill="#111111"/>
<path id="Vector_20" d="M34.7429 23.6211H33.2402V25.1238H34.7429V23.6211Z" fill="#111111"/>
<path id="Vector_21" d="M40.7526 23.6211H39.25V25.1238H40.7526V23.6211Z" fill="#111111"/>
<path id="Vector_22" d="M44.7604 23.6211H43.2578V25.1238H44.7604V23.6211Z" fill="#111111"/>
<path id="Vector_23" d="M46.7663 23.6211H45.2637V25.1238H46.7663V23.6211Z" fill="#111111"/>
<path id="Vector_24" d="M32.7389 25.6245H31.2363V27.1271H32.7389V25.6245Z" fill="#111111"/>
<path id="Vector_25" d="M34.7429 25.6245H33.2402V27.1271H34.7429V25.6245Z" fill="#111111"/>
<path id="Vector_26" d="M38.7487 25.6245H37.2461V27.1271H38.7487V25.6245Z" fill="#111111"/>
<path id="Vector_27" d="M46.7663 25.6245H45.2637V27.1271H46.7663V25.6245Z" fill="#111111"/>
<path id="Vector_28" d="M48.7702 25.6245H47.2676V27.1271H48.7702V25.6245Z" fill="#111111"/>
<path id="Vector_29" d="M32.7389 27.628H31.2363V29.1306H32.7389V27.628Z" fill="#111111"/>
<path id="Vector_30" d="M36.7448 27.628H35.2422V29.1306H36.7448V27.628Z" fill="#111111"/>
<path id="Vector_31" d="M40.7526 27.628H39.25V29.1306H40.7526V27.628Z" fill="#111111"/>
<path id="Vector_32" d="M44.7604 27.628H43.2578V29.1306H44.7604V27.628Z" fill="#111111"/>
<path id="Vector_33" d="M48.7702 27.628H47.2676V29.1306H48.7702V27.628Z" fill="#111111"/>
<path id="Vector_34" d="M32.7389 29.6317H31.2363V31.1344H32.7389V29.6317Z" fill="#111111"/>
<path id="Vector_35" d="M36.7448 29.6317H35.2422V31.1344H36.7448V29.6317Z" fill="#111111"/>
<path id="Vector_36" d="M38.7487 29.6317H37.2461V31.1344H38.7487V29.6317Z" fill="#111111"/>
<path id="Vector_37" d="M44.7604 29.6317H43.2578V31.1344H44.7604V29.6317Z" fill="#111111"/>
<path id="Vector_38" d="M48.7702 29.6317H47.2676V31.1344H48.7702V29.6317Z" fill="#111111"/>
<path id="Vector_39" d="M18.7155 31.6353H17.2129V33.1379H18.7155V31.6353Z" fill="#111111"/>
<path id="Vector_40" d="M22.7214 31.6353H21.2188V33.1379H22.7214V31.6353Z" fill="#111111"/>
<path id="Vector_41" d="M26.7311 31.6353H25.2285V33.1379H26.7311V31.6353Z" fill="#111111"/>
<path id="Vector_42" d="M28.7311 31.6353H27.2285V33.1379H28.7311V31.6353Z" fill="#111111"/>
<path id="Vector_43" d="M30.737 31.6353H29.2344V33.1379H30.737V31.6353Z" fill="#111111"/>
<path id="Vector_44" d="M32.7389 31.6353H31.2363V33.1379H32.7389V31.6353Z" fill="#111111"/>
<path id="Vector_45" d="M36.7448 31.6353H35.2422V33.1379H36.7448V31.6353Z" fill="#111111"/>
<path id="Vector_46" d="M38.7487 31.6353H37.2461V33.1379H38.7487V31.6353Z" fill="#111111"/>
<path id="Vector_47" d="M40.7526 31.6353H39.25V33.1379H40.7526V31.6353Z" fill="#111111"/>
<path id="Vector_48" d="M42.7565 31.6353H41.2539V33.1379H42.7565V31.6353Z" fill="#111111"/>
<path id="Vector_49" d="M44.7604 31.6353H43.2578V33.1379H44.7604V31.6353Z" fill="#111111"/>
<path id="Vector_50" d="M48.7702 31.6353H47.2676V33.1379H48.7702V31.6353Z" fill="#111111"/>
<path id="Vector_51" d="M50.7702 31.6353H49.2676V33.1379H50.7702V31.6353Z" fill="#111111"/>
<path id="Vector_52" d="M52.7722 31.6353H51.2695V33.1379H52.7722V31.6353Z" fill="#111111"/>
<path id="Vector_53" d="M54.778 31.6353H53.2754V33.1379H54.778V31.6353Z" fill="#111111"/>
<path id="Vector_54" d="M58.7858 31.6353H57.2832V33.1379H58.7858V31.6353Z" fill="#111111"/>
<path id="Vector_55" d="M60.7897 31.6353H59.2871V33.1379H60.7897V31.6353Z" fill="#111111"/>
<path id="Vector_56" d="M64.7936 31.6353H63.291V33.1379H64.7936V31.6353Z" fill="#111111"/>
<path id="Vector_57" d="M16.7116 33.6392H15.209V35.1418H16.7116V33.6392Z" fill="#111111"/>
<path id="Vector_58" d="M18.7155 33.6392H17.2129V35.1418H18.7155V33.6392Z" fill="#111111"/>
<path id="Vector_59" d="M20.7194 33.6392H19.2168V35.1418H20.7194V33.6392Z" fill="#111111"/>
<path id="Vector_60" d="M22.7214 33.6392H21.2188V35.1418H22.7214V33.6392Z" fill="#111111"/>
<path id="Vector_61" d="M34.7429 33.6392H33.2402V35.1418H34.7429V33.6392Z" fill="#111111"/>
<path id="Vector_62" d="M40.7526 33.6392H39.25V35.1418H40.7526V33.6392Z" fill="#111111"/>
<path id="Vector_63" d="M48.7702 33.6392H47.2676V35.1418H48.7702V33.6392Z" fill="#111111"/>
<path id="Vector_64" d="M50.7702 33.6392H49.2676V35.1418H50.7702V33.6392Z" fill="#111111"/>
<path id="Vector_65" d="M52.7722 33.6392H51.2695V35.1418H52.7722V33.6392Z" fill="#111111"/>
<path id="Vector_66" d="M64.7936 33.6392H63.291V35.1418H64.7936V33.6392Z" fill="#111111"/>
<path id="Vector_67" d="M16.7116 35.6423H15.209V37.1449H16.7116V35.6423Z" fill="#111111"/>
<path id="Vector_68" d="M18.7155 35.6423H17.2129V37.1449H18.7155V35.6423Z" fill="#111111"/>
<path id="Vector_69" d="M22.7214 35.6423H21.2188V37.1449H22.7214V35.6423Z" fill="#111111"/>
<path id="Vector_70" d="M24.7233 35.6423H23.2207V37.1449H24.7233V35.6423Z" fill="#111111"/>
<path id="Vector_71" d="M26.7311 35.6423H25.2285V37.1449H26.7311V35.6423Z" fill="#111111"/>
<path id="Vector_72" d="M28.7311 35.6423H27.2285V37.1449H28.7311V35.6423Z" fill="#111111"/>
<path id="Vector_73" d="M32.7389 35.6423H31.2363V37.1449H32.7389V35.6423Z" fill="#111111"/>
<path id="Vector_74" d="M34.7429 35.6423H33.2402V37.1449H34.7429V35.6423Z" fill="#111111"/>
<path id="Vector_75" d="M42.7565 35.6423H41.2539V37.1449H42.7565V35.6423Z" fill="#111111"/>
<path id="Vector_76" d="M48.7702 35.6423H47.2676V37.1449H48.7702V35.6423Z" fill="#111111"/>
<path id="Vector_77" d="M50.7702 35.6423H49.2676V37.1449H50.7702V35.6423Z" fill="#111111"/>
<path id="Vector_78" d="M52.7722 35.6423H51.2695V37.1449H52.7722V35.6423Z" fill="#111111"/>
<path id="Vector_79" d="M54.778 35.6423H53.2754V37.1449H54.778V35.6423Z" fill="#111111"/>
<path id="Vector_80" d="M62.7917 35.6423H61.2891V37.1449H62.7917V35.6423Z" fill="#111111"/>
<path id="Vector_81" d="M64.7936 35.6423H63.291V37.1449H64.7936V35.6423Z" fill="#111111"/>
<path id="Vector_82" d="M20.7194 37.6457H19.2168V39.1483H20.7194V37.6457Z" fill="#111111"/>
<path id="Vector_83" d="M22.7214 37.6457H21.2188V39.1483H22.7214V37.6457Z" fill="#111111"/>
<path id="Vector_84" d="M24.7233 37.6457H23.2207V39.1483H24.7233V37.6457Z" fill="#111111"/>
<path id="Vector_85" d="M26.7311 37.6457H25.2285V39.1483H26.7311V37.6457Z" fill="#111111"/>
<path id="Vector_86" d="M32.7389 37.6457H31.2363V39.1483H32.7389V37.6457Z" fill="#111111"/>
<path id="Vector_87" d="M38.7487 37.6457H37.2461V39.1483H38.7487V37.6457Z" fill="#111111"/>
<path id="Vector_88" d="M42.7565 37.6457H41.2539V39.1483H42.7565V37.6457Z" fill="#111111"/>
<path id="Vector_89" d="M46.7663 37.6457H45.2637V39.1483H46.7663V37.6457Z" fill="#111111"/>
<path id="Vector_90" d="M54.778 37.6457H53.2754V39.1483H54.778V37.6457Z" fill="#111111"/>
<path id="Vector_91" d="M56.78 37.6457H55.2773V39.1483H56.78V37.6457Z" fill="#111111"/>
<path id="Vector_92" d="M16.7116 39.6492H15.209V41.1518H16.7116V39.6492Z" fill="#111111"/>
<path id="Vector_93" d="M24.7233 39.6492H23.2207V41.1518H24.7233V39.6492Z" fill="#111111"/>
<path id="Vector_94" d="M28.7311 39.6492H27.2285V41.1518H28.7311V39.6492Z" fill="#111111"/>
<path id="Vector_95" d="M30.737 39.6492H29.2344V41.1518H30.737V39.6492Z" fill="#111111"/>
<path id="Vector_96" d="M32.7389 39.6492H31.2363V41.1518H32.7389V39.6492Z" fill="#111111"/>
<path id="Vector_97" d="M36.7448 39.6492H35.2422V41.1518H36.7448V39.6492Z" fill="#111111"/>
<path id="Vector_98" d="M38.7487 39.6492H37.2461V41.1518H38.7487V39.6492Z" fill="#111111"/>
<path id="Vector_99" d="M40.7526 39.6492H39.25V41.1518H40.7526V39.6492Z" fill="#111111"/>
<path id="Vector_100" d="M44.7604 39.6492H43.2578V41.1518H44.7604V39.6492Z" fill="#111111"/>
<path id="Vector_101" d="M46.7663 39.6492H45.2637V41.1518H46.7663V39.6492Z" fill="#111111"/>
<path id="Vector_102" d="M48.7702 39.6492H47.2676V41.1518H48.7702V39.6492Z" fill="#111111"/>
<path id="Vector_103" d="M50.7702 39.6492H49.2676V41.1518H50.7702V39.6492Z" fill="#111111"/>
<path id="Vector_104" d="M52.7722 39.6492H51.2695V41.1518H52.7722V39.6492Z" fill="#111111"/>
<path id="Vector_105" d="M54.778 39.6492H53.2754V41.1518H54.778V39.6492Z" fill="#111111"/>
<path id="Vector_106" d="M58.7858 39.6492H57.2832V41.1518H58.7858V39.6492Z" fill="#111111"/>
<path id="Vector_107" d="M62.7917 39.6492H61.2891V41.1518H62.7917V39.6492Z" fill="#111111"/>
<path id="Vector_108" d="M64.7936 39.6492H63.291V41.1518H64.7936V39.6492Z" fill="#111111"/>
<path id="Vector_109" d="M18.7155 41.6527H17.2129V43.1553H18.7155V41.6527Z" fill="#111111"/>
<path id="Vector_110" d="M22.7214 41.6527H21.2188V43.1553H22.7214V41.6527Z" fill="#111111"/>
<path id="Vector_111" d="M24.7233 41.6527H23.2207V43.1553H24.7233V41.6527Z" fill="#111111"/>
<path id="Vector_112" d="M26.7311 41.6527H25.2285V43.1553H26.7311V41.6527Z" fill="#111111"/>
<path id="Vector_113" d="M34.7429 41.6527H33.2402V43.1553H34.7429V41.6527Z" fill="#111111"/>
<path id="Vector_114" d="M36.7448 41.6527H35.2422V43.1553H36.7448V41.6527Z" fill="#111111"/>
<path id="Vector_115" d="M38.7487 41.6527H37.2461V43.1553H38.7487V41.6527Z" fill="#111111"/>
<path id="Vector_116" d="M42.7565 41.6527H41.2539V43.1553H42.7565V41.6527Z" fill="#111111"/>
<path id="Vector_117" d="M50.7702 41.6527H49.2676V43.1553H50.7702V41.6527Z" fill="#111111"/>
<path id="Vector_118" d="M52.7722 41.6527H51.2695V43.1553H52.7722V41.6527Z" fill="#111111"/>
<path id="Vector_119" d="M54.778 41.6527H53.2754V43.1553H54.778V41.6527Z" fill="#111111"/>
<path id="Vector_120" d="M58.7858 41.6527H57.2832V43.1553H58.7858V41.6527Z" fill="#111111"/>
<path id="Vector_121" d="M60.7897 41.6527H59.2871V43.1553H60.7897V41.6527Z" fill="#111111"/>
<path id="Vector_122" d="M64.7936 41.6527H63.291V43.1553H64.7936V41.6527Z" fill="#111111"/>
<path id="Vector_123" d="M16.7116 43.6563H15.209V45.1589H16.7116V43.6563Z" fill="#111111"/>
<path id="Vector_124" d="M22.7214 43.6563H21.2188V45.1589H22.7214V43.6563Z" fill="#111111"/>
<path id="Vector_125" d="M24.7233 43.6563H23.2207V45.1589H24.7233V43.6563Z" fill="#111111"/>
<path id="Vector_126" d="M26.7311 43.6563H25.2285V45.1589H26.7311V43.6563Z" fill="#111111"/>
<path id="Vector_127" d="M28.7311 43.6563H27.2285V45.1589H28.7311V43.6563Z" fill="#111111"/>
<path id="Vector_128" d="M30.737 43.6563H29.2344V45.1589H30.737V43.6563Z" fill="#111111"/>
<path id="Vector_129" d="M36.7448 43.6563H35.2422V45.1589H36.7448V43.6563Z" fill="#111111"/>
<path id="Vector_130" d="M38.7487 43.6563H37.2461V45.1589H38.7487V43.6563Z" fill="#111111"/>
<path id="Vector_131" d="M42.7565 43.6563H41.2539V45.1589H42.7565V43.6563Z" fill="#111111"/>
<path id="Vector_132" d="M44.7604 43.6563H43.2578V45.1589H44.7604V43.6563Z" fill="#111111"/>
<path id="Vector_133" d="M48.7702 43.6563H47.2676V45.1589H48.7702V43.6563Z" fill="#111111"/>
<path id="Vector_134" d="M52.7722 43.6563H51.2695V45.1589H52.7722V43.6563Z" fill="#111111"/>
<path id="Vector_135" d="M54.778 43.6563H53.2754V45.1589H54.778V43.6563Z" fill="#111111"/>
<path id="Vector_136" d="M56.78 43.6563H55.2773V45.1589H56.78V43.6563Z" fill="#111111"/>
<path id="Vector_137" d="M60.7897 43.6563H59.2871V45.1589H60.7897V43.6563Z" fill="#111111"/>
<path id="Vector_138" d="M64.7936 43.6563H63.291V45.1589H64.7936V43.6563Z" fill="#111111"/>
<path id="Vector_139" d="M18.7155 45.6598H17.2129V47.1624H18.7155V45.6598Z" fill="#111111"/>
<path id="Vector_140" d="M22.7214 45.6598H21.2188V47.1624H22.7214V45.6598Z" fill="#111111"/>
<path id="Vector_141" d="M26.7311 45.6598H25.2285V47.1624H26.7311V45.6598Z" fill="#111111"/>
<path id="Vector_142" d="M30.737 45.6598H29.2344V47.1624H30.737V45.6598Z" fill="#111111"/>
<path id="Vector_143" d="M32.7389 45.6598H31.2363V47.1624H32.7389V45.6598Z" fill="#111111"/>
<path id="Vector_144" d="M40.7526 45.6598H39.25V47.1624H40.7526V45.6598Z" fill="#111111"/>
<path id="Vector_145" d="M44.7604 45.6598H43.2578V47.1624H44.7604V45.6598Z" fill="#111111"/>
<path id="Vector_146" d="M48.7702 45.6598H47.2676V47.1624H48.7702V45.6598Z" fill="#111111"/>
<path id="Vector_147" d="M56.78 45.6598H55.2773V47.1624H56.78V45.6598Z" fill="#111111"/>
<path id="Vector_148" d="M58.7858 45.6598H57.2832V47.1624H58.7858V45.6598Z" fill="#111111"/>
<path id="Vector_149" d="M62.7917 45.6598H61.2891V47.1624H62.7917V45.6598Z" fill="#111111"/>
<path id="Vector_150" d="M16.7116 47.6633H15.209V49.1659H16.7116V47.6633Z" fill="#111111"/>
<path id="Vector_151" d="M18.7155 47.6633H17.2129V49.1659H18.7155V47.6633Z" fill="#111111"/>
<path id="Vector_152" d="M24.7233 47.6633H23.2207V49.1659H24.7233V47.6633Z" fill="#111111"/>
<path id="Vector_153" d="M28.7311 47.6633H27.2285V49.1659H28.7311V47.6633Z" fill="#111111"/>
<path id="Vector_154" d="M30.737 47.6633H29.2344V49.1659H30.737V47.6633Z" fill="#111111"/>
<path id="Vector_155" d="M34.7429 47.6633H33.2402V49.1659H34.7429V47.6633Z" fill="#111111"/>
<path id="Vector_156" d="M40.7526 47.6633H39.25V49.1659H40.7526V47.6633Z" fill="#111111"/>
<path id="Vector_157" d="M42.7565 47.6633H41.2539V49.1659H42.7565V47.6633Z" fill="#111111"/>
<path id="Vector_158" d="M48.7702 47.6633H47.2676V49.1659H48.7702V47.6633Z" fill="#111111"/>
<path id="Vector_159" d="M50.7702 47.6633H49.2676V49.1659H50.7702V47.6633Z" fill="#111111"/>
<path id="Vector_160" d="M52.7722 47.6633H51.2695V49.1659H52.7722V47.6633Z" fill="#111111"/>
<path id="Vector_161" d="M54.778 47.6633H53.2754V49.1659H54.778V47.6633Z" fill="#111111"/>
<path id="Vector_162" d="M56.78 47.6633H55.2773V49.1659H56.78V47.6633Z" fill="#111111"/>
<path id="Vector_163" d="M58.7858 47.6633H57.2832V49.1659H58.7858V47.6633Z" fill="#111111"/>
<path id="Vector_164" d="M60.7897 47.6633H59.2871V49.1659H60.7897V47.6633Z" fill="#111111"/>
<path id="Vector_165" d="M32.7389 49.6666H31.2363V51.1693H32.7389V49.6666Z" fill="#111111"/>
<path id="Vector_166" d="M34.7429 49.6666H33.2402V51.1693H34.7429V49.6666Z" fill="#111111"/>
<path id="Vector_167" d="M42.7565 49.6666H41.2539V51.1693H42.7565V49.6666Z" fill="#111111"/>
<path id="Vector_168" d="M46.7663 49.6666H45.2637V51.1693H46.7663V49.6666Z" fill="#111111"/>
<path id="Vector_169" d="M48.7702 49.6666H47.2676V51.1693H48.7702V49.6666Z" fill="#111111"/>
<path id="Vector_170" d="M56.78 49.6666H55.2773V51.1693H56.78V49.6666Z" fill="#111111"/>
<path id="Vector_171" d="M58.7858 49.6666H57.2832V51.1693H58.7858V49.6666Z" fill="#111111"/>
<path id="Vector_172" d="M60.7897 49.6666H59.2871V51.1693H60.7897V49.6666Z" fill="#111111"/>
<path id="Vector_173" d="M64.7936 49.6666H63.291V51.1693H64.7936V49.6666Z" fill="#111111"/>
<path id="Vector_174" d="M32.7389 51.67H31.2363V53.1726H32.7389V51.67Z" fill="#111111"/>
<path id="Vector_175" d="M38.7487 51.67H37.2461V53.1726H38.7487V51.67Z" fill="#111111"/>
<path id="Vector_176" d="M42.7565 51.67H41.2539V53.1726H42.7565V51.67Z" fill="#111111"/>
<path id="Vector_177" d="M46.7663 51.67H45.2637V53.1726H46.7663V51.67Z" fill="#111111"/>
<path id="Vector_178" d="M48.7702 51.67H47.2676V53.1726H48.7702V51.67Z" fill="#111111"/>
<path id="Vector_179" d="M52.7722 51.67H51.2695V53.1726H52.7722V51.67Z" fill="#111111"/>
<path id="Vector_180" d="M56.78 51.67H55.2773V53.1726H56.78V51.67Z" fill="#111111"/>
<path id="Vector_181" d="M62.7917 51.67H61.2891V53.1726H62.7917V51.67Z" fill="#111111"/>
<path id="Vector_182" d="M64.7936 51.67H63.291V53.1726H64.7936V51.67Z" fill="#111111"/>
<path id="Vector_183" d="M32.7389 53.6735H31.2363V55.1761H32.7389V53.6735Z" fill="#111111"/>
<path id="Vector_184" d="M36.7448 53.6735H35.2422V55.1761H36.7448V53.6735Z" fill="#111111"/>
<path id="Vector_185" d="M40.7526 53.6735H39.25V55.1761H40.7526V53.6735Z" fill="#111111"/>
<path id="Vector_186" d="M42.7565 53.6735H41.2539V55.1761H42.7565V53.6735Z" fill="#111111"/>
<path id="Vector_187" d="M44.7604 53.6735H43.2578V55.1761H44.7604V53.6735Z" fill="#111111"/>
<path id="Vector_188" d="M48.7702 53.6735H47.2676V55.1761H48.7702V53.6735Z" fill="#111111"/>
<path id="Vector_189" d="M56.78 53.6735H55.2773V55.1761H56.78V53.6735Z" fill="#111111"/>
<path id="Vector_190" d="M58.7858 53.6735H57.2832V55.1761H58.7858V53.6735Z" fill="#111111"/>
<path id="Vector_191" d="M60.7897 53.6735H59.2871V55.1761H60.7897V53.6735Z" fill="#111111"/>
<path id="Vector_192" d="M62.7917 53.6735H61.2891V55.1761H62.7917V53.6735Z" fill="#111111"/>
<path id="Vector_193" d="M36.7448 55.6774H35.2422V57.18H36.7448V55.6774Z" fill="#111111"/>
<path id="Vector_194" d="M40.7526 55.6774H39.25V57.18H40.7526V55.6774Z" fill="#111111"/>
<path id="Vector_195" d="M42.7565 55.6774H41.2539V57.18H42.7565V55.6774Z" fill="#111111"/>
<path id="Vector_196" d="M48.7702 55.6774H47.2676V57.18H48.7702V55.6774Z" fill="#111111"/>
<path id="Vector_197" d="M50.7702 55.6774H49.2676V57.18H50.7702V55.6774Z" fill="#111111"/>
<path id="Vector_198" d="M52.7722 55.6774H51.2695V57.18H52.7722V55.6774Z" fill="#111111"/>
<path id="Vector_199" d="M54.778 55.6774H53.2754V57.18H54.778V55.6774Z" fill="#111111"/>
<path id="Vector_200" d="M56.78 55.6774H55.2773V57.18H56.78V55.6774Z" fill="#111111"/>
<path id="Vector_201" d="M64.7936 55.6774H63.291V57.18H64.7936V55.6774Z" fill="#111111"/>
<path id="Vector_202" d="M32.7389 57.6808H31.2363V59.1834H32.7389V57.6808Z" fill="#111111"/>
<path id="Vector_203" d="M36.7448 57.6808H35.2422V59.1834H36.7448V57.6808Z" fill="#111111"/>
<path id="Vector_204" d="M42.7565 57.6808H41.2539V59.1834H42.7565V57.6808Z" fill="#111111"/>
<path id="Vector_205" d="M54.778 57.6808H53.2754V59.1834H54.778V57.6808Z" fill="#111111"/>
<path id="Vector_206" d="M60.7897 57.6808H59.2871V59.1834H60.7897V57.6808Z" fill="#111111"/>
<path id="Vector_207" d="M34.7429 59.6843H33.2402V61.1869H34.7429V59.6843Z" fill="#111111"/>
<path id="Vector_208" d="M40.7526 59.6843H39.25V61.1869H40.7526V59.6843Z" fill="#111111"/>
<path id="Vector_209" d="M42.7565 59.6843H41.2539V61.1869H42.7565V59.6843Z" fill="#111111"/>
<path id="Vector_210" d="M48.7702 59.6843H47.2676V61.1869H48.7702V59.6843Z" fill="#111111"/>
<path id="Vector_211" d="M50.7702 59.6843H49.2676V61.1869H50.7702V59.6843Z" fill="#111111"/>
<path id="Vector_212" d="M56.78 59.6843H55.2773V61.1869H56.78V59.6843Z" fill="#111111"/>
<path id="Vector_213" d="M58.7858 59.6843H57.2832V61.1869H58.7858V59.6843Z" fill="#111111"/>
<path id="Vector_214" d="M60.7897 59.6843H59.2871V61.1869H60.7897V59.6843Z" fill="#111111"/>
<path id="Vector_215" d="M64.7936 59.6843H63.291V61.1869H64.7936V59.6843Z" fill="#111111"/>
<path id="Vector_216" d="M32.7389 61.6878H31.2363V63.1904H32.7389V61.6878Z" fill="#111111"/>
<path id="Vector_217" d="M34.7429 61.6878H33.2402V63.1904H34.7429V61.6878Z" fill="#111111"/>
<path id="Vector_218" d="M36.7448 61.6878H35.2422V63.1904H36.7448V61.6878Z" fill="#111111"/>
<path id="Vector_219" d="M40.7526 61.6878H39.25V63.1904H40.7526V61.6878Z" fill="#111111"/>
<path id="Vector_220" d="M42.7565 61.6878H41.2539V63.1904H42.7565V61.6878Z" fill="#111111"/>
<path id="Vector_221" d="M46.7663 61.6878H45.2637V63.1904H46.7663V61.6878Z" fill="#111111"/>
<path id="Vector_222" d="M48.7702 61.6878H47.2676V63.1904H48.7702V61.6878Z" fill="#111111"/>
<path id="Vector_223" d="M58.7858 61.6878H57.2832V63.1904H58.7858V61.6878Z" fill="#111111"/>
<path id="Vector_224" d="M34.7429 63.6912H33.2402V65.1938H34.7429V63.6912Z" fill="#111111"/>
<path id="Vector_225" d="M36.7448 63.6912H35.2422V65.1938H36.7448V63.6912Z" fill="#111111"/>
<path id="Vector_226" d="M38.7487 63.6912H37.2461V65.1938H38.7487V63.6912Z" fill="#111111"/>
<path id="Vector_227" d="M40.7526 63.6912H39.25V65.1938H40.7526V63.6912Z" fill="#111111"/>
<path id="Vector_228" d="M42.7565 63.6912H41.2539V65.1938H42.7565V63.6912Z" fill="#111111"/>
<path id="Vector_229" d="M46.7663 63.6912H45.2637V65.1938H46.7663V63.6912Z" fill="#111111"/>
<path id="Vector_230" d="M48.7702 63.6912H47.2676V65.1938H48.7702V63.6912Z" fill="#111111"/>
<path id="Vector_231" d="M54.778 63.6912H53.2754V65.1938H54.778V63.6912Z" fill="#111111"/>
<path id="Vector_232" d="M62.7917 63.6912H61.2891V65.1938H62.7917V63.6912Z" fill="#111111"/>
<path id="Vector_233" d="M64.7936 63.6912H63.291V65.1938H64.7936V63.6912Z" fill="#111111"/>
</g>
<g id="Group_4">
<path id="Vector_234" d="M27.978 16.3549H15.957V28.3758H27.978V16.3549Z" stroke="#111111" stroke-width="2.50687"/>
<path id="Vector_235" d="M24.9714 19.3596H18.9609V25.3701H24.9714V19.3596Z" fill="#111111"/>
<path id="Vector_236" d="M64.0483 16.3548H52.0273V28.3757H64.0483V16.3548Z" stroke="#111111" stroke-width="2.50687"/>
<path id="Vector_237" d="M61.0437 19.3596H55.0332V25.3701H61.0437V19.3596Z" fill="#111111"/>
<path id="Vector_238" d="M27.978 52.4246H15.957V64.4455H27.978V52.4246Z" stroke="#111111" stroke-width="2.50687"/>
<path id="Vector_239" d="M24.9714 55.43H18.9609V61.4404H24.9714V55.43Z" fill="#111111"/>
</g>
</g>
</g>
<rect x="0.5" y="0.900635" width="79" height="79" rx="39.5" stroke="#1A1A1A" stroke-opacity="0.1"/>
</g>
<defs>
<clipPath id="clip0_3730_30886">
<rect y="0.400635" width="80" height="80" rx="40" fill="white"/>
</clipPath>
</defs>
</svg>
