<svg width="80" height="81" viewBox="0 0 80 81" fill="none" xmlns="http://www.w3.org/2000/svg">
<g id="Template 2">
<path d="M0 6.89835C0 3.30976 2.90912 0.400635 6.49771 0.400635H73.5023C77.0909 0.400635 80 3.30976 80 6.89834V73.9029C80 77.4915 77.0909 80.4006 73.5023 80.4006H6.49771C2.90913 80.4006 0 77.4915 0 73.9029V6.89835Z" fill="white"/>
<path d="M0.406107 6.89835C0.406107 3.53405 3.13341 0.806742 6.49771 0.806742H73.5023C76.8666 0.806742 79.5939 3.53404 79.5939 6.89834V73.9029C79.5939 77.2672 76.8666 79.9945 73.5023 79.9945H6.49771C3.13341 79.9945 0.406107 77.2672 0.406107 73.9029V6.89835Z" stroke="#1A1A1A" stroke-opacity="0.1" stroke-width="0.812214"/>
<g id="Group">
<g id="Group_2">
<path id="Vector" d="M30.2784 8.53074C30.2784 7.98409 29.8353 7.54094 29.2886 7.54094C28.742 7.54094 28.2988 7.98409 28.2988 8.53074C28.2988 9.07739 28.742 9.52054 29.2886 9.52054C29.8353 9.52054 30.2784 9.07739 30.2784 8.53074Z" fill="#111111"/>
<path id="Vector_2" d="M35.5558 8.53074C35.5558 7.98409 35.1126 7.54094 34.566 7.54094C34.0193 7.54094 33.5762 7.98409 33.5762 8.53074C33.5762 9.07739 34.0193 9.52054 34.566 9.52054C35.1126 9.52054 35.5558 9.07739 35.5558 8.53074Z" fill="#111111"/>
<path id="Vector_3" d="M38.1964 8.53074C38.1964 7.98409 37.7532 7.54094 37.2066 7.54094C36.6599 7.54094 36.2168 7.98409 36.2168 8.53074C36.2168 9.07739 36.6599 9.52054 37.2066 9.52054C37.7532 9.52054 38.1964 9.07739 38.1964 8.53074Z" fill="#111111"/>
<path id="Vector_4" d="M46.1144 8.53074C46.1144 7.98409 45.6712 7.54094 45.1246 7.54094C44.5779 7.54094 44.1348 7.98409 44.1348 8.53074C44.1348 9.07739 44.5779 9.52054 45.1246 9.52054C45.6712 9.52054 46.1144 9.07739 46.1144 8.53074Z" fill="#111111"/>
<path id="Vector_5" d="M48.755 8.53074C48.755 7.98409 48.3118 7.54094 47.7652 7.54094C47.2185 7.54094 46.7754 7.98409 46.7754 8.53074C46.7754 9.07739 47.2185 9.52054 47.7652 9.52054C48.3118 9.52054 48.755 9.07739 48.755 8.53074Z" fill="#111111"/>
<path id="Vector_6" d="M35.5558 11.1703C35.5558 10.6236 35.1126 10.1805 34.566 10.1805C34.0193 10.1805 33.5762 10.6236 33.5762 11.1703C33.5762 11.717 34.0193 12.1601 34.566 12.1601C35.1126 12.1601 35.5558 11.717 35.5558 11.1703Z" fill="#111111"/>
<path id="Vector_7" d="M38.1964 11.1703C38.1964 10.6236 37.7532 10.1805 37.2066 10.1805C36.6599 10.1805 36.2168 10.6236 36.2168 11.1703C36.2168 11.717 36.6599 12.1601 37.2066 12.1601C37.7532 12.1601 38.1964 11.717 38.1964 11.1703Z" fill="#111111"/>
<path id="Vector_8" d="M43.4737 11.1703C43.4737 10.6236 43.0306 10.1805 42.4839 10.1805C41.9373 10.1805 41.4941 10.6236 41.4941 11.1703C41.4941 11.717 41.9373 12.1601 42.4839 12.1601C43.0306 12.1601 43.4737 11.717 43.4737 11.1703Z" fill="#111111"/>
<path id="Vector_9" d="M48.755 11.1703C48.755 10.6236 48.3118 10.1805 47.7652 10.1805C47.2185 10.1805 46.7754 10.6236 46.7754 11.1703C46.7754 11.717 47.2185 12.1601 47.7652 12.1601C48.3118 12.1601 48.755 11.717 48.755 11.1703Z" fill="#111111"/>
<path id="Vector_10" d="M51.3917 11.1703C51.3917 10.6236 50.9486 10.1805 50.4019 10.1805C49.8553 10.1805 49.4121 10.6236 49.4121 11.1703C49.4121 11.717 49.8553 12.1601 50.4019 12.1601C50.9486 12.1601 51.3917 11.717 51.3917 11.1703Z" fill="#111111"/>
<path id="Vector_11" d="M30.2784 13.8097C30.2784 13.263 29.8353 12.8199 29.2886 12.8199C28.742 12.8199 28.2988 13.263 28.2988 13.8097C28.2988 14.3563 28.742 14.7995 29.2886 14.7995C29.8353 14.7995 30.2784 14.3563 30.2784 13.8097Z" fill="#111111"/>
<path id="Vector_12" d="M40.8351 13.8097C40.8351 13.263 40.3919 12.8199 39.8453 12.8199C39.2986 12.8199 38.8555 13.263 38.8555 13.8097C38.8555 14.3563 39.2986 14.7995 39.8453 14.7995C40.3919 14.7995 40.8351 14.3563 40.8351 13.8097Z" fill="#111111"/>
<path id="Vector_13" d="M46.1144 13.8097C46.1144 13.263 45.6712 12.8199 45.1246 12.8199C44.5779 12.8199 44.1348 13.263 44.1348 13.8097C44.1348 14.3563 44.5779 14.7995 45.1246 14.7995C45.6712 14.7995 46.1144 14.3563 46.1144 13.8097Z" fill="#111111"/>
<path id="Vector_14" d="M48.755 13.8097C48.755 13.263 48.3118 12.8199 47.7652 12.8199C47.2185 12.8199 46.7754 13.263 46.7754 13.8097C46.7754 14.3563 47.2185 14.7995 47.7652 14.7995C48.3118 14.7995 48.755 14.3563 48.755 13.8097Z" fill="#111111"/>
<path id="Vector_15" d="M30.2784 16.449C30.2784 15.9024 29.8353 15.4592 29.2886 15.4592C28.742 15.4592 28.2988 15.9024 28.2988 16.449C28.2988 16.9957 28.742 17.4388 29.2886 17.4388C29.8353 17.4388 30.2784 16.9957 30.2784 16.449Z" fill="#111111"/>
<path id="Vector_16" d="M38.1964 16.449C38.1964 15.9024 37.7532 15.4592 37.2066 15.4592C36.6599 15.4592 36.2168 15.9024 36.2168 16.449C36.2168 16.9957 36.6599 17.4388 37.2066 17.4388C37.7532 17.4388 38.1964 16.9957 38.1964 16.449Z" fill="#111111"/>
<path id="Vector_17" d="M46.1144 16.449C46.1144 15.9024 45.6712 15.4592 45.1246 15.4592C44.5779 15.4592 44.1348 15.9024 44.1348 16.449C44.1348 16.9957 44.5779 17.4388 45.1246 17.4388C45.6712 17.4388 46.1144 16.9957 46.1144 16.449Z" fill="#111111"/>
<path id="Vector_18" d="M32.9171 19.0886C32.9171 18.5419 32.474 18.0988 31.9273 18.0988C31.3807 18.0988 30.9375 18.5419 30.9375 19.0886C30.9375 19.6352 31.3807 20.0784 31.9273 20.0784C32.474 20.0784 32.9171 19.6352 32.9171 19.0886Z" fill="#111111"/>
<path id="Vector_19" d="M40.8351 19.0886C40.8351 18.5419 40.3919 18.0988 39.8453 18.0988C39.2986 18.0988 38.8555 18.5419 38.8555 19.0886C38.8555 19.6352 39.2986 20.0784 39.8453 20.0784C40.3919 20.0784 40.8351 19.6352 40.8351 19.0886Z" fill="#111111"/>
<path id="Vector_20" d="M46.1144 19.0886C46.1144 18.5419 45.6712 18.0988 45.1246 18.0988C44.5779 18.0988 44.1348 18.5419 44.1348 19.0886C44.1348 19.6352 44.5779 20.0784 45.1246 20.0784C45.6712 20.0784 46.1144 19.6352 46.1144 19.0886Z" fill="#111111"/>
<path id="Vector_21" d="M48.755 19.0886C48.755 18.5419 48.3118 18.0988 47.7652 18.0988C47.2185 18.0988 46.7754 18.5419 46.7754 19.0886C46.7754 19.6352 47.2185 20.0784 47.7652 20.0784C48.3118 20.0784 48.755 19.6352 48.755 19.0886Z" fill="#111111"/>
<path id="Vector_22" d="M30.2784 21.7279C30.2784 21.1813 29.8353 20.7381 29.2886 20.7381C28.742 20.7381 28.2988 21.1813 28.2988 21.7279C28.2988 22.2746 28.742 22.7177 29.2886 22.7177C29.8353 22.7177 30.2784 22.2746 30.2784 21.7279Z" fill="#111111"/>
<path id="Vector_23" d="M32.9171 21.7279C32.9171 21.1813 32.474 20.7381 31.9273 20.7381C31.3807 20.7381 30.9375 21.1813 30.9375 21.7279C30.9375 22.2746 31.3807 22.7177 31.9273 22.7177C32.474 22.7177 32.9171 22.2746 32.9171 21.7279Z" fill="#111111"/>
<path id="Vector_24" d="M38.1964 21.7279C38.1964 21.1813 37.7532 20.7381 37.2066 20.7381C36.6599 20.7381 36.2168 21.1813 36.2168 21.7279C36.2168 22.2746 36.6599 22.7177 37.2066 22.7177C37.7532 22.7177 38.1964 22.2746 38.1964 21.7279Z" fill="#111111"/>
<path id="Vector_25" d="M48.755 21.7279C48.755 21.1813 48.3118 20.7381 47.7652 20.7381C47.2185 20.7381 46.7754 21.1813 46.7754 21.7279C46.7754 22.2746 47.2185 22.7177 47.7652 22.7177C48.3118 22.7177 48.755 22.2746 48.755 21.7279Z" fill="#111111"/>
<path id="Vector_26" d="M51.3917 21.7279C51.3917 21.1813 50.9486 20.7381 50.4019 20.7381C49.8553 20.7381 49.4121 21.1813 49.4121 21.7279C49.4121 22.2746 49.8553 22.7177 50.4019 22.7177C50.9486 22.7177 51.3917 22.2746 51.3917 21.7279Z" fill="#111111"/>
<path id="Vector_27" d="M30.2784 24.3677C30.2784 23.821 29.8353 23.3779 29.2886 23.3779C28.742 23.3779 28.2988 23.821 28.2988 24.3677C28.2988 24.9143 28.742 25.3575 29.2886 25.3575C29.8353 25.3575 30.2784 24.9143 30.2784 24.3677Z" fill="#111111"/>
<path id="Vector_28" d="M35.5558 24.3677C35.5558 23.821 35.1126 23.3779 34.566 23.3779C34.0193 23.3779 33.5762 23.821 33.5762 24.3677C33.5762 24.9143 34.0193 25.3575 34.566 25.3575C35.1126 25.3575 35.5558 24.9143 35.5558 24.3677Z" fill="#111111"/>
<path id="Vector_29" d="M40.8351 24.3677C40.8351 23.821 40.3919 23.3779 39.8453 23.3779C39.2986 23.3779 38.8555 23.821 38.8555 24.3677C38.8555 24.9143 39.2986 25.3575 39.8453 25.3575C40.3919 25.3575 40.8351 24.9143 40.8351 24.3677Z" fill="#111111"/>
<path id="Vector_30" d="M46.1144 24.3677C46.1144 23.821 45.6712 23.3779 45.1246 23.3779C44.5779 23.3779 44.1348 23.821 44.1348 24.3677C44.1348 24.9143 44.5779 25.3575 45.1246 25.3575C45.6712 25.3575 46.1144 24.9143 46.1144 24.3677Z" fill="#111111"/>
<path id="Vector_31" d="M51.3917 24.3677C51.3917 23.821 50.9486 23.3779 50.4019 23.3779C49.8553 23.3779 49.4121 23.821 49.4121 24.3677C49.4121 24.9143 49.8553 25.3575 50.4019 25.3575C50.9486 25.3575 51.3917 24.9143 51.3917 24.3677Z" fill="#111111"/>
<path id="Vector_32" d="M30.2784 27.0071C30.2784 26.4604 29.8353 26.0173 29.2886 26.0173C28.742 26.0173 28.2988 26.4604 28.2988 27.0071C28.2988 27.5537 28.742 27.9969 29.2886 27.9969C29.8353 27.9969 30.2784 27.5537 30.2784 27.0071Z" fill="#111111"/>
<path id="Vector_33" d="M35.5558 27.0071C35.5558 26.4604 35.1126 26.0173 34.566 26.0173C34.0193 26.0173 33.5762 26.4604 33.5762 27.0071C33.5762 27.5537 34.0193 27.9969 34.566 27.9969C35.1126 27.9969 35.5558 27.5537 35.5558 27.0071Z" fill="#111111"/>
<path id="Vector_34" d="M38.1964 27.0071C38.1964 26.4604 37.7532 26.0173 37.2066 26.0173C36.6599 26.0173 36.2168 26.4604 36.2168 27.0071C36.2168 27.5537 36.6599 27.9969 37.2066 27.9969C37.7532 27.9969 38.1964 27.5537 38.1964 27.0071Z" fill="#111111"/>
<path id="Vector_35" d="M46.1144 27.0071C46.1144 26.4604 45.6712 26.0173 45.1246 26.0173C44.5779 26.0173 44.1348 26.4604 44.1348 27.0071C44.1348 27.5537 44.5779 27.9969 45.1246 27.9969C45.6712 27.9969 46.1144 27.5537 46.1144 27.0071Z" fill="#111111"/>
<path id="Vector_36" d="M51.3917 27.0071C51.3917 26.4604 50.9486 26.0173 50.4019 26.0173C49.8553 26.0173 49.4121 26.4604 49.4121 27.0071C49.4121 27.5537 49.8553 27.9969 50.4019 27.9969C50.9486 27.9969 51.3917 27.5537 51.3917 27.0071Z" fill="#111111"/>
<path id="Vector_37" d="M11.8019 29.6464C11.8019 29.0998 11.3587 28.6566 10.8121 28.6566C10.2654 28.6566 9.82227 29.0998 9.82227 29.6464C9.82227 30.1931 10.2654 30.6362 10.8121 30.6362C11.3587 30.6362 11.8019 30.1931 11.8019 29.6464Z" fill="#111111"/>
<path id="Vector_38" d="M17.0792 29.6464C17.0792 29.0998 16.6361 28.6566 16.0894 28.6566C15.5428 28.6566 15.0996 29.0998 15.0996 29.6464C15.0996 30.1931 15.5428 30.6362 16.0894 30.6362C16.6361 30.6362 17.0792 30.1931 17.0792 29.6464Z" fill="#111111"/>
<path id="Vector_39" d="M22.3585 29.6464C22.3585 29.0998 21.9154 28.6566 21.3687 28.6566C20.8221 28.6566 20.3789 29.0998 20.3789 29.6464C20.3789 30.1931 20.8221 30.6362 21.3687 30.6362C21.9154 30.6362 22.3585 30.1931 22.3585 29.6464Z" fill="#111111"/>
<path id="Vector_40" d="M24.9972 29.6464C24.9972 29.0998 24.554 28.6566 24.0074 28.6566C23.4607 28.6566 23.0176 29.0998 23.0176 29.6464C23.0176 30.1931 23.4607 30.6362 24.0074 30.6362C24.554 30.6362 24.9972 30.1931 24.9972 29.6464Z" fill="#111111"/>
<path id="Vector_41" d="M27.6378 29.6464C27.6378 29.0998 27.1947 28.6566 26.648 28.6566C26.1014 28.6566 25.6582 29.0998 25.6582 29.6464C25.6582 30.1931 26.1014 30.6362 26.648 30.6362C27.1947 30.6362 27.6378 30.1931 27.6378 29.6464Z" fill="#111111"/>
<path id="Vector_42" d="M30.2784 29.6464C30.2784 29.0998 29.8353 28.6566 29.2886 28.6566C28.742 28.6566 28.2988 29.0998 28.2988 29.6464C28.2988 30.1931 28.742 30.6362 29.2886 30.6362C29.8353 30.6362 30.2784 30.1931 30.2784 29.6464Z" fill="#111111"/>
<path id="Vector_43" d="M35.5558 29.6464C35.5558 29.0998 35.1126 28.6566 34.566 28.6566C34.0193 28.6566 33.5762 29.0998 33.5762 29.6464C33.5762 30.1931 34.0193 30.6362 34.566 30.6362C35.1126 30.6362 35.5558 30.1931 35.5558 29.6464Z" fill="#111111"/>
<path id="Vector_44" d="M38.1964 29.6464C38.1964 29.0998 37.7532 28.6566 37.2066 28.6566C36.6599 28.6566 36.2168 29.0998 36.2168 29.6464C36.2168 30.1931 36.6599 30.6362 37.2066 30.6362C37.7532 30.6362 38.1964 30.1931 38.1964 29.6464Z" fill="#111111"/>
<path id="Vector_45" d="M40.8351 29.6464C40.8351 29.0998 40.3919 28.6566 39.8453 28.6566C39.2986 28.6566 38.8555 29.0998 38.8555 29.6464C38.8555 30.1931 39.2986 30.6362 39.8453 30.6362C40.3919 30.6362 40.8351 30.1931 40.8351 29.6464Z" fill="#111111"/>
<path id="Vector_46" d="M43.4737 29.6464C43.4737 29.0998 43.0306 28.6566 42.4839 28.6566C41.9373 28.6566 41.4941 29.0998 41.4941 29.6464C41.4941 30.1931 41.9373 30.6362 42.4839 30.6362C43.0306 30.6362 43.4737 30.1931 43.4737 29.6464Z" fill="#111111"/>
<path id="Vector_47" d="M46.1144 29.6464C46.1144 29.0998 45.6712 28.6566 45.1246 28.6566C44.5779 28.6566 44.1348 29.0998 44.1348 29.6464C44.1348 30.1931 44.5779 30.6362 45.1246 30.6362C45.6712 30.6362 46.1144 30.1931 46.1144 29.6464Z" fill="#111111"/>
<path id="Vector_48" d="M51.3917 29.6464C51.3917 29.0998 50.9486 28.6566 50.4019 28.6566C49.8553 28.6566 49.4121 29.0998 49.4121 29.6464C49.4121 30.1931 49.8553 30.6362 50.4019 30.6362C50.9486 30.6362 51.3917 30.1931 51.3917 29.6464Z" fill="#111111"/>
<path id="Vector_49" d="M54.0323 29.6464C54.0323 29.0998 53.5892 28.6566 53.0425 28.6566C52.4959 28.6566 52.0527 29.0998 52.0527 29.6464C52.0527 30.1931 52.4959 30.6362 53.0425 30.6362C53.5892 30.6362 54.0323 30.1931 54.0323 29.6464Z" fill="#111111"/>
<path id="Vector_50" d="M56.6691 29.6464C56.6691 29.0998 56.2259 28.6566 55.6793 28.6566C55.1326 28.6566 54.6895 29.0998 54.6895 29.6464C54.6895 30.1931 55.1326 30.6362 55.6793 30.6362C56.2259 30.6362 56.6691 30.1931 56.6691 29.6464Z" fill="#111111"/>
<path id="Vector_51" d="M59.3097 29.6464C59.3097 29.0998 58.8665 28.6566 58.3199 28.6566C57.7732 28.6566 57.3301 29.0998 57.3301 29.6464C57.3301 30.1931 57.7732 30.6362 58.3199 30.6362C58.8665 30.6362 59.3097 30.1931 59.3097 29.6464Z" fill="#111111"/>
<path id="Vector_52" d="M64.5909 29.6464C64.5909 29.0998 64.1478 28.6566 63.6011 28.6566C63.0545 28.6566 62.6113 29.0998 62.6113 29.6464C62.6113 30.1931 63.0545 30.6362 63.6011 30.6362C64.1478 30.6362 64.5909 30.1931 64.5909 29.6464Z" fill="#111111"/>
<path id="Vector_53" d="M67.2296 29.6464C67.2296 29.0998 66.7864 28.6566 66.2398 28.6566C65.6931 28.6566 65.25 29.0998 65.25 29.6464C65.25 30.1931 65.6931 30.6362 66.2398 30.6362C66.7864 30.6362 67.2296 30.1931 67.2296 29.6464Z" fill="#111111"/>
<path id="Vector_54" d="M72.5109 29.6464C72.5109 29.0998 72.0677 28.6566 71.521 28.6566C70.9744 28.6566 70.5312 29.0998 70.5312 29.6464C70.5312 30.1931 70.9744 30.6362 71.521 30.6362C72.0677 30.6362 72.5109 30.1931 72.5109 29.6464Z" fill="#111111"/>
<path id="Vector_55" d="M9.16124 32.286C9.16124 31.7393 8.71809 31.2962 8.17144 31.2962C7.62479 31.2962 7.18164 31.7393 7.18164 32.286C7.18164 32.8326 7.62479 33.2758 8.17144 33.2758C8.71809 33.2758 9.16124 32.8326 9.16124 32.286Z" fill="#111111"/>
<path id="Vector_56" d="M11.8019 32.286C11.8019 31.7393 11.3587 31.2962 10.8121 31.2962C10.2654 31.2962 9.82227 31.7393 9.82227 32.286C9.82227 32.8326 10.2654 33.2758 10.8121 33.2758C11.3587 33.2758 11.8019 32.8326 11.8019 32.286Z" fill="#111111"/>
<path id="Vector_57" d="M14.4405 32.286C14.4405 31.7393 13.9974 31.2962 13.4507 31.2962C12.9041 31.2962 12.4609 31.7393 12.4609 32.286C12.4609 32.8326 12.9041 33.2758 13.4507 33.2758C13.9974 33.2758 14.4405 32.8326 14.4405 32.286Z" fill="#111111"/>
<path id="Vector_58" d="M17.0792 32.286C17.0792 31.7393 16.6361 31.2962 16.0894 31.2962C15.5428 31.2962 15.0996 31.7393 15.0996 32.286C15.0996 32.8326 15.5428 33.2758 16.0894 33.2758C16.6361 33.2758 17.0792 32.8326 17.0792 32.286Z" fill="#111111"/>
<path id="Vector_59" d="M32.9171 32.286C32.9171 31.7393 32.474 31.2962 31.9273 31.2962C31.3807 31.2962 30.9375 31.7393 30.9375 32.286C30.9375 32.8326 31.3807 33.2758 31.9273 33.2758C32.474 33.2758 32.9171 32.8326 32.9171 32.286Z" fill="#111111"/>
<path id="Vector_60" d="M40.8351 32.286C40.8351 31.7393 40.3919 31.2962 39.8453 31.2962C39.2986 31.2962 38.8555 31.7393 38.8555 32.286C38.8555 32.8326 39.2986 33.2758 39.8453 33.2758C40.3919 33.2758 40.8351 32.8326 40.8351 32.286Z" fill="#111111"/>
<path id="Vector_61" d="M51.3917 32.286C51.3917 31.7393 50.9486 31.2962 50.4019 31.2962C49.8553 31.2962 49.4121 31.7393 49.4121 32.286C49.4121 32.8326 49.8553 33.2758 50.4019 33.2758C50.9486 33.2758 51.3917 32.8326 51.3917 32.286Z" fill="#111111"/>
<path id="Vector_62" d="M54.0323 32.286C54.0323 31.7393 53.5892 31.2962 53.0425 31.2962C52.4959 31.2962 52.0527 31.7393 52.0527 32.286C52.0527 32.8326 52.4959 33.2758 53.0425 33.2758C53.5892 33.2758 54.0323 32.8326 54.0323 32.286Z" fill="#111111"/>
<path id="Vector_63" d="M56.6691 32.286C56.6691 31.7393 56.2259 31.2962 55.6793 31.2962C55.1326 31.2962 54.6895 31.7393 54.6895 32.286C54.6895 32.8326 55.1326 33.2758 55.6793 33.2758C56.2259 33.2758 56.6691 32.8326 56.6691 32.286Z" fill="#111111"/>
<path id="Vector_64" d="M72.5109 32.286C72.5109 31.7393 72.0677 31.2962 71.521 31.2962C70.9744 31.2962 70.5312 31.7393 70.5312 32.286C70.5312 32.8326 70.9744 33.2758 71.521 33.2758C72.0677 33.2758 72.5109 32.8326 72.5109 32.286Z" fill="#111111"/>
<path id="Vector_65" d="M9.16124 34.9253C9.16124 34.3787 8.71809 33.9355 8.17144 33.9355C7.62479 33.9355 7.18164 34.3787 7.18164 34.9253C7.18164 35.472 7.62479 35.9151 8.17144 35.9151C8.71809 35.9151 9.16124 35.472 9.16124 34.9253Z" fill="#111111"/>
<path id="Vector_66" d="M11.8019 34.9253C11.8019 34.3787 11.3587 33.9355 10.8121 33.9355C10.2654 33.9355 9.82227 34.3787 9.82227 34.9253C9.82227 35.472 10.2654 35.9151 10.8121 35.9151C11.3587 35.9151 11.8019 35.472 11.8019 34.9253Z" fill="#111111"/>
<path id="Vector_67" d="M17.0792 34.9253C17.0792 34.3787 16.6361 33.9355 16.0894 33.9355C15.5428 33.9355 15.0996 34.3787 15.0996 34.9253C15.0996 35.472 15.5428 35.9151 16.0894 35.9151C16.6361 35.9151 17.0792 35.472 17.0792 34.9253Z" fill="#111111"/>
<path id="Vector_68" d="M19.7198 34.9253C19.7198 34.3787 19.2767 33.9355 18.73 33.9355C18.1834 33.9355 17.7402 34.3787 17.7402 34.9253C17.7402 35.472 18.1834 35.9151 18.73 35.9151C19.2767 35.9151 19.7198 35.472 19.7198 34.9253Z" fill="#111111"/>
<path id="Vector_69" d="M22.3585 34.9253C22.3585 34.3787 21.9154 33.9355 21.3687 33.9355C20.8221 33.9355 20.3789 34.3787 20.3789 34.9253C20.3789 35.472 20.8221 35.9151 21.3687 35.9151C21.9154 35.9151 22.3585 35.472 22.3585 34.9253Z" fill="#111111"/>
<path id="Vector_70" d="M24.9972 34.9253C24.9972 34.3787 24.554 33.9355 24.0074 33.9355C23.4607 33.9355 23.0176 34.3787 23.0176 34.9253C23.0176 35.472 23.4607 35.9151 24.0074 35.9151C24.554 35.9151 24.9972 35.472 24.9972 34.9253Z" fill="#111111"/>
<path id="Vector_71" d="M30.2784 34.9253C30.2784 34.3787 29.8353 33.9355 29.2886 33.9355C28.742 33.9355 28.2988 34.3787 28.2988 34.9253C28.2988 35.472 28.742 35.9151 29.2886 35.9151C29.8353 35.9151 30.2784 35.472 30.2784 34.9253Z" fill="#111111"/>
<path id="Vector_72" d="M32.9171 34.9253C32.9171 34.3787 32.474 33.9355 31.9273 33.9355C31.3807 33.9355 30.9375 34.3787 30.9375 34.9253C30.9375 35.472 31.3807 35.9151 31.9273 35.9151C32.474 35.9151 32.9171 35.472 32.9171 34.9253Z" fill="#111111"/>
<path id="Vector_73" d="M43.4737 34.9253C43.4737 34.3787 43.0306 33.9355 42.4839 33.9355C41.9373 33.9355 41.4941 34.3787 41.4941 34.9253C41.4941 35.472 41.9373 35.9151 42.4839 35.9151C43.0306 35.9151 43.4737 35.472 43.4737 34.9253Z" fill="#111111"/>
<path id="Vector_74" d="M51.3917 34.9253C51.3917 34.3787 50.9486 33.9355 50.4019 33.9355C49.8553 33.9355 49.4121 34.3787 49.4121 34.9253C49.4121 35.472 49.8553 35.9151 50.4019 35.9151C50.9486 35.9151 51.3917 35.472 51.3917 34.9253Z" fill="#111111"/>
<path id="Vector_75" d="M54.0323 34.9253C54.0323 34.3787 53.5892 33.9355 53.0425 33.9355C52.4959 33.9355 52.0527 34.3787 52.0527 34.9253C52.0527 35.472 52.4959 35.9151 53.0425 35.9151C53.5892 35.9151 54.0323 35.472 54.0323 34.9253Z" fill="#111111"/>
<path id="Vector_76" d="M56.6691 34.9253C56.6691 34.3787 56.2259 33.9355 55.6793 33.9355C55.1326 33.9355 54.6895 34.3787 54.6895 34.9253C54.6895 35.472 55.1326 35.9151 55.6793 35.9151C56.2259 35.9151 56.6691 35.472 56.6691 34.9253Z" fill="#111111"/>
<path id="Vector_77" d="M59.3097 34.9253C59.3097 34.3787 58.8665 33.9355 58.3199 33.9355C57.7732 33.9355 57.3301 34.3787 57.3301 34.9253C57.3301 35.472 57.7732 35.9151 58.3199 35.9151C58.8665 35.9151 59.3097 35.472 59.3097 34.9253Z" fill="#111111"/>
<path id="Vector_78" d="M69.8702 34.9253C69.8702 34.3787 69.4271 33.9355 68.8804 33.9355C68.3338 33.9355 67.8906 34.3787 67.8906 34.9253C67.8906 35.472 68.3338 35.9151 68.8804 35.9151C69.4271 35.9151 69.8702 35.472 69.8702 34.9253Z" fill="#111111"/>
<path id="Vector_79" d="M72.5109 34.9253C72.5109 34.3787 72.0677 33.9355 71.521 33.9355C70.9744 33.9355 70.5312 34.3787 70.5312 34.9253C70.5312 35.472 70.9744 35.9151 71.521 35.9151C72.0677 35.9151 72.5109 35.472 72.5109 34.9253Z" fill="#111111"/>
<path id="Vector_80" d="M14.4405 37.5649C14.4405 37.0182 13.9974 36.5751 13.4507 36.5751C12.9041 36.5751 12.4609 37.0182 12.4609 37.5649C12.4609 38.1115 12.9041 38.5547 13.4507 38.5547C13.9974 38.5547 14.4405 38.1115 14.4405 37.5649Z" fill="#111111"/>
<path id="Vector_81" d="M17.0792 37.5649C17.0792 37.0182 16.6361 36.5751 16.0894 36.5751C15.5428 36.5751 15.0996 37.0182 15.0996 37.5649C15.0996 38.1115 15.5428 38.5547 16.0894 38.5547C16.6361 38.5547 17.0792 38.1115 17.0792 37.5649Z" fill="#111111"/>
<path id="Vector_82" d="M19.7198 37.5649C19.7198 37.0182 19.2767 36.5751 18.73 36.5751C18.1834 36.5751 17.7402 37.0182 17.7402 37.5649C17.7402 38.1115 18.1834 38.5547 18.73 38.5547C19.2767 38.5547 19.7198 38.1115 19.7198 37.5649Z" fill="#111111"/>
<path id="Vector_83" d="M22.3585 37.5649C22.3585 37.0182 21.9154 36.5751 21.3687 36.5751C20.8221 36.5751 20.3789 37.0182 20.3789 37.5649C20.3789 38.1115 20.8221 38.5547 21.3687 38.5547C21.9154 38.5547 22.3585 38.1115 22.3585 37.5649Z" fill="#111111"/>
<path id="Vector_84" d="M30.2784 37.5649C30.2784 37.0182 29.8353 36.5751 29.2886 36.5751C28.742 36.5751 28.2988 37.0182 28.2988 37.5649C28.2988 38.1115 28.742 38.5547 29.2886 38.5547C29.8353 38.5547 30.2784 38.1115 30.2784 37.5649Z" fill="#111111"/>
<path id="Vector_85" d="M38.1964 37.5649C38.1964 37.0182 37.7532 36.5751 37.2066 36.5751C36.6599 36.5751 36.2168 37.0182 36.2168 37.5649C36.2168 38.1115 36.6599 38.5547 37.2066 38.5547C37.7532 38.5547 38.1964 38.1115 38.1964 37.5649Z" fill="#111111"/>
<path id="Vector_86" d="M43.4737 37.5649C43.4737 37.0182 43.0306 36.5751 42.4839 36.5751C41.9373 36.5751 41.4941 37.0182 41.4941 37.5649C41.4941 38.1115 41.9373 38.5547 42.4839 38.5547C43.0306 38.5547 43.4737 38.1115 43.4737 37.5649Z" fill="#111111"/>
<path id="Vector_87" d="M48.755 37.5649C48.755 37.0182 48.3118 36.5751 47.7652 36.5751C47.2185 36.5751 46.7754 37.0182 46.7754 37.5649C46.7754 38.1115 47.2185 38.5547 47.7652 38.5547C48.3118 38.5547 48.755 38.1115 48.755 37.5649Z" fill="#111111"/>
<path id="Vector_88" d="M59.3097 37.5649C59.3097 37.0182 58.8665 36.5751 58.3199 36.5751C57.7732 36.5751 57.3301 37.0182 57.3301 37.5649C57.3301 38.1115 57.7732 38.5547 58.3199 38.5547C58.8665 38.5547 59.3097 38.1115 59.3097 37.5649Z" fill="#111111"/>
<path id="Vector_89" d="M61.9523 37.5649C61.9523 37.0182 61.5091 36.5751 60.9625 36.5751C60.4158 36.5751 59.9727 37.0182 59.9727 37.5649C59.9727 38.1115 60.4158 38.5547 60.9625 38.5547C61.5091 38.5547 61.9523 38.1115 61.9523 37.5649Z" fill="#111111"/>
<path id="Vector_90" d="M9.16124 40.2044C9.16124 39.6578 8.71809 39.2146 8.17144 39.2146C7.62479 39.2146 7.18164 39.6578 7.18164 40.2044C7.18164 40.7511 7.62479 41.1942 8.17144 41.1942C8.71809 41.1942 9.16124 40.7511 9.16124 40.2044Z" fill="#111111"/>
<path id="Vector_91" d="M19.7198 40.2044C19.7198 39.6578 19.2767 39.2146 18.73 39.2146C18.1834 39.2146 17.7402 39.6578 17.7402 40.2044C17.7402 40.7511 18.1834 41.1942 18.73 41.1942C19.2767 41.1942 19.7198 40.7511 19.7198 40.2044Z" fill="#111111"/>
<path id="Vector_92" d="M24.9972 40.2044C24.9972 39.6578 24.554 39.2146 24.0074 39.2146C23.4607 39.2146 23.0176 39.6578 23.0176 40.2044C23.0176 40.7511 23.4607 41.1942 24.0074 41.1942C24.554 41.1942 24.9972 40.7511 24.9972 40.2044Z" fill="#111111"/>
<path id="Vector_93" d="M27.6378 40.2044C27.6378 39.6578 27.1947 39.2146 26.648 39.2146C26.1014 39.2146 25.6582 39.6578 25.6582 40.2044C25.6582 40.7511 26.1014 41.1942 26.648 41.1942C27.1947 41.1942 27.6378 40.7511 27.6378 40.2044Z" fill="#111111"/>
<path id="Vector_94" d="M30.2784 40.2044C30.2784 39.6578 29.8353 39.2146 29.2886 39.2146C28.742 39.2146 28.2988 39.6578 28.2988 40.2044C28.2988 40.7511 28.742 41.1942 29.2886 41.1942C29.8353 41.1942 30.2784 40.7511 30.2784 40.2044Z" fill="#111111"/>
<path id="Vector_95" d="M35.5558 40.2044C35.5558 39.6578 35.1126 39.2146 34.566 39.2146C34.0193 39.2146 33.5762 39.6578 33.5762 40.2044C33.5762 40.7511 34.0193 41.1942 34.566 41.1942C35.1126 41.1942 35.5558 40.7511 35.5558 40.2044Z" fill="#111111"/>
<path id="Vector_96" d="M38.1964 40.2044C38.1964 39.6578 37.7532 39.2146 37.2066 39.2146C36.6599 39.2146 36.2168 39.6578 36.2168 40.2044C36.2168 40.7511 36.6599 41.1942 37.2066 41.1942C37.7532 41.1942 38.1964 40.7511 38.1964 40.2044Z" fill="#111111"/>
<path id="Vector_97" d="M40.8351 40.2044C40.8351 39.6578 40.3919 39.2146 39.8453 39.2146C39.2986 39.2146 38.8555 39.6578 38.8555 40.2044C38.8555 40.7511 39.2986 41.1942 39.8453 41.1942C40.3919 41.1942 40.8351 40.7511 40.8351 40.2044Z" fill="#111111"/>
<path id="Vector_98" d="M46.1144 40.2044C46.1144 39.6578 45.6712 39.2146 45.1246 39.2146C44.5779 39.2146 44.1348 39.6578 44.1348 40.2044C44.1348 40.7511 44.5779 41.1942 45.1246 41.1942C45.6712 41.1942 46.1144 40.7511 46.1144 40.2044Z" fill="#111111"/>
<path id="Vector_99" d="M48.755 40.2044C48.755 39.6578 48.3118 39.2146 47.7652 39.2146C47.2185 39.2146 46.7754 39.6578 46.7754 40.2044C46.7754 40.7511 47.2185 41.1942 47.7652 41.1942C48.3118 41.1942 48.755 40.7511 48.755 40.2044Z" fill="#111111"/>
<path id="Vector_100" d="M51.3917 40.2044C51.3917 39.6578 50.9486 39.2146 50.4019 39.2146C49.8553 39.2146 49.4121 39.6578 49.4121 40.2044C49.4121 40.7511 49.8553 41.1942 50.4019 41.1942C50.9486 41.1942 51.3917 40.7511 51.3917 40.2044Z" fill="#111111"/>
<path id="Vector_101" d="M54.0323 40.2044C54.0323 39.6578 53.5892 39.2146 53.0425 39.2146C52.4959 39.2146 52.0527 39.6578 52.0527 40.2044C52.0527 40.7511 52.4959 41.1942 53.0425 41.1942C53.5892 41.1942 54.0323 40.7511 54.0323 40.2044Z" fill="#111111"/>
<path id="Vector_102" d="M56.6691 40.2044C56.6691 39.6578 56.2259 39.2146 55.6793 39.2146C55.1326 39.2146 54.6895 39.6578 54.6895 40.2044C54.6895 40.7511 55.1326 41.1942 55.6793 41.1942C56.2259 41.1942 56.6691 40.7511 56.6691 40.2044Z" fill="#111111"/>
<path id="Vector_103" d="M59.3097 40.2044C59.3097 39.6578 58.8665 39.2146 58.3199 39.2146C57.7732 39.2146 57.3301 39.6578 57.3301 40.2044C57.3301 40.7511 57.7732 41.1942 58.3199 41.1942C58.8665 41.1942 59.3097 40.7511 59.3097 40.2044Z" fill="#111111"/>
<path id="Vector_104" d="M64.5909 40.2044C64.5909 39.6578 64.1478 39.2146 63.6011 39.2146C63.0545 39.2146 62.6113 39.6578 62.6113 40.2044C62.6113 40.7511 63.0545 41.1942 63.6011 41.1942C64.1478 41.1942 64.5909 40.7511 64.5909 40.2044Z" fill="#111111"/>
<path id="Vector_105" d="M69.8702 40.2044C69.8702 39.6578 69.4271 39.2146 68.8804 39.2146C68.3338 39.2146 67.8906 39.6578 67.8906 40.2044C67.8906 40.7511 68.3338 41.1942 68.8804 41.1942C69.4271 41.1942 69.8702 40.7511 69.8702 40.2044Z" fill="#111111"/>
<path id="Vector_106" d="M72.5109 40.2044C72.5109 39.6578 72.0677 39.2146 71.521 39.2146C70.9744 39.2146 70.5312 39.6578 70.5312 40.2044C70.5312 40.7511 70.9744 41.1942 71.521 41.1942C72.0677 41.1942 72.5109 40.7511 72.5109 40.2044Z" fill="#111111"/>
<path id="Vector_107" d="M11.8019 42.8436C11.8019 42.297 11.3587 41.8538 10.8121 41.8538C10.2654 41.8538 9.82227 42.297 9.82227 42.8436C9.82227 43.3903 10.2654 43.8334 10.8121 43.8334C11.3587 43.8334 11.8019 43.3903 11.8019 42.8436Z" fill="#111111"/>
<path id="Vector_108" d="M17.0792 42.8436C17.0792 42.297 16.6361 41.8538 16.0894 41.8538C15.5428 41.8538 15.0996 42.297 15.0996 42.8436C15.0996 43.3903 15.5428 43.8334 16.0894 43.8334C16.6361 43.8334 17.0792 43.3903 17.0792 42.8436Z" fill="#111111"/>
<path id="Vector_109" d="M19.7198 42.8436C19.7198 42.297 19.2767 41.8538 18.73 41.8538C18.1834 41.8538 17.7402 42.297 17.7402 42.8436C17.7402 43.3903 18.1834 43.8334 18.73 43.8334C19.2767 43.8334 19.7198 43.3903 19.7198 42.8436Z" fill="#111111"/>
<path id="Vector_110" d="M22.3585 42.8436C22.3585 42.297 21.9154 41.8538 21.3687 41.8538C20.8221 41.8538 20.3789 42.297 20.3789 42.8436C20.3789 43.3903 20.8221 43.8334 21.3687 43.8334C21.9154 43.8334 22.3585 43.3903 22.3585 42.8436Z" fill="#111111"/>
<path id="Vector_111" d="M32.9171 42.8436C32.9171 42.297 32.474 41.8538 31.9273 41.8538C31.3807 41.8538 30.9375 42.297 30.9375 42.8436C30.9375 43.3903 31.3807 43.8334 31.9273 43.8334C32.474 43.8334 32.9171 43.3903 32.9171 42.8436Z" fill="#111111"/>
<path id="Vector_112" d="M35.5558 42.8436C35.5558 42.297 35.1126 41.8538 34.566 41.8538C34.0193 41.8538 33.5762 42.297 33.5762 42.8436C33.5762 43.3903 34.0193 43.8334 34.566 43.8334C35.1126 43.8334 35.5558 43.3903 35.5558 42.8436Z" fill="#111111"/>
<path id="Vector_113" d="M38.1964 42.8436C38.1964 42.297 37.7532 41.8538 37.2066 41.8538C36.6599 41.8538 36.2168 42.297 36.2168 42.8436C36.2168 43.3903 36.6599 43.8334 37.2066 43.8334C37.7532 43.8334 38.1964 43.3903 38.1964 42.8436Z" fill="#111111"/>
<path id="Vector_114" d="M43.4737 42.8436C43.4737 42.297 43.0306 41.8538 42.4839 41.8538C41.9373 41.8538 41.4941 42.297 41.4941 42.8436C41.4941 43.3903 41.9373 43.8334 42.4839 43.8334C43.0306 43.8334 43.4737 43.3903 43.4737 42.8436Z" fill="#111111"/>
<path id="Vector_115" d="M54.0323 42.8436C54.0323 42.297 53.5892 41.8538 53.0425 41.8538C52.4959 41.8538 52.0527 42.297 52.0527 42.8436C52.0527 43.3903 52.4959 43.8334 53.0425 43.8334C53.5892 43.8334 54.0323 43.3903 54.0323 42.8436Z" fill="#111111"/>
<path id="Vector_116" d="M56.6691 42.8436C56.6691 42.297 56.2259 41.8538 55.6793 41.8538C55.1326 41.8538 54.6895 42.297 54.6895 42.8436C54.6895 43.3903 55.1326 43.8334 55.6793 43.8334C56.2259 43.8334 56.6691 43.3903 56.6691 42.8436Z" fill="#111111"/>
<path id="Vector_117" d="M59.3097 42.8436C59.3097 42.297 58.8665 41.8538 58.3199 41.8538C57.7732 41.8538 57.3301 42.297 57.3301 42.8436C57.3301 43.3903 57.7732 43.8334 58.3199 43.8334C58.8665 43.8334 59.3097 43.3903 59.3097 42.8436Z" fill="#111111"/>
<path id="Vector_118" d="M64.5909 42.8436C64.5909 42.297 64.1478 41.8538 63.6011 41.8538C63.0545 41.8538 62.6113 42.297 62.6113 42.8436C62.6113 43.3903 63.0545 43.8334 63.6011 43.8334C64.1478 43.8334 64.5909 43.3903 64.5909 42.8436Z" fill="#111111"/>
<path id="Vector_119" d="M67.2296 42.8436C67.2296 42.297 66.7864 41.8538 66.2398 41.8538C65.6931 41.8538 65.25 42.297 65.25 42.8436C65.25 43.3903 65.6931 43.8334 66.2398 43.8334C66.7864 43.8334 67.2296 43.3903 67.2296 42.8436Z" fill="#111111"/>
<path id="Vector_120" d="M72.5109 42.8436C72.5109 42.297 72.0677 41.8538 71.521 41.8538C70.9744 41.8538 70.5312 42.297 70.5312 42.8436C70.5312 43.3903 70.9744 43.8334 71.521 43.8334C72.0677 43.8334 72.5109 43.3903 72.5109 42.8436Z" fill="#111111"/>
<path id="Vector_121" d="M9.16124 45.4834C9.16124 44.9367 8.71809 44.4936 8.17144 44.4936C7.62479 44.4936 7.18164 44.9367 7.18164 45.4834C7.18164 46.03 7.62479 46.4732 8.17144 46.4732C8.71809 46.4732 9.16124 46.03 9.16124 45.4834Z" fill="#111111"/>
<path id="Vector_122" d="M17.0792 45.4834C17.0792 44.9367 16.6361 44.4936 16.0894 44.4936C15.5428 44.4936 15.0996 44.9367 15.0996 45.4834C15.0996 46.03 15.5428 46.4732 16.0894 46.4732C16.6361 46.4732 17.0792 46.03 17.0792 45.4834Z" fill="#111111"/>
<path id="Vector_123" d="M19.7198 45.4834C19.7198 44.9367 19.2767 44.4936 18.73 44.4936C18.1834 44.4936 17.7402 44.9367 17.7402 45.4834C17.7402 46.03 18.1834 46.4732 18.73 46.4732C19.2767 46.4732 19.7198 46.03 19.7198 45.4834Z" fill="#111111"/>
<path id="Vector_124" d="M22.3585 45.4834C22.3585 44.9367 21.9154 44.4936 21.3687 44.4936C20.8221 44.4936 20.3789 44.9367 20.3789 45.4834C20.3789 46.03 20.8221 46.4732 21.3687 46.4732C21.9154 46.4732 22.3585 46.03 22.3585 45.4834Z" fill="#111111"/>
<path id="Vector_125" d="M24.9972 45.4834C24.9972 44.9367 24.554 44.4936 24.0074 44.4936C23.4607 44.4936 23.0176 44.9367 23.0176 45.4834C23.0176 46.03 23.4607 46.4732 24.0074 46.4732C24.554 46.4732 24.9972 46.03 24.9972 45.4834Z" fill="#111111"/>
<path id="Vector_126" d="M27.6378 45.4834C27.6378 44.9367 27.1947 44.4936 26.648 44.4936C26.1014 44.4936 25.6582 44.9367 25.6582 45.4834C25.6582 46.03 26.1014 46.4732 26.648 46.4732C27.1947 46.4732 27.6378 46.03 27.6378 45.4834Z" fill="#111111"/>
<path id="Vector_127" d="M35.5558 45.4834C35.5558 44.9367 35.1126 44.4936 34.566 44.4936C34.0193 44.4936 33.5762 44.9367 33.5762 45.4834C33.5762 46.03 34.0193 46.4732 34.566 46.4732C35.1126 46.4732 35.5558 46.03 35.5558 45.4834Z" fill="#111111"/>
<path id="Vector_128" d="M38.1964 45.4834C38.1964 44.9367 37.7532 44.4936 37.2066 44.4936C36.6599 44.4936 36.2168 44.9367 36.2168 45.4834C36.2168 46.03 36.6599 46.4732 37.2066 46.4732C37.7532 46.4732 38.1964 46.03 38.1964 45.4834Z" fill="#111111"/>
<path id="Vector_129" d="M43.4737 45.4834C43.4737 44.9367 43.0306 44.4936 42.4839 44.4936C41.9373 44.4936 41.4941 44.9367 41.4941 45.4834C41.4941 46.03 41.9373 46.4732 42.4839 46.4732C43.0306 46.4732 43.4737 46.03 43.4737 45.4834Z" fill="#111111"/>
<path id="Vector_130" d="M46.1144 45.4834C46.1144 44.9367 45.6712 44.4936 45.1246 44.4936C44.5779 44.4936 44.1348 44.9367 44.1348 45.4834C44.1348 46.03 44.5779 46.4732 45.1246 46.4732C45.6712 46.4732 46.1144 46.03 46.1144 45.4834Z" fill="#111111"/>
<path id="Vector_131" d="M51.3917 45.4834C51.3917 44.9367 50.9486 44.4936 50.4019 44.4936C49.8553 44.4936 49.4121 44.9367 49.4121 45.4834C49.4121 46.03 49.8553 46.4732 50.4019 46.4732C50.9486 46.4732 51.3917 46.03 51.3917 45.4834Z" fill="#111111"/>
<path id="Vector_132" d="M56.6691 45.4834C56.6691 44.9367 56.2259 44.4936 55.6793 44.4936C55.1326 44.4936 54.6895 44.9367 54.6895 45.4834C54.6895 46.03 55.1326 46.4732 55.6793 46.4732C56.2259 46.4732 56.6691 46.03 56.6691 45.4834Z" fill="#111111"/>
<path id="Vector_133" d="M59.3097 45.4834C59.3097 44.9367 58.8665 44.4936 58.3199 44.4936C57.7732 44.4936 57.3301 44.9367 57.3301 45.4834C57.3301 46.03 57.7732 46.4732 58.3199 46.4732C58.8665 46.4732 59.3097 46.03 59.3097 45.4834Z" fill="#111111"/>
<path id="Vector_134" d="M61.9523 45.4834C61.9523 44.9367 61.5091 44.4936 60.9625 44.4936C60.4158 44.4936 59.9727 44.9367 59.9727 45.4834C59.9727 46.03 60.4158 46.4732 60.9625 46.4732C61.5091 46.4732 61.9523 46.03 61.9523 45.4834Z" fill="#111111"/>
<path id="Vector_135" d="M67.2296 45.4834C67.2296 44.9367 66.7864 44.4936 66.2398 44.4936C65.6931 44.4936 65.25 44.9367 65.25 45.4834C65.25 46.03 65.6931 46.4732 66.2398 46.4732C66.7864 46.4732 67.2296 46.03 67.2296 45.4834Z" fill="#111111"/>
<path id="Vector_136" d="M72.5109 45.4834C72.5109 44.9367 72.0677 44.4936 71.521 44.4936C70.9744 44.4936 70.5312 44.9367 70.5312 45.4834C70.5312 46.03 70.9744 46.4732 71.521 46.4732C72.0677 46.4732 72.5109 46.03 72.5109 45.4834Z" fill="#111111"/>
<path id="Vector_137" d="M11.8019 48.1225C11.8019 47.5759 11.3587 47.1327 10.8121 47.1327C10.2654 47.1327 9.82227 47.5759 9.82227 48.1225C9.82227 48.6692 10.2654 49.1123 10.8121 49.1123C11.3587 49.1123 11.8019 48.6692 11.8019 48.1225Z" fill="#111111"/>
<path id="Vector_138" d="M17.0792 48.1225C17.0792 47.5759 16.6361 47.1327 16.0894 47.1327C15.5428 47.1327 15.0996 47.5759 15.0996 48.1225C15.0996 48.6692 15.5428 49.1123 16.0894 49.1123C16.6361 49.1123 17.0792 48.6692 17.0792 48.1225Z" fill="#111111"/>
<path id="Vector_139" d="M22.3585 48.1225C22.3585 47.5759 21.9154 47.1327 21.3687 47.1327C20.8221 47.1327 20.3789 47.5759 20.3789 48.1225C20.3789 48.6692 20.8221 49.1123 21.3687 49.1123C21.9154 49.1123 22.3585 48.6692 22.3585 48.1225Z" fill="#111111"/>
<path id="Vector_140" d="M27.6378 48.1225C27.6378 47.5759 27.1947 47.1327 26.648 47.1327C26.1014 47.1327 25.6582 47.5759 25.6582 48.1225C25.6582 48.6692 26.1014 49.1123 26.648 49.1123C27.1947 49.1123 27.6378 48.6692 27.6378 48.1225Z" fill="#111111"/>
<path id="Vector_141" d="M30.2784 48.1225C30.2784 47.5759 29.8353 47.1327 29.2886 47.1327C28.742 47.1327 28.2988 47.5759 28.2988 48.1225C28.2988 48.6692 28.742 49.1123 29.2886 49.1123C29.8353 49.1123 30.2784 48.6692 30.2784 48.1225Z" fill="#111111"/>
<path id="Vector_142" d="M40.8351 48.1225C40.8351 47.5759 40.3919 47.1327 39.8453 47.1327C39.2986 47.1327 38.8555 47.5759 38.8555 48.1225C38.8555 48.6692 39.2986 49.1123 39.8453 49.1123C40.3919 49.1123 40.8351 48.6692 40.8351 48.1225Z" fill="#111111"/>
<path id="Vector_143" d="M46.1144 48.1225C46.1144 47.5759 45.6712 47.1327 45.1246 47.1327C44.5779 47.1327 44.1348 47.5759 44.1348 48.1225C44.1348 48.6692 44.5779 49.1123 45.1246 49.1123C45.6712 49.1123 46.1144 48.6692 46.1144 48.1225Z" fill="#111111"/>
<path id="Vector_144" d="M51.3917 48.1225C51.3917 47.5759 50.9486 47.1327 50.4019 47.1327C49.8553 47.1327 49.4121 47.5759 49.4121 48.1225C49.4121 48.6692 49.8553 49.1123 50.4019 49.1123C50.9486 49.1123 51.3917 48.6692 51.3917 48.1225Z" fill="#111111"/>
<path id="Vector_145" d="M61.9523 48.1225C61.9523 47.5759 61.5091 47.1327 60.9625 47.1327C60.4158 47.1327 59.9727 47.5759 59.9727 48.1225C59.9727 48.6692 60.4158 49.1123 60.9625 49.1123C61.5091 49.1123 61.9523 48.6692 61.9523 48.1225Z" fill="#111111"/>
<path id="Vector_146" d="M64.5909 48.1225C64.5909 47.5759 64.1478 47.1327 63.6011 47.1327C63.0545 47.1327 62.6113 47.5759 62.6113 48.1225C62.6113 48.6692 63.0545 49.1123 63.6011 49.1123C64.1478 49.1123 64.5909 48.6692 64.5909 48.1225Z" fill="#111111"/>
<path id="Vector_147" d="M69.8702 48.1225C69.8702 47.5759 69.4271 47.1327 68.8804 47.1327C68.3338 47.1327 67.8906 47.5759 67.8906 48.1225C67.8906 48.6692 68.3338 49.1123 68.8804 49.1123C69.4271 49.1123 69.8702 48.6692 69.8702 48.1225Z" fill="#111111"/>
<path id="Vector_148" d="M9.16124 50.7621C9.16124 50.2154 8.71809 49.7723 8.17144 49.7723C7.62479 49.7723 7.18164 50.2154 7.18164 50.7621C7.18164 51.3087 7.62479 51.7519 8.17144 51.7519C8.71809 51.7519 9.16124 51.3087 9.16124 50.7621Z" fill="#111111"/>
<path id="Vector_149" d="M11.8019 50.7621C11.8019 50.2154 11.3587 49.7723 10.8121 49.7723C10.2654 49.7723 9.82227 50.2154 9.82227 50.7621C9.82227 51.3087 10.2654 51.7519 10.8121 51.7519C11.3587 51.7519 11.8019 51.3087 11.8019 50.7621Z" fill="#111111"/>
<path id="Vector_150" d="M19.7198 50.7621C19.7198 50.2154 19.2767 49.7723 18.73 49.7723C18.1834 49.7723 17.7402 50.2154 17.7402 50.7621C17.7402 51.3087 18.1834 51.7519 18.73 51.7519C19.2767 51.7519 19.7198 51.3087 19.7198 50.7621Z" fill="#111111"/>
<path id="Vector_151" d="M24.9972 50.7621C24.9972 50.2154 24.554 49.7723 24.0074 49.7723C23.4607 49.7723 23.0176 50.2154 23.0176 50.7621C23.0176 51.3087 23.4607 51.7519 24.0074 51.7519C24.554 51.7519 24.9972 51.3087 24.9972 50.7621Z" fill="#111111"/>
<path id="Vector_152" d="M27.6378 50.7621C27.6378 50.2154 27.1947 49.7723 26.648 49.7723C26.1014 49.7723 25.6582 50.2154 25.6582 50.7621C25.6582 51.3087 26.1014 51.7519 26.648 51.7519C27.1947 51.7519 27.6378 51.3087 27.6378 50.7621Z" fill="#111111"/>
<path id="Vector_153" d="M32.9171 50.7621C32.9171 50.2154 32.474 49.7723 31.9273 49.7723C31.3807 49.7723 30.9375 50.2154 30.9375 50.7621C30.9375 51.3087 31.3807 51.7519 31.9273 51.7519C32.474 51.7519 32.9171 51.3087 32.9171 50.7621Z" fill="#111111"/>
<path id="Vector_154" d="M40.8351 50.7621C40.8351 50.2154 40.3919 49.7723 39.8453 49.7723C39.2986 49.7723 38.8555 50.2154 38.8555 50.7621C38.8555 51.3087 39.2986 51.7519 39.8453 51.7519C40.3919 51.7519 40.8351 51.3087 40.8351 50.7621Z" fill="#111111"/>
<path id="Vector_155" d="M43.4737 50.7621C43.4737 50.2154 43.0306 49.7723 42.4839 49.7723C41.9373 49.7723 41.4941 50.2154 41.4941 50.7621C41.4941 51.3087 41.9373 51.7519 42.4839 51.7519C43.0306 51.7519 43.4737 51.3087 43.4737 50.7621Z" fill="#111111"/>
<path id="Vector_156" d="M51.3917 50.7621C51.3917 50.2154 50.9486 49.7723 50.4019 49.7723C49.8553 49.7723 49.4121 50.2154 49.4121 50.7621C49.4121 51.3087 49.8553 51.7519 50.4019 51.7519C50.9486 51.7519 51.3917 51.3087 51.3917 50.7621Z" fill="#111111"/>
<path id="Vector_157" d="M54.0323 50.7621C54.0323 50.2154 53.5892 49.7723 53.0425 49.7723C52.4959 49.7723 52.0527 50.2154 52.0527 50.7621C52.0527 51.3087 52.4959 51.7519 53.0425 51.7519C53.5892 51.7519 54.0323 51.3087 54.0323 50.7621Z" fill="#111111"/>
<path id="Vector_158" d="M56.6691 50.7621C56.6691 50.2154 56.2259 49.7723 55.6793 49.7723C55.1326 49.7723 54.6895 50.2154 54.6895 50.7621C54.6895 51.3087 55.1326 51.7519 55.6793 51.7519C56.2259 51.7519 56.6691 51.3087 56.6691 50.7621Z" fill="#111111"/>
<path id="Vector_159" d="M59.3097 50.7621C59.3097 50.2154 58.8665 49.7723 58.3199 49.7723C57.7732 49.7723 57.3301 50.2154 57.3301 50.7621C57.3301 51.3087 57.7732 51.7519 58.3199 51.7519C58.8665 51.7519 59.3097 51.3087 59.3097 50.7621Z" fill="#111111"/>
<path id="Vector_160" d="M61.9523 50.7621C61.9523 50.2154 61.5091 49.7723 60.9625 49.7723C60.4158 49.7723 59.9727 50.2154 59.9727 50.7621C59.9727 51.3087 60.4158 51.7519 60.9625 51.7519C61.5091 51.7519 61.9523 51.3087 61.9523 50.7621Z" fill="#111111"/>
<path id="Vector_161" d="M64.5909 50.7621C64.5909 50.2154 64.1478 49.7723 63.6011 49.7723C63.0545 49.7723 62.6113 50.2154 62.6113 50.7621C62.6113 51.3087 63.0545 51.7519 63.6011 51.7519C64.1478 51.7519 64.5909 51.3087 64.5909 50.7621Z" fill="#111111"/>
<path id="Vector_162" d="M67.2296 50.7621C67.2296 50.2154 66.7864 49.7723 66.2398 49.7723C65.6931 49.7723 65.25 50.2154 65.25 50.7621C65.25 51.3087 65.6931 51.7519 66.2398 51.7519C66.7864 51.7519 67.2296 51.3087 67.2296 50.7621Z" fill="#111111"/>
<path id="Vector_163" d="M30.2784 53.4018C30.2784 52.8552 29.8353 52.412 29.2886 52.412C28.742 52.412 28.2988 52.8552 28.2988 53.4018C28.2988 53.9485 28.742 54.3916 29.2886 54.3916C29.8353 54.3916 30.2784 53.9485 30.2784 53.4018Z" fill="#111111"/>
<path id="Vector_164" d="M32.9171 53.4018C32.9171 52.8552 32.474 52.412 31.9273 52.412C31.3807 52.412 30.9375 52.8552 30.9375 53.4018C30.9375 53.9485 31.3807 54.3916 31.9273 54.3916C32.474 54.3916 32.9171 53.9485 32.9171 53.4018Z" fill="#111111"/>
<path id="Vector_165" d="M43.4737 53.4018C43.4737 52.8552 43.0306 52.412 42.4839 52.412C41.9373 52.412 41.4941 52.8552 41.4941 53.4018C41.4941 53.9485 41.9373 54.3916 42.4839 54.3916C43.0306 54.3916 43.4737 53.9485 43.4737 53.4018Z" fill="#111111"/>
<path id="Vector_166" d="M48.755 53.4018C48.755 52.8552 48.3118 52.412 47.7652 52.412C47.2185 52.412 46.7754 52.8552 46.7754 53.4018C46.7754 53.9485 47.2185 54.3916 47.7652 54.3916C48.3118 54.3916 48.755 53.9485 48.755 53.4018Z" fill="#111111"/>
<path id="Vector_167" d="M51.3917 53.4018C51.3917 52.8552 50.9486 52.412 50.4019 52.412C49.8553 52.412 49.4121 52.8552 49.4121 53.4018C49.4121 53.9485 49.8553 54.3916 50.4019 54.3916C50.9486 54.3916 51.3917 53.9485 51.3917 53.4018Z" fill="#111111"/>
<path id="Vector_168" d="M61.9523 53.4018C61.9523 52.8552 61.5091 52.412 60.9625 52.412C60.4158 52.412 59.9727 52.8552 59.9727 53.4018C59.9727 53.9485 60.4158 54.3916 60.9625 54.3916C61.5091 54.3916 61.9523 53.9485 61.9523 53.4018Z" fill="#111111"/>
<path id="Vector_169" d="M64.5909 53.4018C64.5909 52.8552 64.1478 52.412 63.6011 52.412C63.0545 52.412 62.6113 52.8552 62.6113 53.4018C62.6113 53.9485 63.0545 54.3916 63.6011 54.3916C64.1478 54.3916 64.5909 53.9485 64.5909 53.4018Z" fill="#111111"/>
<path id="Vector_170" d="M67.2296 53.4018C67.2296 52.8552 66.7864 52.412 66.2398 52.412C65.6931 52.412 65.25 52.8552 65.25 53.4018C65.25 53.9485 65.6931 54.3916 66.2398 54.3916C66.7864 54.3916 67.2296 53.9485 67.2296 53.4018Z" fill="#111111"/>
<path id="Vector_171" d="M72.5109 53.4018C72.5109 52.8552 72.0677 52.412 71.521 52.412C70.9744 52.412 70.5312 52.8552 70.5312 53.4018C70.5312 53.9485 70.9744 54.3916 71.521 54.3916C72.0677 54.3916 72.5109 53.9485 72.5109 53.4018Z" fill="#111111"/>
<path id="Vector_172" d="M30.2784 56.0412C30.2784 55.4946 29.8353 55.0514 29.2886 55.0514C28.742 55.0514 28.2988 55.4946 28.2988 56.0412C28.2988 56.5879 28.742 57.031 29.2886 57.031C29.8353 57.031 30.2784 56.5879 30.2784 56.0412Z" fill="#111111"/>
<path id="Vector_173" d="M38.1964 56.0412C38.1964 55.4946 37.7532 55.0514 37.2066 55.0514C36.6599 55.0514 36.2168 55.4946 36.2168 56.0412C36.2168 56.5879 36.6599 57.031 37.2066 57.031C37.7532 57.031 38.1964 56.5879 38.1964 56.0412Z" fill="#111111"/>
<path id="Vector_174" d="M43.4737 56.0412C43.4737 55.4946 43.0306 55.0514 42.4839 55.0514C41.9373 55.0514 41.4941 55.4946 41.4941 56.0412C41.4941 56.5879 41.9373 57.031 42.4839 57.031C43.0306 57.031 43.4737 56.5879 43.4737 56.0412Z" fill="#111111"/>
<path id="Vector_175" d="M48.755 56.0412C48.755 55.4946 48.3118 55.0514 47.7652 55.0514C47.2185 55.0514 46.7754 55.4946 46.7754 56.0412C46.7754 56.5879 47.2185 57.031 47.7652 57.031C48.3118 57.031 48.755 56.5879 48.755 56.0412Z" fill="#111111"/>
<path id="Vector_176" d="M51.3917 56.0412C51.3917 55.4946 50.9486 55.0514 50.4019 55.0514C49.8553 55.0514 49.4121 55.4946 49.4121 56.0412C49.4121 56.5879 49.8553 57.031 50.4019 57.031C50.9486 57.031 51.3917 56.5879 51.3917 56.0412Z" fill="#111111"/>
<path id="Vector_177" d="M56.6691 56.0412C56.6691 55.4946 56.2259 55.0514 55.6793 55.0514C55.1326 55.0514 54.6895 55.4946 54.6895 56.0412C54.6895 56.5879 55.1326 57.031 55.6793 57.031C56.2259 57.031 56.6691 56.5879 56.6691 56.0412Z" fill="#111111"/>
<path id="Vector_178" d="M61.9523 56.0412C61.9523 55.4946 61.5091 55.0514 60.9625 55.0514C60.4158 55.0514 59.9727 55.4946 59.9727 56.0412C59.9727 56.5879 60.4158 57.031 60.9625 57.031C61.5091 57.031 61.9523 56.5879 61.9523 56.0412Z" fill="#111111"/>
<path id="Vector_179" d="M69.8702 56.0412C69.8702 55.4946 69.4271 55.0514 68.8804 55.0514C68.3338 55.0514 67.8906 55.4946 67.8906 56.0412C67.8906 56.5879 68.3338 57.031 68.8804 57.031C69.4271 57.031 69.8702 56.5879 69.8702 56.0412Z" fill="#111111"/>
<path id="Vector_180" d="M72.5109 56.0412C72.5109 55.4946 72.0677 55.0514 71.521 55.0514C70.9744 55.0514 70.5312 55.4946 70.5312 56.0412C70.5312 56.5879 70.9744 57.031 71.521 57.031C72.0677 57.031 72.5109 56.5879 72.5109 56.0412Z" fill="#111111"/>
<path id="Vector_181" d="M30.2784 58.6808C30.2784 58.1341 29.8353 57.691 29.2886 57.691C28.742 57.691 28.2988 58.1341 28.2988 58.6808C28.2988 59.2274 28.742 59.6706 29.2886 59.6706C29.8353 59.6706 30.2784 59.2274 30.2784 58.6808Z" fill="#111111"/>
<path id="Vector_182" d="M35.5558 58.6808C35.5558 58.1341 35.1126 57.691 34.566 57.691C34.0193 57.691 33.5762 58.1341 33.5762 58.6808C33.5762 59.2274 34.0193 59.6706 34.566 59.6706C35.1126 59.6706 35.5558 59.2274 35.5558 58.6808Z" fill="#111111"/>
<path id="Vector_183" d="M40.8351 58.6808C40.8351 58.1341 40.3919 57.691 39.8453 57.691C39.2986 57.691 38.8555 58.1341 38.8555 58.6808C38.8555 59.2274 39.2986 59.6706 39.8453 59.6706C40.3919 59.6706 40.8351 59.2274 40.8351 58.6808Z" fill="#111111"/>
<path id="Vector_184" d="M43.4737 58.6808C43.4737 58.1341 43.0306 57.691 42.4839 57.691C41.9373 57.691 41.4941 58.1341 41.4941 58.6808C41.4941 59.2274 41.9373 59.6706 42.4839 59.6706C43.0306 59.6706 43.4737 59.2274 43.4737 58.6808Z" fill="#111111"/>
<path id="Vector_185" d="M46.1144 58.6808C46.1144 58.1341 45.6712 57.691 45.1246 57.691C44.5779 57.691 44.1348 58.1341 44.1348 58.6808C44.1348 59.2274 44.5779 59.6706 45.1246 59.6706C45.6712 59.6706 46.1144 59.2274 46.1144 58.6808Z" fill="#111111"/>
<path id="Vector_186" d="M51.3917 58.6808C51.3917 58.1341 50.9486 57.691 50.4019 57.691C49.8553 57.691 49.4121 58.1341 49.4121 58.6808C49.4121 59.2274 49.8553 59.6706 50.4019 59.6706C50.9486 59.6706 51.3917 59.2274 51.3917 58.6808Z" fill="#111111"/>
<path id="Vector_187" d="M61.9523 58.6808C61.9523 58.1341 61.5091 57.691 60.9625 57.691C60.4158 57.691 59.9727 58.1341 59.9727 58.6808C59.9727 59.2274 60.4158 59.6706 60.9625 59.6706C61.5091 59.6706 61.9523 59.2274 61.9523 58.6808Z" fill="#111111"/>
<path id="Vector_188" d="M64.5909 58.6808C64.5909 58.1341 64.1478 57.691 63.6011 57.691C63.0545 57.691 62.6113 58.1341 62.6113 58.6808C62.6113 59.2274 63.0545 59.6706 63.6011 59.6706C64.1478 59.6706 64.5909 59.2274 64.5909 58.6808Z" fill="#111111"/>
<path id="Vector_189" d="M67.2296 58.6808C67.2296 58.1341 66.7864 57.691 66.2398 57.691C65.6931 57.691 65.25 58.1341 65.25 58.6808C65.25 59.2274 65.6931 59.6706 66.2398 59.6706C66.7864 59.6706 67.2296 59.2274 67.2296 58.6808Z" fill="#111111"/>
<path id="Vector_190" d="M69.8702 58.6808C69.8702 58.1341 69.4271 57.691 68.8804 57.691C68.3338 57.691 67.8906 58.1341 67.8906 58.6808C67.8906 59.2274 68.3338 59.6706 68.8804 59.6706C69.4271 59.6706 69.8702 59.2274 69.8702 58.6808Z" fill="#111111"/>
<path id="Vector_191" d="M35.5558 61.3203C35.5558 60.7737 35.1126 60.3305 34.566 60.3305C34.0193 60.3305 33.5762 60.7737 33.5762 61.3203C33.5762 61.867 34.0193 62.3101 34.566 62.3101C35.1126 62.3101 35.5558 61.867 35.5558 61.3203Z" fill="#111111"/>
<path id="Vector_192" d="M40.8351 61.3203C40.8351 60.7737 40.3919 60.3305 39.8453 60.3305C39.2986 60.3305 38.8555 60.7737 38.8555 61.3203C38.8555 61.867 39.2986 62.3101 39.8453 62.3101C40.3919 62.3101 40.8351 61.867 40.8351 61.3203Z" fill="#111111"/>
<path id="Vector_193" d="M43.4737 61.3203C43.4737 60.7737 43.0306 60.3305 42.4839 60.3305C41.9373 60.3305 41.4941 60.7737 41.4941 61.3203C41.4941 61.867 41.9373 62.3101 42.4839 62.3101C43.0306 62.3101 43.4737 61.867 43.4737 61.3203Z" fill="#111111"/>
<path id="Vector_194" d="M51.3917 61.3203C51.3917 60.7737 50.9486 60.3305 50.4019 60.3305C49.8553 60.3305 49.4121 60.7737 49.4121 61.3203C49.4121 61.867 49.8553 62.3101 50.4019 62.3101C50.9486 62.3101 51.3917 61.867 51.3917 61.3203Z" fill="#111111"/>
<path id="Vector_195" d="M54.0323 61.3203C54.0323 60.7737 53.5892 60.3305 53.0425 60.3305C52.4959 60.3305 52.0527 60.7737 52.0527 61.3203C52.0527 61.867 52.4959 62.3101 53.0425 62.3101C53.5892 62.3101 54.0323 61.867 54.0323 61.3203Z" fill="#111111"/>
<path id="Vector_196" d="M56.6691 61.3203C56.6691 60.7737 56.2259 60.3305 55.6793 60.3305C55.1326 60.3305 54.6895 60.7737 54.6895 61.3203C54.6895 61.867 55.1326 62.3101 55.6793 62.3101C56.2259 62.3101 56.6691 61.867 56.6691 61.3203Z" fill="#111111"/>
<path id="Vector_197" d="M59.3097 61.3203C59.3097 60.7737 58.8665 60.3305 58.3199 60.3305C57.7732 60.3305 57.3301 60.7737 57.3301 61.3203C57.3301 61.867 57.7732 62.3101 58.3199 62.3101C58.8665 62.3101 59.3097 61.867 59.3097 61.3203Z" fill="#111111"/>
<path id="Vector_198" d="M61.9523 61.3203C61.9523 60.7737 61.5091 60.3305 60.9625 60.3305C60.4158 60.3305 59.9727 60.7737 59.9727 61.3203C59.9727 61.867 60.4158 62.3101 60.9625 62.3101C61.5091 62.3101 61.9523 61.867 61.9523 61.3203Z" fill="#111111"/>
<path id="Vector_199" d="M72.5109 61.3203C72.5109 60.7737 72.0677 60.3305 71.521 60.3305C70.9744 60.3305 70.5312 60.7737 70.5312 61.3203C70.5312 61.867 70.9744 62.3101 71.521 62.3101C72.0677 62.3101 72.5109 61.867 72.5109 61.3203Z" fill="#111111"/>
<path id="Vector_200" d="M30.2784 63.9595C30.2784 63.4128 29.8353 62.9697 29.2886 62.9697C28.742 62.9697 28.2988 63.4128 28.2988 63.9595C28.2988 64.5061 28.742 64.9493 29.2886 64.9493C29.8353 64.9493 30.2784 64.5061 30.2784 63.9595Z" fill="#111111"/>
<path id="Vector_201" d="M35.5558 63.9595C35.5558 63.4128 35.1126 62.9697 34.566 62.9697C34.0193 62.9697 33.5762 63.4128 33.5762 63.9595C33.5762 64.5061 34.0193 64.9493 34.566 64.9493C35.1126 64.9493 35.5558 64.5061 35.5558 63.9595Z" fill="#111111"/>
<path id="Vector_202" d="M43.4737 63.9595C43.4737 63.4128 43.0306 62.9697 42.4839 62.9697C41.9373 62.9697 41.4941 63.4128 41.4941 63.9595C41.4941 64.5061 41.9373 64.9493 42.4839 64.9493C43.0306 64.9493 43.4737 64.5061 43.4737 63.9595Z" fill="#111111"/>
<path id="Vector_203" d="M59.3097 63.9595C59.3097 63.4128 58.8665 62.9697 58.3199 62.9697C57.7732 62.9697 57.3301 63.4128 57.3301 63.9595C57.3301 64.5061 57.7732 64.9493 58.3199 64.9493C58.8665 64.9493 59.3097 64.5061 59.3097 63.9595Z" fill="#111111"/>
<path id="Vector_204" d="M67.2296 63.9595C67.2296 63.4128 66.7864 62.9697 66.2398 62.9697C65.6931 62.9697 65.25 63.4128 65.25 63.9595C65.25 64.5061 65.6931 64.9493 66.2398 64.9493C66.7864 64.9493 67.2296 64.5061 67.2296 63.9595Z" fill="#111111"/>
<path id="Vector_205" d="M32.9171 66.599C32.9171 66.0524 32.474 65.6092 31.9273 65.6092C31.3807 65.6092 30.9375 66.0524 30.9375 66.599C30.9375 67.1457 31.3807 67.5888 31.9273 67.5888C32.474 67.5888 32.9171 67.1457 32.9171 66.599Z" fill="#111111"/>
<path id="Vector_206" d="M40.8351 66.599C40.8351 66.0524 40.3919 65.6092 39.8453 65.6092C39.2986 65.6092 38.8555 66.0524 38.8555 66.599C38.8555 67.1457 39.2986 67.5888 39.8453 67.5888C40.3919 67.5888 40.8351 67.1457 40.8351 66.599Z" fill="#111111"/>
<path id="Vector_207" d="M43.4737 66.599C43.4737 66.0524 43.0306 65.6092 42.4839 65.6092C41.9373 65.6092 41.4941 66.0524 41.4941 66.599C41.4941 67.1457 41.9373 67.5888 42.4839 67.5888C43.0306 67.5888 43.4737 67.1457 43.4737 66.599Z" fill="#111111"/>
<path id="Vector_208" d="M51.3917 66.599C51.3917 66.0524 50.9486 65.6092 50.4019 65.6092C49.8553 65.6092 49.4121 66.0524 49.4121 66.599C49.4121 67.1457 49.8553 67.5888 50.4019 67.5888C50.9486 67.5888 51.3917 67.1457 51.3917 66.599Z" fill="#111111"/>
<path id="Vector_209" d="M54.0323 66.599C54.0323 66.0524 53.5892 65.6092 53.0425 65.6092C52.4959 65.6092 52.0527 66.0524 52.0527 66.599C52.0527 67.1457 52.4959 67.5888 53.0425 67.5888C53.5892 67.5888 54.0323 67.1457 54.0323 66.599Z" fill="#111111"/>
<path id="Vector_210" d="M61.9523 66.599C61.9523 66.0524 61.5091 65.6092 60.9625 65.6092C60.4158 65.6092 59.9727 66.0524 59.9727 66.599C59.9727 67.1457 60.4158 67.5888 60.9625 67.5888C61.5091 67.5888 61.9523 67.1457 61.9523 66.599Z" fill="#111111"/>
<path id="Vector_211" d="M64.5909 66.599C64.5909 66.0524 64.1478 65.6092 63.6011 65.6092C63.0545 65.6092 62.6113 66.0524 62.6113 66.599C62.6113 67.1457 63.0545 67.5888 63.6011 67.5888C64.1478 67.5888 64.5909 67.1457 64.5909 66.599Z" fill="#111111"/>
<path id="Vector_212" d="M67.2296 66.599C67.2296 66.0524 66.7864 65.6092 66.2398 65.6092C65.6931 65.6092 65.25 66.0524 65.25 66.599C65.25 67.1457 65.6931 67.5888 66.2398 67.5888C66.7864 67.5888 67.2296 67.1457 67.2296 66.599Z" fill="#111111"/>
<path id="Vector_213" d="M72.5109 66.599C72.5109 66.0524 72.0677 65.6092 71.521 65.6092C70.9744 65.6092 70.5312 66.0524 70.5312 66.599C70.5312 67.1457 70.9744 67.5888 71.521 67.5888C72.0677 67.5888 72.5109 67.1457 72.5109 66.599Z" fill="#111111"/>
<path id="Vector_214" d="M30.2784 69.2384C30.2784 68.6918 29.8353 68.2486 29.2886 68.2486C28.742 68.2486 28.2988 68.6918 28.2988 69.2384C28.2988 69.7851 28.742 70.2282 29.2886 70.2282C29.8353 70.2282 30.2784 69.7851 30.2784 69.2384Z" fill="#111111"/>
<path id="Vector_215" d="M32.9171 69.2384C32.9171 68.6918 32.474 68.2486 31.9273 68.2486C31.3807 68.2486 30.9375 68.6918 30.9375 69.2384C30.9375 69.7851 31.3807 70.2282 31.9273 70.2282C32.474 70.2282 32.9171 69.7851 32.9171 69.2384Z" fill="#111111"/>
<path id="Vector_216" d="M35.5558 69.2384C35.5558 68.6918 35.1126 68.2486 34.566 68.2486C34.0193 68.2486 33.5762 68.6918 33.5762 69.2384C33.5762 69.7851 34.0193 70.2282 34.566 70.2282C35.1126 70.2282 35.5558 69.7851 35.5558 69.2384Z" fill="#111111"/>
<path id="Vector_217" d="M40.8351 69.2384C40.8351 68.6918 40.3919 68.2486 39.8453 68.2486C39.2986 68.2486 38.8555 68.6918 38.8555 69.2384C38.8555 69.7851 39.2986 70.2282 39.8453 70.2282C40.3919 70.2282 40.8351 69.7851 40.8351 69.2384Z" fill="#111111"/>
<path id="Vector_218" d="M43.4737 69.2384C43.4737 68.6918 43.0306 68.2486 42.4839 68.2486C41.9373 68.2486 41.4941 68.6918 41.4941 69.2384C41.4941 69.7851 41.9373 70.2282 42.4839 70.2282C43.0306 70.2282 43.4737 69.7851 43.4737 69.2384Z" fill="#111111"/>
<path id="Vector_219" d="M48.755 69.2384C48.755 68.6918 48.3118 68.2486 47.7652 68.2486C47.2185 68.2486 46.7754 68.6918 46.7754 69.2384C46.7754 69.7851 47.2185 70.2282 47.7652 70.2282C48.3118 70.2282 48.755 69.7851 48.755 69.2384Z" fill="#111111"/>
<path id="Vector_220" d="M51.3917 69.2384C51.3917 68.6918 50.9486 68.2486 50.4019 68.2486C49.8553 68.2486 49.4121 68.6918 49.4121 69.2384C49.4121 69.7851 49.8553 70.2282 50.4019 70.2282C50.9486 70.2282 51.3917 69.7851 51.3917 69.2384Z" fill="#111111"/>
<path id="Vector_221" d="M64.5909 69.2384C64.5909 68.6918 64.1478 68.2486 63.6011 68.2486C63.0545 68.2486 62.6113 68.6918 62.6113 69.2384C62.6113 69.7851 63.0545 70.2282 63.6011 70.2282C64.1478 70.2282 64.5909 69.7851 64.5909 69.2384Z" fill="#111111"/>
<path id="Vector_222" d="M32.9171 71.8777C32.9171 71.3311 32.474 70.888 31.9273 70.888C31.3807 70.888 30.9375 71.3311 30.9375 71.8777C30.9375 72.4244 31.3807 72.8676 31.9273 72.8676C32.474 72.8676 32.9171 72.4244 32.9171 71.8777Z" fill="#111111"/>
<path id="Vector_223" d="M35.5558 71.8777C35.5558 71.3311 35.1126 70.888 34.566 70.888C34.0193 70.888 33.5762 71.3311 33.5762 71.8777C33.5762 72.4244 34.0193 72.8676 34.566 72.8676C35.1126 72.8676 35.5558 72.4244 35.5558 71.8777Z" fill="#111111"/>
<path id="Vector_224" d="M38.1964 71.8777C38.1964 71.3311 37.7532 70.888 37.2066 70.888C36.6599 70.888 36.2168 71.3311 36.2168 71.8777C36.2168 72.4244 36.6599 72.8676 37.2066 72.8676C37.7532 72.8676 38.1964 72.4244 38.1964 71.8777Z" fill="#111111"/>
<path id="Vector_225" d="M40.8351 71.8777C40.8351 71.3311 40.3919 70.888 39.8453 70.888C39.2986 70.888 38.8555 71.3311 38.8555 71.8777C38.8555 72.4244 39.2986 72.8676 39.8453 72.8676C40.3919 72.8676 40.8351 72.4244 40.8351 71.8777Z" fill="#111111"/>
<path id="Vector_226" d="M43.4737 71.8777C43.4737 71.3311 43.0306 70.888 42.4839 70.888C41.9373 70.888 41.4941 71.3311 41.4941 71.8777C41.4941 72.4244 41.9373 72.8676 42.4839 72.8676C43.0306 72.8676 43.4737 72.4244 43.4737 71.8777Z" fill="#111111"/>
<path id="Vector_227" d="M48.755 71.8777C48.755 71.3311 48.3118 70.888 47.7652 70.888C47.2185 70.888 46.7754 71.3311 46.7754 71.8777C46.7754 72.4244 47.2185 72.8676 47.7652 72.8676C48.3118 72.8676 48.755 72.4244 48.755 71.8777Z" fill="#111111"/>
<path id="Vector_228" d="M51.3917 71.8777C51.3917 71.3311 50.9486 70.888 50.4019 70.888C49.8553 70.888 49.4121 71.3311 49.4121 71.8777C49.4121 72.4244 49.8553 72.8676 50.4019 72.8676C50.9486 72.8676 51.3917 72.4244 51.3917 71.8777Z" fill="#111111"/>
<path id="Vector_229" d="M59.3097 71.8777C59.3097 71.3311 58.8665 70.888 58.3199 70.888C57.7732 70.888 57.3301 71.3311 57.3301 71.8777C57.3301 72.4244 57.7732 72.8676 58.3199 72.8676C58.8665 72.8676 59.3097 72.4244 59.3097 71.8777Z" fill="#111111"/>
<path id="Vector_230" d="M69.8702 71.8777C69.8702 71.3311 69.4271 70.888 68.8804 70.888C68.3338 70.888 67.8906 71.3311 67.8906 71.8777C67.8906 72.4244 68.3338 72.8676 68.8804 72.8676C69.4271 72.8676 69.8702 72.4244 69.8702 71.8777Z" fill="#111111"/>
<path id="Vector_231" d="M72.5109 71.8777C72.5109 71.3311 72.0677 70.888 71.521 70.888C70.9744 70.888 70.5312 71.3311 70.5312 71.8777C70.5312 72.4244 70.9744 72.8676 71.521 72.8676C72.0677 72.8676 72.5109 72.4244 72.5109 71.8777Z" fill="#111111"/>
</g>
<g id="Group_3">
<path id="Vector_232" d="M24.0028 8.52718H8.16602V24.364H24.0028V8.52718Z" stroke="#111111" stroke-width="3.30264"/>
<path id="Vector_233" d="M20.0434 12.4863H12.125V20.4047H20.0434V12.4863Z" fill="#111111"/>
<path id="Vector_234" d="M71.5185 8.52718H55.6816V24.364H71.5185V8.52718Z" stroke="#111111" stroke-width="3.30264"/>
<path id="Vector_235" d="M67.561 12.4863H59.6426V20.4047H67.561V12.4863Z" fill="#111111"/>
<path id="Vector_236" d="M24.0028 56.0448H8.16602V71.8817H24.0028V56.0448Z" stroke="#111111" stroke-width="3.30264"/>
<path id="Vector_237" d="M20.0434 60.004H12.125V67.9224H20.0434V60.004Z" fill="#111111"/>
</g>
</g>
</g>
</svg>
