<svg width="14" height="10" viewBox="0 0 14 10" fill="none" xmlns="http://www.w3.org/2000/svg">
<path id="Cellular Connection" fill-rule="evenodd" clip-rule="evenodd" d="M13.982 1.64926C13.982 1.18929 13.635 0.816406 13.2069 0.816406H12.4319C12.0039 0.816406 11.6569 1.18929 11.6569 1.64926V8.86728C11.6569 9.32725 12.0039 9.70013 12.4319 9.70013H13.2069C13.635 9.70013 13.982 9.32725 13.982 8.86728V1.64926ZM8.58035 2.59315H9.35539C9.78344 2.59315 10.1304 2.97498 10.1304 3.44599V8.84729C10.1304 9.3183 9.78344 9.70013 9.35539 9.70013H8.58035C8.15231 9.70013 7.80531 9.3183 7.80531 8.84729V3.44599C7.80531 2.97498 8.15231 2.59315 8.58035 2.59315ZM5.43288 4.51795H4.65784C4.2298 4.51795 3.8828 4.90464 3.8828 5.38165V8.83643C3.8828 9.31343 4.2298 9.70012 4.65784 9.70012H5.43288C5.86093 9.70012 6.20793 9.31343 6.20793 8.83643V5.38165C6.20793 4.90464 5.86093 4.51795 5.43288 4.51795ZM1.58133 6.2947H0.806291C0.378248 6.2947 0.03125 6.67587 0.03125 7.14606V8.84877C0.03125 9.31897 0.378248 9.70013 0.806291 9.70013H1.58133C2.00938 9.70013 2.35637 9.31897 2.35637 8.84877V7.14606C2.35637 6.67587 2.00938 6.2947 1.58133 6.2947Z" fill="black" fill-opacity="0.9"/>
</svg>
