<svg width="19" height="18" viewBox="0 0 19 18" fill="none" xmlns="http://www.w3.org/2000/svg">
<g id="24/instagram">
<path id="Vector" d="M6.56878 1.70312H12.6722C14.9973 1.70312 16.8865 3.59229 16.8865 5.91741V12.0209C16.8865 13.1386 16.4425 14.2105 15.6522 15.0008C14.8618 15.7911 13.7899 16.2351 12.6722 16.2351H6.56878C4.24365 16.2351 2.35449 14.346 2.35449 12.0209V5.91741C2.35449 4.79971 2.7985 3.72779 3.58883 2.93746C4.37916 2.14713 5.45108 1.70313 6.56878 1.70312ZM6.42346 3.15633C5.72971 3.15633 5.06438 3.43192 4.57383 3.92247C4.08328 4.41302 3.80769 5.07835 3.80769 5.77209V12.1662C3.80769 13.6121 4.97752 14.7819 6.42346 14.7819H12.8175C13.5113 14.7819 14.1766 14.5064 14.6672 14.0158C15.1577 13.5253 15.4333 12.8599 15.4333 12.1662V5.77209C15.4333 4.32615 14.2635 3.15633 12.8175 3.15633H6.42346ZM13.4352 4.24623C13.676 4.24623 13.9071 4.34192 14.0774 4.51225C14.2477 4.68258 14.3434 4.9136 14.3434 5.15448C14.3434 5.39536 14.2477 5.62638 14.0774 5.79671C13.9071 5.96704 13.676 6.06273 13.4352 6.06273C13.1943 6.06273 12.9633 5.96704 12.7929 5.79671C12.6226 5.62638 12.5269 5.39536 12.5269 5.15448C12.5269 4.9136 12.6226 4.68258 12.7929 4.51225C12.9633 4.34192 13.1943 4.24623 13.4352 4.24623ZM9.6205 5.33613C10.584 5.33613 11.5081 5.71889 12.1894 6.40021C12.8707 7.08153 13.2535 8.0056 13.2535 8.96913C13.2535 9.93267 12.8707 10.8567 12.1894 11.5381C11.5081 12.2194 10.584 12.6021 9.6205 12.6021C8.65697 12.6021 7.7329 12.2194 7.05158 11.5381C6.37026 10.8567 5.9875 9.93267 5.9875 8.96913C5.9875 8.0056 6.37026 7.08153 7.05158 6.40021C7.7329 5.71889 8.65697 5.33613 9.6205 5.33613ZM9.6205 6.78933C9.04238 6.78933 8.48794 7.01899 8.07915 7.42778C7.67036 7.83657 7.4407 8.39101 7.4407 8.96913C7.4407 9.54725 7.67036 10.1017 8.07915 10.5105C8.48794 10.9193 9.04238 11.1489 9.6205 11.1489C10.1986 11.1489 10.7531 10.9193 11.1619 10.5105C11.5706 10.1017 11.8003 9.54725 11.8003 8.96913C11.8003 8.39101 11.5706 7.83657 11.1619 7.42778C10.7531 7.01899 10.1986 6.78933 9.6205 6.78933Z" fill="black" fill-opacity="0.9"/>
</g>
</svg>
