<svg width="19" height="18" viewBox="0 0 19 18" fill="none" xmlns="http://www.w3.org/2000/svg">
<path d="M9.38025 15.8718C8.43385 15.8718 7.54074 15.6904 6.70091 15.3276C5.86108 14.9648 5.12866 14.4708 4.50367 13.8457C3.87855 13.2207 3.38458 12.4883 3.02176 11.6485C2.65895 10.8086 2.47754 9.91551 2.47754 8.96912C2.47754 8.01521 2.65895 7.12022 3.02176 6.28414C3.38458 5.44807 3.87855 4.71753 4.50367 4.09253C5.12866 3.46741 5.86108 2.97345 6.70091 2.61063C7.54074 2.24781 8.43385 2.06641 9.38025 2.06641C10.3342 2.06641 11.2291 2.24781 12.0652 2.61063C12.9013 2.97345 13.6318 3.46741 14.2568 4.09253C14.8819 4.71753 15.3759 5.44807 15.7387 6.28414C16.1015 7.12022 16.283 8.01521 16.283 8.96912C16.283 9.91551 16.1015 10.8086 15.7387 11.6485C15.3759 12.4883 14.8819 13.2207 14.2568 13.8457C13.6318 14.4708 12.9013 14.9648 12.0652 15.3276C11.2291 15.6904 10.3342 15.8718 9.38025 15.8718ZM9.38025 14.7665C9.75106 14.2747 10.0631 13.7787 10.3165 13.2784C10.5698 12.7781 10.7762 12.2313 10.9355 11.6379H7.82496C7.99365 12.25 8.20237 12.8061 8.45111 13.3064C8.69973 13.8066 9.00944 14.2933 9.38025 14.7665ZM7.97319 14.5667C7.69466 14.167 7.44452 13.7127 7.22279 13.2037C7.00105 12.6946 6.82873 12.1727 6.70581 11.6379H4.241C4.62477 12.3925 5.13944 13.0265 5.78503 13.5398C6.43061 14.053 7.16 14.3953 7.97319 14.5667ZM10.7873 14.5667C11.6005 14.3953 12.3299 14.053 12.9755 13.5398C13.6211 13.0265 14.1357 12.3925 14.5195 11.6379H12.0547C11.9084 12.1773 11.7244 12.7015 11.5026 13.2106C11.281 13.7198 11.0426 14.1718 10.7873 14.5667ZM3.78397 10.548H6.48511C6.43945 10.278 6.40633 10.0132 6.38574 9.75366C6.36528 9.49427 6.35504 9.23275 6.35504 8.96912C6.35504 8.70548 6.36528 8.44396 6.38574 8.18457C6.40633 7.92505 6.43945 7.66027 6.48511 7.39021H3.78397C3.71409 7.63701 3.66057 7.89362 3.62339 8.16005C3.58609 8.42647 3.56744 8.69616 3.56744 8.96912C3.56744 9.24207 3.58609 9.51177 3.62339 9.77819C3.66057 10.0446 3.71409 10.3012 3.78397 10.548ZM7.57483 10.548H11.1857C11.2312 10.278 11.2643 10.0155 11.2849 9.76075C11.3053 9.50595 11.3155 9.24207 11.3155 8.96912C11.3155 8.69616 11.3053 8.43228 11.2849 8.17748C11.2643 7.92269 11.2312 7.66027 11.1857 7.39021H7.57483C7.52929 7.66027 7.49623 7.92269 7.47565 8.17748C7.45518 8.43228 7.44495 8.69616 7.44495 8.96912C7.44495 9.24207 7.45518 9.50595 7.47565 9.76075C7.49623 10.0155 7.52929 10.278 7.57483 10.548ZM12.2754 10.548H14.9765C15.0464 10.3012 15.0999 10.0446 15.1371 9.77819C15.1744 9.51177 15.1931 9.24207 15.1931 8.96912C15.1931 8.69616 15.1744 8.42647 15.1371 8.16005C15.0999 7.89362 15.0464 7.63701 14.9765 7.39021H12.2754C12.321 7.66027 12.3542 7.92505 12.3748 8.18457C12.3952 8.44396 12.4055 8.70548 12.4055 8.96912C12.4055 9.23275 12.3952 9.49427 12.3748 9.75366C12.3542 10.0132 12.321 10.278 12.2754 10.548ZM12.0547 6.30031H14.5195C14.1311 5.53641 13.62 4.90245 12.986 4.39843C12.352 3.89453 11.6191 3.54988 10.7873 3.36448C11.0658 3.78736 11.3136 4.2499 11.5306 4.7521C11.7478 5.25419 11.9224 5.77026 12.0547 6.30031ZM7.82496 6.30031H10.9355C10.7668 5.69287 10.5547 5.13321 10.299 4.62132C10.0433 4.10943 9.73701 3.62624 9.38025 3.17175C9.02349 3.62624 8.71722 4.10943 8.46146 4.62132C8.20582 5.13321 7.99365 5.69287 7.82496 6.30031ZM4.241 6.30031H6.70581C6.83805 5.77026 7.01274 5.25419 7.22987 4.7521C7.44688 4.2499 7.69466 3.78736 7.97319 3.36448C7.13663 3.54988 6.40258 3.89575 5.77104 4.40207C5.13938 4.90826 4.62937 5.54101 4.241 6.30031Z" fill="black" fill-opacity="0.9"/>
</svg>
