<svg width="19" height="18" viewBox="0 0 19 18" fill="none" xmlns="http://www.w3.org/2000/svg">
<path d="M4.09965 14.4185C3.73259 14.4185 3.42191 14.2914 3.1676 14.0371C2.91329 13.7828 2.78613 13.4721 2.78613 13.105V4.83304C2.78613 4.46599 2.91329 4.15531 3.1676 3.901C3.42191 3.64669 3.73259 3.51953 4.09965 3.51953H15.278C15.6451 3.51953 15.9558 3.64669 16.2101 3.901C16.4644 4.15531 16.5916 4.46599 16.5916 4.83304V13.105C16.5916 13.4721 16.4644 13.7828 16.2101 14.0371C15.9558 14.2914 15.6451 14.4185 15.278 14.4185H4.09965ZM9.68884 9.3743L15.5016 5.65737L15.3899 4.60943L9.68884 8.24244L3.98775 4.60943L3.87603 5.65737L9.68884 9.3743Z" fill="black" fill-opacity="0.9"/>
</svg>
