<svg width="18" height="18" viewBox="0 0 18 18" fill="none" xmlns="http://www.w3.org/2000/svg">
<path d="M14.1217 3.81757C13.4555 3.14482 12.662 2.61139 11.7875 2.24838C10.9131 1.88537 9.9751 1.70003 9.02827 1.70316C5.06103 1.70316 1.82766 4.93654 1.82766 8.90378C1.82766 10.1753 2.1619 11.4106 2.78677 12.5005L1.76953 16.2352L5.58419 15.2325C6.63776 15.8065 7.82212 16.1117 9.02827 16.1117C12.9955 16.1117 16.2289 12.8783 16.2289 8.91105C16.2289 6.98555 15.4805 5.17632 14.1217 3.81757ZM9.02827 14.891C7.95291 14.891 6.89933 14.6003 5.97655 14.0554L5.75857 13.9246L3.49158 14.5204L4.09465 12.3115L3.94933 12.0863C3.35174 11.1323 3.03449 10.0295 3.03382 8.90378C3.03382 5.60501 5.72224 2.91659 9.02101 2.91659C10.6195 2.91659 12.1236 3.54146 13.2498 4.67496C13.8076 5.22999 14.2496 5.89023 14.5502 6.61741C14.8508 7.34458 15.004 8.1242 15.0009 8.91105C15.0155 12.2098 12.327 14.891 9.02827 14.891ZM12.3125 10.4151C12.1309 10.3279 11.2444 9.89196 11.0846 9.82656C10.9174 9.76844 10.8012 9.73937 10.6777 9.91376C10.5541 10.0954 10.2126 10.5023 10.1109 10.6186C10.0092 10.7421 9.9002 10.7566 9.71855 10.6622C9.5369 10.575 8.95561 10.3788 8.27261 9.76844C7.73492 9.28888 7.37889 8.70033 7.2699 8.51868C7.16818 8.33703 7.25537 8.24257 7.34983 8.14811C7.42975 8.06819 7.53148 7.9374 7.61867 7.83568C7.70586 7.73395 7.74219 7.65403 7.80032 7.53777C7.85845 7.41425 7.82938 7.31252 7.78579 7.22533C7.74219 7.13814 7.37889 6.25169 7.23357 5.88839C7.08825 5.53962 6.93566 5.58321 6.82667 5.57595H6.47791C6.35438 5.57595 6.16547 5.61954 5.99835 5.80119C5.8385 5.98284 5.37347 6.4188 5.37347 7.30526C5.37347 8.19171 6.02015 9.0491 6.10734 9.16536C6.19453 9.28888 7.37889 11.1054 9.18086 11.8828C9.60956 12.0718 9.94379 12.1808 10.2054 12.2607C10.6341 12.3987 11.0264 12.3769 11.3389 12.3333C11.6876 12.2825 12.407 11.8974 12.5523 11.4759C12.7049 11.0545 12.7049 10.6985 12.654 10.6186C12.6032 10.5386 12.4942 10.5023 12.3125 10.4151Z" fill="black" fill-opacity="0.9"/>
</svg>
