<svg width="13" height="10" viewBox="0 0 13 10" fill="none" xmlns="http://www.w3.org/2000/svg">
<path id="Wifi" fill-rule="evenodd" clip-rule="evenodd" d="M6.2953 2.56935C8.10244 2.56942 9.84047 3.23941 11.1502 4.44083C11.2488 4.53358 11.4064 4.53241 11.5036 4.43821L12.4463 3.52017C12.4955 3.47239 12.5229 3.40766 12.5225 3.34032C12.5221 3.27298 12.4939 3.20857 12.4442 3.16135C9.0066 -0.0173242 3.58345 -0.0173242 0.145896 3.16135C0.096101 3.20854 0.0678477 3.27293 0.0673885 3.34027C0.0669293 3.40761 0.0943021 3.47235 0.14345 3.52017L1.08648 4.43821C1.18355 4.53256 1.34131 4.53373 1.43988 4.44083C2.74975 3.23933 4.48798 2.56934 6.2953 2.56935ZM6.29286 5.6358C7.27909 5.63574 8.23013 6.00757 8.96117 6.67904C9.06005 6.77434 9.21581 6.77228 9.31219 6.67439L10.2475 5.71578C10.2968 5.6655 10.3241 5.59728 10.3234 5.5264C10.3227 5.45552 10.294 5.38789 10.2438 5.33863C8.01757 3.23814 4.57004 3.23814 2.34386 5.33863C2.29357 5.38789 2.26488 5.45556 2.26422 5.52646C2.26356 5.59736 2.29099 5.66557 2.34035 5.71578L3.27542 6.67439C3.3718 6.77228 3.52756 6.77434 3.62644 6.67904C4.357 6.00802 5.30728 5.63622 6.29286 5.6358ZM8.12711 7.6656C8.12851 7.74215 8.10158 7.81595 8.05268 7.86958L6.47111 9.65318C6.42475 9.7056 6.36154 9.7351 6.29559 9.7351C6.22964 9.7351 6.16643 9.7056 6.12006 9.65318L4.53823 7.86958C4.48937 7.81591 4.46249 7.74208 4.46394 7.66554C4.46539 7.58899 4.49504 7.5165 4.54589 7.46519C5.55594 6.51052 7.03524 6.51052 8.04529 7.46519C8.09611 7.51654 8.12571 7.58905 8.12711 7.6656Z" fill="black" fill-opacity="0.9"/>
</svg>
