<svg width="19" height="18" viewBox="0 0 19 18" fill="none" xmlns="http://www.w3.org/2000/svg">
<path fill-rule="evenodd" clip-rule="evenodd" d="M9.74089 17.1492L9.73289 17.1506L9.68131 17.176L9.66677 17.179L9.6566 17.176L9.60501 17.1506C9.59726 17.1482 9.59145 17.1494 9.58757 17.1542L9.58467 17.1615L9.57232 17.4725L9.57595 17.487L9.58321 17.4965L9.65878 17.5502L9.66968 17.5532L9.6784 17.5502L9.75397 17.4965L9.76269 17.4849L9.76559 17.4725L9.75324 17.1622C9.7513 17.1545 9.74718 17.1501 9.74089 17.1492ZM9.93344 17.0671L9.92399 17.0685L9.78957 17.1361L9.7823 17.1434L9.78012 17.1513L9.7932 17.4638L9.79684 17.4725L9.80265 17.4776L9.94869 17.5452C9.9579 17.5476 9.96492 17.5456 9.96977 17.5393L9.97267 17.5292L9.94797 17.083C9.94555 17.0743 9.9407 17.069 9.93344 17.0671ZM9.41392 17.0685C9.41071 17.0666 9.40689 17.0659 9.40323 17.0668C9.39958 17.0676 9.39638 17.0698 9.3943 17.0729L9.38994 17.083L9.36523 17.5292C9.36572 17.5379 9.36984 17.5437 9.37759 17.5466L9.38849 17.5452L9.53453 17.4776L9.5418 17.4718L9.5447 17.4638L9.55706 17.1513L9.55488 17.1426L9.54761 17.1354L9.41392 17.0685Z" fill="black" fill-opacity="0.9"/>
<path fill-rule="evenodd" clip-rule="evenodd" d="M9.30995 3.15625C9.9312 3.15625 10.5684 3.17224 11.186 3.19839L11.9155 3.23327L12.6138 3.27469L13.2678 3.31901L13.865 3.36551C14.5133 3.41484 15.1233 3.69134 15.5878 4.14632C16.0522 4.60129 16.3411 5.20555 16.4038 5.85267L16.4328 6.16147L16.4873 6.82268C16.5382 7.50786 16.576 8.25481 16.576 8.96906C16.576 9.68331 16.5382 10.4303 16.4873 11.1154L16.4328 11.7766L16.4038 12.0854C16.3411 12.7327 16.052 13.337 15.5875 13.792C15.1229 14.247 14.5127 14.5234 13.8643 14.5726L13.2685 14.6184L12.6145 14.6634L11.9155 14.7048L11.186 14.7397C10.561 14.7668 9.93554 14.7808 9.30995 14.7819C8.68437 14.7808 8.05887 14.7668 7.43387 14.7397L6.70436 14.7048L6.0061 14.6634L5.35216 14.6184L4.75489 14.5726C4.10663 14.5233 3.49657 14.2468 3.03215 13.7918C2.56774 13.3368 2.27878 12.7326 2.21615 12.0854L2.18709 11.7766L2.13259 11.1154C2.07725 10.4013 2.04768 9.68535 2.04395 8.96906C2.04395 8.25481 2.08173 7.50786 2.13259 6.82268L2.18709 6.16147L2.21615 5.85267C2.27875 5.20567 2.56762 4.6015 3.03188 4.14654C3.49614 3.69158 4.10603 3.415 4.75417 3.36551L5.35071 3.31901L6.00465 3.27469L6.70364 3.23327L7.43314 3.19839C8.05839 3.17131 8.68413 3.15726 9.30995 3.15625ZM7.85675 7.20705V10.7311C7.85675 11.0668 8.22005 11.276 8.51069 11.1089L11.5624 9.34689C11.6288 9.30866 11.684 9.25361 11.7223 9.18728C11.7607 9.12095 11.7809 9.04568 11.7809 8.96906C11.7809 8.89244 11.7607 8.81717 11.7223 8.75083C11.684 8.6845 11.6288 8.62945 11.5624 8.59122L8.51069 6.82994C8.4444 6.79167 8.36919 6.77152 8.29264 6.77154C8.21609 6.77155 8.14089 6.79172 8.07461 6.83001C8.00833 6.86831 7.9533 6.92339 7.91506 6.9897C7.87681 7.05601 7.8567 7.13123 7.85675 7.20778V7.20705Z" fill="black" fill-opacity="0.9"/>
</svg>
