<svg xmlns="http://www.w3.org/2000/svg" width="24" height="24" viewBox="0 0 24 24" fill="none">
  <path d="M11.2558 20.75V18.6578C10.3853 18.5026 9.63561 18.1625 9.00677 17.6375C8.37794 17.1125 7.91353 16.3783 7.61353 15.4348L9.00202 14.8577C9.27119 15.6321 9.65477 16.2244 10.1528 16.6348C10.6509 17.0449 11.316 17.25 12.148 17.25C12.8699 17.25 13.5068 17.0783 14.0588 16.7348C14.6106 16.3911 14.8865 15.8462 14.8865 15.1C14.8865 14.4525 14.6792 13.9355 14.2645 13.549C13.8497 13.1625 12.9917 12.759 11.6905 12.3385C10.3277 11.9077 9.38119 11.4038 8.85103 10.827C8.32086 10.25 8.05578 9.52433 8.05578 8.65C8.05578 7.64367 8.40903 6.85167 9.11553 6.274C9.82186 5.6965 10.5353 5.37567 11.2558 5.3115V3.25H12.7558V5.3115C13.5186 5.41283 14.1596 5.66092 14.6788 6.05575C15.1981 6.45058 15.6019 6.96408 15.8903 7.59625L14.5213 8.223C14.3019 7.741 13.9961 7.36667 13.6038 7.1C13.2116 6.83333 12.6956 6.7 12.0558 6.7C11.3033 6.7 10.6984 6.88333 10.2413 7.25C9.78428 7.61667 9.55578 8.08333 9.55578 8.65C9.55578 9.232 9.78978 9.69742 10.2578 10.0462C10.7256 10.3949 11.5954 10.7603 12.8673 11.1423C14.0493 11.5013 14.9314 12.0128 15.5135 12.677C16.0955 13.341 16.3865 14.1384 16.3865 15.0693C16.3865 16.1628 16.0349 17.0114 15.3318 17.6152C14.6286 18.2192 13.7699 18.577 12.7558 18.6885V20.75H11.2558Z" fill="#1A1A1A"/>
</svg>