<svg xmlns="http://www.w3.org/2000/svg" width="24" height="24" viewBox="0 0 24 24" fill="none">
  <path d="M12.0499 19.75C9.88711 19.75 8.04644 18.9974 6.52794 17.4923C5.00927 15.9871 4.24994 14.1563 4.24994 12V11.2192L2.39994 13.0693L1.34619 12.0155L4.99994 8.3615L8.65369 12.0155L7.59994 13.0693L5.74994 11.2192V12C5.74994 13.7372 6.36144 15.2132 7.58444 16.428C8.80761 17.6427 10.2961 18.25 12.0499 18.25C12.4641 18.25 12.8779 18.2048 13.2912 18.1145C13.7047 18.024 14.1083 17.8884 14.5019 17.7078L15.6269 18.8328C15.0641 19.1353 14.483 19.3637 13.8837 19.5182C13.2842 19.6727 12.6729 19.75 12.0499 19.75ZM18.9999 15.6385L15.3462 11.9845L16.3999 10.9307L18.2499 12.7808V12C18.2499 10.2628 17.6384 8.78683 16.4154 7.572C15.1923 6.35733 13.7038 5.75 11.9499 5.75C11.5358 5.75 11.122 5.79517 10.7087 5.8855C10.2952 5.976 9.89161 6.11158 9.49794 6.29225L8.37294 5.16725C8.93577 4.86475 9.51686 4.63625 10.1162 4.48175C10.7157 4.32725 11.3269 4.25 11.9499 4.25C14.1128 4.25 15.9534 5.00258 17.4719 6.50775C18.9906 8.01292 19.7499 9.84367 19.7499 12V12.7808L21.5999 10.9307L22.6537 11.9845L18.9999 15.6385Z" fill="#1A1A1A"/>
</svg>