<svg xmlns="http://www.w3.org/2000/svg" width="24" height="24" viewBox="0 0 24 24" fill="none">
  <path d="M17.9616 12.75V11.25H21.5771V12.75H17.9616ZM19.1038 19.4807L16.2116 17.3115L17.1231 16.1155L20.0153 18.2845L19.1038 19.4807ZM17.0846 7.84621L16.1731 6.64996L19.0653 4.48071L19.9771 5.67696L17.0846 7.84621ZM5.2501 18.4807V14.577H4.23085C3.73218 14.577 3.30626 14.4003 2.9531 14.047C2.59976 13.6938 2.4231 13.2679 2.4231 12.7692V11.2307C2.4231 10.732 2.59976 10.3061 2.9531 9.95296C3.30626 9.59963 3.73218 9.42296 4.23085 9.42296H8.09635L12.5771 6.74996V17.25L8.09635 14.577H6.7501V18.4807H5.2501ZM13.9616 15.1192V8.88071C14.3539 9.23588 14.6699 9.6833 14.9096 10.223C15.1494 10.7628 15.2693 11.3551 15.2693 12C15.2693 12.6448 15.1494 13.2371 14.9096 13.777C14.6699 14.3166 14.3539 14.764 13.9616 15.1192Z" fill="#1A1A1A"/>
</svg>