<svg xmlns="http://www.w3.org/2000/svg" width="24" height="24" viewBox="0 0 24 24" fill="none">
  <path d="M6.5 19.5C5.118 19.5 3.93917 19.0198 2.9635 18.0595C1.98783 17.0993 1.5 15.9283 1.5 14.5463C1.5 13.3231 1.89167 12.2353 2.675 11.2828C3.45833 10.3301 4.45767 9.7666 5.673 9.59227C5.973 8.2231 6.63425 7.08018 7.65675 6.16351C8.67925 5.24685 9.877 4.70776 11.25 4.54626V12.7463L9.41925 10.9463L8.3655 12L12 15.6345L15.6345 12L14.5807 10.9463L12.75 12.7463V4.54626C14.3833 4.75393 15.75 5.46385 16.85 6.67601C17.95 7.88818 18.5 9.32952 18.5 11V11.5H18.8078C19.8616 11.582 20.7404 12.0058 21.4443 12.7713C22.1481 13.5366 22.5 14.4462 22.5 15.5C22.5 16.6153 22.1122 17.5609 21.3365 18.3365C20.5608 19.1122 19.6153 19.5 18.5 19.5H6.5Z" fill="#1A1A1A"/>
</svg>