<svg xmlns="http://www.w3.org/2000/svg" width="24" height="24" viewBox="0 0 24 24" fill="none">
  <path d="M12.6 21.8173C11.2705 21.8173 10.0238 21.565 8.85975 21.0605C7.69558 20.556 6.68017 19.8704 5.8135 19.0038C4.94683 18.1371 4.26125 17.1217 3.75675 15.9575C3.25225 14.7935 3 13.5468 3 12.2173C3 10.0276 3.66767 8.07725 5.003 6.36625C6.33817 4.65542 8.06475 3.53333 10.1828 3C9.99808 4.60517 10.1634 6.16158 10.6788 7.66925C11.1943 9.17692 12.0244 10.5032 13.1693 11.648C14.3141 12.7928 15.6403 13.623 17.148 14.1385C18.6557 14.6538 20.2121 14.8192 21.8173 14.6345C21.2943 16.7525 20.1747 18.4791 18.4585 19.8143C16.7425 21.1496 14.7897 21.8173 12.6 21.8173Z" fill="#1A1A1A"/>
</svg>