<svg xmlns="http://www.w3.org/2000/svg" width="24" height="24" viewBox="0 0 24 24" fill="none">
  <path d="M16.7783 20.4865C16.6581 20.4865 16.5381 20.472 16.4183 20.443C16.2983 20.4138 16.1857 20.3629 16.0807 20.2903L13.4078 18.7328C13.1961 18.6114 13.0335 18.4484 12.92 18.2438C12.8067 18.0391 12.75 17.8155 12.75 17.573V14.452C12.75 14.2095 12.8067 13.9859 12.92 13.7813C13.0335 13.5766 13.1961 13.4136 13.4078 13.2923L16.0807 11.7348C16.1859 11.6621 16.2986 11.6112 16.4187 11.582C16.5389 11.553 16.6591 11.5385 16.7793 11.5385C16.8994 11.5385 17.0155 11.5567 17.1275 11.593C17.2393 11.6293 17.3475 11.6766 17.452 11.7348L20.125 13.2923C20.3373 13.4136 20.5042 13.5766 20.6255 13.7813C20.747 13.9859 20.8078 14.2095 20.8078 14.452V17.573C20.8078 17.8155 20.747 18.0391 20.6255 18.2438C20.5042 18.4484 20.3373 18.6114 20.125 18.7328L17.452 20.2918C17.3482 20.3511 17.2399 20.3983 17.1273 20.4335C17.0146 20.4688 16.8983 20.4865 16.7783 20.4865ZM2.5 19.3078V17.0845C2.5 16.5795 2.62883 16.1222 2.8865 15.7125C3.14417 15.3028 3.50383 14.9858 3.9655 14.7615C4.79617 14.3475 5.69358 14.0017 6.65775 13.724C7.62175 13.4465 8.73583 13.3078 10 13.3078H10.2923C10.3794 13.3078 10.4666 13.318 10.5538 13.3385C10.1666 14.3077 10.0035 15.3278 10.0645 16.399C10.1253 17.4702 10.4307 18.4398 10.9808 19.3078H2.5ZM10 11.6923C9.0375 11.6923 8.21358 11.3496 7.52825 10.6643C6.84275 9.97876 6.5 9.15476 6.5 8.19226C6.5 7.22976 6.84275 6.40584 7.52825 5.72051C8.21358 5.03501 9.0375 4.69226 10 4.69226C10.9625 4.69226 11.7864 5.03501 12.4718 5.72051C13.1573 6.40584 13.5 7.22976 13.5 8.19226C13.5 9.15476 13.1573 9.97876 12.4718 10.6643C11.7864 11.3496 10.9625 11.6923 10 11.6923ZM14.4962 14.0038L16.7788 15.3308L19.0615 14.0038L16.7788 12.6923L14.4962 14.0038ZM17.375 18.9538L19.6152 17.66V14.923L17.375 16.2578V18.9538ZM13.9423 17.6635L16.1827 18.9788V16.2828L13.9423 14.9578V17.6635Z" fill="#1A1A1A"/>
</svg>