<svg xmlns="http://www.w3.org/2000/svg" width="24" height="24" viewBox="0 0 24 24" fill="none">
  <path d="M8.5 20.5V19H10.5V17H4.30775C3.80258 17 3.375 16.825 3.025 16.475C2.675 16.125 2.5 15.6974 2.5 15.1923V5.30775C2.5 4.80258 2.675 4.375 3.025 4.025C3.375 3.675 3.80258 3.5 4.30775 3.5H19.6923C20.1974 3.5 20.625 3.675 20.975 4.025C21.325 4.375 21.5 4.80258 21.5 5.30775V15.1923C21.5 15.6974 21.325 16.125 20.975 16.475C20.625 16.825 20.1974 17 19.6923 17H13.5V19H15.5V20.5H8.5Z" fill="#1A1A1A"/>
</svg>