<svg xmlns="http://www.w3.org/2000/svg" width="24" height="24" viewBox="0 0 24 24" fill="none">
  <path d="M2.5 21.0385V4.30775C2.5 3.80258 2.675 3.375 3.025 3.025C3.375 2.675 3.80258 2.5 4.30775 2.5H19.6923C20.1974 2.5 20.625 2.675 20.975 3.025C21.325 3.375 21.5 3.80258 21.5 4.30775V15.6923C21.5 16.1974 21.325 16.625 20.975 16.975C20.625 17.325 20.1974 17.5 19.6923 17.5H6.0385L2.5 21.0385ZM12 14.7115C12.2288 14.7115 12.4207 14.6341 12.5755 14.4793C12.7303 14.3244 12.8077 14.1326 12.8077 13.9038C12.8077 13.6749 12.7303 13.4831 12.5755 13.3282C12.4207 13.1736 12.2288 13.0963 12 13.0963C11.7712 13.0963 11.5793 13.1736 11.4245 13.3282C11.2697 13.4831 11.1923 13.6749 11.1923 13.9038C11.1923 14.1326 11.2697 14.3244 11.4245 14.4793C11.5793 14.6341 11.7712 14.7115 12 14.7115ZM11.25 11.2308H12.75V5.19225H11.25V11.2308Z" fill="#1A1A1A"/>
</svg>