<svg xmlns="http://www.w3.org/2000/svg" width="24" height="24" viewBox="0 0 24 24" fill="none">
  <path d="M1.79822 19.3078V17.0845C1.79822 16.5692 1.93122 16.1093 2.19722 15.7048C2.46322 15.3003 2.81847 14.9856 3.26297 14.7608C4.2133 14.2959 5.16888 13.9375 6.12972 13.6855C7.09072 13.4337 8.1468 13.3078 9.29797 13.3078C10.4493 13.3078 11.5054 13.4337 12.4662 13.6855C13.4272 13.9375 14.3829 14.2959 15.3332 14.7608C15.7777 14.9856 16.133 15.3003 16.399 15.7048C16.665 16.1093 16.798 16.5692 16.798 17.0845V19.3078H1.79822ZM18.798 19.3078V16.9615C18.798 16.3052 18.6373 15.6796 18.316 15.0848C17.9945 14.4901 17.5385 13.9798 16.948 13.554C17.6185 13.654 18.2551 13.8088 18.8577 14.0183C19.4602 14.2279 20.0352 14.4757 20.5827 14.7615C21.0994 15.0372 21.4984 15.3621 21.7797 15.7363C22.0611 16.1103 22.2017 16.5187 22.2017 16.9615V19.3078H18.798ZM9.29797 11.6923C8.33547 11.6923 7.51155 11.3496 6.82622 10.6643C6.14088 9.97876 5.79822 9.15476 5.79822 8.19226C5.79822 7.22976 6.14088 6.40584 6.82622 5.72051C7.51155 5.03501 8.33547 4.69226 9.29797 4.69226C10.2605 4.69226 11.0845 5.03501 11.77 5.72051C12.4553 6.40584 12.798 7.22976 12.798 8.19226C12.798 9.15476 12.4553 9.97876 11.77 10.6643C11.0845 11.3496 10.2605 11.6923 9.29797 11.6923ZM17.9325 8.19226C17.9325 9.15476 17.5898 9.97876 16.9045 10.6643C16.2191 11.3496 15.3952 11.6923 14.4327 11.6923C14.3199 11.6923 14.1763 11.6794 14.002 11.6538C13.8275 11.6281 13.6839 11.5999 13.5712 11.5693C13.9656 11.0951 14.2686 10.5691 14.4805 9.99126C14.6921 9.41343 14.798 8.81343 14.798 8.19126C14.798 7.56893 14.69 6.97118 14.474 6.39801C14.258 5.82501 13.9571 5.29751 13.5712 4.81551C13.7147 4.76418 13.8583 4.73084 14.002 4.71551C14.1455 4.70001 14.2891 4.69226 14.4327 4.69226C15.3952 4.69226 16.2191 5.03501 16.9045 5.72051C17.5898 6.40584 17.9325 7.22976 17.9325 8.19226Z" fill="#1A1A1A"/>
</svg>