<svg xmlns="http://www.w3.org/2000/svg" width="24" height="24" viewBox="0 0 24 24" fill="none">
  <path d="M11.9463 20.8557C11.6821 20.8557 11.4558 20.7663 11.2673 20.5875C11.0788 20.4086 10.9846 20.1807 10.9846 19.9037C10.9846 19.7807 11.0112 19.6487 11.0646 19.5077C11.1177 19.3667 11.1975 19.243 11.3038 19.1365L15.4578 14.9827L14.8193 14.3442L10.6808 18.498C10.5745 18.6045 10.4566 18.6843 10.3271 18.7375C10.1976 18.7906 10.0629 18.8172 9.92306 18.8172C9.65256 18.8172 9.42473 18.7246 9.23956 18.5395C9.05423 18.3541 8.96156 18.1262 8.96156 17.8557C8.96156 17.6956 8.98981 17.5516 9.04631 17.424C9.10264 17.2965 9.17573 17.1878 9.26556 17.098L13.4193 12.9442L12.7961 12.3212L8.64231 16.4595C8.54231 16.5595 8.42598 16.6377 8.29331 16.6942C8.16064 16.7506 8.01931 16.7787 7.86931 16.7787C7.60897 16.7787 7.38364 16.6836 7.19331 16.4932C7.00298 16.3029 6.90781 16.0776 6.90781 15.8172C6.90781 15.6776 6.93439 15.543 6.98756 15.4135C7.04073 15.284 7.12056 15.166 7.22706 15.0595L11.2653 11.0212L10.6271 10.3982L6.60381 14.4365C6.51414 14.5263 6.40298 14.5994 6.27031 14.6557C6.13764 14.7122 5.99114 14.7405 5.83081 14.7405C5.55398 14.7405 5.32448 14.6494 5.14231 14.4672C4.96031 14.2852 4.86931 14.0557 4.86931 13.7787C4.86931 13.6391 4.89589 13.5045 4.94906 13.375C5.00223 13.2455 5.08206 13.1276 5.18856 13.0212L10.4463 7.76348L13.3981 10.7307C13.5814 10.9141 13.7932 11.0519 14.0336 11.1442C14.2741 11.2366 14.5161 11.2827 14.7596 11.2827C15.2672 11.2827 15.7019 11.1096 16.0636 10.7635C16.4251 10.4173 16.6058 9.97498 16.6058 9.43648C16.6058 9.20315 16.5626 8.96473 16.4761 8.72123C16.3894 8.47756 16.2441 8.25381 16.0403 8.04998L12.4788 4.48848L12.9693 3.99798C13.2206 3.75698 13.5116 3.57048 13.8423 3.43848C14.1731 3.30648 14.504 3.24048 14.8348 3.24048C15.2168 3.24048 15.5783 3.30648 15.9193 3.43848C16.2603 3.57048 16.5616 3.76723 16.8231 4.02873L21.0771 8.29798C21.3321 8.55314 21.5256 8.84806 21.6578 9.18273C21.7898 9.51723 21.8558 9.89731 21.8558 10.323C21.8558 10.6563 21.7872 10.9826 21.6501 11.302C21.5129 11.6211 21.3219 11.9031 21.0771 12.148L12.7038 20.5365C12.5833 20.657 12.4619 20.7403 12.3396 20.7865C12.2171 20.8326 12.086 20.8557 11.9463 20.8557ZM3.86156 13.0865L3.01931 12.2442C2.73598 11.9711 2.52089 11.6447 2.37406 11.2652C2.22723 10.8859 2.15381 10.5026 2.15381 10.1152C2.15381 9.70123 2.22756 9.32215 2.37506 8.97798C2.52256 8.63365 2.70848 8.34931 2.93281 8.12498L7.01356 4.02873C7.25456 3.78773 7.53273 3.59606 7.84806 3.45373C8.16356 3.31156 8.48664 3.24048 8.81731 3.24048C9.20964 3.24048 9.56314 3.30131 9.87781 3.42298C10.1926 3.54481 10.4911 3.74673 10.7731 4.02873L15.4173 8.67298C15.5173 8.77298 15.5955 8.88931 15.6518 9.02198C15.7083 9.15481 15.7366 9.28789 15.7366 9.42123C15.7366 9.68789 15.643 9.9164 15.4558 10.1067C15.2686 10.2971 15.0417 10.3922 14.7751 10.3922C14.6251 10.3922 14.4904 10.3682 14.3711 10.3202C14.2519 10.2721 14.134 10.1896 14.0173 10.073L10.4308 6.51723L3.86156 13.0865Z" fill="#1A1A1A"/>
</svg>