<svg xmlns="http://www.w3.org/2000/svg" width="24" height="24" viewBox="0 0 24 24" fill="none">
  <path d="M12.45 13.6845L17.7538 8.38075L16.7 7.29625L12.45 11.5463L10.3 9.427L9.24625 10.4807L12.45 13.6845ZM8.05775 17.5C7.55258 17.5 7.125 17.325 6.775 16.975C6.425 16.625 6.25 16.1974 6.25 15.6923V4.30775C6.25 3.80258 6.425 3.375 6.775 3.025C7.125 2.675 7.55258 2.5 8.05775 2.5H19.4423C19.9474 2.5 20.375 2.675 20.725 3.025C21.075 3.375 21.25 3.80258 21.25 4.30775V15.6923C21.25 16.1974 21.075 16.625 20.725 16.975C20.375 17.325 19.9474 17.5 19.4423 17.5H8.05775ZM4.55775 21C4.05258 21 3.625 20.825 3.275 20.475C2.925 20.125 2.75 19.6974 2.75 19.1923V6.30775H4.25V19.1923C4.25 19.2693 4.28208 19.3398 4.34625 19.4038C4.41025 19.4679 4.48075 19.5 4.55775 19.5H17.4423V21H4.55775Z" fill="#1A1A1A"/>
</svg>