<svg xmlns="http://www.w3.org/2000/svg" width="24" height="24" viewBox="0 0 24 24" fill="none">
  <path d="M11.25 5.21154V1.51929H12.75V5.21154H11.25ZM17.323 7.73079L16.2943 6.70204L18.873 4.03854L19.9365 5.11729L17.323 7.73079ZM18.7885 12.75V11.25H22.4808V12.75H18.7885ZM11.25 22.4808V18.798H12.75V22.4808H11.25ZM6.69629 7.69054L4.03854 5.12704L5.12704 4.07304L7.74054 6.67704L6.69629 7.69054ZM18.8578 19.9615L16.2943 17.298L17.3078 16.2943L19.927 18.8423L18.8578 19.9615ZM1.51929 12.75V11.25H5.21154V12.75H1.51929ZM5.11729 19.9615L4.07304 18.873L6.65204 16.2943L7.19429 16.8058L7.74629 17.3328L5.11729 19.9615ZM12.0023 17.5C10.4751 17.5 9.17629 16.9655 8.10579 15.8965C7.03529 14.8275 6.50004 13.5295 6.50004 12.0023C6.50004 10.4751 7.03454 9.17629 8.10354 8.10579C9.17254 7.03529 10.4706 6.50004 11.9978 6.50004C13.525 6.50004 14.8238 7.03454 15.8943 8.10354C16.9648 9.17254 17.5 10.4706 17.5 11.9978C17.5 13.525 16.9655 14.8238 15.8965 15.8943C14.8275 16.9648 13.5295 17.5 12.0023 17.5Z" fill="#1A1A1A"/>
</svg>