<svg xmlns="http://www.w3.org/2000/svg" width="24" height="24" viewBox="0 0 24 24" fill="none">
  <path d="M12.0018 11.8652C12.4993 11.8652 12.9246 11.6881 13.2778 11.3338C13.6311 10.9794 13.8078 10.5535 13.8078 10.056C13.8078 9.5585 13.6306 9.13308 13.2763 8.77975C12.9219 8.42658 12.4959 8.25 11.9983 8.25C11.5008 8.25 11.0754 8.42717 10.7223 8.7815C10.3689 9.13583 10.1923 9.56183 10.1923 10.0595C10.1923 10.557 10.3694 10.9823 10.7238 11.3355C11.0781 11.6887 11.5041 11.8652 12.0018 11.8652ZM12 21.5095C9.48336 19.3288 7.59619 17.2994 6.33853 15.4212C5.08086 13.5429 4.45203 11.8185 4.45203 10.248C4.45203 7.94033 5.19844 6.07208 6.69128 4.64325C8.18428 3.21442 9.95386 2.5 12 2.5C14.0462 2.5 15.8158 3.21442 17.3088 4.64325C18.8016 6.07208 19.548 7.94033 19.548 10.248C19.548 11.8185 18.9192 13.5429 17.6615 15.4212C16.4039 17.2994 14.5167 19.3288 12 21.5095Z" fill="#1A1A1A"/>
</svg>