<svg xmlns="http://www.w3.org/2000/svg" width="24" height="24" viewBox="0 0 24 24" fill="none">
  <path d="M6 15C5.45 15 4.97917 14.8042 4.5875 14.4125C4.19583 14.0208 4 13.55 4 13C4 12.45 4.19583 11.9792 4.5875 11.5875C4.97917 11.1958 5.45 11 6 11C6.55 11 7.02083 11.1958 7.4125 11.5875C7.80417 11.9792 8 12.45 8 13C8 13.55 7.80417 14.0208 7.4125 14.4125C7.02083 14.8042 6.55 15 6 15ZM12 15C11.45 15 10.9792 14.8042 10.5875 14.4125C10.1958 14.0208 10 13.55 10 13C10 12.45 10.1958 11.9792 10.5875 11.5875C10.9792 11.1958 11.45 11 12 11C12.55 11 13.0208 11.1958 13.4125 11.5875C13.8042 11.9792 14 12.45 14 13C14 13.55 13.8042 14.0208 13.4125 14.4125C13.0208 14.8042 12.55 15 12 15ZM18 15C17.45 15 16.9792 14.8042 16.5875 14.4125C16.1958 14.0208 16 13.55 16 13C16 12.45 16.1958 11.9792 16.5875 11.5875C16.9792 11.1958 17.45 11 18 11C18.55 11 19.0208 11.1958 19.4125 11.5875C19.8042 11.9792 20 12.45 20 13C20 13.55 19.8042 14.0208 19.4125 14.4125C19.0208 14.8042 18.55 15 18 15Z" fill="#1A1A1A"/>
</svg>