<svg xmlns="http://www.w3.org/2000/svg" width="24" height="24" viewBox="0 0 24 24" fill="none">
  <path d="M17.323 20.0385L20.4807 16.9155L19.6423 16.077L17.323 18.3558L16.3577 17.3807L15.5193 18.2345L17.323 20.0385ZM6.38475 8.86525H17.6152V7.3655H6.38475V8.86525ZM18 22.5578C16.7513 22.5578 15.6892 22.1199 14.8135 21.2443C13.9378 20.3686 13.5 19.3064 13.5 18.0577C13.5 16.8091 13.9378 15.7469 14.8135 14.8713C15.6892 13.9956 16.7513 13.5577 18 13.5577C19.2487 13.5577 20.3108 13.9956 21.1865 14.8713C22.0622 15.7469 22.5 16.8091 22.5 18.0577C22.5 19.3064 22.0622 20.3686 21.1865 21.2443C20.3108 22.1199 19.2487 22.5578 18 22.5578ZM3.5 21.3845V5.30775C3.5 4.80908 3.67658 4.38308 4.02975 4.02975C4.38308 3.67658 4.80908 3.5 5.30775 3.5H18.6923C19.1909 3.5 19.6169 3.67658 19.9703 4.02975C20.3234 4.38308 20.5 4.80908 20.5 5.30775V11.6173C19.9692 11.4033 19.4208 11.2677 18.8548 11.2105C18.2888 11.1535 17.725 11.1667 17.1635 11.25H6.38475V12.75H13.5905C13.1982 13.0653 12.8459 13.4233 12.5338 13.824C12.2216 14.2247 11.9578 14.6616 11.7423 15.1348H6.38475V16.6345H11.277C11.2243 16.8525 11.1858 17.0695 11.1615 17.2855C11.1372 17.5015 11.125 17.7301 11.125 17.9712C11.125 18.5494 11.1968 19.1113 11.3405 19.6568C11.484 20.2023 11.6993 20.725 11.9865 21.225L11.8942 21.3173L10.577 20.1538L9.15375 21.3845L7.73075 20.1538L6.30775 21.3845L4.88475 20.1538L3.5 21.3845Z" fill="#1A1A1A"/>
</svg>