<svg xmlns="http://www.w3.org/2000/svg" width="24" height="24" viewBox="0 0 24 24" fill="none">
  <path d="M11.25 21.2922V12.4307L3.5 7.94997V15.7922C3.5 16.1204 3.5795 16.4217 3.7385 16.6962C3.8975 16.9706 4.11933 17.1897 4.404 17.3537L11.25 21.2922ZM12.75 21.2922L19.596 17.3537C19.8807 17.1897 20.1025 16.9706 20.2615 16.6962C20.4205 16.4217 20.5 16.1204 20.5 15.7922V7.94997L12.75 12.4307V21.2922ZM16.571 8.49422L19.6845 6.69222L12.9038 2.79422C12.6193 2.63006 12.318 2.54797 12 2.54797C11.682 2.54797 11.3808 2.63006 11.0963 2.79422L8.9 4.05397L16.571 8.49422ZM12 11.1385L15.0712 9.37122L7.39625 4.92497L4.30975 6.69797L12 11.1385Z" fill="#1A1A1A"/>
</svg>