<svg xmlns="http://www.w3.org/2000/svg" width="24" height="24" viewBox="0 0 24 24" fill="none">
  <path d="M9.95002 21C9.50002 21 9.07086 20.9042 8.66252 20.7125C8.25419 20.5208 7.90836 20.25 7.62502 19.9L1.15002 11.925L1.80002 11.3C2.11669 10.9833 2.49169 10.8 2.92502 10.75C3.35836 10.7 3.75002 10.8 4.10002 11.05L7.00002 13.075V3C7.00002 2.71667 7.09586 2.47917 7.28752 2.2875C7.47919 2.09583 7.71669 2 8.00002 2C8.28336 2 8.52086 2.09583 8.71252 2.2875C8.90419 2.47917 9.00002 2.71667 9.00002 3V11H11V7C11 6.71667 11.0959 6.47917 11.2875 6.2875C11.4792 6.09583 11.7167 6 12 6C12.2834 6 12.5209 6.09583 12.7125 6.2875C12.9042 6.47917 13 6.71667 13 7V11H15V8C15 7.71667 15.0959 7.47917 15.2875 7.2875C15.4792 7.09583 15.7167 7 16 7C16.2834 7 16.5209 7.09583 16.7125 7.2875C16.9042 7.47917 17 7.71667 17 8V11H19V10C19 9.71667 19.0959 9.47917 19.2875 9.2875C19.4792 9.09583 19.7167 9 20 9C20.2834 9 20.5209 9.09583 20.7125 9.2875C20.9042 9.47917 21 9.71667 21 10V17C21 18.1 20.6084 19.0417 19.825 19.825C19.0417 20.6083 18.1 21 17 21H9.95002Z" fill="#1A1A1A"/>
</svg>