<svg xmlns="http://www.w3.org/2000/svg" width="24" height="24" viewBox="0 0 24 24" fill="none">
  <path d="M14.9712 18.5L13.9173 17.4402L17.627 13.7692H7.6635C6.50967 13.7692 5.52733 13.3686 4.7165 12.5673C3.9055 11.7661 3.5 10.7886 3.5 9.63475C3.5 8.48075 3.9055 7.50317 4.7165 6.702C5.52733 5.90067 6.50967 5.5 7.6635 5.5H8.14425V7H7.6635C6.925 7 6.2965 7.2545 5.778 7.7635C5.25933 8.2725 5 8.89625 5 9.63475C5 10.3731 5.25933 10.9968 5.778 11.5058C6.2965 12.0148 6.925 12.2692 7.6635 12.2692H17.627L13.9173 8.573L14.9712 7.529L20.5 13.0192L14.9712 18.5Z" fill="#1A1A1A"/>
</svg>