<svg xmlns="http://www.w3.org/2000/svg" width="24" height="24" viewBox="0 0 24 24" fill="none">
  <path d="M10.9655 15.7692C10.9655 14.6372 11.0959 13.7705 11.3568 13.1692C11.6176 12.5679 12.1622 11.9012 12.9905 11.1692C13.6353 10.5949 14.1241 10.074 14.4568 9.60669C14.7894 9.13936 14.9558 8.60953 14.9558 8.01719C14.9558 7.23136 14.6882 6.57819 14.153 6.05769C13.6177 5.53719 12.8808 5.27694 11.9423 5.27694C11.0859 5.27694 10.4193 5.50636 9.94226 5.96519C9.46543 6.42419 9.10326 6.93644 8.85576 7.50194L7.03076 6.69994C7.41926 5.74228 8.02568 4.94386 8.85001 4.30469C9.67435 3.66569 10.7051 3.34619 11.9423 3.34619C13.5576 3.34619 14.8008 3.80161 15.672 4.71244C16.5432 5.62328 16.9788 6.70436 16.9788 7.95569C16.9788 8.73769 16.8093 9.42777 16.4703 10.0259C16.1311 10.6239 15.6167 11.2467 14.927 11.8942C14.059 12.6904 13.5215 13.3182 13.3145 13.7777C13.1073 14.2374 13.0038 14.9012 13.0038 15.7692H10.9655ZM11.9423 21.4999C11.5333 21.4999 11.181 21.3522 10.8855 21.0567C10.59 20.7612 10.4423 20.4089 10.4423 19.9999C10.4423 19.5909 10.59 19.2387 10.8855 18.9432C11.181 18.6477 11.5333 18.4999 11.9423 18.4999C12.3513 18.4999 12.7035 18.6477 12.999 18.9432C13.2945 19.2387 13.4423 19.5909 13.4423 19.9999C13.4423 20.4089 13.2945 20.7612 12.999 21.0567C12.7035 21.3522 12.3513 21.4999 11.9423 21.4999Z" fill="#1A1A1A"/>
</svg>