<svg xmlns="http://www.w3.org/2000/svg" width="24" height="24" viewBox="0 0 24 24" fill="none">
  <path d="M6.30775 21.5C5.80258 21.5 5.375 21.325 5.025 20.975C4.675 20.625 4.5 20.1974 4.5 19.6923V4.30775C4.5 3.80258 4.675 3.375 5.025 3.025C5.375 2.675 5.80258 2.5 6.30775 2.5H14.25L19.5 7.75V19.6923C19.5 20.1974 19.325 20.625 18.975 20.975C18.625 21.325 18.1974 21.5 17.6923 21.5H6.30775ZM11.423 18.625H12.923V17.625H14.173C14.3855 17.625 14.5637 17.5531 14.7075 17.4093C14.8512 17.2656 14.923 17.0875 14.923 16.875V13.875C14.923 13.6625 14.8512 13.4844 14.7075 13.3408C14.5637 13.1969 14.3855 13.125 14.173 13.125H10.923V11.625H14.923V10.125H12.923V9.125H11.423V10.125H10.173C9.9605 10.125 9.78242 10.1969 9.63875 10.3408C9.49492 10.4844 9.423 10.6625 9.423 10.875V13.875C9.423 14.0875 9.49492 14.2656 9.63875 14.4093C9.78242 14.5531 9.9605 14.625 10.173 14.625H13.423V16.125H9.423V17.625H11.423V18.625ZM13.627 7.75H17.377L13.627 4V7.75Z" fill="#1A1A1A"/>
</svg>