<svg xmlns="http://www.w3.org/2000/svg" width="24" height="24" viewBox="0 0 24 24" fill="none">
  <path d="M6.36544 19.5095L7.78844 15.9615C7.90644 15.6744 8.09202 15.444 8.34519 15.2703C8.59836 15.0965 8.88202 15.0095 9.19619 15.0095H11.2499V10.5903C8.83461 10.5263 6.80927 10.1962 5.17394 9.60004C3.53877 9.00387 2.72119 8.30387 2.72119 7.50004C2.72119 6.63587 3.62244 5.9022 5.42494 5.29904C7.22744 4.69587 9.41911 4.39429 11.9999 4.39429C14.5909 4.39429 16.7852 4.69587 18.5827 5.29904C20.38 5.9022 21.2787 6.63587 21.2787 7.50004C21.2787 8.3102 20.4594 9.01179 18.8209 9.60479C17.1826 10.1978 15.1589 10.5263 12.7499 10.5903V15.0095H14.8037C15.1075 15.0095 15.3886 15.0965 15.6469 15.2703C15.9053 15.444 16.0934 15.6744 16.2114 15.9615L17.6344 19.5095H16.1154L14.9154 16.5095H9.08444L7.88444 19.5095H6.36544Z" fill="#1A1A1A"/>
</svg>