<svg xmlns="http://www.w3.org/2000/svg" width="24" height="24" viewBox="0 0 24 24" fill="none">
  <path d="M12 20.2693C12.2448 20.2693 12.4535 20.183 12.626 20.0105C12.7983 19.8382 12.8845 19.6295 12.8845 19.3845C12.8845 19.1397 12.7983 18.9311 12.626 18.7587C12.4535 18.5862 12.2448 18.5 12 18.5C11.7552 18.5 11.5465 18.5862 11.374 18.7587C11.2017 18.9311 11.1155 19.1397 11.1155 19.3845C11.1155 19.6295 11.2017 19.8382 11.374 20.0105C11.5465 20.183 11.7552 20.2693 12 20.2693ZM5.30775 22.5C4.81058 22.5 4.385 22.323 4.031 21.969C3.677 21.615 3.5 21.1894 3.5 20.6923V3.30775C3.5 2.81058 3.677 2.385 4.031 2.031C4.385 1.677 4.81058 1.5 5.30775 1.5H18.6923C19.1894 1.5 19.615 1.677 19.969 2.031C20.323 2.385 20.5 2.81058 20.5 3.30775V20.6923C20.5 21.1894 20.323 21.615 19.969 21.969C19.615 22.323 19.1894 22.5 18.6923 22.5H5.30775ZM5 16.2693H19V5.75H5V16.2693Z" fill="#1A1A1A"/>
</svg>