<svg xmlns="http://www.w3.org/2000/svg" width="24" height="24" viewBox="0 0 24 24" fill="none">
  <path d="M19.7616 21.8692L15.7156 17.8537C15.2027 18.0435 14.6344 18.1987 14.0106 18.3192C13.3869 18.4397 12.7167 18.4999 12.0001 18.4999C9.65007 18.4999 7.53666 17.8538 5.65982 16.5614C3.78282 15.2691 2.40907 13.5819 1.53857 11.4999C1.90774 10.6166 2.38466 9.79261 2.96932 9.02794C3.55399 8.26311 4.19757 7.59994 4.90007 7.03844L2.13082 4.23844L3.18482 3.18469L20.8153 20.8152L19.7616 21.8692ZM12.0001 15.5769C12.2091 15.5769 12.4232 15.5589 12.6423 15.5229C12.8617 15.4871 13.0566 15.4345 13.2271 15.3652L8.13482 10.2729C8.06549 10.4563 8.01291 10.6559 7.97707 10.8719C7.94107 11.0881 7.92307 11.2974 7.92307 11.4999C7.92307 12.6346 8.31891 13.5978 9.11058 14.3894C9.90224 15.1811 10.8654 15.5769 12.0001 15.5769ZM18.9538 16.0844L15.8173 12.9729C15.8955 12.7601 15.9583 12.5319 16.0058 12.2884C16.0533 12.0448 16.0771 11.7819 16.0771 11.4999C16.0771 10.3653 15.6812 9.40211 14.8896 8.61044C14.0979 7.81878 13.1347 7.42294 12.0001 7.42294C11.7181 7.42294 11.4585 7.44828 11.2213 7.49894C10.9842 7.54961 10.7559 7.62561 10.5366 7.72694L8.03482 5.23469C8.66682 4.98336 9.31233 4.79811 9.97132 4.67894C10.6303 4.55961 11.3066 4.49994 12.0001 4.49994C14.3436 4.49994 16.457 5.14611 18.3403 6.43844C20.2237 7.73077 21.5974 9.41794 22.4616 11.4999C22.0911 12.3934 21.6126 13.2274 21.0261 14.0019C20.4394 14.7763 19.7487 15.4704 18.9538 16.0844ZM14.6846 11.8499L11.6751 8.84994C12.1161 8.76661 12.5324 8.79927 12.9241 8.94794C13.3157 9.09678 13.6532 9.31794 13.9366 9.61144C14.2264 9.90511 14.4386 10.2494 14.5731 10.6442C14.7077 11.039 14.7449 11.4409 14.6846 11.8499Z" fill="#1A1A1A"/>
</svg>