<svg xmlns="http://www.w3.org/2000/svg" width="20" height="20" viewBox="0 0 20 20" fill="none">
  <path d="M15.5917 16.25C14.9 17.2833 14.1667 18.2916 13.05 18.3083C11.9333 18.3333 11.575 17.65 10.3083 17.65C9.03333 17.65 8.64166 18.2916 7.58333 18.3333C6.49166 18.375 5.66666 17.2333 4.96666 16.225C3.54166 14.1666 2.45 10.375 3.91666 7.82496C4.64166 6.55829 5.94166 5.75829 7.35 5.73329C8.41666 5.71663 9.43333 6.45829 10.0917 6.45829C10.7417 6.45829 11.975 5.56663 13.2667 5.69996C13.8083 5.72496 15.325 5.91663 16.3 7.34996C16.225 7.39996 14.4917 8.41663 14.5083 10.525C14.5333 13.0416 16.7167 13.8833 16.7417 13.8916C16.7167 13.95 16.3917 15.0916 15.5917 16.25ZM10.8333 2.91663C11.4417 2.22496 12.45 1.69996 13.2833 1.66663C13.3917 2.64163 13 3.62496 12.4167 4.32496C11.8417 5.03329 10.8917 5.58329 9.95833 5.50829C9.83333 4.54996 10.3 3.54996 10.8333 2.91663Z" fill="#1A1A1A"/>
</svg>