<svg xmlns="http://www.w3.org/2000/svg" width="20" height="20" viewBox="0 0 20 20" fill="none">
  <path d="M9.24996 17V15.3333C8.54163 15.1806 7.93399 14.8611 7.42704 14.375C6.9201 13.8889 6.56246 13.2847 6.35413 12.5625L7.89579 11.9375C8.0069 12.4375 8.28815 12.8854 8.73954 13.2812C9.19093 13.6771 9.65968 13.875 10.1458 13.875C10.6875 13.875 11.1319 13.7361 11.4791 13.4583C11.8263 13.1806 12 12.8194 12 12.375C12 11.9583 11.8437 11.6111 11.5312 11.3333C11.2187 11.0556 10.6666 10.7778 9.87496 10.5C8.79163 10.1111 7.99996 9.68403 7.49996 9.21875C6.99996 8.75347 6.74996 8.15278 6.74996 7.41667C6.74996 6.72222 6.97565 6.125 7.42704 5.625C7.87843 5.125 8.48607 4.79861 9.24996 4.64583V3H10.75V4.64583C11.75 4.8125 12.4201 5.19444 12.7604 5.79167C13.1007 6.38889 13.2777 6.70139 13.2916 6.72917L11.8333 7.33333C11.7222 6.97222 11.5 6.67361 11.1666 6.4375C10.8333 6.20139 10.4652 6.08333 10.0625 6.08333C9.57635 6.08333 9.17357 6.20833 8.85413 6.45833C8.53468 6.70833 8.37496 7.01389 8.37496 7.375C8.37496 7.73611 8.54857 8.04514 8.89579 8.30208C9.24301 8.55903 9.88885 8.84722 10.8333 9.16667C11.8055 9.48611 12.5138 9.90278 12.9583 10.4167C13.4027 10.9306 13.625 11.5833 13.625 12.375C13.625 13.1667 13.368 13.8333 12.8541 14.375C12.3402 14.9167 11.6388 15.2569 10.75 15.3958V17H9.24996Z" fill="#1A1A1A"/>
</svg>