<svg xmlns="http://www.w3.org/2000/svg" width="20" height="20" viewBox="0 0 20 20" fill="none">
  <path d="M11.0648 19C9.94688 19 8.89882 18.7871 7.92063 18.3612C6.94257 17.9354 6.09083 17.3599 5.36542 16.6346C4.64014 15.9092 4.06458 15.0574 3.63875 14.0794C3.21292 13.1012 3 12.0531 3 10.9352C3 8.99229 3.61111 7.27431 4.83333 5.78125C6.05556 4.28819 7.63889 3.36111 9.58333 3C9.34722 4.375 9.42708 5.68056 9.82292 6.91667C10.2188 8.15278 10.8958 9.25 11.8542 10.2083C12.7847 11.1389 13.8819 11.7986 15.1458 12.1875C16.4097 12.5764 17.6944 12.6528 19 12.4167C18.6667 14.3333 17.7465 15.9097 16.2396 17.1458C14.7326 18.3819 13.0077 19 11.0648 19Z" fill="#1A1A1A"/>
</svg>