<svg xmlns="http://www.w3.org/2000/svg" width="20" height="20" viewBox="0 0 20 20" fill="none">
  <path d="M9.25 4V1H10.75V4H9.25ZM14.7708 6.33333L13.6458 5.25L15.8125 3.125L16.8958 4.16667L14.7708 6.33333ZM16 10.75V9.25H19V10.75H16ZM9.25 19V16H10.75V19H9.25ZM5.22917 6.29167L3.0625 4.16667L4.1875 3.125L6.29167 5.22917L5.22917 6.29167ZM15.8333 16.9375L13.7292 14.75L14.7708 13.7083L16.9375 15.7917L15.8333 16.9375ZM1 10.75V9.25H4V10.75H1ZM4.16667 16.9375L3.10417 15.8333L5.22917 13.75L5.75 14.25L6.25 14.7708L4.16667 16.9375ZM10 15C8.61111 15 7.43056 14.5139 6.45833 13.5417C5.48611 12.5694 5 11.3889 5 10C5 8.61111 5.48611 7.43056 6.45833 6.45833C7.43056 5.48611 8.61111 5 10 5C11.3889 5 12.5694 5.48611 13.5417 6.45833C14.5139 7.43056 15 8.61111 15 10C15 11.3889 14.5139 12.5694 13.5417 13.5417C12.5694 14.5139 11.3889 15 10 15Z" fill="#1A1A1A"/>
</svg>