<svg xmlns="http://www.w3.org/2000/svg" width="20" height="20" viewBox="0 0 20 20" fill="none">
  <path d="M9.25 16H5C3.88889 16 2.94444 15.6076 2.16667 14.8229C1.38889 14.0382 1 13.0903 1 11.9792C1 10.8958 1.35764 9.96181 2.07292 9.17708C2.78819 8.39236 3.67361 8 4.72917 8C5.04861 6.80556 5.69792 5.84028 6.67708 5.10417C7.65625 4.36806 8.76389 4 10 4C11.4861 4 12.7743 4.47569 13.8646 5.42708C14.9549 6.37847 15.5 7.56944 15.5 9C16.4722 9 17.2986 9.34028 17.9792 10.0208C18.6597 10.7014 19 11.5208 19 12.4792C19 13.4514 18.6597 14.2812 17.9792 14.9688C17.2986 15.6562 16.4722 16 15.5 16H10.75V10.875L11.9375 12.0625L13 11L10 8L7 11L8.0625 12.0625L9.25 10.875V16Z" fill="#1A1A1A"/>
</svg>