<svg xmlns="http://www.w3.org/2000/svg" width="20" height="20" viewBox="0 0 20 20" fill="none">
  <path d="M5 16C3.88889 16 2.94444 15.6077 2.16667 14.823C1.38889 14.0382 1 13.0903 1 11.9792C1 10.8959 1.35764 9.96185 2.07292 9.17712C2.78819 8.3924 3.67361 8.00004 4.72917 8.00004C5.00694 6.94449 5.55903 6.06601 6.38542 5.36462C7.21181 4.66324 8.16667 4.2431 9.25 4.10421V10.6875L8.0625 9.50004L7 10.5625L10 13.5625L13 10.5625L11.9375 9.50004L10.75 10.6875V4.08337C12.0694 4.25004 13.191 4.78824 14.1146 5.69796C15.0382 6.60768 15.5 7.70837 15.5 9.00004C16.4722 9.00004 17.2986 9.34032 17.9792 10.0209C18.6597 10.7014 19 11.5209 19 12.4792C19 13.4514 18.6597 14.2813 17.9792 14.9688C17.2986 15.6563 16.4722 16 15.5 16H5Z" fill="#1A1A1A"/>
</svg>