<svg xmlns="http://www.w3.org/2000/svg" width="20" height="20" viewBox="0 0 20 20" fill="none">
  <path d="M5.54175 16V4H10.2907C11.222 4 12.0799 4.28694 12.8647 4.86083C13.6494 5.43486 14.0417 6.23125 14.0417 7.25C14.0417 7.95833 13.8855 8.51042 13.573 8.90625C13.2605 9.30208 12.9654 9.59056 12.6876 9.77167C13.0487 9.93778 13.4376 10.2361 13.8542 10.6667C14.2709 11.0972 14.4792 11.7292 14.4792 12.5625C14.4792 13.8264 14.0138 14.7153 13.0828 15.2292C12.1518 15.7431 11.2781 16 10.4617 16H5.54175ZM8.18758 13.5417H10.3684C11.0395 13.5417 11.4445 13.3715 11.5834 13.0312C11.7223 12.691 11.7917 12.4444 11.7917 12.2917C11.7917 12.1389 11.7188 11.8924 11.573 11.5521C11.4272 11.2118 11.0001 11.0417 10.2917 11.0417H8.18758V13.5417ZM8.18758 8.70833H10.1251C10.5834 8.70833 10.9202 8.58681 11.1355 8.34375C11.3508 8.10069 11.4584 7.84028 11.4584 7.5625C11.4584 7.22917 11.3396 6.95833 11.102 6.75C10.8643 6.54167 10.5568 6.4375 10.1795 6.4375H8.18758V8.70833Z" fill="#1A1A1A"/>
</svg>