<svg width="20" height="20" viewBox="0 0 20 20" fill="none" xmlns="http://www.w3.org/2000/svg">
<g id="20px/format_underlined">
<path id="Vector" d="M5 17V15.5H15V17H5ZM10 14C8.66667 14 7.63542 13.5875 6.90625 12.7625C6.17708 11.9375 5.8125 10.844 5.8125 9.48208V3H7.83771V9.60604C7.83771 10.3401 8.02125 10.9365 8.38833 11.3952C8.75542 11.854 9.29285 12.0833 10.0006 12.0833C10.7085 12.0833 11.246 11.854 11.6129 11.3952C11.9797 10.9365 12.1631 10.3401 12.1631 9.60604V3H14.1875V9.48208C14.1875 10.844 13.8229 11.9375 13.0938 12.7625C12.3646 13.5875 11.3333 14 10 14Z" fill="#1A1A1A"/>
</g>
</svg>
