<svg xmlns="http://www.w3.org/2000/svg" width="20" height="20" viewBox="0 0 20 20" fill="none">
  <path d="M18.1712 8.36788H17.5V8.33329H9.99996V11.6666H14.7095C14.0225 13.607 12.1762 15 9.99996 15C7.23871 15 4.99996 12.7612 4.99996 9.99996C4.99996 7.23871 7.23871 4.99996 9.99996 4.99996C11.2745 4.99996 12.4341 5.48079 13.317 6.26621L15.6741 3.90913C14.1858 2.52204 12.195 1.66663 9.99996 1.66663C5.39788 1.66663 1.66663 5.39788 1.66663 9.99996C1.66663 14.602 5.39788 18.3333 9.99996 18.3333C14.602 18.3333 18.3333 14.602 18.3333 9.99996C18.3333 9.44121 18.2758 8.89579 18.1712 8.36788Z" fill="#FFC107"/>
  <path d="M2.62756 6.12121L5.36548 8.12913C6.10631 6.29496 7.90048 4.99996 10.0001 4.99996C11.2746 4.99996 12.4342 5.48079 13.3171 6.26621L15.6742 3.90913C14.1859 2.52204 12.1951 1.66663 10.0001 1.66663C6.79923 1.66663 4.0234 3.47371 2.62756 6.12121Z" fill="#FF3D00"/>
  <path d="M9.99993 18.3334C12.1524 18.3334 14.1083 17.5096 15.587 16.17L13.0078 13.9875C12.1712 14.6213 11.1312 15 9.99993 15C7.83243 15 5.99201 13.618 5.29868 11.6892L2.58118 13.783C3.96034 16.4817 6.76118 18.3334 9.99993 18.3334Z" fill="#4CAF50"/>
  <path d="M18.1712 8.36796H17.5V8.33337H10V11.6667H14.7096C14.3796 12.5988 13.78 13.4025 13.0067 13.988L13.0079 13.9871L15.5871 16.1696C15.4046 16.3355 18.3333 14.1667 18.3333 10C18.3333 9.44129 18.2758 8.89587 18.1712 8.36796Z" fill="#1976D2"/>
</svg>