<svg xmlns="http://www.w3.org/2000/svg" width="20" height="20" viewBox="0 0 20 20" fill="none">
  <path d="M7.20841 9.79158H12.7917V8.70829H7.20841V9.79158ZM7.20841 6.79159H12.7917V5.70829H7.20841V6.79159ZM15.5465 16.5256L12.8696 13.0083C12.6799 12.7538 12.445 12.5568 12.165 12.4174C11.885 12.278 11.58 12.2083 11.2501 12.2083H4.41675V3.75638C4.41675 3.38127 4.54634 3.0642 4.80554 2.80517C5.06473 2.54614 5.382 2.41663 5.75733 2.41663H14.2495C14.6249 2.41663 14.941 2.54614 15.198 2.80517C15.4549 3.0642 15.5834 3.38127 15.5834 3.75638V16.2435C15.5834 16.2935 15.582 16.3426 15.5794 16.3908C15.5767 16.439 15.5657 16.4839 15.5465 16.5256ZM5.7565 17.5833C5.38139 17.5833 5.06432 17.4537 4.80529 17.1947C4.54626 16.9357 4.41675 16.6186 4.41675 16.2435V13.2916H11.2501C11.3932 13.2916 11.5337 13.3226 11.6715 13.3845C11.8094 13.4465 11.9262 13.5408 12.022 13.6676L14.8799 17.4239C14.7944 17.4703 14.6956 17.5085 14.5835 17.5384C14.4715 17.5683 14.3582 17.5833 14.2436 17.5833H5.7565Z" fill="#1A1A1A"/>
</svg>