<svg width="20" height="20" viewBox="0 0 24 24" fill="none" xmlns="http://www.w3.org/2000/svg">
<g id="20px/link">
<path id="Vector" d="M14.8285 16.2426L12 19.0711C11.0219 20.0492 9.84336 20.5383 8.4645 20.5383C7.08564 20.5383 5.90713 20.0492 4.92897 19.0711C3.9508 18.0929 3.46172 16.9144 3.46172 15.5355C3.46172 14.1567 3.9508 12.9782 4.92897 12L7.75739 9.17156L9.17161 10.5858L6.34318 13.4142C5.75392 14.0035 5.4593 14.7106 5.4593 15.5355C5.4593 16.3605 5.75392 17.0676 6.34318 17.6568C6.93244 18.2461 7.63954 18.5407 8.4645 18.5407C9.28946 18.5407 9.99656 18.2461 10.5858 17.6568L13.4142 14.8284L14.8285 16.2426ZM9.87871 15.5355L8.4645 14.1213L14.1214 8.46445L15.5356 9.87867L9.87871 15.5355ZM16.2427 14.8284L14.8285 13.4142L17.6569 10.5858C18.2461 9.99652 18.5408 9.28941 18.5408 8.46445C18.5408 7.6395 18.2461 6.93239 17.6569 6.34313C17.0676 5.75388 16.3605 5.45925 15.5356 5.45925C14.7106 5.45925 14.0035 5.75388 13.4142 6.34313L10.5858 9.17156L9.17161 7.75735L12 4.92892C12.9782 3.95076 14.1567 3.46167 15.5356 3.46167C16.9144 3.46167 18.0929 3.95076 19.0711 4.92892C20.0493 5.90709 20.5383 7.0856 20.5383 8.46445C20.5383 9.84331 20.0493 11.0218 19.0711 12L16.2427 14.8284Z" fill="#1A1A1A"/>
</g>
</svg>
