<svg xmlns="http://www.w3.org/2000/svg" width="20" height="20" viewBox="0 0 20 20" fill="none">
  <path d="M16.625 10.75H7V9.25H16.625L15.4375 8.0625L16.5 7L19.5 10L16.5 13L15.4375 11.9375L16.625 10.75ZM12.5 7.75V4.5H4.5V15.5H12.5V12.25H14V15.5C14 15.9125 13.8531 16.2656 13.5594 16.5594C13.2656 16.8531 12.9125 17 12.5 17H4.5C4.0875 17 3.73437 16.8531 3.44062 16.5594C3.14687 16.2656 3 15.9125 3 15.5V4.5C3 4.0875 3.14687 3.73438 3.44062 3.44063C3.73437 3.14688 4.0875 3 4.5 3H12.5C12.9125 3 13.2656 3.14688 13.5594 3.44063C13.8531 3.73438 14 4.0875 14 4.5V7.75H12.5Z" fill="#1A1A1A"/>
</svg>