<svg xmlns="http://www.w3.org/2000/svg" width="20" height="20" viewBox="0 0 20 20" fill="none">
  <path d="M8.58333 18C8.27778 18 7.99306 17.9375 7.72917 17.8125C7.46528 17.6875 7.23611 17.5069 7.04167 17.2708L1 9.95833L1.5625 9.375C1.79861 9.13889 2.08681 8.99653 2.42708 8.94792C2.76736 8.89931 3.08333 8.96528 3.375 9.14583L6 10.6875V2.75C6 2.5375 6.07146 2.35937 6.21438 2.21562C6.35729 2.07187 6.53438 2 6.74563 2C6.95688 2 7.13542 2.07187 7.28125 2.21562C7.42708 2.35937 7.5 2.5375 7.5 2.75V9.41667H9.16667V5.75C9.16667 5.5375 9.23813 5.35937 9.38104 5.21562C9.52396 5.07187 9.70104 5 9.91229 5C10.1235 5 10.3021 5.07187 10.4479 5.21562C10.5938 5.35937 10.6667 5.5375 10.6667 5.75V9.41667H12.3333V6.75C12.3333 6.5375 12.4048 6.35938 12.5477 6.21562C12.6906 6.07187 12.8677 6 13.079 6C13.2902 6 13.4688 6.07187 13.6146 6.21562C13.7604 6.35938 13.8333 6.5375 13.8333 6.75V9.41667H15.5V7.75C15.5 7.5375 15.5715 7.35938 15.7144 7.21562C15.8573 7.07187 16.0344 7 16.2456 7C16.4569 7 16.6354 7.07187 16.7812 7.21562C16.9271 7.35938 17 7.5375 17 7.75V15C17 15.8333 16.7083 16.5417 16.125 17.125C15.5417 17.7083 14.8333 18 14 18H8.58333Z" fill="#1A1A1A"/>
</svg>