<svg xmlns="http://www.w3.org/2000/svg" width="20" height="20" viewBox="0 0 20 20" fill="none">
  <path d="M12.625 16L11.5625 14.9375L14.125 12.375H6.5C5.52778 12.375 4.70139 12.0347 4.02083 11.3542C3.34028 10.6736 3 9.84722 3 8.875C3 7.90278 3.34028 7.07639 4.02083 6.39583C4.70139 5.71528 5.52778 5.375 6.5 5.375H7V6.875H6.5C5.94 6.875 5.46667 7.06785 5.08 7.45354C4.69333 7.83938 4.5 8.3116 4.5 8.87021C4.5 9.42896 4.69333 9.90278 5.08 10.2917C5.46667 10.6806 5.94 10.875 6.5 10.875H14.125L11.5625 8.3125L12.625 7.25L17 11.625L12.625 16Z" fill="#1A1A1A"/>
</svg>