<svg xmlns="http://www.w3.org/2000/svg" width="20" height="20" viewBox="0 0 20 20" fill="none">
  <path d="M9.22126 12.3077C9.22126 11.4894 9.32994 10.8297 9.5473 10.3286C9.76466 9.82746 10.2115 9.2858 10.8879 8.70358C11.4531 8.21108 11.8291 7.79788 12.0161 7.46399C12.203 7.1301 12.2965 6.75802 12.2965 6.34774C12.2965 5.73455 12.077 5.22844 11.6379 4.82941C11.1988 4.43038 10.6367 4.23087 9.95188 4.23087C9.43272 4.23087 8.96397 4.36649 8.54563 4.63774C8.12744 4.90913 7.80827 5.33601 7.58813 5.91837L6.21313 5.33337C6.53688 4.50753 7.03876 3.87691 7.71876 3.44149C8.39876 3.00621 9.14313 2.78857 9.95188 2.78857C11.0758 2.78857 11.9972 3.11948 12.7163 3.78128C13.4353 4.44309 13.7948 5.28844 13.7948 6.31732C13.7948 6.85788 13.6744 7.37045 13.4336 7.85503C13.1926 8.33948 12.7708 8.85149 12.1683 9.39107C11.5561 9.92955 11.1707 10.3764 11.0121 10.7315C10.8533 11.0868 10.767 11.6122 10.7531 12.3077H9.22126ZM9.95188 16.5834C9.65272 16.5834 9.39737 16.4776 9.18584 16.2661C8.97432 16.0545 8.86855 15.7992 8.86855 15.5C8.86855 15.2009 8.97432 14.9455 9.18584 14.734C9.39737 14.5225 9.65272 14.4167 9.95188 14.4167C10.2511 14.4167 10.5064 14.5225 10.7179 14.734C10.9295 14.9455 11.0352 15.2009 11.0352 15.5C11.0352 15.7992 10.9295 16.0545 10.7179 16.2661C10.5064 16.4776 10.2511 16.5834 9.95188 16.5834Z" fill="#1A1A1A"/>
</svg>