<svg xmlns="http://www.w3.org/2000/svg" width="20" height="20" viewBox="0 0 20 20" fill="none">
  <path d="M16 18.125L13.2917 15.4166C12.7639 15.5833 12.2257 15.7222 11.6771 15.8333C11.1285 15.9444 10.5694 16 10 16C8.01389 16 6.19792 15.4618 4.55208 14.3854C2.90625 13.309 1.72222 11.8472 1 9.99996C1.23611 9.27774 1.63194 8.57288 2.1875 7.88538C2.74306 7.19788 3.33333 6.59024 3.95833 6.06246L1.875 3.97913L2.9375 2.91663L17.0625 17.0625L16 18.125ZM10 13.5C10.1944 13.5 10.3889 13.4791 10.5833 13.4375C10.7778 13.3958 10.9722 13.3472 11.1667 13.2916L6.70833 8.83329C6.66667 9.02774 6.62153 9.22218 6.57292 9.41663C6.52431 9.61107 6.5 9.80551 6.5 9.99996C6.5 10.9722 6.84028 11.7986 7.52083 12.4791C8.20139 13.1597 9.02778 13.5 10 13.5ZM16.0417 13.9166L13.2708 11.1458C13.3403 10.9652 13.3958 10.7777 13.4375 10.5833C13.4792 10.3888 13.5 10.1944 13.5 9.99996C13.5 9.02774 13.1597 8.20135 12.4792 7.52079C11.7986 6.84024 10.9722 6.49996 10 6.49996C9.80556 6.49996 9.61458 6.51732 9.42708 6.55204C9.23958 6.58677 9.04861 6.63885 8.85417 6.70829L6.70833 4.56246C7.23611 4.35413 7.77431 4.20829 8.32292 4.12496C8.87153 4.04163 9.43056 3.99996 10 3.99996C11.9861 3.99996 13.8021 4.53815 15.4479 5.61454C17.0938 6.69093 18.2778 8.15274 19 9.99996C18.6944 10.7916 18.2882 11.5104 17.7812 12.1562C17.2743 12.802 16.6944 13.3888 16.0417 13.9166ZM11.9792 9.85413L10.1458 7.99996C10.4236 7.97218 10.6736 8.00343 10.8958 8.09371C11.1181 8.18399 11.3264 8.32635 11.5208 8.52079C11.6875 8.68746 11.8125 8.89232 11.8958 9.13538C11.9792 9.37843 12.0069 9.61801 11.9792 9.85413Z" fill="#1A1A1A"/>
</svg>