<svg xmlns="http://www.w3.org/2000/svg" width="20" height="20" viewBox="0 0 20 20" fill="none">
  <path d="M15 10.25V8.75H18V10.25H15ZM15.8542 16L13.3958 14.2917L14.2708 13.0625L16.7292 14.7708L15.8542 16ZM14.25 5.9375L13.3958 4.70833L15.8542 3L16.7083 4.22917L14.25 5.9375ZM4 15.5V11.5H3.5C3.08333 11.5 2.72917 11.3542 2.4375 11.0625C2.14583 10.7708 2 10.4167 2 10V9C2 8.58333 2.14583 8.22917 2.4375 7.9375C2.72917 7.64583 3.08333 7.5 3.5 7.5H6.39583L11 4.75V14.25L6.52083 11.5H6V15.5H4ZM12 11.9375V7.0625C12.3194 7.36806 12.566 7.73611 12.7396 8.16667C12.9132 8.59722 13 9.04167 13 9.5C13 9.95833 12.9132 10.4028 12.7396 10.8333C12.566 11.2639 12.3194 11.6319 12 11.9375Z" fill="#1A1A1A"/>
</svg>