<svg xmlns="http://www.w3.org/2000/svg" width="20" height="20" viewBox="0 0 20 20" fill="none">
  <path d="M4.5 18C3.80556 18 3.21528 17.7569 2.72917 17.2708C2.24306 16.7847 2 16.1944 2 15.5C2 14.9583 2.16667 14.4722 2.5 14.0417C2.83333 13.6111 3.25 13.2986 3.75 13.1042V6.85417C3.25 6.65972 2.83333 6.35069 2.5 5.92708C2.16667 5.50347 2 5.02778 2 4.5C2 3.79167 2.24306 3.19792 2.72917 2.71875C3.21528 2.23958 3.80556 2 4.5 2C5.04167 2 5.52431 2.16319 5.94792 2.48958C6.37153 2.81597 6.68056 3.23611 6.875 3.75H13.1458C13.3264 3.22222 13.6319 2.79861 14.0625 2.47917C14.4931 2.15972 14.9722 2 15.5 2C16.2083 2 16.8021 2.23958 17.2812 2.71875C17.7604 3.19792 18 3.79167 18 4.5C18 5.02778 17.8403 5.50694 17.5208 5.9375C17.2014 6.36806 16.7778 6.67361 16.25 6.85417V13.125C16.7639 13.3194 17.184 13.6285 17.5104 14.0521C17.8368 14.4757 18 14.9583 18 15.5C18 16.1944 17.7604 16.7847 17.2812 17.2708C16.8021 17.7569 16.2083 18 15.5 18C14.9722 18 14.4931 17.8333 14.0625 17.5C13.6319 17.1667 13.3194 16.75 13.125 16.25H6.875C6.68056 16.75 6.37153 17.1667 5.94792 17.5C5.52431 17.8333 5.04167 18 4.5 18ZM6.875 14.75H13.1458C13.2847 14.3611 13.4931 14.0243 13.7708 13.7396C14.0486 13.4549 14.375 13.2431 14.75 13.1042V6.85417C14.375 6.71528 14.0451 6.50694 13.7604 6.22917C13.4757 5.95139 13.2639 5.625 13.125 5.25H6.875C6.73611 5.625 6.52778 5.95139 6.25 6.22917C5.97222 6.50694 5.63889 6.71528 5.25 6.85417V13.125C5.63889 13.2639 5.97222 13.4722 6.25 13.75C6.52778 14.0278 6.73611 14.3611 6.875 14.75Z" fill="#1A1A1A"/>
</svg>