<svg width="21" height="20" viewBox="0 0 21 20" fill="none" xmlns="http://www.w3.org/2000/svg">
<g id="Icon">
<path id="Vector" d="M5 18C4.5875 18 4.23438 17.8531 3.94062 17.5594C3.64687 17.2656 3.5 16.9125 3.5 16.5V7.91667C3.20833 7.80556 2.96875 7.62153 2.78125 7.36458C2.59375 7.10764 2.5 6.81944 2.5 6.5V3.5C2.5 3.0875 2.64688 2.73438 2.94063 2.44063C3.23438 2.14688 3.5875 2 4 2H17C17.4125 2 17.7656 2.14688 18.0594 2.44063C18.3531 2.73438 18.5 3.0875 18.5 3.5V6.5C18.5 6.81944 18.4062 7.10764 18.2188 7.36458C18.0312 7.62153 17.7917 7.80556 17.5 7.91667V16.4971C17.5 16.9157 17.3531 17.2708 17.0594 17.5625C16.7656 17.8542 16.4125 18 16 18H5ZM4 6.5H17V3.5H4V6.5ZM8.5 11.5H12.5V10H8.5V11.5Z" fill="#1A1A1A"/>
</g>
</svg>
