<svg xmlns="http://www.w3.org/2000/svg" width="20" height="20" viewBox="0 0 20 20" fill="none">
  <path d="M7.83333 13.375L10 11.7292L12.1667 13.375L11.3333 10.7292L13.5 9H10.8556L10 6.375L9.14437 9H6.5L8.66667 10.7292L7.83333 13.375ZM3.5 16C3.0875 16 2.73438 15.8534 2.44063 15.5602C2.14688 15.267 2 14.9146 2 14.5029V11.9767C2 11.8394 2.04465 11.7196 2.13396 11.6171C2.22326 11.5144 2.33806 11.4503 2.47833 11.4246C2.78444 11.3221 3.03125 11.1424 3.21875 10.8854C3.40625 10.6285 3.5 10.3333 3.5 10C3.5 9.66667 3.40625 9.37153 3.21875 9.11458C3.03125 8.85764 2.78444 8.67813 2.47833 8.57604C2.33806 8.55049 2.22326 8.48667 2.13396 8.38458C2.04465 8.2825 2 8.16125 2 8.02083V5.49604C2 5.08465 2.14688 4.7325 2.44063 4.43958C2.73438 4.14653 3.0875 4 3.5 4H16.5C16.9125 4 17.2656 4.1466 17.5594 4.43979C17.8531 4.73299 18 5.08542 18 5.49708V8.02333C18 8.16056 17.9553 8.28042 17.866 8.38292C17.7767 8.48556 17.6619 8.54972 17.5217 8.57542C17.2156 8.67792 16.9688 8.85764 16.7812 9.11458C16.5938 9.37153 16.5 9.66667 16.5 10C16.5 10.3333 16.5938 10.6285 16.7812 10.8854C16.9688 11.1424 17.2156 11.3219 17.5217 11.424C17.6619 11.4495 17.7767 11.5133 17.866 11.6154C17.9553 11.7175 18 11.8388 18 11.9792V14.504C18 14.9153 17.8531 15.2675 17.5594 15.5604C17.2656 15.8535 16.9125 16 16.5 16H3.5Z" fill="#1A1A1A"/>
</svg>