<svg xmlns="http://www.w3.org/2000/svg" width="20" height="20" viewBox="0 0 20 20" fill="none">
  <path d="M17 9.5V15.5C17 15.9028 16.8542 16.2535 16.5625 16.5521C16.2709 16.8507 15.9167 17 15.5 17H4.50003C4.08337 17 3.7292 16.8507 3.43753 16.5521C3.14587 16.2535 3.00003 15.9028 3.00003 15.5V9.47917C2.5417 9.15972 2.25351 8.75 2.13545 8.25C2.01739 7.75 2.02087 7.22222 2.14587 6.66667L3.1042 4C3.17364 3.66667 3.33337 3.41667 3.58337 3.25C3.83337 3.08333 4.13892 3 4.50003 3H15.5C15.8611 3 16.1632 3.07639 16.4063 3.22917C16.6493 3.38194 16.8125 3.63889 16.8959 4L17.8542 6.66667C17.9792 7.22222 17.9792 7.75 17.8542 8.25C17.7292 8.75 17.4445 9.16667 17 9.5ZM11.8334 8.5C12.125 8.5 12.3716 8.40278 12.573 8.20833C12.7743 8.01389 12.8611 7.77778 12.8334 7.5L12.3334 4.5H10.8334V7.5C10.8334 7.77778 10.9306 8.01389 11.125 8.20833C11.3195 8.40278 11.5556 8.5 11.8334 8.5ZM8.1667 8.5C8.44448 8.5 8.68059 8.40278 8.87503 8.20833C9.06948 8.01389 9.1667 7.77778 9.1667 7.5V4.5H7.6667L7.1667 7.5C7.13892 7.77778 7.22573 8.01389 7.42712 8.20833C7.62851 8.40278 7.87503 8.5 8.1667 8.5ZM4.50003 8.5C4.75003 8.5 4.96878 8.42361 5.15628 8.27083C5.34378 8.11806 5.45142 7.92361 5.4792 7.6875L6.00003 4.5H4.50003L3.56253 7.16667C3.45142 7.48611 3.49309 7.78819 3.68753 8.07292C3.88198 8.35764 4.15281 8.5 4.50003 8.5ZM15.5 8.5C15.8473 8.5 16.1216 8.35764 16.323 8.07292C16.5243 7.78819 16.5695 7.48611 16.4584 7.16667L15.5 4.5H14L14.5209 7.6875C14.5486 7.92361 14.6598 8.11806 14.8542 8.27083C15.0486 8.42361 15.2639 8.5 15.5 8.5Z" fill="#1A1A1A"/>
</svg>