<svg xmlns="http://www.w3.org/2000/svg" width="20" height="20" viewBox="0 0 20 20" fill="none">
  <path d="M2 16V14.5H18V16H2ZM3 13.5V12.5C3 10.8472 3.51389 9.38194 4.54167 8.10417C5.56944 6.82639 6.89583 6.01389 8.52083 5.66667V5.5C8.52083 5.0875 8.66569 4.73438 8.95542 4.44063C9.245 4.14688 9.59319 4 10 4C10.4125 4 10.7656 4.14688 11.0594 4.44063C11.3531 4.73438 11.5 5.0875 11.5 5.5V5.66667C13.1111 6.02778 14.4306 6.84271 15.4583 8.11146C16.4861 9.38007 17 10.8429 17 12.5V13.5H3Z" fill="#1A1A1A"/>
</svg>