<svg xmlns="http://www.w3.org/2000/svg" width="20" height="20" viewBox="0 0 20 20" fill="none">
  <path d="M12.3959 9.25002C12.2431 8.87502 12.0278 8.54863 11.75 8.27085C11.4723 7.99308 11.1459 7.7778 10.7709 7.62502V2.04169C12.6875 2.23613 14.3195 3.00696 15.6667 4.35419C17.0139 5.70141 17.7848 7.33335 17.9792 9.25002H12.3959ZM9.27087 17.9584C7.20143 17.75 5.47574 16.8889 4.09379 15.375C2.71185 13.8611 2.02087 12.0695 2.02087 10C2.02087 7.93058 2.71185 6.13544 4.09379 4.6146C5.47574 3.09377 7.20143 2.23613 9.27087 2.04169V7.62502C8.75699 7.81947 8.33685 8.12849 8.01046 8.5521C7.68407 8.97572 7.52087 9.45835 7.52087 10C7.52087 10.5417 7.68407 11.0278 8.01046 11.4584C8.33685 11.8889 8.75699 12.1945 9.27087 12.375V17.9584ZM10.7709 17.9584V12.375C11.1459 12.2222 11.4757 12.007 11.7605 11.7292C12.0452 11.4514 12.257 11.125 12.3959 10.75H17.9792C17.7848 12.6667 17.0139 14.2986 15.6667 15.6459C14.3195 16.9931 12.6875 17.7639 10.7709 17.9584Z" fill="#1A1A1A"/>
</svg>