<svg xmlns="http://www.w3.org/2000/svg" width="20" height="20" viewBox="0 0 20 20" fill="none">
  <path d="M5 16L6.25 13.3542C6.36111 13.0764 6.54167 12.8646 6.79167 12.7188C7.04167 12.5729 7.3125 12.5 7.60417 12.5H9.25V9C7.19444 8.93056 5.47222 8.66319 4.08333 8.19792C2.69444 7.73264 2 7.16667 2 6.5C2 5.76389 2.77778 5.16319 4.33333 4.69792C5.88889 4.23264 7.77778 4 10 4C12.2222 4 14.1111 4.23264 15.6667 4.69792C17.2222 5.16319 18 5.76389 18 6.5C18 7.16667 17.3021 7.73264 15.9062 8.19792C14.5104 8.66319 12.7917 8.93056 10.75 9V12.5H12.3958C12.6875 12.5 12.9583 12.5729 13.2083 12.7188C13.4583 12.8646 13.6389 13.0764 13.75 13.3542L15 16H13.5L12.5 14H7.5L6.5 16H5Z" fill="#1A1A1A"/>
</svg>