<svg xmlns="http://www.w3.org/2000/svg" width="20" height="20" viewBox="0 0 20 20" fill="none">
  <path d="M4.25 15H3.75L3 13H2V9C2 8.58222 2.14688 8.22778 2.44063 7.93667C2.73438 7.64556 3.0875 7.5 3.5 7.5V5.5625C3.5 5.13278 3.65299 4.76493 3.95896 4.45896C4.26493 4.15299 4.63278 4 5.0625 4H14.9375C15.3672 4 15.7351 4.15299 16.041 4.45896C16.347 4.76493 16.5 5.13278 16.5 5.5625V7.5C16.9167 7.5 17.2708 7.64688 17.5625 7.94063C17.8542 8.23438 18 8.5875 18 9V13H17L16.25 15H15.75L15 13H5L4.25 15ZM10.75 7.5H15V5.5H10.75V7.5ZM5 7.5H9.25V5.5H5V7.5Z" fill="#1A1A1A"/>
</svg>