<svg xmlns="http://www.w3.org/2000/svg" width="20" height="20" viewBox="0 0 20 20" fill="none">
  <path d="M8 18V16.5H19V18H8ZM8.97917 15.5208C8.97917 14.4097 9.33528 13.4403 10.0475 12.6125C10.7599 11.7846 11.6607 11.2749 12.75 11.0833V10.75C12.75 10.5556 12.8219 10.3819 12.9656 10.2292C13.1094 10.0764 13.2875 10 13.5 10C13.6944 10 13.8681 10.0764 14.0208 10.2292C14.1736 10.3819 14.25 10.5556 14.25 10.75V11.1042C15.3056 11.2847 16.1944 11.7889 16.9167 12.6167C17.6389 13.4444 18 14.4125 18 15.5208H8.97917ZM10.875 14H16.0833C15.8194 13.5556 15.4587 13.1944 15.001 12.9167C14.5434 12.6389 14.0431 12.5 13.5 12.5C12.9306 12.5 12.4167 12.6389 11.9583 12.9167C11.5 13.1944 11.1389 13.5556 10.875 14ZM1 11V2H6V3.1875L11.5 1.5L18 3.5V4.02083C18 4.84833 17.7118 5.55174 17.1354 6.13104C16.559 6.71035 15.8472 7 15 7H14V7.08333C14 7.40278 13.8403 7.77431 13.5208 8.19792C13.2014 8.62153 12.8889 8.88889 12.5833 9L7 11H1ZM2.5 9.5H4.5V3.5H2.5V9.5ZM6 9.5H6.75L12.0833 7.58333C12.2107 7.53889 12.3119 7.46389 12.3871 7.35833C12.4624 7.25278 12.5 7.13333 12.5 7H10.1458L8.27083 7.70833L7.75 6.29167L9.75 5.5H15C15.25 5.5 15.5451 5.40764 15.8854 5.22292C16.2257 5.03833 16.3958 4.81819 16.3958 4.5625L11.5 3.08333L6 4.75V9.5Z" fill="#1A1A1A"/>
</svg>