<svg width="21" height="20" viewBox="0 0 21 20" fill="none" xmlns="http://www.w3.org/2000/svg">
<g id="Icon">
<path id="Vector" d="M6 19C5.5875 19 5.23437 18.8531 4.94062 18.5594C4.64687 18.2656 4.5 17.9125 4.5 17.5V2.5C4.5 2.0875 4.64687 1.73438 4.94062 1.44063C5.23437 1.14688 5.5875 1 6 1H15C15.4125 1 15.7656 1.14688 16.0594 1.44063C16.3531 1.73438 16.5 2.0875 16.5 2.5V17.5C16.5 17.9125 16.3531 18.2656 16.0594 18.5594C15.7656 18.8531 15.4125 19 15 19H6ZM6 15H15V5H6V15Z" fill="#1A1A1A"/>
</g>
</svg>
