<svg xmlns="http://www.w3.org/2000/svg" width="20" height="20" viewBox="0 0 20 20" fill="none">
  <path d="M9.25 17.8125V10.4375L3 6.83333V13.3333C3 13.6111 3.06597 13.8611 3.19792 14.0833C3.32986 14.3056 3.51389 14.4861 3.75 14.625L9.25 17.8125ZM10.75 17.8125L16.25 14.625C16.4861 14.4861 16.6701 14.3056 16.8021 14.0833C16.934 13.8611 17 13.6111 17 13.3333V6.83333L10.75 10.4375V17.8125ZM13.9167 6.85417L16.375 5.4375L10.75 2.20833C10.5139 2.06944 10.2639 2 10 2C9.73611 2 9.48611 2.06944 9.25 2.20833L7.5625 3.1875L13.9167 6.85417ZM10 9.125L12.4375 7.72917L6.04167 4.04167L3.60417 5.45833L10 9.125Z" fill="#1A1A1A"/>
</svg>