<svg xmlns="http://www.w3.org/2000/svg" width="20" height="20" viewBox="0 0 20 20" fill="none">
  <path d="M5 18C4.44444 18 3.97222 17.8056 3.58333 17.4167C3.19444 17.0278 3 16.5556 3 16V13H5V2H17V15.75C17 16.375 16.7812 16.9062 16.3438 17.3438C15.9062 17.7812 15.375 18 14.75 18H5ZM14.7456 16.5C14.9569 16.5 15.1354 16.4281 15.2812 16.2844C15.4271 16.1406 15.5 15.9625 15.5 15.75V3.5H6.5V13H14V15.75C14 15.9625 14.0715 16.1406 14.2144 16.2844C14.3573 16.4281 14.5344 16.5 14.7456 16.5ZM7.5 7.5V6H14.5V7.5H7.5ZM7.5 10V8.5H14.5V10H7.5Z" fill="#1A1A1A"/>
</svg>