<svg xmlns="http://www.w3.org/2000/svg" width="20" height="20" viewBox="0 0 20 20" fill="none">
  <path d="M10 18L4.08333 13.4583C3.88889 13.3056 3.74306 13.1285 3.64583 12.9271C3.54861 12.7257 3.5 12.5069 3.5 12.2708V2.5C3.5 2.08333 3.64583 1.72917 3.9375 1.4375C4.22917 1.14583 4.58333 1 5 1H15C15.4167 1 15.7708 1.14583 16.0625 1.4375C16.3542 1.72917 16.5 2.08333 16.5 2.5V12.2708C16.5 12.5069 16.4514 12.7257 16.3542 12.9271C16.2569 13.1285 16.1111 13.3056 15.9167 13.4583L10 18ZM9.125 11L13.7083 6.39583L12.6458 5.33333L9.125 8.875L7.35417 7.10417L6.29167 8.16667L9.125 11Z" fill="#1A1A1A"/>
</svg>