<svg width="56" height="57" viewBox="0 0 56 57" fill="none" xmlns="http://www.w3.org/2000/svg">
<g id="Eye style 3">
<path d="M0 8.40063C0 3.98236 3.58172 0.400635 8 0.400635H48C52.4183 0.400635 56 3.98236 56 8.40063V48.4006C56 52.8189 52.4183 56.4006 48 56.4006H8C3.58172 56.4006 0 52.8189 0 48.4006V8.40063Z" fill="white"/>
<path d="M0.5 8.40063C0.5 4.2585 3.85786 0.900635 8 0.900635H48C52.1421 0.900635 55.5 4.2585 55.5 8.40063V48.4006C55.5 52.5428 52.1421 55.9006 48 55.9006H8C3.85786 55.9006 0.5 52.5428 0.5 48.4006V8.40063Z" stroke="#1A1A1A" stroke-opacity="0.1"/>
<path id="Rectangle 5143" d="M12.2619 15.8292C12.2619 14.0803 13.6797 12.6625 15.4286 12.6625H45.7381V42.9721C45.7381 44.721 44.3203 46.1387 42.5714 46.1387H12.2619V15.8292Z" stroke="#1A1A1A" stroke-width="4.52381" stroke-linejoin="round"/>
<path id="Rectangle 5144" d="M20.8574 24.8768C20.8574 22.8781 22.4777 21.2578 24.4765 21.2578H37.1431V33.9244C37.1431 35.9232 35.5228 37.5435 33.5241 37.5435H20.8574V24.8768Z" fill="#1A1A1A"/>
</g>
</svg>
