<svg width="56" height="57" viewBox="0 0 56 57" fill="none" xmlns="http://www.w3.org/2000/svg">
<g id="Eye style 10">
<path d="M0 8.40063C0 3.98236 3.58172 0.400635 8 0.400635H48C52.4183 0.400635 56 3.98236 56 8.40063V48.4006C56 52.8189 52.4183 56.4006 48 56.4006H8C3.58172 56.4006 0 52.8189 0 48.4006V8.40063Z" fill="white"/>
<path d="M0.5 8.40063C0.5 4.2585 3.85786 0.900635 8 0.900635H48C52.1421 0.900635 55.5 4.2585 55.5 8.40063V48.4006C55.5 52.5428 52.1421 55.9006 48 55.9006H8C3.85786 55.9006 0.5 52.5428 0.5 48.4006V8.40063Z" stroke="#1A1A1A" stroke-opacity="0.1"/>
<path id="Rectangle 5143" d="M12.1429 12.5435H28C36.7577 12.5435 43.8571 19.643 43.8571 28.4006V44.2578H28C19.2423 44.2578 12.1429 37.1583 12.1429 28.4006V12.5435Z" stroke="#1A1A1A" stroke-width="4.28571" stroke-linejoin="round"/>
<path id="Rectangle 5144" d="M17.7129 17.5139H27.9986C33.6792 17.5139 38.2843 22.119 38.2843 27.7996C38.2843 33.4802 33.6792 38.0853 27.9986 38.0853C22.318 38.0853 17.7129 33.4802 17.7129 27.7996V17.5139Z" fill="#1A1A1A"/>
</g>
</svg>
