<svg width="56" height="57" viewBox="0 0 56 57" fill="none" xmlns="http://www.w3.org/2000/svg">
<g id="Eye style 6">
<path d="M0 8.40063C0 3.98236 3.58172 0.400635 8 0.400635H48C52.4183 0.400635 56 3.98236 56 8.40063V48.4006C56 52.8189 52.4183 56.4006 48 56.4006H8C3.58172 56.4006 0 52.8189 0 48.4006V8.40063Z" fill="white"/>
<path d="M0.5 8.40063C0.5 4.2585 3.85786 0.900635 8 0.900635H48C52.1421 0.900635 55.5 4.2585 55.5 8.40063V48.4006C55.5 52.5428 52.1421 55.9006 48 55.9006H8C3.85786 55.9006 0.5 52.5428 0.5 48.4006V8.40063Z" stroke="#1A1A1A" stroke-opacity="0.1"/>
<path id="Rectangle 5143" d="M12.1429 28.4006C12.1429 19.643 19.2423 12.5435 28 12.5435C36.7577 12.5435 43.8571 19.643 43.8571 28.4006V44.2578H28C19.2423 44.2578 12.1429 37.1583 12.1429 28.4006Z" stroke="#1A1A1A" stroke-width="4.28571" stroke-linejoin="round"/>
<path id="Rectangle 5144" d="M20.2852 28.4006C20.2852 24.1401 23.739 20.6863 27.9994 20.6863C32.2599 20.6863 35.7137 24.1401 35.7137 28.4006V36.1149H27.9994C23.739 36.1149 20.2852 32.6611 20.2852 28.4006Z" fill="#1A1A1A"/>
</g>
</svg>
