<svg width="56" height="57" viewBox="0 0 56 57" fill="none" xmlns="http://www.w3.org/2000/svg">
<g id="Eye style 12">
<path d="M0 8.40063C0 3.98236 3.58172 0.400635 8 0.400635H48C52.4183 0.400635 56 3.98236 56 8.40063V48.4006C56 52.8189 52.4183 56.4006 48 56.4006H8C3.58172 56.4006 0 52.8189 0 48.4006V8.40063Z" fill="white"/>
<path d="M0.5 8.40063C0.5 4.2585 3.85786 0.900635 8 0.900635H48C52.1421 0.900635 55.5 4.2585 55.5 8.40063V48.4006C55.5 52.5428 52.1421 55.9006 48 55.9006H8C3.85786 55.9006 0.5 52.5428 0.5 48.4006V8.40063Z" stroke="#1A1A1A" stroke-opacity="0.1"/>
<path id="Rectangle 5143" d="M43.8571 22.1699V44.2578H20.8949C20.8948 44.2555 20.8948 44.2532 20.8947 44.2509C20.8374 42.6815 20.4423 40.5759 19.1462 38.3079C17.7361 35.8402 14.9419 35.2153 13.2132 35.0424C12.8409 35.0052 12.4808 34.9851 12.1429 34.9767V12.5435H34.5079C34.5424 12.9627 34.5912 13.4226 34.6602 13.903C34.7969 14.8547 35.0206 15.9422 35.3972 16.9743C35.7658 17.9842 36.3385 19.1025 37.2685 19.9527C38.1105 20.7223 39.1515 21.19 40.0841 21.4892C41.0373 21.795 42.0258 21.9712 42.8873 22.0754C43.2255 22.1163 43.5515 22.147 43.8571 22.1699Z" stroke="#1A1A1A" stroke-width="4.28571"/>
<path id="Rectangle 5144" d="M21.1426 27.7996C21.1426 24.0125 24.2126 20.9425 27.9997 20.9425C31.7868 20.9425 34.8569 24.0125 34.8569 27.7996C34.8569 31.5867 31.7868 34.6568 27.9997 34.6568C24.2126 34.6568 21.1426 31.5867 21.1426 27.7996Z" fill="#1A1A1A"/>
</g>
</svg>
