<svg width="56" height="57" viewBox="0 0 56 57" fill="none" xmlns="http://www.w3.org/2000/svg">
<g id="Eye style 11">
<path d="M0 8.40063C0 3.98236 3.58172 0.400635 8 0.400635H48C52.4183 0.400635 56 3.98236 56 8.40063V48.4006C56 52.8189 52.4183 56.4006 48 56.4006H8C3.58172 56.4006 0 52.8189 0 48.4006V8.40063Z" fill="white"/>
<path d="M0.5 8.40063C0.5 4.2585 3.85786 0.900635 8 0.900635H48C52.1421 0.900635 55.5 4.2585 55.5 8.40063V48.4006C55.5 52.5428 52.1421 55.9006 48 55.9006H8C3.85786 55.9006 0.5 52.5428 0.5 48.4006V8.40063Z" stroke="#1A1A1A" stroke-opacity="0.1"/>
<path id="Rectangle 5143" d="M12.1429 20.6864C12.1429 16.1892 15.7885 12.5435 20.2857 12.5435H43.8571V44.2578H12.1429V20.6864Z" stroke="#1A1A1A" stroke-width="4.28571" stroke-linejoin="round"/>
<path id="Rectangle 5144" d="M20.2871 26.6863C20.2871 23.3726 22.9734 20.6863 26.2871 20.6863H35.7157V36.1149H20.2871V26.6863Z" fill="#1A1A1A"/>
</g>
</svg>
