<svg width="56" height="57" viewBox="0 0 56 57" fill="none" xmlns="http://www.w3.org/2000/svg">
<g id="Frame 1000011813">
<path id="Rectangle 5105" d="M4.61914 0.400635L7.46898 5.218L4.61914 5.218L1.7693 5.218L4.61914 0.400635Z" fill="#1A1A1A"/>
<path id="Rectangle 5106" d="M11.7031 0.400635L14.553 5.218L11.7031 5.218L8.85329 5.218L11.7031 0.400635Z" fill="#1A1A1A"/>
<path id="Rectangle 5107" d="M25.082 0.400635L27.9319 5.218L25.082 5.218L22.2322 5.218L25.082 0.400635Z" fill="#1A1A1A"/>
<path id="Rectangle 5108" d="M32.166 8.4837L35.0159 13.3011L32.166 13.3011L29.3162 13.3011L32.166 8.4837Z" fill="#1A1A1A"/>
<path id="Rectangle 5109" d="M18 14.5668L20.8498 19.3841L18 19.3841L15.1502 19.3841L18 14.5668Z" fill="#1A1A1A"/>
<path id="Rectangle 5110" d="M10.918 14.5668L13.7678 19.3841L10.918 19.3841L8.06813 19.3841L10.918 14.5668Z" fill="#1A1A1A"/>
<path id="Rectangle 5111" d="M3.83203 14.5668L6.68187 19.3841L3.83203 19.3841L0.982194 19.3841L3.83203 14.5668Z" fill="#1A1A1A"/>
<path id="Rectangle 5112" d="M3.83398 23.4006L6.68382 28.218L3.83398 28.218L0.984148 28.218L3.83398 23.4006Z" fill="#1A1A1A"/>
<path id="Rectangle 5113" d="M3.83398 30.4838L6.68382 35.3011L3.83398 35.3011L0.984148 35.3011L3.83398 30.4838Z" fill="#1A1A1A"/>
<path id="Rectangle 5114" d="M18.7891 30.4838L21.6389 35.3011L18.7891 35.3011L15.9392 35.3011L18.7891 30.4838Z" fill="#1A1A1A"/>
<path id="Rectangle 5115" d="M32.168 30.4838L35.0178 35.3011L32.168 35.3011L29.3181 35.3011L32.168 30.4838Z" fill="#1A1A1A"/>
<path id="Rectangle 5116" d="M25.084 23.4006L27.9338 28.218L25.084 28.218L22.2341 28.218L25.084 23.4006Z" fill="#1A1A1A"/>
</g>
</svg>
