<svg width="56" height="57" viewBox="0 0 56 57" fill="none" xmlns="http://www.w3.org/2000/svg">
<g id="Pattern 3">
<path d="M0 8.40063C0 3.98236 3.58172 0.400635 8 0.400635H48C52.4183 0.400635 56 3.98236 56 8.40063V48.4006C56 52.8189 52.4183 56.4006 48 56.4006H8C3.58172 56.4006 0 52.8189 0 48.4006V8.40063Z" fill="white"/>
<path d="M0.5 8.40063C0.5 4.2585 3.85786 0.900635 8 0.900635H48C52.1421 0.900635 55.5 4.2585 55.5 8.40063V48.4006C55.5 52.5428 52.1421 55.9006 48 55.9006H8C3.85786 55.9006 0.5 52.5428 0.5 48.4006V8.40063Z" stroke="#1A1A1A" stroke-opacity="0.1"/>
<rect id="Rectangle 5103" x="13.0566" y="10.4006" width="4.32536" height="4.32536" transform="rotate(45 13.0566 10.4006)" fill="#1A1A1A"/>
<rect id="Rectangle 5104" x="35.3379" y="10.4006" width="4.32536" height="4.32536" transform="rotate(45 35.3379 10.4006)" fill="#1A1A1A"/>
<rect id="Rectangle 5106" x="35.3379" y="25.604" width="4.32536" height="4.32536" transform="rotate(45 35.3379 25.604)" fill="#1A1A1A"/>
<rect id="Rectangle 5105" x="42.9414" y="10.4006" width="4.32536" height="4.32536" transform="rotate(45 42.9414 10.4006)" fill="#1A1A1A"/>
<rect id="Rectangle 5107" x="42.9414" y="25.604" width="4.32536" height="4.32536" transform="rotate(45 42.9414 25.604)" fill="#1A1A1A"/>
<rect id="Rectangle 5108" x="42.9414" y="18.0023" width="4.32536" height="4.32536" transform="rotate(45 42.9414 18.0023)" fill="#1A1A1A"/>
<rect id="Rectangle 5109" x="28.5801" y="18.0023" width="4.32536" height="4.32536" transform="rotate(45 28.5801 18.0023)" fill="#1A1A1A"/>
<rect id="Rectangle 5111" x="28.5801" y="25.604" width="4.32536" height="4.32536" transform="rotate(45 28.5801 25.604)" fill="#1A1A1A"/>
<rect id="Rectangle 5112" x="28.5801" y="32.3611" width="4.32536" height="4.32536" transform="rotate(45 28.5801 32.3611)" fill="#1A1A1A"/>
<rect id="Rectangle 5113" x="28.6582" y="39.4006" width="4.24264" height="4.24264" transform="rotate(45 28.6582 39.4006)" fill="#1A1A1A"/>
<rect id="Rectangle 5115" x="21.2031" y="39.4006" width="4.24264" height="4.24264" transform="rotate(45 21.2031 39.4006)" fill="#1A1A1A"/>
<rect id="Rectangle 5116" x="13.3789" y="33.2057" width="4.32536" height="4.32536" transform="rotate(45 13.3789 33.2057)" fill="#1A1A1A"/>
<rect id="Rectangle 5114" x="36.1172" y="39.4006" width="4.24264" height="4.24264" transform="rotate(45 36.1172 39.4006)" fill="#1A1A1A"/>
<rect id="Rectangle 5110" x="20.1367" y="18.0023" width="4.32536" height="4.32536" transform="rotate(45 20.1367 18.0023)" fill="#1A1A1A"/>
</g>
</svg>
