<svg width="56" height="57" viewBox="0 0 56 57" fill="none" xmlns="http://www.w3.org/2000/svg">
<g id="Pattern 9">
<path d="M0 8.40063C0 3.98236 3.58172 0.400635 8 0.400635H48C52.4183 0.400635 56 3.98236 56 8.40063V48.4006C56 52.8189 52.4183 56.4006 48 56.4006H8C3.58172 56.4006 0 52.8189 0 48.4006V8.40063Z" fill="white"/>
<path d="M0.5 8.40063C0.5 4.2585 3.85786 0.900635 8 0.900635H48C52.1421 0.900635 55.5 4.2585 55.5 8.40063V48.4006C55.5 52.5428 52.1421 55.9006 48 55.9006H8C3.85786 55.9006 0.5 52.5428 0.5 48.4006V8.40063Z" stroke="#1A1A1A" stroke-opacity="0.1"/>
<path id="Vector 9" d="M27.1818 10.4006H10V21.956L13.2727 19.4006L16.5455 21.956V16.1783H27.1818L24.7273 13.2643L27.1818 10.4006Z" fill="#1A1A1A"/>
<path id="Vector 10" d="M46 10.4006H33.7273V16.1783H28V27.6328L30.8636 24.7188L33.7273 27.6328V21.8552H39.4545V16.1783H46L43.5455 13.2643L46 10.4006Z" fill="#1A1A1A"/>
<path id="Vector 11" d="M28 28.4006H10V46.4006L13.1111 43.5115L15.7777 46.4006V34.1783H22.2223V46.4006H39.4545L37.1106 43.5115L39.4545 40.6734H28V28.4006Z" fill="#1A1A1A"/>
<path id="Vector 12" d="M39.4558 28.4006H33.7285V34.1279H39.4558V28.4006Z" fill="#1A1A1A"/>
<path id="Vector 13" d="M45.9988 34.1279H40.2715V39.8552H45.9988V34.1279Z" fill="#1A1A1A"/>
</g>
</svg>
