<svg width="56" height="57" viewBox="0 0 56 57" fill="none" xmlns="http://www.w3.org/2000/svg">
<g id="Pattern 1">
<path d="M0 8.40063C0 3.98236 3.58172 0.400635 8 0.400635H48C52.4183 0.400635 56 3.98236 56 8.40063V48.4006C56 52.8189 52.4183 56.4006 48 56.4006H8C3.58172 56.4006 0 52.8189 0 48.4006V8.40063Z" fill="white"/>
<path d="M0.5 8.40063C0.5 4.2585 3.85786 0.900635 8 0.900635H48C52.1421 0.900635 55.5 4.2585 55.5 8.40063V48.4006C55.5 52.5428 52.1421 55.9006 48 55.9006H8C3.85786 55.9006 0.5 52.5428 0.5 48.4006V8.40063Z" stroke="#1A1A1A" stroke-opacity="0.1"/>
<circle id="Ellipse 193" cx="42.4888" cy="13.9128" r="3.5122" fill="#1A1A1A"/>
<circle id="Ellipse 194" cx="42.4888" cy="23.5714" r="3.5122" fill="#1A1A1A"/>
<circle id="Ellipse 195" cx="42.4888" cy="33.2299" r="3.5122" fill="#1A1A1A"/>
<circle id="Ellipse 196" cx="32.8286" cy="23.5714" r="3.5122" fill="#1A1A1A"/>
<circle id="Ellipse 197" cx="32.8286" cy="42.8884" r="3.5122" fill="#1A1A1A"/>
<circle id="Ellipse 198" cx="23.1704" cy="42.8884" r="3.5122" fill="#1A1A1A"/>
<circle id="Ellipse 199" cx="23.1704" cy="33.2299" r="3.5122" fill="#1A1A1A"/>
<circle id="Ellipse 200" cx="13.5122" cy="33.2299" r="3.5122" fill="#1A1A1A"/>
<circle id="Ellipse 202" cx="13.5122" cy="23.5714" r="3.5122" fill="#1A1A1A"/>
<circle id="Ellipse 201" cx="13.5122" cy="42.8884" r="3.5122" fill="#1A1A1A"/>
</g>
</svg>
