<svg width="56" height="57" viewBox="0 0 56 57" fill="none" xmlns="http://www.w3.org/2000/svg">
<g id="Pattern 8">
<path d="M0 8.40063C0 3.98236 3.58172 0.400635 8 0.400635H48C52.4183 0.400635 56 3.98236 56 8.40063V48.4006C56 52.8189 52.4183 56.4006 48 56.4006H8C3.58172 56.4006 0 52.8189 0 48.4006V8.40063Z" fill="white"/>
<path d="M0.5 8.40063C0.5 4.2585 3.85786 0.900635 8 0.900635H48C52.1421 0.900635 55.5 4.2585 55.5 8.40063V48.4006C55.5 52.5428 52.1421 55.9006 48 55.9006H8C3.85786 55.9006 0.5 52.5428 0.5 48.4006V8.40063Z" stroke="#1A1A1A" stroke-opacity="0.1"/>
<path id="Vector 4" d="M25.1808 10.4006H13.0362L10 13.0031V19.0754L13.0362 22.1115L16.0723 19.0754V16.0392H25.1808L27.7832 13.0031L25.1808 10.4006Z" fill="#1A1A1A"/>
<path id="Vector 5" d="M36.4578 10.4006H43.3976L46 13.0031L43.3976 16.0392H40.3614V19.5091L37.3253 22.5453H34.2891V25.5814L31.253 28.1839L28.2168 25.5814V19.0754L30.8192 16.0392H34.2891V13.0031L36.4578 10.4006Z" fill="#1A1A1A"/>
<path id="Vector 6" d="M25.1808 28.1839H13.0362L10 31.22V43.3647L13.0362 46.4009L16.0723 43.3647V34.2562H22.1446V43.7984L25.1808 46.4009H37.3255L39.9279 43.3647L37.3255 40.3285H28.217V31.22L25.1808 28.1839Z" fill="#1A1A1A"/>
<path id="Vector 7" d="M39.9297 31.22L36.8936 28.1839L33.8574 31.22L36.8936 34.2562L39.9297 31.22Z" fill="#1A1A1A"/>
<path id="Vector 8" d="M45.5665 37.2924L42.5303 34.2562L39.4941 37.2924L42.5303 40.3285L45.5665 37.2924Z" fill="#1A1A1A"/>
</g>
</svg>
