<svg width="56" height="57" viewBox="0 0 56 57" fill="none" xmlns="http://www.w3.org/2000/svg">
<g id="Pattern 2">
<path d="M0 8.40063C0 3.98236 3.58172 0.400635 8 0.400635H48C52.4183 0.400635 56 3.98236 56 8.40063V48.4006C56 52.8189 52.4183 56.4006 48 56.4006H8C3.58172 56.4006 0 52.8189 0 48.4006V8.40063Z" fill="white"/>
<path d="M0.5 8.40063C0.5 4.2585 3.85786 0.900635 8 0.900635H48C52.1421 0.900635 55.5 4.2585 55.5 8.40063V48.4006C55.5 52.5428 52.1421 55.9006 48 55.9006H8C3.85786 55.9006 0.5 52.5428 0.5 48.4006V8.40063Z" stroke="#1A1A1A" stroke-opacity="0.1"/>
<rect id="Rectangle 5103" x="40.1387" y="10.4006" width="5.86047" height="5.86047" fill="#1A1A1A"/>
<rect id="Rectangle 5112" x="40.1387" y="40.5402" width="5.86047" height="5.86047" fill="#1A1A1A"/>
<rect id="Rectangle 5104" x="32.6055" y="10.4006" width="5.86047" height="5.86047" fill="#1A1A1A"/>
<rect id="Rectangle 5113" x="32.6055" y="40.5402" width="5.86047" height="5.86047" fill="#1A1A1A"/>
<rect id="Rectangle 5105" x="25.0703" y="10.4006" width="5.86047" height="5.86047" fill="#1A1A1A"/>
<rect id="Rectangle 5114" x="25.0703" y="40.5402" width="5.86047" height="5.86047" fill="#1A1A1A"/>
<rect id="Rectangle 5106" x="17.5352" y="10.4006" width="5.86047" height="5.86047" fill="#1A1A1A"/>
<rect id="Rectangle 5115" x="17.5352" y="40.5402" width="5.86047" height="5.86047" fill="#1A1A1A"/>
<rect id="Rectangle 5107" x="10" y="10.4006" width="5.86047" height="5.86047" fill="#1A1A1A"/>
<rect id="Rectangle 5108" x="10" y="17.9355" width="5.86047" height="5.86047" fill="#1A1A1A"/>
<rect id="Rectangle 5116" x="40.1387" y="17.9355" width="5.86047" height="5.86047" fill="#1A1A1A"/>
<rect id="Rectangle 5119" x="25.0703" y="25.4704" width="5.86047" height="5.86047" fill="#1A1A1A"/>
<rect id="Rectangle 5109" x="10" y="25.4704" width="5.86047" height="5.86047" fill="#1A1A1A"/>
<rect id="Rectangle 5117" x="40.1387" y="25.4704" width="5.86047" height="5.86047" fill="#1A1A1A"/>
<rect id="Rectangle 5110" x="10" y="33.0053" width="5.86047" height="5.86047" fill="#1A1A1A"/>
<rect id="Rectangle 5118" x="40.1387" y="33.0053" width="5.86047" height="5.86047" fill="#1A1A1A"/>
<rect id="Rectangle 5111" x="10" y="40.5402" width="5.86047" height="5.86047" fill="#1A1A1A"/>
</g>
</svg>
