<svg width="56" height="57" viewBox="0 0 56 57" fill="none" xmlns="http://www.w3.org/2000/svg">
<g id="Pattern 10">
<path d="M0 8.40063C0 3.98236 3.58172 0.400635 8 0.400635H48C52.4183 0.400635 56 3.98236 56 8.40063V48.4006C56 52.8189 52.4183 56.4006 48 56.4006H8C3.58172 56.4006 0 52.8189 0 48.4006V8.40063Z" fill="white"/>
<path d="M0.5 8.40063C0.5 4.2585 3.85786 0.900635 8 0.900635H48C52.1421 0.900635 55.5 4.2585 55.5 8.40063V48.4006C55.5 52.5428 52.1421 55.9006 48 55.9006H8C3.85786 55.9006 0.5 52.5428 0.5 48.4006V8.40063Z" stroke="#1A1A1A" stroke-opacity="0.1"/>
<path id="Vector 17" d="M22.0857 10.4006H16.0249C15.9115 10.4006 15.8013 10.4381 15.7114 10.5073L10.2007 14.7462C10.0742 14.8436 10 14.9942 10 15.1539V15.7363C10 16.0204 10.2303 16.2506 10.5143 16.2506H16.2357C16.5197 16.2506 16.75 16.4809 16.75 16.7649V22.8257C16.75 22.9391 16.7875 23.0494 16.8567 23.1393L21.0956 28.6499C21.193 28.7765 21.3436 28.8506 21.5032 28.8506H22.0857C22.3697 28.8506 22.6 28.6204 22.6 28.3363V10.9149C22.6 10.6309 22.3697 10.4006 22.0857 10.4006Z" fill="#1A1A1A"/>
<path id="Vector 18" d="M27.6309 27.8863V10.9149C27.6309 10.6309 27.8611 10.4006 28.1451 10.4006H28.7546C28.8988 10.4006 29.0363 10.4611 29.1337 10.5674L33.7957 15.6532C33.8826 15.748 33.9309 15.872 33.9309 16.0007V22.0363C33.9309 22.3204 34.1611 22.5506 34.4451 22.5506H45.4857C45.7697 22.5506 46 22.7809 46 23.0649V23.2267C46 23.3695 45.9406 23.5059 45.8361 23.6032L40.8289 28.2628C40.7338 28.3514 40.6086 28.4006 40.4786 28.4006H28.1451C27.8611 28.4006 27.6309 28.1704 27.6309 27.8863Z" fill="#1A1A1A"/>
<path id="Vector 19" d="M34.3 45.8863V34.7649C34.3 34.4809 34.0697 34.2506 33.7857 34.2506H22.6643C22.3803 34.2506 22.15 34.4809 22.15 34.7649V40.0363C22.15 40.3204 21.9197 40.5506 21.6357 40.5506H16.8143C16.5303 40.5506 16.3 40.3204 16.3 40.0363V34.4517C16.3 34.3224 16.2513 34.1979 16.1636 34.1029L11.0527 28.5661C10.9554 28.4606 10.8184 28.4006 10.6748 28.4006H10.5143C10.2303 28.4006 10 28.6309 10 28.9149V45.8863C10 46.1704 10.2303 46.4006 10.5143 46.4006H33.7857C34.0697 46.4006 34.3 46.1704 34.3 45.8863Z" fill="#1A1A1A"/>
<path id="Vector 20" d="M45.9991 15.7364V10.9149C45.9991 10.6309 45.7689 10.4006 45.4848 10.4006H45.3813C45.2526 10.4006 45.1286 10.4489 45.0338 10.5358L39.948 15.1978C39.8418 15.2952 39.7812 15.4327 39.7812 15.5769V15.7364C39.7812 16.0204 40.0115 16.2506 40.2955 16.2506H45.4848C45.7689 16.2506 45.9991 16.0204 45.9991 15.7364Z" fill="#1A1A1A"/>
<path id="Vector 21" d="M45.8339 38.3932L42.2773 35.133C42.15 35.0163 41.9726 34.9713 41.8051 35.0132L40.663 35.2987C40.434 35.3559 40.2734 35.5616 40.2734 35.7976V36.9627C40.2734 37.111 40.3375 37.2521 40.4491 37.3498L43.728 40.2188C43.8218 40.3009 43.9421 40.3461 44.0667 40.3461H45.4864C45.7705 40.3461 46.0007 40.1158 46.0007 39.8318V38.7723C46.0007 38.6282 45.9402 38.4906 45.8339 38.3932Z" fill="#1A1A1A"/>
</g>
</svg>
