<svg width="56" height="57" viewBox="0 0 56 57" fill="none" xmlns="http://www.w3.org/2000/svg">
<g id="Pattern 6">
<path d="M0 8.40063C0 3.98236 3.58172 0.400635 8 0.400635H48C52.4183 0.400635 56 3.98236 56 8.40063V48.4006C56 52.8189 52.4183 56.4006 48 56.4006H8C3.58172 56.4006 0 52.8189 0 48.4006V8.40063Z" fill="white"/>
<path d="M0.5 8.40063C0.5 4.2585 3.85786 0.900635 8 0.900635H48C52.1421 0.900635 55.5 4.2585 55.5 8.40063V48.4006C55.5 52.5428 52.1421 55.9006 48 55.9006H8C3.85786 55.9006 0.5 52.5428 0.5 48.4006V8.40063Z" stroke="#1A1A1A" stroke-opacity="0.1"/>
<rect id="Rectangle 5130" x="10" y="10.4006" width="20" height="4" rx="2" fill="#1A1A1A"/>
<rect id="Rectangle 5137" x="15" y="32.4006" width="10" height="3" rx="1.5" fill="#1A1A1A"/>
<rect id="Rectangle 5138" x="32" y="15.4006" width="9" height="4" rx="2" fill="#1A1A1A"/>
<rect id="Rectangle 5139" x="46" y="21.4006" width="14" height="3" rx="1.5" transform="rotate(90 46 21.4006)" fill="#1A1A1A"/>
<rect id="Rectangle 5140" x="35" y="21.4006" width="8" height="3" rx="1.5" transform="rotate(90 35 21.4006)" fill="#1A1A1A"/>
<rect id="Rectangle 5142" x="35" y="36.4006" width="10" height="3" rx="1.5" transform="rotate(90 35 36.4006)" fill="#1A1A1A"/>
<rect id="Rectangle 5141" x="13" y="21.4006" width="8" height="3" rx="1.5" transform="rotate(90 13 21.4006)" fill="#1A1A1A"/>
<rect id="Rectangle 5131" x="43" y="10.4006" width="3" height="4" rx="1.5" fill="#1A1A1A"/>
<rect id="Rectangle 5132" x="21" y="15.4006" width="4" height="4" rx="2" fill="#1A1A1A"/>
<rect id="Rectangle 5135" x="21" y="42.4006" width="4" height="4" rx="2" fill="#1A1A1A"/>
<rect id="Rectangle 5136" x="43" y="42.4006" width="3" height="4" rx="1.5" fill="#1A1A1A"/>
<rect id="Rectangle 5134" x="26" y="37.4006" width="4" height="4" rx="2" fill="#1A1A1A"/>
<rect id="Rectangle 5133" x="15" y="27.4006" width="4" height="2" rx="1" fill="#1A1A1A"/>
</g>
</svg>
