<svg width="56" height="57" viewBox="0 0 56 57" fill="none" xmlns="http://www.w3.org/2000/svg">
<g id="Pattern 11">
<path d="M0 8.40063C0 3.98236 3.58172 0.400635 8 0.400635H48C52.4183 0.400635 56 3.98236 56 8.40063V48.4006C56 52.8189 52.4183 56.4006 48 56.4006H8C3.58172 56.4006 0 52.8189 0 48.4006V8.40063Z" fill="white"/>
<path d="M0.5 8.40063C0.5 4.2585 3.85786 0.900635 8 0.900635H48C52.1421 0.900635 55.5 4.2585 55.5 8.40063V48.4006C55.5 52.5428 52.1421 55.9006 48 55.9006H8C3.85786 55.9006 0.5 52.5428 0.5 48.4006V8.40063Z" stroke="#1A1A1A" stroke-opacity="0.1"/>
<path id="Vector 14" d="M22.7074 10.4006H10V15.8964C10 16.4734 10.1675 17.0359 10.4169 17.5563C10.6331 18.0073 10.8622 18.5788 10.9112 19.0568C11.0433 20.3454 10 22.246 10 22.246C10 22.246 12.8953 22.0611 14.1003 20.8792C15.4264 19.5785 15.4671 16.3233 15.4671 16.3233H21.1145C21.8788 16.3233 22.6076 16.027 23.2537 15.6186C23.7827 15.2842 24.4501 14.9565 25.0345 14.9565C26.228 14.9565 27.768 16.3233 27.768 16.3233C27.768 16.3233 27.687 13.8883 26.8568 12.6786C26.1549 11.6559 24.5001 10.9007 23.684 10.5762C23.3734 10.4527 23.0417 10.4006 22.7074 10.4006Z" fill="#1A1A1A"/>
<path id="Vector 15" d="M41.3547 10.8562H37.2713C35.546 10.8562 34.1473 12.2549 34.1473 13.9803V16.7789H31.3487C29.6233 16.7789 28.2246 18.1776 28.2246 19.9029V20.2302C28.2246 21.8179 29.0895 23.2502 29.5412 24.7723C29.5619 24.8421 29.5789 24.9113 29.5914 24.9795C29.866 26.4746 28.2246 28.6242 28.2246 28.6242C28.2246 28.6242 31.4978 28.2255 32.7805 26.8019C34.0239 25.4219 34.1473 22.246 34.1473 22.246H37.4015C39.1268 22.246 40.5255 20.8473 40.5255 19.1219V16.3233C40.5255 16.3233 42.1338 15.4121 43.2591 15.4121C44.3843 15.4121 45.9926 16.3233 45.9926 16.3233C45.9926 16.3233 46.0996 14.2594 45.537 13.1342C45.3544 12.7689 45.0503 12.4008 44.7229 12.0702C43.8495 11.1881 42.5961 10.8562 41.3547 10.8562Z" fill="#1A1A1A"/>
<path id="Vector 16" d="M34.4665 40.7016H28.2236V32.566C28.2236 30.2655 26.3587 28.4006 24.0582 28.4006H20.0881C17.7876 28.4006 15.9227 30.2655 15.9227 32.566V34.7789C15.9227 34.7789 14.3133 35.6412 13.1891 35.6901C11.8951 35.7463 10 34.7789 10 34.7789C10 34.7789 10 37.0568 11.3668 38.8792C11.7335 39.3682 12.6247 39.857 13.3719 40.2052C14.142 40.5639 14.9902 40.7016 15.8398 40.7016H21.8453V42.2352C21.8453 44.5357 23.7102 46.4006 26.0107 46.4006H32.3932C33.5455 46.4006 34.6703 46.0877 35.7716 45.7487C36.2904 45.589 36.8544 45.4685 37.3354 45.4895C38.4596 45.5383 40.0689 46.4006 40.0689 46.4006C40.0689 46.4006 39.974 44.1986 39.1577 42.9795C38.7432 42.3604 37.9766 41.8043 37.2988 41.3965C36.4497 40.8855 35.4575 40.7016 34.4665 40.7016Z" fill="#1A1A1A"/>
<circle id="Ellipse 204" cx="36.88" cy="31.3578" r="2.73354" fill="#1A1A1A"/>
<circle id="Ellipse 205" cx="43.2589" cy="37.736" r="2.73354" fill="#1A1A1A"/>
</g>
</svg>
