<svg width="56" height="57" viewBox="0 0 56 57" fill="none" xmlns="http://www.w3.org/2000/svg">
<g id="Pattern 7">
<path d="M0 8.40063C0 3.98236 3.58172 0.400635 8 0.400635H48C52.4183 0.400635 56 3.98236 56 8.40063V48.4006C56 52.8189 52.4183 56.4006 48 56.4006H8C3.58172 56.4006 0 52.8189 0 48.4006V8.40063Z" fill="white"/>
<path d="M0.5 8.40063C0.5 4.2585 3.85786 0.900635 8 0.900635H48C52.1421 0.900635 55.5 4.2585 55.5 8.40063V48.4006C55.5 52.5428 52.1421 55.9006 48 55.9006H8C3.85786 55.9006 0.5 52.5428 0.5 48.4006V8.40063Z" stroke="#1A1A1A" stroke-opacity="0.1"/>
<path id="Vector 1" d="M15.7697 10.4006H10V13.7293C10 15.3226 11.2916 16.6141 12.8848 16.6141C14.4781 16.6141 15.7697 15.3226 15.7697 13.7293V10.4006Z" fill="#1A1A1A"/>
<path id="Vector 2" d="M34.4094 10.4006H21.9824V25.9344C21.9824 27.6502 23.3734 29.0412 25.0892 29.0412C26.805 29.0412 28.1959 27.6502 28.1959 25.9344V22.8277H37.0724C38.7882 22.8277 40.1791 21.4367 40.1791 19.7209C40.1791 18.0051 38.7882 16.6141 37.0724 16.6141H34.4094V10.4006Z" fill="#1A1A1A"/>
<circle id="Ellipse 203" cx="43.0689" cy="31.9714" r="2.93023" fill="#1A1A1A"/>
<path id="Vector 3" d="M40.1799 40.3414V46.4006H34.4102V40.0244H28.1967V46.4006H15.0722C12.2709 46.4006 10 44.1297 10 41.3284V24.7125C10 23.1193 11.2916 21.8277 12.8848 21.8277C14.4781 21.8277 15.7697 23.1193 15.7697 24.7125V40.0244H21.9832C21.9832 36.8379 24.5664 34.2547 27.7529 34.2547H34.0932C37.4548 34.2547 40.1799 36.9798 40.1799 40.3414Z" fill="#1A1A1A"/>
</g>
</svg>
